M48
;DRILL file {KiCad 6.0.0-rc1-unknown-r13540.595666d46.fc27} date Wed Oct  3 13:09:53 2018
;FORMAT={-:-/ absolute / metric / decimal}
FMAT,2
METRIC,TZ
T1C0.400
T2C0.650
T3C0.700
T4C0.800
T5C1.000
T6C1.016
%
G90
G05
M71
T1
X93.161Y-105.947
X98.317Y-122.555
X98.368Y-123.672
X98.665Y-142.044
X99.384Y-113.004
X101.289Y-128.148
X101.365Y-121.285
X101.416Y-122.555
X101.416Y-123.672
X101.855Y-127.449
X103.321Y-128.775
X107.226Y-131.285
X107.276Y-130.167
X107.619Y-128.86
X108.147Y-121.132
X108.437Y-128.233
X109.036Y-127.482
X110.782Y-139.464
X111.506Y-133.395
X112.719Y-142.976
X114.388Y-139.667
X114.769Y-120.744
X115.15Y-127.729
X115.259Y-115.798
X115.259Y-116.814
X115.259Y-117.831
X115.404Y-139.667
X116.252Y-127.729
X118.96Y-130.269
X119.149Y-131.696
X119.153Y-129.39
X119.214Y-137.
X121.101Y-125.45
X122.371Y-140.945
X122.682Y-127.886
X123.387Y-137.642
X124.911Y-117.576
X125.419Y-142.469
X126.435Y-125.617
X126.435Y-132.458
X126.587Y-121.974
X128.403Y-117.576
X128.721Y-132.458
X128.778Y-125.617
X131.007Y-132.458
X131.134Y-153.644
X131.515Y-126.974
X132.08Y-129.664
X132.531Y-117.576
X133.28Y-120.967
X134.436Y-122.301
X135.706Y-153.644
X136.595Y-117.576
X137.611Y-132.308
X139.135Y-121.132
X139.897Y-153.644
X144.723Y-146.024
X145.739Y-127.736
X150.228Y-143.612
X151.327Y-146.532
T4
X88.335Y-147.644
X88.335Y-149.644
X88.335Y-151.644
X88.335Y-153.644
X91.635Y-147.644
X91.635Y-149.644
X91.635Y-151.644
X91.635Y-153.644
T5
X83.255Y-151.105
X83.255Y-153.644
T6
X94.456Y-130.346
X94.456Y-132.886
X94.456Y-135.426
X96.996Y-130.346
X96.996Y-132.886
X96.996Y-135.426
X122.796Y-155.534
X122.796Y-158.073
X122.796Y-160.613
X125.336Y-155.534
X125.336Y-158.073
X125.336Y-160.613
X88.716Y-114.02
X88.716Y-116.56
X91.256Y-114.02
X91.256Y-116.56
X93.796Y-114.02
X93.796Y-116.56
X134.829Y-160.105
X134.829Y-162.645
X137.369Y-160.105
X137.369Y-162.645
X139.909Y-160.105
X139.909Y-162.645
X103.238Y-155.153
X103.238Y-157.692
X103.238Y-160.232
X105.778Y-155.153
X105.778Y-157.692
X105.778Y-160.232
X33.666Y-111.433
X36.206Y-111.433
X38.746Y-111.433
X38.746Y-113.973
X41.286Y-111.433
X41.286Y-113.973
X42.81Y-159.693
X43.826Y-111.433
X43.826Y-113.973
X45.35Y-159.693
X46.366Y-111.433
X46.366Y-113.973
X47.89Y-159.693
X48.906Y-111.433
X48.906Y-113.973
X50.43Y-159.693
X51.446Y-111.433
X51.446Y-113.973
X52.958Y-157.258
X52.97Y-159.693
X53.986Y-111.433
X53.986Y-113.973
X55.498Y-157.258
X55.51Y-159.693
X56.526Y-111.433
X56.526Y-113.973
X58.038Y-157.258
X58.05Y-159.693
X60.578Y-111.424
X60.578Y-113.964
X60.578Y-157.258
X60.59Y-159.693
X63.118Y-111.424
X63.118Y-113.964
X65.658Y-111.424
X65.658Y-113.964
X65.658Y-157.258
X65.658Y-159.798
X68.198Y-111.424
X68.198Y-113.964
X68.198Y-157.258
X68.198Y-159.798
X70.738Y-111.424
X70.738Y-113.964
X70.738Y-157.258
X70.738Y-159.798
X73.278Y-111.424
X73.278Y-113.964
X73.278Y-157.258
X73.278Y-159.798
X75.818Y-111.424
X75.818Y-113.964
X75.818Y-157.258
X75.818Y-159.798
X78.358Y-111.424
X78.358Y-113.964
X78.358Y-157.258
X78.358Y-159.798
X64.26Y-124.185
X64.26Y-126.725
X64.26Y-129.265
X64.26Y-131.805
X64.26Y-134.345
X64.26Y-136.885
X64.26Y-139.425
X64.26Y-141.965
X64.26Y-144.505
X64.26Y-147.045
X66.8Y-124.185
X66.8Y-126.725
X66.8Y-129.265
X66.8Y-131.805
X66.8Y-134.345
X66.8Y-136.885
X66.8Y-139.425
X66.8Y-141.965
X66.8Y-144.505
X66.8Y-147.045
X112.998Y-155.279
X112.998Y-157.82
X112.998Y-160.359
X115.538Y-155.279
X115.538Y-157.82
X115.538Y-160.359
X116.783Y-111.48
X116.783Y-114.02
X119.323Y-111.48
X119.323Y-114.02
X121.863Y-111.48
X121.863Y-114.02
X124.403Y-111.48
X124.403Y-114.02
X126.943Y-111.48
X126.943Y-114.02
X129.483Y-111.48
X129.483Y-114.02
X132.023Y-111.48
X132.023Y-114.02
X134.563Y-111.48
X134.563Y-114.02
X137.103Y-111.48
X137.103Y-114.02
X139.643Y-111.48
X139.643Y-114.02
X51.56Y-124.185
X51.56Y-126.725
X51.56Y-129.265
X51.56Y-131.805
X51.56Y-134.345
X51.56Y-136.885
X51.56Y-139.425
X51.56Y-141.965
X51.56Y-144.505
X51.56Y-147.045
X54.1Y-124.185
X54.1Y-126.725
X54.1Y-129.265
X54.1Y-131.805
X54.1Y-134.345
X54.1Y-136.885
X54.1Y-139.425
X54.1Y-141.965
X54.1Y-144.505
X54.1Y-147.045
T2
X102.704Y-107.323G85X102.704Y-107.724
G05
X107.544Y-107.323G85X107.544Y-107.724
G05
T3
X102.394Y-104.273G85X102.394Y-104.773
G05
X107.854Y-104.273G85X107.854Y-104.773
G05
T0
M30
