G04 #@! TF.GenerationSoftware,KiCad,Pcbnew,6.0.0-rc1-unknown-r13540.595666d46.fc27*
G04 #@! TF.CreationDate,2018-10-03T13:58:40+02:00*
G04 #@! TF.ProjectId,Bricoleur-pcb,427269636F6C6575722D7063622E6B69,rev?*
G04 #@! TF.SameCoordinates,Original*
G04 #@! TF.FileFunction,Copper,L1,Top*
G04 #@! TF.FilePolarity,Positive*
%FSLAX46Y46*%
G04 Gerber Fmt 4.6, Leading zero omitted, Abs format (unit mm)*
G04 Created by KiCad (PCBNEW 6.0.0-rc1-unknown-r13540.595666d46.fc27) date Wed Oct  3 13:58:40 2018*
%MOMM*%
%LPD*%
G01*
G04 APERTURE LIST*
G04 #@! TA.AperFunction,SMDPad,CuDef*
%ADD10R,0.800000X0.900000*%
G04 #@! TD*
G04 #@! TA.AperFunction,ComponentPad*
%ADD11O,1.727200X1.727200*%
G04 #@! TD*
G04 #@! TA.AperFunction,ComponentPad*
%ADD12R,1.727200X1.727200*%
G04 #@! TD*
G04 #@! TA.AperFunction,ComponentPad*
%ADD13C,1.500000*%
G04 #@! TD*
G04 #@! TA.AperFunction,SMDPad,CuDef*
%ADD14R,0.900000X0.800000*%
G04 #@! TD*
G04 #@! TA.AperFunction,ComponentPad*
%ADD15C,1.727200*%
G04 #@! TD*
G04 #@! TA.AperFunction,Conductor*
%ADD16C,0.100000*%
G04 #@! TD*
G04 #@! TA.AperFunction,SMDPad,CuDef*
%ADD17C,0.590000*%
G04 #@! TD*
G04 #@! TA.AperFunction,SMDPad,CuDef*
%ADD18R,3.100000X1.300000*%
G04 #@! TD*
G04 #@! TA.AperFunction,SMDPad,CuDef*
%ADD19R,1.473200X0.279400*%
G04 #@! TD*
G04 #@! TA.AperFunction,SMDPad,CuDef*
%ADD20R,0.279400X1.473200*%
G04 #@! TD*
G04 #@! TA.AperFunction,SMDPad,CuDef*
%ADD21C,0.975000*%
G04 #@! TD*
G04 #@! TA.AperFunction,ComponentPad*
%ADD22O,1.700000X1.700000*%
G04 #@! TD*
G04 #@! TA.AperFunction,ComponentPad*
%ADD23R,1.700000X1.700000*%
G04 #@! TD*
G04 #@! TA.AperFunction,SMDPad,CuDef*
%ADD24R,1.350000X2.000000*%
G04 #@! TD*
G04 #@! TA.AperFunction,SMDPad,CuDef*
%ADD25R,1.825000X0.700000*%
G04 #@! TD*
G04 #@! TA.AperFunction,SMDPad,CuDef*
%ADD26R,2.000000X1.500000*%
G04 #@! TD*
G04 #@! TA.AperFunction,SMDPad,CuDef*
%ADD27R,0.400000X1.650000*%
G04 #@! TD*
G04 #@! TA.AperFunction,ComponentPad*
%ADD28O,1.100000X1.500000*%
G04 #@! TD*
G04 #@! TA.AperFunction,ComponentPad*
%ADD29O,1.350000X1.700000*%
G04 #@! TD*
G04 #@! TA.AperFunction,SMDPad,CuDef*
%ADD30R,1.430000X2.500000*%
G04 #@! TD*
G04 #@! TA.AperFunction,SMDPad,CuDef*
%ADD31R,2.500000X3.000000*%
G04 #@! TD*
G04 #@! TA.AperFunction,SMDPad,CuDef*
%ADD32R,1.000000X0.400000*%
G04 #@! TD*
G04 #@! TA.AperFunction,SMDPad,CuDef*
%ADD33C,0.400000*%
G04 #@! TD*
G04 #@! TA.AperFunction,SMDPad,CuDef*
%ADD34C,0.875000*%
G04 #@! TD*
G04 #@! TA.AperFunction,SMDPad,CuDef*
%ADD35R,1.000000X1.000000*%
G04 #@! TD*
G04 #@! TA.AperFunction,SMDPad,CuDef*
%ADD36R,1.300000X3.100000*%
G04 #@! TD*
G04 #@! TA.AperFunction,ViaPad*
%ADD37C,0.800000*%
G04 #@! TD*
G04 #@! TA.AperFunction,Conductor*
%ADD38C,0.254000*%
G04 #@! TD*
G04 #@! TA.AperFunction,Conductor*
%ADD39C,0.635000*%
G04 #@! TD*
G04 #@! TA.AperFunction,Conductor*
%ADD40C,0.330200*%
G04 #@! TD*
G04 APERTURE END LIST*
D10*
G04 #@! TO.P,D9,3*
G04 #@! TO.N,/sheet5BB7B6EA/INP*
X88360100Y-132870100D03*
G04 #@! TO.P,D9,2*
G04 #@! TO.N,VMCU*
X87410100Y-130870100D03*
G04 #@! TO.P,D9,1*
G04 #@! TO.N,GND*
X89310100Y-130870100D03*
G04 #@! TD*
D11*
G04 #@! TO.P,U8,6*
G04 #@! TO.N,/Sheet5BB71F0E/INP*
X96996100Y-135426100D03*
G04 #@! TO.P,U8,5*
G04 #@! TO.N,GND*
X94456100Y-135426100D03*
G04 #@! TO.P,U8,4*
G04 #@! TO.N,/sheet5BB7B6EA/INP*
X96996100Y-132886100D03*
G04 #@! TO.P,U8,3*
G04 #@! TO.N,GND*
X94456100Y-132886100D03*
G04 #@! TO.P,U8,2*
G04 #@! TO.N,DH_TCK_SWCLK*
X96996100Y-130346100D03*
D12*
G04 #@! TO.P,U8,1*
G04 #@! TO.N,GND*
X94456100Y-130346100D03*
G04 #@! TD*
D10*
G04 #@! TO.P,D18,3*
G04 #@! TO.N,/US1_CLK*
X142328265Y-155660500D03*
G04 #@! TO.P,D18,2*
G04 #@! TO.N,VMCU*
X141378265Y-153660500D03*
G04 #@! TO.P,D18,1*
G04 #@! TO.N,GND*
X143278265Y-153660500D03*
G04 #@! TD*
D13*
G04 #@! TO.P,U11,4*
G04 #@! TO.N,Net-(U11-Pad4)*
X91634600Y-147644500D03*
X88334600Y-147644500D03*
G04 #@! TO.P,U11,3*
G04 #@! TO.N,PYNQ_3V3*
X91634600Y-149644500D03*
G04 #@! TO.P,U11,2*
G04 #@! TO.N,Net-(C1-Pad2)*
X91634600Y-151644500D03*
G04 #@! TO.P,U11,1*
G04 #@! TO.N,VMCU*
X91634600Y-153644500D03*
G04 #@! TO.P,U11,3*
G04 #@! TO.N,PYNQ_3V3*
X88334600Y-149644500D03*
G04 #@! TO.P,U11,2*
G04 #@! TO.N,Net-(C1-Pad2)*
X88334600Y-151644500D03*
G04 #@! TO.P,U11,1*
G04 #@! TO.N,VMCU*
X88334600Y-153644500D03*
G04 #@! TD*
D14*
G04 #@! TO.P,D15,1*
G04 #@! TO.N,GND*
X88064800Y-108882185D03*
G04 #@! TO.P,D15,2*
G04 #@! TO.N,VMCU*
X88064800Y-106982185D03*
G04 #@! TO.P,D15,3*
G04 #@! TO.N,/US0_CLK*
X86064800Y-107932185D03*
G04 #@! TD*
G04 #@! TO.P,D16,1*
G04 #@! TO.N,GND*
X98224800Y-108882185D03*
G04 #@! TO.P,D16,2*
G04 #@! TO.N,VMCU*
X98224800Y-106982185D03*
G04 #@! TO.P,D16,3*
G04 #@! TO.N,/US0_TX*
X96224800Y-107932185D03*
G04 #@! TD*
G04 #@! TO.P,D17,1*
G04 #@! TO.N,GND*
X93174915Y-108882185D03*
G04 #@! TO.P,D17,2*
G04 #@! TO.N,VMCU*
X93174915Y-106982185D03*
G04 #@! TO.P,D17,3*
G04 #@! TO.N,/US0_RX*
X91174915Y-107932185D03*
G04 #@! TD*
D12*
G04 #@! TO.P,J3,1*
G04 #@! TO.N,/US0_TX*
X93795700Y-114020500D03*
D11*
G04 #@! TO.P,J3,2*
G04 #@! TO.N,GND*
X93795700Y-116560500D03*
G04 #@! TO.P,J3,3*
G04 #@! TO.N,/US0_RX*
X91255700Y-114020500D03*
G04 #@! TO.P,J3,4*
G04 #@! TO.N,GND*
X91255700Y-116560500D03*
G04 #@! TO.P,J3,5*
G04 #@! TO.N,/US0_CLK*
X88715700Y-114020500D03*
G04 #@! TO.P,J3,6*
G04 #@! TO.N,GND*
X88715700Y-116560500D03*
G04 #@! TD*
D15*
G04 #@! TO.P,U2,12*
G04 #@! TO.N,N/C*
X60577647Y-157258115D03*
G04 #@! TO.P,U2,11*
X58037647Y-157258115D03*
G04 #@! TO.P,U2,10*
X55497647Y-157258115D03*
G04 #@! TO.P,U2,8*
X60589979Y-159692907D03*
G04 #@! TO.P,U2,7*
G04 #@! TO.N,GND*
X58049979Y-159692907D03*
G04 #@! TO.P,U2,6*
X55509979Y-159692907D03*
G04 #@! TO.P,U2,5*
G04 #@! TO.N,N/C*
X52969979Y-159692907D03*
G04 #@! TO.P,U2,4*
G04 #@! TO.N,PYNQ_3V3*
X50429979Y-159692907D03*
G04 #@! TO.P,U2,3*
G04 #@! TO.N,N/C*
X47889979Y-159692907D03*
G04 #@! TO.P,U2,2*
X45349979Y-159692907D03*
G04 #@! TO.P,U2,43*
G04 #@! TO.N,/US0_RX*
X60577647Y-111423815D03*
G04 #@! TO.P,U2,13*
G04 #@! TO.N,N/C*
X65657647Y-159798115D03*
G04 #@! TO.P,U2,25*
X33665979Y-111432907D03*
G04 #@! TO.P,U2,35*
G04 #@! TO.N,/CAM1_SCL*
X38745979Y-113972907D03*
G04 #@! TO.P,U2,1*
G04 #@! TO.N,N/C*
X42809979Y-159692907D03*
G04 #@! TO.P,U2,9*
X52957647Y-157258115D03*
G04 #@! TO.P,U2,14*
X68197647Y-159798115D03*
G04 #@! TO.P,U2,15*
X70737647Y-159798115D03*
G04 #@! TO.P,U2,16*
X73277647Y-159798115D03*
G04 #@! TO.P,U2,17*
X75817647Y-159798115D03*
G04 #@! TO.P,U2,18*
X78357647Y-159798115D03*
G04 #@! TO.P,U2,19*
X65657647Y-157258115D03*
G04 #@! TO.P,U2,20*
X68197647Y-157258115D03*
G04 #@! TO.P,U2,21*
X70737647Y-157258115D03*
G04 #@! TO.P,U2,22*
X73277647Y-157258115D03*
G04 #@! TO.P,U2,23*
X75817647Y-157258115D03*
G04 #@! TO.P,U2,24*
X78357647Y-157258115D03*
G04 #@! TO.P,U2,26*
X36205979Y-111432907D03*
G04 #@! TO.P,U2,27*
G04 #@! TO.N,/CAM1_SDATA*
X38745979Y-111432907D03*
G04 #@! TO.P,U2,28*
G04 #@! TO.N,N/C*
X41285979Y-111432907D03*
G04 #@! TO.P,U2,29*
G04 #@! TO.N,/CAM1_VSYNC*
X43825979Y-111432907D03*
G04 #@! TO.P,U2,30*
G04 #@! TO.N,/CAM1_DOUT8*
X46365979Y-111432907D03*
G04 #@! TO.P,U2,31*
G04 #@! TO.N,/CAM1_DOUT6*
X48905979Y-111432907D03*
G04 #@! TO.P,U2,32*
G04 #@! TO.N,/CAM1_DOUT4*
X51445979Y-111432907D03*
G04 #@! TO.P,U2,33*
G04 #@! TO.N,/CAM1_DOUT2*
X53985979Y-111432907D03*
G04 #@! TO.P,U2,34*
G04 #@! TO.N,N/C*
X56525979Y-111432907D03*
G04 #@! TO.P,U2,36*
G04 #@! TO.N,/CAM1_HREF*
X41285979Y-113972907D03*
G04 #@! TO.P,U2,37*
G04 #@! TO.N,/CAM1_PCLK*
X43825979Y-113972907D03*
G04 #@! TO.P,U2,38*
G04 #@! TO.N,/CAM1_DOUT9*
X46365979Y-113972907D03*
G04 #@! TO.P,U2,39*
G04 #@! TO.N,/CAM1_DOUT7*
X48905979Y-113972907D03*
G04 #@! TO.P,U2,40*
G04 #@! TO.N,/CAM1_DOUT5*
X51445979Y-113972907D03*
G04 #@! TO.P,U2,41*
G04 #@! TO.N,/CAM1_DOUT3*
X53985979Y-113972907D03*
G04 #@! TO.P,U2,42*
G04 #@! TO.N,/CAM_CLK*
X56525979Y-113972907D03*
G04 #@! TO.P,U2,44*
G04 #@! TO.N,/CAM0_DOUT2*
X63117647Y-111423815D03*
G04 #@! TO.P,U2,45*
G04 #@! TO.N,/CAM0_DOUT5*
X65657647Y-111423815D03*
G04 #@! TO.P,U2,46*
G04 #@! TO.N,/US0_CLK*
X68197647Y-111423815D03*
G04 #@! TO.P,U2,47*
G04 #@! TO.N,/CAM0_DOUT7*
X70737647Y-111423815D03*
G04 #@! TO.P,U2,48*
G04 #@! TO.N,/CAM0_DOUT9*
X73277647Y-111423815D03*
G04 #@! TO.P,U2,49*
G04 #@! TO.N,/CAM0_VSYNC*
X75817647Y-111423815D03*
G04 #@! TO.P,U2,50*
G04 #@! TO.N,/CAM0_SCL*
X78357647Y-111423815D03*
G04 #@! TO.P,U2,51*
G04 #@! TO.N,/US0_TX*
X60577647Y-113963815D03*
G04 #@! TO.P,U2,52*
G04 #@! TO.N,/CAM0_DOUT4*
X63117647Y-113963815D03*
G04 #@! TO.P,U2,53*
G04 #@! TO.N,/CAM0_DOUT3*
X65657647Y-113963815D03*
G04 #@! TO.P,U2,54*
G04 #@! TO.N,/CAM0_DOUT6*
X68197647Y-113963815D03*
G04 #@! TO.P,U2,55*
G04 #@! TO.N,/CAM0_DOUT8*
X70737647Y-113963815D03*
G04 #@! TO.P,U2,56*
G04 #@! TO.N,/CAM0_PCLK*
X73277647Y-113963815D03*
G04 #@! TO.P,U2,57*
G04 #@! TO.N,/CAM0_HREF*
X75817647Y-113963815D03*
G04 #@! TO.P,U2,58*
G04 #@! TO.N,/CAM0_SDATA*
X78357647Y-113963815D03*
G04 #@! TD*
D11*
G04 #@! TO.P,U5,20*
G04 #@! TO.N,N/C*
X51559711Y-124184663D03*
G04 #@! TO.P,U5,19*
X54099711Y-124184663D03*
G04 #@! TO.P,U5,18*
X51559711Y-126724663D03*
G04 #@! TO.P,U5,17*
G04 #@! TO.N,GND*
X54099711Y-126724663D03*
G04 #@! TO.P,U5,16*
G04 #@! TO.N,/CAM1_DOUT2*
X51559711Y-129264663D03*
G04 #@! TO.P,U5,15*
G04 #@! TO.N,/CAM1_DOUT3*
X54099711Y-129264663D03*
G04 #@! TO.P,U5,14*
G04 #@! TO.N,/CAM1_DOUT4*
X51559711Y-131804663D03*
G04 #@! TO.P,U5,13*
G04 #@! TO.N,/CAM1_DOUT5*
X54099711Y-131804663D03*
G04 #@! TO.P,U5,12*
G04 #@! TO.N,/CAM1_DOUT6*
X51559711Y-134344663D03*
G04 #@! TO.P,U5,11*
G04 #@! TO.N,/CAM1_DOUT7*
X54099711Y-134344663D03*
G04 #@! TO.P,U5,10*
G04 #@! TO.N,/CAM1_DOUT8*
X51559711Y-136884663D03*
G04 #@! TO.P,U5,9*
G04 #@! TO.N,/CAM1_DOUT9*
X54099711Y-136884663D03*
G04 #@! TO.P,U5,8*
G04 #@! TO.N,/CAM_CLK*
X51559711Y-139424663D03*
G04 #@! TO.P,U5,7*
G04 #@! TO.N,/CAM1_PCLK*
X54099711Y-139424663D03*
G04 #@! TO.P,U5,6*
G04 #@! TO.N,/CAM1_HREF*
X51559711Y-141964663D03*
G04 #@! TO.P,U5,5*
G04 #@! TO.N,/CAM1_VSYNC*
X54099711Y-141964663D03*
G04 #@! TO.P,U5,4*
G04 #@! TO.N,/CAM1_SDATA*
X51559711Y-144504663D03*
G04 #@! TO.P,U5,3*
G04 #@! TO.N,/CAM1_SCL*
X54099711Y-144504663D03*
G04 #@! TO.P,U5,2*
G04 #@! TO.N,GND*
X51559711Y-147044663D03*
D12*
G04 #@! TO.P,U5,1*
G04 #@! TO.N,PYNQ_3V3*
X54099711Y-147044663D03*
G04 #@! TD*
D11*
G04 #@! TO.P,U6,20*
G04 #@! TO.N,N/C*
X64259711Y-124184663D03*
G04 #@! TO.P,U6,19*
X66799711Y-124184663D03*
G04 #@! TO.P,U6,18*
X64259711Y-126724663D03*
G04 #@! TO.P,U6,17*
G04 #@! TO.N,GND*
X66799711Y-126724663D03*
G04 #@! TO.P,U6,16*
G04 #@! TO.N,/CAM0_DOUT2*
X64259711Y-129264663D03*
G04 #@! TO.P,U6,15*
G04 #@! TO.N,/CAM0_DOUT3*
X66799711Y-129264663D03*
G04 #@! TO.P,U6,14*
G04 #@! TO.N,/CAM0_DOUT4*
X64259711Y-131804663D03*
G04 #@! TO.P,U6,13*
G04 #@! TO.N,/CAM0_DOUT5*
X66799711Y-131804663D03*
G04 #@! TO.P,U6,12*
G04 #@! TO.N,/CAM0_DOUT6*
X64259711Y-134344663D03*
G04 #@! TO.P,U6,11*
G04 #@! TO.N,/CAM0_DOUT7*
X66799711Y-134344663D03*
G04 #@! TO.P,U6,10*
G04 #@! TO.N,/CAM0_DOUT8*
X64259711Y-136884663D03*
G04 #@! TO.P,U6,9*
G04 #@! TO.N,/CAM0_DOUT9*
X66799711Y-136884663D03*
G04 #@! TO.P,U6,8*
G04 #@! TO.N,/CAM_CLK*
X64259711Y-139424663D03*
G04 #@! TO.P,U6,7*
G04 #@! TO.N,/CAM0_PCLK*
X66799711Y-139424663D03*
G04 #@! TO.P,U6,6*
G04 #@! TO.N,/CAM0_HREF*
X64259711Y-141964663D03*
G04 #@! TO.P,U6,5*
G04 #@! TO.N,/CAM0_VSYNC*
X66799711Y-141964663D03*
G04 #@! TO.P,U6,4*
G04 #@! TO.N,/CAM0_SDATA*
X64259711Y-144504663D03*
G04 #@! TO.P,U6,3*
G04 #@! TO.N,/CAM0_SCL*
X66799711Y-144504663D03*
G04 #@! TO.P,U6,2*
G04 #@! TO.N,GND*
X64259711Y-147044663D03*
D12*
G04 #@! TO.P,U6,1*
G04 #@! TO.N,PYNQ_3V3*
X66799711Y-147044663D03*
G04 #@! TD*
D14*
G04 #@! TO.P,D6,3*
G04 #@! TO.N,DH_TCK_SWCLK*
X126399900Y-121024300D03*
G04 #@! TO.P,D6,2*
G04 #@! TO.N,VMCU*
X128399900Y-120074300D03*
G04 #@! TO.P,D6,1*
G04 #@! TO.N,GND*
X128399900Y-121974300D03*
G04 #@! TD*
G04 #@! TO.P,D4,3*
G04 #@! TO.N,DH_#RESET*
X134511900Y-121024300D03*
G04 #@! TO.P,D4,2*
G04 #@! TO.N,VMCU*
X136511900Y-120074300D03*
G04 #@! TO.P,D4,1*
G04 #@! TO.N,GND*
X136511900Y-121974300D03*
G04 #@! TD*
D16*
G04 #@! TO.N,GND*
G04 #@! TO.C,R14*
G36*
X138257558Y-106612210D02*
X138271876Y-106614334D01*
X138285917Y-106617851D01*
X138299546Y-106622728D01*
X138312631Y-106628917D01*
X138325047Y-106636358D01*
X138336673Y-106644981D01*
X138347398Y-106654702D01*
X138357119Y-106665427D01*
X138365742Y-106677053D01*
X138373183Y-106689469D01*
X138379372Y-106702554D01*
X138384249Y-106716183D01*
X138387766Y-106730224D01*
X138389890Y-106744542D01*
X138390600Y-106759000D01*
X138390600Y-107104000D01*
X138389890Y-107118458D01*
X138387766Y-107132776D01*
X138384249Y-107146817D01*
X138379372Y-107160446D01*
X138373183Y-107173531D01*
X138365742Y-107185947D01*
X138357119Y-107197573D01*
X138347398Y-107208298D01*
X138336673Y-107218019D01*
X138325047Y-107226642D01*
X138312631Y-107234083D01*
X138299546Y-107240272D01*
X138285917Y-107245149D01*
X138271876Y-107248666D01*
X138257558Y-107250790D01*
X138243100Y-107251500D01*
X137948100Y-107251500D01*
X137933642Y-107250790D01*
X137919324Y-107248666D01*
X137905283Y-107245149D01*
X137891654Y-107240272D01*
X137878569Y-107234083D01*
X137866153Y-107226642D01*
X137854527Y-107218019D01*
X137843802Y-107208298D01*
X137834081Y-107197573D01*
X137825458Y-107185947D01*
X137818017Y-107173531D01*
X137811828Y-107160446D01*
X137806951Y-107146817D01*
X137803434Y-107132776D01*
X137801310Y-107118458D01*
X137800600Y-107104000D01*
X137800600Y-106759000D01*
X137801310Y-106744542D01*
X137803434Y-106730224D01*
X137806951Y-106716183D01*
X137811828Y-106702554D01*
X137818017Y-106689469D01*
X137825458Y-106677053D01*
X137834081Y-106665427D01*
X137843802Y-106654702D01*
X137854527Y-106644981D01*
X137866153Y-106636358D01*
X137878569Y-106628917D01*
X137891654Y-106622728D01*
X137905283Y-106617851D01*
X137919324Y-106614334D01*
X137933642Y-106612210D01*
X137948100Y-106611500D01*
X138243100Y-106611500D01*
X138257558Y-106612210D01*
X138257558Y-106612210D01*
G37*
D17*
G04 #@! TD*
G04 #@! TO.P,R14,2*
G04 #@! TO.N,GND*
X138095600Y-106931500D03*
D16*
G04 #@! TO.N,Net-(J2-Pad17)*
G04 #@! TO.C,R14*
G36*
X137287558Y-106612210D02*
X137301876Y-106614334D01*
X137315917Y-106617851D01*
X137329546Y-106622728D01*
X137342631Y-106628917D01*
X137355047Y-106636358D01*
X137366673Y-106644981D01*
X137377398Y-106654702D01*
X137387119Y-106665427D01*
X137395742Y-106677053D01*
X137403183Y-106689469D01*
X137409372Y-106702554D01*
X137414249Y-106716183D01*
X137417766Y-106730224D01*
X137419890Y-106744542D01*
X137420600Y-106759000D01*
X137420600Y-107104000D01*
X137419890Y-107118458D01*
X137417766Y-107132776D01*
X137414249Y-107146817D01*
X137409372Y-107160446D01*
X137403183Y-107173531D01*
X137395742Y-107185947D01*
X137387119Y-107197573D01*
X137377398Y-107208298D01*
X137366673Y-107218019D01*
X137355047Y-107226642D01*
X137342631Y-107234083D01*
X137329546Y-107240272D01*
X137315917Y-107245149D01*
X137301876Y-107248666D01*
X137287558Y-107250790D01*
X137273100Y-107251500D01*
X136978100Y-107251500D01*
X136963642Y-107250790D01*
X136949324Y-107248666D01*
X136935283Y-107245149D01*
X136921654Y-107240272D01*
X136908569Y-107234083D01*
X136896153Y-107226642D01*
X136884527Y-107218019D01*
X136873802Y-107208298D01*
X136864081Y-107197573D01*
X136855458Y-107185947D01*
X136848017Y-107173531D01*
X136841828Y-107160446D01*
X136836951Y-107146817D01*
X136833434Y-107132776D01*
X136831310Y-107118458D01*
X136830600Y-107104000D01*
X136830600Y-106759000D01*
X136831310Y-106744542D01*
X136833434Y-106730224D01*
X136836951Y-106716183D01*
X136841828Y-106702554D01*
X136848017Y-106689469D01*
X136855458Y-106677053D01*
X136864081Y-106665427D01*
X136873802Y-106654702D01*
X136884527Y-106644981D01*
X136896153Y-106636358D01*
X136908569Y-106628917D01*
X136921654Y-106622728D01*
X136935283Y-106617851D01*
X136949324Y-106614334D01*
X136963642Y-106612210D01*
X136978100Y-106611500D01*
X137273100Y-106611500D01*
X137287558Y-106612210D01*
X137287558Y-106612210D01*
G37*
D17*
G04 #@! TD*
G04 #@! TO.P,R14,1*
G04 #@! TO.N,Net-(J2-Pad17)*
X137125600Y-106931500D03*
D16*
G04 #@! TO.N,GND*
G04 #@! TO.C,R15*
G36*
X140335558Y-106612210D02*
X140349876Y-106614334D01*
X140363917Y-106617851D01*
X140377546Y-106622728D01*
X140390631Y-106628917D01*
X140403047Y-106636358D01*
X140414673Y-106644981D01*
X140425398Y-106654702D01*
X140435119Y-106665427D01*
X140443742Y-106677053D01*
X140451183Y-106689469D01*
X140457372Y-106702554D01*
X140462249Y-106716183D01*
X140465766Y-106730224D01*
X140467890Y-106744542D01*
X140468600Y-106759000D01*
X140468600Y-107104000D01*
X140467890Y-107118458D01*
X140465766Y-107132776D01*
X140462249Y-107146817D01*
X140457372Y-107160446D01*
X140451183Y-107173531D01*
X140443742Y-107185947D01*
X140435119Y-107197573D01*
X140425398Y-107208298D01*
X140414673Y-107218019D01*
X140403047Y-107226642D01*
X140390631Y-107234083D01*
X140377546Y-107240272D01*
X140363917Y-107245149D01*
X140349876Y-107248666D01*
X140335558Y-107250790D01*
X140321100Y-107251500D01*
X140026100Y-107251500D01*
X140011642Y-107250790D01*
X139997324Y-107248666D01*
X139983283Y-107245149D01*
X139969654Y-107240272D01*
X139956569Y-107234083D01*
X139944153Y-107226642D01*
X139932527Y-107218019D01*
X139921802Y-107208298D01*
X139912081Y-107197573D01*
X139903458Y-107185947D01*
X139896017Y-107173531D01*
X139889828Y-107160446D01*
X139884951Y-107146817D01*
X139881434Y-107132776D01*
X139879310Y-107118458D01*
X139878600Y-107104000D01*
X139878600Y-106759000D01*
X139879310Y-106744542D01*
X139881434Y-106730224D01*
X139884951Y-106716183D01*
X139889828Y-106702554D01*
X139896017Y-106689469D01*
X139903458Y-106677053D01*
X139912081Y-106665427D01*
X139921802Y-106654702D01*
X139932527Y-106644981D01*
X139944153Y-106636358D01*
X139956569Y-106628917D01*
X139969654Y-106622728D01*
X139983283Y-106617851D01*
X139997324Y-106614334D01*
X140011642Y-106612210D01*
X140026100Y-106611500D01*
X140321100Y-106611500D01*
X140335558Y-106612210D01*
X140335558Y-106612210D01*
G37*
D17*
G04 #@! TD*
G04 #@! TO.P,R15,2*
G04 #@! TO.N,GND*
X140173600Y-106931500D03*
D16*
G04 #@! TO.N,Net-(J2-Pad19)*
G04 #@! TO.C,R15*
G36*
X141305558Y-106612210D02*
X141319876Y-106614334D01*
X141333917Y-106617851D01*
X141347546Y-106622728D01*
X141360631Y-106628917D01*
X141373047Y-106636358D01*
X141384673Y-106644981D01*
X141395398Y-106654702D01*
X141405119Y-106665427D01*
X141413742Y-106677053D01*
X141421183Y-106689469D01*
X141427372Y-106702554D01*
X141432249Y-106716183D01*
X141435766Y-106730224D01*
X141437890Y-106744542D01*
X141438600Y-106759000D01*
X141438600Y-107104000D01*
X141437890Y-107118458D01*
X141435766Y-107132776D01*
X141432249Y-107146817D01*
X141427372Y-107160446D01*
X141421183Y-107173531D01*
X141413742Y-107185947D01*
X141405119Y-107197573D01*
X141395398Y-107208298D01*
X141384673Y-107218019D01*
X141373047Y-107226642D01*
X141360631Y-107234083D01*
X141347546Y-107240272D01*
X141333917Y-107245149D01*
X141319876Y-107248666D01*
X141305558Y-107250790D01*
X141291100Y-107251500D01*
X140996100Y-107251500D01*
X140981642Y-107250790D01*
X140967324Y-107248666D01*
X140953283Y-107245149D01*
X140939654Y-107240272D01*
X140926569Y-107234083D01*
X140914153Y-107226642D01*
X140902527Y-107218019D01*
X140891802Y-107208298D01*
X140882081Y-107197573D01*
X140873458Y-107185947D01*
X140866017Y-107173531D01*
X140859828Y-107160446D01*
X140854951Y-107146817D01*
X140851434Y-107132776D01*
X140849310Y-107118458D01*
X140848600Y-107104000D01*
X140848600Y-106759000D01*
X140849310Y-106744542D01*
X140851434Y-106730224D01*
X140854951Y-106716183D01*
X140859828Y-106702554D01*
X140866017Y-106689469D01*
X140873458Y-106677053D01*
X140882081Y-106665427D01*
X140891802Y-106654702D01*
X140902527Y-106644981D01*
X140914153Y-106636358D01*
X140926569Y-106628917D01*
X140939654Y-106622728D01*
X140953283Y-106617851D01*
X140967324Y-106614334D01*
X140981642Y-106612210D01*
X140996100Y-106611500D01*
X141291100Y-106611500D01*
X141305558Y-106612210D01*
X141305558Y-106612210D01*
G37*
D17*
G04 #@! TD*
G04 #@! TO.P,R15,1*
G04 #@! TO.N,Net-(J2-Pad19)*
X141143600Y-106931500D03*
D11*
G04 #@! TO.P,U3,6*
G04 #@! TO.N,GND*
X112998100Y-155279500D03*
G04 #@! TO.P,U3,5*
G04 #@! TO.N,VMCU*
X115538100Y-155279500D03*
G04 #@! TO.P,U3,4*
G04 #@! TO.N,N/C*
X112998100Y-157819500D03*
G04 #@! TO.P,U3,3*
G04 #@! TO.N,/Ultra/RX1*
X115538100Y-157819500D03*
G04 #@! TO.P,U3,2*
G04 #@! TO.N,N/C*
X112998100Y-160359500D03*
D12*
G04 #@! TO.P,U3,1*
G04 #@! TO.N,PULSE*
X115538100Y-160359500D03*
G04 #@! TD*
D18*
G04 #@! TO.P,SW2,1*
G04 #@! TO.N,Net-(R1-Pad1)*
X126545200Y-135439000D03*
X136045200Y-135439000D03*
G04 #@! TO.P,SW2,2*
G04 #@! TO.N,DH_#RESET*
X136045200Y-139939000D03*
X126545200Y-139939000D03*
G04 #@! TD*
D16*
G04 #@! TO.N,GND*
G04 #@! TO.C,R1*
G36*
X136273558Y-132014210D02*
X136287876Y-132016334D01*
X136301917Y-132019851D01*
X136315546Y-132024728D01*
X136328631Y-132030917D01*
X136341047Y-132038358D01*
X136352673Y-132046981D01*
X136363398Y-132056702D01*
X136373119Y-132067427D01*
X136381742Y-132079053D01*
X136389183Y-132091469D01*
X136395372Y-132104554D01*
X136400249Y-132118183D01*
X136403766Y-132132224D01*
X136405890Y-132146542D01*
X136406600Y-132161000D01*
X136406600Y-132456000D01*
X136405890Y-132470458D01*
X136403766Y-132484776D01*
X136400249Y-132498817D01*
X136395372Y-132512446D01*
X136389183Y-132525531D01*
X136381742Y-132537947D01*
X136373119Y-132549573D01*
X136363398Y-132560298D01*
X136352673Y-132570019D01*
X136341047Y-132578642D01*
X136328631Y-132586083D01*
X136315546Y-132592272D01*
X136301917Y-132597149D01*
X136287876Y-132600666D01*
X136273558Y-132602790D01*
X136259100Y-132603500D01*
X135914100Y-132603500D01*
X135899642Y-132602790D01*
X135885324Y-132600666D01*
X135871283Y-132597149D01*
X135857654Y-132592272D01*
X135844569Y-132586083D01*
X135832153Y-132578642D01*
X135820527Y-132570019D01*
X135809802Y-132560298D01*
X135800081Y-132549573D01*
X135791458Y-132537947D01*
X135784017Y-132525531D01*
X135777828Y-132512446D01*
X135772951Y-132498817D01*
X135769434Y-132484776D01*
X135767310Y-132470458D01*
X135766600Y-132456000D01*
X135766600Y-132161000D01*
X135767310Y-132146542D01*
X135769434Y-132132224D01*
X135772951Y-132118183D01*
X135777828Y-132104554D01*
X135784017Y-132091469D01*
X135791458Y-132079053D01*
X135800081Y-132067427D01*
X135809802Y-132056702D01*
X135820527Y-132046981D01*
X135832153Y-132038358D01*
X135844569Y-132030917D01*
X135857654Y-132024728D01*
X135871283Y-132019851D01*
X135885324Y-132016334D01*
X135899642Y-132014210D01*
X135914100Y-132013500D01*
X136259100Y-132013500D01*
X136273558Y-132014210D01*
X136273558Y-132014210D01*
G37*
D17*
G04 #@! TD*
G04 #@! TO.P,R1,2*
G04 #@! TO.N,GND*
X136086600Y-132308500D03*
D16*
G04 #@! TO.N,Net-(R1-Pad1)*
G04 #@! TO.C,R1*
G36*
X136273558Y-132984210D02*
X136287876Y-132986334D01*
X136301917Y-132989851D01*
X136315546Y-132994728D01*
X136328631Y-133000917D01*
X136341047Y-133008358D01*
X136352673Y-133016981D01*
X136363398Y-133026702D01*
X136373119Y-133037427D01*
X136381742Y-133049053D01*
X136389183Y-133061469D01*
X136395372Y-133074554D01*
X136400249Y-133088183D01*
X136403766Y-133102224D01*
X136405890Y-133116542D01*
X136406600Y-133131000D01*
X136406600Y-133426000D01*
X136405890Y-133440458D01*
X136403766Y-133454776D01*
X136400249Y-133468817D01*
X136395372Y-133482446D01*
X136389183Y-133495531D01*
X136381742Y-133507947D01*
X136373119Y-133519573D01*
X136363398Y-133530298D01*
X136352673Y-133540019D01*
X136341047Y-133548642D01*
X136328631Y-133556083D01*
X136315546Y-133562272D01*
X136301917Y-133567149D01*
X136287876Y-133570666D01*
X136273558Y-133572790D01*
X136259100Y-133573500D01*
X135914100Y-133573500D01*
X135899642Y-133572790D01*
X135885324Y-133570666D01*
X135871283Y-133567149D01*
X135857654Y-133562272D01*
X135844569Y-133556083D01*
X135832153Y-133548642D01*
X135820527Y-133540019D01*
X135809802Y-133530298D01*
X135800081Y-133519573D01*
X135791458Y-133507947D01*
X135784017Y-133495531D01*
X135777828Y-133482446D01*
X135772951Y-133468817D01*
X135769434Y-133454776D01*
X135767310Y-133440458D01*
X135766600Y-133426000D01*
X135766600Y-133131000D01*
X135767310Y-133116542D01*
X135769434Y-133102224D01*
X135772951Y-133088183D01*
X135777828Y-133074554D01*
X135784017Y-133061469D01*
X135791458Y-133049053D01*
X135800081Y-133037427D01*
X135809802Y-133026702D01*
X135820527Y-133016981D01*
X135832153Y-133008358D01*
X135844569Y-133000917D01*
X135857654Y-132994728D01*
X135871283Y-132989851D01*
X135885324Y-132986334D01*
X135899642Y-132984210D01*
X135914100Y-132983500D01*
X136259100Y-132983500D01*
X136273558Y-132984210D01*
X136273558Y-132984210D01*
G37*
D17*
G04 #@! TD*
G04 #@! TO.P,R1,1*
G04 #@! TO.N,Net-(R1-Pad1)*
X136086600Y-133278500D03*
D19*
G04 #@! TO.P,U7,100*
G04 #@! TO.N,N/C*
X105632100Y-139521101D03*
G04 #@! TO.P,U7,99*
X105632100Y-139021099D03*
G04 #@! TO.P,U7,98*
X105632100Y-138521100D03*
G04 #@! TO.P,U7,97*
X105632100Y-138021101D03*
G04 #@! TO.P,U7,96*
X105632100Y-137521100D03*
G04 #@! TO.P,U7,95*
G04 #@! TO.N,/Sheet5BB71F0E/INP*
X105632100Y-137021101D03*
G04 #@! TO.P,U7,94*
G04 #@! TO.N,/sheet5BB7B6EA/INP*
X105632100Y-136521099D03*
G04 #@! TO.P,U7,93*
G04 #@! TO.N,N/C*
X105632100Y-136021100D03*
G04 #@! TO.P,U7,92*
X105632100Y-135521101D03*
G04 #@! TO.P,U7,91*
X105632100Y-135021100D03*
G04 #@! TO.P,U7,90*
X105632100Y-134521101D03*
G04 #@! TO.P,U7,89*
X105632100Y-134021099D03*
G04 #@! TO.P,U7,88*
X105632100Y-133521100D03*
G04 #@! TO.P,U7,87*
X105632100Y-133021101D03*
G04 #@! TO.P,U7,86*
X105632100Y-132521099D03*
G04 #@! TO.P,U7,85*
X105632100Y-132021100D03*
G04 #@! TO.P,U7,84*
X105632100Y-131521099D03*
G04 #@! TO.P,U7,83*
G04 #@! TO.N,GND*
X105632100Y-131021100D03*
G04 #@! TO.P,U7,82*
G04 #@! TO.N,VMCU*
X105632100Y-130521101D03*
G04 #@! TO.P,U7,81*
G04 #@! TO.N,N/C*
X105632100Y-130021099D03*
G04 #@! TO.P,U7,80*
X105632100Y-129521100D03*
G04 #@! TO.P,U7,79*
G04 #@! TO.N,Net-(C2-Pad2)*
X105632100Y-129021099D03*
G04 #@! TO.P,U7,78*
G04 #@! TO.N,DH_TDO_SWO*
X105632100Y-128521100D03*
G04 #@! TO.P,U7,77*
G04 #@! TO.N,DH_TMS_SWDIO*
X105632100Y-128021101D03*
G04 #@! TO.P,U7,76*
G04 #@! TO.N,DH_TCK_SWCLK*
X105632100Y-127521099D03*
D20*
G04 #@! TO.P,U7,75*
G04 #@! TO.N,/USB_R_D-*
X107252099Y-125901100D03*
G04 #@! TO.P,U7,74*
G04 #@! TO.N,/USB_R_D+*
X107752101Y-125901100D03*
G04 #@! TO.P,U7,73*
G04 #@! TO.N,Net-(C1-Pad2)*
X108252100Y-125901100D03*
G04 #@! TO.P,U7,72*
G04 #@! TO.N,Net-(C2-Pad2)*
X108752099Y-125901100D03*
G04 #@! TO.P,U7,71*
G04 #@! TO.N,/US0_TX*
X109252100Y-125901100D03*
G04 #@! TO.P,U7,70*
G04 #@! TO.N,/US0_RX*
X109752099Y-125901100D03*
G04 #@! TO.P,U7,69*
G04 #@! TO.N,/US0_CLK*
X110252101Y-125901100D03*
G04 #@! TO.P,U7,68*
G04 #@! TO.N,N/C*
X110752100Y-125901100D03*
G04 #@! TO.P,U7,67*
X111252099Y-125901100D03*
G04 #@! TO.P,U7,66*
X111752100Y-125901100D03*
G04 #@! TO.P,U7,65*
X112252099Y-125901100D03*
G04 #@! TO.P,U7,64*
G04 #@! TO.N,DBG_LED_3*
X112752101Y-125901100D03*
G04 #@! TO.P,U7,63*
G04 #@! TO.N,DBG_LED_2*
X113252100Y-125901100D03*
G04 #@! TO.P,U7,62*
G04 #@! TO.N,DBG_LED_1*
X113752099Y-125901100D03*
G04 #@! TO.P,U7,61*
G04 #@! TO.N,N/C*
X114252101Y-125901100D03*
G04 #@! TO.P,U7,60*
X114752100Y-125901100D03*
G04 #@! TO.P,U7,59*
G04 #@! TO.N,Net-(C4-Pad2)*
X115252101Y-125901100D03*
G04 #@! TO.P,U7,58*
G04 #@! TO.N,GND*
X115752100Y-125901100D03*
G04 #@! TO.P,U7,57*
G04 #@! TO.N,VMCU*
X116252099Y-125901100D03*
G04 #@! TO.P,U7,56*
G04 #@! TO.N,N/C*
X116752101Y-125901100D03*
G04 #@! TO.P,U7,55*
X117252100Y-125901100D03*
G04 #@! TO.P,U7,54*
X117752101Y-125901100D03*
G04 #@! TO.P,U7,53*
X118252100Y-125901100D03*
G04 #@! TO.P,U7,52*
X118752099Y-125901100D03*
G04 #@! TO.P,U7,51*
X119252101Y-125901100D03*
D19*
G04 #@! TO.P,U7,50*
X120872100Y-127521099D03*
G04 #@! TO.P,U7,49*
X120872100Y-128021101D03*
G04 #@! TO.P,U7,48*
X120872100Y-128521100D03*
G04 #@! TO.P,U7,47*
X120872100Y-129021099D03*
G04 #@! TO.P,U7,46*
X120872100Y-129521100D03*
G04 #@! TO.P,U7,45*
G04 #@! TO.N,/AVDDU7*
X120872100Y-130021099D03*
G04 #@! TO.P,U7,44*
G04 #@! TO.N,VMCU*
X120872100Y-130521101D03*
G04 #@! TO.P,U7,43*
G04 #@! TO.N,Net-(C19-Pad1)*
X120872100Y-131021100D03*
G04 #@! TO.P,U7,42*
G04 #@! TO.N,Net-(C18-Pad1)*
X120872100Y-131521099D03*
G04 #@! TO.P,U7,41*
G04 #@! TO.N,/AVDDU7*
X120872100Y-132021100D03*
G04 #@! TO.P,U7,40*
G04 #@! TO.N,N/C*
X120872100Y-132521099D03*
G04 #@! TO.P,U7,39*
G04 #@! TO.N,DBG_PB_3*
X120872100Y-133021101D03*
G04 #@! TO.P,U7,38*
G04 #@! TO.N,DBG_PB_2*
X120872100Y-133521100D03*
G04 #@! TO.P,U7,37*
G04 #@! TO.N,DBG_PB_1*
X120872100Y-134021099D03*
G04 #@! TO.P,U7,36*
G04 #@! TO.N,DH_#RESET*
X120872100Y-134521101D03*
G04 #@! TO.P,U7,35*
G04 #@! TO.N,N/C*
X120872100Y-135021100D03*
G04 #@! TO.P,U7,34*
X120872100Y-135521101D03*
G04 #@! TO.P,U7,33*
X120872100Y-136021100D03*
G04 #@! TO.P,U7,32*
X120872100Y-136521099D03*
G04 #@! TO.P,U7,31*
G04 #@! TO.N,VMCU*
X120872100Y-137021101D03*
G04 #@! TO.P,U7,30*
G04 #@! TO.N,N/C*
X120872100Y-137521100D03*
G04 #@! TO.P,U7,29*
X120872100Y-138021101D03*
G04 #@! TO.P,U7,28*
X120872100Y-138521100D03*
G04 #@! TO.P,U7,27*
X120872100Y-139021099D03*
G04 #@! TO.P,U7,26*
X120872100Y-139521101D03*
D20*
G04 #@! TO.P,U7,25*
X119252101Y-141141100D03*
G04 #@! TO.P,U7,24*
G04 #@! TO.N,/US1_CLK*
X118752099Y-141141100D03*
G04 #@! TO.P,U7,23*
G04 #@! TO.N,N/C*
X118252100Y-141141100D03*
G04 #@! TO.P,U7,22*
X117752099Y-141141100D03*
G04 #@! TO.P,U7,21*
X117252100Y-141141100D03*
G04 #@! TO.P,U7,20*
X116752101Y-141141100D03*
G04 #@! TO.P,U7,19*
G04 #@! TO.N,/US1_RX*
X116252099Y-141141100D03*
G04 #@! TO.P,U7,18*
G04 #@! TO.N,/US1_TX*
X115752100Y-141141100D03*
G04 #@! TO.P,U7,17*
G04 #@! TO.N,VMCU*
X115252099Y-141141100D03*
G04 #@! TO.P,U7,16*
G04 #@! TO.N,GND*
X114752100Y-141141100D03*
G04 #@! TO.P,U7,15*
G04 #@! TO.N,N/C*
X114252101Y-141141100D03*
G04 #@! TO.P,U7,14*
X113752099Y-141141100D03*
G04 #@! TO.P,U7,13*
X113252100Y-141141100D03*
G04 #@! TO.P,U7,12*
X112752098Y-141141100D03*
G04 #@! TO.P,U7,11*
X112252099Y-141141100D03*
G04 #@! TO.P,U7,10*
G04 #@! TO.N,DEBUG_EXT_CABLE_ATTACH*
X111752100Y-141141100D03*
G04 #@! TO.P,U7,9*
G04 #@! TO.N,N/C*
X111252099Y-141141100D03*
G04 #@! TO.P,U7,8*
G04 #@! TO.N,VMCU*
X110752100Y-141141100D03*
G04 #@! TO.P,U7,7*
G04 #@! TO.N,N/C*
X110252101Y-141141100D03*
G04 #@! TO.P,U7,6*
G04 #@! TO.N,/Ultra/RX2*
X109752099Y-141141100D03*
G04 #@! TO.P,U7,5*
G04 #@! TO.N,/Ultra/RX1*
X109252100Y-141141100D03*
G04 #@! TO.P,U7,4*
G04 #@! TO.N,/Ultra/RX0*
X108752099Y-141141100D03*
G04 #@! TO.P,U7,3*
G04 #@! TO.N,N/C*
X108252100Y-141141100D03*
G04 #@! TO.P,U7,2*
X107752101Y-141141100D03*
G04 #@! TO.P,U7,1*
G04 #@! TO.N,PULSE*
X107252099Y-141141100D03*
G04 #@! TD*
D16*
G04 #@! TO.N,Net-(C2-Pad2)*
G04 #@! TO.C,C2*
G36*
X110658742Y-122599674D02*
X110682403Y-122603184D01*
X110705607Y-122608996D01*
X110728129Y-122617054D01*
X110749753Y-122627282D01*
X110770270Y-122639579D01*
X110789483Y-122653829D01*
X110807207Y-122669893D01*
X110823271Y-122687617D01*
X110837521Y-122706830D01*
X110849818Y-122727347D01*
X110860046Y-122748971D01*
X110868104Y-122771493D01*
X110873916Y-122794697D01*
X110877426Y-122818358D01*
X110878600Y-122842250D01*
X110878600Y-123329750D01*
X110877426Y-123353642D01*
X110873916Y-123377303D01*
X110868104Y-123400507D01*
X110860046Y-123423029D01*
X110849818Y-123444653D01*
X110837521Y-123465170D01*
X110823271Y-123484383D01*
X110807207Y-123502107D01*
X110789483Y-123518171D01*
X110770270Y-123532421D01*
X110749753Y-123544718D01*
X110728129Y-123554946D01*
X110705607Y-123563004D01*
X110682403Y-123568816D01*
X110658742Y-123572326D01*
X110634850Y-123573500D01*
X109722350Y-123573500D01*
X109698458Y-123572326D01*
X109674797Y-123568816D01*
X109651593Y-123563004D01*
X109629071Y-123554946D01*
X109607447Y-123544718D01*
X109586930Y-123532421D01*
X109567717Y-123518171D01*
X109549993Y-123502107D01*
X109533929Y-123484383D01*
X109519679Y-123465170D01*
X109507382Y-123444653D01*
X109497154Y-123423029D01*
X109489096Y-123400507D01*
X109483284Y-123377303D01*
X109479774Y-123353642D01*
X109478600Y-123329750D01*
X109478600Y-122842250D01*
X109479774Y-122818358D01*
X109483284Y-122794697D01*
X109489096Y-122771493D01*
X109497154Y-122748971D01*
X109507382Y-122727347D01*
X109519679Y-122706830D01*
X109533929Y-122687617D01*
X109549993Y-122669893D01*
X109567717Y-122653829D01*
X109586930Y-122639579D01*
X109607447Y-122627282D01*
X109629071Y-122617054D01*
X109651593Y-122608996D01*
X109674797Y-122603184D01*
X109698458Y-122599674D01*
X109722350Y-122598500D01*
X110634850Y-122598500D01*
X110658742Y-122599674D01*
X110658742Y-122599674D01*
G37*
D21*
G04 #@! TD*
G04 #@! TO.P,C2,2*
G04 #@! TO.N,Net-(C2-Pad2)*
X110178600Y-123086000D03*
D16*
G04 #@! TO.N,GND*
G04 #@! TO.C,C2*
G36*
X110658742Y-120724674D02*
X110682403Y-120728184D01*
X110705607Y-120733996D01*
X110728129Y-120742054D01*
X110749753Y-120752282D01*
X110770270Y-120764579D01*
X110789483Y-120778829D01*
X110807207Y-120794893D01*
X110823271Y-120812617D01*
X110837521Y-120831830D01*
X110849818Y-120852347D01*
X110860046Y-120873971D01*
X110868104Y-120896493D01*
X110873916Y-120919697D01*
X110877426Y-120943358D01*
X110878600Y-120967250D01*
X110878600Y-121454750D01*
X110877426Y-121478642D01*
X110873916Y-121502303D01*
X110868104Y-121525507D01*
X110860046Y-121548029D01*
X110849818Y-121569653D01*
X110837521Y-121590170D01*
X110823271Y-121609383D01*
X110807207Y-121627107D01*
X110789483Y-121643171D01*
X110770270Y-121657421D01*
X110749753Y-121669718D01*
X110728129Y-121679946D01*
X110705607Y-121688004D01*
X110682403Y-121693816D01*
X110658742Y-121697326D01*
X110634850Y-121698500D01*
X109722350Y-121698500D01*
X109698458Y-121697326D01*
X109674797Y-121693816D01*
X109651593Y-121688004D01*
X109629071Y-121679946D01*
X109607447Y-121669718D01*
X109586930Y-121657421D01*
X109567717Y-121643171D01*
X109549993Y-121627107D01*
X109533929Y-121609383D01*
X109519679Y-121590170D01*
X109507382Y-121569653D01*
X109497154Y-121548029D01*
X109489096Y-121525507D01*
X109483284Y-121502303D01*
X109479774Y-121478642D01*
X109478600Y-121454750D01*
X109478600Y-120967250D01*
X109479774Y-120943358D01*
X109483284Y-120919697D01*
X109489096Y-120896493D01*
X109497154Y-120873971D01*
X109507382Y-120852347D01*
X109519679Y-120831830D01*
X109533929Y-120812617D01*
X109549993Y-120794893D01*
X109567717Y-120778829D01*
X109586930Y-120764579D01*
X109607447Y-120752282D01*
X109629071Y-120742054D01*
X109651593Y-120733996D01*
X109674797Y-120728184D01*
X109698458Y-120724674D01*
X109722350Y-120723500D01*
X110634850Y-120723500D01*
X110658742Y-120724674D01*
X110658742Y-120724674D01*
G37*
D21*
G04 #@! TD*
G04 #@! TO.P,C2,1*
G04 #@! TO.N,GND*
X110178600Y-121211000D03*
D22*
G04 #@! TO.P,TP1,2*
G04 #@! TO.N,GND*
X83254600Y-151104500D03*
D23*
G04 #@! TO.P,TP1,1*
G04 #@! TO.N,VMCU*
X83254600Y-153644500D03*
G04 #@! TD*
D24*
G04 #@! TO.P,J1,6*
G04 #@! TO.N,GND*
X102373600Y-105453500D03*
X107853600Y-105453500D03*
D25*
X108073600Y-106203500D03*
X102123600Y-106203500D03*
D26*
X107973600Y-107503500D03*
X102223600Y-107523500D03*
D27*
G04 #@! TO.P,J1,1*
G04 #@! TO.N,/USB_5v*
X106423600Y-107403500D03*
G04 #@! TO.P,J1,2*
G04 #@! TO.N,/USB_D-*
X105773600Y-107403500D03*
G04 #@! TO.P,J1,3*
G04 #@! TO.N,/USB_D+*
X105123600Y-107403500D03*
G04 #@! TO.P,J1,4*
G04 #@! TO.N,N/C*
X104473600Y-107403500D03*
G04 #@! TO.P,J1,5*
G04 #@! TO.N,GND*
X103823600Y-107403500D03*
D28*
G04 #@! TO.P,J1,6*
X107543600Y-107523500D03*
X102703600Y-107523500D03*
D29*
X107853600Y-104523500D03*
X102393600Y-104523500D03*
D30*
X106083600Y-104253500D03*
X104163600Y-104253500D03*
G04 #@! TD*
D11*
G04 #@! TO.P,U4,6*
G04 #@! TO.N,GND*
X122796100Y-155533500D03*
G04 #@! TO.P,U4,5*
G04 #@! TO.N,VMCU*
X125336100Y-155533500D03*
G04 #@! TO.P,U4,4*
G04 #@! TO.N,N/C*
X122796100Y-158073500D03*
G04 #@! TO.P,U4,3*
G04 #@! TO.N,/Ultra/RX2*
X125336100Y-158073500D03*
G04 #@! TO.P,U4,2*
G04 #@! TO.N,N/C*
X122796100Y-160613500D03*
D12*
G04 #@! TO.P,U4,1*
G04 #@! TO.N,PULSE*
X125336100Y-160613500D03*
G04 #@! TD*
D10*
G04 #@! TO.P,D19,3*
G04 #@! TO.N,/US1_TX*
X132403700Y-155660500D03*
G04 #@! TO.P,D19,2*
G04 #@! TO.N,VMCU*
X131453700Y-153660500D03*
G04 #@! TO.P,D19,1*
G04 #@! TO.N,GND*
X133353700Y-153660500D03*
G04 #@! TD*
G04 #@! TO.P,D20,3*
G04 #@! TO.N,/US1_RX*
X137467700Y-155612825D03*
G04 #@! TO.P,D20,2*
G04 #@! TO.N,VMCU*
X136517700Y-153612825D03*
G04 #@! TO.P,D20,1*
G04 #@! TO.N,GND*
X138417700Y-153612825D03*
G04 #@! TD*
D11*
G04 #@! TO.P,J4,6*
G04 #@! TO.N,GND*
X139908750Y-160104510D03*
G04 #@! TO.P,J4,5*
G04 #@! TO.N,/US1_CLK*
X139908750Y-162644510D03*
G04 #@! TO.P,J4,4*
G04 #@! TO.N,GND*
X137368750Y-160104510D03*
G04 #@! TO.P,J4,3*
G04 #@! TO.N,/US1_RX*
X137368750Y-162644510D03*
G04 #@! TO.P,J4,2*
G04 #@! TO.N,GND*
X134828750Y-160104510D03*
D12*
G04 #@! TO.P,J4,1*
G04 #@! TO.N,/US1_TX*
X134828750Y-162644510D03*
G04 #@! TD*
D16*
G04 #@! TO.N,GND*
G04 #@! TO.C,C18*
G36*
X130441388Y-125323014D02*
X130455706Y-125325138D01*
X130469747Y-125328655D01*
X130483376Y-125333532D01*
X130496461Y-125339721D01*
X130508877Y-125347162D01*
X130520503Y-125355785D01*
X130531228Y-125365506D01*
X130540949Y-125376231D01*
X130549572Y-125387857D01*
X130557013Y-125400273D01*
X130563202Y-125413358D01*
X130568079Y-125426987D01*
X130571596Y-125441028D01*
X130573720Y-125455346D01*
X130574430Y-125469804D01*
X130574430Y-125764804D01*
X130573720Y-125779262D01*
X130571596Y-125793580D01*
X130568079Y-125807621D01*
X130563202Y-125821250D01*
X130557013Y-125834335D01*
X130549572Y-125846751D01*
X130540949Y-125858377D01*
X130531228Y-125869102D01*
X130520503Y-125878823D01*
X130508877Y-125887446D01*
X130496461Y-125894887D01*
X130483376Y-125901076D01*
X130469747Y-125905953D01*
X130455706Y-125909470D01*
X130441388Y-125911594D01*
X130426930Y-125912304D01*
X130081930Y-125912304D01*
X130067472Y-125911594D01*
X130053154Y-125909470D01*
X130039113Y-125905953D01*
X130025484Y-125901076D01*
X130012399Y-125894887D01*
X129999983Y-125887446D01*
X129988357Y-125878823D01*
X129977632Y-125869102D01*
X129967911Y-125858377D01*
X129959288Y-125846751D01*
X129951847Y-125834335D01*
X129945658Y-125821250D01*
X129940781Y-125807621D01*
X129937264Y-125793580D01*
X129935140Y-125779262D01*
X129934430Y-125764804D01*
X129934430Y-125469804D01*
X129935140Y-125455346D01*
X129937264Y-125441028D01*
X129940781Y-125426987D01*
X129945658Y-125413358D01*
X129951847Y-125400273D01*
X129959288Y-125387857D01*
X129967911Y-125376231D01*
X129977632Y-125365506D01*
X129988357Y-125355785D01*
X129999983Y-125347162D01*
X130012399Y-125339721D01*
X130025484Y-125333532D01*
X130039113Y-125328655D01*
X130053154Y-125325138D01*
X130067472Y-125323014D01*
X130081930Y-125322304D01*
X130426930Y-125322304D01*
X130441388Y-125323014D01*
X130441388Y-125323014D01*
G37*
D17*
G04 #@! TD*
G04 #@! TO.P,C18,2*
G04 #@! TO.N,GND*
X130254430Y-125617304D03*
D16*
G04 #@! TO.N,Net-(C18-Pad1)*
G04 #@! TO.C,C18*
G36*
X130441388Y-126293014D02*
X130455706Y-126295138D01*
X130469747Y-126298655D01*
X130483376Y-126303532D01*
X130496461Y-126309721D01*
X130508877Y-126317162D01*
X130520503Y-126325785D01*
X130531228Y-126335506D01*
X130540949Y-126346231D01*
X130549572Y-126357857D01*
X130557013Y-126370273D01*
X130563202Y-126383358D01*
X130568079Y-126396987D01*
X130571596Y-126411028D01*
X130573720Y-126425346D01*
X130574430Y-126439804D01*
X130574430Y-126734804D01*
X130573720Y-126749262D01*
X130571596Y-126763580D01*
X130568079Y-126777621D01*
X130563202Y-126791250D01*
X130557013Y-126804335D01*
X130549572Y-126816751D01*
X130540949Y-126828377D01*
X130531228Y-126839102D01*
X130520503Y-126848823D01*
X130508877Y-126857446D01*
X130496461Y-126864887D01*
X130483376Y-126871076D01*
X130469747Y-126875953D01*
X130455706Y-126879470D01*
X130441388Y-126881594D01*
X130426930Y-126882304D01*
X130081930Y-126882304D01*
X130067472Y-126881594D01*
X130053154Y-126879470D01*
X130039113Y-126875953D01*
X130025484Y-126871076D01*
X130012399Y-126864887D01*
X129999983Y-126857446D01*
X129988357Y-126848823D01*
X129977632Y-126839102D01*
X129967911Y-126828377D01*
X129959288Y-126816751D01*
X129951847Y-126804335D01*
X129945658Y-126791250D01*
X129940781Y-126777621D01*
X129937264Y-126763580D01*
X129935140Y-126749262D01*
X129934430Y-126734804D01*
X129934430Y-126439804D01*
X129935140Y-126425346D01*
X129937264Y-126411028D01*
X129940781Y-126396987D01*
X129945658Y-126383358D01*
X129951847Y-126370273D01*
X129959288Y-126357857D01*
X129967911Y-126346231D01*
X129977632Y-126335506D01*
X129988357Y-126325785D01*
X129999983Y-126317162D01*
X130012399Y-126309721D01*
X130025484Y-126303532D01*
X130039113Y-126298655D01*
X130053154Y-126295138D01*
X130067472Y-126293014D01*
X130081930Y-126292304D01*
X130426930Y-126292304D01*
X130441388Y-126293014D01*
X130441388Y-126293014D01*
G37*
D17*
G04 #@! TD*
G04 #@! TO.P,C18,1*
G04 #@! TO.N,Net-(C18-Pad1)*
X130254430Y-126587304D03*
D16*
G04 #@! TO.N,Net-(C19-Pad1)*
G04 #@! TO.C,C19*
G36*
X123837388Y-126293014D02*
X123851706Y-126295138D01*
X123865747Y-126298655D01*
X123879376Y-126303532D01*
X123892461Y-126309721D01*
X123904877Y-126317162D01*
X123916503Y-126325785D01*
X123927228Y-126335506D01*
X123936949Y-126346231D01*
X123945572Y-126357857D01*
X123953013Y-126370273D01*
X123959202Y-126383358D01*
X123964079Y-126396987D01*
X123967596Y-126411028D01*
X123969720Y-126425346D01*
X123970430Y-126439804D01*
X123970430Y-126734804D01*
X123969720Y-126749262D01*
X123967596Y-126763580D01*
X123964079Y-126777621D01*
X123959202Y-126791250D01*
X123953013Y-126804335D01*
X123945572Y-126816751D01*
X123936949Y-126828377D01*
X123927228Y-126839102D01*
X123916503Y-126848823D01*
X123904877Y-126857446D01*
X123892461Y-126864887D01*
X123879376Y-126871076D01*
X123865747Y-126875953D01*
X123851706Y-126879470D01*
X123837388Y-126881594D01*
X123822930Y-126882304D01*
X123477930Y-126882304D01*
X123463472Y-126881594D01*
X123449154Y-126879470D01*
X123435113Y-126875953D01*
X123421484Y-126871076D01*
X123408399Y-126864887D01*
X123395983Y-126857446D01*
X123384357Y-126848823D01*
X123373632Y-126839102D01*
X123363911Y-126828377D01*
X123355288Y-126816751D01*
X123347847Y-126804335D01*
X123341658Y-126791250D01*
X123336781Y-126777621D01*
X123333264Y-126763580D01*
X123331140Y-126749262D01*
X123330430Y-126734804D01*
X123330430Y-126439804D01*
X123331140Y-126425346D01*
X123333264Y-126411028D01*
X123336781Y-126396987D01*
X123341658Y-126383358D01*
X123347847Y-126370273D01*
X123355288Y-126357857D01*
X123363911Y-126346231D01*
X123373632Y-126335506D01*
X123384357Y-126325785D01*
X123395983Y-126317162D01*
X123408399Y-126309721D01*
X123421484Y-126303532D01*
X123435113Y-126298655D01*
X123449154Y-126295138D01*
X123463472Y-126293014D01*
X123477930Y-126292304D01*
X123822930Y-126292304D01*
X123837388Y-126293014D01*
X123837388Y-126293014D01*
G37*
D17*
G04 #@! TD*
G04 #@! TO.P,C19,1*
G04 #@! TO.N,Net-(C19-Pad1)*
X123650430Y-126587304D03*
D16*
G04 #@! TO.N,GND*
G04 #@! TO.C,C19*
G36*
X123837388Y-125323014D02*
X123851706Y-125325138D01*
X123865747Y-125328655D01*
X123879376Y-125333532D01*
X123892461Y-125339721D01*
X123904877Y-125347162D01*
X123916503Y-125355785D01*
X123927228Y-125365506D01*
X123936949Y-125376231D01*
X123945572Y-125387857D01*
X123953013Y-125400273D01*
X123959202Y-125413358D01*
X123964079Y-125426987D01*
X123967596Y-125441028D01*
X123969720Y-125455346D01*
X123970430Y-125469804D01*
X123970430Y-125764804D01*
X123969720Y-125779262D01*
X123967596Y-125793580D01*
X123964079Y-125807621D01*
X123959202Y-125821250D01*
X123953013Y-125834335D01*
X123945572Y-125846751D01*
X123936949Y-125858377D01*
X123927228Y-125869102D01*
X123916503Y-125878823D01*
X123904877Y-125887446D01*
X123892461Y-125894887D01*
X123879376Y-125901076D01*
X123865747Y-125905953D01*
X123851706Y-125909470D01*
X123837388Y-125911594D01*
X123822930Y-125912304D01*
X123477930Y-125912304D01*
X123463472Y-125911594D01*
X123449154Y-125909470D01*
X123435113Y-125905953D01*
X123421484Y-125901076D01*
X123408399Y-125894887D01*
X123395983Y-125887446D01*
X123384357Y-125878823D01*
X123373632Y-125869102D01*
X123363911Y-125858377D01*
X123355288Y-125846751D01*
X123347847Y-125834335D01*
X123341658Y-125821250D01*
X123336781Y-125807621D01*
X123333264Y-125793580D01*
X123331140Y-125779262D01*
X123330430Y-125764804D01*
X123330430Y-125469804D01*
X123331140Y-125455346D01*
X123333264Y-125441028D01*
X123336781Y-125426987D01*
X123341658Y-125413358D01*
X123347847Y-125400273D01*
X123355288Y-125387857D01*
X123363911Y-125376231D01*
X123373632Y-125365506D01*
X123384357Y-125355785D01*
X123395983Y-125347162D01*
X123408399Y-125339721D01*
X123421484Y-125333532D01*
X123435113Y-125328655D01*
X123449154Y-125325138D01*
X123463472Y-125323014D01*
X123477930Y-125322304D01*
X123822930Y-125322304D01*
X123837388Y-125323014D01*
X123837388Y-125323014D01*
G37*
D17*
G04 #@! TD*
G04 #@! TO.P,C19,2*
G04 #@! TO.N,GND*
X123650430Y-125617304D03*
D31*
G04 #@! TO.P,Y1,1*
G04 #@! TO.N,Net-(C18-Pad1)*
X130158430Y-130054304D03*
G04 #@! TO.P,Y1,2*
G04 #@! TO.N,Net-(C19-Pad1)*
X123658430Y-130054304D03*
G04 #@! TD*
D11*
G04 #@! TO.P,U1,6*
G04 #@! TO.N,GND*
X103238100Y-155152500D03*
G04 #@! TO.P,U1,5*
G04 #@! TO.N,VMCU*
X105778100Y-155152500D03*
G04 #@! TO.P,U1,4*
G04 #@! TO.N,N/C*
X103238100Y-157692500D03*
G04 #@! TO.P,U1,3*
G04 #@! TO.N,/Ultra/RX0*
X105778100Y-157692500D03*
G04 #@! TO.P,U1,2*
G04 #@! TO.N,N/C*
X103238100Y-160232500D03*
D12*
G04 #@! TO.P,U1,1*
G04 #@! TO.N,PULSE*
X105778100Y-160232500D03*
G04 #@! TD*
D11*
G04 #@! TO.P,J2,20*
G04 #@! TO.N,GND*
X139642600Y-111480500D03*
G04 #@! TO.P,J2,19*
G04 #@! TO.N,Net-(J2-Pad19)*
X139642600Y-114020500D03*
G04 #@! TO.P,J2,18*
G04 #@! TO.N,DEBUG_EXT_CABLE_ATTACH*
X137102600Y-111480500D03*
G04 #@! TO.P,J2,17*
G04 #@! TO.N,Net-(J2-Pad17)*
X137102600Y-114020500D03*
G04 #@! TO.P,J2,16*
G04 #@! TO.N,GND*
X134562600Y-111480500D03*
G04 #@! TO.P,J2,15*
G04 #@! TO.N,DH_#RESET*
X134562600Y-114020500D03*
G04 #@! TO.P,J2,14*
G04 #@! TO.N,GND*
X132022600Y-111480500D03*
G04 #@! TO.P,J2,13*
G04 #@! TO.N,DH_TDO_SWO*
X132022600Y-114020500D03*
G04 #@! TO.P,J2,12*
G04 #@! TO.N,GND*
X129482600Y-111480500D03*
G04 #@! TO.P,J2,11*
G04 #@! TO.N,Net-(J2-Pad11)*
X129482600Y-114020500D03*
G04 #@! TO.P,J2,10*
G04 #@! TO.N,GND*
X126942600Y-111480500D03*
G04 #@! TO.P,J2,9*
G04 #@! TO.N,DH_TCK_SWCLK*
X126942600Y-114020500D03*
G04 #@! TO.P,J2,8*
G04 #@! TO.N,GND*
X124402600Y-111480500D03*
G04 #@! TO.P,J2,7*
G04 #@! TO.N,DH_TMS_SWDIO*
X124402600Y-114020500D03*
G04 #@! TO.P,J2,6*
G04 #@! TO.N,GND*
X121862600Y-111480500D03*
G04 #@! TO.P,J2,5*
G04 #@! TO.N,N/C*
X121862600Y-114020500D03*
G04 #@! TO.P,J2,4*
G04 #@! TO.N,GND*
X119322600Y-111480500D03*
G04 #@! TO.P,J2,3*
G04 #@! TO.N,N/C*
X119322600Y-114020500D03*
G04 #@! TO.P,J2,2*
X116782600Y-111480500D03*
D12*
G04 #@! TO.P,J2,1*
G04 #@! TO.N,VMCU*
X116782600Y-114020500D03*
G04 #@! TD*
D10*
G04 #@! TO.P,D11,3*
G04 #@! TO.N,/Ultra/RX0*
X104762100Y-146024500D03*
G04 #@! TO.P,D11,2*
G04 #@! TO.N,VMCU*
X105712100Y-148024500D03*
G04 #@! TO.P,D11,1*
G04 #@! TO.N,GND*
X103812100Y-148024500D03*
G04 #@! TD*
G04 #@! TO.P,D12,3*
G04 #@! TO.N,/Ultra/RX1*
X114459885Y-146151500D03*
G04 #@! TO.P,D12,2*
G04 #@! TO.N,VMCU*
X115409885Y-148151500D03*
G04 #@! TO.P,D12,1*
G04 #@! TO.N,GND*
X113509885Y-148151500D03*
G04 #@! TD*
G04 #@! TO.P,D13,3*
G04 #@! TO.N,/Ultra/RX2*
X124193100Y-146405500D03*
G04 #@! TO.P,D13,2*
G04 #@! TO.N,VMCU*
X125143100Y-148405500D03*
G04 #@! TO.P,D13,1*
G04 #@! TO.N,GND*
X123243100Y-148405500D03*
G04 #@! TD*
D14*
G04 #@! TO.P,D14,3*
G04 #@! TO.N,PULSE*
X101345585Y-141094295D03*
G04 #@! TO.P,D14,2*
G04 #@! TO.N,VMCU*
X103345585Y-140144295D03*
G04 #@! TO.P,D14,1*
G04 #@! TO.N,GND*
X103345585Y-142044295D03*
G04 #@! TD*
G04 #@! TO.P,D7,3*
G04 #@! TO.N,DH_TDO_SWO*
X130479900Y-120958300D03*
G04 #@! TO.P,D7,2*
G04 #@! TO.N,VMCU*
X132479900Y-120008300D03*
G04 #@! TO.P,D7,1*
G04 #@! TO.N,GND*
X132479900Y-121908300D03*
G04 #@! TD*
D10*
G04 #@! TO.P,D8,3*
G04 #@! TO.N,/Sheet5BB71F0E/INP*
X88360100Y-136934100D03*
G04 #@! TO.P,D8,2*
G04 #@! TO.N,VMCU*
X87410100Y-134934100D03*
G04 #@! TO.P,D8,1*
G04 #@! TO.N,GND*
X89310100Y-134934100D03*
G04 #@! TD*
G04 #@! TO.P,D10,3*
G04 #@! TO.N,DH_TCK_SWCLK*
X88360100Y-128806100D03*
G04 #@! TO.P,D10,2*
G04 #@! TO.N,VMCU*
X87410100Y-126806100D03*
G04 #@! TO.P,D10,1*
G04 #@! TO.N,GND*
X89310100Y-126806100D03*
G04 #@! TD*
D14*
G04 #@! TO.P,D5,3*
G04 #@! TO.N,DH_TMS_SWDIO*
X122859900Y-121024300D03*
G04 #@! TO.P,D5,2*
G04 #@! TO.N,VMCU*
X124859900Y-120074300D03*
G04 #@! TO.P,D5,1*
G04 #@! TO.N,GND*
X124859900Y-121974300D03*
G04 #@! TD*
D32*
G04 #@! TO.P,U9,3*
G04 #@! TO.N,/USB_D+*
X104076600Y-112364500D03*
G04 #@! TO.P,U9,2*
G04 #@! TO.N,GND*
X104076600Y-111414500D03*
G04 #@! TO.P,U9,1*
G04 #@! TO.N,N/C*
X104076600Y-110464500D03*
G04 #@! TO.P,U9,6*
G04 #@! TO.N,/USB_D-*
X106876600Y-112364500D03*
G04 #@! TO.P,U9,5*
G04 #@! TO.N,/USB_5v*
X106876600Y-111414500D03*
G04 #@! TO.P,U9,4*
G04 #@! TO.N,N/C*
X106876600Y-110464500D03*
G04 #@! TD*
D16*
G04 #@! TO.N,Net-(D3-Pad2)*
G04 #@! TO.C,R10*
G36*
X111908443Y-122177810D02*
X111922761Y-122179934D01*
X111936802Y-122183451D01*
X111950431Y-122188328D01*
X111963516Y-122194517D01*
X111975932Y-122201958D01*
X111987558Y-122210581D01*
X111998283Y-122220302D01*
X112008004Y-122231027D01*
X112016627Y-122242653D01*
X112024068Y-122255069D01*
X112030257Y-122268154D01*
X112035134Y-122281783D01*
X112038651Y-122295824D01*
X112040775Y-122310142D01*
X112041485Y-122324600D01*
X112041485Y-122619600D01*
X112040775Y-122634058D01*
X112038651Y-122648376D01*
X112035134Y-122662417D01*
X112030257Y-122676046D01*
X112024068Y-122689131D01*
X112016627Y-122701547D01*
X112008004Y-122713173D01*
X111998283Y-122723898D01*
X111987558Y-122733619D01*
X111975932Y-122742242D01*
X111963516Y-122749683D01*
X111950431Y-122755872D01*
X111936802Y-122760749D01*
X111922761Y-122764266D01*
X111908443Y-122766390D01*
X111893985Y-122767100D01*
X111548985Y-122767100D01*
X111534527Y-122766390D01*
X111520209Y-122764266D01*
X111506168Y-122760749D01*
X111492539Y-122755872D01*
X111479454Y-122749683D01*
X111467038Y-122742242D01*
X111455412Y-122733619D01*
X111444687Y-122723898D01*
X111434966Y-122713173D01*
X111426343Y-122701547D01*
X111418902Y-122689131D01*
X111412713Y-122676046D01*
X111407836Y-122662417D01*
X111404319Y-122648376D01*
X111402195Y-122634058D01*
X111401485Y-122619600D01*
X111401485Y-122324600D01*
X111402195Y-122310142D01*
X111404319Y-122295824D01*
X111407836Y-122281783D01*
X111412713Y-122268154D01*
X111418902Y-122255069D01*
X111426343Y-122242653D01*
X111434966Y-122231027D01*
X111444687Y-122220302D01*
X111455412Y-122210581D01*
X111467038Y-122201958D01*
X111479454Y-122194517D01*
X111492539Y-122188328D01*
X111506168Y-122183451D01*
X111520209Y-122179934D01*
X111534527Y-122177810D01*
X111548985Y-122177100D01*
X111893985Y-122177100D01*
X111908443Y-122177810D01*
X111908443Y-122177810D01*
G37*
D17*
G04 #@! TD*
G04 #@! TO.P,R10,2*
G04 #@! TO.N,Net-(D3-Pad2)*
X111721485Y-122472100D03*
D16*
G04 #@! TO.N,DBG_LED_3*
G04 #@! TO.C,R10*
G36*
X111908443Y-123147810D02*
X111922761Y-123149934D01*
X111936802Y-123153451D01*
X111950431Y-123158328D01*
X111963516Y-123164517D01*
X111975932Y-123171958D01*
X111987558Y-123180581D01*
X111998283Y-123190302D01*
X112008004Y-123201027D01*
X112016627Y-123212653D01*
X112024068Y-123225069D01*
X112030257Y-123238154D01*
X112035134Y-123251783D01*
X112038651Y-123265824D01*
X112040775Y-123280142D01*
X112041485Y-123294600D01*
X112041485Y-123589600D01*
X112040775Y-123604058D01*
X112038651Y-123618376D01*
X112035134Y-123632417D01*
X112030257Y-123646046D01*
X112024068Y-123659131D01*
X112016627Y-123671547D01*
X112008004Y-123683173D01*
X111998283Y-123693898D01*
X111987558Y-123703619D01*
X111975932Y-123712242D01*
X111963516Y-123719683D01*
X111950431Y-123725872D01*
X111936802Y-123730749D01*
X111922761Y-123734266D01*
X111908443Y-123736390D01*
X111893985Y-123737100D01*
X111548985Y-123737100D01*
X111534527Y-123736390D01*
X111520209Y-123734266D01*
X111506168Y-123730749D01*
X111492539Y-123725872D01*
X111479454Y-123719683D01*
X111467038Y-123712242D01*
X111455412Y-123703619D01*
X111444687Y-123693898D01*
X111434966Y-123683173D01*
X111426343Y-123671547D01*
X111418902Y-123659131D01*
X111412713Y-123646046D01*
X111407836Y-123632417D01*
X111404319Y-123618376D01*
X111402195Y-123604058D01*
X111401485Y-123589600D01*
X111401485Y-123294600D01*
X111402195Y-123280142D01*
X111404319Y-123265824D01*
X111407836Y-123251783D01*
X111412713Y-123238154D01*
X111418902Y-123225069D01*
X111426343Y-123212653D01*
X111434966Y-123201027D01*
X111444687Y-123190302D01*
X111455412Y-123180581D01*
X111467038Y-123171958D01*
X111479454Y-123164517D01*
X111492539Y-123158328D01*
X111506168Y-123153451D01*
X111520209Y-123149934D01*
X111534527Y-123147810D01*
X111548985Y-123147100D01*
X111893985Y-123147100D01*
X111908443Y-123147810D01*
X111908443Y-123147810D01*
G37*
D17*
G04 #@! TD*
G04 #@! TO.P,R10,1*
G04 #@! TO.N,DBG_LED_3*
X111721485Y-123442100D03*
D16*
G04 #@! TO.N,Net-(C1-Pad2)*
G04 #@! TO.C,C1*
G36*
X108764402Y-122934982D02*
X108774109Y-122936421D01*
X108783628Y-122938806D01*
X108792868Y-122942112D01*
X108801740Y-122946308D01*
X108810157Y-122951353D01*
X108818039Y-122957199D01*
X108825311Y-122963789D01*
X108831901Y-122971061D01*
X108837747Y-122978943D01*
X108842792Y-122987360D01*
X108846988Y-122996232D01*
X108850294Y-123005472D01*
X108852679Y-123014991D01*
X108854118Y-123024698D01*
X108854600Y-123034500D01*
X108854600Y-123294500D01*
X108854118Y-123304302D01*
X108852679Y-123314009D01*
X108850294Y-123323528D01*
X108846988Y-123332768D01*
X108842792Y-123341640D01*
X108837747Y-123350057D01*
X108831901Y-123357939D01*
X108825311Y-123365211D01*
X108818039Y-123371801D01*
X108810157Y-123377647D01*
X108801740Y-123382692D01*
X108792868Y-123386888D01*
X108783628Y-123390194D01*
X108774109Y-123392579D01*
X108764402Y-123394018D01*
X108754600Y-123394500D01*
X108554600Y-123394500D01*
X108544798Y-123394018D01*
X108535091Y-123392579D01*
X108525572Y-123390194D01*
X108516332Y-123386888D01*
X108507460Y-123382692D01*
X108499043Y-123377647D01*
X108491161Y-123371801D01*
X108483889Y-123365211D01*
X108477299Y-123357939D01*
X108471453Y-123350057D01*
X108466408Y-123341640D01*
X108462212Y-123332768D01*
X108458906Y-123323528D01*
X108456521Y-123314009D01*
X108455082Y-123304302D01*
X108454600Y-123294500D01*
X108454600Y-123034500D01*
X108455082Y-123024698D01*
X108456521Y-123014991D01*
X108458906Y-123005472D01*
X108462212Y-122996232D01*
X108466408Y-122987360D01*
X108471453Y-122978943D01*
X108477299Y-122971061D01*
X108483889Y-122963789D01*
X108491161Y-122957199D01*
X108499043Y-122951353D01*
X108507460Y-122946308D01*
X108516332Y-122942112D01*
X108525572Y-122938806D01*
X108535091Y-122936421D01*
X108544798Y-122934982D01*
X108554600Y-122934500D01*
X108754600Y-122934500D01*
X108764402Y-122934982D01*
X108764402Y-122934982D01*
G37*
D33*
G04 #@! TD*
G04 #@! TO.P,C1,2*
G04 #@! TO.N,Net-(C1-Pad2)*
X108654600Y-123164500D03*
D16*
G04 #@! TO.N,GND*
G04 #@! TO.C,C1*
G36*
X108764402Y-122294982D02*
X108774109Y-122296421D01*
X108783628Y-122298806D01*
X108792868Y-122302112D01*
X108801740Y-122306308D01*
X108810157Y-122311353D01*
X108818039Y-122317199D01*
X108825311Y-122323789D01*
X108831901Y-122331061D01*
X108837747Y-122338943D01*
X108842792Y-122347360D01*
X108846988Y-122356232D01*
X108850294Y-122365472D01*
X108852679Y-122374991D01*
X108854118Y-122384698D01*
X108854600Y-122394500D01*
X108854600Y-122654500D01*
X108854118Y-122664302D01*
X108852679Y-122674009D01*
X108850294Y-122683528D01*
X108846988Y-122692768D01*
X108842792Y-122701640D01*
X108837747Y-122710057D01*
X108831901Y-122717939D01*
X108825311Y-122725211D01*
X108818039Y-122731801D01*
X108810157Y-122737647D01*
X108801740Y-122742692D01*
X108792868Y-122746888D01*
X108783628Y-122750194D01*
X108774109Y-122752579D01*
X108764402Y-122754018D01*
X108754600Y-122754500D01*
X108554600Y-122754500D01*
X108544798Y-122754018D01*
X108535091Y-122752579D01*
X108525572Y-122750194D01*
X108516332Y-122746888D01*
X108507460Y-122742692D01*
X108499043Y-122737647D01*
X108491161Y-122731801D01*
X108483889Y-122725211D01*
X108477299Y-122717939D01*
X108471453Y-122710057D01*
X108466408Y-122701640D01*
X108462212Y-122692768D01*
X108458906Y-122683528D01*
X108456521Y-122674009D01*
X108455082Y-122664302D01*
X108454600Y-122654500D01*
X108454600Y-122394500D01*
X108455082Y-122384698D01*
X108456521Y-122374991D01*
X108458906Y-122365472D01*
X108462212Y-122356232D01*
X108466408Y-122347360D01*
X108471453Y-122338943D01*
X108477299Y-122331061D01*
X108483889Y-122323789D01*
X108491161Y-122317199D01*
X108499043Y-122311353D01*
X108507460Y-122306308D01*
X108516332Y-122302112D01*
X108525572Y-122298806D01*
X108535091Y-122296421D01*
X108544798Y-122294982D01*
X108554600Y-122294500D01*
X108754600Y-122294500D01*
X108764402Y-122294982D01*
X108764402Y-122294982D01*
G37*
D33*
G04 #@! TD*
G04 #@! TO.P,C1,1*
G04 #@! TO.N,GND*
X108654600Y-122524500D03*
D16*
G04 #@! TO.N,DH_#RESET*
G04 #@! TO.C,C3*
G36*
X123573558Y-139634210D02*
X123587876Y-139636334D01*
X123601917Y-139639851D01*
X123615546Y-139644728D01*
X123628631Y-139650917D01*
X123641047Y-139658358D01*
X123652673Y-139666981D01*
X123663398Y-139676702D01*
X123673119Y-139687427D01*
X123681742Y-139699053D01*
X123689183Y-139711469D01*
X123695372Y-139724554D01*
X123700249Y-139738183D01*
X123703766Y-139752224D01*
X123705890Y-139766542D01*
X123706600Y-139781000D01*
X123706600Y-140076000D01*
X123705890Y-140090458D01*
X123703766Y-140104776D01*
X123700249Y-140118817D01*
X123695372Y-140132446D01*
X123689183Y-140145531D01*
X123681742Y-140157947D01*
X123673119Y-140169573D01*
X123663398Y-140180298D01*
X123652673Y-140190019D01*
X123641047Y-140198642D01*
X123628631Y-140206083D01*
X123615546Y-140212272D01*
X123601917Y-140217149D01*
X123587876Y-140220666D01*
X123573558Y-140222790D01*
X123559100Y-140223500D01*
X123214100Y-140223500D01*
X123199642Y-140222790D01*
X123185324Y-140220666D01*
X123171283Y-140217149D01*
X123157654Y-140212272D01*
X123144569Y-140206083D01*
X123132153Y-140198642D01*
X123120527Y-140190019D01*
X123109802Y-140180298D01*
X123100081Y-140169573D01*
X123091458Y-140157947D01*
X123084017Y-140145531D01*
X123077828Y-140132446D01*
X123072951Y-140118817D01*
X123069434Y-140104776D01*
X123067310Y-140090458D01*
X123066600Y-140076000D01*
X123066600Y-139781000D01*
X123067310Y-139766542D01*
X123069434Y-139752224D01*
X123072951Y-139738183D01*
X123077828Y-139724554D01*
X123084017Y-139711469D01*
X123091458Y-139699053D01*
X123100081Y-139687427D01*
X123109802Y-139676702D01*
X123120527Y-139666981D01*
X123132153Y-139658358D01*
X123144569Y-139650917D01*
X123157654Y-139644728D01*
X123171283Y-139639851D01*
X123185324Y-139636334D01*
X123199642Y-139634210D01*
X123214100Y-139633500D01*
X123559100Y-139633500D01*
X123573558Y-139634210D01*
X123573558Y-139634210D01*
G37*
D17*
G04 #@! TD*
G04 #@! TO.P,C3,2*
G04 #@! TO.N,DH_#RESET*
X123386600Y-139928500D03*
D16*
G04 #@! TO.N,GND*
G04 #@! TO.C,C3*
G36*
X123573558Y-140604210D02*
X123587876Y-140606334D01*
X123601917Y-140609851D01*
X123615546Y-140614728D01*
X123628631Y-140620917D01*
X123641047Y-140628358D01*
X123652673Y-140636981D01*
X123663398Y-140646702D01*
X123673119Y-140657427D01*
X123681742Y-140669053D01*
X123689183Y-140681469D01*
X123695372Y-140694554D01*
X123700249Y-140708183D01*
X123703766Y-140722224D01*
X123705890Y-140736542D01*
X123706600Y-140751000D01*
X123706600Y-141046000D01*
X123705890Y-141060458D01*
X123703766Y-141074776D01*
X123700249Y-141088817D01*
X123695372Y-141102446D01*
X123689183Y-141115531D01*
X123681742Y-141127947D01*
X123673119Y-141139573D01*
X123663398Y-141150298D01*
X123652673Y-141160019D01*
X123641047Y-141168642D01*
X123628631Y-141176083D01*
X123615546Y-141182272D01*
X123601917Y-141187149D01*
X123587876Y-141190666D01*
X123573558Y-141192790D01*
X123559100Y-141193500D01*
X123214100Y-141193500D01*
X123199642Y-141192790D01*
X123185324Y-141190666D01*
X123171283Y-141187149D01*
X123157654Y-141182272D01*
X123144569Y-141176083D01*
X123132153Y-141168642D01*
X123120527Y-141160019D01*
X123109802Y-141150298D01*
X123100081Y-141139573D01*
X123091458Y-141127947D01*
X123084017Y-141115531D01*
X123077828Y-141102446D01*
X123072951Y-141088817D01*
X123069434Y-141074776D01*
X123067310Y-141060458D01*
X123066600Y-141046000D01*
X123066600Y-140751000D01*
X123067310Y-140736542D01*
X123069434Y-140722224D01*
X123072951Y-140708183D01*
X123077828Y-140694554D01*
X123084017Y-140681469D01*
X123091458Y-140669053D01*
X123100081Y-140657427D01*
X123109802Y-140646702D01*
X123120527Y-140636981D01*
X123132153Y-140628358D01*
X123144569Y-140620917D01*
X123157654Y-140614728D01*
X123171283Y-140609851D01*
X123185324Y-140606334D01*
X123199642Y-140604210D01*
X123214100Y-140603500D01*
X123559100Y-140603500D01*
X123573558Y-140604210D01*
X123573558Y-140604210D01*
G37*
D17*
G04 #@! TD*
G04 #@! TO.P,C3,1*
G04 #@! TO.N,GND*
X123386600Y-140898500D03*
D16*
G04 #@! TO.N,Net-(C4-Pad2)*
G04 #@! TO.C,C4*
G36*
X115492176Y-123571868D02*
X115513411Y-123575018D01*
X115534235Y-123580234D01*
X115554447Y-123587466D01*
X115573853Y-123596645D01*
X115592266Y-123607681D01*
X115609509Y-123620469D01*
X115625415Y-123634885D01*
X115639831Y-123650791D01*
X115652619Y-123668034D01*
X115663655Y-123686447D01*
X115672834Y-123705853D01*
X115680066Y-123726065D01*
X115685282Y-123746889D01*
X115688432Y-123768124D01*
X115689485Y-123789565D01*
X115689485Y-124302065D01*
X115688432Y-124323506D01*
X115685282Y-124344741D01*
X115680066Y-124365565D01*
X115672834Y-124385777D01*
X115663655Y-124405183D01*
X115652619Y-124423596D01*
X115639831Y-124440839D01*
X115625415Y-124456745D01*
X115609509Y-124471161D01*
X115592266Y-124483949D01*
X115573853Y-124494985D01*
X115554447Y-124504164D01*
X115534235Y-124511396D01*
X115513411Y-124516612D01*
X115492176Y-124519762D01*
X115470735Y-124520815D01*
X115033235Y-124520815D01*
X115011794Y-124519762D01*
X114990559Y-124516612D01*
X114969735Y-124511396D01*
X114949523Y-124504164D01*
X114930117Y-124494985D01*
X114911704Y-124483949D01*
X114894461Y-124471161D01*
X114878555Y-124456745D01*
X114864139Y-124440839D01*
X114851351Y-124423596D01*
X114840315Y-124405183D01*
X114831136Y-124385777D01*
X114823904Y-124365565D01*
X114818688Y-124344741D01*
X114815538Y-124323506D01*
X114814485Y-124302065D01*
X114814485Y-123789565D01*
X114815538Y-123768124D01*
X114818688Y-123746889D01*
X114823904Y-123726065D01*
X114831136Y-123705853D01*
X114840315Y-123686447D01*
X114851351Y-123668034D01*
X114864139Y-123650791D01*
X114878555Y-123634885D01*
X114894461Y-123620469D01*
X114911704Y-123607681D01*
X114930117Y-123596645D01*
X114949523Y-123587466D01*
X114969735Y-123580234D01*
X114990559Y-123575018D01*
X115011794Y-123571868D01*
X115033235Y-123570815D01*
X115470735Y-123570815D01*
X115492176Y-123571868D01*
X115492176Y-123571868D01*
G37*
D34*
G04 #@! TD*
G04 #@! TO.P,C4,2*
G04 #@! TO.N,Net-(C4-Pad2)*
X115251985Y-124045815D03*
D16*
G04 #@! TO.N,GND*
G04 #@! TO.C,C4*
G36*
X117067176Y-123571868D02*
X117088411Y-123575018D01*
X117109235Y-123580234D01*
X117129447Y-123587466D01*
X117148853Y-123596645D01*
X117167266Y-123607681D01*
X117184509Y-123620469D01*
X117200415Y-123634885D01*
X117214831Y-123650791D01*
X117227619Y-123668034D01*
X117238655Y-123686447D01*
X117247834Y-123705853D01*
X117255066Y-123726065D01*
X117260282Y-123746889D01*
X117263432Y-123768124D01*
X117264485Y-123789565D01*
X117264485Y-124302065D01*
X117263432Y-124323506D01*
X117260282Y-124344741D01*
X117255066Y-124365565D01*
X117247834Y-124385777D01*
X117238655Y-124405183D01*
X117227619Y-124423596D01*
X117214831Y-124440839D01*
X117200415Y-124456745D01*
X117184509Y-124471161D01*
X117167266Y-124483949D01*
X117148853Y-124494985D01*
X117129447Y-124504164D01*
X117109235Y-124511396D01*
X117088411Y-124516612D01*
X117067176Y-124519762D01*
X117045735Y-124520815D01*
X116608235Y-124520815D01*
X116586794Y-124519762D01*
X116565559Y-124516612D01*
X116544735Y-124511396D01*
X116524523Y-124504164D01*
X116505117Y-124494985D01*
X116486704Y-124483949D01*
X116469461Y-124471161D01*
X116453555Y-124456745D01*
X116439139Y-124440839D01*
X116426351Y-124423596D01*
X116415315Y-124405183D01*
X116406136Y-124385777D01*
X116398904Y-124365565D01*
X116393688Y-124344741D01*
X116390538Y-124323506D01*
X116389485Y-124302065D01*
X116389485Y-123789565D01*
X116390538Y-123768124D01*
X116393688Y-123746889D01*
X116398904Y-123726065D01*
X116406136Y-123705853D01*
X116415315Y-123686447D01*
X116426351Y-123668034D01*
X116439139Y-123650791D01*
X116453555Y-123634885D01*
X116469461Y-123620469D01*
X116486704Y-123607681D01*
X116505117Y-123596645D01*
X116524523Y-123587466D01*
X116544735Y-123580234D01*
X116565559Y-123575018D01*
X116586794Y-123571868D01*
X116608235Y-123570815D01*
X117045735Y-123570815D01*
X117067176Y-123571868D01*
X117067176Y-123571868D01*
G37*
D34*
G04 #@! TD*
G04 #@! TO.P,C4,1*
G04 #@! TO.N,GND*
X116826985Y-124045815D03*
D16*
G04 #@! TO.N,GND*
G04 #@! TO.C,C14*
G36*
X145864058Y-145155810D02*
X145878376Y-145157934D01*
X145892417Y-145161451D01*
X145906046Y-145166328D01*
X145919131Y-145172517D01*
X145931547Y-145179958D01*
X145943173Y-145188581D01*
X145953898Y-145198302D01*
X145963619Y-145209027D01*
X145972242Y-145220653D01*
X145979683Y-145233069D01*
X145985872Y-145246154D01*
X145990749Y-145259783D01*
X145994266Y-145273824D01*
X145996390Y-145288142D01*
X145997100Y-145302600D01*
X145997100Y-145647600D01*
X145996390Y-145662058D01*
X145994266Y-145676376D01*
X145990749Y-145690417D01*
X145985872Y-145704046D01*
X145979683Y-145717131D01*
X145972242Y-145729547D01*
X145963619Y-145741173D01*
X145953898Y-145751898D01*
X145943173Y-145761619D01*
X145931547Y-145770242D01*
X145919131Y-145777683D01*
X145906046Y-145783872D01*
X145892417Y-145788749D01*
X145878376Y-145792266D01*
X145864058Y-145794390D01*
X145849600Y-145795100D01*
X145554600Y-145795100D01*
X145540142Y-145794390D01*
X145525824Y-145792266D01*
X145511783Y-145788749D01*
X145498154Y-145783872D01*
X145485069Y-145777683D01*
X145472653Y-145770242D01*
X145461027Y-145761619D01*
X145450302Y-145751898D01*
X145440581Y-145741173D01*
X145431958Y-145729547D01*
X145424517Y-145717131D01*
X145418328Y-145704046D01*
X145413451Y-145690417D01*
X145409934Y-145676376D01*
X145407810Y-145662058D01*
X145407100Y-145647600D01*
X145407100Y-145302600D01*
X145407810Y-145288142D01*
X145409934Y-145273824D01*
X145413451Y-145259783D01*
X145418328Y-145246154D01*
X145424517Y-145233069D01*
X145431958Y-145220653D01*
X145440581Y-145209027D01*
X145450302Y-145198302D01*
X145461027Y-145188581D01*
X145472653Y-145179958D01*
X145485069Y-145172517D01*
X145498154Y-145166328D01*
X145511783Y-145161451D01*
X145525824Y-145157934D01*
X145540142Y-145155810D01*
X145554600Y-145155100D01*
X145849600Y-145155100D01*
X145864058Y-145155810D01*
X145864058Y-145155810D01*
G37*
D17*
G04 #@! TD*
G04 #@! TO.P,C14,2*
G04 #@! TO.N,GND*
X145702100Y-145475100D03*
D16*
G04 #@! TO.N,DBG_PB_1*
G04 #@! TO.C,C14*
G36*
X146834058Y-145155810D02*
X146848376Y-145157934D01*
X146862417Y-145161451D01*
X146876046Y-145166328D01*
X146889131Y-145172517D01*
X146901547Y-145179958D01*
X146913173Y-145188581D01*
X146923898Y-145198302D01*
X146933619Y-145209027D01*
X146942242Y-145220653D01*
X146949683Y-145233069D01*
X146955872Y-145246154D01*
X146960749Y-145259783D01*
X146964266Y-145273824D01*
X146966390Y-145288142D01*
X146967100Y-145302600D01*
X146967100Y-145647600D01*
X146966390Y-145662058D01*
X146964266Y-145676376D01*
X146960749Y-145690417D01*
X146955872Y-145704046D01*
X146949683Y-145717131D01*
X146942242Y-145729547D01*
X146933619Y-145741173D01*
X146923898Y-145751898D01*
X146913173Y-145761619D01*
X146901547Y-145770242D01*
X146889131Y-145777683D01*
X146876046Y-145783872D01*
X146862417Y-145788749D01*
X146848376Y-145792266D01*
X146834058Y-145794390D01*
X146819600Y-145795100D01*
X146524600Y-145795100D01*
X146510142Y-145794390D01*
X146495824Y-145792266D01*
X146481783Y-145788749D01*
X146468154Y-145783872D01*
X146455069Y-145777683D01*
X146442653Y-145770242D01*
X146431027Y-145761619D01*
X146420302Y-145751898D01*
X146410581Y-145741173D01*
X146401958Y-145729547D01*
X146394517Y-145717131D01*
X146388328Y-145704046D01*
X146383451Y-145690417D01*
X146379934Y-145676376D01*
X146377810Y-145662058D01*
X146377100Y-145647600D01*
X146377100Y-145302600D01*
X146377810Y-145288142D01*
X146379934Y-145273824D01*
X146383451Y-145259783D01*
X146388328Y-145246154D01*
X146394517Y-145233069D01*
X146401958Y-145220653D01*
X146410581Y-145209027D01*
X146420302Y-145198302D01*
X146431027Y-145188581D01*
X146442653Y-145179958D01*
X146455069Y-145172517D01*
X146468154Y-145166328D01*
X146481783Y-145161451D01*
X146495824Y-145157934D01*
X146510142Y-145155810D01*
X146524600Y-145155100D01*
X146819600Y-145155100D01*
X146834058Y-145155810D01*
X146834058Y-145155810D01*
G37*
D17*
G04 #@! TD*
G04 #@! TO.P,C14,1*
G04 #@! TO.N,DBG_PB_1*
X146672100Y-145475100D03*
D16*
G04 #@! TO.N,GND*
G04 #@! TO.C,C15*
G36*
X145841058Y-128899810D02*
X145855376Y-128901934D01*
X145869417Y-128905451D01*
X145883046Y-128910328D01*
X145896131Y-128916517D01*
X145908547Y-128923958D01*
X145920173Y-128932581D01*
X145930898Y-128942302D01*
X145940619Y-128953027D01*
X145949242Y-128964653D01*
X145956683Y-128977069D01*
X145962872Y-128990154D01*
X145967749Y-129003783D01*
X145971266Y-129017824D01*
X145973390Y-129032142D01*
X145974100Y-129046600D01*
X145974100Y-129391600D01*
X145973390Y-129406058D01*
X145971266Y-129420376D01*
X145967749Y-129434417D01*
X145962872Y-129448046D01*
X145956683Y-129461131D01*
X145949242Y-129473547D01*
X145940619Y-129485173D01*
X145930898Y-129495898D01*
X145920173Y-129505619D01*
X145908547Y-129514242D01*
X145896131Y-129521683D01*
X145883046Y-129527872D01*
X145869417Y-129532749D01*
X145855376Y-129536266D01*
X145841058Y-129538390D01*
X145826600Y-129539100D01*
X145531600Y-129539100D01*
X145517142Y-129538390D01*
X145502824Y-129536266D01*
X145488783Y-129532749D01*
X145475154Y-129527872D01*
X145462069Y-129521683D01*
X145449653Y-129514242D01*
X145438027Y-129505619D01*
X145427302Y-129495898D01*
X145417581Y-129485173D01*
X145408958Y-129473547D01*
X145401517Y-129461131D01*
X145395328Y-129448046D01*
X145390451Y-129434417D01*
X145386934Y-129420376D01*
X145384810Y-129406058D01*
X145384100Y-129391600D01*
X145384100Y-129046600D01*
X145384810Y-129032142D01*
X145386934Y-129017824D01*
X145390451Y-129003783D01*
X145395328Y-128990154D01*
X145401517Y-128977069D01*
X145408958Y-128964653D01*
X145417581Y-128953027D01*
X145427302Y-128942302D01*
X145438027Y-128932581D01*
X145449653Y-128923958D01*
X145462069Y-128916517D01*
X145475154Y-128910328D01*
X145488783Y-128905451D01*
X145502824Y-128901934D01*
X145517142Y-128899810D01*
X145531600Y-128899100D01*
X145826600Y-128899100D01*
X145841058Y-128899810D01*
X145841058Y-128899810D01*
G37*
D17*
G04 #@! TD*
G04 #@! TO.P,C15,2*
G04 #@! TO.N,GND*
X145679100Y-129219100D03*
D16*
G04 #@! TO.N,DBG_PB_2*
G04 #@! TO.C,C15*
G36*
X146811058Y-128899810D02*
X146825376Y-128901934D01*
X146839417Y-128905451D01*
X146853046Y-128910328D01*
X146866131Y-128916517D01*
X146878547Y-128923958D01*
X146890173Y-128932581D01*
X146900898Y-128942302D01*
X146910619Y-128953027D01*
X146919242Y-128964653D01*
X146926683Y-128977069D01*
X146932872Y-128990154D01*
X146937749Y-129003783D01*
X146941266Y-129017824D01*
X146943390Y-129032142D01*
X146944100Y-129046600D01*
X146944100Y-129391600D01*
X146943390Y-129406058D01*
X146941266Y-129420376D01*
X146937749Y-129434417D01*
X146932872Y-129448046D01*
X146926683Y-129461131D01*
X146919242Y-129473547D01*
X146910619Y-129485173D01*
X146900898Y-129495898D01*
X146890173Y-129505619D01*
X146878547Y-129514242D01*
X146866131Y-129521683D01*
X146853046Y-129527872D01*
X146839417Y-129532749D01*
X146825376Y-129536266D01*
X146811058Y-129538390D01*
X146796600Y-129539100D01*
X146501600Y-129539100D01*
X146487142Y-129538390D01*
X146472824Y-129536266D01*
X146458783Y-129532749D01*
X146445154Y-129527872D01*
X146432069Y-129521683D01*
X146419653Y-129514242D01*
X146408027Y-129505619D01*
X146397302Y-129495898D01*
X146387581Y-129485173D01*
X146378958Y-129473547D01*
X146371517Y-129461131D01*
X146365328Y-129448046D01*
X146360451Y-129434417D01*
X146356934Y-129420376D01*
X146354810Y-129406058D01*
X146354100Y-129391600D01*
X146354100Y-129046600D01*
X146354810Y-129032142D01*
X146356934Y-129017824D01*
X146360451Y-129003783D01*
X146365328Y-128990154D01*
X146371517Y-128977069D01*
X146378958Y-128964653D01*
X146387581Y-128953027D01*
X146397302Y-128942302D01*
X146408027Y-128932581D01*
X146419653Y-128923958D01*
X146432069Y-128916517D01*
X146445154Y-128910328D01*
X146458783Y-128905451D01*
X146472824Y-128901934D01*
X146487142Y-128899810D01*
X146501600Y-128899100D01*
X146796600Y-128899100D01*
X146811058Y-128899810D01*
X146811058Y-128899810D01*
G37*
D17*
G04 #@! TD*
G04 #@! TO.P,C15,1*
G04 #@! TO.N,DBG_PB_2*
X146649100Y-129219100D03*
D16*
G04 #@! TO.N,GND*
G04 #@! TO.C,C16*
G36*
X150957558Y-109637210D02*
X150971876Y-109639334D01*
X150985917Y-109642851D01*
X150999546Y-109647728D01*
X151012631Y-109653917D01*
X151025047Y-109661358D01*
X151036673Y-109669981D01*
X151047398Y-109679702D01*
X151057119Y-109690427D01*
X151065742Y-109702053D01*
X151073183Y-109714469D01*
X151079372Y-109727554D01*
X151084249Y-109741183D01*
X151087766Y-109755224D01*
X151089890Y-109769542D01*
X151090600Y-109784000D01*
X151090600Y-110129000D01*
X151089890Y-110143458D01*
X151087766Y-110157776D01*
X151084249Y-110171817D01*
X151079372Y-110185446D01*
X151073183Y-110198531D01*
X151065742Y-110210947D01*
X151057119Y-110222573D01*
X151047398Y-110233298D01*
X151036673Y-110243019D01*
X151025047Y-110251642D01*
X151012631Y-110259083D01*
X150999546Y-110265272D01*
X150985917Y-110270149D01*
X150971876Y-110273666D01*
X150957558Y-110275790D01*
X150943100Y-110276500D01*
X150648100Y-110276500D01*
X150633642Y-110275790D01*
X150619324Y-110273666D01*
X150605283Y-110270149D01*
X150591654Y-110265272D01*
X150578569Y-110259083D01*
X150566153Y-110251642D01*
X150554527Y-110243019D01*
X150543802Y-110233298D01*
X150534081Y-110222573D01*
X150525458Y-110210947D01*
X150518017Y-110198531D01*
X150511828Y-110185446D01*
X150506951Y-110171817D01*
X150503434Y-110157776D01*
X150501310Y-110143458D01*
X150500600Y-110129000D01*
X150500600Y-109784000D01*
X150501310Y-109769542D01*
X150503434Y-109755224D01*
X150506951Y-109741183D01*
X150511828Y-109727554D01*
X150518017Y-109714469D01*
X150525458Y-109702053D01*
X150534081Y-109690427D01*
X150543802Y-109679702D01*
X150554527Y-109669981D01*
X150566153Y-109661358D01*
X150578569Y-109653917D01*
X150591654Y-109647728D01*
X150605283Y-109642851D01*
X150619324Y-109639334D01*
X150633642Y-109637210D01*
X150648100Y-109636500D01*
X150943100Y-109636500D01*
X150957558Y-109637210D01*
X150957558Y-109637210D01*
G37*
D17*
G04 #@! TD*
G04 #@! TO.P,C16,2*
G04 #@! TO.N,GND*
X150795600Y-109956500D03*
D16*
G04 #@! TO.N,DBG_PB_3*
G04 #@! TO.C,C16*
G36*
X149987558Y-109637210D02*
X150001876Y-109639334D01*
X150015917Y-109642851D01*
X150029546Y-109647728D01*
X150042631Y-109653917D01*
X150055047Y-109661358D01*
X150066673Y-109669981D01*
X150077398Y-109679702D01*
X150087119Y-109690427D01*
X150095742Y-109702053D01*
X150103183Y-109714469D01*
X150109372Y-109727554D01*
X150114249Y-109741183D01*
X150117766Y-109755224D01*
X150119890Y-109769542D01*
X150120600Y-109784000D01*
X150120600Y-110129000D01*
X150119890Y-110143458D01*
X150117766Y-110157776D01*
X150114249Y-110171817D01*
X150109372Y-110185446D01*
X150103183Y-110198531D01*
X150095742Y-110210947D01*
X150087119Y-110222573D01*
X150077398Y-110233298D01*
X150066673Y-110243019D01*
X150055047Y-110251642D01*
X150042631Y-110259083D01*
X150029546Y-110265272D01*
X150015917Y-110270149D01*
X150001876Y-110273666D01*
X149987558Y-110275790D01*
X149973100Y-110276500D01*
X149678100Y-110276500D01*
X149663642Y-110275790D01*
X149649324Y-110273666D01*
X149635283Y-110270149D01*
X149621654Y-110265272D01*
X149608569Y-110259083D01*
X149596153Y-110251642D01*
X149584527Y-110243019D01*
X149573802Y-110233298D01*
X149564081Y-110222573D01*
X149555458Y-110210947D01*
X149548017Y-110198531D01*
X149541828Y-110185446D01*
X149536951Y-110171817D01*
X149533434Y-110157776D01*
X149531310Y-110143458D01*
X149530600Y-110129000D01*
X149530600Y-109784000D01*
X149531310Y-109769542D01*
X149533434Y-109755224D01*
X149536951Y-109741183D01*
X149541828Y-109727554D01*
X149548017Y-109714469D01*
X149555458Y-109702053D01*
X149564081Y-109690427D01*
X149573802Y-109679702D01*
X149584527Y-109669981D01*
X149596153Y-109661358D01*
X149608569Y-109653917D01*
X149621654Y-109647728D01*
X149635283Y-109642851D01*
X149649324Y-109639334D01*
X149663642Y-109637210D01*
X149678100Y-109636500D01*
X149973100Y-109636500D01*
X149987558Y-109637210D01*
X149987558Y-109637210D01*
G37*
D17*
G04 #@! TD*
G04 #@! TO.P,C16,1*
G04 #@! TO.N,DBG_PB_3*
X149825600Y-109956500D03*
D16*
G04 #@! TO.N,Net-(D1-Pad2)*
G04 #@! TO.C,D1*
G36*
X113863287Y-121215297D02*
X113872994Y-121216736D01*
X113882513Y-121219121D01*
X113891753Y-121222427D01*
X113900625Y-121226623D01*
X113909042Y-121231668D01*
X113916924Y-121237514D01*
X113924196Y-121244104D01*
X113930786Y-121251376D01*
X113936632Y-121259258D01*
X113941677Y-121267675D01*
X113945873Y-121276547D01*
X113949179Y-121285787D01*
X113951564Y-121295306D01*
X113953003Y-121305013D01*
X113953485Y-121314815D01*
X113953485Y-121574815D01*
X113953003Y-121584617D01*
X113951564Y-121594324D01*
X113949179Y-121603843D01*
X113945873Y-121613083D01*
X113941677Y-121621955D01*
X113936632Y-121630372D01*
X113930786Y-121638254D01*
X113924196Y-121645526D01*
X113916924Y-121652116D01*
X113909042Y-121657962D01*
X113900625Y-121663007D01*
X113891753Y-121667203D01*
X113882513Y-121670509D01*
X113872994Y-121672894D01*
X113863287Y-121674333D01*
X113853485Y-121674815D01*
X113653485Y-121674815D01*
X113643683Y-121674333D01*
X113633976Y-121672894D01*
X113624457Y-121670509D01*
X113615217Y-121667203D01*
X113606345Y-121663007D01*
X113597928Y-121657962D01*
X113590046Y-121652116D01*
X113582774Y-121645526D01*
X113576184Y-121638254D01*
X113570338Y-121630372D01*
X113565293Y-121621955D01*
X113561097Y-121613083D01*
X113557791Y-121603843D01*
X113555406Y-121594324D01*
X113553967Y-121584617D01*
X113553485Y-121574815D01*
X113553485Y-121314815D01*
X113553967Y-121305013D01*
X113555406Y-121295306D01*
X113557791Y-121285787D01*
X113561097Y-121276547D01*
X113565293Y-121267675D01*
X113570338Y-121259258D01*
X113576184Y-121251376D01*
X113582774Y-121244104D01*
X113590046Y-121237514D01*
X113597928Y-121231668D01*
X113606345Y-121226623D01*
X113615217Y-121222427D01*
X113624457Y-121219121D01*
X113633976Y-121216736D01*
X113643683Y-121215297D01*
X113653485Y-121214815D01*
X113853485Y-121214815D01*
X113863287Y-121215297D01*
X113863287Y-121215297D01*
G37*
D33*
G04 #@! TD*
G04 #@! TO.P,D1,2*
G04 #@! TO.N,Net-(D1-Pad2)*
X113753485Y-121444815D03*
D16*
G04 #@! TO.N,GND*
G04 #@! TO.C,D1*
G36*
X113863287Y-120575297D02*
X113872994Y-120576736D01*
X113882513Y-120579121D01*
X113891753Y-120582427D01*
X113900625Y-120586623D01*
X113909042Y-120591668D01*
X113916924Y-120597514D01*
X113924196Y-120604104D01*
X113930786Y-120611376D01*
X113936632Y-120619258D01*
X113941677Y-120627675D01*
X113945873Y-120636547D01*
X113949179Y-120645787D01*
X113951564Y-120655306D01*
X113953003Y-120665013D01*
X113953485Y-120674815D01*
X113953485Y-120934815D01*
X113953003Y-120944617D01*
X113951564Y-120954324D01*
X113949179Y-120963843D01*
X113945873Y-120973083D01*
X113941677Y-120981955D01*
X113936632Y-120990372D01*
X113930786Y-120998254D01*
X113924196Y-121005526D01*
X113916924Y-121012116D01*
X113909042Y-121017962D01*
X113900625Y-121023007D01*
X113891753Y-121027203D01*
X113882513Y-121030509D01*
X113872994Y-121032894D01*
X113863287Y-121034333D01*
X113853485Y-121034815D01*
X113653485Y-121034815D01*
X113643683Y-121034333D01*
X113633976Y-121032894D01*
X113624457Y-121030509D01*
X113615217Y-121027203D01*
X113606345Y-121023007D01*
X113597928Y-121017962D01*
X113590046Y-121012116D01*
X113582774Y-121005526D01*
X113576184Y-120998254D01*
X113570338Y-120990372D01*
X113565293Y-120981955D01*
X113561097Y-120973083D01*
X113557791Y-120963843D01*
X113555406Y-120954324D01*
X113553967Y-120944617D01*
X113553485Y-120934815D01*
X113553485Y-120674815D01*
X113553967Y-120665013D01*
X113555406Y-120655306D01*
X113557791Y-120645787D01*
X113561097Y-120636547D01*
X113565293Y-120627675D01*
X113570338Y-120619258D01*
X113576184Y-120611376D01*
X113582774Y-120604104D01*
X113590046Y-120597514D01*
X113597928Y-120591668D01*
X113606345Y-120586623D01*
X113615217Y-120582427D01*
X113624457Y-120579121D01*
X113633976Y-120576736D01*
X113643683Y-120575297D01*
X113653485Y-120574815D01*
X113853485Y-120574815D01*
X113863287Y-120575297D01*
X113863287Y-120575297D01*
G37*
D33*
G04 #@! TD*
G04 #@! TO.P,D1,1*
G04 #@! TO.N,GND*
X113753485Y-120804815D03*
D16*
G04 #@! TO.N,Net-(D2-Pad2)*
G04 #@! TO.C,D2*
G36*
X112847287Y-121215297D02*
X112856994Y-121216736D01*
X112866513Y-121219121D01*
X112875753Y-121222427D01*
X112884625Y-121226623D01*
X112893042Y-121231668D01*
X112900924Y-121237514D01*
X112908196Y-121244104D01*
X112914786Y-121251376D01*
X112920632Y-121259258D01*
X112925677Y-121267675D01*
X112929873Y-121276547D01*
X112933179Y-121285787D01*
X112935564Y-121295306D01*
X112937003Y-121305013D01*
X112937485Y-121314815D01*
X112937485Y-121574815D01*
X112937003Y-121584617D01*
X112935564Y-121594324D01*
X112933179Y-121603843D01*
X112929873Y-121613083D01*
X112925677Y-121621955D01*
X112920632Y-121630372D01*
X112914786Y-121638254D01*
X112908196Y-121645526D01*
X112900924Y-121652116D01*
X112893042Y-121657962D01*
X112884625Y-121663007D01*
X112875753Y-121667203D01*
X112866513Y-121670509D01*
X112856994Y-121672894D01*
X112847287Y-121674333D01*
X112837485Y-121674815D01*
X112637485Y-121674815D01*
X112627683Y-121674333D01*
X112617976Y-121672894D01*
X112608457Y-121670509D01*
X112599217Y-121667203D01*
X112590345Y-121663007D01*
X112581928Y-121657962D01*
X112574046Y-121652116D01*
X112566774Y-121645526D01*
X112560184Y-121638254D01*
X112554338Y-121630372D01*
X112549293Y-121621955D01*
X112545097Y-121613083D01*
X112541791Y-121603843D01*
X112539406Y-121594324D01*
X112537967Y-121584617D01*
X112537485Y-121574815D01*
X112537485Y-121314815D01*
X112537967Y-121305013D01*
X112539406Y-121295306D01*
X112541791Y-121285787D01*
X112545097Y-121276547D01*
X112549293Y-121267675D01*
X112554338Y-121259258D01*
X112560184Y-121251376D01*
X112566774Y-121244104D01*
X112574046Y-121237514D01*
X112581928Y-121231668D01*
X112590345Y-121226623D01*
X112599217Y-121222427D01*
X112608457Y-121219121D01*
X112617976Y-121216736D01*
X112627683Y-121215297D01*
X112637485Y-121214815D01*
X112837485Y-121214815D01*
X112847287Y-121215297D01*
X112847287Y-121215297D01*
G37*
D33*
G04 #@! TD*
G04 #@! TO.P,D2,2*
G04 #@! TO.N,Net-(D2-Pad2)*
X112737485Y-121444815D03*
D16*
G04 #@! TO.N,GND*
G04 #@! TO.C,D2*
G36*
X112847287Y-120575297D02*
X112856994Y-120576736D01*
X112866513Y-120579121D01*
X112875753Y-120582427D01*
X112884625Y-120586623D01*
X112893042Y-120591668D01*
X112900924Y-120597514D01*
X112908196Y-120604104D01*
X112914786Y-120611376D01*
X112920632Y-120619258D01*
X112925677Y-120627675D01*
X112929873Y-120636547D01*
X112933179Y-120645787D01*
X112935564Y-120655306D01*
X112937003Y-120665013D01*
X112937485Y-120674815D01*
X112937485Y-120934815D01*
X112937003Y-120944617D01*
X112935564Y-120954324D01*
X112933179Y-120963843D01*
X112929873Y-120973083D01*
X112925677Y-120981955D01*
X112920632Y-120990372D01*
X112914786Y-120998254D01*
X112908196Y-121005526D01*
X112900924Y-121012116D01*
X112893042Y-121017962D01*
X112884625Y-121023007D01*
X112875753Y-121027203D01*
X112866513Y-121030509D01*
X112856994Y-121032894D01*
X112847287Y-121034333D01*
X112837485Y-121034815D01*
X112637485Y-121034815D01*
X112627683Y-121034333D01*
X112617976Y-121032894D01*
X112608457Y-121030509D01*
X112599217Y-121027203D01*
X112590345Y-121023007D01*
X112581928Y-121017962D01*
X112574046Y-121012116D01*
X112566774Y-121005526D01*
X112560184Y-120998254D01*
X112554338Y-120990372D01*
X112549293Y-120981955D01*
X112545097Y-120973083D01*
X112541791Y-120963843D01*
X112539406Y-120954324D01*
X112537967Y-120944617D01*
X112537485Y-120934815D01*
X112537485Y-120674815D01*
X112537967Y-120665013D01*
X112539406Y-120655306D01*
X112541791Y-120645787D01*
X112545097Y-120636547D01*
X112549293Y-120627675D01*
X112554338Y-120619258D01*
X112560184Y-120611376D01*
X112566774Y-120604104D01*
X112574046Y-120597514D01*
X112581928Y-120591668D01*
X112590345Y-120586623D01*
X112599217Y-120582427D01*
X112608457Y-120579121D01*
X112617976Y-120576736D01*
X112627683Y-120575297D01*
X112637485Y-120574815D01*
X112837485Y-120574815D01*
X112847287Y-120575297D01*
X112847287Y-120575297D01*
G37*
D33*
G04 #@! TD*
G04 #@! TO.P,D2,1*
G04 #@! TO.N,GND*
X112737485Y-120804815D03*
D16*
G04 #@! TO.N,Net-(D3-Pad2)*
G04 #@! TO.C,D3*
G36*
X111831287Y-121215297D02*
X111840994Y-121216736D01*
X111850513Y-121219121D01*
X111859753Y-121222427D01*
X111868625Y-121226623D01*
X111877042Y-121231668D01*
X111884924Y-121237514D01*
X111892196Y-121244104D01*
X111898786Y-121251376D01*
X111904632Y-121259258D01*
X111909677Y-121267675D01*
X111913873Y-121276547D01*
X111917179Y-121285787D01*
X111919564Y-121295306D01*
X111921003Y-121305013D01*
X111921485Y-121314815D01*
X111921485Y-121574815D01*
X111921003Y-121584617D01*
X111919564Y-121594324D01*
X111917179Y-121603843D01*
X111913873Y-121613083D01*
X111909677Y-121621955D01*
X111904632Y-121630372D01*
X111898786Y-121638254D01*
X111892196Y-121645526D01*
X111884924Y-121652116D01*
X111877042Y-121657962D01*
X111868625Y-121663007D01*
X111859753Y-121667203D01*
X111850513Y-121670509D01*
X111840994Y-121672894D01*
X111831287Y-121674333D01*
X111821485Y-121674815D01*
X111621485Y-121674815D01*
X111611683Y-121674333D01*
X111601976Y-121672894D01*
X111592457Y-121670509D01*
X111583217Y-121667203D01*
X111574345Y-121663007D01*
X111565928Y-121657962D01*
X111558046Y-121652116D01*
X111550774Y-121645526D01*
X111544184Y-121638254D01*
X111538338Y-121630372D01*
X111533293Y-121621955D01*
X111529097Y-121613083D01*
X111525791Y-121603843D01*
X111523406Y-121594324D01*
X111521967Y-121584617D01*
X111521485Y-121574815D01*
X111521485Y-121314815D01*
X111521967Y-121305013D01*
X111523406Y-121295306D01*
X111525791Y-121285787D01*
X111529097Y-121276547D01*
X111533293Y-121267675D01*
X111538338Y-121259258D01*
X111544184Y-121251376D01*
X111550774Y-121244104D01*
X111558046Y-121237514D01*
X111565928Y-121231668D01*
X111574345Y-121226623D01*
X111583217Y-121222427D01*
X111592457Y-121219121D01*
X111601976Y-121216736D01*
X111611683Y-121215297D01*
X111621485Y-121214815D01*
X111821485Y-121214815D01*
X111831287Y-121215297D01*
X111831287Y-121215297D01*
G37*
D33*
G04 #@! TD*
G04 #@! TO.P,D3,2*
G04 #@! TO.N,Net-(D3-Pad2)*
X111721485Y-121444815D03*
D16*
G04 #@! TO.N,GND*
G04 #@! TO.C,D3*
G36*
X111831287Y-120575297D02*
X111840994Y-120576736D01*
X111850513Y-120579121D01*
X111859753Y-120582427D01*
X111868625Y-120586623D01*
X111877042Y-120591668D01*
X111884924Y-120597514D01*
X111892196Y-120604104D01*
X111898786Y-120611376D01*
X111904632Y-120619258D01*
X111909677Y-120627675D01*
X111913873Y-120636547D01*
X111917179Y-120645787D01*
X111919564Y-120655306D01*
X111921003Y-120665013D01*
X111921485Y-120674815D01*
X111921485Y-120934815D01*
X111921003Y-120944617D01*
X111919564Y-120954324D01*
X111917179Y-120963843D01*
X111913873Y-120973083D01*
X111909677Y-120981955D01*
X111904632Y-120990372D01*
X111898786Y-120998254D01*
X111892196Y-121005526D01*
X111884924Y-121012116D01*
X111877042Y-121017962D01*
X111868625Y-121023007D01*
X111859753Y-121027203D01*
X111850513Y-121030509D01*
X111840994Y-121032894D01*
X111831287Y-121034333D01*
X111821485Y-121034815D01*
X111621485Y-121034815D01*
X111611683Y-121034333D01*
X111601976Y-121032894D01*
X111592457Y-121030509D01*
X111583217Y-121027203D01*
X111574345Y-121023007D01*
X111565928Y-121017962D01*
X111558046Y-121012116D01*
X111550774Y-121005526D01*
X111544184Y-120998254D01*
X111538338Y-120990372D01*
X111533293Y-120981955D01*
X111529097Y-120973083D01*
X111525791Y-120963843D01*
X111523406Y-120954324D01*
X111521967Y-120944617D01*
X111521485Y-120934815D01*
X111521485Y-120674815D01*
X111521967Y-120665013D01*
X111523406Y-120655306D01*
X111525791Y-120645787D01*
X111529097Y-120636547D01*
X111533293Y-120627675D01*
X111538338Y-120619258D01*
X111544184Y-120611376D01*
X111550774Y-120604104D01*
X111558046Y-120597514D01*
X111565928Y-120591668D01*
X111574345Y-120586623D01*
X111583217Y-120582427D01*
X111592457Y-120579121D01*
X111601976Y-120576736D01*
X111611683Y-120575297D01*
X111621485Y-120574815D01*
X111821485Y-120574815D01*
X111831287Y-120575297D01*
X111831287Y-120575297D01*
G37*
D33*
G04 #@! TD*
G04 #@! TO.P,D3,1*
G04 #@! TO.N,GND*
X111721485Y-120804815D03*
D16*
G04 #@! TO.N,/USB_D-*
G04 #@! TO.C,R2*
G36*
X107825558Y-122639210D02*
X107839876Y-122641334D01*
X107853917Y-122644851D01*
X107867546Y-122649728D01*
X107880631Y-122655917D01*
X107893047Y-122663358D01*
X107904673Y-122671981D01*
X107915398Y-122681702D01*
X107925119Y-122692427D01*
X107933742Y-122704053D01*
X107941183Y-122716469D01*
X107947372Y-122729554D01*
X107952249Y-122743183D01*
X107955766Y-122757224D01*
X107957890Y-122771542D01*
X107958600Y-122786000D01*
X107958600Y-123081000D01*
X107957890Y-123095458D01*
X107955766Y-123109776D01*
X107952249Y-123123817D01*
X107947372Y-123137446D01*
X107941183Y-123150531D01*
X107933742Y-123162947D01*
X107925119Y-123174573D01*
X107915398Y-123185298D01*
X107904673Y-123195019D01*
X107893047Y-123203642D01*
X107880631Y-123211083D01*
X107867546Y-123217272D01*
X107853917Y-123222149D01*
X107839876Y-123225666D01*
X107825558Y-123227790D01*
X107811100Y-123228500D01*
X107466100Y-123228500D01*
X107451642Y-123227790D01*
X107437324Y-123225666D01*
X107423283Y-123222149D01*
X107409654Y-123217272D01*
X107396569Y-123211083D01*
X107384153Y-123203642D01*
X107372527Y-123195019D01*
X107361802Y-123185298D01*
X107352081Y-123174573D01*
X107343458Y-123162947D01*
X107336017Y-123150531D01*
X107329828Y-123137446D01*
X107324951Y-123123817D01*
X107321434Y-123109776D01*
X107319310Y-123095458D01*
X107318600Y-123081000D01*
X107318600Y-122786000D01*
X107319310Y-122771542D01*
X107321434Y-122757224D01*
X107324951Y-122743183D01*
X107329828Y-122729554D01*
X107336017Y-122716469D01*
X107343458Y-122704053D01*
X107352081Y-122692427D01*
X107361802Y-122681702D01*
X107372527Y-122671981D01*
X107384153Y-122663358D01*
X107396569Y-122655917D01*
X107409654Y-122649728D01*
X107423283Y-122644851D01*
X107437324Y-122641334D01*
X107451642Y-122639210D01*
X107466100Y-122638500D01*
X107811100Y-122638500D01*
X107825558Y-122639210D01*
X107825558Y-122639210D01*
G37*
D17*
G04 #@! TD*
G04 #@! TO.P,R2,2*
G04 #@! TO.N,/USB_D-*
X107638600Y-122933500D03*
D16*
G04 #@! TO.N,/USB_R_D+*
G04 #@! TO.C,R2*
G36*
X107825558Y-123609210D02*
X107839876Y-123611334D01*
X107853917Y-123614851D01*
X107867546Y-123619728D01*
X107880631Y-123625917D01*
X107893047Y-123633358D01*
X107904673Y-123641981D01*
X107915398Y-123651702D01*
X107925119Y-123662427D01*
X107933742Y-123674053D01*
X107941183Y-123686469D01*
X107947372Y-123699554D01*
X107952249Y-123713183D01*
X107955766Y-123727224D01*
X107957890Y-123741542D01*
X107958600Y-123756000D01*
X107958600Y-124051000D01*
X107957890Y-124065458D01*
X107955766Y-124079776D01*
X107952249Y-124093817D01*
X107947372Y-124107446D01*
X107941183Y-124120531D01*
X107933742Y-124132947D01*
X107925119Y-124144573D01*
X107915398Y-124155298D01*
X107904673Y-124165019D01*
X107893047Y-124173642D01*
X107880631Y-124181083D01*
X107867546Y-124187272D01*
X107853917Y-124192149D01*
X107839876Y-124195666D01*
X107825558Y-124197790D01*
X107811100Y-124198500D01*
X107466100Y-124198500D01*
X107451642Y-124197790D01*
X107437324Y-124195666D01*
X107423283Y-124192149D01*
X107409654Y-124187272D01*
X107396569Y-124181083D01*
X107384153Y-124173642D01*
X107372527Y-124165019D01*
X107361802Y-124155298D01*
X107352081Y-124144573D01*
X107343458Y-124132947D01*
X107336017Y-124120531D01*
X107329828Y-124107446D01*
X107324951Y-124093817D01*
X107321434Y-124079776D01*
X107319310Y-124065458D01*
X107318600Y-124051000D01*
X107318600Y-123756000D01*
X107319310Y-123741542D01*
X107321434Y-123727224D01*
X107324951Y-123713183D01*
X107329828Y-123699554D01*
X107336017Y-123686469D01*
X107343458Y-123674053D01*
X107352081Y-123662427D01*
X107361802Y-123651702D01*
X107372527Y-123641981D01*
X107384153Y-123633358D01*
X107396569Y-123625917D01*
X107409654Y-123619728D01*
X107423283Y-123614851D01*
X107437324Y-123611334D01*
X107451642Y-123609210D01*
X107466100Y-123608500D01*
X107811100Y-123608500D01*
X107825558Y-123609210D01*
X107825558Y-123609210D01*
G37*
D17*
G04 #@! TD*
G04 #@! TO.P,R2,1*
G04 #@! TO.N,/USB_R_D+*
X107638600Y-123903500D03*
D16*
G04 #@! TO.N,/USB_R_D-*
G04 #@! TO.C,R3*
G36*
X106809558Y-123609210D02*
X106823876Y-123611334D01*
X106837917Y-123614851D01*
X106851546Y-123619728D01*
X106864631Y-123625917D01*
X106877047Y-123633358D01*
X106888673Y-123641981D01*
X106899398Y-123651702D01*
X106909119Y-123662427D01*
X106917742Y-123674053D01*
X106925183Y-123686469D01*
X106931372Y-123699554D01*
X106936249Y-123713183D01*
X106939766Y-123727224D01*
X106941890Y-123741542D01*
X106942600Y-123756000D01*
X106942600Y-124051000D01*
X106941890Y-124065458D01*
X106939766Y-124079776D01*
X106936249Y-124093817D01*
X106931372Y-124107446D01*
X106925183Y-124120531D01*
X106917742Y-124132947D01*
X106909119Y-124144573D01*
X106899398Y-124155298D01*
X106888673Y-124165019D01*
X106877047Y-124173642D01*
X106864631Y-124181083D01*
X106851546Y-124187272D01*
X106837917Y-124192149D01*
X106823876Y-124195666D01*
X106809558Y-124197790D01*
X106795100Y-124198500D01*
X106450100Y-124198500D01*
X106435642Y-124197790D01*
X106421324Y-124195666D01*
X106407283Y-124192149D01*
X106393654Y-124187272D01*
X106380569Y-124181083D01*
X106368153Y-124173642D01*
X106356527Y-124165019D01*
X106345802Y-124155298D01*
X106336081Y-124144573D01*
X106327458Y-124132947D01*
X106320017Y-124120531D01*
X106313828Y-124107446D01*
X106308951Y-124093817D01*
X106305434Y-124079776D01*
X106303310Y-124065458D01*
X106302600Y-124051000D01*
X106302600Y-123756000D01*
X106303310Y-123741542D01*
X106305434Y-123727224D01*
X106308951Y-123713183D01*
X106313828Y-123699554D01*
X106320017Y-123686469D01*
X106327458Y-123674053D01*
X106336081Y-123662427D01*
X106345802Y-123651702D01*
X106356527Y-123641981D01*
X106368153Y-123633358D01*
X106380569Y-123625917D01*
X106393654Y-123619728D01*
X106407283Y-123614851D01*
X106421324Y-123611334D01*
X106435642Y-123609210D01*
X106450100Y-123608500D01*
X106795100Y-123608500D01*
X106809558Y-123609210D01*
X106809558Y-123609210D01*
G37*
D17*
G04 #@! TD*
G04 #@! TO.P,R3,2*
G04 #@! TO.N,/USB_R_D-*
X106622600Y-123903500D03*
D16*
G04 #@! TO.N,/USB_D+*
G04 #@! TO.C,R3*
G36*
X106809558Y-122639210D02*
X106823876Y-122641334D01*
X106837917Y-122644851D01*
X106851546Y-122649728D01*
X106864631Y-122655917D01*
X106877047Y-122663358D01*
X106888673Y-122671981D01*
X106899398Y-122681702D01*
X106909119Y-122692427D01*
X106917742Y-122704053D01*
X106925183Y-122716469D01*
X106931372Y-122729554D01*
X106936249Y-122743183D01*
X106939766Y-122757224D01*
X106941890Y-122771542D01*
X106942600Y-122786000D01*
X106942600Y-123081000D01*
X106941890Y-123095458D01*
X106939766Y-123109776D01*
X106936249Y-123123817D01*
X106931372Y-123137446D01*
X106925183Y-123150531D01*
X106917742Y-123162947D01*
X106909119Y-123174573D01*
X106899398Y-123185298D01*
X106888673Y-123195019D01*
X106877047Y-123203642D01*
X106864631Y-123211083D01*
X106851546Y-123217272D01*
X106837917Y-123222149D01*
X106823876Y-123225666D01*
X106809558Y-123227790D01*
X106795100Y-123228500D01*
X106450100Y-123228500D01*
X106435642Y-123227790D01*
X106421324Y-123225666D01*
X106407283Y-123222149D01*
X106393654Y-123217272D01*
X106380569Y-123211083D01*
X106368153Y-123203642D01*
X106356527Y-123195019D01*
X106345802Y-123185298D01*
X106336081Y-123174573D01*
X106327458Y-123162947D01*
X106320017Y-123150531D01*
X106313828Y-123137446D01*
X106308951Y-123123817D01*
X106305434Y-123109776D01*
X106303310Y-123095458D01*
X106302600Y-123081000D01*
X106302600Y-122786000D01*
X106303310Y-122771542D01*
X106305434Y-122757224D01*
X106308951Y-122743183D01*
X106313828Y-122729554D01*
X106320017Y-122716469D01*
X106327458Y-122704053D01*
X106336081Y-122692427D01*
X106345802Y-122681702D01*
X106356527Y-122671981D01*
X106368153Y-122663358D01*
X106380569Y-122655917D01*
X106393654Y-122649728D01*
X106407283Y-122644851D01*
X106421324Y-122641334D01*
X106435642Y-122639210D01*
X106450100Y-122638500D01*
X106795100Y-122638500D01*
X106809558Y-122639210D01*
X106809558Y-122639210D01*
G37*
D17*
G04 #@! TD*
G04 #@! TO.P,R3,1*
G04 #@! TO.N,/USB_D+*
X106622600Y-122933500D03*
D16*
G04 #@! TO.N,VMCU*
G04 #@! TO.C,R5*
G36*
X150390058Y-144901810D02*
X150404376Y-144903934D01*
X150418417Y-144907451D01*
X150432046Y-144912328D01*
X150445131Y-144918517D01*
X150457547Y-144925958D01*
X150469173Y-144934581D01*
X150479898Y-144944302D01*
X150489619Y-144955027D01*
X150498242Y-144966653D01*
X150505683Y-144979069D01*
X150511872Y-144992154D01*
X150516749Y-145005783D01*
X150520266Y-145019824D01*
X150522390Y-145034142D01*
X150523100Y-145048600D01*
X150523100Y-145393600D01*
X150522390Y-145408058D01*
X150520266Y-145422376D01*
X150516749Y-145436417D01*
X150511872Y-145450046D01*
X150505683Y-145463131D01*
X150498242Y-145475547D01*
X150489619Y-145487173D01*
X150479898Y-145497898D01*
X150469173Y-145507619D01*
X150457547Y-145516242D01*
X150445131Y-145523683D01*
X150432046Y-145529872D01*
X150418417Y-145534749D01*
X150404376Y-145538266D01*
X150390058Y-145540390D01*
X150375600Y-145541100D01*
X150080600Y-145541100D01*
X150066142Y-145540390D01*
X150051824Y-145538266D01*
X150037783Y-145534749D01*
X150024154Y-145529872D01*
X150011069Y-145523683D01*
X149998653Y-145516242D01*
X149987027Y-145507619D01*
X149976302Y-145497898D01*
X149966581Y-145487173D01*
X149957958Y-145475547D01*
X149950517Y-145463131D01*
X149944328Y-145450046D01*
X149939451Y-145436417D01*
X149935934Y-145422376D01*
X149933810Y-145408058D01*
X149933100Y-145393600D01*
X149933100Y-145048600D01*
X149933810Y-145034142D01*
X149935934Y-145019824D01*
X149939451Y-145005783D01*
X149944328Y-144992154D01*
X149950517Y-144979069D01*
X149957958Y-144966653D01*
X149966581Y-144955027D01*
X149976302Y-144944302D01*
X149987027Y-144934581D01*
X149998653Y-144925958D01*
X150011069Y-144918517D01*
X150024154Y-144912328D01*
X150037783Y-144907451D01*
X150051824Y-144903934D01*
X150066142Y-144901810D01*
X150080600Y-144901100D01*
X150375600Y-144901100D01*
X150390058Y-144901810D01*
X150390058Y-144901810D01*
G37*
D17*
G04 #@! TD*
G04 #@! TO.P,R5,2*
G04 #@! TO.N,VMCU*
X150228100Y-145221100D03*
D16*
G04 #@! TO.N,DBG_PB_1*
G04 #@! TO.C,R5*
G36*
X149420058Y-144901810D02*
X149434376Y-144903934D01*
X149448417Y-144907451D01*
X149462046Y-144912328D01*
X149475131Y-144918517D01*
X149487547Y-144925958D01*
X149499173Y-144934581D01*
X149509898Y-144944302D01*
X149519619Y-144955027D01*
X149528242Y-144966653D01*
X149535683Y-144979069D01*
X149541872Y-144992154D01*
X149546749Y-145005783D01*
X149550266Y-145019824D01*
X149552390Y-145034142D01*
X149553100Y-145048600D01*
X149553100Y-145393600D01*
X149552390Y-145408058D01*
X149550266Y-145422376D01*
X149546749Y-145436417D01*
X149541872Y-145450046D01*
X149535683Y-145463131D01*
X149528242Y-145475547D01*
X149519619Y-145487173D01*
X149509898Y-145497898D01*
X149499173Y-145507619D01*
X149487547Y-145516242D01*
X149475131Y-145523683D01*
X149462046Y-145529872D01*
X149448417Y-145534749D01*
X149434376Y-145538266D01*
X149420058Y-145540390D01*
X149405600Y-145541100D01*
X149110600Y-145541100D01*
X149096142Y-145540390D01*
X149081824Y-145538266D01*
X149067783Y-145534749D01*
X149054154Y-145529872D01*
X149041069Y-145523683D01*
X149028653Y-145516242D01*
X149017027Y-145507619D01*
X149006302Y-145497898D01*
X148996581Y-145487173D01*
X148987958Y-145475547D01*
X148980517Y-145463131D01*
X148974328Y-145450046D01*
X148969451Y-145436417D01*
X148965934Y-145422376D01*
X148963810Y-145408058D01*
X148963100Y-145393600D01*
X148963100Y-145048600D01*
X148963810Y-145034142D01*
X148965934Y-145019824D01*
X148969451Y-145005783D01*
X148974328Y-144992154D01*
X148980517Y-144979069D01*
X148987958Y-144966653D01*
X148996581Y-144955027D01*
X149006302Y-144944302D01*
X149017027Y-144934581D01*
X149028653Y-144925958D01*
X149041069Y-144918517D01*
X149054154Y-144912328D01*
X149067783Y-144907451D01*
X149081824Y-144903934D01*
X149096142Y-144901810D01*
X149110600Y-144901100D01*
X149405600Y-144901100D01*
X149420058Y-144901810D01*
X149420058Y-144901810D01*
G37*
D17*
G04 #@! TD*
G04 #@! TO.P,R5,1*
G04 #@! TO.N,DBG_PB_1*
X149258100Y-145221100D03*
D16*
G04 #@! TO.N,VMCU*
G04 #@! TO.C,R6*
G36*
X150390058Y-128645810D02*
X150404376Y-128647934D01*
X150418417Y-128651451D01*
X150432046Y-128656328D01*
X150445131Y-128662517D01*
X150457547Y-128669958D01*
X150469173Y-128678581D01*
X150479898Y-128688302D01*
X150489619Y-128699027D01*
X150498242Y-128710653D01*
X150505683Y-128723069D01*
X150511872Y-128736154D01*
X150516749Y-128749783D01*
X150520266Y-128763824D01*
X150522390Y-128778142D01*
X150523100Y-128792600D01*
X150523100Y-129137600D01*
X150522390Y-129152058D01*
X150520266Y-129166376D01*
X150516749Y-129180417D01*
X150511872Y-129194046D01*
X150505683Y-129207131D01*
X150498242Y-129219547D01*
X150489619Y-129231173D01*
X150479898Y-129241898D01*
X150469173Y-129251619D01*
X150457547Y-129260242D01*
X150445131Y-129267683D01*
X150432046Y-129273872D01*
X150418417Y-129278749D01*
X150404376Y-129282266D01*
X150390058Y-129284390D01*
X150375600Y-129285100D01*
X150080600Y-129285100D01*
X150066142Y-129284390D01*
X150051824Y-129282266D01*
X150037783Y-129278749D01*
X150024154Y-129273872D01*
X150011069Y-129267683D01*
X149998653Y-129260242D01*
X149987027Y-129251619D01*
X149976302Y-129241898D01*
X149966581Y-129231173D01*
X149957958Y-129219547D01*
X149950517Y-129207131D01*
X149944328Y-129194046D01*
X149939451Y-129180417D01*
X149935934Y-129166376D01*
X149933810Y-129152058D01*
X149933100Y-129137600D01*
X149933100Y-128792600D01*
X149933810Y-128778142D01*
X149935934Y-128763824D01*
X149939451Y-128749783D01*
X149944328Y-128736154D01*
X149950517Y-128723069D01*
X149957958Y-128710653D01*
X149966581Y-128699027D01*
X149976302Y-128688302D01*
X149987027Y-128678581D01*
X149998653Y-128669958D01*
X150011069Y-128662517D01*
X150024154Y-128656328D01*
X150037783Y-128651451D01*
X150051824Y-128647934D01*
X150066142Y-128645810D01*
X150080600Y-128645100D01*
X150375600Y-128645100D01*
X150390058Y-128645810D01*
X150390058Y-128645810D01*
G37*
D17*
G04 #@! TD*
G04 #@! TO.P,R6,2*
G04 #@! TO.N,VMCU*
X150228100Y-128965100D03*
D16*
G04 #@! TO.N,DBG_PB_2*
G04 #@! TO.C,R6*
G36*
X149420058Y-128645810D02*
X149434376Y-128647934D01*
X149448417Y-128651451D01*
X149462046Y-128656328D01*
X149475131Y-128662517D01*
X149487547Y-128669958D01*
X149499173Y-128678581D01*
X149509898Y-128688302D01*
X149519619Y-128699027D01*
X149528242Y-128710653D01*
X149535683Y-128723069D01*
X149541872Y-128736154D01*
X149546749Y-128749783D01*
X149550266Y-128763824D01*
X149552390Y-128778142D01*
X149553100Y-128792600D01*
X149553100Y-129137600D01*
X149552390Y-129152058D01*
X149550266Y-129166376D01*
X149546749Y-129180417D01*
X149541872Y-129194046D01*
X149535683Y-129207131D01*
X149528242Y-129219547D01*
X149519619Y-129231173D01*
X149509898Y-129241898D01*
X149499173Y-129251619D01*
X149487547Y-129260242D01*
X149475131Y-129267683D01*
X149462046Y-129273872D01*
X149448417Y-129278749D01*
X149434376Y-129282266D01*
X149420058Y-129284390D01*
X149405600Y-129285100D01*
X149110600Y-129285100D01*
X149096142Y-129284390D01*
X149081824Y-129282266D01*
X149067783Y-129278749D01*
X149054154Y-129273872D01*
X149041069Y-129267683D01*
X149028653Y-129260242D01*
X149017027Y-129251619D01*
X149006302Y-129241898D01*
X148996581Y-129231173D01*
X148987958Y-129219547D01*
X148980517Y-129207131D01*
X148974328Y-129194046D01*
X148969451Y-129180417D01*
X148965934Y-129166376D01*
X148963810Y-129152058D01*
X148963100Y-129137600D01*
X148963100Y-128792600D01*
X148963810Y-128778142D01*
X148965934Y-128763824D01*
X148969451Y-128749783D01*
X148974328Y-128736154D01*
X148980517Y-128723069D01*
X148987958Y-128710653D01*
X148996581Y-128699027D01*
X149006302Y-128688302D01*
X149017027Y-128678581D01*
X149028653Y-128669958D01*
X149041069Y-128662517D01*
X149054154Y-128656328D01*
X149067783Y-128651451D01*
X149081824Y-128647934D01*
X149096142Y-128645810D01*
X149110600Y-128645100D01*
X149405600Y-128645100D01*
X149420058Y-128645810D01*
X149420058Y-128645810D01*
G37*
D17*
G04 #@! TD*
G04 #@! TO.P,R6,1*
G04 #@! TO.N,DBG_PB_2*
X149258100Y-128965100D03*
D16*
G04 #@! TO.N,VMCU*
G04 #@! TO.C,R7*
G36*
X150390058Y-112135810D02*
X150404376Y-112137934D01*
X150418417Y-112141451D01*
X150432046Y-112146328D01*
X150445131Y-112152517D01*
X150457547Y-112159958D01*
X150469173Y-112168581D01*
X150479898Y-112178302D01*
X150489619Y-112189027D01*
X150498242Y-112200653D01*
X150505683Y-112213069D01*
X150511872Y-112226154D01*
X150516749Y-112239783D01*
X150520266Y-112253824D01*
X150522390Y-112268142D01*
X150523100Y-112282600D01*
X150523100Y-112627600D01*
X150522390Y-112642058D01*
X150520266Y-112656376D01*
X150516749Y-112670417D01*
X150511872Y-112684046D01*
X150505683Y-112697131D01*
X150498242Y-112709547D01*
X150489619Y-112721173D01*
X150479898Y-112731898D01*
X150469173Y-112741619D01*
X150457547Y-112750242D01*
X150445131Y-112757683D01*
X150432046Y-112763872D01*
X150418417Y-112768749D01*
X150404376Y-112772266D01*
X150390058Y-112774390D01*
X150375600Y-112775100D01*
X150080600Y-112775100D01*
X150066142Y-112774390D01*
X150051824Y-112772266D01*
X150037783Y-112768749D01*
X150024154Y-112763872D01*
X150011069Y-112757683D01*
X149998653Y-112750242D01*
X149987027Y-112741619D01*
X149976302Y-112731898D01*
X149966581Y-112721173D01*
X149957958Y-112709547D01*
X149950517Y-112697131D01*
X149944328Y-112684046D01*
X149939451Y-112670417D01*
X149935934Y-112656376D01*
X149933810Y-112642058D01*
X149933100Y-112627600D01*
X149933100Y-112282600D01*
X149933810Y-112268142D01*
X149935934Y-112253824D01*
X149939451Y-112239783D01*
X149944328Y-112226154D01*
X149950517Y-112213069D01*
X149957958Y-112200653D01*
X149966581Y-112189027D01*
X149976302Y-112178302D01*
X149987027Y-112168581D01*
X149998653Y-112159958D01*
X150011069Y-112152517D01*
X150024154Y-112146328D01*
X150037783Y-112141451D01*
X150051824Y-112137934D01*
X150066142Y-112135810D01*
X150080600Y-112135100D01*
X150375600Y-112135100D01*
X150390058Y-112135810D01*
X150390058Y-112135810D01*
G37*
D17*
G04 #@! TD*
G04 #@! TO.P,R7,2*
G04 #@! TO.N,VMCU*
X150228100Y-112455100D03*
D16*
G04 #@! TO.N,DBG_PB_3*
G04 #@! TO.C,R7*
G36*
X149420058Y-112135810D02*
X149434376Y-112137934D01*
X149448417Y-112141451D01*
X149462046Y-112146328D01*
X149475131Y-112152517D01*
X149487547Y-112159958D01*
X149499173Y-112168581D01*
X149509898Y-112178302D01*
X149519619Y-112189027D01*
X149528242Y-112200653D01*
X149535683Y-112213069D01*
X149541872Y-112226154D01*
X149546749Y-112239783D01*
X149550266Y-112253824D01*
X149552390Y-112268142D01*
X149553100Y-112282600D01*
X149553100Y-112627600D01*
X149552390Y-112642058D01*
X149550266Y-112656376D01*
X149546749Y-112670417D01*
X149541872Y-112684046D01*
X149535683Y-112697131D01*
X149528242Y-112709547D01*
X149519619Y-112721173D01*
X149509898Y-112731898D01*
X149499173Y-112741619D01*
X149487547Y-112750242D01*
X149475131Y-112757683D01*
X149462046Y-112763872D01*
X149448417Y-112768749D01*
X149434376Y-112772266D01*
X149420058Y-112774390D01*
X149405600Y-112775100D01*
X149110600Y-112775100D01*
X149096142Y-112774390D01*
X149081824Y-112772266D01*
X149067783Y-112768749D01*
X149054154Y-112763872D01*
X149041069Y-112757683D01*
X149028653Y-112750242D01*
X149017027Y-112741619D01*
X149006302Y-112731898D01*
X148996581Y-112721173D01*
X148987958Y-112709547D01*
X148980517Y-112697131D01*
X148974328Y-112684046D01*
X148969451Y-112670417D01*
X148965934Y-112656376D01*
X148963810Y-112642058D01*
X148963100Y-112627600D01*
X148963100Y-112282600D01*
X148963810Y-112268142D01*
X148965934Y-112253824D01*
X148969451Y-112239783D01*
X148974328Y-112226154D01*
X148980517Y-112213069D01*
X148987958Y-112200653D01*
X148996581Y-112189027D01*
X149006302Y-112178302D01*
X149017027Y-112168581D01*
X149028653Y-112159958D01*
X149041069Y-112152517D01*
X149054154Y-112146328D01*
X149067783Y-112141451D01*
X149081824Y-112137934D01*
X149096142Y-112135810D01*
X149110600Y-112135100D01*
X149405600Y-112135100D01*
X149420058Y-112135810D01*
X149420058Y-112135810D01*
G37*
D17*
G04 #@! TD*
G04 #@! TO.P,R7,1*
G04 #@! TO.N,DBG_PB_3*
X149258100Y-112455100D03*
D16*
G04 #@! TO.N,Net-(D1-Pad2)*
G04 #@! TO.C,R8*
G36*
X113940443Y-122123525D02*
X113954761Y-122125649D01*
X113968802Y-122129166D01*
X113982431Y-122134043D01*
X113995516Y-122140232D01*
X114007932Y-122147673D01*
X114019558Y-122156296D01*
X114030283Y-122166017D01*
X114040004Y-122176742D01*
X114048627Y-122188368D01*
X114056068Y-122200784D01*
X114062257Y-122213869D01*
X114067134Y-122227498D01*
X114070651Y-122241539D01*
X114072775Y-122255857D01*
X114073485Y-122270315D01*
X114073485Y-122565315D01*
X114072775Y-122579773D01*
X114070651Y-122594091D01*
X114067134Y-122608132D01*
X114062257Y-122621761D01*
X114056068Y-122634846D01*
X114048627Y-122647262D01*
X114040004Y-122658888D01*
X114030283Y-122669613D01*
X114019558Y-122679334D01*
X114007932Y-122687957D01*
X113995516Y-122695398D01*
X113982431Y-122701587D01*
X113968802Y-122706464D01*
X113954761Y-122709981D01*
X113940443Y-122712105D01*
X113925985Y-122712815D01*
X113580985Y-122712815D01*
X113566527Y-122712105D01*
X113552209Y-122709981D01*
X113538168Y-122706464D01*
X113524539Y-122701587D01*
X113511454Y-122695398D01*
X113499038Y-122687957D01*
X113487412Y-122679334D01*
X113476687Y-122669613D01*
X113466966Y-122658888D01*
X113458343Y-122647262D01*
X113450902Y-122634846D01*
X113444713Y-122621761D01*
X113439836Y-122608132D01*
X113436319Y-122594091D01*
X113434195Y-122579773D01*
X113433485Y-122565315D01*
X113433485Y-122270315D01*
X113434195Y-122255857D01*
X113436319Y-122241539D01*
X113439836Y-122227498D01*
X113444713Y-122213869D01*
X113450902Y-122200784D01*
X113458343Y-122188368D01*
X113466966Y-122176742D01*
X113476687Y-122166017D01*
X113487412Y-122156296D01*
X113499038Y-122147673D01*
X113511454Y-122140232D01*
X113524539Y-122134043D01*
X113538168Y-122129166D01*
X113552209Y-122125649D01*
X113566527Y-122123525D01*
X113580985Y-122122815D01*
X113925985Y-122122815D01*
X113940443Y-122123525D01*
X113940443Y-122123525D01*
G37*
D17*
G04 #@! TD*
G04 #@! TO.P,R8,2*
G04 #@! TO.N,Net-(D1-Pad2)*
X113753485Y-122417815D03*
D16*
G04 #@! TO.N,DBG_LED_1*
G04 #@! TO.C,R8*
G36*
X113940443Y-123093525D02*
X113954761Y-123095649D01*
X113968802Y-123099166D01*
X113982431Y-123104043D01*
X113995516Y-123110232D01*
X114007932Y-123117673D01*
X114019558Y-123126296D01*
X114030283Y-123136017D01*
X114040004Y-123146742D01*
X114048627Y-123158368D01*
X114056068Y-123170784D01*
X114062257Y-123183869D01*
X114067134Y-123197498D01*
X114070651Y-123211539D01*
X114072775Y-123225857D01*
X114073485Y-123240315D01*
X114073485Y-123535315D01*
X114072775Y-123549773D01*
X114070651Y-123564091D01*
X114067134Y-123578132D01*
X114062257Y-123591761D01*
X114056068Y-123604846D01*
X114048627Y-123617262D01*
X114040004Y-123628888D01*
X114030283Y-123639613D01*
X114019558Y-123649334D01*
X114007932Y-123657957D01*
X113995516Y-123665398D01*
X113982431Y-123671587D01*
X113968802Y-123676464D01*
X113954761Y-123679981D01*
X113940443Y-123682105D01*
X113925985Y-123682815D01*
X113580985Y-123682815D01*
X113566527Y-123682105D01*
X113552209Y-123679981D01*
X113538168Y-123676464D01*
X113524539Y-123671587D01*
X113511454Y-123665398D01*
X113499038Y-123657957D01*
X113487412Y-123649334D01*
X113476687Y-123639613D01*
X113466966Y-123628888D01*
X113458343Y-123617262D01*
X113450902Y-123604846D01*
X113444713Y-123591761D01*
X113439836Y-123578132D01*
X113436319Y-123564091D01*
X113434195Y-123549773D01*
X113433485Y-123535315D01*
X113433485Y-123240315D01*
X113434195Y-123225857D01*
X113436319Y-123211539D01*
X113439836Y-123197498D01*
X113444713Y-123183869D01*
X113450902Y-123170784D01*
X113458343Y-123158368D01*
X113466966Y-123146742D01*
X113476687Y-123136017D01*
X113487412Y-123126296D01*
X113499038Y-123117673D01*
X113511454Y-123110232D01*
X113524539Y-123104043D01*
X113538168Y-123099166D01*
X113552209Y-123095649D01*
X113566527Y-123093525D01*
X113580985Y-123092815D01*
X113925985Y-123092815D01*
X113940443Y-123093525D01*
X113940443Y-123093525D01*
G37*
D17*
G04 #@! TD*
G04 #@! TO.P,R8,1*
G04 #@! TO.N,DBG_LED_1*
X113753485Y-123387815D03*
D16*
G04 #@! TO.N,Net-(D2-Pad2)*
G04 #@! TO.C,R9*
G36*
X112931058Y-122177810D02*
X112945376Y-122179934D01*
X112959417Y-122183451D01*
X112973046Y-122188328D01*
X112986131Y-122194517D01*
X112998547Y-122201958D01*
X113010173Y-122210581D01*
X113020898Y-122220302D01*
X113030619Y-122231027D01*
X113039242Y-122242653D01*
X113046683Y-122255069D01*
X113052872Y-122268154D01*
X113057749Y-122281783D01*
X113061266Y-122295824D01*
X113063390Y-122310142D01*
X113064100Y-122324600D01*
X113064100Y-122619600D01*
X113063390Y-122634058D01*
X113061266Y-122648376D01*
X113057749Y-122662417D01*
X113052872Y-122676046D01*
X113046683Y-122689131D01*
X113039242Y-122701547D01*
X113030619Y-122713173D01*
X113020898Y-122723898D01*
X113010173Y-122733619D01*
X112998547Y-122742242D01*
X112986131Y-122749683D01*
X112973046Y-122755872D01*
X112959417Y-122760749D01*
X112945376Y-122764266D01*
X112931058Y-122766390D01*
X112916600Y-122767100D01*
X112571600Y-122767100D01*
X112557142Y-122766390D01*
X112542824Y-122764266D01*
X112528783Y-122760749D01*
X112515154Y-122755872D01*
X112502069Y-122749683D01*
X112489653Y-122742242D01*
X112478027Y-122733619D01*
X112467302Y-122723898D01*
X112457581Y-122713173D01*
X112448958Y-122701547D01*
X112441517Y-122689131D01*
X112435328Y-122676046D01*
X112430451Y-122662417D01*
X112426934Y-122648376D01*
X112424810Y-122634058D01*
X112424100Y-122619600D01*
X112424100Y-122324600D01*
X112424810Y-122310142D01*
X112426934Y-122295824D01*
X112430451Y-122281783D01*
X112435328Y-122268154D01*
X112441517Y-122255069D01*
X112448958Y-122242653D01*
X112457581Y-122231027D01*
X112467302Y-122220302D01*
X112478027Y-122210581D01*
X112489653Y-122201958D01*
X112502069Y-122194517D01*
X112515154Y-122188328D01*
X112528783Y-122183451D01*
X112542824Y-122179934D01*
X112557142Y-122177810D01*
X112571600Y-122177100D01*
X112916600Y-122177100D01*
X112931058Y-122177810D01*
X112931058Y-122177810D01*
G37*
D17*
G04 #@! TD*
G04 #@! TO.P,R9,2*
G04 #@! TO.N,Net-(D2-Pad2)*
X112744100Y-122472100D03*
D16*
G04 #@! TO.N,DBG_LED_2*
G04 #@! TO.C,R9*
G36*
X112931058Y-123147810D02*
X112945376Y-123149934D01*
X112959417Y-123153451D01*
X112973046Y-123158328D01*
X112986131Y-123164517D01*
X112998547Y-123171958D01*
X113010173Y-123180581D01*
X113020898Y-123190302D01*
X113030619Y-123201027D01*
X113039242Y-123212653D01*
X113046683Y-123225069D01*
X113052872Y-123238154D01*
X113057749Y-123251783D01*
X113061266Y-123265824D01*
X113063390Y-123280142D01*
X113064100Y-123294600D01*
X113064100Y-123589600D01*
X113063390Y-123604058D01*
X113061266Y-123618376D01*
X113057749Y-123632417D01*
X113052872Y-123646046D01*
X113046683Y-123659131D01*
X113039242Y-123671547D01*
X113030619Y-123683173D01*
X113020898Y-123693898D01*
X113010173Y-123703619D01*
X112998547Y-123712242D01*
X112986131Y-123719683D01*
X112973046Y-123725872D01*
X112959417Y-123730749D01*
X112945376Y-123734266D01*
X112931058Y-123736390D01*
X112916600Y-123737100D01*
X112571600Y-123737100D01*
X112557142Y-123736390D01*
X112542824Y-123734266D01*
X112528783Y-123730749D01*
X112515154Y-123725872D01*
X112502069Y-123719683D01*
X112489653Y-123712242D01*
X112478027Y-123703619D01*
X112467302Y-123693898D01*
X112457581Y-123683173D01*
X112448958Y-123671547D01*
X112441517Y-123659131D01*
X112435328Y-123646046D01*
X112430451Y-123632417D01*
X112426934Y-123618376D01*
X112424810Y-123604058D01*
X112424100Y-123589600D01*
X112424100Y-123294600D01*
X112424810Y-123280142D01*
X112426934Y-123265824D01*
X112430451Y-123251783D01*
X112435328Y-123238154D01*
X112441517Y-123225069D01*
X112448958Y-123212653D01*
X112457581Y-123201027D01*
X112467302Y-123190302D01*
X112478027Y-123180581D01*
X112489653Y-123171958D01*
X112502069Y-123164517D01*
X112515154Y-123158328D01*
X112528783Y-123153451D01*
X112542824Y-123149934D01*
X112557142Y-123147810D01*
X112571600Y-123147100D01*
X112916600Y-123147100D01*
X112931058Y-123147810D01*
X112931058Y-123147810D01*
G37*
D17*
G04 #@! TD*
G04 #@! TO.P,R9,1*
G04 #@! TO.N,DBG_LED_2*
X112744100Y-123442100D03*
D16*
G04 #@! TO.N,Net-(R11-Pad2)*
G04 #@! TO.C,R11*
G36*
X152630058Y-144901810D02*
X152644376Y-144903934D01*
X152658417Y-144907451D01*
X152672046Y-144912328D01*
X152685131Y-144918517D01*
X152697547Y-144925958D01*
X152709173Y-144934581D01*
X152719898Y-144944302D01*
X152729619Y-144955027D01*
X152738242Y-144966653D01*
X152745683Y-144979069D01*
X152751872Y-144992154D01*
X152756749Y-145005783D01*
X152760266Y-145019824D01*
X152762390Y-145034142D01*
X152763100Y-145048600D01*
X152763100Y-145393600D01*
X152762390Y-145408058D01*
X152760266Y-145422376D01*
X152756749Y-145436417D01*
X152751872Y-145450046D01*
X152745683Y-145463131D01*
X152738242Y-145475547D01*
X152729619Y-145487173D01*
X152719898Y-145497898D01*
X152709173Y-145507619D01*
X152697547Y-145516242D01*
X152685131Y-145523683D01*
X152672046Y-145529872D01*
X152658417Y-145534749D01*
X152644376Y-145538266D01*
X152630058Y-145540390D01*
X152615600Y-145541100D01*
X152320600Y-145541100D01*
X152306142Y-145540390D01*
X152291824Y-145538266D01*
X152277783Y-145534749D01*
X152264154Y-145529872D01*
X152251069Y-145523683D01*
X152238653Y-145516242D01*
X152227027Y-145507619D01*
X152216302Y-145497898D01*
X152206581Y-145487173D01*
X152197958Y-145475547D01*
X152190517Y-145463131D01*
X152184328Y-145450046D01*
X152179451Y-145436417D01*
X152175934Y-145422376D01*
X152173810Y-145408058D01*
X152173100Y-145393600D01*
X152173100Y-145048600D01*
X152173810Y-145034142D01*
X152175934Y-145019824D01*
X152179451Y-145005783D01*
X152184328Y-144992154D01*
X152190517Y-144979069D01*
X152197958Y-144966653D01*
X152206581Y-144955027D01*
X152216302Y-144944302D01*
X152227027Y-144934581D01*
X152238653Y-144925958D01*
X152251069Y-144918517D01*
X152264154Y-144912328D01*
X152277783Y-144907451D01*
X152291824Y-144903934D01*
X152306142Y-144901810D01*
X152320600Y-144901100D01*
X152615600Y-144901100D01*
X152630058Y-144901810D01*
X152630058Y-144901810D01*
G37*
D17*
G04 #@! TD*
G04 #@! TO.P,R11,2*
G04 #@! TO.N,Net-(R11-Pad2)*
X152468100Y-145221100D03*
D16*
G04 #@! TO.N,GND*
G04 #@! TO.C,R11*
G36*
X151660058Y-144901810D02*
X151674376Y-144903934D01*
X151688417Y-144907451D01*
X151702046Y-144912328D01*
X151715131Y-144918517D01*
X151727547Y-144925958D01*
X151739173Y-144934581D01*
X151749898Y-144944302D01*
X151759619Y-144955027D01*
X151768242Y-144966653D01*
X151775683Y-144979069D01*
X151781872Y-144992154D01*
X151786749Y-145005783D01*
X151790266Y-145019824D01*
X151792390Y-145034142D01*
X151793100Y-145048600D01*
X151793100Y-145393600D01*
X151792390Y-145408058D01*
X151790266Y-145422376D01*
X151786749Y-145436417D01*
X151781872Y-145450046D01*
X151775683Y-145463131D01*
X151768242Y-145475547D01*
X151759619Y-145487173D01*
X151749898Y-145497898D01*
X151739173Y-145507619D01*
X151727547Y-145516242D01*
X151715131Y-145523683D01*
X151702046Y-145529872D01*
X151688417Y-145534749D01*
X151674376Y-145538266D01*
X151660058Y-145540390D01*
X151645600Y-145541100D01*
X151350600Y-145541100D01*
X151336142Y-145540390D01*
X151321824Y-145538266D01*
X151307783Y-145534749D01*
X151294154Y-145529872D01*
X151281069Y-145523683D01*
X151268653Y-145516242D01*
X151257027Y-145507619D01*
X151246302Y-145497898D01*
X151236581Y-145487173D01*
X151227958Y-145475547D01*
X151220517Y-145463131D01*
X151214328Y-145450046D01*
X151209451Y-145436417D01*
X151205934Y-145422376D01*
X151203810Y-145408058D01*
X151203100Y-145393600D01*
X151203100Y-145048600D01*
X151203810Y-145034142D01*
X151205934Y-145019824D01*
X151209451Y-145005783D01*
X151214328Y-144992154D01*
X151220517Y-144979069D01*
X151227958Y-144966653D01*
X151236581Y-144955027D01*
X151246302Y-144944302D01*
X151257027Y-144934581D01*
X151268653Y-144925958D01*
X151281069Y-144918517D01*
X151294154Y-144912328D01*
X151307783Y-144907451D01*
X151321824Y-144903934D01*
X151336142Y-144901810D01*
X151350600Y-144901100D01*
X151645600Y-144901100D01*
X151660058Y-144901810D01*
X151660058Y-144901810D01*
G37*
D17*
G04 #@! TD*
G04 #@! TO.P,R11,1*
G04 #@! TO.N,GND*
X151498100Y-145221100D03*
D16*
G04 #@! TO.N,Net-(R12-Pad2)*
G04 #@! TO.C,R12*
G36*
X152630058Y-128645810D02*
X152644376Y-128647934D01*
X152658417Y-128651451D01*
X152672046Y-128656328D01*
X152685131Y-128662517D01*
X152697547Y-128669958D01*
X152709173Y-128678581D01*
X152719898Y-128688302D01*
X152729619Y-128699027D01*
X152738242Y-128710653D01*
X152745683Y-128723069D01*
X152751872Y-128736154D01*
X152756749Y-128749783D01*
X152760266Y-128763824D01*
X152762390Y-128778142D01*
X152763100Y-128792600D01*
X152763100Y-129137600D01*
X152762390Y-129152058D01*
X152760266Y-129166376D01*
X152756749Y-129180417D01*
X152751872Y-129194046D01*
X152745683Y-129207131D01*
X152738242Y-129219547D01*
X152729619Y-129231173D01*
X152719898Y-129241898D01*
X152709173Y-129251619D01*
X152697547Y-129260242D01*
X152685131Y-129267683D01*
X152672046Y-129273872D01*
X152658417Y-129278749D01*
X152644376Y-129282266D01*
X152630058Y-129284390D01*
X152615600Y-129285100D01*
X152320600Y-129285100D01*
X152306142Y-129284390D01*
X152291824Y-129282266D01*
X152277783Y-129278749D01*
X152264154Y-129273872D01*
X152251069Y-129267683D01*
X152238653Y-129260242D01*
X152227027Y-129251619D01*
X152216302Y-129241898D01*
X152206581Y-129231173D01*
X152197958Y-129219547D01*
X152190517Y-129207131D01*
X152184328Y-129194046D01*
X152179451Y-129180417D01*
X152175934Y-129166376D01*
X152173810Y-129152058D01*
X152173100Y-129137600D01*
X152173100Y-128792600D01*
X152173810Y-128778142D01*
X152175934Y-128763824D01*
X152179451Y-128749783D01*
X152184328Y-128736154D01*
X152190517Y-128723069D01*
X152197958Y-128710653D01*
X152206581Y-128699027D01*
X152216302Y-128688302D01*
X152227027Y-128678581D01*
X152238653Y-128669958D01*
X152251069Y-128662517D01*
X152264154Y-128656328D01*
X152277783Y-128651451D01*
X152291824Y-128647934D01*
X152306142Y-128645810D01*
X152320600Y-128645100D01*
X152615600Y-128645100D01*
X152630058Y-128645810D01*
X152630058Y-128645810D01*
G37*
D17*
G04 #@! TD*
G04 #@! TO.P,R12,2*
G04 #@! TO.N,Net-(R12-Pad2)*
X152468100Y-128965100D03*
D16*
G04 #@! TO.N,GND*
G04 #@! TO.C,R12*
G36*
X151660058Y-128645810D02*
X151674376Y-128647934D01*
X151688417Y-128651451D01*
X151702046Y-128656328D01*
X151715131Y-128662517D01*
X151727547Y-128669958D01*
X151739173Y-128678581D01*
X151749898Y-128688302D01*
X151759619Y-128699027D01*
X151768242Y-128710653D01*
X151775683Y-128723069D01*
X151781872Y-128736154D01*
X151786749Y-128749783D01*
X151790266Y-128763824D01*
X151792390Y-128778142D01*
X151793100Y-128792600D01*
X151793100Y-129137600D01*
X151792390Y-129152058D01*
X151790266Y-129166376D01*
X151786749Y-129180417D01*
X151781872Y-129194046D01*
X151775683Y-129207131D01*
X151768242Y-129219547D01*
X151759619Y-129231173D01*
X151749898Y-129241898D01*
X151739173Y-129251619D01*
X151727547Y-129260242D01*
X151715131Y-129267683D01*
X151702046Y-129273872D01*
X151688417Y-129278749D01*
X151674376Y-129282266D01*
X151660058Y-129284390D01*
X151645600Y-129285100D01*
X151350600Y-129285100D01*
X151336142Y-129284390D01*
X151321824Y-129282266D01*
X151307783Y-129278749D01*
X151294154Y-129273872D01*
X151281069Y-129267683D01*
X151268653Y-129260242D01*
X151257027Y-129251619D01*
X151246302Y-129241898D01*
X151236581Y-129231173D01*
X151227958Y-129219547D01*
X151220517Y-129207131D01*
X151214328Y-129194046D01*
X151209451Y-129180417D01*
X151205934Y-129166376D01*
X151203810Y-129152058D01*
X151203100Y-129137600D01*
X151203100Y-128792600D01*
X151203810Y-128778142D01*
X151205934Y-128763824D01*
X151209451Y-128749783D01*
X151214328Y-128736154D01*
X151220517Y-128723069D01*
X151227958Y-128710653D01*
X151236581Y-128699027D01*
X151246302Y-128688302D01*
X151257027Y-128678581D01*
X151268653Y-128669958D01*
X151281069Y-128662517D01*
X151294154Y-128656328D01*
X151307783Y-128651451D01*
X151321824Y-128647934D01*
X151336142Y-128645810D01*
X151350600Y-128645100D01*
X151645600Y-128645100D01*
X151660058Y-128645810D01*
X151660058Y-128645810D01*
G37*
D17*
G04 #@! TD*
G04 #@! TO.P,R12,1*
G04 #@! TO.N,GND*
X151498100Y-128965100D03*
D16*
G04 #@! TO.N,Net-(R13-Pad2)*
G04 #@! TO.C,R13*
G36*
X152630058Y-112135810D02*
X152644376Y-112137934D01*
X152658417Y-112141451D01*
X152672046Y-112146328D01*
X152685131Y-112152517D01*
X152697547Y-112159958D01*
X152709173Y-112168581D01*
X152719898Y-112178302D01*
X152729619Y-112189027D01*
X152738242Y-112200653D01*
X152745683Y-112213069D01*
X152751872Y-112226154D01*
X152756749Y-112239783D01*
X152760266Y-112253824D01*
X152762390Y-112268142D01*
X152763100Y-112282600D01*
X152763100Y-112627600D01*
X152762390Y-112642058D01*
X152760266Y-112656376D01*
X152756749Y-112670417D01*
X152751872Y-112684046D01*
X152745683Y-112697131D01*
X152738242Y-112709547D01*
X152729619Y-112721173D01*
X152719898Y-112731898D01*
X152709173Y-112741619D01*
X152697547Y-112750242D01*
X152685131Y-112757683D01*
X152672046Y-112763872D01*
X152658417Y-112768749D01*
X152644376Y-112772266D01*
X152630058Y-112774390D01*
X152615600Y-112775100D01*
X152320600Y-112775100D01*
X152306142Y-112774390D01*
X152291824Y-112772266D01*
X152277783Y-112768749D01*
X152264154Y-112763872D01*
X152251069Y-112757683D01*
X152238653Y-112750242D01*
X152227027Y-112741619D01*
X152216302Y-112731898D01*
X152206581Y-112721173D01*
X152197958Y-112709547D01*
X152190517Y-112697131D01*
X152184328Y-112684046D01*
X152179451Y-112670417D01*
X152175934Y-112656376D01*
X152173810Y-112642058D01*
X152173100Y-112627600D01*
X152173100Y-112282600D01*
X152173810Y-112268142D01*
X152175934Y-112253824D01*
X152179451Y-112239783D01*
X152184328Y-112226154D01*
X152190517Y-112213069D01*
X152197958Y-112200653D01*
X152206581Y-112189027D01*
X152216302Y-112178302D01*
X152227027Y-112168581D01*
X152238653Y-112159958D01*
X152251069Y-112152517D01*
X152264154Y-112146328D01*
X152277783Y-112141451D01*
X152291824Y-112137934D01*
X152306142Y-112135810D01*
X152320600Y-112135100D01*
X152615600Y-112135100D01*
X152630058Y-112135810D01*
X152630058Y-112135810D01*
G37*
D17*
G04 #@! TD*
G04 #@! TO.P,R13,2*
G04 #@! TO.N,Net-(R13-Pad2)*
X152468100Y-112455100D03*
D16*
G04 #@! TO.N,GND*
G04 #@! TO.C,R13*
G36*
X151660058Y-112135810D02*
X151674376Y-112137934D01*
X151688417Y-112141451D01*
X151702046Y-112146328D01*
X151715131Y-112152517D01*
X151727547Y-112159958D01*
X151739173Y-112168581D01*
X151749898Y-112178302D01*
X151759619Y-112189027D01*
X151768242Y-112200653D01*
X151775683Y-112213069D01*
X151781872Y-112226154D01*
X151786749Y-112239783D01*
X151790266Y-112253824D01*
X151792390Y-112268142D01*
X151793100Y-112282600D01*
X151793100Y-112627600D01*
X151792390Y-112642058D01*
X151790266Y-112656376D01*
X151786749Y-112670417D01*
X151781872Y-112684046D01*
X151775683Y-112697131D01*
X151768242Y-112709547D01*
X151759619Y-112721173D01*
X151749898Y-112731898D01*
X151739173Y-112741619D01*
X151727547Y-112750242D01*
X151715131Y-112757683D01*
X151702046Y-112763872D01*
X151688417Y-112768749D01*
X151674376Y-112772266D01*
X151660058Y-112774390D01*
X151645600Y-112775100D01*
X151350600Y-112775100D01*
X151336142Y-112774390D01*
X151321824Y-112772266D01*
X151307783Y-112768749D01*
X151294154Y-112763872D01*
X151281069Y-112757683D01*
X151268653Y-112750242D01*
X151257027Y-112741619D01*
X151246302Y-112731898D01*
X151236581Y-112721173D01*
X151227958Y-112709547D01*
X151220517Y-112697131D01*
X151214328Y-112684046D01*
X151209451Y-112670417D01*
X151205934Y-112656376D01*
X151203810Y-112642058D01*
X151203100Y-112627600D01*
X151203100Y-112282600D01*
X151203810Y-112268142D01*
X151205934Y-112253824D01*
X151209451Y-112239783D01*
X151214328Y-112226154D01*
X151220517Y-112213069D01*
X151227958Y-112200653D01*
X151236581Y-112189027D01*
X151246302Y-112178302D01*
X151257027Y-112168581D01*
X151268653Y-112159958D01*
X151281069Y-112152517D01*
X151294154Y-112146328D01*
X151307783Y-112141451D01*
X151321824Y-112137934D01*
X151336142Y-112135810D01*
X151350600Y-112135100D01*
X151645600Y-112135100D01*
X151660058Y-112135810D01*
X151660058Y-112135810D01*
G37*
D17*
G04 #@! TD*
G04 #@! TO.P,R13,1*
G04 #@! TO.N,GND*
X151498100Y-112455100D03*
D16*
G04 #@! TO.N,DEBUG_EXT_CABLE_ATTACH*
G04 #@! TO.C,R16*
G36*
X139273558Y-119797210D02*
X139287876Y-119799334D01*
X139301917Y-119802851D01*
X139315546Y-119807728D01*
X139328631Y-119813917D01*
X139341047Y-119821358D01*
X139352673Y-119829981D01*
X139363398Y-119839702D01*
X139373119Y-119850427D01*
X139381742Y-119862053D01*
X139389183Y-119874469D01*
X139395372Y-119887554D01*
X139400249Y-119901183D01*
X139403766Y-119915224D01*
X139405890Y-119929542D01*
X139406600Y-119944000D01*
X139406600Y-120289000D01*
X139405890Y-120303458D01*
X139403766Y-120317776D01*
X139400249Y-120331817D01*
X139395372Y-120345446D01*
X139389183Y-120358531D01*
X139381742Y-120370947D01*
X139373119Y-120382573D01*
X139363398Y-120393298D01*
X139352673Y-120403019D01*
X139341047Y-120411642D01*
X139328631Y-120419083D01*
X139315546Y-120425272D01*
X139301917Y-120430149D01*
X139287876Y-120433666D01*
X139273558Y-120435790D01*
X139259100Y-120436500D01*
X138964100Y-120436500D01*
X138949642Y-120435790D01*
X138935324Y-120433666D01*
X138921283Y-120430149D01*
X138907654Y-120425272D01*
X138894569Y-120419083D01*
X138882153Y-120411642D01*
X138870527Y-120403019D01*
X138859802Y-120393298D01*
X138850081Y-120382573D01*
X138841458Y-120370947D01*
X138834017Y-120358531D01*
X138827828Y-120345446D01*
X138822951Y-120331817D01*
X138819434Y-120317776D01*
X138817310Y-120303458D01*
X138816600Y-120289000D01*
X138816600Y-119944000D01*
X138817310Y-119929542D01*
X138819434Y-119915224D01*
X138822951Y-119901183D01*
X138827828Y-119887554D01*
X138834017Y-119874469D01*
X138841458Y-119862053D01*
X138850081Y-119850427D01*
X138859802Y-119839702D01*
X138870527Y-119829981D01*
X138882153Y-119821358D01*
X138894569Y-119813917D01*
X138907654Y-119807728D01*
X138921283Y-119802851D01*
X138935324Y-119799334D01*
X138949642Y-119797210D01*
X138964100Y-119796500D01*
X139259100Y-119796500D01*
X139273558Y-119797210D01*
X139273558Y-119797210D01*
G37*
D17*
G04 #@! TD*
G04 #@! TO.P,R16,2*
G04 #@! TO.N,DEBUG_EXT_CABLE_ATTACH*
X139111600Y-120116500D03*
D16*
G04 #@! TO.N,VMCU*
G04 #@! TO.C,R16*
G36*
X138303558Y-119797210D02*
X138317876Y-119799334D01*
X138331917Y-119802851D01*
X138345546Y-119807728D01*
X138358631Y-119813917D01*
X138371047Y-119821358D01*
X138382673Y-119829981D01*
X138393398Y-119839702D01*
X138403119Y-119850427D01*
X138411742Y-119862053D01*
X138419183Y-119874469D01*
X138425372Y-119887554D01*
X138430249Y-119901183D01*
X138433766Y-119915224D01*
X138435890Y-119929542D01*
X138436600Y-119944000D01*
X138436600Y-120289000D01*
X138435890Y-120303458D01*
X138433766Y-120317776D01*
X138430249Y-120331817D01*
X138425372Y-120345446D01*
X138419183Y-120358531D01*
X138411742Y-120370947D01*
X138403119Y-120382573D01*
X138393398Y-120393298D01*
X138382673Y-120403019D01*
X138371047Y-120411642D01*
X138358631Y-120419083D01*
X138345546Y-120425272D01*
X138331917Y-120430149D01*
X138317876Y-120433666D01*
X138303558Y-120435790D01*
X138289100Y-120436500D01*
X137994100Y-120436500D01*
X137979642Y-120435790D01*
X137965324Y-120433666D01*
X137951283Y-120430149D01*
X137937654Y-120425272D01*
X137924569Y-120419083D01*
X137912153Y-120411642D01*
X137900527Y-120403019D01*
X137889802Y-120393298D01*
X137880081Y-120382573D01*
X137871458Y-120370947D01*
X137864017Y-120358531D01*
X137857828Y-120345446D01*
X137852951Y-120331817D01*
X137849434Y-120317776D01*
X137847310Y-120303458D01*
X137846600Y-120289000D01*
X137846600Y-119944000D01*
X137847310Y-119929542D01*
X137849434Y-119915224D01*
X137852951Y-119901183D01*
X137857828Y-119887554D01*
X137864017Y-119874469D01*
X137871458Y-119862053D01*
X137880081Y-119850427D01*
X137889802Y-119839702D01*
X137900527Y-119829981D01*
X137912153Y-119821358D01*
X137924569Y-119813917D01*
X137937654Y-119807728D01*
X137951283Y-119802851D01*
X137965324Y-119799334D01*
X137979642Y-119797210D01*
X137994100Y-119796500D01*
X138289100Y-119796500D01*
X138303558Y-119797210D01*
X138303558Y-119797210D01*
G37*
D17*
G04 #@! TD*
G04 #@! TO.P,R16,1*
G04 #@! TO.N,VMCU*
X138141600Y-120116500D03*
D16*
G04 #@! TO.N,GND*
G04 #@! TO.C,R17*
G36*
X127912558Y-106589210D02*
X127926876Y-106591334D01*
X127940917Y-106594851D01*
X127954546Y-106599728D01*
X127967631Y-106605917D01*
X127980047Y-106613358D01*
X127991673Y-106621981D01*
X128002398Y-106631702D01*
X128012119Y-106642427D01*
X128020742Y-106654053D01*
X128028183Y-106666469D01*
X128034372Y-106679554D01*
X128039249Y-106693183D01*
X128042766Y-106707224D01*
X128044890Y-106721542D01*
X128045600Y-106736000D01*
X128045600Y-107081000D01*
X128044890Y-107095458D01*
X128042766Y-107109776D01*
X128039249Y-107123817D01*
X128034372Y-107137446D01*
X128028183Y-107150531D01*
X128020742Y-107162947D01*
X128012119Y-107174573D01*
X128002398Y-107185298D01*
X127991673Y-107195019D01*
X127980047Y-107203642D01*
X127967631Y-107211083D01*
X127954546Y-107217272D01*
X127940917Y-107222149D01*
X127926876Y-107225666D01*
X127912558Y-107227790D01*
X127898100Y-107228500D01*
X127603100Y-107228500D01*
X127588642Y-107227790D01*
X127574324Y-107225666D01*
X127560283Y-107222149D01*
X127546654Y-107217272D01*
X127533569Y-107211083D01*
X127521153Y-107203642D01*
X127509527Y-107195019D01*
X127498802Y-107185298D01*
X127489081Y-107174573D01*
X127480458Y-107162947D01*
X127473017Y-107150531D01*
X127466828Y-107137446D01*
X127461951Y-107123817D01*
X127458434Y-107109776D01*
X127456310Y-107095458D01*
X127455600Y-107081000D01*
X127455600Y-106736000D01*
X127456310Y-106721542D01*
X127458434Y-106707224D01*
X127461951Y-106693183D01*
X127466828Y-106679554D01*
X127473017Y-106666469D01*
X127480458Y-106654053D01*
X127489081Y-106642427D01*
X127498802Y-106631702D01*
X127509527Y-106621981D01*
X127521153Y-106613358D01*
X127533569Y-106605917D01*
X127546654Y-106599728D01*
X127560283Y-106594851D01*
X127574324Y-106591334D01*
X127588642Y-106589210D01*
X127603100Y-106588500D01*
X127898100Y-106588500D01*
X127912558Y-106589210D01*
X127912558Y-106589210D01*
G37*
D17*
G04 #@! TD*
G04 #@! TO.P,R17,2*
G04 #@! TO.N,GND*
X127750600Y-106908500D03*
D16*
G04 #@! TO.N,Net-(J2-Pad11)*
G04 #@! TO.C,R17*
G36*
X128882558Y-106589210D02*
X128896876Y-106591334D01*
X128910917Y-106594851D01*
X128924546Y-106599728D01*
X128937631Y-106605917D01*
X128950047Y-106613358D01*
X128961673Y-106621981D01*
X128972398Y-106631702D01*
X128982119Y-106642427D01*
X128990742Y-106654053D01*
X128998183Y-106666469D01*
X129004372Y-106679554D01*
X129009249Y-106693183D01*
X129012766Y-106707224D01*
X129014890Y-106721542D01*
X129015600Y-106736000D01*
X129015600Y-107081000D01*
X129014890Y-107095458D01*
X129012766Y-107109776D01*
X129009249Y-107123817D01*
X129004372Y-107137446D01*
X128998183Y-107150531D01*
X128990742Y-107162947D01*
X128982119Y-107174573D01*
X128972398Y-107185298D01*
X128961673Y-107195019D01*
X128950047Y-107203642D01*
X128937631Y-107211083D01*
X128924546Y-107217272D01*
X128910917Y-107222149D01*
X128896876Y-107225666D01*
X128882558Y-107227790D01*
X128868100Y-107228500D01*
X128573100Y-107228500D01*
X128558642Y-107227790D01*
X128544324Y-107225666D01*
X128530283Y-107222149D01*
X128516654Y-107217272D01*
X128503569Y-107211083D01*
X128491153Y-107203642D01*
X128479527Y-107195019D01*
X128468802Y-107185298D01*
X128459081Y-107174573D01*
X128450458Y-107162947D01*
X128443017Y-107150531D01*
X128436828Y-107137446D01*
X128431951Y-107123817D01*
X128428434Y-107109776D01*
X128426310Y-107095458D01*
X128425600Y-107081000D01*
X128425600Y-106736000D01*
X128426310Y-106721542D01*
X128428434Y-106707224D01*
X128431951Y-106693183D01*
X128436828Y-106679554D01*
X128443017Y-106666469D01*
X128450458Y-106654053D01*
X128459081Y-106642427D01*
X128468802Y-106631702D01*
X128479527Y-106621981D01*
X128491153Y-106613358D01*
X128503569Y-106605917D01*
X128516654Y-106599728D01*
X128530283Y-106594851D01*
X128544324Y-106591334D01*
X128558642Y-106589210D01*
X128573100Y-106588500D01*
X128868100Y-106588500D01*
X128882558Y-106589210D01*
X128882558Y-106589210D01*
G37*
D17*
G04 #@! TD*
G04 #@! TO.P,R17,1*
G04 #@! TO.N,Net-(J2-Pad11)*
X128720600Y-106908500D03*
D35*
G04 #@! TO.P,L1,2*
G04 #@! TO.N,Net-(C2-Pad2)*
X110178600Y-111648500D03*
G04 #@! TO.P,L1,1*
G04 #@! TO.N,/USB_5v*
X110178600Y-109448500D03*
G04 #@! TD*
D36*
G04 #@! TO.P,SW3,1*
G04 #@! TO.N,DBG_PB_1*
X148323100Y-158302100D03*
X148323100Y-148802100D03*
G04 #@! TO.P,SW3,2*
G04 #@! TO.N,Net-(R11-Pad2)*
X152823100Y-148802100D03*
X152823100Y-158302100D03*
G04 #@! TD*
G04 #@! TO.P,SW4,1*
G04 #@! TO.N,DBG_PB_2*
X148196100Y-141919100D03*
X148196100Y-132419100D03*
G04 #@! TO.P,SW4,2*
G04 #@! TO.N,Net-(R12-Pad2)*
X152696100Y-132419100D03*
X152696100Y-141919100D03*
G04 #@! TD*
G04 #@! TO.P,SW5,1*
G04 #@! TO.N,DBG_PB_3*
X148196100Y-125409100D03*
X148196100Y-115909100D03*
G04 #@! TO.P,SW5,2*
G04 #@! TO.N,Net-(R13-Pad2)*
X152696100Y-115909100D03*
X152696100Y-125409100D03*
G04 #@! TD*
D37*
G04 #@! TO.N,GND*
X114388485Y-139666815D03*
X115150485Y-127728815D03*
X107225685Y-131284815D03*
X114769485Y-120743815D03*
X151326600Y-146532500D03*
X144722600Y-146024500D03*
X145738600Y-127736500D03*
X137610600Y-132308500D03*
X122370600Y-140944500D03*
X108146600Y-121132500D03*
X126587000Y-121974301D03*
X134435600Y-122300900D03*
G04 #@! TO.N,DH_#RESET*
X133279900Y-120967400D03*
X123386600Y-137642500D03*
G04 #@! TO.N,/AVDDU7*
X119148585Y-131696295D03*
X119153104Y-129389667D03*
G04 #@! TO.N,DH_TMS_SWDIO*
X101288600Y-128148099D03*
X115258600Y-115798500D03*
G04 #@! TO.N,DH_TCK_SWCLK*
X115258600Y-116814500D03*
X101855168Y-127448811D03*
G04 #@! TO.N,DH_TDO_SWO*
X115258600Y-117830500D03*
X103320600Y-128775099D03*
G04 #@! TO.N,DEBUG_EXT_CABLE_ATTACH*
X139134600Y-121132500D03*
X112718600Y-142976500D03*
G04 #@! TO.N,/US0_TX*
X109035700Y-127482500D03*
X101364900Y-121284900D03*
G04 #@! TO.N,/US0_RX*
X108437017Y-128232969D03*
X101415700Y-122554900D03*
X98316900Y-122554900D03*
G04 #@! TO.N,/US0_CLK*
X107619169Y-128859969D03*
X101415700Y-123672500D03*
X98367700Y-123672500D03*
G04 #@! TO.N,VMCU*
X116252099Y-127728815D03*
X115404485Y-139666815D03*
X110781685Y-139463615D03*
X107276485Y-130167215D03*
X119214485Y-136999815D03*
X118960485Y-130268815D03*
X111505585Y-133395315D03*
X125418600Y-142468500D03*
X150228100Y-143611500D03*
X132530600Y-117576500D03*
X136594600Y-117576500D03*
X124910600Y-117576500D03*
X121100600Y-125450500D03*
X128403100Y-117576500D03*
G04 #@! TO.N,GND*
X125037700Y-125617304D03*
X128593700Y-125617304D03*
X126815700Y-125617304D03*
X144595700Y-152628500D03*
X92779700Y-110337500D03*
X97351700Y-110718500D03*
X89731700Y-107162500D03*
G04 #@! TO.N,VMCU*
X100145700Y-110337500D03*
X125291700Y-145770500D03*
X129630700Y-155533500D03*
X136086700Y-155549500D03*
X141166700Y-155549500D03*
G04 #@! TD*
D38*
G04 #@! TO.N,GND*
X114752100Y-141141100D02*
X114752100Y-140030430D01*
X114752100Y-140030430D02*
X114388485Y-139666815D01*
X115752100Y-125901100D02*
X115752100Y-127127200D01*
X115752100Y-127127200D02*
X115150485Y-127728815D01*
X105632100Y-131021100D02*
X106961970Y-131021100D01*
X106961970Y-131021100D02*
X107225685Y-131284815D01*
X115752100Y-125120700D02*
X115752100Y-125901100D01*
X116826985Y-124045815D02*
X115752100Y-125120700D01*
X113753485Y-120804815D02*
X114708485Y-120804815D01*
X114708485Y-120804815D02*
X114769485Y-120743815D01*
D39*
X151498100Y-120058602D02*
X151498100Y-112455100D01*
X151498100Y-145221100D02*
X151498100Y-125704500D01*
X151498100Y-128965100D02*
X151498100Y-125704500D01*
X151498100Y-125704500D02*
X151498100Y-120058602D01*
X151498100Y-145221100D02*
X151498100Y-146361000D01*
X151498100Y-146361000D02*
X151326600Y-146532500D01*
X145702100Y-145475100D02*
X145272000Y-145475100D01*
X145272000Y-145475100D02*
X144722600Y-146024500D01*
X145679100Y-129219100D02*
X145679100Y-127796000D01*
X145679100Y-127796000D02*
X145738600Y-127736500D01*
X136086600Y-132308500D02*
X137610600Y-132308500D01*
X116826985Y-122801315D02*
X114769485Y-120743815D01*
X116826985Y-124045815D02*
X116826985Y-122801315D01*
D40*
X123386600Y-140898500D02*
X122416600Y-140898500D01*
X122416600Y-140898500D02*
X122370600Y-140944500D01*
D39*
X151498100Y-110659000D02*
X150795600Y-109956500D01*
X151498100Y-112455100D02*
X151498100Y-110659000D01*
D38*
X126942600Y-107716500D02*
X127750600Y-106908500D01*
X126942600Y-111480500D02*
X126942600Y-107716500D01*
D39*
X103893600Y-104523500D02*
X104163600Y-104253500D01*
X102393600Y-104523500D02*
X103893600Y-104523500D01*
X107583600Y-104253500D02*
X107853600Y-104523500D01*
X106083600Y-104253500D02*
X107583600Y-104253500D01*
X107543600Y-106733500D02*
X108073600Y-106203500D01*
X107543600Y-107523500D02*
X107543600Y-106733500D01*
X102703600Y-106783500D02*
X102123600Y-106203500D01*
X102703600Y-107523500D02*
X102703600Y-106783500D01*
X102823600Y-107403500D02*
X102703600Y-107523500D01*
X103823600Y-107403500D02*
X102823600Y-107403500D01*
D40*
X110645785Y-120743815D02*
X110178600Y-121211000D01*
X114769485Y-120743815D02*
X110645785Y-120743815D01*
D38*
X108654600Y-122524500D02*
X108146600Y-122016500D01*
X108146600Y-122016500D02*
X108146600Y-121132500D01*
D39*
X102223600Y-108908500D02*
X102223600Y-107523500D01*
X102223600Y-110696500D02*
X102223600Y-108908500D01*
X102941600Y-111414500D02*
X102223600Y-110696500D01*
X104076600Y-111414500D02*
X102941600Y-111414500D01*
X139642600Y-107439500D02*
X139134600Y-106931500D01*
X139642600Y-111480500D02*
X139642600Y-107439500D01*
X138095600Y-106931500D02*
X139134600Y-106931500D01*
X139134600Y-106931500D02*
X140173600Y-106931500D01*
X139665600Y-107439500D02*
X140173600Y-106931500D01*
X139642600Y-107439500D02*
X139665600Y-107439500D01*
X124859900Y-121974300D02*
X126586999Y-121974300D01*
X126586999Y-121974300D02*
X126587000Y-121974301D01*
X126587001Y-121974300D02*
X126587000Y-121974301D01*
X128399900Y-121974300D02*
X126587001Y-121974300D01*
X134043000Y-121908300D02*
X134435600Y-122300900D01*
X134762200Y-121974300D02*
X134435600Y-122300900D01*
X136511900Y-121974300D02*
X134762200Y-121974300D01*
X132479900Y-121908300D02*
X134043000Y-121908300D01*
X88715700Y-116560500D02*
X93795700Y-116560500D01*
G04 #@! TO.N,VMCU*
X98224800Y-106982185D02*
X98174800Y-106982185D01*
G04 #@! TO.N,Net-(C1-Pad2)*
X91634600Y-151644500D02*
X88334600Y-151644500D01*
D40*
X108252100Y-123567000D02*
X108654600Y-123164500D01*
X108252100Y-125901100D02*
X108252100Y-123567000D01*
D39*
X84651700Y-147961600D02*
X84651700Y-126212500D01*
X88334600Y-151644500D02*
X84651700Y-147961600D01*
X84651700Y-126212500D02*
X86175700Y-124688500D01*
X104411697Y-124688500D02*
X106951697Y-127228500D01*
X86175700Y-124688500D02*
X104411697Y-124688500D01*
X106951697Y-127228500D02*
X107593874Y-127228500D01*
D38*
X107709603Y-127228500D02*
X107593874Y-127228500D01*
X108252100Y-126686003D02*
X107709603Y-127228500D01*
X108252100Y-125901100D02*
X108252100Y-126686003D01*
G04 #@! TO.N,Net-(C2-Pad2)*
X106571327Y-129021099D02*
X105632100Y-129021099D01*
X108752099Y-126840327D02*
X106571327Y-129021099D01*
X108752099Y-125901100D02*
X108752099Y-126840327D01*
D40*
X108752099Y-124512501D02*
X110178600Y-123086000D01*
X108752099Y-125901100D02*
X108752099Y-124512501D01*
D39*
X110178600Y-112783500D02*
X110178600Y-111648500D01*
X109061090Y-113901010D02*
X110178600Y-112783500D01*
X109061090Y-121728654D02*
X109061090Y-113901010D01*
X110178600Y-122846164D02*
X109061090Y-121728654D01*
X110178600Y-123086000D02*
X110178600Y-122846164D01*
D38*
G04 #@! TO.N,DH_#RESET*
X126545200Y-139939000D02*
X128349200Y-139939000D01*
X128349200Y-139939000D02*
X136045200Y-139939000D01*
X126534700Y-139928500D02*
X126545200Y-139939000D01*
X123386600Y-139928500D02*
X126534700Y-139928500D01*
X121862700Y-134521101D02*
X123386600Y-136045001D01*
X120872100Y-134521101D02*
X121862700Y-134521101D01*
X123386600Y-136045001D02*
X123386600Y-137134500D01*
D40*
X134511900Y-114071200D02*
X134562600Y-114020500D01*
X134511900Y-121024300D02*
X134511900Y-114071200D01*
D38*
X134511900Y-121024300D02*
X133336800Y-121024300D01*
X133336800Y-121024300D02*
X133279900Y-120967400D01*
X123386600Y-137134500D02*
X123386600Y-137642500D01*
X123386600Y-137642500D02*
X123386600Y-139928500D01*
G04 #@! TO.N,Net-(C4-Pad2)*
X115251985Y-125900984D02*
X115252101Y-125901100D01*
X115251985Y-124045815D02*
X115251985Y-125900984D01*
G04 #@! TO.N,/AVDDU7*
X120929316Y-130078315D02*
X120872100Y-130021099D01*
X119473390Y-132021100D02*
X119148585Y-131696295D01*
X120872100Y-132021100D02*
X119473390Y-132021100D01*
X119784536Y-130021099D02*
X119153104Y-129389667D01*
X120872100Y-130021099D02*
X119784536Y-130021099D01*
G04 #@! TO.N,DBG_PB_1*
X148323100Y-150606100D02*
X148323100Y-158302100D01*
X148323100Y-148802100D02*
X148323100Y-150606100D01*
X148323100Y-146156100D02*
X149258100Y-145221100D01*
X148323100Y-148802100D02*
X148323100Y-146156100D01*
X147353100Y-146156100D02*
X146672100Y-145475100D01*
X148323100Y-146156100D02*
X147353100Y-146156100D01*
X140258999Y-139061999D02*
X146337932Y-145140932D01*
X146337932Y-145140932D02*
X146672100Y-145475100D01*
X120872100Y-134021099D02*
X121657000Y-134021099D01*
X127559597Y-139061999D02*
X127958600Y-139061999D01*
X127958600Y-139061999D02*
X140258999Y-139061999D01*
X121863343Y-134021099D02*
X121862700Y-134021099D01*
X123740610Y-135898366D02*
X121863343Y-134021099D01*
X123740610Y-135899655D02*
X123740610Y-135898366D01*
X126942600Y-139061999D02*
X126902954Y-139061999D01*
X126942600Y-139061999D02*
X127958600Y-139061999D01*
X121862700Y-134021099D02*
X120872100Y-134021099D01*
X126902954Y-139061999D02*
X123740610Y-135899655D01*
G04 #@! TO.N,DBG_PB_2*
X148196100Y-141919100D02*
X148196100Y-132419100D01*
X148196100Y-130027100D02*
X149258100Y-128965100D01*
X148196100Y-132419100D02*
X148196100Y-130027100D01*
X147388100Y-129219100D02*
X148196100Y-130027100D01*
X146649100Y-129219100D02*
X147388100Y-129219100D01*
X139552199Y-136316001D02*
X146314932Y-129553268D01*
X146314932Y-129553268D02*
X146649100Y-129219100D01*
X124813599Y-136316001D02*
X125037600Y-136316001D01*
X120872100Y-133521100D02*
X122018698Y-133521100D01*
X122018698Y-133521100D02*
X124813599Y-136316001D01*
X125037600Y-136316001D02*
X139552199Y-136316001D01*
G04 #@! TO.N,DBG_PB_3*
X148196100Y-123605100D02*
X148196100Y-115909100D01*
X148196100Y-125409100D02*
X148196100Y-123605100D01*
X148196100Y-113517100D02*
X149258100Y-112455100D01*
X148196100Y-115909100D02*
X148196100Y-113517100D01*
X147292100Y-125409100D02*
X148196100Y-125409100D01*
X121863346Y-133021101D02*
X121927541Y-133085296D01*
X120872100Y-133021101D02*
X121863346Y-133021101D01*
X149258100Y-110524000D02*
X149825600Y-109956500D01*
X149258100Y-112455100D02*
X149258100Y-110524000D01*
X132403700Y-133085296D02*
X132403700Y-133070500D01*
X121927541Y-133085296D02*
X132403700Y-133085296D01*
X140065100Y-125409100D02*
X143833700Y-125409100D01*
X132403700Y-133070500D02*
X140065100Y-125409100D01*
X142136362Y-125409100D02*
X143833700Y-125409100D01*
X143833700Y-125409100D02*
X147292100Y-125409100D01*
D40*
G04 #@! TO.N,DH_TMS_SWDIO*
X122859900Y-115563200D02*
X124402600Y-114020500D01*
X122859900Y-121024300D02*
X122859900Y-115563200D01*
D38*
X120484400Y-121024300D02*
X115258600Y-115798500D01*
X122859900Y-121024300D02*
X120484400Y-121024300D01*
X103019638Y-128148099D02*
X101854285Y-128148099D01*
X101854285Y-128148099D02*
X101288600Y-128148099D01*
X103146636Y-128021101D02*
X103019638Y-128148099D01*
X105632100Y-128021101D02*
X103146636Y-128021101D01*
G04 #@! TO.N,DH_TCK_SWCLK*
X99821101Y-127521099D02*
X96996100Y-130346100D01*
X101796600Y-127521099D02*
X99821101Y-127521099D01*
D40*
X126399900Y-114563200D02*
X126942600Y-114020500D01*
X126399900Y-121024300D02*
X126399900Y-114563200D01*
D38*
X120095401Y-121651301D02*
X115258600Y-116814500D01*
X123491501Y-121651301D02*
X120095401Y-121651301D01*
X126399900Y-121024300D02*
X124118502Y-121024300D01*
X124118502Y-121024300D02*
X123491501Y-121651301D01*
X105632100Y-127521099D02*
X101855168Y-127448811D01*
X101855168Y-127448811D02*
X101796600Y-127521099D01*
G04 #@! TO.N,Net-(J2-Pad11)*
X129482600Y-114020500D02*
X130752600Y-112750500D01*
X130752600Y-108940500D02*
X128720600Y-106908500D01*
X130752600Y-112750500D02*
X130752600Y-108940500D01*
D40*
G04 #@! TO.N,DH_TDO_SWO*
X130479900Y-115563200D02*
X132022600Y-114020500D01*
X130479900Y-120958300D02*
X130479900Y-115563200D01*
D38*
X105632100Y-128521100D02*
X103574599Y-128521100D01*
X103574599Y-128521100D02*
X103320600Y-128775099D01*
X130479900Y-120958300D02*
X130479900Y-121612300D01*
X120029401Y-122601301D02*
X119792500Y-122364400D01*
X129490899Y-122601301D02*
X120029401Y-122601301D01*
X130479900Y-121612300D02*
X129490899Y-122601301D01*
X119792500Y-122364400D02*
X115258600Y-117830500D01*
G04 #@! TO.N,Net-(J2-Pad17)*
X137102600Y-114020500D02*
X135832600Y-112750500D01*
X135832600Y-108224500D02*
X137125600Y-106931500D01*
X135832600Y-112750500D02*
X135832600Y-108224500D01*
G04 #@! TO.N,DEBUG_EXT_CABLE_ATTACH*
X139111600Y-120116500D02*
X138372600Y-119377500D01*
X138372600Y-112750500D02*
X137102600Y-111480500D01*
X138372600Y-119377500D02*
X138372600Y-112750500D01*
X139111600Y-120116500D02*
X139111600Y-121109500D01*
X139111600Y-121109500D02*
X139134600Y-121132500D01*
X111752100Y-141141100D02*
X111752100Y-142010000D01*
X111752100Y-142010000D02*
X112718600Y-142976500D01*
G04 #@! TO.N,Net-(J2-Pad19)*
X140506199Y-113156901D02*
X139642600Y-114020500D01*
X141477768Y-112185332D02*
X140506199Y-113156901D01*
X141477768Y-107265668D02*
X141477768Y-112185332D01*
X141143600Y-106931500D02*
X141477768Y-107265668D01*
G04 #@! TO.N,Net-(R1-Pad1)*
X126545200Y-135439000D02*
X128349200Y-135439000D01*
X128349200Y-135439000D02*
X136045200Y-135439000D01*
D40*
X136086600Y-135397600D02*
X136045200Y-135439000D01*
X136086600Y-133278500D02*
X136086600Y-135397600D01*
D38*
G04 #@! TO.N,DBG_LED_1*
X113752099Y-123389201D02*
X113753485Y-123387815D01*
X113752099Y-125901100D02*
X113752099Y-123389201D01*
G04 #@! TO.N,DBG_LED_2*
X113252100Y-124345100D02*
X113252100Y-124910500D01*
X113252100Y-124910500D02*
X113252100Y-125901100D01*
X112744100Y-123837100D02*
X113252100Y-124345100D01*
X112744100Y-123442100D02*
X112744100Y-123837100D01*
G04 #@! TO.N,DBG_LED_3*
X112752101Y-124910500D02*
X112752101Y-125901100D01*
X112752101Y-124867716D02*
X112752101Y-124910500D01*
X111721485Y-123837100D02*
X112752101Y-124867716D01*
X111721485Y-123442100D02*
X111721485Y-123837100D01*
G04 #@! TO.N,Net-(R11-Pad2)*
X152468100Y-148447100D02*
X152823100Y-148802100D01*
X152468100Y-145221100D02*
X152468100Y-148447100D01*
X152823100Y-156498100D02*
X152823100Y-148802100D01*
X152823100Y-158302100D02*
X152823100Y-156498100D01*
G04 #@! TO.N,Net-(R12-Pad2)*
X152468100Y-141691100D02*
X152696100Y-141919100D01*
X152468100Y-132191100D02*
X152696100Y-132419100D01*
X152468100Y-128965100D02*
X152468100Y-132191100D01*
X152696100Y-132419100D02*
X152696100Y-141919100D01*
G04 #@! TO.N,Net-(R13-Pad2)*
X152468100Y-125181100D02*
X152696100Y-125409100D01*
X152468100Y-115681100D02*
X152696100Y-115909100D01*
X152468100Y-112455100D02*
X152468100Y-115681100D01*
X152696100Y-115909100D02*
X152696100Y-125409100D01*
D39*
G04 #@! TO.N,PYNQ_3V3*
X50429979Y-157741753D02*
X50429979Y-158471593D01*
X50429979Y-158471593D02*
X50429979Y-159692907D01*
X54099711Y-148543263D02*
X50429979Y-152212995D01*
X54099711Y-147044663D02*
X54099711Y-148543263D01*
X61270953Y-154072021D02*
X51530621Y-154072021D01*
X66799711Y-148543263D02*
X61270953Y-154072021D01*
X66799711Y-147044663D02*
X66799711Y-148543263D01*
X51530621Y-154072021D02*
X50429979Y-155172663D01*
X50514621Y-154072021D02*
X50429979Y-154156663D01*
X51530621Y-154072021D02*
X50514621Y-154072021D01*
X50429979Y-154156663D02*
X50429979Y-155172663D01*
X51361337Y-154072021D02*
X50429979Y-153140663D01*
X51530621Y-154072021D02*
X51361337Y-154072021D01*
X50429979Y-152212995D02*
X50429979Y-153140663D01*
X50429979Y-153140663D02*
X50429979Y-154156663D01*
X50429979Y-157645000D02*
X50429979Y-158471593D01*
X50429979Y-156375000D02*
X50429979Y-157645000D01*
X50429979Y-155172663D02*
X50429979Y-155613000D01*
X50429979Y-155613000D02*
X50429979Y-156375000D01*
X91634600Y-149644500D02*
X88334600Y-149644500D01*
D38*
G04 #@! TO.N,/CAM0_DOUT2*
X64208248Y-112514416D02*
X64208248Y-122335452D01*
X63117647Y-111423815D02*
X64208248Y-112514416D01*
X64208248Y-122335452D02*
X63169110Y-123374590D01*
X63169110Y-128174062D02*
X64259711Y-129264663D01*
X63169110Y-123374590D02*
X63169110Y-128174062D01*
G04 #@! TO.N,/CAM0_DOUT3*
X65657647Y-115185129D02*
X65665200Y-115192682D01*
X65657647Y-113963815D02*
X65657647Y-115185129D01*
X65665200Y-115192682D02*
X65665200Y-121132500D01*
X65665200Y-121132500D02*
X68205200Y-123672500D01*
X68205200Y-127859174D02*
X66799711Y-129264663D01*
X68205200Y-123672500D02*
X68205200Y-127859174D01*
G04 #@! TO.N,/CAM0_DOUT4*
X63396112Y-130941064D02*
X64259711Y-131804663D01*
X62254048Y-114827414D02*
X62254048Y-129799000D01*
X62254048Y-129799000D02*
X63396112Y-130941064D01*
X63117647Y-113963815D02*
X62254048Y-114827414D01*
G04 #@! TO.N,/CAM0_DOUT5*
X65657647Y-111423815D02*
X66935200Y-112701368D01*
X66935200Y-121901856D02*
X68705844Y-123672500D01*
X66935200Y-112701368D02*
X66935200Y-121901856D01*
X68705844Y-129898530D02*
X66799711Y-131804663D01*
X68705844Y-123672500D02*
X68705844Y-129898530D01*
G04 #@! TO.N,/CAM0_DOUT6*
X69059854Y-131453846D02*
X67443200Y-133070500D01*
X65533874Y-133070500D02*
X64259711Y-134344663D01*
X68197647Y-122648947D02*
X69059854Y-123511154D01*
X67443200Y-133070500D02*
X65533874Y-133070500D01*
X69059854Y-123511154D02*
X69059854Y-131453846D01*
X68197647Y-113963815D02*
X68197647Y-122648947D01*
G04 #@! TO.N,/CAM0_DOUT7*
X69475200Y-112686262D02*
X70737647Y-111423815D01*
X66799711Y-134344663D02*
X69475200Y-131669174D01*
X69475200Y-131669174D02*
X69475200Y-112686262D01*
G04 #@! TO.N,/CAM0_DOUT8*
X64259711Y-136884663D02*
X65533874Y-135610500D01*
X65533874Y-135610500D02*
X67689647Y-135610500D01*
X67689647Y-135610500D02*
X70737647Y-132562500D01*
X70737647Y-113963815D02*
X70737647Y-132562500D01*
G04 #@! TO.N,/CAM0_DOUT9*
X72414048Y-112287414D02*
X72414048Y-112288152D01*
X73277647Y-111423815D02*
X72414048Y-112287414D01*
X73277647Y-111423815D02*
X72015200Y-112686262D01*
X68021025Y-136884663D02*
X66799711Y-136884663D01*
X72015200Y-132890488D02*
X68021025Y-136884663D01*
X72015200Y-112686262D02*
X72015200Y-132890488D01*
G04 #@! TO.N,/CAM0_HREF*
X75817647Y-115185129D02*
X75817647Y-113963815D01*
X75817647Y-133078053D02*
X75817647Y-131292500D01*
X68205200Y-140690500D02*
X75817647Y-133078053D01*
X64259711Y-141964663D02*
X65533874Y-140690500D01*
X65533874Y-140690500D02*
X68205200Y-140690500D01*
X75817647Y-132020817D02*
X75817647Y-131292500D01*
X75817647Y-131292500D02*
X75817647Y-115185129D01*
G04 #@! TO.N,/CAM0_VSYNC*
X75817647Y-111423815D02*
X77095200Y-112701368D01*
X68021025Y-141964663D02*
X66799711Y-141964663D01*
X68709037Y-141964663D02*
X68021025Y-141964663D01*
X77095200Y-133578500D02*
X68709037Y-141964663D01*
X77095200Y-112701368D02*
X77095200Y-133578500D01*
G04 #@! TO.N,/CAM0_SDATA*
X78357647Y-132816698D02*
X68078200Y-143096145D01*
X78357647Y-113963815D02*
X78357647Y-132816698D01*
X68078200Y-143096145D02*
X68078200Y-143103500D01*
X68078200Y-143103500D02*
X67951200Y-143230500D01*
X65533874Y-143230500D02*
X64259711Y-144504663D01*
X67951200Y-143230500D02*
X65533874Y-143230500D01*
G04 #@! TO.N,/CAM0_SCL*
X79448248Y-112514416D02*
X79221246Y-112287414D01*
X79221246Y-112287414D02*
X78357647Y-111423815D01*
X79448248Y-133077440D02*
X79448248Y-112514416D01*
X68021025Y-144504663D02*
X79448248Y-133077440D01*
X66799711Y-144504663D02*
X68021025Y-144504663D01*
G04 #@! TO.N,/CAM1_DOUT2*
X53985979Y-111432907D02*
X52711200Y-112707686D01*
X52711200Y-112707686D02*
X52711200Y-120878500D01*
X52711200Y-120878500D02*
X50044200Y-123545500D01*
X50044200Y-127749152D02*
X51559711Y-129264663D01*
X50044200Y-123545500D02*
X50044200Y-127749152D01*
G04 #@! TO.N,/CAM1_DOUT3*
X54099711Y-129264663D02*
X55759200Y-127605174D01*
X55759200Y-115746128D02*
X53985979Y-113972907D01*
X55759200Y-127605174D02*
X55759200Y-115746128D01*
G04 #@! TO.N,/CAM1_DOUT5*
X51445979Y-113972907D02*
X51445979Y-121635721D01*
X51445979Y-121635721D02*
X49690190Y-123391510D01*
X54099711Y-131804663D02*
X52825548Y-130530500D01*
X52825548Y-130530500D02*
X50806200Y-130530500D01*
X49690190Y-129414490D02*
X49690190Y-128752500D01*
X50806200Y-130530500D02*
X49690190Y-129414490D01*
X49690190Y-123391510D02*
X49690190Y-128752500D01*
X49690190Y-128752500D02*
X49690190Y-129160490D01*
G04 #@! TO.N,/CAM1_DOUT6*
X48905979Y-111432907D02*
X47694700Y-112644186D01*
X50696112Y-133481064D02*
X51559711Y-134344663D01*
X49827120Y-133481064D02*
X50696112Y-133481064D01*
X47694700Y-131348644D02*
X49827120Y-133481064D01*
X47694700Y-112644186D02*
X47694700Y-131348644D01*
G04 #@! TO.N,/CAM1_DOUT7*
X48905979Y-130765021D02*
X48901200Y-130769800D01*
X48905979Y-132059279D02*
X48905979Y-130276500D01*
X49917200Y-133070500D02*
X48905979Y-132059279D01*
X52825548Y-133070500D02*
X49917200Y-133070500D01*
X54099711Y-134344663D02*
X52825548Y-133070500D01*
X48905979Y-113972907D02*
X48905979Y-130276500D01*
X48905979Y-130276500D02*
X48905979Y-130765021D01*
G04 #@! TO.N,/CAM1_DOUT8*
X46365979Y-111432907D02*
X45091200Y-112707686D01*
X45091200Y-130416152D02*
X51559711Y-136884663D01*
X45091200Y-112707686D02*
X45091200Y-130416152D01*
G04 #@! TO.N,/CAM1_DOUT9*
X46365979Y-130765021D02*
X46424700Y-130823742D01*
X53236112Y-136021064D02*
X53236112Y-136008412D01*
X54099711Y-136884663D02*
X53236112Y-136021064D01*
X53236112Y-136008412D02*
X52838200Y-135610500D01*
X46365979Y-130765021D02*
X46365979Y-130467000D01*
X51211458Y-135610500D02*
X46365979Y-130765021D01*
X52838200Y-135610500D02*
X51211458Y-135610500D01*
X46365979Y-113972907D02*
X46365979Y-130467000D01*
G04 #@! TO.N,/CAM1_PCLK*
X53236112Y-138561064D02*
X53236112Y-138548412D01*
X54099711Y-139424663D02*
X53236112Y-138561064D01*
X53236112Y-138548412D02*
X52838200Y-138150500D01*
X52838200Y-138150500D02*
X49091700Y-138150500D01*
X43825979Y-132884779D02*
X43825979Y-129832000D01*
X43825979Y-113972907D02*
X43825979Y-129832000D01*
X49091700Y-138150500D02*
X43825979Y-132884779D01*
X43825979Y-129832000D02*
X43825979Y-130765021D01*
G04 #@! TO.N,/CAM1_HREF*
X50338397Y-141964663D02*
X51559711Y-141964663D01*
X49611219Y-141964663D02*
X50338397Y-141964663D01*
X41285979Y-133639423D02*
X49611219Y-141964663D01*
X41285979Y-113972907D02*
X41285979Y-133639423D01*
G04 #@! TO.N,/CAM1_SDATA*
X37655378Y-112523508D02*
X37655378Y-132365678D01*
X38745979Y-111432907D02*
X37655378Y-112523508D01*
X49794363Y-144504663D02*
X51559711Y-144504663D01*
X37655378Y-132365678D02*
X49794363Y-144504663D01*
G04 #@! TO.N,/CAM1_SCL*
X38745979Y-131600067D02*
X50376412Y-143230500D01*
X38745979Y-113972907D02*
X38745979Y-131600067D01*
X52825548Y-143230500D02*
X54099711Y-144504663D01*
X50376412Y-143230500D02*
X52825548Y-143230500D01*
G04 #@! TO.N,/CAM_CLK*
X57747293Y-113972907D02*
X58807200Y-115032814D01*
X56525979Y-113972907D02*
X57747293Y-113972907D01*
X58807200Y-115032814D02*
X58807200Y-133972152D01*
X54997200Y-140690500D02*
X53473200Y-140690500D01*
X52423310Y-140288262D02*
X51559711Y-139424663D01*
X53070962Y-140288262D02*
X52423310Y-140288262D01*
X53473200Y-140690500D02*
X53070962Y-140288262D01*
X63396112Y-138561064D02*
X60487764Y-138561064D01*
X64259711Y-139424663D02*
X63396112Y-138561064D01*
X58553200Y-137134500D02*
X59061200Y-137134500D01*
X59061200Y-137134500D02*
X58807200Y-136880500D01*
X60487764Y-138561064D02*
X59061200Y-137134500D01*
X58553200Y-137134500D02*
X54997200Y-140690500D01*
X58807200Y-136880500D02*
X58553200Y-137134500D01*
X59061200Y-136880500D02*
X58807200Y-136626500D01*
X58807200Y-133972152D02*
X58807200Y-136626500D01*
X59061200Y-137134500D02*
X59061200Y-136880500D01*
X58807200Y-136626500D02*
X58807200Y-136880500D01*
X58553200Y-136880500D02*
X58807200Y-136626500D01*
X58553200Y-137134500D02*
X58553200Y-136880500D01*
G04 #@! TO.N,/US0_TX*
X93795700Y-114020500D02*
X93795700Y-110311285D01*
X93795700Y-110311285D02*
X96174800Y-107932185D01*
X96174800Y-107932185D02*
X96224800Y-107932185D01*
X109252100Y-125901100D02*
X109252100Y-127266100D01*
X109252100Y-127266100D02*
X109035700Y-127482500D01*
X94100500Y-114020500D02*
X93795700Y-114020500D01*
X101364900Y-121284900D02*
X94100500Y-114020500D01*
G04 #@! TO.N,/US0_RX*
X91174915Y-107932185D02*
X91174915Y-113939715D01*
X91174915Y-113939715D02*
X91255700Y-114020500D01*
X109752099Y-126891700D02*
X109746900Y-126896899D01*
X109752099Y-125901100D02*
X109752099Y-126891700D01*
X109746900Y-126896899D02*
X109746900Y-127939700D01*
X109746900Y-127939700D02*
X109453631Y-128232969D01*
X109453631Y-128232969D02*
X108437017Y-128232969D01*
X101415700Y-122554900D02*
X98316900Y-122554900D01*
G04 #@! TO.N,/US0_CLK*
X88715700Y-114020500D02*
X88715700Y-112799186D01*
X88715700Y-112799186D02*
X86064800Y-110148286D01*
X86064800Y-110148286D02*
X86064800Y-108586185D01*
X86064800Y-108586185D02*
X86064800Y-107932185D01*
X108283832Y-128859969D02*
X107619169Y-128859969D01*
X110252101Y-125901100D02*
X110252101Y-126891700D01*
X101415700Y-123672500D02*
X98367700Y-123672500D01*
X110252101Y-125901100D02*
X110252101Y-128145699D01*
X109537831Y-128859969D02*
X107619169Y-128859969D01*
X110252101Y-128145699D02*
X109537831Y-128859969D01*
X71689277Y-107932185D02*
X68197647Y-111423815D01*
X86064800Y-107932185D02*
X71689277Y-107932185D01*
G04 #@! TO.N,/CAM1_VSYNC*
X42735378Y-112523508D02*
X42714692Y-112523508D01*
X43825979Y-111432907D02*
X42735378Y-112523508D01*
X42714692Y-112523508D02*
X42551200Y-112687000D01*
X42551200Y-112687000D02*
X42551200Y-134404000D01*
X42551200Y-134404000D02*
X48837700Y-140690500D01*
X52825548Y-140690500D02*
X54099711Y-141964663D01*
X48837700Y-140690500D02*
X52825548Y-140690500D01*
G04 #@! TO.N,/CAM1_DOUT4*
X51445979Y-111432907D02*
X50171200Y-112707686D01*
X50696112Y-130941064D02*
X51559711Y-131804663D01*
X49336180Y-129581132D02*
X50696112Y-130941064D01*
X49336180Y-123244875D02*
X49336180Y-129581132D01*
X50171200Y-122409856D02*
X49336180Y-123244875D01*
X50171200Y-112707686D02*
X50171200Y-122409856D01*
G04 #@! TO.N,/CAM0_PCLK*
X73277647Y-132946727D02*
X66799711Y-139424663D01*
X73277647Y-113963815D02*
X73277647Y-132946727D01*
G04 #@! TO.N,Net-(D1-Pad2)*
X113753485Y-122417815D02*
X113753485Y-121444815D01*
G04 #@! TO.N,Net-(D2-Pad2)*
X112737485Y-122465485D02*
X112744100Y-122472100D01*
X112737485Y-121444815D02*
X112737485Y-122465485D01*
G04 #@! TO.N,Net-(D3-Pad2)*
X111721485Y-121444815D02*
X111721485Y-122472100D01*
G04 #@! TO.N,PULSE*
X114447499Y-161450101D02*
X115538100Y-160359500D01*
X108113301Y-161450101D02*
X114447499Y-161450101D01*
X106895700Y-160232500D02*
X108113301Y-161450101D01*
X105778100Y-160232500D02*
X106895700Y-160232500D01*
X124245499Y-161704101D02*
X125336100Y-160613500D01*
X116655700Y-160359500D02*
X118000301Y-161704101D01*
X118000301Y-161704101D02*
X124245499Y-161704101D01*
X115538100Y-160359500D02*
X116655700Y-160359500D01*
X107205294Y-141094295D02*
X107252099Y-141141100D01*
G04 #@! TO.N,/Sheet5BB71F0E/INP*
X98591101Y-137021101D02*
X96996100Y-135426100D01*
X105632100Y-137021101D02*
X98591101Y-137021101D01*
G04 #@! TO.N,/sheet5BB7B6EA/INP*
X100631099Y-136521099D02*
X96996100Y-132886100D01*
X105632100Y-136521099D02*
X100631099Y-136521099D01*
G04 #@! TO.N,/Ultra/RX2*
X124193100Y-156930500D02*
X125336100Y-158073500D01*
X124193100Y-148405500D02*
X124193100Y-156930500D01*
X124193100Y-147701500D02*
X124193100Y-148405500D01*
X112947230Y-145120489D02*
X123216691Y-145120489D01*
X123216691Y-145120489D02*
X124193100Y-146096898D01*
X109752099Y-141925358D02*
X112947230Y-145120489D01*
X124193100Y-146096898D02*
X124193100Y-147701500D01*
X109752099Y-141141100D02*
X109752099Y-141925358D01*
G04 #@! TO.N,/Ultra/RX1*
X115612785Y-157474815D02*
X115538100Y-157549500D01*
X114674501Y-156955901D02*
X115538100Y-157819500D01*
X114447499Y-156728899D02*
X114674501Y-156955901D01*
X114447499Y-148867886D02*
X114447499Y-156728899D01*
X114459885Y-148855500D02*
X114447499Y-148867886D01*
X114459885Y-148151500D02*
X114459885Y-148855500D01*
X114459885Y-147447500D02*
X114459885Y-148151500D01*
X114459885Y-145842898D02*
X114459885Y-147447500D01*
X114091486Y-145474499D02*
X114459885Y-145842898D01*
X112800596Y-145474499D02*
X114091486Y-145474499D01*
X109252100Y-141926003D02*
X112800596Y-145474499D01*
X109252100Y-141141100D02*
X109252100Y-141926003D01*
G04 #@! TO.N,/Ultra/RX0*
X104687499Y-148803101D02*
X104762100Y-148728500D01*
X104762100Y-148728500D02*
X104762100Y-148024500D01*
X104687499Y-156601899D02*
X104687499Y-148803101D01*
X105778100Y-157692500D02*
X104687499Y-156601899D01*
X108752099Y-142131700D02*
X106233504Y-144650295D01*
X108752099Y-141141100D02*
X108752099Y-142131700D01*
X104762100Y-145715898D02*
X104762100Y-147320500D01*
X105827703Y-144650295D02*
X104762100Y-145715898D01*
X104762100Y-147320500D02*
X104762100Y-148024500D01*
X106233504Y-144650295D02*
X105827703Y-144650295D01*
D39*
G04 #@! TO.N,Net-(U11-Pad4)*
X91634600Y-147644500D02*
X88334600Y-147644500D01*
G04 #@! TO.N,VMCU*
X115409885Y-155151285D02*
X115538100Y-155279500D01*
D38*
X116252099Y-127728815D02*
X116252099Y-128393099D01*
X115252099Y-141141100D02*
X115252099Y-139819201D01*
X115252099Y-139819201D02*
X115404485Y-139666815D01*
X116252099Y-125901100D02*
X116252099Y-127728815D01*
X110781685Y-141111515D02*
X110752100Y-141141100D01*
X110781685Y-139463615D02*
X110781685Y-141111515D01*
X106922599Y-130521101D02*
X105632100Y-130521101D01*
X107276485Y-130167215D02*
X106922599Y-130521101D01*
X120850814Y-136999815D02*
X120872100Y-137021101D01*
X119214485Y-136999815D02*
X120850814Y-136999815D01*
X119212771Y-130521101D02*
X118960485Y-130268815D01*
X120872100Y-130521101D02*
X119212771Y-130521101D01*
D39*
X91634600Y-153644500D02*
X88334600Y-153644500D01*
X88334600Y-153644500D02*
X83254600Y-153644500D01*
X150228100Y-128244500D02*
X150228100Y-128965100D01*
X150228100Y-112455100D02*
X150228100Y-128244500D01*
X119214485Y-139491288D02*
X119214485Y-136999815D01*
X125418600Y-142468500D02*
X122191697Y-142468500D01*
X122191697Y-142468500D02*
X119214485Y-139491288D01*
X150228100Y-145221100D02*
X150228100Y-143611500D01*
X150228100Y-128244500D02*
X150228100Y-143611500D01*
D40*
X132479900Y-117627200D02*
X132530600Y-117576500D01*
X132479900Y-120008300D02*
X132479900Y-117627200D01*
X136594600Y-119991600D02*
X136511900Y-120074300D01*
X136594600Y-117576500D02*
X136594600Y-119991600D01*
D38*
X138099400Y-120074300D02*
X138141600Y-120116500D01*
X136511900Y-120074300D02*
X138099400Y-120074300D01*
D40*
X124910600Y-117576500D02*
X124910600Y-120023600D01*
X124910600Y-120023600D02*
X124859900Y-120074300D01*
D39*
X120700601Y-126064796D02*
X119576600Y-127188797D01*
X121100600Y-125450500D02*
X120700601Y-125850499D01*
X120700601Y-125850499D02*
X120700601Y-126064796D01*
D38*
X128399900Y-117579700D02*
X128403100Y-117576500D01*
X128399900Y-120074300D02*
X128399900Y-117579700D01*
D39*
X100260585Y-140144295D02*
X101345585Y-140144295D01*
X99354903Y-140144295D02*
X100260585Y-140144295D01*
X91634600Y-153644500D02*
X96843700Y-148435400D01*
X107301782Y-139463615D02*
X110781685Y-139463615D01*
X101345585Y-140144295D02*
X106621102Y-140144295D01*
X106621102Y-140144295D02*
X107301782Y-139463615D01*
G04 #@! TO.N,GND*
X88123115Y-108940500D02*
X88064800Y-108882185D01*
X103238100Y-148598500D02*
X103812100Y-148024500D01*
X103238100Y-155152500D02*
X103238100Y-148598500D01*
X103345585Y-147557985D02*
X103812100Y-148024500D01*
X103238100Y-148598500D02*
X103238100Y-147401985D01*
X103238100Y-147401985D02*
X103345585Y-147294500D01*
X103345585Y-142044295D02*
X103345585Y-147294500D01*
X103345585Y-147294500D02*
X103345585Y-147557985D01*
X112998100Y-148663285D02*
X113509885Y-148151500D01*
X112998100Y-155279500D02*
X112998100Y-148663285D01*
X122796100Y-148852500D02*
X123243100Y-148405500D01*
X122796100Y-155533500D02*
X122796100Y-148852500D01*
X125037700Y-125617304D02*
X123650430Y-125617304D01*
X129101700Y-125617304D02*
X128593700Y-125617304D01*
X129101700Y-125617304D02*
X127323700Y-125617304D01*
X130254430Y-125617304D02*
X129101700Y-125617304D01*
X126815700Y-125617304D02*
X125037700Y-125617304D01*
X127323700Y-125617304D02*
X126815700Y-125617304D01*
X134388700Y-153660500D02*
X133353700Y-153660500D01*
X134828750Y-154100550D02*
X134388700Y-153660500D01*
X134828750Y-160104510D02*
X134828750Y-154100550D01*
X139908750Y-158883196D02*
X139908750Y-160104510D01*
X139908750Y-154068875D02*
X139908750Y-158883196D01*
X139452700Y-153612825D02*
X139908750Y-154068875D01*
X138417700Y-153612825D02*
X139452700Y-153612825D01*
X143278265Y-153660500D02*
X143563700Y-153660500D01*
X143563700Y-153660500D02*
X144595700Y-152628500D01*
X88064800Y-108882185D02*
X88149385Y-108882185D01*
X93174915Y-108882185D02*
X93174915Y-109942285D01*
X93174915Y-109942285D02*
X92779700Y-110337500D01*
X98224800Y-108882185D02*
X98224800Y-109845400D01*
X98224800Y-109845400D02*
X97351700Y-110718500D01*
X94456100Y-128847500D02*
X92414700Y-126806100D01*
X90345100Y-126806100D02*
X89310100Y-126806100D01*
X92414700Y-126806100D02*
X90345100Y-126806100D01*
X94456100Y-130346100D02*
X94456100Y-128847500D01*
X91326100Y-132886100D02*
X89310100Y-130870100D01*
X94456100Y-132886100D02*
X91326100Y-132886100D01*
X89802100Y-135426100D02*
X89310100Y-134934100D01*
X94456100Y-135426100D02*
X89802100Y-135426100D01*
D38*
X88064800Y-108882185D02*
X88064800Y-108829400D01*
X88064800Y-108829400D02*
X89731700Y-107162500D01*
G04 #@! TO.N,DH_TCK_SWCLK*
X89014100Y-128806100D02*
X88360100Y-128806100D01*
X95668700Y-131673500D02*
X91881500Y-131673500D01*
X91881500Y-131673500D02*
X89014100Y-128806100D01*
X96996100Y-130346100D02*
X95668700Y-131673500D01*
G04 #@! TO.N,PULSE*
X105733700Y-141094295D02*
X101345585Y-141094295D01*
X105733700Y-141094295D02*
X107205294Y-141094295D01*
X103345585Y-141094295D02*
X105733700Y-141094295D01*
X105778100Y-161350100D02*
X104593700Y-162534500D01*
X105778100Y-160232500D02*
X105778100Y-161350100D01*
X103123585Y-162534500D02*
X101345585Y-160756500D01*
X104593700Y-162534500D02*
X103123585Y-162534500D01*
X101345585Y-141094295D02*
X101345585Y-160756500D01*
G04 #@! TO.N,/US1_TX*
X132403700Y-156364500D02*
X132403700Y-155660500D01*
X132403700Y-161337060D02*
X132403700Y-156364500D01*
X133711150Y-162644510D02*
X132403700Y-161337060D01*
X134828750Y-162644510D02*
X133711150Y-162644510D01*
X132403700Y-151954538D02*
X125177541Y-144728379D01*
X132403700Y-155660500D02*
X132403700Y-151954538D01*
X125177541Y-144728379D02*
X125037700Y-144728379D01*
X117391579Y-144728379D02*
X115639700Y-142976500D01*
X125177541Y-144728379D02*
X117391579Y-144728379D01*
X115639700Y-142976500D02*
X115639700Y-141198500D01*
G04 #@! TO.N,/Sheet5BB71F0E/INP*
X95488100Y-136934100D02*
X88360100Y-136934100D01*
X96996100Y-135426100D02*
X95488100Y-136934100D01*
G04 #@! TO.N,/sheet5BB7B6EA/INP*
X96996100Y-132886100D02*
X95744900Y-134137300D01*
X89014100Y-132870100D02*
X88360100Y-132870100D01*
X90281300Y-134137300D02*
X89014100Y-132870100D01*
X95744900Y-134137300D02*
X90281300Y-134137300D01*
G04 #@! TO.N,/US1_RX*
X137368750Y-162644510D02*
X138626700Y-161386560D01*
X138626700Y-157475825D02*
X137467700Y-156316825D01*
X137467700Y-156316825D02*
X137467700Y-155612825D01*
X138626700Y-161386560D02*
X138626700Y-157475825D01*
X137467700Y-153304223D02*
X128461646Y-144298169D01*
X137467700Y-155612825D02*
X137467700Y-153304223D01*
X116252099Y-142445899D02*
X116252099Y-142131700D01*
X118104369Y-144298169D02*
X116252099Y-142445899D01*
X127069700Y-144298169D02*
X118104369Y-144298169D01*
X127069700Y-144298169D02*
X125732217Y-144298169D01*
X116252099Y-142131700D02*
X116252099Y-141141100D01*
X128461646Y-144298169D02*
X127069700Y-144298169D01*
G04 #@! TO.N,/US1_CLK*
X142328265Y-153351898D02*
X132844327Y-143867960D01*
X142328265Y-155660500D02*
X142328265Y-153351898D01*
X142328265Y-160224995D02*
X142328265Y-155660500D01*
X139908750Y-162644510D02*
X142328265Y-160224995D01*
X118752099Y-142405899D02*
X118752099Y-142131700D01*
X120214160Y-143867960D02*
X118752099Y-142405899D01*
X126053700Y-143867960D02*
X120214160Y-143867960D01*
X118752099Y-142131700D02*
X118752099Y-141141100D01*
X126053700Y-143867960D02*
X125910416Y-143867960D01*
X132844327Y-143867960D02*
X126053700Y-143867960D01*
G04 #@! TO.N,VMCU*
X100145700Y-108853085D02*
X100145700Y-110337500D01*
X98224800Y-106982185D02*
X98274800Y-106982185D01*
X98274800Y-106982185D02*
X100145700Y-108853085D01*
X98224800Y-106982185D02*
X97520800Y-106982185D01*
D39*
X105778100Y-148090500D02*
X105712100Y-148024500D01*
X105778100Y-155152500D02*
X105778100Y-148090500D01*
X115538100Y-148279715D02*
X115409885Y-148151500D01*
X115538100Y-155279500D02*
X115538100Y-148279715D01*
X125336100Y-148598500D02*
X125143100Y-148405500D01*
X125336100Y-155533500D02*
X125336100Y-148598500D01*
X125143100Y-148405500D02*
X125143100Y-145919100D01*
X125143100Y-145919100D02*
X125291700Y-145770500D01*
X131453700Y-153710500D02*
X131453700Y-153660500D01*
X129630700Y-155533500D02*
X131453700Y-153710500D01*
X125336100Y-155533500D02*
X129630700Y-155533500D01*
X136517700Y-155118500D02*
X136086700Y-155549500D01*
X136517700Y-153612825D02*
X136517700Y-155118500D01*
X141378265Y-155337935D02*
X141166700Y-155549500D01*
X141378265Y-153660500D02*
X141378265Y-155337935D01*
D40*
X87410100Y-139765900D02*
X87410100Y-126806100D01*
X90299698Y-142655498D02*
X87410100Y-139765900D01*
D39*
X96335700Y-142722500D02*
X96843700Y-143230500D01*
X96843700Y-143230500D02*
X96843700Y-142655498D01*
X96335700Y-142655498D02*
X96335700Y-142722500D01*
X96843700Y-148435400D02*
X96843700Y-143230500D01*
D40*
X96335700Y-142655498D02*
X90299698Y-142655498D01*
X96843700Y-142655498D02*
X96335700Y-142655498D01*
D39*
X96589700Y-142401498D02*
X97097700Y-142401498D01*
X96335700Y-142655498D02*
X96589700Y-142401498D01*
X96843700Y-142655498D02*
X97097700Y-142401498D01*
X97097700Y-142401498D02*
X99354903Y-140144295D01*
D38*
X88064800Y-106982185D02*
X88064800Y-106328185D01*
X96533402Y-106982185D02*
X98224800Y-106982185D01*
X93174915Y-106982185D02*
X96533402Y-106982185D01*
X92651015Y-105804285D02*
X88588700Y-105804285D01*
X93174915Y-106328185D02*
X92651015Y-105804285D01*
X93174915Y-106982185D02*
X93174915Y-106328185D01*
X88064800Y-106328185D02*
X88588700Y-105804285D01*
D40*
G04 #@! TO.N,/USB_D+*
X106622600Y-122671842D02*
X106622600Y-122933500D01*
X105123600Y-108641001D02*
X105181900Y-108699301D01*
X105123600Y-107403500D02*
X105123600Y-108641001D01*
X106777502Y-122778598D02*
X106622600Y-122933500D01*
X106777502Y-122384864D02*
X106777502Y-122778598D01*
X106810562Y-122351804D02*
X106777502Y-122384864D01*
X105181900Y-120723142D02*
X106810562Y-122351804D01*
X105049900Y-112364500D02*
X105181900Y-112496500D01*
X104076600Y-112364500D02*
X105049900Y-112364500D01*
X105181900Y-108699301D02*
X105181900Y-112496500D01*
X105181900Y-112496500D02*
X105181900Y-120723142D01*
G04 #@! TO.N,/USB_D-*
X105773600Y-108641001D02*
X105715300Y-108699301D01*
X105773600Y-107403500D02*
X105773600Y-108641001D01*
X107310910Y-122605810D02*
X107638600Y-122933500D01*
X105715300Y-120468732D02*
X107397300Y-122150732D01*
X107397300Y-122150732D02*
X107397300Y-122692200D01*
X107397300Y-122692200D02*
X107638600Y-122933500D01*
X106876600Y-112364500D02*
X105847300Y-112364500D01*
X105715300Y-108699301D02*
X105715300Y-112496500D01*
X105847300Y-112364500D02*
X105715300Y-112496500D01*
X105715300Y-112496500D02*
X105715300Y-120468732D01*
D38*
G04 #@! TO.N,Net-(C19-Pad1)*
X123650430Y-126587304D02*
X123650430Y-130046304D01*
X122691634Y-131021100D02*
X120872100Y-131021100D01*
X123658430Y-130054304D02*
X122691634Y-131021100D01*
G04 #@! TO.N,Net-(C18-Pad1)*
X130254430Y-126587304D02*
X130254430Y-129958304D01*
X127625576Y-130054304D02*
X125575595Y-132104285D01*
X130158430Y-130054304D02*
X127625576Y-130054304D01*
X121862700Y-131521099D02*
X120872100Y-131521099D01*
X122445886Y-132104285D02*
X121862700Y-131521099D01*
X125575595Y-132104285D02*
X122445886Y-132104285D01*
D40*
G04 #@! TO.N,/USB_5v*
X107176600Y-111414500D02*
X106876600Y-111414500D01*
X106423600Y-108558700D02*
X107313400Y-109448500D01*
X106423600Y-107403500D02*
X106423600Y-108558700D01*
X110178600Y-109448500D02*
X109162600Y-109448500D01*
X109162600Y-109448500D02*
X109142600Y-109448500D01*
X106876600Y-111414500D02*
X107706800Y-111414500D01*
X107313400Y-109448500D02*
X108654600Y-109448500D01*
X107706800Y-111414500D02*
X108654600Y-110466700D01*
X108654600Y-109448500D02*
X109162600Y-109448500D01*
X108654600Y-109956500D02*
X108654600Y-109448500D01*
X108654600Y-110466700D02*
X108654600Y-109956500D01*
X108146600Y-109448500D02*
X108654600Y-109956500D01*
X108654600Y-109956500D02*
X109162600Y-109448500D01*
G04 #@! TO.N,/USB_R_D+*
X107760100Y-124869859D02*
X107760100Y-125901100D01*
X107638600Y-124748359D02*
X107760100Y-124869859D01*
X107638600Y-123903500D02*
X107638600Y-124748359D01*
G04 #@! TO.N,/USB_R_D-*
X107105190Y-125754191D02*
X107226690Y-125875691D01*
X107105190Y-124781090D02*
X107105190Y-125754191D01*
X106622600Y-124298500D02*
X107105190Y-124781090D01*
X106622600Y-123903500D02*
X106622600Y-124298500D01*
G04 #@! TD*
D38*
G04 #@! TO.N,VMCU*
G36*
X119720764Y-127143521D02*
X119686177Y-127195283D01*
X119649156Y-127381399D01*
X119649156Y-127660799D01*
X119671096Y-127771100D01*
X119649156Y-127881401D01*
X119649156Y-128160801D01*
X119671096Y-128271100D01*
X119649156Y-128381400D01*
X119649156Y-128645881D01*
X119327550Y-128512667D01*
X118978658Y-128512667D01*
X118656324Y-128646183D01*
X118409620Y-128892887D01*
X118276104Y-129215221D01*
X118276104Y-129564113D01*
X118409620Y-129886447D01*
X118656324Y-130133151D01*
X118978658Y-130266667D01*
X119175919Y-130266667D01*
X119315377Y-130406125D01*
X119349076Y-130456559D01*
X119467959Y-130535994D01*
X119500500Y-130557737D01*
X119500500Y-130648103D01*
X119602098Y-130648103D01*
X119500500Y-130749701D01*
X119500500Y-130787110D01*
X119553348Y-130914696D01*
X119323031Y-130819295D01*
X118974139Y-130819295D01*
X118651805Y-130952811D01*
X118405101Y-131199515D01*
X118271585Y-131521849D01*
X118271585Y-131870741D01*
X118405101Y-132193075D01*
X118651805Y-132439779D01*
X118974139Y-132573295D01*
X119212636Y-132573295D01*
X119237720Y-132590056D01*
X119473390Y-132636933D01*
X119532879Y-132625100D01*
X119649156Y-132625100D01*
X119649156Y-132660799D01*
X119666358Y-132747281D01*
X119665872Y-132797364D01*
X119649156Y-132881401D01*
X119649156Y-133160801D01*
X119661730Y-133224012D01*
X119660768Y-133323021D01*
X119649156Y-133381400D01*
X119649156Y-133660800D01*
X119657101Y-133700743D01*
X119655665Y-133848677D01*
X119649156Y-133881399D01*
X119649156Y-134160799D01*
X119652473Y-134177473D01*
X119650561Y-134374336D01*
X119649156Y-134381401D01*
X119649156Y-134519090D01*
X119630032Y-136488844D01*
X119597173Y-136521703D01*
X119500500Y-136755092D01*
X119500500Y-136792501D01*
X119625867Y-136917868D01*
X119623843Y-137126358D01*
X119500500Y-137249701D01*
X119500500Y-137287110D01*
X119597173Y-137520499D01*
X119619796Y-137543122D01*
X119596712Y-139920815D01*
X119405169Y-139920815D01*
X119391801Y-139918156D01*
X119112401Y-139918156D01*
X119099033Y-139920815D01*
X118905167Y-139920815D01*
X118891799Y-139918156D01*
X118612399Y-139918156D01*
X118599031Y-139920815D01*
X118405168Y-139920815D01*
X118391800Y-139918156D01*
X118112400Y-139918156D01*
X118099032Y-139920815D01*
X117905167Y-139920815D01*
X117891799Y-139918156D01*
X117612399Y-139918156D01*
X117599031Y-139920815D01*
X117405168Y-139920815D01*
X117391800Y-139918156D01*
X117112400Y-139918156D01*
X117099032Y-139920815D01*
X116905169Y-139920815D01*
X116891801Y-139918156D01*
X116612401Y-139918156D01*
X116599033Y-139920815D01*
X116405167Y-139920815D01*
X116391799Y-139918156D01*
X116112399Y-139918156D01*
X116099031Y-139920815D01*
X115905168Y-139920815D01*
X115891800Y-139918156D01*
X115803480Y-139918156D01*
X115751497Y-139866173D01*
X115518108Y-139769500D01*
X115480699Y-139769500D01*
X115379101Y-139871098D01*
X115379101Y-139769500D01*
X115304177Y-139769500D01*
X115265485Y-139711593D01*
X115265485Y-139492369D01*
X115131969Y-139170035D01*
X114885265Y-138923331D01*
X114562931Y-138789815D01*
X114214039Y-138789815D01*
X113891705Y-138923331D01*
X113645001Y-139170035D01*
X113511485Y-139492369D01*
X113511485Y-139841261D01*
X113544437Y-139920815D01*
X113405168Y-139920815D01*
X113391800Y-139918156D01*
X113112400Y-139918156D01*
X113099032Y-139920815D01*
X112905166Y-139920815D01*
X112891798Y-139918156D01*
X112612398Y-139918156D01*
X112599030Y-139920815D01*
X112405167Y-139920815D01*
X112391799Y-139918156D01*
X112112399Y-139918156D01*
X112099031Y-139920815D01*
X111905168Y-139920815D01*
X111891800Y-139918156D01*
X111612400Y-139918156D01*
X111599032Y-139920815D01*
X111405167Y-139920815D01*
X111391799Y-139918156D01*
X111303481Y-139918156D01*
X111251498Y-139866173D01*
X111018109Y-139769500D01*
X110980700Y-139769500D01*
X110829385Y-139920815D01*
X110674815Y-139920815D01*
X110523500Y-139769500D01*
X110486091Y-139769500D01*
X110252702Y-139866173D01*
X110200719Y-139918156D01*
X110112401Y-139918156D01*
X110099033Y-139920815D01*
X109905167Y-139920815D01*
X109891799Y-139918156D01*
X109612399Y-139918156D01*
X109599031Y-139920815D01*
X109405168Y-139920815D01*
X109391800Y-139918156D01*
X109112400Y-139918156D01*
X109099032Y-139920815D01*
X108905167Y-139920815D01*
X108891799Y-139918156D01*
X108612399Y-139918156D01*
X108599031Y-139920815D01*
X108405168Y-139920815D01*
X108391800Y-139918156D01*
X108112400Y-139918156D01*
X108099032Y-139920815D01*
X107905169Y-139920815D01*
X107891801Y-139918156D01*
X107612401Y-139918156D01*
X107599033Y-139920815D01*
X107405167Y-139920815D01*
X107391799Y-139918156D01*
X107112399Y-139918156D01*
X107099031Y-139920815D01*
X106895485Y-139920815D01*
X106895485Y-132097299D01*
X107051239Y-132161815D01*
X107400131Y-132161815D01*
X107722465Y-132028299D01*
X107969169Y-131781595D01*
X108102685Y-131459261D01*
X108102685Y-131110369D01*
X107969169Y-130788035D01*
X107722465Y-130541331D01*
X107400131Y-130407815D01*
X107051239Y-130407815D01*
X107026434Y-130418090D01*
X107021459Y-130417100D01*
X107021458Y-130417100D01*
X107003700Y-130413568D01*
X107003700Y-130394099D01*
X106902102Y-130394099D01*
X107003700Y-130292501D01*
X107003700Y-130255092D01*
X106907027Y-130021703D01*
X106895485Y-130010161D01*
X106895485Y-129895500D01*
X109670600Y-129895500D01*
X109719201Y-129885833D01*
X109760403Y-129858303D01*
X109787933Y-129817101D01*
X109797600Y-129768426D01*
X109797392Y-129412961D01*
X109973291Y-129295429D01*
X110006992Y-129244993D01*
X110637127Y-128614858D01*
X110687561Y-128581159D01*
X110821057Y-128381368D01*
X110856101Y-128205188D01*
X110867934Y-128145700D01*
X110856101Y-128086212D01*
X110856101Y-127181135D01*
X114493213Y-127145823D01*
X114407001Y-127232035D01*
X114273485Y-127554369D01*
X114273485Y-127903261D01*
X114407001Y-128225595D01*
X114653705Y-128472299D01*
X114976039Y-128605815D01*
X115324931Y-128605815D01*
X115647265Y-128472299D01*
X115893969Y-128225595D01*
X116027485Y-127903261D01*
X116027485Y-127706000D01*
X116137126Y-127596359D01*
X116187560Y-127562660D01*
X116321056Y-127362869D01*
X116338992Y-127272700D01*
X116379101Y-127272700D01*
X116379101Y-127171102D01*
X116480699Y-127272700D01*
X116518108Y-127272700D01*
X116751497Y-127176027D01*
X116803480Y-127124044D01*
X116891801Y-127124044D01*
X116899771Y-127122459D01*
X117094906Y-127120564D01*
X117112400Y-127124044D01*
X117391800Y-127124044D01*
X117425427Y-127117355D01*
X117571638Y-127115936D01*
X117612401Y-127124044D01*
X117891801Y-127124044D01*
X117951084Y-127112252D01*
X118048369Y-127111307D01*
X118112400Y-127124044D01*
X118391800Y-127124044D01*
X118476740Y-127107148D01*
X118525099Y-127106679D01*
X118612399Y-127124044D01*
X118891799Y-127124044D01*
X119002100Y-127102104D01*
X119112401Y-127124044D01*
X119391801Y-127124044D01*
X119528054Y-127096942D01*
X119721234Y-127095066D01*
X119720764Y-127143521D01*
X119720764Y-127143521D01*
G37*
X119720764Y-127143521D02*
X119686177Y-127195283D01*
X119649156Y-127381399D01*
X119649156Y-127660799D01*
X119671096Y-127771100D01*
X119649156Y-127881401D01*
X119649156Y-128160801D01*
X119671096Y-128271100D01*
X119649156Y-128381400D01*
X119649156Y-128645881D01*
X119327550Y-128512667D01*
X118978658Y-128512667D01*
X118656324Y-128646183D01*
X118409620Y-128892887D01*
X118276104Y-129215221D01*
X118276104Y-129564113D01*
X118409620Y-129886447D01*
X118656324Y-130133151D01*
X118978658Y-130266667D01*
X119175919Y-130266667D01*
X119315377Y-130406125D01*
X119349076Y-130456559D01*
X119467959Y-130535994D01*
X119500500Y-130557737D01*
X119500500Y-130648103D01*
X119602098Y-130648103D01*
X119500500Y-130749701D01*
X119500500Y-130787110D01*
X119553348Y-130914696D01*
X119323031Y-130819295D01*
X118974139Y-130819295D01*
X118651805Y-130952811D01*
X118405101Y-131199515D01*
X118271585Y-131521849D01*
X118271585Y-131870741D01*
X118405101Y-132193075D01*
X118651805Y-132439779D01*
X118974139Y-132573295D01*
X119212636Y-132573295D01*
X119237720Y-132590056D01*
X119473390Y-132636933D01*
X119532879Y-132625100D01*
X119649156Y-132625100D01*
X119649156Y-132660799D01*
X119666358Y-132747281D01*
X119665872Y-132797364D01*
X119649156Y-132881401D01*
X119649156Y-133160801D01*
X119661730Y-133224012D01*
X119660768Y-133323021D01*
X119649156Y-133381400D01*
X119649156Y-133660800D01*
X119657101Y-133700743D01*
X119655665Y-133848677D01*
X119649156Y-133881399D01*
X119649156Y-134160799D01*
X119652473Y-134177473D01*
X119650561Y-134374336D01*
X119649156Y-134381401D01*
X119649156Y-134519090D01*
X119630032Y-136488844D01*
X119597173Y-136521703D01*
X119500500Y-136755092D01*
X119500500Y-136792501D01*
X119625867Y-136917868D01*
X119623843Y-137126358D01*
X119500500Y-137249701D01*
X119500500Y-137287110D01*
X119597173Y-137520499D01*
X119619796Y-137543122D01*
X119596712Y-139920815D01*
X119405169Y-139920815D01*
X119391801Y-139918156D01*
X119112401Y-139918156D01*
X119099033Y-139920815D01*
X118905167Y-139920815D01*
X118891799Y-139918156D01*
X118612399Y-139918156D01*
X118599031Y-139920815D01*
X118405168Y-139920815D01*
X118391800Y-139918156D01*
X118112400Y-139918156D01*
X118099032Y-139920815D01*
X117905167Y-139920815D01*
X117891799Y-139918156D01*
X117612399Y-139918156D01*
X117599031Y-139920815D01*
X117405168Y-139920815D01*
X117391800Y-139918156D01*
X117112400Y-139918156D01*
X117099032Y-139920815D01*
X116905169Y-139920815D01*
X116891801Y-139918156D01*
X116612401Y-139918156D01*
X116599033Y-139920815D01*
X116405167Y-139920815D01*
X116391799Y-139918156D01*
X116112399Y-139918156D01*
X116099031Y-139920815D01*
X115905168Y-139920815D01*
X115891800Y-139918156D01*
X115803480Y-139918156D01*
X115751497Y-139866173D01*
X115518108Y-139769500D01*
X115480699Y-139769500D01*
X115379101Y-139871098D01*
X115379101Y-139769500D01*
X115304177Y-139769500D01*
X115265485Y-139711593D01*
X115265485Y-139492369D01*
X115131969Y-139170035D01*
X114885265Y-138923331D01*
X114562931Y-138789815D01*
X114214039Y-138789815D01*
X113891705Y-138923331D01*
X113645001Y-139170035D01*
X113511485Y-139492369D01*
X113511485Y-139841261D01*
X113544437Y-139920815D01*
X113405168Y-139920815D01*
X113391800Y-139918156D01*
X113112400Y-139918156D01*
X113099032Y-139920815D01*
X112905166Y-139920815D01*
X112891798Y-139918156D01*
X112612398Y-139918156D01*
X112599030Y-139920815D01*
X112405167Y-139920815D01*
X112391799Y-139918156D01*
X112112399Y-139918156D01*
X112099031Y-139920815D01*
X111905168Y-139920815D01*
X111891800Y-139918156D01*
X111612400Y-139918156D01*
X111599032Y-139920815D01*
X111405167Y-139920815D01*
X111391799Y-139918156D01*
X111303481Y-139918156D01*
X111251498Y-139866173D01*
X111018109Y-139769500D01*
X110980700Y-139769500D01*
X110829385Y-139920815D01*
X110674815Y-139920815D01*
X110523500Y-139769500D01*
X110486091Y-139769500D01*
X110252702Y-139866173D01*
X110200719Y-139918156D01*
X110112401Y-139918156D01*
X110099033Y-139920815D01*
X109905167Y-139920815D01*
X109891799Y-139918156D01*
X109612399Y-139918156D01*
X109599031Y-139920815D01*
X109405168Y-139920815D01*
X109391800Y-139918156D01*
X109112400Y-139918156D01*
X109099032Y-139920815D01*
X108905167Y-139920815D01*
X108891799Y-139918156D01*
X108612399Y-139918156D01*
X108599031Y-139920815D01*
X108405168Y-139920815D01*
X108391800Y-139918156D01*
X108112400Y-139918156D01*
X108099032Y-139920815D01*
X107905169Y-139920815D01*
X107891801Y-139918156D01*
X107612401Y-139918156D01*
X107599033Y-139920815D01*
X107405167Y-139920815D01*
X107391799Y-139918156D01*
X107112399Y-139918156D01*
X107099031Y-139920815D01*
X106895485Y-139920815D01*
X106895485Y-132097299D01*
X107051239Y-132161815D01*
X107400131Y-132161815D01*
X107722465Y-132028299D01*
X107969169Y-131781595D01*
X108102685Y-131459261D01*
X108102685Y-131110369D01*
X107969169Y-130788035D01*
X107722465Y-130541331D01*
X107400131Y-130407815D01*
X107051239Y-130407815D01*
X107026434Y-130418090D01*
X107021459Y-130417100D01*
X107021458Y-130417100D01*
X107003700Y-130413568D01*
X107003700Y-130394099D01*
X106902102Y-130394099D01*
X107003700Y-130292501D01*
X107003700Y-130255092D01*
X106907027Y-130021703D01*
X106895485Y-130010161D01*
X106895485Y-129895500D01*
X109670600Y-129895500D01*
X109719201Y-129885833D01*
X109760403Y-129858303D01*
X109787933Y-129817101D01*
X109797600Y-129768426D01*
X109797392Y-129412961D01*
X109973291Y-129295429D01*
X110006992Y-129244993D01*
X110637127Y-128614858D01*
X110687561Y-128581159D01*
X110821057Y-128381368D01*
X110856101Y-128205188D01*
X110867934Y-128145700D01*
X110856101Y-128086212D01*
X110856101Y-127181135D01*
X114493213Y-127145823D01*
X114407001Y-127232035D01*
X114273485Y-127554369D01*
X114273485Y-127903261D01*
X114407001Y-128225595D01*
X114653705Y-128472299D01*
X114976039Y-128605815D01*
X115324931Y-128605815D01*
X115647265Y-128472299D01*
X115893969Y-128225595D01*
X116027485Y-127903261D01*
X116027485Y-127706000D01*
X116137126Y-127596359D01*
X116187560Y-127562660D01*
X116321056Y-127362869D01*
X116338992Y-127272700D01*
X116379101Y-127272700D01*
X116379101Y-127171102D01*
X116480699Y-127272700D01*
X116518108Y-127272700D01*
X116751497Y-127176027D01*
X116803480Y-127124044D01*
X116891801Y-127124044D01*
X116899771Y-127122459D01*
X117094906Y-127120564D01*
X117112400Y-127124044D01*
X117391800Y-127124044D01*
X117425427Y-127117355D01*
X117571638Y-127115936D01*
X117612401Y-127124044D01*
X117891801Y-127124044D01*
X117951084Y-127112252D01*
X118048369Y-127111307D01*
X118112400Y-127124044D01*
X118391800Y-127124044D01*
X118476740Y-127107148D01*
X118525099Y-127106679D01*
X118612399Y-127124044D01*
X118891799Y-127124044D01*
X119002100Y-127102104D01*
X119112401Y-127124044D01*
X119391801Y-127124044D01*
X119528054Y-127096942D01*
X119721234Y-127095066D01*
X119720764Y-127143521D01*
G04 #@! TD*
M02*
