G04 #@! TF.GenerationSoftware,KiCad,Pcbnew,6.0.0-rc1-unknown-r13540.595666d46.fc27*
G04 #@! TF.CreationDate,2018-10-03T14:03:05+02:00*
G04 #@! TF.ProjectId,Bricoleur-pcb,427269636F6C6575722D7063622E6B69,rev?*
G04 #@! TF.SameCoordinates,Original*
G04 #@! TF.FileFunction,Legend,Bot*
G04 #@! TF.FilePolarity,Positive*
%FSLAX46Y46*%
G04 Gerber Fmt 4.6, Leading zero omitted, Abs format (unit mm)*
G04 Created by KiCad (PCBNEW 6.0.0-rc1-unknown-r13540.595666d46.fc27) date Wed Oct  3 14:03:05 2018*
%MOMM*%
%LPD*%
G01*
G04 APERTURE LIST*
%ADD10C,0.120000*%
%ADD11C,0.150000*%
G04 APERTURE END LIST*
D10*
G04 #@! TO.C,C5*
X115947085Y-132961717D02*
X115947085Y-133478873D01*
X114527085Y-132961717D02*
X114527085Y-133478873D01*
G04 #@! TO.C,C13*
X110780485Y-134074237D02*
X110780485Y-134591393D01*
X109360485Y-134074237D02*
X109360485Y-134591393D01*
G04 #@! TO.C,C17*
D11*
X118356342Y-136212357D02*
X118403961Y-136259976D01*
X118546818Y-136307595D01*
X118642056Y-136307595D01*
X118784913Y-136259976D01*
X118880151Y-136164738D01*
X118927770Y-136069500D01*
X118975389Y-135879024D01*
X118975389Y-135736167D01*
X118927770Y-135545691D01*
X118880151Y-135450453D01*
X118784913Y-135355215D01*
X118642056Y-135307595D01*
X118546818Y-135307595D01*
X118403961Y-135355215D01*
X118356342Y-135402834D01*
X117403961Y-136307595D02*
X117975389Y-136307595D01*
X117689675Y-136307595D02*
X117689675Y-135307595D01*
X117784913Y-135450453D01*
X117880151Y-135545691D01*
X117975389Y-135593310D01*
X117070627Y-135307595D02*
X116403961Y-135307595D01*
X116832532Y-136307595D01*
G04 #@! TO.C,C5*
X113894727Y-133053628D02*
X113942346Y-133006009D01*
X113989965Y-132863152D01*
X113989965Y-132767914D01*
X113942346Y-132625056D01*
X113847108Y-132529818D01*
X113751870Y-132482199D01*
X113561394Y-132434580D01*
X113418537Y-132434580D01*
X113228061Y-132482199D01*
X113132823Y-132529818D01*
X113037585Y-132625056D01*
X112989965Y-132767914D01*
X112989965Y-132863152D01*
X113037585Y-133006009D01*
X113085204Y-133053628D01*
X112989965Y-133958390D02*
X112989965Y-133482199D01*
X113466156Y-133434580D01*
X113418537Y-133482199D01*
X113370918Y-133577437D01*
X113370918Y-133815533D01*
X113418537Y-133910771D01*
X113466156Y-133958390D01*
X113561394Y-134006009D01*
X113799489Y-134006009D01*
X113894727Y-133958390D01*
X113942346Y-133910771D01*
X113989965Y-133815533D01*
X113989965Y-133577437D01*
X113942346Y-133482199D01*
X113894727Y-133434580D01*
G04 #@! TO.C,C6*
X117550727Y-132799628D02*
X117598346Y-132752009D01*
X117645965Y-132609152D01*
X117645965Y-132513914D01*
X117598346Y-132371056D01*
X117503108Y-132275818D01*
X117407870Y-132228199D01*
X117217394Y-132180580D01*
X117074537Y-132180580D01*
X116884061Y-132228199D01*
X116788823Y-132275818D01*
X116693585Y-132371056D01*
X116645965Y-132513914D01*
X116645965Y-132609152D01*
X116693585Y-132752009D01*
X116741204Y-132799628D01*
X116645965Y-133656771D02*
X116645965Y-133466295D01*
X116693585Y-133371056D01*
X116741204Y-133323437D01*
X116884061Y-133228199D01*
X117074537Y-133180580D01*
X117455489Y-133180580D01*
X117550727Y-133228199D01*
X117598346Y-133275818D01*
X117645965Y-133371056D01*
X117645965Y-133561533D01*
X117598346Y-133656771D01*
X117550727Y-133704390D01*
X117455489Y-133752009D01*
X117217394Y-133752009D01*
X117122156Y-133704390D01*
X117074537Y-133656771D01*
X117026918Y-133561533D01*
X117026918Y-133371056D01*
X117074537Y-133275818D01*
X117122156Y-133228199D01*
X117217394Y-133180580D01*
G04 #@! TO.C,C7*
X119890727Y-127973628D02*
X119938346Y-127926009D01*
X119985965Y-127783152D01*
X119985965Y-127687914D01*
X119938346Y-127545056D01*
X119843108Y-127449818D01*
X119747870Y-127402199D01*
X119557394Y-127354580D01*
X119414537Y-127354580D01*
X119224061Y-127402199D01*
X119128823Y-127449818D01*
X119033585Y-127545056D01*
X118985965Y-127687914D01*
X118985965Y-127783152D01*
X119033585Y-127926009D01*
X119081204Y-127973628D01*
X118985965Y-128306961D02*
X118985965Y-128973628D01*
X119985965Y-128545056D01*
G04 #@! TO.C,C8*
X112396127Y-137722148D02*
X112443746Y-137674529D01*
X112491365Y-137531672D01*
X112491365Y-137436434D01*
X112443746Y-137293576D01*
X112348508Y-137198338D01*
X112253270Y-137150719D01*
X112062794Y-137103100D01*
X111919937Y-137103100D01*
X111729461Y-137150719D01*
X111634223Y-137198338D01*
X111538985Y-137293576D01*
X111491365Y-137436434D01*
X111491365Y-137531672D01*
X111538985Y-137674529D01*
X111586604Y-137722148D01*
X111919937Y-138293576D02*
X111872318Y-138198338D01*
X111824699Y-138150719D01*
X111729461Y-138103100D01*
X111681842Y-138103100D01*
X111586604Y-138150719D01*
X111538985Y-138198338D01*
X111491365Y-138293576D01*
X111491365Y-138484053D01*
X111538985Y-138579291D01*
X111586604Y-138626910D01*
X111681842Y-138674529D01*
X111729461Y-138674529D01*
X111824699Y-138626910D01*
X111872318Y-138579291D01*
X111919937Y-138484053D01*
X111919937Y-138293576D01*
X111967556Y-138198338D01*
X112015175Y-138150719D01*
X112110413Y-138103100D01*
X112300889Y-138103100D01*
X112396127Y-138150719D01*
X112443746Y-138198338D01*
X112491365Y-138293576D01*
X112491365Y-138484053D01*
X112443746Y-138579291D01*
X112396127Y-138626910D01*
X112300889Y-138674529D01*
X112110413Y-138674529D01*
X112015175Y-138626910D01*
X111967556Y-138579291D01*
X111919937Y-138484053D01*
G04 #@! TO.C,C9*
X116244251Y-127989437D02*
X116291870Y-128037056D01*
X116434727Y-128084675D01*
X116529965Y-128084675D01*
X116672823Y-128037056D01*
X116768061Y-127941818D01*
X116815680Y-127846580D01*
X116863299Y-127656104D01*
X116863299Y-127513247D01*
X116815680Y-127322771D01*
X116768061Y-127227533D01*
X116672823Y-127132295D01*
X116529965Y-127084675D01*
X116434727Y-127084675D01*
X116291870Y-127132295D01*
X116244251Y-127179914D01*
X115768061Y-128084675D02*
X115577585Y-128084675D01*
X115482346Y-128037056D01*
X115434727Y-127989437D01*
X115339489Y-127846580D01*
X115291870Y-127656104D01*
X115291870Y-127275152D01*
X115339489Y-127179914D01*
X115387108Y-127132295D01*
X115482346Y-127084675D01*
X115672823Y-127084675D01*
X115768061Y-127132295D01*
X115815680Y-127179914D01*
X115863299Y-127275152D01*
X115863299Y-127513247D01*
X115815680Y-127608485D01*
X115768061Y-127656104D01*
X115672823Y-127703723D01*
X115482346Y-127703723D01*
X115387108Y-127656104D01*
X115339489Y-127608485D01*
X115291870Y-127513247D01*
G04 #@! TO.C,C10*
X117736442Y-131545437D02*
X117784061Y-131593056D01*
X117926918Y-131640675D01*
X118022156Y-131640675D01*
X118165013Y-131593056D01*
X118260251Y-131497818D01*
X118307870Y-131402580D01*
X118355489Y-131212104D01*
X118355489Y-131069247D01*
X118307870Y-130878771D01*
X118260251Y-130783533D01*
X118165013Y-130688295D01*
X118022156Y-130640675D01*
X117926918Y-130640675D01*
X117784061Y-130688295D01*
X117736442Y-130735914D01*
X116784061Y-131640675D02*
X117355489Y-131640675D01*
X117069775Y-131640675D02*
X117069775Y-130640675D01*
X117165013Y-130783533D01*
X117260251Y-130878771D01*
X117355489Y-130926390D01*
X116165013Y-130640675D02*
X116069775Y-130640675D01*
X115974537Y-130688295D01*
X115926918Y-130735914D01*
X115879299Y-130831152D01*
X115831680Y-131021628D01*
X115831680Y-131259723D01*
X115879299Y-131450199D01*
X115926918Y-131545437D01*
X115974537Y-131593056D01*
X116069775Y-131640675D01*
X116165013Y-131640675D01*
X116260251Y-131593056D01*
X116307870Y-131545437D01*
X116355489Y-131450199D01*
X116403108Y-131259723D01*
X116403108Y-131021628D01*
X116355489Y-130831152D01*
X116307870Y-130735914D01*
X116260251Y-130688295D01*
X116165013Y-130640675D01*
G04 #@! TO.C,C11*
X115285342Y-137837957D02*
X115332961Y-137885576D01*
X115475818Y-137933195D01*
X115571056Y-137933195D01*
X115713913Y-137885576D01*
X115809151Y-137790338D01*
X115856770Y-137695100D01*
X115904389Y-137504624D01*
X115904389Y-137361767D01*
X115856770Y-137171291D01*
X115809151Y-137076053D01*
X115713913Y-136980815D01*
X115571056Y-136933195D01*
X115475818Y-136933195D01*
X115332961Y-136980815D01*
X115285342Y-137028434D01*
X114332961Y-137933195D02*
X114904389Y-137933195D01*
X114618675Y-137933195D02*
X114618675Y-136933195D01*
X114713913Y-137076053D01*
X114809151Y-137171291D01*
X114904389Y-137218910D01*
X113380580Y-137933195D02*
X113952008Y-137933195D01*
X113666294Y-137933195D02*
X113666294Y-136933195D01*
X113761532Y-137076053D01*
X113856770Y-137171291D01*
X113952008Y-137218910D01*
G04 #@! TO.C,C12*
X107581227Y-129879957D02*
X107628846Y-129832338D01*
X107676465Y-129689481D01*
X107676465Y-129594243D01*
X107628846Y-129451386D01*
X107533608Y-129356148D01*
X107438370Y-129308529D01*
X107247894Y-129260910D01*
X107105037Y-129260910D01*
X106914561Y-129308529D01*
X106819323Y-129356148D01*
X106724085Y-129451386D01*
X106676465Y-129594243D01*
X106676465Y-129689481D01*
X106724085Y-129832338D01*
X106771704Y-129879957D01*
X107676465Y-130832338D02*
X107676465Y-130260910D01*
X107676465Y-130546624D02*
X106676465Y-130546624D01*
X106819323Y-130451386D01*
X106914561Y-130356148D01*
X106962180Y-130260910D01*
X106771704Y-131213291D02*
X106724085Y-131260910D01*
X106676465Y-131356148D01*
X106676465Y-131594243D01*
X106724085Y-131689481D01*
X106771704Y-131737100D01*
X106866942Y-131784719D01*
X106962180Y-131784719D01*
X107105037Y-131737100D01*
X107676465Y-131165672D01*
X107676465Y-131784719D01*
G04 #@! TO.C,C13*
X108777627Y-133689957D02*
X108825246Y-133642338D01*
X108872865Y-133499481D01*
X108872865Y-133404243D01*
X108825246Y-133261386D01*
X108730008Y-133166148D01*
X108634770Y-133118529D01*
X108444294Y-133070910D01*
X108301437Y-133070910D01*
X108110961Y-133118529D01*
X108015723Y-133166148D01*
X107920485Y-133261386D01*
X107872865Y-133404243D01*
X107872865Y-133499481D01*
X107920485Y-133642338D01*
X107968104Y-133689957D01*
X108872865Y-134642338D02*
X108872865Y-134070910D01*
X108872865Y-134356624D02*
X107872865Y-134356624D01*
X108015723Y-134261386D01*
X108110961Y-134166148D01*
X108158580Y-134070910D01*
X107872865Y-134975672D02*
X107872865Y-135594719D01*
X108253818Y-135261386D01*
X108253818Y-135404243D01*
X108301437Y-135499481D01*
X108349056Y-135547100D01*
X108444294Y-135594719D01*
X108682389Y-135594719D01*
X108777627Y-135547100D01*
X108825246Y-135499481D01*
X108872865Y-135404243D01*
X108872865Y-135118529D01*
X108825246Y-135023291D01*
X108777627Y-134975672D01*
G04 #@! TO.C,R4*
X113704251Y-128084675D02*
X114037585Y-127608485D01*
X114275680Y-128084675D02*
X114275680Y-127084675D01*
X113894727Y-127084675D01*
X113799489Y-127132295D01*
X113751870Y-127179914D01*
X113704251Y-127275152D01*
X113704251Y-127418009D01*
X113751870Y-127513247D01*
X113799489Y-127560866D01*
X113894727Y-127608485D01*
X114275680Y-127608485D01*
X112847108Y-127418009D02*
X112847108Y-128084675D01*
X113085204Y-127037056D02*
X113323299Y-127751342D01*
X112704251Y-127751342D01*
G04 #@! TO.C,L2*
X112688251Y-132148675D02*
X113164442Y-132148675D01*
X113164442Y-131148675D01*
X112402537Y-131243914D02*
X112354918Y-131196295D01*
X112259680Y-131148675D01*
X112021585Y-131148675D01*
X111926346Y-131196295D01*
X111878727Y-131243914D01*
X111831108Y-131339152D01*
X111831108Y-131434390D01*
X111878727Y-131577247D01*
X112450156Y-132148675D01*
X111831108Y-132148675D01*
G04 #@! TD*
M02*
