G04 #@! TF.GenerationSoftware,KiCad,Pcbnew,6.0.0-rc1-unknown-r13540.595666d46.fc27*
G04 #@! TF.CreationDate,2018-10-03T14:03:05+02:00*
G04 #@! TF.ProjectId,Bricoleur-pcb,427269636F6C6575722D7063622E6B69,rev?*
G04 #@! TF.SameCoordinates,Original*
G04 #@! TF.FileFunction,Copper,L2,Bot,Signal*
G04 #@! TF.FilePolarity,Positive*
%FSLAX46Y46*%
G04 Gerber Fmt 4.6, Leading zero omitted, Abs format (unit mm)*
G04 Created by KiCad (PCBNEW 6.0.0-rc1-unknown-r13540.595666d46.fc27) date Wed Oct  3 14:03:05 2018*
%MOMM*%
%LPD*%
G01*
G04 APERTURE LIST*
G04 #@! TA.AperFunction,ComponentPad*
%ADD10O,1.727200X1.727200*%
G04 #@! TD*
G04 #@! TA.AperFunction,ComponentPad*
%ADD11R,1.727200X1.727200*%
G04 #@! TD*
G04 #@! TA.AperFunction,ComponentPad*
%ADD12C,1.500000*%
G04 #@! TD*
G04 #@! TA.AperFunction,ComponentPad*
%ADD13C,1.727200*%
G04 #@! TD*
G04 #@! TA.AperFunction,ComponentPad*
%ADD14O,1.700000X1.700000*%
G04 #@! TD*
G04 #@! TA.AperFunction,ComponentPad*
%ADD15R,1.700000X1.700000*%
G04 #@! TD*
G04 #@! TA.AperFunction,ComponentPad*
%ADD16O,1.100000X1.500000*%
G04 #@! TD*
G04 #@! TA.AperFunction,ComponentPad*
%ADD17O,1.350000X1.700000*%
G04 #@! TD*
G04 #@! TA.AperFunction,Conductor*
%ADD18C,0.100000*%
G04 #@! TD*
G04 #@! TA.AperFunction,SMDPad,CuDef*
%ADD19C,0.590000*%
G04 #@! TD*
G04 #@! TA.AperFunction,SMDPad,CuDef*
%ADD20C,0.975000*%
G04 #@! TD*
G04 #@! TA.AperFunction,SMDPad,CuDef*
%ADD21R,0.700000X0.700000*%
G04 #@! TD*
G04 #@! TA.AperFunction,ViaPad*
%ADD22C,0.800000*%
G04 #@! TD*
G04 #@! TA.AperFunction,Conductor*
%ADD23C,0.254000*%
G04 #@! TD*
G04 #@! TA.AperFunction,Conductor*
%ADD24C,0.635000*%
G04 #@! TD*
G04 #@! TA.AperFunction,Conductor*
%ADD25C,0.500000*%
G04 #@! TD*
G04 APERTURE END LIST*
D10*
G04 #@! TO.P,U8,6*
G04 #@! TO.N,/Sheet5BB71F0E/INP*
X96996100Y-135426100D03*
G04 #@! TO.P,U8,5*
G04 #@! TO.N,GND*
X94456100Y-135426100D03*
G04 #@! TO.P,U8,4*
G04 #@! TO.N,/sheet5BB7B6EA/INP*
X96996100Y-132886100D03*
G04 #@! TO.P,U8,3*
G04 #@! TO.N,GND*
X94456100Y-132886100D03*
G04 #@! TO.P,U8,2*
G04 #@! TO.N,DH_TCK_SWCLK*
X96996100Y-130346100D03*
D11*
G04 #@! TO.P,U8,1*
G04 #@! TO.N,GND*
X94456100Y-130346100D03*
G04 #@! TD*
D12*
G04 #@! TO.P,U11,4*
G04 #@! TO.N,Net-(U11-Pad4)*
X91634600Y-147644500D03*
X88334600Y-147644500D03*
G04 #@! TO.P,U11,3*
G04 #@! TO.N,PYNQ_3V3*
X91634600Y-149644500D03*
G04 #@! TO.P,U11,2*
G04 #@! TO.N,Net-(C1-Pad2)*
X91634600Y-151644500D03*
G04 #@! TO.P,U11,1*
G04 #@! TO.N,VMCU*
X91634600Y-153644500D03*
G04 #@! TO.P,U11,3*
G04 #@! TO.N,PYNQ_3V3*
X88334600Y-149644500D03*
G04 #@! TO.P,U11,2*
G04 #@! TO.N,Net-(C1-Pad2)*
X88334600Y-151644500D03*
G04 #@! TO.P,U11,1*
G04 #@! TO.N,VMCU*
X88334600Y-153644500D03*
G04 #@! TD*
D11*
G04 #@! TO.P,J3,1*
G04 #@! TO.N,/US0_TX*
X93795700Y-114020500D03*
D10*
G04 #@! TO.P,J3,2*
G04 #@! TO.N,GND*
X93795700Y-116560500D03*
G04 #@! TO.P,J3,3*
G04 #@! TO.N,/US0_RX*
X91255700Y-114020500D03*
G04 #@! TO.P,J3,4*
G04 #@! TO.N,GND*
X91255700Y-116560500D03*
G04 #@! TO.P,J3,5*
G04 #@! TO.N,/US0_CLK*
X88715700Y-114020500D03*
G04 #@! TO.P,J3,6*
G04 #@! TO.N,GND*
X88715700Y-116560500D03*
G04 #@! TD*
D13*
G04 #@! TO.P,U2,12*
G04 #@! TO.N,N/C*
X60577647Y-157258115D03*
G04 #@! TO.P,U2,11*
X58037647Y-157258115D03*
G04 #@! TO.P,U2,10*
X55497647Y-157258115D03*
G04 #@! TO.P,U2,8*
X60589979Y-159692907D03*
G04 #@! TO.P,U2,7*
G04 #@! TO.N,GND*
X58049979Y-159692907D03*
G04 #@! TO.P,U2,6*
X55509979Y-159692907D03*
G04 #@! TO.P,U2,5*
G04 #@! TO.N,N/C*
X52969979Y-159692907D03*
G04 #@! TO.P,U2,4*
G04 #@! TO.N,PYNQ_3V3*
X50429979Y-159692907D03*
G04 #@! TO.P,U2,3*
G04 #@! TO.N,N/C*
X47889979Y-159692907D03*
G04 #@! TO.P,U2,2*
X45349979Y-159692907D03*
G04 #@! TO.P,U2,43*
G04 #@! TO.N,/US0_RX*
X60577647Y-111423815D03*
G04 #@! TO.P,U2,13*
G04 #@! TO.N,N/C*
X65657647Y-159798115D03*
G04 #@! TO.P,U2,25*
X33665979Y-111432907D03*
G04 #@! TO.P,U2,35*
G04 #@! TO.N,/CAM1_SCL*
X38745979Y-113972907D03*
G04 #@! TO.P,U2,1*
G04 #@! TO.N,N/C*
X42809979Y-159692907D03*
G04 #@! TO.P,U2,9*
X52957647Y-157258115D03*
G04 #@! TO.P,U2,14*
X68197647Y-159798115D03*
G04 #@! TO.P,U2,15*
X70737647Y-159798115D03*
G04 #@! TO.P,U2,16*
X73277647Y-159798115D03*
G04 #@! TO.P,U2,17*
X75817647Y-159798115D03*
G04 #@! TO.P,U2,18*
X78357647Y-159798115D03*
G04 #@! TO.P,U2,19*
X65657647Y-157258115D03*
G04 #@! TO.P,U2,20*
X68197647Y-157258115D03*
G04 #@! TO.P,U2,21*
X70737647Y-157258115D03*
G04 #@! TO.P,U2,22*
X73277647Y-157258115D03*
G04 #@! TO.P,U2,23*
X75817647Y-157258115D03*
G04 #@! TO.P,U2,24*
X78357647Y-157258115D03*
G04 #@! TO.P,U2,26*
X36205979Y-111432907D03*
G04 #@! TO.P,U2,27*
G04 #@! TO.N,/CAM1_SDATA*
X38745979Y-111432907D03*
G04 #@! TO.P,U2,28*
G04 #@! TO.N,N/C*
X41285979Y-111432907D03*
G04 #@! TO.P,U2,29*
G04 #@! TO.N,/CAM1_VSYNC*
X43825979Y-111432907D03*
G04 #@! TO.P,U2,30*
G04 #@! TO.N,/CAM1_DOUT8*
X46365979Y-111432907D03*
G04 #@! TO.P,U2,31*
G04 #@! TO.N,/CAM1_DOUT6*
X48905979Y-111432907D03*
G04 #@! TO.P,U2,32*
G04 #@! TO.N,/CAM1_DOUT4*
X51445979Y-111432907D03*
G04 #@! TO.P,U2,33*
G04 #@! TO.N,/CAM1_DOUT2*
X53985979Y-111432907D03*
G04 #@! TO.P,U2,34*
G04 #@! TO.N,N/C*
X56525979Y-111432907D03*
G04 #@! TO.P,U2,36*
G04 #@! TO.N,/CAM1_HREF*
X41285979Y-113972907D03*
G04 #@! TO.P,U2,37*
G04 #@! TO.N,/CAM1_PCLK*
X43825979Y-113972907D03*
G04 #@! TO.P,U2,38*
G04 #@! TO.N,/CAM1_DOUT9*
X46365979Y-113972907D03*
G04 #@! TO.P,U2,39*
G04 #@! TO.N,/CAM1_DOUT7*
X48905979Y-113972907D03*
G04 #@! TO.P,U2,40*
G04 #@! TO.N,/CAM1_DOUT5*
X51445979Y-113972907D03*
G04 #@! TO.P,U2,41*
G04 #@! TO.N,/CAM1_DOUT3*
X53985979Y-113972907D03*
G04 #@! TO.P,U2,42*
G04 #@! TO.N,/CAM_CLK*
X56525979Y-113972907D03*
G04 #@! TO.P,U2,44*
G04 #@! TO.N,/CAM0_DOUT2*
X63117647Y-111423815D03*
G04 #@! TO.P,U2,45*
G04 #@! TO.N,/CAM0_DOUT5*
X65657647Y-111423815D03*
G04 #@! TO.P,U2,46*
G04 #@! TO.N,/US0_CLK*
X68197647Y-111423815D03*
G04 #@! TO.P,U2,47*
G04 #@! TO.N,/CAM0_DOUT7*
X70737647Y-111423815D03*
G04 #@! TO.P,U2,48*
G04 #@! TO.N,/CAM0_DOUT9*
X73277647Y-111423815D03*
G04 #@! TO.P,U2,49*
G04 #@! TO.N,/CAM0_VSYNC*
X75817647Y-111423815D03*
G04 #@! TO.P,U2,50*
G04 #@! TO.N,/CAM0_SCL*
X78357647Y-111423815D03*
G04 #@! TO.P,U2,51*
G04 #@! TO.N,/US0_TX*
X60577647Y-113963815D03*
G04 #@! TO.P,U2,52*
G04 #@! TO.N,/CAM0_DOUT4*
X63117647Y-113963815D03*
G04 #@! TO.P,U2,53*
G04 #@! TO.N,/CAM0_DOUT3*
X65657647Y-113963815D03*
G04 #@! TO.P,U2,54*
G04 #@! TO.N,/CAM0_DOUT6*
X68197647Y-113963815D03*
G04 #@! TO.P,U2,55*
G04 #@! TO.N,/CAM0_DOUT8*
X70737647Y-113963815D03*
G04 #@! TO.P,U2,56*
G04 #@! TO.N,/CAM0_PCLK*
X73277647Y-113963815D03*
G04 #@! TO.P,U2,57*
G04 #@! TO.N,/CAM0_HREF*
X75817647Y-113963815D03*
G04 #@! TO.P,U2,58*
G04 #@! TO.N,/CAM0_SDATA*
X78357647Y-113963815D03*
G04 #@! TD*
D10*
G04 #@! TO.P,U5,20*
G04 #@! TO.N,N/C*
X51559711Y-124184663D03*
G04 #@! TO.P,U5,19*
X54099711Y-124184663D03*
G04 #@! TO.P,U5,18*
X51559711Y-126724663D03*
G04 #@! TO.P,U5,17*
G04 #@! TO.N,GND*
X54099711Y-126724663D03*
G04 #@! TO.P,U5,16*
G04 #@! TO.N,/CAM1_DOUT2*
X51559711Y-129264663D03*
G04 #@! TO.P,U5,15*
G04 #@! TO.N,/CAM1_DOUT3*
X54099711Y-129264663D03*
G04 #@! TO.P,U5,14*
G04 #@! TO.N,/CAM1_DOUT4*
X51559711Y-131804663D03*
G04 #@! TO.P,U5,13*
G04 #@! TO.N,/CAM1_DOUT5*
X54099711Y-131804663D03*
G04 #@! TO.P,U5,12*
G04 #@! TO.N,/CAM1_DOUT6*
X51559711Y-134344663D03*
G04 #@! TO.P,U5,11*
G04 #@! TO.N,/CAM1_DOUT7*
X54099711Y-134344663D03*
G04 #@! TO.P,U5,10*
G04 #@! TO.N,/CAM1_DOUT8*
X51559711Y-136884663D03*
G04 #@! TO.P,U5,9*
G04 #@! TO.N,/CAM1_DOUT9*
X54099711Y-136884663D03*
G04 #@! TO.P,U5,8*
G04 #@! TO.N,/CAM_CLK*
X51559711Y-139424663D03*
G04 #@! TO.P,U5,7*
G04 #@! TO.N,/CAM1_PCLK*
X54099711Y-139424663D03*
G04 #@! TO.P,U5,6*
G04 #@! TO.N,/CAM1_HREF*
X51559711Y-141964663D03*
G04 #@! TO.P,U5,5*
G04 #@! TO.N,/CAM1_VSYNC*
X54099711Y-141964663D03*
G04 #@! TO.P,U5,4*
G04 #@! TO.N,/CAM1_SDATA*
X51559711Y-144504663D03*
G04 #@! TO.P,U5,3*
G04 #@! TO.N,/CAM1_SCL*
X54099711Y-144504663D03*
G04 #@! TO.P,U5,2*
G04 #@! TO.N,GND*
X51559711Y-147044663D03*
D11*
G04 #@! TO.P,U5,1*
G04 #@! TO.N,PYNQ_3V3*
X54099711Y-147044663D03*
G04 #@! TD*
D10*
G04 #@! TO.P,U6,20*
G04 #@! TO.N,N/C*
X64259711Y-124184663D03*
G04 #@! TO.P,U6,19*
X66799711Y-124184663D03*
G04 #@! TO.P,U6,18*
X64259711Y-126724663D03*
G04 #@! TO.P,U6,17*
G04 #@! TO.N,GND*
X66799711Y-126724663D03*
G04 #@! TO.P,U6,16*
G04 #@! TO.N,/CAM0_DOUT2*
X64259711Y-129264663D03*
G04 #@! TO.P,U6,15*
G04 #@! TO.N,/CAM0_DOUT3*
X66799711Y-129264663D03*
G04 #@! TO.P,U6,14*
G04 #@! TO.N,/CAM0_DOUT4*
X64259711Y-131804663D03*
G04 #@! TO.P,U6,13*
G04 #@! TO.N,/CAM0_DOUT5*
X66799711Y-131804663D03*
G04 #@! TO.P,U6,12*
G04 #@! TO.N,/CAM0_DOUT6*
X64259711Y-134344663D03*
G04 #@! TO.P,U6,11*
G04 #@! TO.N,/CAM0_DOUT7*
X66799711Y-134344663D03*
G04 #@! TO.P,U6,10*
G04 #@! TO.N,/CAM0_DOUT8*
X64259711Y-136884663D03*
G04 #@! TO.P,U6,9*
G04 #@! TO.N,/CAM0_DOUT9*
X66799711Y-136884663D03*
G04 #@! TO.P,U6,8*
G04 #@! TO.N,/CAM_CLK*
X64259711Y-139424663D03*
G04 #@! TO.P,U6,7*
G04 #@! TO.N,/CAM0_PCLK*
X66799711Y-139424663D03*
G04 #@! TO.P,U6,6*
G04 #@! TO.N,/CAM0_HREF*
X64259711Y-141964663D03*
G04 #@! TO.P,U6,5*
G04 #@! TO.N,/CAM0_VSYNC*
X66799711Y-141964663D03*
G04 #@! TO.P,U6,4*
G04 #@! TO.N,/CAM0_SDATA*
X64259711Y-144504663D03*
G04 #@! TO.P,U6,3*
G04 #@! TO.N,/CAM0_SCL*
X66799711Y-144504663D03*
G04 #@! TO.P,U6,2*
G04 #@! TO.N,GND*
X64259711Y-147044663D03*
D11*
G04 #@! TO.P,U6,1*
G04 #@! TO.N,PYNQ_3V3*
X66799711Y-147044663D03*
G04 #@! TD*
D10*
G04 #@! TO.P,U3,6*
G04 #@! TO.N,GND*
X112998100Y-155279500D03*
G04 #@! TO.P,U3,5*
G04 #@! TO.N,VMCU*
X115538100Y-155279500D03*
G04 #@! TO.P,U3,4*
G04 #@! TO.N,N/C*
X112998100Y-157819500D03*
G04 #@! TO.P,U3,3*
G04 #@! TO.N,/Ultra/RX1*
X115538100Y-157819500D03*
G04 #@! TO.P,U3,2*
G04 #@! TO.N,N/C*
X112998100Y-160359500D03*
D11*
G04 #@! TO.P,U3,1*
G04 #@! TO.N,PULSE*
X115538100Y-160359500D03*
G04 #@! TD*
D14*
G04 #@! TO.P,TP1,2*
G04 #@! TO.N,GND*
X83254600Y-151104500D03*
D15*
G04 #@! TO.P,TP1,1*
G04 #@! TO.N,VMCU*
X83254600Y-153644500D03*
G04 #@! TD*
D16*
G04 #@! TO.P,J1,6*
G04 #@! TO.N,GND*
X107543600Y-107523500D03*
X102703600Y-107523500D03*
D17*
X107853600Y-104523500D03*
X102393600Y-104523500D03*
G04 #@! TD*
D10*
G04 #@! TO.P,U4,6*
G04 #@! TO.N,GND*
X122796100Y-155533500D03*
G04 #@! TO.P,U4,5*
G04 #@! TO.N,VMCU*
X125336100Y-155533500D03*
G04 #@! TO.P,U4,4*
G04 #@! TO.N,N/C*
X122796100Y-158073500D03*
G04 #@! TO.P,U4,3*
G04 #@! TO.N,/Ultra/RX2*
X125336100Y-158073500D03*
G04 #@! TO.P,U4,2*
G04 #@! TO.N,N/C*
X122796100Y-160613500D03*
D11*
G04 #@! TO.P,U4,1*
G04 #@! TO.N,PULSE*
X125336100Y-160613500D03*
G04 #@! TD*
D10*
G04 #@! TO.P,J4,6*
G04 #@! TO.N,GND*
X139908750Y-160104510D03*
G04 #@! TO.P,J4,5*
G04 #@! TO.N,/US1_CLK*
X139908750Y-162644510D03*
G04 #@! TO.P,J4,4*
G04 #@! TO.N,GND*
X137368750Y-160104510D03*
G04 #@! TO.P,J4,3*
G04 #@! TO.N,/US1_RX*
X137368750Y-162644510D03*
G04 #@! TO.P,J4,2*
G04 #@! TO.N,GND*
X134828750Y-160104510D03*
D11*
G04 #@! TO.P,J4,1*
G04 #@! TO.N,/US1_TX*
X134828750Y-162644510D03*
G04 #@! TD*
D18*
G04 #@! TO.N,VMCU*
G04 #@! TO.C,C17*
G36*
X118360443Y-136705925D02*
X118374761Y-136708049D01*
X118388802Y-136711566D01*
X118402431Y-136716443D01*
X118415516Y-136722632D01*
X118427932Y-136730073D01*
X118439558Y-136738696D01*
X118450283Y-136748417D01*
X118460004Y-136759142D01*
X118468627Y-136770768D01*
X118476068Y-136783184D01*
X118482257Y-136796269D01*
X118487134Y-136809898D01*
X118490651Y-136823939D01*
X118492775Y-136838257D01*
X118493485Y-136852715D01*
X118493485Y-137197715D01*
X118492775Y-137212173D01*
X118490651Y-137226491D01*
X118487134Y-137240532D01*
X118482257Y-137254161D01*
X118476068Y-137267246D01*
X118468627Y-137279662D01*
X118460004Y-137291288D01*
X118450283Y-137302013D01*
X118439558Y-137311734D01*
X118427932Y-137320357D01*
X118415516Y-137327798D01*
X118402431Y-137333987D01*
X118388802Y-137338864D01*
X118374761Y-137342381D01*
X118360443Y-137344505D01*
X118345985Y-137345215D01*
X118050985Y-137345215D01*
X118036527Y-137344505D01*
X118022209Y-137342381D01*
X118008168Y-137338864D01*
X117994539Y-137333987D01*
X117981454Y-137327798D01*
X117969038Y-137320357D01*
X117957412Y-137311734D01*
X117946687Y-137302013D01*
X117936966Y-137291288D01*
X117928343Y-137279662D01*
X117920902Y-137267246D01*
X117914713Y-137254161D01*
X117909836Y-137240532D01*
X117906319Y-137226491D01*
X117904195Y-137212173D01*
X117903485Y-137197715D01*
X117903485Y-136852715D01*
X117904195Y-136838257D01*
X117906319Y-136823939D01*
X117909836Y-136809898D01*
X117914713Y-136796269D01*
X117920902Y-136783184D01*
X117928343Y-136770768D01*
X117936966Y-136759142D01*
X117946687Y-136748417D01*
X117957412Y-136738696D01*
X117969038Y-136730073D01*
X117981454Y-136722632D01*
X117994539Y-136716443D01*
X118008168Y-136711566D01*
X118022209Y-136708049D01*
X118036527Y-136705925D01*
X118050985Y-136705215D01*
X118345985Y-136705215D01*
X118360443Y-136705925D01*
X118360443Y-136705925D01*
G37*
D19*
G04 #@! TD*
G04 #@! TO.P,C17,1*
G04 #@! TO.N,VMCU*
X118198485Y-137025215D03*
D18*
G04 #@! TO.N,GND*
G04 #@! TO.C,C17*
G36*
X117390443Y-136705925D02*
X117404761Y-136708049D01*
X117418802Y-136711566D01*
X117432431Y-136716443D01*
X117445516Y-136722632D01*
X117457932Y-136730073D01*
X117469558Y-136738696D01*
X117480283Y-136748417D01*
X117490004Y-136759142D01*
X117498627Y-136770768D01*
X117506068Y-136783184D01*
X117512257Y-136796269D01*
X117517134Y-136809898D01*
X117520651Y-136823939D01*
X117522775Y-136838257D01*
X117523485Y-136852715D01*
X117523485Y-137197715D01*
X117522775Y-137212173D01*
X117520651Y-137226491D01*
X117517134Y-137240532D01*
X117512257Y-137254161D01*
X117506068Y-137267246D01*
X117498627Y-137279662D01*
X117490004Y-137291288D01*
X117480283Y-137302013D01*
X117469558Y-137311734D01*
X117457932Y-137320357D01*
X117445516Y-137327798D01*
X117432431Y-137333987D01*
X117418802Y-137338864D01*
X117404761Y-137342381D01*
X117390443Y-137344505D01*
X117375985Y-137345215D01*
X117080985Y-137345215D01*
X117066527Y-137344505D01*
X117052209Y-137342381D01*
X117038168Y-137338864D01*
X117024539Y-137333987D01*
X117011454Y-137327798D01*
X116999038Y-137320357D01*
X116987412Y-137311734D01*
X116976687Y-137302013D01*
X116966966Y-137291288D01*
X116958343Y-137279662D01*
X116950902Y-137267246D01*
X116944713Y-137254161D01*
X116939836Y-137240532D01*
X116936319Y-137226491D01*
X116934195Y-137212173D01*
X116933485Y-137197715D01*
X116933485Y-136852715D01*
X116934195Y-136838257D01*
X116936319Y-136823939D01*
X116939836Y-136809898D01*
X116944713Y-136796269D01*
X116950902Y-136783184D01*
X116958343Y-136770768D01*
X116966966Y-136759142D01*
X116976687Y-136748417D01*
X116987412Y-136738696D01*
X116999038Y-136730073D01*
X117011454Y-136722632D01*
X117024539Y-136716443D01*
X117038168Y-136711566D01*
X117052209Y-136708049D01*
X117066527Y-136705925D01*
X117080985Y-136705215D01*
X117375985Y-136705215D01*
X117390443Y-136705925D01*
X117390443Y-136705925D01*
G37*
D19*
G04 #@! TD*
G04 #@! TO.P,C17,2*
G04 #@! TO.N,GND*
X117228485Y-137025215D03*
D10*
G04 #@! TO.P,U1,6*
G04 #@! TO.N,GND*
X103238100Y-155152500D03*
G04 #@! TO.P,U1,5*
G04 #@! TO.N,VMCU*
X105778100Y-155152500D03*
G04 #@! TO.P,U1,4*
G04 #@! TO.N,N/C*
X103238100Y-157692500D03*
G04 #@! TO.P,U1,3*
G04 #@! TO.N,/Ultra/RX0*
X105778100Y-157692500D03*
G04 #@! TO.P,U1,2*
G04 #@! TO.N,N/C*
X103238100Y-160232500D03*
D11*
G04 #@! TO.P,U1,1*
G04 #@! TO.N,PULSE*
X105778100Y-160232500D03*
G04 #@! TD*
D10*
G04 #@! TO.P,J2,20*
G04 #@! TO.N,GND*
X139642600Y-111480500D03*
G04 #@! TO.P,J2,19*
G04 #@! TO.N,Net-(J2-Pad19)*
X139642600Y-114020500D03*
G04 #@! TO.P,J2,18*
G04 #@! TO.N,DEBUG_EXT_CABLE_ATTACH*
X137102600Y-111480500D03*
G04 #@! TO.P,J2,17*
G04 #@! TO.N,Net-(J2-Pad17)*
X137102600Y-114020500D03*
G04 #@! TO.P,J2,16*
G04 #@! TO.N,GND*
X134562600Y-111480500D03*
G04 #@! TO.P,J2,15*
G04 #@! TO.N,DH_#RESET*
X134562600Y-114020500D03*
G04 #@! TO.P,J2,14*
G04 #@! TO.N,GND*
X132022600Y-111480500D03*
G04 #@! TO.P,J2,13*
G04 #@! TO.N,DH_TDO_SWO*
X132022600Y-114020500D03*
G04 #@! TO.P,J2,12*
G04 #@! TO.N,GND*
X129482600Y-111480500D03*
G04 #@! TO.P,J2,11*
G04 #@! TO.N,Net-(J2-Pad11)*
X129482600Y-114020500D03*
G04 #@! TO.P,J2,10*
G04 #@! TO.N,GND*
X126942600Y-111480500D03*
G04 #@! TO.P,J2,9*
G04 #@! TO.N,DH_TCK_SWCLK*
X126942600Y-114020500D03*
G04 #@! TO.P,J2,8*
G04 #@! TO.N,GND*
X124402600Y-111480500D03*
G04 #@! TO.P,J2,7*
G04 #@! TO.N,DH_TMS_SWDIO*
X124402600Y-114020500D03*
G04 #@! TO.P,J2,6*
G04 #@! TO.N,GND*
X121862600Y-111480500D03*
G04 #@! TO.P,J2,5*
G04 #@! TO.N,N/C*
X121862600Y-114020500D03*
G04 #@! TO.P,J2,4*
G04 #@! TO.N,GND*
X119322600Y-111480500D03*
G04 #@! TO.P,J2,3*
G04 #@! TO.N,N/C*
X119322600Y-114020500D03*
G04 #@! TO.P,J2,2*
X116782600Y-111480500D03*
D11*
G04 #@! TO.P,J2,1*
G04 #@! TO.N,VMCU*
X116782600Y-114020500D03*
G04 #@! TD*
D18*
G04 #@! TO.N,GND*
G04 #@! TO.C,C5*
G36*
X115717227Y-133671469D02*
X115740888Y-133674979D01*
X115764092Y-133680791D01*
X115786614Y-133688849D01*
X115808238Y-133699077D01*
X115828755Y-133711374D01*
X115847968Y-133725624D01*
X115865692Y-133741688D01*
X115881756Y-133759412D01*
X115896006Y-133778625D01*
X115908303Y-133799142D01*
X115918531Y-133820766D01*
X115926589Y-133843288D01*
X115932401Y-133866492D01*
X115935911Y-133890153D01*
X115937085Y-133914045D01*
X115937085Y-134401545D01*
X115935911Y-134425437D01*
X115932401Y-134449098D01*
X115926589Y-134472302D01*
X115918531Y-134494824D01*
X115908303Y-134516448D01*
X115896006Y-134536965D01*
X115881756Y-134556178D01*
X115865692Y-134573902D01*
X115847968Y-134589966D01*
X115828755Y-134604216D01*
X115808238Y-134616513D01*
X115786614Y-134626741D01*
X115764092Y-134634799D01*
X115740888Y-134640611D01*
X115717227Y-134644121D01*
X115693335Y-134645295D01*
X114780835Y-134645295D01*
X114756943Y-134644121D01*
X114733282Y-134640611D01*
X114710078Y-134634799D01*
X114687556Y-134626741D01*
X114665932Y-134616513D01*
X114645415Y-134604216D01*
X114626202Y-134589966D01*
X114608478Y-134573902D01*
X114592414Y-134556178D01*
X114578164Y-134536965D01*
X114565867Y-134516448D01*
X114555639Y-134494824D01*
X114547581Y-134472302D01*
X114541769Y-134449098D01*
X114538259Y-134425437D01*
X114537085Y-134401545D01*
X114537085Y-133914045D01*
X114538259Y-133890153D01*
X114541769Y-133866492D01*
X114547581Y-133843288D01*
X114555639Y-133820766D01*
X114565867Y-133799142D01*
X114578164Y-133778625D01*
X114592414Y-133759412D01*
X114608478Y-133741688D01*
X114626202Y-133725624D01*
X114645415Y-133711374D01*
X114665932Y-133699077D01*
X114687556Y-133688849D01*
X114710078Y-133680791D01*
X114733282Y-133674979D01*
X114756943Y-133671469D01*
X114780835Y-133670295D01*
X115693335Y-133670295D01*
X115717227Y-133671469D01*
X115717227Y-133671469D01*
G37*
D20*
G04 #@! TD*
G04 #@! TO.P,C5,2*
G04 #@! TO.N,GND*
X115237085Y-134157795D03*
D18*
G04 #@! TO.N,/AVDDU7*
G04 #@! TO.C,C5*
G36*
X115717227Y-131796469D02*
X115740888Y-131799979D01*
X115764092Y-131805791D01*
X115786614Y-131813849D01*
X115808238Y-131824077D01*
X115828755Y-131836374D01*
X115847968Y-131850624D01*
X115865692Y-131866688D01*
X115881756Y-131884412D01*
X115896006Y-131903625D01*
X115908303Y-131924142D01*
X115918531Y-131945766D01*
X115926589Y-131968288D01*
X115932401Y-131991492D01*
X115935911Y-132015153D01*
X115937085Y-132039045D01*
X115937085Y-132526545D01*
X115935911Y-132550437D01*
X115932401Y-132574098D01*
X115926589Y-132597302D01*
X115918531Y-132619824D01*
X115908303Y-132641448D01*
X115896006Y-132661965D01*
X115881756Y-132681178D01*
X115865692Y-132698902D01*
X115847968Y-132714966D01*
X115828755Y-132729216D01*
X115808238Y-132741513D01*
X115786614Y-132751741D01*
X115764092Y-132759799D01*
X115740888Y-132765611D01*
X115717227Y-132769121D01*
X115693335Y-132770295D01*
X114780835Y-132770295D01*
X114756943Y-132769121D01*
X114733282Y-132765611D01*
X114710078Y-132759799D01*
X114687556Y-132751741D01*
X114665932Y-132741513D01*
X114645415Y-132729216D01*
X114626202Y-132714966D01*
X114608478Y-132698902D01*
X114592414Y-132681178D01*
X114578164Y-132661965D01*
X114565867Y-132641448D01*
X114555639Y-132619824D01*
X114547581Y-132597302D01*
X114541769Y-132574098D01*
X114538259Y-132550437D01*
X114537085Y-132526545D01*
X114537085Y-132039045D01*
X114538259Y-132015153D01*
X114541769Y-131991492D01*
X114547581Y-131968288D01*
X114555639Y-131945766D01*
X114565867Y-131924142D01*
X114578164Y-131903625D01*
X114592414Y-131884412D01*
X114608478Y-131866688D01*
X114626202Y-131850624D01*
X114645415Y-131836374D01*
X114665932Y-131824077D01*
X114687556Y-131813849D01*
X114710078Y-131805791D01*
X114733282Y-131799979D01*
X114756943Y-131796469D01*
X114780835Y-131795295D01*
X115693335Y-131795295D01*
X115717227Y-131796469D01*
X115717227Y-131796469D01*
G37*
D20*
G04 #@! TD*
G04 #@! TO.P,C5,1*
G04 #@! TO.N,/AVDDU7*
X115237085Y-132282795D03*
D18*
G04 #@! TO.N,GND*
G04 #@! TO.C,C6*
G36*
X118550543Y-133157005D02*
X118564861Y-133159129D01*
X118578902Y-133162646D01*
X118592531Y-133167523D01*
X118605616Y-133173712D01*
X118618032Y-133181153D01*
X118629658Y-133189776D01*
X118640383Y-133199497D01*
X118650104Y-133210222D01*
X118658727Y-133221848D01*
X118666168Y-133234264D01*
X118672357Y-133247349D01*
X118677234Y-133260978D01*
X118680751Y-133275019D01*
X118682875Y-133289337D01*
X118683585Y-133303795D01*
X118683585Y-133598795D01*
X118682875Y-133613253D01*
X118680751Y-133627571D01*
X118677234Y-133641612D01*
X118672357Y-133655241D01*
X118666168Y-133668326D01*
X118658727Y-133680742D01*
X118650104Y-133692368D01*
X118640383Y-133703093D01*
X118629658Y-133712814D01*
X118618032Y-133721437D01*
X118605616Y-133728878D01*
X118592531Y-133735067D01*
X118578902Y-133739944D01*
X118564861Y-133743461D01*
X118550543Y-133745585D01*
X118536085Y-133746295D01*
X118191085Y-133746295D01*
X118176627Y-133745585D01*
X118162309Y-133743461D01*
X118148268Y-133739944D01*
X118134639Y-133735067D01*
X118121554Y-133728878D01*
X118109138Y-133721437D01*
X118097512Y-133712814D01*
X118086787Y-133703093D01*
X118077066Y-133692368D01*
X118068443Y-133680742D01*
X118061002Y-133668326D01*
X118054813Y-133655241D01*
X118049936Y-133641612D01*
X118046419Y-133627571D01*
X118044295Y-133613253D01*
X118043585Y-133598795D01*
X118043585Y-133303795D01*
X118044295Y-133289337D01*
X118046419Y-133275019D01*
X118049936Y-133260978D01*
X118054813Y-133247349D01*
X118061002Y-133234264D01*
X118068443Y-133221848D01*
X118077066Y-133210222D01*
X118086787Y-133199497D01*
X118097512Y-133189776D01*
X118109138Y-133181153D01*
X118121554Y-133173712D01*
X118134639Y-133167523D01*
X118148268Y-133162646D01*
X118162309Y-133159129D01*
X118176627Y-133157005D01*
X118191085Y-133156295D01*
X118536085Y-133156295D01*
X118550543Y-133157005D01*
X118550543Y-133157005D01*
G37*
D19*
G04 #@! TD*
G04 #@! TO.P,C6,2*
G04 #@! TO.N,GND*
X118363585Y-133451295D03*
D18*
G04 #@! TO.N,/AVDDU7*
G04 #@! TO.C,C6*
G36*
X118550543Y-132187005D02*
X118564861Y-132189129D01*
X118578902Y-132192646D01*
X118592531Y-132197523D01*
X118605616Y-132203712D01*
X118618032Y-132211153D01*
X118629658Y-132219776D01*
X118640383Y-132229497D01*
X118650104Y-132240222D01*
X118658727Y-132251848D01*
X118666168Y-132264264D01*
X118672357Y-132277349D01*
X118677234Y-132290978D01*
X118680751Y-132305019D01*
X118682875Y-132319337D01*
X118683585Y-132333795D01*
X118683585Y-132628795D01*
X118682875Y-132643253D01*
X118680751Y-132657571D01*
X118677234Y-132671612D01*
X118672357Y-132685241D01*
X118666168Y-132698326D01*
X118658727Y-132710742D01*
X118650104Y-132722368D01*
X118640383Y-132733093D01*
X118629658Y-132742814D01*
X118618032Y-132751437D01*
X118605616Y-132758878D01*
X118592531Y-132765067D01*
X118578902Y-132769944D01*
X118564861Y-132773461D01*
X118550543Y-132775585D01*
X118536085Y-132776295D01*
X118191085Y-132776295D01*
X118176627Y-132775585D01*
X118162309Y-132773461D01*
X118148268Y-132769944D01*
X118134639Y-132765067D01*
X118121554Y-132758878D01*
X118109138Y-132751437D01*
X118097512Y-132742814D01*
X118086787Y-132733093D01*
X118077066Y-132722368D01*
X118068443Y-132710742D01*
X118061002Y-132698326D01*
X118054813Y-132685241D01*
X118049936Y-132671612D01*
X118046419Y-132657571D01*
X118044295Y-132643253D01*
X118043585Y-132628795D01*
X118043585Y-132333795D01*
X118044295Y-132319337D01*
X118046419Y-132305019D01*
X118049936Y-132290978D01*
X118054813Y-132277349D01*
X118061002Y-132264264D01*
X118068443Y-132251848D01*
X118077066Y-132240222D01*
X118086787Y-132229497D01*
X118097512Y-132219776D01*
X118109138Y-132211153D01*
X118121554Y-132203712D01*
X118134639Y-132197523D01*
X118148268Y-132192646D01*
X118162309Y-132189129D01*
X118176627Y-132187005D01*
X118191085Y-132186295D01*
X118536085Y-132186295D01*
X118550543Y-132187005D01*
X118550543Y-132187005D01*
G37*
D19*
G04 #@! TD*
G04 #@! TO.P,C6,1*
G04 #@! TO.N,/AVDDU7*
X118363585Y-132481295D03*
D18*
G04 #@! TO.N,GND*
G04 #@! TO.C,C7*
G36*
X118550543Y-127361005D02*
X118564861Y-127363129D01*
X118578902Y-127366646D01*
X118592531Y-127371523D01*
X118605616Y-127377712D01*
X118618032Y-127385153D01*
X118629658Y-127393776D01*
X118640383Y-127403497D01*
X118650104Y-127414222D01*
X118658727Y-127425848D01*
X118666168Y-127438264D01*
X118672357Y-127451349D01*
X118677234Y-127464978D01*
X118680751Y-127479019D01*
X118682875Y-127493337D01*
X118683585Y-127507795D01*
X118683585Y-127802795D01*
X118682875Y-127817253D01*
X118680751Y-127831571D01*
X118677234Y-127845612D01*
X118672357Y-127859241D01*
X118666168Y-127872326D01*
X118658727Y-127884742D01*
X118650104Y-127896368D01*
X118640383Y-127907093D01*
X118629658Y-127916814D01*
X118618032Y-127925437D01*
X118605616Y-127932878D01*
X118592531Y-127939067D01*
X118578902Y-127943944D01*
X118564861Y-127947461D01*
X118550543Y-127949585D01*
X118536085Y-127950295D01*
X118191085Y-127950295D01*
X118176627Y-127949585D01*
X118162309Y-127947461D01*
X118148268Y-127943944D01*
X118134639Y-127939067D01*
X118121554Y-127932878D01*
X118109138Y-127925437D01*
X118097512Y-127916814D01*
X118086787Y-127907093D01*
X118077066Y-127896368D01*
X118068443Y-127884742D01*
X118061002Y-127872326D01*
X118054813Y-127859241D01*
X118049936Y-127845612D01*
X118046419Y-127831571D01*
X118044295Y-127817253D01*
X118043585Y-127802795D01*
X118043585Y-127507795D01*
X118044295Y-127493337D01*
X118046419Y-127479019D01*
X118049936Y-127464978D01*
X118054813Y-127451349D01*
X118061002Y-127438264D01*
X118068443Y-127425848D01*
X118077066Y-127414222D01*
X118086787Y-127403497D01*
X118097512Y-127393776D01*
X118109138Y-127385153D01*
X118121554Y-127377712D01*
X118134639Y-127371523D01*
X118148268Y-127366646D01*
X118162309Y-127363129D01*
X118176627Y-127361005D01*
X118191085Y-127360295D01*
X118536085Y-127360295D01*
X118550543Y-127361005D01*
X118550543Y-127361005D01*
G37*
D19*
G04 #@! TD*
G04 #@! TO.P,C7,2*
G04 #@! TO.N,GND*
X118363585Y-127655295D03*
D18*
G04 #@! TO.N,/AVDDU7*
G04 #@! TO.C,C7*
G36*
X118550543Y-128331005D02*
X118564861Y-128333129D01*
X118578902Y-128336646D01*
X118592531Y-128341523D01*
X118605616Y-128347712D01*
X118618032Y-128355153D01*
X118629658Y-128363776D01*
X118640383Y-128373497D01*
X118650104Y-128384222D01*
X118658727Y-128395848D01*
X118666168Y-128408264D01*
X118672357Y-128421349D01*
X118677234Y-128434978D01*
X118680751Y-128449019D01*
X118682875Y-128463337D01*
X118683585Y-128477795D01*
X118683585Y-128772795D01*
X118682875Y-128787253D01*
X118680751Y-128801571D01*
X118677234Y-128815612D01*
X118672357Y-128829241D01*
X118666168Y-128842326D01*
X118658727Y-128854742D01*
X118650104Y-128866368D01*
X118640383Y-128877093D01*
X118629658Y-128886814D01*
X118618032Y-128895437D01*
X118605616Y-128902878D01*
X118592531Y-128909067D01*
X118578902Y-128913944D01*
X118564861Y-128917461D01*
X118550543Y-128919585D01*
X118536085Y-128920295D01*
X118191085Y-128920295D01*
X118176627Y-128919585D01*
X118162309Y-128917461D01*
X118148268Y-128913944D01*
X118134639Y-128909067D01*
X118121554Y-128902878D01*
X118109138Y-128895437D01*
X118097512Y-128886814D01*
X118086787Y-128877093D01*
X118077066Y-128866368D01*
X118068443Y-128854742D01*
X118061002Y-128842326D01*
X118054813Y-128829241D01*
X118049936Y-128815612D01*
X118046419Y-128801571D01*
X118044295Y-128787253D01*
X118043585Y-128772795D01*
X118043585Y-128477795D01*
X118044295Y-128463337D01*
X118046419Y-128449019D01*
X118049936Y-128434978D01*
X118054813Y-128421349D01*
X118061002Y-128408264D01*
X118068443Y-128395848D01*
X118077066Y-128384222D01*
X118086787Y-128373497D01*
X118097512Y-128363776D01*
X118109138Y-128355153D01*
X118121554Y-128347712D01*
X118134639Y-128341523D01*
X118148268Y-128336646D01*
X118162309Y-128333129D01*
X118176627Y-128331005D01*
X118191085Y-128330295D01*
X118536085Y-128330295D01*
X118550543Y-128331005D01*
X118550543Y-128331005D01*
G37*
D19*
G04 #@! TD*
G04 #@! TO.P,C7,1*
G04 #@! TO.N,/AVDDU7*
X118363585Y-128625295D03*
D18*
G04 #@! TO.N,GND*
G04 #@! TO.C,C8*
G36*
X110955943Y-137109525D02*
X110970261Y-137111649D01*
X110984302Y-137115166D01*
X110997931Y-137120043D01*
X111011016Y-137126232D01*
X111023432Y-137133673D01*
X111035058Y-137142296D01*
X111045783Y-137152017D01*
X111055504Y-137162742D01*
X111064127Y-137174368D01*
X111071568Y-137186784D01*
X111077757Y-137199869D01*
X111082634Y-137213498D01*
X111086151Y-137227539D01*
X111088275Y-137241857D01*
X111088985Y-137256315D01*
X111088985Y-137551315D01*
X111088275Y-137565773D01*
X111086151Y-137580091D01*
X111082634Y-137594132D01*
X111077757Y-137607761D01*
X111071568Y-137620846D01*
X111064127Y-137633262D01*
X111055504Y-137644888D01*
X111045783Y-137655613D01*
X111035058Y-137665334D01*
X111023432Y-137673957D01*
X111011016Y-137681398D01*
X110997931Y-137687587D01*
X110984302Y-137692464D01*
X110970261Y-137695981D01*
X110955943Y-137698105D01*
X110941485Y-137698815D01*
X110596485Y-137698815D01*
X110582027Y-137698105D01*
X110567709Y-137695981D01*
X110553668Y-137692464D01*
X110540039Y-137687587D01*
X110526954Y-137681398D01*
X110514538Y-137673957D01*
X110502912Y-137665334D01*
X110492187Y-137655613D01*
X110482466Y-137644888D01*
X110473843Y-137633262D01*
X110466402Y-137620846D01*
X110460213Y-137607761D01*
X110455336Y-137594132D01*
X110451819Y-137580091D01*
X110449695Y-137565773D01*
X110448985Y-137551315D01*
X110448985Y-137256315D01*
X110449695Y-137241857D01*
X110451819Y-137227539D01*
X110455336Y-137213498D01*
X110460213Y-137199869D01*
X110466402Y-137186784D01*
X110473843Y-137174368D01*
X110482466Y-137162742D01*
X110492187Y-137152017D01*
X110502912Y-137142296D01*
X110514538Y-137133673D01*
X110526954Y-137126232D01*
X110540039Y-137120043D01*
X110553668Y-137115166D01*
X110567709Y-137111649D01*
X110582027Y-137109525D01*
X110596485Y-137108815D01*
X110941485Y-137108815D01*
X110955943Y-137109525D01*
X110955943Y-137109525D01*
G37*
D19*
G04 #@! TD*
G04 #@! TO.P,C8,2*
G04 #@! TO.N,GND*
X110768985Y-137403815D03*
D18*
G04 #@! TO.N,VMCU*
G04 #@! TO.C,C8*
G36*
X110955943Y-138079525D02*
X110970261Y-138081649D01*
X110984302Y-138085166D01*
X110997931Y-138090043D01*
X111011016Y-138096232D01*
X111023432Y-138103673D01*
X111035058Y-138112296D01*
X111045783Y-138122017D01*
X111055504Y-138132742D01*
X111064127Y-138144368D01*
X111071568Y-138156784D01*
X111077757Y-138169869D01*
X111082634Y-138183498D01*
X111086151Y-138197539D01*
X111088275Y-138211857D01*
X111088985Y-138226315D01*
X111088985Y-138521315D01*
X111088275Y-138535773D01*
X111086151Y-138550091D01*
X111082634Y-138564132D01*
X111077757Y-138577761D01*
X111071568Y-138590846D01*
X111064127Y-138603262D01*
X111055504Y-138614888D01*
X111045783Y-138625613D01*
X111035058Y-138635334D01*
X111023432Y-138643957D01*
X111011016Y-138651398D01*
X110997931Y-138657587D01*
X110984302Y-138662464D01*
X110970261Y-138665981D01*
X110955943Y-138668105D01*
X110941485Y-138668815D01*
X110596485Y-138668815D01*
X110582027Y-138668105D01*
X110567709Y-138665981D01*
X110553668Y-138662464D01*
X110540039Y-138657587D01*
X110526954Y-138651398D01*
X110514538Y-138643957D01*
X110502912Y-138635334D01*
X110492187Y-138625613D01*
X110482466Y-138614888D01*
X110473843Y-138603262D01*
X110466402Y-138590846D01*
X110460213Y-138577761D01*
X110455336Y-138564132D01*
X110451819Y-138550091D01*
X110449695Y-138535773D01*
X110448985Y-138521315D01*
X110448985Y-138226315D01*
X110449695Y-138211857D01*
X110451819Y-138197539D01*
X110455336Y-138183498D01*
X110460213Y-138169869D01*
X110466402Y-138156784D01*
X110473843Y-138144368D01*
X110482466Y-138132742D01*
X110492187Y-138122017D01*
X110502912Y-138112296D01*
X110514538Y-138103673D01*
X110526954Y-138096232D01*
X110540039Y-138090043D01*
X110553668Y-138085166D01*
X110567709Y-138081649D01*
X110582027Y-138079525D01*
X110596485Y-138078815D01*
X110941485Y-138078815D01*
X110955943Y-138079525D01*
X110955943Y-138079525D01*
G37*
D19*
G04 #@! TD*
G04 #@! TO.P,C8,1*
G04 #@! TO.N,VMCU*
X110768985Y-138373815D03*
D18*
G04 #@! TO.N,GND*
G04 #@! TO.C,C9*
G36*
X115589443Y-128425525D02*
X115603761Y-128427649D01*
X115617802Y-128431166D01*
X115631431Y-128436043D01*
X115644516Y-128442232D01*
X115656932Y-128449673D01*
X115668558Y-128458296D01*
X115679283Y-128468017D01*
X115689004Y-128478742D01*
X115697627Y-128490368D01*
X115705068Y-128502784D01*
X115711257Y-128515869D01*
X115716134Y-128529498D01*
X115719651Y-128543539D01*
X115721775Y-128557857D01*
X115722485Y-128572315D01*
X115722485Y-128917315D01*
X115721775Y-128931773D01*
X115719651Y-128946091D01*
X115716134Y-128960132D01*
X115711257Y-128973761D01*
X115705068Y-128986846D01*
X115697627Y-128999262D01*
X115689004Y-129010888D01*
X115679283Y-129021613D01*
X115668558Y-129031334D01*
X115656932Y-129039957D01*
X115644516Y-129047398D01*
X115631431Y-129053587D01*
X115617802Y-129058464D01*
X115603761Y-129061981D01*
X115589443Y-129064105D01*
X115574985Y-129064815D01*
X115279985Y-129064815D01*
X115265527Y-129064105D01*
X115251209Y-129061981D01*
X115237168Y-129058464D01*
X115223539Y-129053587D01*
X115210454Y-129047398D01*
X115198038Y-129039957D01*
X115186412Y-129031334D01*
X115175687Y-129021613D01*
X115165966Y-129010888D01*
X115157343Y-128999262D01*
X115149902Y-128986846D01*
X115143713Y-128973761D01*
X115138836Y-128960132D01*
X115135319Y-128946091D01*
X115133195Y-128931773D01*
X115132485Y-128917315D01*
X115132485Y-128572315D01*
X115133195Y-128557857D01*
X115135319Y-128543539D01*
X115138836Y-128529498D01*
X115143713Y-128515869D01*
X115149902Y-128502784D01*
X115157343Y-128490368D01*
X115165966Y-128478742D01*
X115175687Y-128468017D01*
X115186412Y-128458296D01*
X115198038Y-128449673D01*
X115210454Y-128442232D01*
X115223539Y-128436043D01*
X115237168Y-128431166D01*
X115251209Y-128427649D01*
X115265527Y-128425525D01*
X115279985Y-128424815D01*
X115574985Y-128424815D01*
X115589443Y-128425525D01*
X115589443Y-128425525D01*
G37*
D19*
G04 #@! TD*
G04 #@! TO.P,C9,2*
G04 #@! TO.N,GND*
X115427485Y-128744815D03*
D18*
G04 #@! TO.N,VMCU*
G04 #@! TO.C,C9*
G36*
X116559443Y-128425525D02*
X116573761Y-128427649D01*
X116587802Y-128431166D01*
X116601431Y-128436043D01*
X116614516Y-128442232D01*
X116626932Y-128449673D01*
X116638558Y-128458296D01*
X116649283Y-128468017D01*
X116659004Y-128478742D01*
X116667627Y-128490368D01*
X116675068Y-128502784D01*
X116681257Y-128515869D01*
X116686134Y-128529498D01*
X116689651Y-128543539D01*
X116691775Y-128557857D01*
X116692485Y-128572315D01*
X116692485Y-128917315D01*
X116691775Y-128931773D01*
X116689651Y-128946091D01*
X116686134Y-128960132D01*
X116681257Y-128973761D01*
X116675068Y-128986846D01*
X116667627Y-128999262D01*
X116659004Y-129010888D01*
X116649283Y-129021613D01*
X116638558Y-129031334D01*
X116626932Y-129039957D01*
X116614516Y-129047398D01*
X116601431Y-129053587D01*
X116587802Y-129058464D01*
X116573761Y-129061981D01*
X116559443Y-129064105D01*
X116544985Y-129064815D01*
X116249985Y-129064815D01*
X116235527Y-129064105D01*
X116221209Y-129061981D01*
X116207168Y-129058464D01*
X116193539Y-129053587D01*
X116180454Y-129047398D01*
X116168038Y-129039957D01*
X116156412Y-129031334D01*
X116145687Y-129021613D01*
X116135966Y-129010888D01*
X116127343Y-128999262D01*
X116119902Y-128986846D01*
X116113713Y-128973761D01*
X116108836Y-128960132D01*
X116105319Y-128946091D01*
X116103195Y-128931773D01*
X116102485Y-128917315D01*
X116102485Y-128572315D01*
X116103195Y-128557857D01*
X116105319Y-128543539D01*
X116108836Y-128529498D01*
X116113713Y-128515869D01*
X116119902Y-128502784D01*
X116127343Y-128490368D01*
X116135966Y-128478742D01*
X116145687Y-128468017D01*
X116156412Y-128458296D01*
X116168038Y-128449673D01*
X116180454Y-128442232D01*
X116193539Y-128436043D01*
X116207168Y-128431166D01*
X116221209Y-128427649D01*
X116235527Y-128425525D01*
X116249985Y-128424815D01*
X116544985Y-128424815D01*
X116559443Y-128425525D01*
X116559443Y-128425525D01*
G37*
D19*
G04 #@! TD*
G04 #@! TO.P,C9,1*
G04 #@! TO.N,VMCU*
X116397485Y-128744815D03*
D18*
G04 #@! TO.N,GND*
G04 #@! TO.C,C10*
G36*
X116770543Y-129853005D02*
X116784861Y-129855129D01*
X116798902Y-129858646D01*
X116812531Y-129863523D01*
X116825616Y-129869712D01*
X116838032Y-129877153D01*
X116849658Y-129885776D01*
X116860383Y-129895497D01*
X116870104Y-129906222D01*
X116878727Y-129917848D01*
X116886168Y-129930264D01*
X116892357Y-129943349D01*
X116897234Y-129956978D01*
X116900751Y-129971019D01*
X116902875Y-129985337D01*
X116903585Y-129999795D01*
X116903585Y-130344795D01*
X116902875Y-130359253D01*
X116900751Y-130373571D01*
X116897234Y-130387612D01*
X116892357Y-130401241D01*
X116886168Y-130414326D01*
X116878727Y-130426742D01*
X116870104Y-130438368D01*
X116860383Y-130449093D01*
X116849658Y-130458814D01*
X116838032Y-130467437D01*
X116825616Y-130474878D01*
X116812531Y-130481067D01*
X116798902Y-130485944D01*
X116784861Y-130489461D01*
X116770543Y-130491585D01*
X116756085Y-130492295D01*
X116461085Y-130492295D01*
X116446627Y-130491585D01*
X116432309Y-130489461D01*
X116418268Y-130485944D01*
X116404639Y-130481067D01*
X116391554Y-130474878D01*
X116379138Y-130467437D01*
X116367512Y-130458814D01*
X116356787Y-130449093D01*
X116347066Y-130438368D01*
X116338443Y-130426742D01*
X116331002Y-130414326D01*
X116324813Y-130401241D01*
X116319936Y-130387612D01*
X116316419Y-130373571D01*
X116314295Y-130359253D01*
X116313585Y-130344795D01*
X116313585Y-129999795D01*
X116314295Y-129985337D01*
X116316419Y-129971019D01*
X116319936Y-129956978D01*
X116324813Y-129943349D01*
X116331002Y-129930264D01*
X116338443Y-129917848D01*
X116347066Y-129906222D01*
X116356787Y-129895497D01*
X116367512Y-129885776D01*
X116379138Y-129877153D01*
X116391554Y-129869712D01*
X116404639Y-129863523D01*
X116418268Y-129858646D01*
X116432309Y-129855129D01*
X116446627Y-129853005D01*
X116461085Y-129852295D01*
X116756085Y-129852295D01*
X116770543Y-129853005D01*
X116770543Y-129853005D01*
G37*
D19*
G04 #@! TD*
G04 #@! TO.P,C10,2*
G04 #@! TO.N,GND*
X116608585Y-130172295D03*
D18*
G04 #@! TO.N,VMCU*
G04 #@! TO.C,C10*
G36*
X117740543Y-129853005D02*
X117754861Y-129855129D01*
X117768902Y-129858646D01*
X117782531Y-129863523D01*
X117795616Y-129869712D01*
X117808032Y-129877153D01*
X117819658Y-129885776D01*
X117830383Y-129895497D01*
X117840104Y-129906222D01*
X117848727Y-129917848D01*
X117856168Y-129930264D01*
X117862357Y-129943349D01*
X117867234Y-129956978D01*
X117870751Y-129971019D01*
X117872875Y-129985337D01*
X117873585Y-129999795D01*
X117873585Y-130344795D01*
X117872875Y-130359253D01*
X117870751Y-130373571D01*
X117867234Y-130387612D01*
X117862357Y-130401241D01*
X117856168Y-130414326D01*
X117848727Y-130426742D01*
X117840104Y-130438368D01*
X117830383Y-130449093D01*
X117819658Y-130458814D01*
X117808032Y-130467437D01*
X117795616Y-130474878D01*
X117782531Y-130481067D01*
X117768902Y-130485944D01*
X117754861Y-130489461D01*
X117740543Y-130491585D01*
X117726085Y-130492295D01*
X117431085Y-130492295D01*
X117416627Y-130491585D01*
X117402309Y-130489461D01*
X117388268Y-130485944D01*
X117374639Y-130481067D01*
X117361554Y-130474878D01*
X117349138Y-130467437D01*
X117337512Y-130458814D01*
X117326787Y-130449093D01*
X117317066Y-130438368D01*
X117308443Y-130426742D01*
X117301002Y-130414326D01*
X117294813Y-130401241D01*
X117289936Y-130387612D01*
X117286419Y-130373571D01*
X117284295Y-130359253D01*
X117283585Y-130344795D01*
X117283585Y-129999795D01*
X117284295Y-129985337D01*
X117286419Y-129971019D01*
X117289936Y-129956978D01*
X117294813Y-129943349D01*
X117301002Y-129930264D01*
X117308443Y-129917848D01*
X117317066Y-129906222D01*
X117326787Y-129895497D01*
X117337512Y-129885776D01*
X117349138Y-129877153D01*
X117361554Y-129869712D01*
X117374639Y-129863523D01*
X117388268Y-129858646D01*
X117402309Y-129855129D01*
X117416627Y-129853005D01*
X117431085Y-129852295D01*
X117726085Y-129852295D01*
X117740543Y-129853005D01*
X117740543Y-129853005D01*
G37*
D19*
G04 #@! TD*
G04 #@! TO.P,C10,1*
G04 #@! TO.N,VMCU*
X117578585Y-130172295D03*
D18*
G04 #@! TO.N,GND*
G04 #@! TO.C,C11*
G36*
X114319443Y-138331525D02*
X114333761Y-138333649D01*
X114347802Y-138337166D01*
X114361431Y-138342043D01*
X114374516Y-138348232D01*
X114386932Y-138355673D01*
X114398558Y-138364296D01*
X114409283Y-138374017D01*
X114419004Y-138384742D01*
X114427627Y-138396368D01*
X114435068Y-138408784D01*
X114441257Y-138421869D01*
X114446134Y-138435498D01*
X114449651Y-138449539D01*
X114451775Y-138463857D01*
X114452485Y-138478315D01*
X114452485Y-138823315D01*
X114451775Y-138837773D01*
X114449651Y-138852091D01*
X114446134Y-138866132D01*
X114441257Y-138879761D01*
X114435068Y-138892846D01*
X114427627Y-138905262D01*
X114419004Y-138916888D01*
X114409283Y-138927613D01*
X114398558Y-138937334D01*
X114386932Y-138945957D01*
X114374516Y-138953398D01*
X114361431Y-138959587D01*
X114347802Y-138964464D01*
X114333761Y-138967981D01*
X114319443Y-138970105D01*
X114304985Y-138970815D01*
X114009985Y-138970815D01*
X113995527Y-138970105D01*
X113981209Y-138967981D01*
X113967168Y-138964464D01*
X113953539Y-138959587D01*
X113940454Y-138953398D01*
X113928038Y-138945957D01*
X113916412Y-138937334D01*
X113905687Y-138927613D01*
X113895966Y-138916888D01*
X113887343Y-138905262D01*
X113879902Y-138892846D01*
X113873713Y-138879761D01*
X113868836Y-138866132D01*
X113865319Y-138852091D01*
X113863195Y-138837773D01*
X113862485Y-138823315D01*
X113862485Y-138478315D01*
X113863195Y-138463857D01*
X113865319Y-138449539D01*
X113868836Y-138435498D01*
X113873713Y-138421869D01*
X113879902Y-138408784D01*
X113887343Y-138396368D01*
X113895966Y-138384742D01*
X113905687Y-138374017D01*
X113916412Y-138364296D01*
X113928038Y-138355673D01*
X113940454Y-138348232D01*
X113953539Y-138342043D01*
X113967168Y-138337166D01*
X113981209Y-138333649D01*
X113995527Y-138331525D01*
X114009985Y-138330815D01*
X114304985Y-138330815D01*
X114319443Y-138331525D01*
X114319443Y-138331525D01*
G37*
D19*
G04 #@! TD*
G04 #@! TO.P,C11,2*
G04 #@! TO.N,GND*
X114157485Y-138650815D03*
D18*
G04 #@! TO.N,VMCU*
G04 #@! TO.C,C11*
G36*
X115289443Y-138331525D02*
X115303761Y-138333649D01*
X115317802Y-138337166D01*
X115331431Y-138342043D01*
X115344516Y-138348232D01*
X115356932Y-138355673D01*
X115368558Y-138364296D01*
X115379283Y-138374017D01*
X115389004Y-138384742D01*
X115397627Y-138396368D01*
X115405068Y-138408784D01*
X115411257Y-138421869D01*
X115416134Y-138435498D01*
X115419651Y-138449539D01*
X115421775Y-138463857D01*
X115422485Y-138478315D01*
X115422485Y-138823315D01*
X115421775Y-138837773D01*
X115419651Y-138852091D01*
X115416134Y-138866132D01*
X115411257Y-138879761D01*
X115405068Y-138892846D01*
X115397627Y-138905262D01*
X115389004Y-138916888D01*
X115379283Y-138927613D01*
X115368558Y-138937334D01*
X115356932Y-138945957D01*
X115344516Y-138953398D01*
X115331431Y-138959587D01*
X115317802Y-138964464D01*
X115303761Y-138967981D01*
X115289443Y-138970105D01*
X115274985Y-138970815D01*
X114979985Y-138970815D01*
X114965527Y-138970105D01*
X114951209Y-138967981D01*
X114937168Y-138964464D01*
X114923539Y-138959587D01*
X114910454Y-138953398D01*
X114898038Y-138945957D01*
X114886412Y-138937334D01*
X114875687Y-138927613D01*
X114865966Y-138916888D01*
X114857343Y-138905262D01*
X114849902Y-138892846D01*
X114843713Y-138879761D01*
X114838836Y-138866132D01*
X114835319Y-138852091D01*
X114833195Y-138837773D01*
X114832485Y-138823315D01*
X114832485Y-138478315D01*
X114833195Y-138463857D01*
X114835319Y-138449539D01*
X114838836Y-138435498D01*
X114843713Y-138421869D01*
X114849902Y-138408784D01*
X114857343Y-138396368D01*
X114865966Y-138384742D01*
X114875687Y-138374017D01*
X114886412Y-138364296D01*
X114898038Y-138355673D01*
X114910454Y-138348232D01*
X114923539Y-138342043D01*
X114937168Y-138337166D01*
X114951209Y-138333649D01*
X114965527Y-138331525D01*
X114979985Y-138330815D01*
X115274985Y-138330815D01*
X115289443Y-138331525D01*
X115289443Y-138331525D01*
G37*
D19*
G04 #@! TD*
G04 #@! TO.P,C11,1*
G04 #@! TO.N,VMCU*
X115127485Y-138650815D03*
D18*
G04 #@! TO.N,GND*
G04 #@! TO.C,C12*
G36*
X108581043Y-130713525D02*
X108595361Y-130715649D01*
X108609402Y-130719166D01*
X108623031Y-130724043D01*
X108636116Y-130730232D01*
X108648532Y-130737673D01*
X108660158Y-130746296D01*
X108670883Y-130756017D01*
X108680604Y-130766742D01*
X108689227Y-130778368D01*
X108696668Y-130790784D01*
X108702857Y-130803869D01*
X108707734Y-130817498D01*
X108711251Y-130831539D01*
X108713375Y-130845857D01*
X108714085Y-130860315D01*
X108714085Y-131155315D01*
X108713375Y-131169773D01*
X108711251Y-131184091D01*
X108707734Y-131198132D01*
X108702857Y-131211761D01*
X108696668Y-131224846D01*
X108689227Y-131237262D01*
X108680604Y-131248888D01*
X108670883Y-131259613D01*
X108660158Y-131269334D01*
X108648532Y-131277957D01*
X108636116Y-131285398D01*
X108623031Y-131291587D01*
X108609402Y-131296464D01*
X108595361Y-131299981D01*
X108581043Y-131302105D01*
X108566585Y-131302815D01*
X108221585Y-131302815D01*
X108207127Y-131302105D01*
X108192809Y-131299981D01*
X108178768Y-131296464D01*
X108165139Y-131291587D01*
X108152054Y-131285398D01*
X108139638Y-131277957D01*
X108128012Y-131269334D01*
X108117287Y-131259613D01*
X108107566Y-131248888D01*
X108098943Y-131237262D01*
X108091502Y-131224846D01*
X108085313Y-131211761D01*
X108080436Y-131198132D01*
X108076919Y-131184091D01*
X108074795Y-131169773D01*
X108074085Y-131155315D01*
X108074085Y-130860315D01*
X108074795Y-130845857D01*
X108076919Y-130831539D01*
X108080436Y-130817498D01*
X108085313Y-130803869D01*
X108091502Y-130790784D01*
X108098943Y-130778368D01*
X108107566Y-130766742D01*
X108117287Y-130756017D01*
X108128012Y-130746296D01*
X108139638Y-130737673D01*
X108152054Y-130730232D01*
X108165139Y-130724043D01*
X108178768Y-130719166D01*
X108192809Y-130715649D01*
X108207127Y-130713525D01*
X108221585Y-130712815D01*
X108566585Y-130712815D01*
X108581043Y-130713525D01*
X108581043Y-130713525D01*
G37*
D19*
G04 #@! TD*
G04 #@! TO.P,C12,2*
G04 #@! TO.N,GND*
X108394085Y-131007815D03*
D18*
G04 #@! TO.N,VMCU*
G04 #@! TO.C,C12*
G36*
X108581043Y-129743525D02*
X108595361Y-129745649D01*
X108609402Y-129749166D01*
X108623031Y-129754043D01*
X108636116Y-129760232D01*
X108648532Y-129767673D01*
X108660158Y-129776296D01*
X108670883Y-129786017D01*
X108680604Y-129796742D01*
X108689227Y-129808368D01*
X108696668Y-129820784D01*
X108702857Y-129833869D01*
X108707734Y-129847498D01*
X108711251Y-129861539D01*
X108713375Y-129875857D01*
X108714085Y-129890315D01*
X108714085Y-130185315D01*
X108713375Y-130199773D01*
X108711251Y-130214091D01*
X108707734Y-130228132D01*
X108702857Y-130241761D01*
X108696668Y-130254846D01*
X108689227Y-130267262D01*
X108680604Y-130278888D01*
X108670883Y-130289613D01*
X108660158Y-130299334D01*
X108648532Y-130307957D01*
X108636116Y-130315398D01*
X108623031Y-130321587D01*
X108609402Y-130326464D01*
X108595361Y-130329981D01*
X108581043Y-130332105D01*
X108566585Y-130332815D01*
X108221585Y-130332815D01*
X108207127Y-130332105D01*
X108192809Y-130329981D01*
X108178768Y-130326464D01*
X108165139Y-130321587D01*
X108152054Y-130315398D01*
X108139638Y-130307957D01*
X108128012Y-130299334D01*
X108117287Y-130289613D01*
X108107566Y-130278888D01*
X108098943Y-130267262D01*
X108091502Y-130254846D01*
X108085313Y-130241761D01*
X108080436Y-130228132D01*
X108076919Y-130214091D01*
X108074795Y-130199773D01*
X108074085Y-130185315D01*
X108074085Y-129890315D01*
X108074795Y-129875857D01*
X108076919Y-129861539D01*
X108080436Y-129847498D01*
X108085313Y-129833869D01*
X108091502Y-129820784D01*
X108098943Y-129808368D01*
X108107566Y-129796742D01*
X108117287Y-129786017D01*
X108128012Y-129776296D01*
X108139638Y-129767673D01*
X108152054Y-129760232D01*
X108165139Y-129754043D01*
X108178768Y-129749166D01*
X108192809Y-129745649D01*
X108207127Y-129743525D01*
X108221585Y-129742815D01*
X108566585Y-129742815D01*
X108581043Y-129743525D01*
X108581043Y-129743525D01*
G37*
D19*
G04 #@! TD*
G04 #@! TO.P,C12,1*
G04 #@! TO.N,VMCU*
X108394085Y-130037815D03*
D18*
G04 #@! TO.N,GND*
G04 #@! TO.C,C13*
G36*
X110550627Y-134783989D02*
X110574288Y-134787499D01*
X110597492Y-134793311D01*
X110620014Y-134801369D01*
X110641638Y-134811597D01*
X110662155Y-134823894D01*
X110681368Y-134838144D01*
X110699092Y-134854208D01*
X110715156Y-134871932D01*
X110729406Y-134891145D01*
X110741703Y-134911662D01*
X110751931Y-134933286D01*
X110759989Y-134955808D01*
X110765801Y-134979012D01*
X110769311Y-135002673D01*
X110770485Y-135026565D01*
X110770485Y-135514065D01*
X110769311Y-135537957D01*
X110765801Y-135561618D01*
X110759989Y-135584822D01*
X110751931Y-135607344D01*
X110741703Y-135628968D01*
X110729406Y-135649485D01*
X110715156Y-135668698D01*
X110699092Y-135686422D01*
X110681368Y-135702486D01*
X110662155Y-135716736D01*
X110641638Y-135729033D01*
X110620014Y-135739261D01*
X110597492Y-135747319D01*
X110574288Y-135753131D01*
X110550627Y-135756641D01*
X110526735Y-135757815D01*
X109614235Y-135757815D01*
X109590343Y-135756641D01*
X109566682Y-135753131D01*
X109543478Y-135747319D01*
X109520956Y-135739261D01*
X109499332Y-135729033D01*
X109478815Y-135716736D01*
X109459602Y-135702486D01*
X109441878Y-135686422D01*
X109425814Y-135668698D01*
X109411564Y-135649485D01*
X109399267Y-135628968D01*
X109389039Y-135607344D01*
X109380981Y-135584822D01*
X109375169Y-135561618D01*
X109371659Y-135537957D01*
X109370485Y-135514065D01*
X109370485Y-135026565D01*
X109371659Y-135002673D01*
X109375169Y-134979012D01*
X109380981Y-134955808D01*
X109389039Y-134933286D01*
X109399267Y-134911662D01*
X109411564Y-134891145D01*
X109425814Y-134871932D01*
X109441878Y-134854208D01*
X109459602Y-134838144D01*
X109478815Y-134823894D01*
X109499332Y-134811597D01*
X109520956Y-134801369D01*
X109543478Y-134793311D01*
X109566682Y-134787499D01*
X109590343Y-134783989D01*
X109614235Y-134782815D01*
X110526735Y-134782815D01*
X110550627Y-134783989D01*
X110550627Y-134783989D01*
G37*
D20*
G04 #@! TD*
G04 #@! TO.P,C13,2*
G04 #@! TO.N,GND*
X110070485Y-135270315D03*
D18*
G04 #@! TO.N,VMCU*
G04 #@! TO.C,C13*
G36*
X110550627Y-132908989D02*
X110574288Y-132912499D01*
X110597492Y-132918311D01*
X110620014Y-132926369D01*
X110641638Y-132936597D01*
X110662155Y-132948894D01*
X110681368Y-132963144D01*
X110699092Y-132979208D01*
X110715156Y-132996932D01*
X110729406Y-133016145D01*
X110741703Y-133036662D01*
X110751931Y-133058286D01*
X110759989Y-133080808D01*
X110765801Y-133104012D01*
X110769311Y-133127673D01*
X110770485Y-133151565D01*
X110770485Y-133639065D01*
X110769311Y-133662957D01*
X110765801Y-133686618D01*
X110759989Y-133709822D01*
X110751931Y-133732344D01*
X110741703Y-133753968D01*
X110729406Y-133774485D01*
X110715156Y-133793698D01*
X110699092Y-133811422D01*
X110681368Y-133827486D01*
X110662155Y-133841736D01*
X110641638Y-133854033D01*
X110620014Y-133864261D01*
X110597492Y-133872319D01*
X110574288Y-133878131D01*
X110550627Y-133881641D01*
X110526735Y-133882815D01*
X109614235Y-133882815D01*
X109590343Y-133881641D01*
X109566682Y-133878131D01*
X109543478Y-133872319D01*
X109520956Y-133864261D01*
X109499332Y-133854033D01*
X109478815Y-133841736D01*
X109459602Y-133827486D01*
X109441878Y-133811422D01*
X109425814Y-133793698D01*
X109411564Y-133774485D01*
X109399267Y-133753968D01*
X109389039Y-133732344D01*
X109380981Y-133709822D01*
X109375169Y-133686618D01*
X109371659Y-133662957D01*
X109370485Y-133639065D01*
X109370485Y-133151565D01*
X109371659Y-133127673D01*
X109375169Y-133104012D01*
X109380981Y-133080808D01*
X109389039Y-133058286D01*
X109399267Y-133036662D01*
X109411564Y-133016145D01*
X109425814Y-132996932D01*
X109441878Y-132979208D01*
X109459602Y-132963144D01*
X109478815Y-132948894D01*
X109499332Y-132936597D01*
X109520956Y-132926369D01*
X109543478Y-132918311D01*
X109566682Y-132912499D01*
X109590343Y-132908989D01*
X109614235Y-132907815D01*
X110526735Y-132907815D01*
X110550627Y-132908989D01*
X110550627Y-132908989D01*
G37*
D20*
G04 #@! TD*
G04 #@! TO.P,C13,1*
G04 #@! TO.N,VMCU*
X110070485Y-133395315D03*
D18*
G04 #@! TO.N,/AVDDU7*
G04 #@! TO.C,R4*
G36*
X114184543Y-128837005D02*
X114198861Y-128839129D01*
X114212902Y-128842646D01*
X114226531Y-128847523D01*
X114239616Y-128853712D01*
X114252032Y-128861153D01*
X114263658Y-128869776D01*
X114274383Y-128879497D01*
X114284104Y-128890222D01*
X114292727Y-128901848D01*
X114300168Y-128914264D01*
X114306357Y-128927349D01*
X114311234Y-128940978D01*
X114314751Y-128955019D01*
X114316875Y-128969337D01*
X114317585Y-128983795D01*
X114317585Y-129328795D01*
X114316875Y-129343253D01*
X114314751Y-129357571D01*
X114311234Y-129371612D01*
X114306357Y-129385241D01*
X114300168Y-129398326D01*
X114292727Y-129410742D01*
X114284104Y-129422368D01*
X114274383Y-129433093D01*
X114263658Y-129442814D01*
X114252032Y-129451437D01*
X114239616Y-129458878D01*
X114226531Y-129465067D01*
X114212902Y-129469944D01*
X114198861Y-129473461D01*
X114184543Y-129475585D01*
X114170085Y-129476295D01*
X113875085Y-129476295D01*
X113860627Y-129475585D01*
X113846309Y-129473461D01*
X113832268Y-129469944D01*
X113818639Y-129465067D01*
X113805554Y-129458878D01*
X113793138Y-129451437D01*
X113781512Y-129442814D01*
X113770787Y-129433093D01*
X113761066Y-129422368D01*
X113752443Y-129410742D01*
X113745002Y-129398326D01*
X113738813Y-129385241D01*
X113733936Y-129371612D01*
X113730419Y-129357571D01*
X113728295Y-129343253D01*
X113727585Y-129328795D01*
X113727585Y-128983795D01*
X113728295Y-128969337D01*
X113730419Y-128955019D01*
X113733936Y-128940978D01*
X113738813Y-128927349D01*
X113745002Y-128914264D01*
X113752443Y-128901848D01*
X113761066Y-128890222D01*
X113770787Y-128879497D01*
X113781512Y-128869776D01*
X113793138Y-128861153D01*
X113805554Y-128853712D01*
X113818639Y-128847523D01*
X113832268Y-128842646D01*
X113846309Y-128839129D01*
X113860627Y-128837005D01*
X113875085Y-128836295D01*
X114170085Y-128836295D01*
X114184543Y-128837005D01*
X114184543Y-128837005D01*
G37*
D19*
G04 #@! TD*
G04 #@! TO.P,R4,2*
G04 #@! TO.N,/AVDDU7*
X114022585Y-129156295D03*
D18*
G04 #@! TO.N,Net-(L2-Pad2)*
G04 #@! TO.C,R4*
G36*
X113214543Y-128837005D02*
X113228861Y-128839129D01*
X113242902Y-128842646D01*
X113256531Y-128847523D01*
X113269616Y-128853712D01*
X113282032Y-128861153D01*
X113293658Y-128869776D01*
X113304383Y-128879497D01*
X113314104Y-128890222D01*
X113322727Y-128901848D01*
X113330168Y-128914264D01*
X113336357Y-128927349D01*
X113341234Y-128940978D01*
X113344751Y-128955019D01*
X113346875Y-128969337D01*
X113347585Y-128983795D01*
X113347585Y-129328795D01*
X113346875Y-129343253D01*
X113344751Y-129357571D01*
X113341234Y-129371612D01*
X113336357Y-129385241D01*
X113330168Y-129398326D01*
X113322727Y-129410742D01*
X113314104Y-129422368D01*
X113304383Y-129433093D01*
X113293658Y-129442814D01*
X113282032Y-129451437D01*
X113269616Y-129458878D01*
X113256531Y-129465067D01*
X113242902Y-129469944D01*
X113228861Y-129473461D01*
X113214543Y-129475585D01*
X113200085Y-129476295D01*
X112905085Y-129476295D01*
X112890627Y-129475585D01*
X112876309Y-129473461D01*
X112862268Y-129469944D01*
X112848639Y-129465067D01*
X112835554Y-129458878D01*
X112823138Y-129451437D01*
X112811512Y-129442814D01*
X112800787Y-129433093D01*
X112791066Y-129422368D01*
X112782443Y-129410742D01*
X112775002Y-129398326D01*
X112768813Y-129385241D01*
X112763936Y-129371612D01*
X112760419Y-129357571D01*
X112758295Y-129343253D01*
X112757585Y-129328795D01*
X112757585Y-128983795D01*
X112758295Y-128969337D01*
X112760419Y-128955019D01*
X112763936Y-128940978D01*
X112768813Y-128927349D01*
X112775002Y-128914264D01*
X112782443Y-128901848D01*
X112791066Y-128890222D01*
X112800787Y-128879497D01*
X112811512Y-128869776D01*
X112823138Y-128861153D01*
X112835554Y-128853712D01*
X112848639Y-128847523D01*
X112862268Y-128842646D01*
X112876309Y-128839129D01*
X112890627Y-128837005D01*
X112905085Y-128836295D01*
X113200085Y-128836295D01*
X113214543Y-128837005D01*
X113214543Y-128837005D01*
G37*
D19*
G04 #@! TD*
G04 #@! TO.P,R4,1*
G04 #@! TO.N,Net-(L2-Pad2)*
X113052585Y-129156295D03*
D21*
G04 #@! TO.P,L2,2*
G04 #@! TO.N,Net-(L2-Pad2)*
X113029585Y-130426295D03*
G04 #@! TO.P,L2,1*
G04 #@! TO.N,VMCU*
X111629585Y-130426295D03*
G04 #@! TD*
D22*
G04 #@! TO.N,GND*
X114388485Y-139666815D03*
X115150485Y-127728815D03*
X107225685Y-131284815D03*
X114769485Y-120743815D03*
X151326600Y-146532500D03*
X144722600Y-146024500D03*
X145738600Y-127736500D03*
X137610600Y-132308500D03*
X122370600Y-140944500D03*
X108146600Y-121132500D03*
X126587000Y-121974301D03*
X134435600Y-122300900D03*
G04 #@! TO.N,DH_#RESET*
X133279900Y-120967400D03*
X123386600Y-137642500D03*
G04 #@! TO.N,/AVDDU7*
X119148585Y-131696295D03*
X119153104Y-129389667D03*
G04 #@! TO.N,DH_TMS_SWDIO*
X101288600Y-128148099D03*
X115258600Y-115798500D03*
G04 #@! TO.N,DH_TCK_SWCLK*
X115258600Y-116814500D03*
X101855168Y-127448811D03*
G04 #@! TO.N,DH_TDO_SWO*
X115258600Y-117830500D03*
X103320600Y-128775099D03*
G04 #@! TO.N,DEBUG_EXT_CABLE_ATTACH*
X139134600Y-121132500D03*
X112718600Y-142976500D03*
G04 #@! TO.N,/US0_TX*
X109035700Y-127482500D03*
X101364900Y-121284900D03*
G04 #@! TO.N,/US0_RX*
X108437017Y-128232969D03*
X101415700Y-122554900D03*
X98316900Y-122554900D03*
G04 #@! TO.N,/US0_CLK*
X107619169Y-128859969D03*
X101415700Y-123672500D03*
X98367700Y-123672500D03*
G04 #@! TO.N,VMCU*
X116252099Y-127728815D03*
X115404485Y-139666815D03*
X110781685Y-139463615D03*
X107276485Y-130167215D03*
X119214485Y-136999815D03*
X118960485Y-130268815D03*
X111505585Y-133395315D03*
X125418600Y-142468500D03*
X150228100Y-143611500D03*
X132530600Y-117576500D03*
X136594600Y-117576500D03*
X124910600Y-117576500D03*
X121100600Y-125450500D03*
X128403100Y-117576500D03*
G04 #@! TO.N,GND*
X125037700Y-125617304D03*
X128593700Y-125617304D03*
X126815700Y-125617304D03*
X144595700Y-152628500D03*
X92779700Y-110337500D03*
X97351700Y-110718500D03*
X89731700Y-107162500D03*
G04 #@! TO.N,VMCU*
X100145700Y-110337500D03*
X125291700Y-145770500D03*
X129630700Y-155533500D03*
X136086700Y-155549500D03*
X141166700Y-155549500D03*
G04 #@! TD*
D23*
G04 #@! TO.N,GND*
X114388485Y-138881815D02*
X114157485Y-138650815D01*
X114388485Y-139666815D02*
X114388485Y-138881815D01*
X115150485Y-128467815D02*
X115427485Y-128744815D01*
X115150485Y-127728815D02*
X115150485Y-128467815D01*
X108117085Y-131284815D02*
X108394085Y-131007815D01*
X107225685Y-131284815D02*
X108117085Y-131284815D01*
D24*
X110768985Y-135968815D02*
X110070485Y-135270315D01*
X110768985Y-137403815D02*
X110768985Y-135968815D01*
X115150485Y-127728815D02*
X114123385Y-127728815D01*
X115427485Y-129164815D02*
X115131700Y-129460600D01*
X115427485Y-128744815D02*
X115427485Y-129164815D01*
X116608585Y-130172295D02*
X115172405Y-130172295D01*
D23*
G04 #@! TO.N,DH_#RESET*
X126750357Y-137642500D02*
X123386600Y-137642500D01*
X133279900Y-131112957D02*
X126750357Y-137642500D01*
X133279900Y-120967400D02*
X133279900Y-131112957D01*
G04 #@! TO.N,/AVDDU7*
X118697753Y-132147127D02*
X118363585Y-132481295D01*
X119587486Y-129849196D02*
X119587486Y-131257394D01*
X119587486Y-131257394D02*
X119148585Y-131696295D01*
X119148585Y-131696295D02*
X118697753Y-132147127D01*
X118363585Y-128625295D02*
X119153104Y-129389667D01*
X119153104Y-129389667D02*
X119587486Y-129849196D01*
X115435585Y-132481295D02*
X115237085Y-132282795D01*
X118363585Y-132481295D02*
X115435585Y-132481295D01*
X114022585Y-131068295D02*
X115237085Y-132282795D01*
X114022585Y-129156295D02*
X114022585Y-131068295D01*
G04 #@! TO.N,DH_TMS_SWDIO*
X101288600Y-127990500D02*
X101288600Y-128148099D01*
X99764600Y-126466500D02*
X101288600Y-127990500D01*
X99764600Y-119608500D02*
X99764600Y-126466500D01*
X103574600Y-115798500D02*
X99764600Y-119608500D01*
X115258600Y-115798500D02*
X103574600Y-115798500D01*
G04 #@! TO.N,DH_TCK_SWCLK*
X115258600Y-116814500D02*
X103059244Y-116814500D01*
X103059244Y-116814500D02*
X100118610Y-119755134D01*
X100118610Y-119755134D02*
X100118610Y-125712253D01*
X100118610Y-125712253D02*
X101855168Y-127448811D01*
G04 #@! TO.N,DH_TDO_SWO*
X115258600Y-117830500D02*
X102543888Y-117830500D01*
X103320600Y-127986281D02*
X100530819Y-125196500D01*
X103320600Y-128775099D02*
X103320600Y-127986281D01*
X100530819Y-119843569D02*
X100780600Y-119593788D01*
X100530819Y-125196500D02*
X100530819Y-119843569D01*
X102543888Y-117830500D02*
X100780600Y-119593788D01*
G04 #@! TO.N,DEBUG_EXT_CABLE_ATTACH*
X120922800Y-142976500D02*
X122446800Y-142976500D01*
X120922800Y-142976500D02*
X121266562Y-142976500D01*
X112718600Y-142976500D02*
X120922800Y-142976500D01*
X122446800Y-142976500D02*
X139134600Y-126288700D01*
X139134600Y-126288700D02*
X139134600Y-123558200D01*
X139134600Y-121132500D02*
X139134600Y-123558200D01*
X139134600Y-123558200D02*
X139134600Y-125258257D01*
G04 #@! TO.N,Net-(L2-Pad2)*
X113052585Y-130403295D02*
X113029585Y-130426295D01*
X113052585Y-129156295D02*
X113052585Y-130403295D01*
D24*
G04 #@! TO.N,PYNQ_3V3*
X85734763Y-147044663D02*
X66799711Y-147044663D01*
X88334600Y-149644500D02*
X85734763Y-147044663D01*
D23*
G04 #@! TO.N,/US0_TX*
X109035700Y-127482500D02*
X107562500Y-127482500D01*
X107562500Y-127482500D02*
X101364900Y-121284900D01*
X93795700Y-112902900D02*
X89325300Y-108432500D01*
X93795700Y-114020500D02*
X93795700Y-112902900D01*
X89325300Y-108432500D02*
X60775700Y-108432500D01*
X60775700Y-108432500D02*
X58743700Y-110464500D01*
X58743700Y-112129868D02*
X60577647Y-113963815D01*
X58743700Y-110464500D02*
X58743700Y-112129868D01*
G04 #@! TO.N,/US0_RX*
X108437017Y-128232969D02*
X107093769Y-128232969D01*
X107093769Y-128232969D02*
X101415700Y-122554900D01*
X98316900Y-122554900D02*
X95319700Y-122554900D01*
X95319700Y-122554900D02*
X92525700Y-119760900D01*
X92525700Y-115290500D02*
X91255700Y-114020500D01*
X92525700Y-119760900D02*
X92525700Y-115290500D01*
X91255700Y-114020500D02*
X86683700Y-109448500D01*
X62552962Y-109448500D02*
X60577647Y-111423815D01*
X86683700Y-109448500D02*
X62552962Y-109448500D01*
G04 #@! TO.N,/US0_CLK*
X107619169Y-128859969D02*
X106603169Y-128859969D01*
X106603169Y-128859969D02*
X101415700Y-123672500D01*
X88715700Y-114020500D02*
X89985700Y-115290500D01*
X89985700Y-115290500D02*
X89985700Y-119760900D01*
X98367700Y-123672500D02*
X93897300Y-123672500D01*
X89985700Y-119760900D02*
X93897300Y-123672500D01*
G04 #@! TO.N,VMCU*
X116252099Y-128599429D02*
X116397485Y-128744815D01*
X116252099Y-127728815D02*
X116252099Y-128599429D01*
X115404485Y-138927815D02*
X115127485Y-138650815D01*
X115404485Y-139666815D02*
X115404485Y-138927815D01*
X110768985Y-138373815D02*
X110768985Y-139450915D01*
X110768985Y-139450915D02*
X110781685Y-139463615D01*
X108394085Y-130037815D02*
X107405885Y-130037815D01*
X107405885Y-130037815D02*
X107276485Y-130167215D01*
X110070485Y-133395315D02*
X110070485Y-131996015D01*
X110070485Y-133395315D02*
X111505585Y-133395315D01*
X110070485Y-133395315D02*
X108523385Y-133395315D01*
X118198485Y-137025215D02*
X119189085Y-137025215D01*
X119189085Y-137025215D02*
X119214485Y-136999815D01*
X117675105Y-130268815D02*
X117578585Y-130172295D01*
X118960485Y-130268815D02*
X117675105Y-130268815D01*
X110070485Y-131430330D02*
X110070485Y-131996015D01*
X110070485Y-131381395D02*
X110070485Y-131430330D01*
X111025585Y-130426295D02*
X110070485Y-131381395D01*
X111629585Y-130426295D02*
X111025585Y-130426295D01*
X111505585Y-133395315D02*
X111617585Y-133395315D01*
D24*
X114674501Y-154415901D02*
X115538100Y-155279500D01*
X114157100Y-153898500D02*
X114674501Y-154415901D01*
X107032100Y-153898500D02*
X114157100Y-153898500D01*
X105778100Y-155152500D02*
X107032100Y-153898500D01*
X124472501Y-154669901D02*
X125336100Y-155533500D01*
X124054999Y-154252399D02*
X124472501Y-154669901D01*
X116565201Y-154252399D02*
X124054999Y-154252399D01*
X115538100Y-155279500D02*
X116565201Y-154252399D01*
X150228100Y-143611500D02*
X149085100Y-142468500D01*
X136594600Y-117576500D02*
X132530600Y-117576500D01*
X118840000Y-117576500D02*
X124344915Y-117576500D01*
X124344915Y-117576500D02*
X124910600Y-117576500D01*
X116782600Y-115519100D02*
X118840000Y-117576500D01*
X116782600Y-114020500D02*
X116782600Y-115519100D01*
X124910600Y-117576500D02*
X124910600Y-121640500D01*
X124910600Y-121640500D02*
X121100600Y-125450500D01*
X132530600Y-117576500D02*
X128403100Y-117576500D01*
X128403100Y-117576500D02*
X124910600Y-117576500D01*
D23*
X103263015Y-114020500D02*
X103955700Y-114020500D01*
X100145700Y-110903185D02*
X103263015Y-114020500D01*
X100145700Y-110337500D02*
X100145700Y-110903185D01*
X116782600Y-114020500D02*
X103955700Y-114020500D01*
D24*
X149085100Y-142468500D02*
X125418600Y-142468500D01*
X125291700Y-142595400D02*
X125418600Y-142468500D01*
X125291700Y-145770500D02*
X125291700Y-142595400D01*
X129630700Y-155533500D02*
X136070700Y-155533500D01*
X136070700Y-155533500D02*
X136086700Y-155549500D01*
X136086700Y-155549500D02*
X141166700Y-155549500D01*
G04 #@! TD*
D25*
G04 #@! TO.N,GND*
G36*
X101071211Y-103796419D02*
X100960600Y-104344500D01*
X100960600Y-104519500D01*
X102389600Y-104519500D01*
X102389600Y-104499500D01*
X102397600Y-104499500D01*
X102397600Y-104519500D01*
X103826600Y-104519500D01*
X103826600Y-104344500D01*
X103715989Y-103796419D01*
X103630671Y-103669500D01*
X106616529Y-103669500D01*
X106531211Y-103796419D01*
X106420600Y-104344500D01*
X106420600Y-104519500D01*
X107849600Y-104519500D01*
X107849600Y-104499500D01*
X107857600Y-104499500D01*
X107857600Y-104519500D01*
X109286600Y-104519500D01*
X109286600Y-104344500D01*
X109175989Y-103796419D01*
X109090671Y-103669500D01*
X153549601Y-103669500D01*
X153549600Y-168059500D01*
X30739600Y-168059500D01*
X30739600Y-159371942D01*
X41196379Y-159371942D01*
X41196379Y-160013872D01*
X41442035Y-160606938D01*
X41895948Y-161060851D01*
X42489014Y-161306507D01*
X43130944Y-161306507D01*
X43724010Y-161060851D01*
X44079979Y-160704882D01*
X44435948Y-161060851D01*
X45029014Y-161306507D01*
X45670944Y-161306507D01*
X46264010Y-161060851D01*
X46619979Y-160704882D01*
X46975948Y-161060851D01*
X47569014Y-161306507D01*
X48210944Y-161306507D01*
X48804010Y-161060851D01*
X49159979Y-160704882D01*
X49515948Y-161060851D01*
X50109014Y-161306507D01*
X50750944Y-161306507D01*
X51344010Y-161060851D01*
X51699979Y-160704882D01*
X52055948Y-161060851D01*
X52649014Y-161306507D01*
X53290944Y-161306507D01*
X53884010Y-161060851D01*
X54214017Y-160730844D01*
X54477699Y-160730844D01*
X54541392Y-161032858D01*
X55127898Y-161301523D01*
X55772573Y-161325290D01*
X56377270Y-161100542D01*
X56478566Y-161032858D01*
X56542259Y-160730844D01*
X57017699Y-160730844D01*
X57081392Y-161032858D01*
X57667898Y-161301523D01*
X58312573Y-161325290D01*
X58917270Y-161100542D01*
X59018566Y-161032858D01*
X59082259Y-160730844D01*
X58049979Y-159698564D01*
X57017699Y-160730844D01*
X56542259Y-160730844D01*
X55509979Y-159698564D01*
X54477699Y-160730844D01*
X54214017Y-160730844D01*
X54263627Y-160681234D01*
X54472042Y-160725187D01*
X55504322Y-159692907D01*
X55515636Y-159692907D01*
X56547916Y-160725187D01*
X56779979Y-160676246D01*
X57012042Y-160725187D01*
X58044322Y-159692907D01*
X57012042Y-158660627D01*
X56779979Y-158709568D01*
X56547916Y-158660627D01*
X55515636Y-159692907D01*
X55504322Y-159692907D01*
X54472042Y-158660627D01*
X54263627Y-158704580D01*
X54028392Y-158469345D01*
X54227647Y-158270090D01*
X54501181Y-158543624D01*
X54477699Y-158654970D01*
X55509979Y-159687250D01*
X56542259Y-158654970D01*
X56514481Y-158523256D01*
X56767647Y-158270090D01*
X57041181Y-158543624D01*
X57017699Y-158654970D01*
X58049979Y-159687250D01*
X59082259Y-158654970D01*
X59054481Y-158523256D01*
X59307647Y-158270090D01*
X59519234Y-158481677D01*
X59296331Y-158704580D01*
X59087916Y-158660627D01*
X58055636Y-159692907D01*
X59087916Y-160725187D01*
X59296331Y-160681234D01*
X59675948Y-161060851D01*
X60269014Y-161306507D01*
X60910944Y-161306507D01*
X61504010Y-161060851D01*
X61957923Y-160606938D01*
X62203579Y-160013872D01*
X62203579Y-159371942D01*
X61957923Y-158778876D01*
X61648392Y-158469345D01*
X61945591Y-158172146D01*
X62191247Y-157579080D01*
X62191247Y-156937150D01*
X64044047Y-156937150D01*
X64044047Y-157579080D01*
X64289703Y-158172146D01*
X64645672Y-158528115D01*
X64289703Y-158884084D01*
X64044047Y-159477150D01*
X64044047Y-160119080D01*
X64289703Y-160712146D01*
X64743616Y-161166059D01*
X65336682Y-161411715D01*
X65978612Y-161411715D01*
X66571678Y-161166059D01*
X66927647Y-160810090D01*
X67283616Y-161166059D01*
X67876682Y-161411715D01*
X68518612Y-161411715D01*
X69111678Y-161166059D01*
X69467647Y-160810090D01*
X69823616Y-161166059D01*
X70416682Y-161411715D01*
X71058612Y-161411715D01*
X71651678Y-161166059D01*
X72007647Y-160810090D01*
X72363616Y-161166059D01*
X72956682Y-161411715D01*
X73598612Y-161411715D01*
X74191678Y-161166059D01*
X74547647Y-160810090D01*
X74903616Y-161166059D01*
X75496682Y-161411715D01*
X76138612Y-161411715D01*
X76731678Y-161166059D01*
X77087647Y-160810090D01*
X77443616Y-161166059D01*
X78036682Y-161411715D01*
X78678612Y-161411715D01*
X79271678Y-161166059D01*
X79725591Y-160712146D01*
X79971247Y-160119080D01*
X79971247Y-159477150D01*
X79725591Y-158884084D01*
X79369622Y-158528115D01*
X79725591Y-158172146D01*
X79924266Y-157692500D01*
X101592888Y-157692500D01*
X101718122Y-158322095D01*
X102074759Y-158855841D01*
X102234386Y-158962500D01*
X102074759Y-159069159D01*
X101718122Y-159602905D01*
X101592888Y-160232500D01*
X101718122Y-160862095D01*
X102074759Y-161395841D01*
X102608505Y-161752478D01*
X103079175Y-161846100D01*
X103397025Y-161846100D01*
X103867695Y-161752478D01*
X104271000Y-161482998D01*
X104373780Y-161636820D01*
X104621865Y-161802584D01*
X104914500Y-161860793D01*
X106641700Y-161860793D01*
X106934335Y-161802584D01*
X107182420Y-161636820D01*
X107348184Y-161388735D01*
X107406393Y-161096100D01*
X107406393Y-159368900D01*
X107348184Y-159076265D01*
X107182420Y-158828180D01*
X107028598Y-158725400D01*
X107298078Y-158322095D01*
X107423312Y-157692500D01*
X107298078Y-157062905D01*
X106941441Y-156529159D01*
X106781814Y-156422500D01*
X106941441Y-156315841D01*
X107298078Y-155782095D01*
X107423312Y-155152500D01*
X107400825Y-155039448D01*
X107474273Y-154966000D01*
X111408210Y-154966000D01*
X111397095Y-155021876D01*
X111566006Y-155275500D01*
X112994100Y-155275500D01*
X112994100Y-155255500D01*
X113002100Y-155255500D01*
X113002100Y-155275500D01*
X113022100Y-155275500D01*
X113022100Y-155283500D01*
X113002100Y-155283500D01*
X113002100Y-155303500D01*
X112994100Y-155303500D01*
X112994100Y-155283500D01*
X111566006Y-155283500D01*
X111397095Y-155537124D01*
X111420376Y-155654164D01*
X111683851Y-156229413D01*
X112014175Y-156536277D01*
X111834759Y-156656159D01*
X111478122Y-157189905D01*
X111352888Y-157819500D01*
X111478122Y-158449095D01*
X111834759Y-158982841D01*
X111994386Y-159089500D01*
X111834759Y-159196159D01*
X111478122Y-159729905D01*
X111352888Y-160359500D01*
X111478122Y-160989095D01*
X111834759Y-161522841D01*
X112368505Y-161879478D01*
X112839175Y-161973100D01*
X113157025Y-161973100D01*
X113627695Y-161879478D01*
X114031000Y-161609998D01*
X114133780Y-161763820D01*
X114381865Y-161929584D01*
X114674500Y-161987793D01*
X116401700Y-161987793D01*
X116694335Y-161929584D01*
X116942420Y-161763820D01*
X117108184Y-161515735D01*
X117166393Y-161223100D01*
X117166393Y-159495900D01*
X117108184Y-159203265D01*
X116942420Y-158955180D01*
X116788598Y-158852400D01*
X117058078Y-158449095D01*
X117183312Y-157819500D01*
X117058078Y-157189905D01*
X116701441Y-156656159D01*
X116541814Y-156549500D01*
X116701441Y-156442841D01*
X117058078Y-155909095D01*
X117175276Y-155319899D01*
X121224414Y-155319899D01*
X121364006Y-155529500D01*
X122792100Y-155529500D01*
X122792100Y-155509500D01*
X122800100Y-155509500D01*
X122800100Y-155529500D01*
X122820100Y-155529500D01*
X122820100Y-155537500D01*
X122800100Y-155537500D01*
X122800100Y-155557500D01*
X122792100Y-155557500D01*
X122792100Y-155537500D01*
X121364006Y-155537500D01*
X121195095Y-155791124D01*
X121218376Y-155908164D01*
X121481851Y-156483413D01*
X121812175Y-156790277D01*
X121632759Y-156910159D01*
X121276122Y-157443905D01*
X121150888Y-158073500D01*
X121276122Y-158703095D01*
X121632759Y-159236841D01*
X121792386Y-159343500D01*
X121632759Y-159450159D01*
X121276122Y-159983905D01*
X121150888Y-160613500D01*
X121276122Y-161243095D01*
X121632759Y-161776841D01*
X122166505Y-162133478D01*
X122637175Y-162227100D01*
X122955025Y-162227100D01*
X123425695Y-162133478D01*
X123829000Y-161863998D01*
X123931780Y-162017820D01*
X124179865Y-162183584D01*
X124472500Y-162241793D01*
X126199700Y-162241793D01*
X126492335Y-162183584D01*
X126740420Y-162017820D01*
X126898717Y-161780910D01*
X133200457Y-161780910D01*
X133200457Y-163508110D01*
X133258666Y-163800745D01*
X133424430Y-164048830D01*
X133672515Y-164214594D01*
X133965150Y-164272803D01*
X135692350Y-164272803D01*
X135984985Y-164214594D01*
X136233070Y-164048830D01*
X136335850Y-163895008D01*
X136739155Y-164164488D01*
X137209825Y-164258110D01*
X137527675Y-164258110D01*
X137998345Y-164164488D01*
X138532091Y-163807851D01*
X138638750Y-163648224D01*
X138745409Y-163807851D01*
X139279155Y-164164488D01*
X139749825Y-164258110D01*
X140067675Y-164258110D01*
X140538345Y-164164488D01*
X141072091Y-163807851D01*
X141428728Y-163274105D01*
X141553962Y-162644510D01*
X141428728Y-162014915D01*
X141072091Y-161481169D01*
X140904631Y-161369276D01*
X141289297Y-160955202D01*
X141509755Y-160362134D01*
X141340845Y-160108510D01*
X139912750Y-160108510D01*
X139912750Y-160128510D01*
X139904750Y-160128510D01*
X139904750Y-160108510D01*
X137372750Y-160108510D01*
X137372750Y-160128510D01*
X137364750Y-160128510D01*
X137364750Y-160108510D01*
X134832750Y-160108510D01*
X134832750Y-160128510D01*
X134824750Y-160128510D01*
X134824750Y-160108510D01*
X133396655Y-160108510D01*
X133227745Y-160362134D01*
X133448203Y-160955202D01*
X133602450Y-161121242D01*
X133424430Y-161240190D01*
X133258666Y-161488275D01*
X133200457Y-161780910D01*
X126898717Y-161780910D01*
X126906184Y-161769735D01*
X126964393Y-161477100D01*
X126964393Y-159846886D01*
X133227745Y-159846886D01*
X133396655Y-160100510D01*
X134824750Y-160100510D01*
X134824750Y-158672416D01*
X134832750Y-158672416D01*
X134832750Y-160100510D01*
X137364750Y-160100510D01*
X137364750Y-158672416D01*
X137372750Y-158672416D01*
X137372750Y-160100510D01*
X139904750Y-160100510D01*
X139904750Y-158672416D01*
X139912750Y-158672416D01*
X139912750Y-160100510D01*
X141340845Y-160100510D01*
X141509755Y-159846886D01*
X141289297Y-159253818D01*
X140858663Y-158790261D01*
X140283414Y-158526786D01*
X140166374Y-158503505D01*
X139912750Y-158672416D01*
X139904750Y-158672416D01*
X139651126Y-158503505D01*
X139534086Y-158526786D01*
X138958837Y-158790261D01*
X138638750Y-159134819D01*
X138318663Y-158790261D01*
X137743414Y-158526786D01*
X137626374Y-158503505D01*
X137372750Y-158672416D01*
X137364750Y-158672416D01*
X137111126Y-158503505D01*
X136994086Y-158526786D01*
X136418837Y-158790261D01*
X136098750Y-159134819D01*
X135778663Y-158790261D01*
X135203414Y-158526786D01*
X135086374Y-158503505D01*
X134832750Y-158672416D01*
X134824750Y-158672416D01*
X134571126Y-158503505D01*
X134454086Y-158526786D01*
X133878837Y-158790261D01*
X133448203Y-159253818D01*
X133227745Y-159846886D01*
X126964393Y-159846886D01*
X126964393Y-159749900D01*
X126906184Y-159457265D01*
X126740420Y-159209180D01*
X126586598Y-159106400D01*
X126856078Y-158703095D01*
X126981312Y-158073500D01*
X126856078Y-157443905D01*
X126499441Y-156910159D01*
X126339814Y-156803500D01*
X126499441Y-156696841D01*
X126856078Y-156163095D01*
X126981312Y-155533500D01*
X126935812Y-155304751D01*
X128480700Y-155304751D01*
X128480700Y-155762249D01*
X128655777Y-156184923D01*
X128979277Y-156508423D01*
X129401951Y-156683500D01*
X129859449Y-156683500D01*
X130058622Y-156601000D01*
X135620151Y-156601000D01*
X135857951Y-156699500D01*
X136315449Y-156699500D01*
X136514622Y-156617000D01*
X140738778Y-156617000D01*
X140937951Y-156699500D01*
X141395449Y-156699500D01*
X141818123Y-156524423D01*
X142141623Y-156200923D01*
X142316700Y-155778249D01*
X142316700Y-155320751D01*
X142141623Y-154898077D01*
X141818123Y-154574577D01*
X141395449Y-154399500D01*
X140937951Y-154399500D01*
X140738778Y-154482000D01*
X136514622Y-154482000D01*
X136315449Y-154399500D01*
X135857951Y-154399500D01*
X135697406Y-154466000D01*
X130058622Y-154466000D01*
X129859449Y-154383500D01*
X129401951Y-154383500D01*
X128979277Y-154558577D01*
X128655777Y-154882077D01*
X128480700Y-155304751D01*
X126935812Y-155304751D01*
X126856078Y-154903905D01*
X126499441Y-154370159D01*
X125965695Y-154013522D01*
X125495025Y-153919900D01*
X125232172Y-153919900D01*
X124884179Y-153571907D01*
X124824623Y-153482775D01*
X124471517Y-153246837D01*
X124160135Y-153184899D01*
X124160131Y-153184899D01*
X124054999Y-153163987D01*
X123949867Y-153184899D01*
X116670332Y-153184899D01*
X116565200Y-153163987D01*
X116460068Y-153184899D01*
X116460065Y-153184899D01*
X116148683Y-153246837D01*
X115795577Y-153482775D01*
X115736022Y-153571905D01*
X115642027Y-153665900D01*
X115434172Y-153665900D01*
X114986280Y-153218008D01*
X114926724Y-153128876D01*
X114573618Y-152892938D01*
X114262236Y-152831000D01*
X114262232Y-152831000D01*
X114157100Y-152810088D01*
X114051968Y-152831000D01*
X107137232Y-152831000D01*
X107032100Y-152810088D01*
X106926968Y-152831000D01*
X106926964Y-152831000D01*
X106615582Y-152892938D01*
X106262476Y-153128876D01*
X106202921Y-153218006D01*
X105882027Y-153538900D01*
X105619175Y-153538900D01*
X105148505Y-153632522D01*
X104614759Y-153989159D01*
X104502866Y-154156619D01*
X104088792Y-153771953D01*
X103495724Y-153551495D01*
X103242100Y-153720405D01*
X103242100Y-155148500D01*
X103262100Y-155148500D01*
X103262100Y-155156500D01*
X103242100Y-155156500D01*
X103242100Y-155176500D01*
X103234100Y-155176500D01*
X103234100Y-155156500D01*
X101806006Y-155156500D01*
X101637095Y-155410124D01*
X101660376Y-155527164D01*
X101923851Y-156102413D01*
X102254175Y-156409277D01*
X102074759Y-156529159D01*
X101718122Y-157062905D01*
X101592888Y-157692500D01*
X79924266Y-157692500D01*
X79971247Y-157579080D01*
X79971247Y-156937150D01*
X79725591Y-156344084D01*
X79271678Y-155890171D01*
X78678612Y-155644515D01*
X78036682Y-155644515D01*
X77443616Y-155890171D01*
X77087647Y-156246140D01*
X76731678Y-155890171D01*
X76138612Y-155644515D01*
X75496682Y-155644515D01*
X74903616Y-155890171D01*
X74547647Y-156246140D01*
X74191678Y-155890171D01*
X73598612Y-155644515D01*
X72956682Y-155644515D01*
X72363616Y-155890171D01*
X72007647Y-156246140D01*
X71651678Y-155890171D01*
X71058612Y-155644515D01*
X70416682Y-155644515D01*
X69823616Y-155890171D01*
X69467647Y-156246140D01*
X69111678Y-155890171D01*
X68518612Y-155644515D01*
X67876682Y-155644515D01*
X67283616Y-155890171D01*
X66927647Y-156246140D01*
X66571678Y-155890171D01*
X65978612Y-155644515D01*
X65336682Y-155644515D01*
X64743616Y-155890171D01*
X64289703Y-156344084D01*
X64044047Y-156937150D01*
X62191247Y-156937150D01*
X61945591Y-156344084D01*
X61491678Y-155890171D01*
X60898612Y-155644515D01*
X60256682Y-155644515D01*
X59663616Y-155890171D01*
X59307647Y-156246140D01*
X58951678Y-155890171D01*
X58358612Y-155644515D01*
X57716682Y-155644515D01*
X57123616Y-155890171D01*
X56767647Y-156246140D01*
X56411678Y-155890171D01*
X55818612Y-155644515D01*
X55176682Y-155644515D01*
X54583616Y-155890171D01*
X54227647Y-156246140D01*
X53871678Y-155890171D01*
X53278612Y-155644515D01*
X52636682Y-155644515D01*
X52043616Y-155890171D01*
X51589703Y-156344084D01*
X51344047Y-156937150D01*
X51344047Y-157579080D01*
X51589703Y-158172146D01*
X51899234Y-158481677D01*
X51699979Y-158680932D01*
X51344010Y-158324963D01*
X50750944Y-158079307D01*
X50109014Y-158079307D01*
X49515948Y-158324963D01*
X49159979Y-158680932D01*
X48804010Y-158324963D01*
X48210944Y-158079307D01*
X47569014Y-158079307D01*
X46975948Y-158324963D01*
X46619979Y-158680932D01*
X46264010Y-158324963D01*
X45670944Y-158079307D01*
X45029014Y-158079307D01*
X44435948Y-158324963D01*
X44079979Y-158680932D01*
X43724010Y-158324963D01*
X43130944Y-158079307D01*
X42489014Y-158079307D01*
X41895948Y-158324963D01*
X41442035Y-158778876D01*
X41196379Y-159371942D01*
X30739600Y-159371942D01*
X30739600Y-152794500D01*
X81639907Y-152794500D01*
X81639907Y-154494500D01*
X81698116Y-154787135D01*
X81863880Y-155035220D01*
X82111965Y-155200984D01*
X82404600Y-155259193D01*
X84104600Y-155259193D01*
X84397235Y-155200984D01*
X84645320Y-155035220D01*
X84811084Y-154787135D01*
X84869293Y-154494500D01*
X84869293Y-152794500D01*
X84811084Y-152501865D01*
X84645320Y-152253780D01*
X84464612Y-152133036D01*
X84557847Y-152046419D01*
X84819100Y-151475989D01*
X84842172Y-151359997D01*
X84673094Y-151108500D01*
X83258600Y-151108500D01*
X83258600Y-151128500D01*
X83250600Y-151128500D01*
X83250600Y-151108500D01*
X81836106Y-151108500D01*
X81667028Y-151359997D01*
X81690100Y-151475989D01*
X81951353Y-152046419D01*
X82044588Y-152133036D01*
X81863880Y-152253780D01*
X81698116Y-152501865D01*
X81639907Y-152794500D01*
X30739600Y-152794500D01*
X30739600Y-150849003D01*
X81667028Y-150849003D01*
X81836106Y-151100500D01*
X83250600Y-151100500D01*
X83250600Y-149686005D01*
X83258600Y-149686005D01*
X83258600Y-151100500D01*
X84673094Y-151100500D01*
X84842172Y-150849003D01*
X84819100Y-150733011D01*
X84557847Y-150162581D01*
X84098186Y-149735549D01*
X83510097Y-149516928D01*
X83258600Y-149686005D01*
X83250600Y-149686005D01*
X82999103Y-149516928D01*
X82411014Y-149735549D01*
X81951353Y-150162581D01*
X81690100Y-150733011D01*
X81667028Y-150849003D01*
X30739600Y-150849003D01*
X30739600Y-147302287D01*
X49958706Y-147302287D01*
X49981987Y-147419327D01*
X50245462Y-147994576D01*
X50709019Y-148425210D01*
X51302087Y-148645668D01*
X51555711Y-148476758D01*
X51555711Y-147048663D01*
X50127617Y-147048663D01*
X49958706Y-147302287D01*
X30739600Y-147302287D01*
X30739600Y-124184663D01*
X49914499Y-124184663D01*
X50039733Y-124814258D01*
X50396370Y-125348004D01*
X50555997Y-125454663D01*
X50396370Y-125561322D01*
X50039733Y-126095068D01*
X49914499Y-126724663D01*
X50039733Y-127354258D01*
X50396370Y-127888004D01*
X50555997Y-127994663D01*
X50396370Y-128101322D01*
X50039733Y-128635068D01*
X49914499Y-129264663D01*
X50039733Y-129894258D01*
X50396370Y-130428004D01*
X50555997Y-130534663D01*
X50396370Y-130641322D01*
X50039733Y-131175068D01*
X49914499Y-131804663D01*
X50039733Y-132434258D01*
X50396370Y-132968004D01*
X50555997Y-133074663D01*
X50396370Y-133181322D01*
X50039733Y-133715068D01*
X49914499Y-134344663D01*
X50039733Y-134974258D01*
X50396370Y-135508004D01*
X50555997Y-135614663D01*
X50396370Y-135721322D01*
X50039733Y-136255068D01*
X49914499Y-136884663D01*
X50039733Y-137514258D01*
X50396370Y-138048004D01*
X50555997Y-138154663D01*
X50396370Y-138261322D01*
X50039733Y-138795068D01*
X49914499Y-139424663D01*
X50039733Y-140054258D01*
X50396370Y-140588004D01*
X50555997Y-140694663D01*
X50396370Y-140801322D01*
X50039733Y-141335068D01*
X49914499Y-141964663D01*
X50039733Y-142594258D01*
X50396370Y-143128004D01*
X50555997Y-143234663D01*
X50396370Y-143341322D01*
X50039733Y-143875068D01*
X49914499Y-144504663D01*
X50039733Y-145134258D01*
X50396370Y-145668004D01*
X50575786Y-145787886D01*
X50245462Y-146094750D01*
X49981987Y-146669999D01*
X49958706Y-146787039D01*
X50127617Y-147040663D01*
X51555711Y-147040663D01*
X51555711Y-147020663D01*
X51563711Y-147020663D01*
X51563711Y-147040663D01*
X51583711Y-147040663D01*
X51583711Y-147048663D01*
X51563711Y-147048663D01*
X51563711Y-148476758D01*
X51817335Y-148645668D01*
X52410403Y-148425210D01*
X52576443Y-148270963D01*
X52695391Y-148448983D01*
X52943476Y-148614747D01*
X53236111Y-148672956D01*
X54963311Y-148672956D01*
X55255946Y-148614747D01*
X55504031Y-148448983D01*
X55669795Y-148200898D01*
X55728004Y-147908263D01*
X55728004Y-147302287D01*
X62658706Y-147302287D01*
X62681987Y-147419327D01*
X62945462Y-147994576D01*
X63409019Y-148425210D01*
X64002087Y-148645668D01*
X64255711Y-148476758D01*
X64255711Y-147048663D01*
X62827617Y-147048663D01*
X62658706Y-147302287D01*
X55728004Y-147302287D01*
X55728004Y-146181063D01*
X55669795Y-145888428D01*
X55504031Y-145640343D01*
X55350209Y-145537563D01*
X55619689Y-145134258D01*
X55744923Y-144504663D01*
X55619689Y-143875068D01*
X55263052Y-143341322D01*
X55103425Y-143234663D01*
X55263052Y-143128004D01*
X55619689Y-142594258D01*
X55744923Y-141964663D01*
X55619689Y-141335068D01*
X55263052Y-140801322D01*
X55103425Y-140694663D01*
X55263052Y-140588004D01*
X55619689Y-140054258D01*
X55744923Y-139424663D01*
X55619689Y-138795068D01*
X55263052Y-138261322D01*
X55103425Y-138154663D01*
X55263052Y-138048004D01*
X55619689Y-137514258D01*
X55744923Y-136884663D01*
X55619689Y-136255068D01*
X55263052Y-135721322D01*
X55103425Y-135614663D01*
X55263052Y-135508004D01*
X55619689Y-134974258D01*
X55744923Y-134344663D01*
X55619689Y-133715068D01*
X55263052Y-133181322D01*
X55103425Y-133074663D01*
X55263052Y-132968004D01*
X55619689Y-132434258D01*
X55744923Y-131804663D01*
X55619689Y-131175068D01*
X55263052Y-130641322D01*
X55103425Y-130534663D01*
X55263052Y-130428004D01*
X55619689Y-129894258D01*
X55744923Y-129264663D01*
X55619689Y-128635068D01*
X55263052Y-128101322D01*
X55083636Y-127981440D01*
X55413960Y-127674576D01*
X55677435Y-127099327D01*
X55700716Y-126982287D01*
X55531805Y-126728663D01*
X54103711Y-126728663D01*
X54103711Y-126748663D01*
X54095711Y-126748663D01*
X54095711Y-126728663D01*
X54075711Y-126728663D01*
X54075711Y-126720663D01*
X54095711Y-126720663D01*
X54095711Y-126700663D01*
X54103711Y-126700663D01*
X54103711Y-126720663D01*
X55531805Y-126720663D01*
X55700716Y-126467039D01*
X55677435Y-126349999D01*
X55413960Y-125774750D01*
X55083636Y-125467886D01*
X55263052Y-125348004D01*
X55619689Y-124814258D01*
X55744923Y-124184663D01*
X62614499Y-124184663D01*
X62739733Y-124814258D01*
X63096370Y-125348004D01*
X63255997Y-125454663D01*
X63096370Y-125561322D01*
X62739733Y-126095068D01*
X62614499Y-126724663D01*
X62739733Y-127354258D01*
X63096370Y-127888004D01*
X63255997Y-127994663D01*
X63096370Y-128101322D01*
X62739733Y-128635068D01*
X62614499Y-129264663D01*
X62739733Y-129894258D01*
X63096370Y-130428004D01*
X63255997Y-130534663D01*
X63096370Y-130641322D01*
X62739733Y-131175068D01*
X62614499Y-131804663D01*
X62739733Y-132434258D01*
X63096370Y-132968004D01*
X63255997Y-133074663D01*
X63096370Y-133181322D01*
X62739733Y-133715068D01*
X62614499Y-134344663D01*
X62739733Y-134974258D01*
X63096370Y-135508004D01*
X63255997Y-135614663D01*
X63096370Y-135721322D01*
X62739733Y-136255068D01*
X62614499Y-136884663D01*
X62739733Y-137514258D01*
X63096370Y-138048004D01*
X63255997Y-138154663D01*
X63096370Y-138261322D01*
X62739733Y-138795068D01*
X62614499Y-139424663D01*
X62739733Y-140054258D01*
X63096370Y-140588004D01*
X63255997Y-140694663D01*
X63096370Y-140801322D01*
X62739733Y-141335068D01*
X62614499Y-141964663D01*
X62739733Y-142594258D01*
X63096370Y-143128004D01*
X63255997Y-143234663D01*
X63096370Y-143341322D01*
X62739733Y-143875068D01*
X62614499Y-144504663D01*
X62739733Y-145134258D01*
X63096370Y-145668004D01*
X63275786Y-145787886D01*
X62945462Y-146094750D01*
X62681987Y-146669999D01*
X62658706Y-146787039D01*
X62827617Y-147040663D01*
X64255711Y-147040663D01*
X64255711Y-147020663D01*
X64263711Y-147020663D01*
X64263711Y-147040663D01*
X64283711Y-147040663D01*
X64283711Y-147048663D01*
X64263711Y-147048663D01*
X64263711Y-148476758D01*
X64517335Y-148645668D01*
X65110403Y-148425210D01*
X65276443Y-148270963D01*
X65395391Y-148448983D01*
X65643476Y-148614747D01*
X65936111Y-148672956D01*
X67663311Y-148672956D01*
X67955946Y-148614747D01*
X68204031Y-148448983D01*
X68369795Y-148200898D01*
X68387446Y-148112163D01*
X85292591Y-148112163D01*
X86834600Y-149654173D01*
X86834600Y-149942869D01*
X87062961Y-150494182D01*
X87213279Y-150644500D01*
X87062961Y-150794818D01*
X86834600Y-151346131D01*
X86834600Y-151942869D01*
X87062961Y-152494182D01*
X87213279Y-152644500D01*
X87062961Y-152794818D01*
X86834600Y-153346131D01*
X86834600Y-153942869D01*
X87062961Y-154494182D01*
X87484918Y-154916139D01*
X88036231Y-155144500D01*
X88632969Y-155144500D01*
X89184282Y-154916139D01*
X89606239Y-154494182D01*
X89834600Y-153942869D01*
X89834600Y-153346131D01*
X89606239Y-152794818D01*
X89455921Y-152644500D01*
X89606239Y-152494182D01*
X89834600Y-151942869D01*
X89834600Y-151346131D01*
X89606239Y-150794818D01*
X89455921Y-150644500D01*
X89606239Y-150494182D01*
X89834600Y-149942869D01*
X89834600Y-149346131D01*
X89606239Y-148794818D01*
X89455921Y-148644500D01*
X89606239Y-148494182D01*
X89834600Y-147942869D01*
X89834600Y-147346131D01*
X90134600Y-147346131D01*
X90134600Y-147942869D01*
X90362961Y-148494182D01*
X90513279Y-148644500D01*
X90362961Y-148794818D01*
X90134600Y-149346131D01*
X90134600Y-149942869D01*
X90362961Y-150494182D01*
X90513279Y-150644500D01*
X90362961Y-150794818D01*
X90134600Y-151346131D01*
X90134600Y-151942869D01*
X90362961Y-152494182D01*
X90513279Y-152644500D01*
X90362961Y-152794818D01*
X90134600Y-153346131D01*
X90134600Y-153942869D01*
X90362961Y-154494182D01*
X90784918Y-154916139D01*
X91336231Y-155144500D01*
X91932969Y-155144500D01*
X92484282Y-154916139D01*
X92505545Y-154894876D01*
X101637095Y-154894876D01*
X101806006Y-155148500D01*
X103234100Y-155148500D01*
X103234100Y-153720405D01*
X102980476Y-153551495D01*
X102387408Y-153771953D01*
X101923851Y-154202587D01*
X101660376Y-154777836D01*
X101637095Y-154894876D01*
X92505545Y-154894876D01*
X92906239Y-154494182D01*
X93134600Y-153942869D01*
X93134600Y-153346131D01*
X92906239Y-152794818D01*
X92755921Y-152644500D01*
X92906239Y-152494182D01*
X93134600Y-151942869D01*
X93134600Y-151346131D01*
X92906239Y-150794818D01*
X92755921Y-150644500D01*
X92906239Y-150494182D01*
X93134600Y-149942869D01*
X93134600Y-149346131D01*
X92906239Y-148794818D01*
X92755921Y-148644500D01*
X92906239Y-148494182D01*
X93134600Y-147942869D01*
X93134600Y-147346131D01*
X92906239Y-146794818D01*
X92484282Y-146372861D01*
X91932969Y-146144500D01*
X91336231Y-146144500D01*
X90784918Y-146372861D01*
X90362961Y-146794818D01*
X90134600Y-147346131D01*
X89834600Y-147346131D01*
X89606239Y-146794818D01*
X89184282Y-146372861D01*
X88632969Y-146144500D01*
X88036231Y-146144500D01*
X87484918Y-146372861D01*
X87062961Y-146794818D01*
X87042936Y-146843163D01*
X86563943Y-146364171D01*
X86504387Y-146275039D01*
X86151281Y-146039101D01*
X85839899Y-145977163D01*
X85839895Y-145977163D01*
X85734763Y-145956251D01*
X85629631Y-145977163D01*
X68387446Y-145977163D01*
X68369795Y-145888428D01*
X68204031Y-145640343D01*
X68050209Y-145537563D01*
X68319689Y-145134258D01*
X68444923Y-144504663D01*
X68319689Y-143875068D01*
X67963052Y-143341322D01*
X67803425Y-143234663D01*
X67963052Y-143128004D01*
X68217128Y-142747751D01*
X111568600Y-142747751D01*
X111568600Y-143205249D01*
X111743677Y-143627923D01*
X112067177Y-143951423D01*
X112489851Y-144126500D01*
X112947349Y-144126500D01*
X113370023Y-143951423D01*
X113467946Y-143853500D01*
X122360430Y-143853500D01*
X122446800Y-143870680D01*
X122533170Y-143853500D01*
X122533175Y-143853500D01*
X122788988Y-143802616D01*
X123079081Y-143608781D01*
X123128010Y-143535554D01*
X124236839Y-142426725D01*
X124203288Y-142595400D01*
X124224201Y-142700537D01*
X124224200Y-145342578D01*
X124141700Y-145541751D01*
X124141700Y-145999249D01*
X124316777Y-146421923D01*
X124640277Y-146745423D01*
X125062951Y-146920500D01*
X125520449Y-146920500D01*
X125943123Y-146745423D01*
X126266623Y-146421923D01*
X126441700Y-145999249D01*
X126441700Y-145541751D01*
X126359200Y-145342578D01*
X126359200Y-143536000D01*
X148642928Y-143536000D01*
X149170677Y-144063749D01*
X149253177Y-144262923D01*
X149576677Y-144586423D01*
X149999351Y-144761500D01*
X150456849Y-144761500D01*
X150879523Y-144586423D01*
X151203023Y-144262923D01*
X151378100Y-143840249D01*
X151378100Y-143382751D01*
X151203023Y-142960077D01*
X150879523Y-142636577D01*
X150680349Y-142554077D01*
X149914280Y-141788008D01*
X149854724Y-141698876D01*
X149501618Y-141462938D01*
X149190236Y-141401000D01*
X149190232Y-141401000D01*
X149085100Y-141380088D01*
X148979968Y-141401000D01*
X125846522Y-141401000D01*
X125647349Y-141318500D01*
X125345064Y-141318500D01*
X139693658Y-126969907D01*
X139766881Y-126920981D01*
X139960716Y-126630888D01*
X140011600Y-126375075D01*
X140011600Y-126375071D01*
X140028780Y-126288701D01*
X140011600Y-126202331D01*
X140011600Y-121881846D01*
X140109523Y-121783923D01*
X140284600Y-121361249D01*
X140284600Y-120903751D01*
X140109523Y-120481077D01*
X139786023Y-120157577D01*
X139363349Y-119982500D01*
X138905851Y-119982500D01*
X138483177Y-120157577D01*
X138159677Y-120481077D01*
X137984600Y-120903751D01*
X137984600Y-121361249D01*
X138159677Y-121783923D01*
X138257600Y-121881846D01*
X138257601Y-123471821D01*
X138257600Y-123471826D01*
X138257601Y-124452381D01*
X138257600Y-125925435D01*
X134156900Y-130026135D01*
X134156900Y-121716746D01*
X134254823Y-121618823D01*
X134429900Y-121196149D01*
X134429900Y-120738651D01*
X134254823Y-120315977D01*
X133931323Y-119992477D01*
X133508649Y-119817400D01*
X133051151Y-119817400D01*
X132628477Y-119992477D01*
X132304977Y-120315977D01*
X132129900Y-120738651D01*
X132129900Y-121196149D01*
X132304977Y-121618823D01*
X132402900Y-121716746D01*
X132402901Y-130749691D01*
X126387093Y-136765500D01*
X124135946Y-136765500D01*
X124038023Y-136667577D01*
X123615349Y-136492500D01*
X123157851Y-136492500D01*
X122735177Y-136667577D01*
X122411677Y-136991077D01*
X122236600Y-137413751D01*
X122236600Y-137871249D01*
X122411677Y-138293923D01*
X122735177Y-138617423D01*
X123157851Y-138792500D01*
X123615349Y-138792500D01*
X124038023Y-138617423D01*
X124135946Y-138519500D01*
X125663536Y-138519500D01*
X122083536Y-142099500D01*
X113467946Y-142099500D01*
X113370023Y-142001577D01*
X112947349Y-141826500D01*
X112489851Y-141826500D01*
X112067177Y-142001577D01*
X111743677Y-142325077D01*
X111568600Y-142747751D01*
X68217128Y-142747751D01*
X68319689Y-142594258D01*
X68444923Y-141964663D01*
X68319689Y-141335068D01*
X67963052Y-140801322D01*
X67803425Y-140694663D01*
X67963052Y-140588004D01*
X68319689Y-140054258D01*
X68444923Y-139424663D01*
X68319689Y-138795068D01*
X67963052Y-138261322D01*
X67803425Y-138154663D01*
X67963052Y-138048004D01*
X68319689Y-137514258D01*
X68444923Y-136884663D01*
X68319689Y-136255068D01*
X67963052Y-135721322D01*
X67906783Y-135683724D01*
X92855095Y-135683724D01*
X92878376Y-135800764D01*
X93141851Y-136376013D01*
X93605408Y-136806647D01*
X94198476Y-137027105D01*
X94452100Y-136858195D01*
X94452100Y-135430100D01*
X93024006Y-135430100D01*
X92855095Y-135683724D01*
X67906783Y-135683724D01*
X67803425Y-135614663D01*
X67963052Y-135508004D01*
X68319689Y-134974258D01*
X68444923Y-134344663D01*
X68319689Y-133715068D01*
X67963052Y-133181322D01*
X67906783Y-133143724D01*
X92855095Y-133143724D01*
X92878376Y-133260764D01*
X93141851Y-133836013D01*
X93486409Y-134156100D01*
X93141851Y-134476187D01*
X92878376Y-135051436D01*
X92855095Y-135168476D01*
X93024006Y-135422100D01*
X94452100Y-135422100D01*
X94452100Y-132890100D01*
X93024006Y-132890100D01*
X92855095Y-133143724D01*
X67906783Y-133143724D01*
X67803425Y-133074663D01*
X67963052Y-132968004D01*
X68319689Y-132434258D01*
X68444923Y-131804663D01*
X68319689Y-131175068D01*
X67963052Y-130641322D01*
X67810814Y-130539600D01*
X92834500Y-130539600D01*
X92834500Y-131360475D01*
X92949898Y-131639072D01*
X93163127Y-131852301D01*
X93210865Y-131872075D01*
X93141851Y-131936187D01*
X92878376Y-132511436D01*
X92855095Y-132628476D01*
X93024006Y-132882100D01*
X94452100Y-132882100D01*
X94452100Y-130350100D01*
X93024000Y-130350100D01*
X92834500Y-130539600D01*
X67810814Y-130539600D01*
X67803425Y-130534663D01*
X67963052Y-130428004D01*
X68319689Y-129894258D01*
X68431583Y-129331725D01*
X92834500Y-129331725D01*
X92834500Y-130152600D01*
X93024000Y-130342100D01*
X94452100Y-130342100D01*
X94452100Y-128914000D01*
X94460100Y-128914000D01*
X94460100Y-130342100D01*
X94480100Y-130342100D01*
X94480100Y-130350100D01*
X94460100Y-130350100D01*
X94460100Y-132882100D01*
X94480100Y-132882100D01*
X94480100Y-132890100D01*
X94460100Y-132890100D01*
X94460100Y-135422100D01*
X94480100Y-135422100D01*
X94480100Y-135430100D01*
X94460100Y-135430100D01*
X94460100Y-136858195D01*
X94713724Y-137027105D01*
X95306792Y-136806647D01*
X95720866Y-136421981D01*
X95832759Y-136589441D01*
X96366505Y-136946078D01*
X96837175Y-137039700D01*
X97155025Y-137039700D01*
X97625695Y-136946078D01*
X98159441Y-136589441D01*
X98516078Y-136055695D01*
X98633810Y-135463815D01*
X108612485Y-135463815D01*
X108612485Y-135908591D01*
X108727884Y-136187188D01*
X108941113Y-136400417D01*
X109219710Y-136515815D01*
X109876985Y-136515815D01*
X110066483Y-136326317D01*
X110066483Y-136446799D01*
X110019613Y-136466213D01*
X109806384Y-136679442D01*
X109690985Y-136958039D01*
X109690985Y-137210315D01*
X109880485Y-137399815D01*
X110223075Y-137399815D01*
X110211102Y-137407815D01*
X109880485Y-137407815D01*
X109690985Y-137597315D01*
X109690985Y-137849591D01*
X109737088Y-137960893D01*
X109684292Y-138226315D01*
X109684292Y-138521315D01*
X109753729Y-138870396D01*
X109771584Y-138897119D01*
X109631685Y-139234866D01*
X109631685Y-139692364D01*
X109806762Y-140115038D01*
X110130262Y-140438538D01*
X110552936Y-140613615D01*
X111010434Y-140613615D01*
X111433108Y-140438538D01*
X111756608Y-140115038D01*
X111931685Y-139692364D01*
X111931685Y-139234866D01*
X111782065Y-138873652D01*
X111784241Y-138870396D01*
X111853678Y-138521315D01*
X111853678Y-138226315D01*
X111844474Y-138180040D01*
X113104485Y-138180040D01*
X113104485Y-138457315D01*
X113293985Y-138646815D01*
X114067792Y-138646815D01*
X114067792Y-138654815D01*
X113293985Y-138654815D01*
X113104485Y-138844315D01*
X113104485Y-139121590D01*
X113219883Y-139400187D01*
X113433112Y-139613416D01*
X113711709Y-139728815D01*
X113963985Y-139728815D01*
X114153485Y-139539315D01*
X114153485Y-139196725D01*
X114161485Y-139208698D01*
X114161485Y-139539315D01*
X114254485Y-139632315D01*
X114254485Y-139895564D01*
X114429562Y-140318238D01*
X114753062Y-140641738D01*
X115175736Y-140816815D01*
X115633234Y-140816815D01*
X116055908Y-140641738D01*
X116379408Y-140318238D01*
X116554485Y-139895564D01*
X116554485Y-139438066D01*
X116379408Y-139015392D01*
X116297531Y-138933515D01*
X116298665Y-138927814D01*
X116281485Y-138841444D01*
X116281485Y-138841440D01*
X116230601Y-138585627D01*
X116187178Y-138520640D01*
X116187178Y-138478315D01*
X116117741Y-138129234D01*
X115920003Y-137833297D01*
X115624066Y-137635559D01*
X115274985Y-137566122D01*
X114979985Y-137566122D01*
X114714563Y-137618918D01*
X114603261Y-137572815D01*
X114350985Y-137572815D01*
X114161485Y-137762315D01*
X114161485Y-138092932D01*
X114153485Y-138104905D01*
X114153485Y-137762315D01*
X113963985Y-137572815D01*
X113711709Y-137572815D01*
X113433112Y-137688214D01*
X113219883Y-137901443D01*
X113104485Y-138180040D01*
X111844474Y-138180040D01*
X111800882Y-137960893D01*
X111846985Y-137849591D01*
X111846985Y-137597315D01*
X111657485Y-137407815D01*
X111326868Y-137407815D01*
X111314895Y-137399815D01*
X111657485Y-137399815D01*
X111846985Y-137210315D01*
X111846985Y-136958039D01*
X111731586Y-136679442D01*
X111606584Y-136554440D01*
X116175485Y-136554440D01*
X116175485Y-136831715D01*
X116364985Y-137021215D01*
X117138792Y-137021215D01*
X117138792Y-137029215D01*
X116364985Y-137029215D01*
X116175485Y-137218715D01*
X116175485Y-137495990D01*
X116290883Y-137774587D01*
X116504112Y-137987816D01*
X116782709Y-138103215D01*
X117034985Y-138103215D01*
X117224485Y-137913715D01*
X117224485Y-137571125D01*
X117232485Y-137583098D01*
X117232485Y-137913715D01*
X117421985Y-138103215D01*
X117674261Y-138103215D01*
X117785563Y-138057112D01*
X118050985Y-138109908D01*
X118345985Y-138109908D01*
X118695066Y-138040471D01*
X118705280Y-138033646D01*
X118985736Y-138149815D01*
X119443234Y-138149815D01*
X119865908Y-137974738D01*
X120189408Y-137651238D01*
X120364485Y-137228564D01*
X120364485Y-136771066D01*
X120189408Y-136348392D01*
X119865908Y-136024892D01*
X119443234Y-135849815D01*
X118985736Y-135849815D01*
X118630243Y-135997065D01*
X118345985Y-135940522D01*
X118050985Y-135940522D01*
X117785563Y-135993318D01*
X117674261Y-135947215D01*
X117421985Y-135947215D01*
X117232485Y-136136715D01*
X117232485Y-136467332D01*
X117224485Y-136479305D01*
X117224485Y-136136715D01*
X117034985Y-135947215D01*
X116782709Y-135947215D01*
X116504112Y-136062614D01*
X116290883Y-136275843D01*
X116175485Y-136554440D01*
X111606584Y-136554440D01*
X111518357Y-136466213D01*
X111246618Y-136353656D01*
X111413086Y-136187188D01*
X111528485Y-135908591D01*
X111528485Y-135463815D01*
X111338985Y-135274315D01*
X110074485Y-135274315D01*
X110074485Y-135294315D01*
X110066485Y-135294315D01*
X110066485Y-135274315D01*
X108801985Y-135274315D01*
X108612485Y-135463815D01*
X98633810Y-135463815D01*
X98641312Y-135426100D01*
X98516078Y-134796505D01*
X98159441Y-134262759D01*
X97999814Y-134156100D01*
X98159441Y-134049441D01*
X98516078Y-133515695D01*
X98641312Y-132886100D01*
X98516078Y-132256505D01*
X98159441Y-131722759D01*
X97999814Y-131616100D01*
X98159441Y-131509441D01*
X98516078Y-130975695D01*
X98641312Y-130346100D01*
X98516078Y-129716505D01*
X98159441Y-129182759D01*
X97625695Y-128826122D01*
X97155025Y-128732500D01*
X96837175Y-128732500D01*
X96366505Y-128826122D01*
X95976276Y-129086864D01*
X95962302Y-129053128D01*
X95749073Y-128839899D01*
X95470476Y-128724500D01*
X94649600Y-128724500D01*
X94460100Y-128914000D01*
X94452100Y-128914000D01*
X94262600Y-128724500D01*
X93441724Y-128724500D01*
X93163127Y-128839899D01*
X92949898Y-129053128D01*
X92834500Y-129331725D01*
X68431583Y-129331725D01*
X68444923Y-129264663D01*
X68319689Y-128635068D01*
X67963052Y-128101322D01*
X67783636Y-127981440D01*
X68113960Y-127674576D01*
X68377435Y-127099327D01*
X68400716Y-126982287D01*
X68231805Y-126728663D01*
X66803711Y-126728663D01*
X66803711Y-126748663D01*
X66795711Y-126748663D01*
X66795711Y-126728663D01*
X66775711Y-126728663D01*
X66775711Y-126720663D01*
X66795711Y-126720663D01*
X66795711Y-126700663D01*
X66803711Y-126700663D01*
X66803711Y-126720663D01*
X68231805Y-126720663D01*
X68400716Y-126467039D01*
X68377435Y-126349999D01*
X68113960Y-125774750D01*
X67783636Y-125467886D01*
X67963052Y-125348004D01*
X68319689Y-124814258D01*
X68444923Y-124184663D01*
X68319689Y-123555068D01*
X67963052Y-123021322D01*
X67429306Y-122664685D01*
X66958636Y-122571063D01*
X66640786Y-122571063D01*
X66170116Y-122664685D01*
X65636370Y-123021322D01*
X65529711Y-123180949D01*
X65423052Y-123021322D01*
X64889306Y-122664685D01*
X64418636Y-122571063D01*
X64100786Y-122571063D01*
X63630116Y-122664685D01*
X63096370Y-123021322D01*
X62739733Y-123555068D01*
X62614499Y-124184663D01*
X55744923Y-124184663D01*
X55619689Y-123555068D01*
X55263052Y-123021322D01*
X54729306Y-122664685D01*
X54258636Y-122571063D01*
X53940786Y-122571063D01*
X53470116Y-122664685D01*
X52936370Y-123021322D01*
X52829711Y-123180949D01*
X52723052Y-123021322D01*
X52189306Y-122664685D01*
X51718636Y-122571063D01*
X51400786Y-122571063D01*
X50930116Y-122664685D01*
X50396370Y-123021322D01*
X50039733Y-123555068D01*
X49914499Y-124184663D01*
X30739600Y-124184663D01*
X30739600Y-116818124D01*
X87114695Y-116818124D01*
X87335153Y-117411192D01*
X87765787Y-117874749D01*
X88341036Y-118138224D01*
X88458076Y-118161505D01*
X88711700Y-117992594D01*
X88711700Y-116564500D01*
X87283605Y-116564500D01*
X87114695Y-116818124D01*
X30739600Y-116818124D01*
X30739600Y-111111942D01*
X32052379Y-111111942D01*
X32052379Y-111753872D01*
X32298035Y-112346938D01*
X32751948Y-112800851D01*
X33345014Y-113046507D01*
X33986944Y-113046507D01*
X34580010Y-112800851D01*
X34935979Y-112444882D01*
X35291948Y-112800851D01*
X35885014Y-113046507D01*
X36526944Y-113046507D01*
X37120010Y-112800851D01*
X37475979Y-112444882D01*
X37734004Y-112702907D01*
X37378035Y-113058876D01*
X37132379Y-113651942D01*
X37132379Y-114293872D01*
X37378035Y-114886938D01*
X37831948Y-115340851D01*
X38425014Y-115586507D01*
X39066944Y-115586507D01*
X39660010Y-115340851D01*
X40015979Y-114984882D01*
X40371948Y-115340851D01*
X40965014Y-115586507D01*
X41606944Y-115586507D01*
X42200010Y-115340851D01*
X42555979Y-114984882D01*
X42911948Y-115340851D01*
X43505014Y-115586507D01*
X44146944Y-115586507D01*
X44740010Y-115340851D01*
X45095979Y-114984882D01*
X45451948Y-115340851D01*
X46045014Y-115586507D01*
X46686944Y-115586507D01*
X47280010Y-115340851D01*
X47635979Y-114984882D01*
X47991948Y-115340851D01*
X48585014Y-115586507D01*
X49226944Y-115586507D01*
X49820010Y-115340851D01*
X50175979Y-114984882D01*
X50531948Y-115340851D01*
X51125014Y-115586507D01*
X51766944Y-115586507D01*
X52360010Y-115340851D01*
X52715979Y-114984882D01*
X53071948Y-115340851D01*
X53665014Y-115586507D01*
X54306944Y-115586507D01*
X54900010Y-115340851D01*
X55255979Y-114984882D01*
X55611948Y-115340851D01*
X56205014Y-115586507D01*
X56846944Y-115586507D01*
X57440010Y-115340851D01*
X57893923Y-114886938D01*
X58139579Y-114293872D01*
X58139579Y-113651942D01*
X57893923Y-113058876D01*
X57537954Y-112702907D01*
X57892901Y-112347960D01*
X57917585Y-112472056D01*
X58032369Y-112643841D01*
X58111420Y-112762149D01*
X58184644Y-112811076D01*
X58979386Y-113605819D01*
X58964047Y-113642850D01*
X58964047Y-114284780D01*
X59209703Y-114877846D01*
X59663616Y-115331759D01*
X60256682Y-115577415D01*
X60898612Y-115577415D01*
X61491678Y-115331759D01*
X61847647Y-114975790D01*
X62203616Y-115331759D01*
X62796682Y-115577415D01*
X63438612Y-115577415D01*
X64031678Y-115331759D01*
X64387647Y-114975790D01*
X64743616Y-115331759D01*
X65336682Y-115577415D01*
X65978612Y-115577415D01*
X66571678Y-115331759D01*
X66927647Y-114975790D01*
X67283616Y-115331759D01*
X67876682Y-115577415D01*
X68518612Y-115577415D01*
X69111678Y-115331759D01*
X69467647Y-114975790D01*
X69823616Y-115331759D01*
X70416682Y-115577415D01*
X71058612Y-115577415D01*
X71651678Y-115331759D01*
X72007647Y-114975790D01*
X72363616Y-115331759D01*
X72956682Y-115577415D01*
X73598612Y-115577415D01*
X74191678Y-115331759D01*
X74547647Y-114975790D01*
X74903616Y-115331759D01*
X75496682Y-115577415D01*
X76138612Y-115577415D01*
X76731678Y-115331759D01*
X77087647Y-114975790D01*
X77443616Y-115331759D01*
X78036682Y-115577415D01*
X78678612Y-115577415D01*
X79271678Y-115331759D01*
X79725591Y-114877846D01*
X79971247Y-114284780D01*
X79971247Y-113642850D01*
X79725591Y-113049784D01*
X79369622Y-112693815D01*
X79725591Y-112337846D01*
X79971247Y-111744780D01*
X79971247Y-111102850D01*
X79725591Y-110509784D01*
X79541307Y-110325500D01*
X86320436Y-110325500D01*
X88427542Y-112432606D01*
X88086105Y-112500522D01*
X87552359Y-112857159D01*
X87195722Y-113390905D01*
X87070488Y-114020500D01*
X87195722Y-114650095D01*
X87552359Y-115183841D01*
X87719819Y-115295734D01*
X87335153Y-115709808D01*
X87114695Y-116302876D01*
X87283605Y-116556500D01*
X88711700Y-116556500D01*
X88711700Y-116536500D01*
X88719700Y-116536500D01*
X88719700Y-116556500D01*
X88739700Y-116556500D01*
X88739700Y-116564500D01*
X88719700Y-116564500D01*
X88719700Y-117992594D01*
X88973324Y-118161505D01*
X89090364Y-118138224D01*
X89108701Y-118129825D01*
X89108701Y-119674525D01*
X89091520Y-119760900D01*
X89159585Y-120103088D01*
X89301834Y-120315977D01*
X89353420Y-120393181D01*
X89426644Y-120442108D01*
X93216094Y-124231560D01*
X93265019Y-124304781D01*
X93338240Y-124353706D01*
X93338243Y-124353709D01*
X93485917Y-124452381D01*
X93555112Y-124498616D01*
X93810925Y-124549500D01*
X93810930Y-124549500D01*
X93897300Y-124566680D01*
X93983670Y-124549500D01*
X97618354Y-124549500D01*
X97716277Y-124647423D01*
X98138951Y-124822500D01*
X98596449Y-124822500D01*
X98887601Y-124701901D01*
X98887601Y-126380125D01*
X98870420Y-126466500D01*
X98938485Y-126808688D01*
X99054481Y-126982287D01*
X99132320Y-127098781D01*
X99205544Y-127147708D01*
X100138600Y-128080765D01*
X100138600Y-128376848D01*
X100313677Y-128799522D01*
X100637177Y-129123022D01*
X101059851Y-129298099D01*
X101517349Y-129298099D01*
X101940023Y-129123022D01*
X102170600Y-128892445D01*
X102170600Y-129003848D01*
X102345677Y-129426522D01*
X102669177Y-129750022D01*
X103091851Y-129925099D01*
X103549349Y-129925099D01*
X103972023Y-129750022D01*
X104295523Y-129426522D01*
X104470600Y-129003848D01*
X104470600Y-128546350D01*
X104295523Y-128123676D01*
X104205381Y-128033534D01*
X104214780Y-127986280D01*
X104197600Y-127899910D01*
X104197600Y-127899906D01*
X104146716Y-127644093D01*
X104146087Y-127643152D01*
X105921961Y-129419026D01*
X105970888Y-129492250D01*
X106237518Y-129670408D01*
X106126485Y-129938466D01*
X106126485Y-130395964D01*
X106301562Y-130818638D01*
X106625062Y-131142138D01*
X107047736Y-131317215D01*
X107316085Y-131317215D01*
X107316085Y-131453591D01*
X107431484Y-131732188D01*
X107644713Y-131945417D01*
X107923310Y-132060815D01*
X108200585Y-132060815D01*
X108390085Y-131871315D01*
X108390085Y-131097508D01*
X108398085Y-131097508D01*
X108398085Y-131871315D01*
X108587585Y-132060815D01*
X108864860Y-132060815D01*
X109143457Y-131945417D01*
X109193485Y-131895389D01*
X109193485Y-132082390D01*
X109193486Y-132082394D01*
X109193486Y-132243161D01*
X108901158Y-132438488D01*
X108847819Y-132518315D01*
X108437010Y-132518315D01*
X108181197Y-132569199D01*
X107891104Y-132763034D01*
X107697269Y-133053127D01*
X107629204Y-133395315D01*
X107697269Y-133737503D01*
X107891104Y-134027596D01*
X108181197Y-134221431D01*
X108437010Y-134272315D01*
X108809011Y-134272315D01*
X108727884Y-134353442D01*
X108612485Y-134632039D01*
X108612485Y-135076815D01*
X108801985Y-135266315D01*
X110066485Y-135266315D01*
X110066485Y-135246315D01*
X110074485Y-135246315D01*
X110074485Y-135266315D01*
X111338985Y-135266315D01*
X111528485Y-135076815D01*
X111528485Y-134632039D01*
X111492563Y-134545315D01*
X111734334Y-134545315D01*
X112157008Y-134370238D01*
X112175951Y-134351295D01*
X113779085Y-134351295D01*
X113779085Y-134796071D01*
X113894484Y-135074668D01*
X114107713Y-135287897D01*
X114386310Y-135403295D01*
X115043585Y-135403295D01*
X115233085Y-135213795D01*
X115233085Y-134161795D01*
X115241085Y-134161795D01*
X115241085Y-135213795D01*
X115430585Y-135403295D01*
X116087860Y-135403295D01*
X116366457Y-135287897D01*
X116579686Y-135074668D01*
X116695085Y-134796071D01*
X116695085Y-134351295D01*
X116505585Y-134161795D01*
X115241085Y-134161795D01*
X115233085Y-134161795D01*
X113968585Y-134161795D01*
X113779085Y-134351295D01*
X112175951Y-134351295D01*
X112480508Y-134046738D01*
X112655585Y-133624064D01*
X112655585Y-133166566D01*
X112480508Y-132743892D01*
X112157008Y-132420392D01*
X111734334Y-132245315D01*
X111276836Y-132245315D01*
X111075512Y-132328706D01*
X110947485Y-132243162D01*
X110947485Y-131744659D01*
X111172464Y-131519680D01*
X111279585Y-131540988D01*
X111979585Y-131540988D01*
X112272220Y-131482779D01*
X112329585Y-131444449D01*
X112386950Y-131482779D01*
X112679585Y-131540988D01*
X113283671Y-131540988D01*
X113325972Y-131604295D01*
X113390305Y-131700576D01*
X113463529Y-131749503D01*
X113772392Y-132058366D01*
X113772392Y-132526545D01*
X113849155Y-132912459D01*
X113998875Y-133136531D01*
X113894484Y-133240922D01*
X113779085Y-133519519D01*
X113779085Y-133964295D01*
X113968585Y-134153795D01*
X115233085Y-134153795D01*
X115233085Y-134133795D01*
X115241085Y-134133795D01*
X115241085Y-134153795D01*
X116505585Y-134153795D01*
X116695085Y-133964295D01*
X116695085Y-133519519D01*
X116628304Y-133358295D01*
X117386085Y-133358295D01*
X117475085Y-133447295D01*
X117805702Y-133447295D01*
X117817675Y-133455295D01*
X117475085Y-133455295D01*
X117285585Y-133644795D01*
X117285585Y-133897071D01*
X117400984Y-134175668D01*
X117614213Y-134388897D01*
X117892810Y-134504295D01*
X118170085Y-134504295D01*
X118359585Y-134314795D01*
X118359585Y-133540988D01*
X118367585Y-133540988D01*
X118367585Y-134314795D01*
X118557085Y-134504295D01*
X118834360Y-134504295D01*
X119112957Y-134388897D01*
X119326186Y-134175668D01*
X119441585Y-133897071D01*
X119441585Y-133644795D01*
X119252085Y-133455295D01*
X118909495Y-133455295D01*
X118921468Y-133447295D01*
X119252085Y-133447295D01*
X119441585Y-133257795D01*
X119441585Y-133005519D01*
X119395482Y-132894217D01*
X119407500Y-132833800D01*
X119800008Y-132671218D01*
X120123508Y-132347718D01*
X120298585Y-131925044D01*
X120298585Y-131771716D01*
X120413602Y-131599582D01*
X120464486Y-131343769D01*
X120464486Y-131343764D01*
X120481666Y-131257394D01*
X120464486Y-131171024D01*
X120464486Y-129948039D01*
X120481313Y-129874340D01*
X120464486Y-129775259D01*
X120464486Y-129762821D01*
X120450038Y-129690185D01*
X120422897Y-129530373D01*
X120416096Y-129519548D01*
X120413602Y-129507008D01*
X120323532Y-129372210D01*
X120303104Y-129339693D01*
X120303104Y-129160918D01*
X120128027Y-128738244D01*
X119804527Y-128414744D01*
X119402622Y-128248270D01*
X119395482Y-128212373D01*
X119441585Y-128101071D01*
X119441585Y-127848795D01*
X119252085Y-127659295D01*
X118921468Y-127659295D01*
X118909495Y-127651295D01*
X119252085Y-127651295D01*
X119441585Y-127461795D01*
X119441585Y-127209519D01*
X119326186Y-126930922D01*
X119112957Y-126717693D01*
X118834360Y-126602295D01*
X118557085Y-126602295D01*
X118367585Y-126791795D01*
X118367585Y-127565602D01*
X118359585Y-127565602D01*
X118359585Y-126791795D01*
X118170085Y-126602295D01*
X117892810Y-126602295D01*
X117614213Y-126717693D01*
X117400984Y-126930922D01*
X117285585Y-127209519D01*
X117285585Y-127218776D01*
X117227022Y-127077392D01*
X116903522Y-126753892D01*
X116480848Y-126578815D01*
X116023350Y-126578815D01*
X115600676Y-126753892D01*
X115277176Y-127077392D01*
X115102099Y-127500066D01*
X115102099Y-127666815D01*
X114981709Y-127666815D01*
X114703112Y-127782214D01*
X114489883Y-127995443D01*
X114436395Y-128124575D01*
X114170085Y-128071602D01*
X113875085Y-128071602D01*
X113537585Y-128138735D01*
X113200085Y-128071602D01*
X112905085Y-128071602D01*
X112556004Y-128141039D01*
X112260067Y-128338777D01*
X112062329Y-128634714D01*
X111992892Y-128983795D01*
X111992892Y-129314249D01*
X111979585Y-129311602D01*
X111279585Y-129311602D01*
X110986950Y-129369811D01*
X110738865Y-129535575D01*
X110697584Y-129597357D01*
X110683397Y-129600179D01*
X110683396Y-129600180D01*
X110683395Y-129600180D01*
X110519400Y-129709759D01*
X110393304Y-129794014D01*
X110344377Y-129867238D01*
X109511431Y-130700185D01*
X109472085Y-130726475D01*
X109472085Y-130562039D01*
X109425982Y-130450737D01*
X109478778Y-130185315D01*
X109478778Y-129890315D01*
X109409341Y-129541234D01*
X109211603Y-129245297D01*
X109115349Y-129180983D01*
X109411940Y-128884392D01*
X109568432Y-128506586D01*
X109687123Y-128457423D01*
X110010623Y-128133923D01*
X110185700Y-127711249D01*
X110185700Y-127253751D01*
X110010623Y-126831077D01*
X109687123Y-126507577D01*
X109264449Y-126332500D01*
X108806951Y-126332500D01*
X108384277Y-126507577D01*
X108286354Y-126605500D01*
X107925766Y-126605500D01*
X102514900Y-121194636D01*
X102514900Y-121056151D01*
X102339823Y-120633477D01*
X102016323Y-120309977D01*
X101593649Y-120134900D01*
X101479752Y-120134900D01*
X102907154Y-118707500D01*
X114509254Y-118707500D01*
X114607177Y-118805423D01*
X115029851Y-118980500D01*
X115487349Y-118980500D01*
X115910023Y-118805423D01*
X116233523Y-118481923D01*
X116408600Y-118059249D01*
X116408600Y-117601751D01*
X116292931Y-117322500D01*
X116408600Y-117043249D01*
X116408600Y-116654772D01*
X118010821Y-118256994D01*
X118070376Y-118346124D01*
X118423482Y-118582062D01*
X118734864Y-118644000D01*
X118734868Y-118644000D01*
X118840000Y-118664912D01*
X118945132Y-118644000D01*
X123843100Y-118644000D01*
X123843101Y-121198326D01*
X120648352Y-124393076D01*
X120449177Y-124475577D01*
X120125677Y-124799077D01*
X119950600Y-125221751D01*
X119950600Y-125679249D01*
X120125677Y-126101923D01*
X120449177Y-126425423D01*
X120871851Y-126600500D01*
X121329349Y-126600500D01*
X121752023Y-126425423D01*
X122075523Y-126101923D01*
X122158024Y-125902748D01*
X125591095Y-122469678D01*
X125680224Y-122410124D01*
X125916162Y-122057018D01*
X125978100Y-121745636D01*
X125978100Y-121745632D01*
X125999012Y-121640500D01*
X125978100Y-121535368D01*
X125978100Y-118644000D01*
X127975178Y-118644000D01*
X128174351Y-118726500D01*
X128631849Y-118726500D01*
X128831022Y-118644000D01*
X132102678Y-118644000D01*
X132301851Y-118726500D01*
X132759349Y-118726500D01*
X132958522Y-118644000D01*
X136166678Y-118644000D01*
X136365851Y-118726500D01*
X136823349Y-118726500D01*
X137246023Y-118551423D01*
X137569523Y-118227923D01*
X137744600Y-117805249D01*
X137744600Y-117347751D01*
X137569523Y-116925077D01*
X137246023Y-116601577D01*
X136823349Y-116426500D01*
X136365851Y-116426500D01*
X136166678Y-116509000D01*
X132958522Y-116509000D01*
X132759349Y-116426500D01*
X132301851Y-116426500D01*
X132102678Y-116509000D01*
X128831022Y-116509000D01*
X128631849Y-116426500D01*
X128174351Y-116426500D01*
X127975178Y-116509000D01*
X125338522Y-116509000D01*
X125139349Y-116426500D01*
X124681851Y-116426500D01*
X124482678Y-116509000D01*
X119282173Y-116509000D01*
X118191355Y-115418183D01*
X118289700Y-115270998D01*
X118693005Y-115540478D01*
X119163675Y-115634100D01*
X119481525Y-115634100D01*
X119952195Y-115540478D01*
X120485941Y-115183841D01*
X120592600Y-115024214D01*
X120699259Y-115183841D01*
X121233005Y-115540478D01*
X121703675Y-115634100D01*
X122021525Y-115634100D01*
X122492195Y-115540478D01*
X123025941Y-115183841D01*
X123132600Y-115024214D01*
X123239259Y-115183841D01*
X123773005Y-115540478D01*
X124243675Y-115634100D01*
X124561525Y-115634100D01*
X125032195Y-115540478D01*
X125565941Y-115183841D01*
X125672600Y-115024214D01*
X125779259Y-115183841D01*
X126313005Y-115540478D01*
X126783675Y-115634100D01*
X127101525Y-115634100D01*
X127572195Y-115540478D01*
X128105941Y-115183841D01*
X128212600Y-115024214D01*
X128319259Y-115183841D01*
X128853005Y-115540478D01*
X129323675Y-115634100D01*
X129641525Y-115634100D01*
X130112195Y-115540478D01*
X130645941Y-115183841D01*
X130752600Y-115024214D01*
X130859259Y-115183841D01*
X131393005Y-115540478D01*
X131863675Y-115634100D01*
X132181525Y-115634100D01*
X132652195Y-115540478D01*
X133185941Y-115183841D01*
X133292600Y-115024214D01*
X133399259Y-115183841D01*
X133933005Y-115540478D01*
X134403675Y-115634100D01*
X134721525Y-115634100D01*
X135192195Y-115540478D01*
X135725941Y-115183841D01*
X135832600Y-115024214D01*
X135939259Y-115183841D01*
X136473005Y-115540478D01*
X136943675Y-115634100D01*
X137261525Y-115634100D01*
X137732195Y-115540478D01*
X138265941Y-115183841D01*
X138372600Y-115024214D01*
X138479259Y-115183841D01*
X139013005Y-115540478D01*
X139483675Y-115634100D01*
X139801525Y-115634100D01*
X140272195Y-115540478D01*
X140805941Y-115183841D01*
X141162578Y-114650095D01*
X141287812Y-114020500D01*
X141162578Y-113390905D01*
X140805941Y-112857159D01*
X140638481Y-112745266D01*
X141023147Y-112331192D01*
X141243605Y-111738124D01*
X141074695Y-111484500D01*
X139646600Y-111484500D01*
X139646600Y-111504500D01*
X139638600Y-111504500D01*
X139638600Y-111484500D01*
X139618600Y-111484500D01*
X139618600Y-111476500D01*
X139638600Y-111476500D01*
X139638600Y-110048406D01*
X139646600Y-110048406D01*
X139646600Y-111476500D01*
X141074695Y-111476500D01*
X141243605Y-111222876D01*
X141023147Y-110629808D01*
X140592513Y-110166251D01*
X140017264Y-109902776D01*
X139900224Y-109879495D01*
X139646600Y-110048406D01*
X139638600Y-110048406D01*
X139384976Y-109879495D01*
X139267936Y-109902776D01*
X138692687Y-110166251D01*
X138385823Y-110496575D01*
X138265941Y-110317159D01*
X137732195Y-109960522D01*
X137261525Y-109866900D01*
X136943675Y-109866900D01*
X136473005Y-109960522D01*
X135939259Y-110317159D01*
X135819377Y-110496575D01*
X135512513Y-110166251D01*
X134937264Y-109902776D01*
X134820224Y-109879495D01*
X134566600Y-110048406D01*
X134566600Y-111476500D01*
X134586600Y-111476500D01*
X134586600Y-111484500D01*
X134566600Y-111484500D01*
X134566600Y-111504500D01*
X134558600Y-111504500D01*
X134558600Y-111484500D01*
X132026600Y-111484500D01*
X132026600Y-111504500D01*
X132018600Y-111504500D01*
X132018600Y-111484500D01*
X129486600Y-111484500D01*
X129486600Y-111504500D01*
X129478600Y-111504500D01*
X129478600Y-111484500D01*
X126946600Y-111484500D01*
X126946600Y-111504500D01*
X126938600Y-111504500D01*
X126938600Y-111484500D01*
X124406600Y-111484500D01*
X124406600Y-111504500D01*
X124398600Y-111504500D01*
X124398600Y-111484500D01*
X121866600Y-111484500D01*
X121866600Y-111504500D01*
X121858600Y-111504500D01*
X121858600Y-111484500D01*
X119326600Y-111484500D01*
X119326600Y-111504500D01*
X119318600Y-111504500D01*
X119318600Y-111484500D01*
X119298600Y-111484500D01*
X119298600Y-111476500D01*
X119318600Y-111476500D01*
X119318600Y-110048406D01*
X119326600Y-110048406D01*
X119326600Y-111476500D01*
X121858600Y-111476500D01*
X121858600Y-110048406D01*
X121866600Y-110048406D01*
X121866600Y-111476500D01*
X124398600Y-111476500D01*
X124398600Y-110048406D01*
X124406600Y-110048406D01*
X124406600Y-111476500D01*
X126938600Y-111476500D01*
X126938600Y-110048406D01*
X126946600Y-110048406D01*
X126946600Y-111476500D01*
X129478600Y-111476500D01*
X129478600Y-110048406D01*
X129486600Y-110048406D01*
X129486600Y-111476500D01*
X132018600Y-111476500D01*
X132018600Y-110048406D01*
X132026600Y-110048406D01*
X132026600Y-111476500D01*
X134558600Y-111476500D01*
X134558600Y-110048406D01*
X134304976Y-109879495D01*
X134187936Y-109902776D01*
X133612687Y-110166251D01*
X133292600Y-110510809D01*
X132972513Y-110166251D01*
X132397264Y-109902776D01*
X132280224Y-109879495D01*
X132026600Y-110048406D01*
X132018600Y-110048406D01*
X131764976Y-109879495D01*
X131647936Y-109902776D01*
X131072687Y-110166251D01*
X130752600Y-110510809D01*
X130432513Y-110166251D01*
X129857264Y-109902776D01*
X129740224Y-109879495D01*
X129486600Y-110048406D01*
X129478600Y-110048406D01*
X129224976Y-109879495D01*
X129107936Y-109902776D01*
X128532687Y-110166251D01*
X128212600Y-110510809D01*
X127892513Y-110166251D01*
X127317264Y-109902776D01*
X127200224Y-109879495D01*
X126946600Y-110048406D01*
X126938600Y-110048406D01*
X126684976Y-109879495D01*
X126567936Y-109902776D01*
X125992687Y-110166251D01*
X125672600Y-110510809D01*
X125352513Y-110166251D01*
X124777264Y-109902776D01*
X124660224Y-109879495D01*
X124406600Y-110048406D01*
X124398600Y-110048406D01*
X124144976Y-109879495D01*
X124027936Y-109902776D01*
X123452687Y-110166251D01*
X123132600Y-110510809D01*
X122812513Y-110166251D01*
X122237264Y-109902776D01*
X122120224Y-109879495D01*
X121866600Y-110048406D01*
X121858600Y-110048406D01*
X121604976Y-109879495D01*
X121487936Y-109902776D01*
X120912687Y-110166251D01*
X120592600Y-110510809D01*
X120272513Y-110166251D01*
X119697264Y-109902776D01*
X119580224Y-109879495D01*
X119326600Y-110048406D01*
X119318600Y-110048406D01*
X119064976Y-109879495D01*
X118947936Y-109902776D01*
X118372687Y-110166251D01*
X118065823Y-110496575D01*
X117945941Y-110317159D01*
X117412195Y-109960522D01*
X116941525Y-109866900D01*
X116623675Y-109866900D01*
X116153005Y-109960522D01*
X115619259Y-110317159D01*
X115262622Y-110850905D01*
X115137388Y-111480500D01*
X115262622Y-112110095D01*
X115532102Y-112513400D01*
X115378280Y-112616180D01*
X115212516Y-112864265D01*
X115156972Y-113143500D01*
X103626280Y-113143500D01*
X101223452Y-110740672D01*
X101295700Y-110566249D01*
X101295700Y-110108751D01*
X101120623Y-109686077D01*
X100797123Y-109362577D01*
X100374449Y-109187500D01*
X99916951Y-109187500D01*
X99494277Y-109362577D01*
X99170777Y-109686077D01*
X98995700Y-110108751D01*
X98995700Y-110566249D01*
X99170777Y-110988923D01*
X99292856Y-111111002D01*
X99319584Y-111245373D01*
X99513420Y-111535466D01*
X99586644Y-111584393D01*
X102581806Y-114579556D01*
X102630734Y-114652781D01*
X102920827Y-114846616D01*
X103176640Y-114897500D01*
X103176644Y-114897500D01*
X103263014Y-114914680D01*
X103349384Y-114897500D01*
X114533254Y-114897500D01*
X114509254Y-114921500D01*
X103660970Y-114921500D01*
X103574600Y-114904320D01*
X103488230Y-114921500D01*
X103488225Y-114921500D01*
X103232412Y-114972384D01*
X103179229Y-115007920D01*
X103015543Y-115117291D01*
X103015540Y-115117294D01*
X102942319Y-115166219D01*
X102893394Y-115239440D01*
X99205546Y-118927290D01*
X99132319Y-118976219D01*
X98938484Y-119266313D01*
X98887600Y-119522126D01*
X98887600Y-119522130D01*
X98870420Y-119608500D01*
X98887600Y-119694870D01*
X98887600Y-121546541D01*
X98545649Y-121404900D01*
X98088151Y-121404900D01*
X97665477Y-121579977D01*
X97567554Y-121677900D01*
X95682966Y-121677900D01*
X93402700Y-119397636D01*
X93402700Y-118129826D01*
X93421036Y-118138224D01*
X93538076Y-118161505D01*
X93791700Y-117992594D01*
X93791700Y-116564500D01*
X93799700Y-116564500D01*
X93799700Y-117992594D01*
X94053324Y-118161505D01*
X94170364Y-118138224D01*
X94745613Y-117874749D01*
X95176247Y-117411192D01*
X95396705Y-116818124D01*
X95227795Y-116564500D01*
X93799700Y-116564500D01*
X93791700Y-116564500D01*
X93771700Y-116564500D01*
X93771700Y-116556500D01*
X93791700Y-116556500D01*
X93791700Y-116536500D01*
X93799700Y-116536500D01*
X93799700Y-116556500D01*
X95227795Y-116556500D01*
X95396705Y-116302876D01*
X95176247Y-115709808D01*
X95022000Y-115543768D01*
X95200020Y-115424820D01*
X95365784Y-115176735D01*
X95423993Y-114884100D01*
X95423993Y-113156900D01*
X95365784Y-112864265D01*
X95200020Y-112616180D01*
X94951935Y-112450416D01*
X94659300Y-112392207D01*
X94509224Y-112392207D01*
X94427981Y-112270619D01*
X94354757Y-112221692D01*
X90006510Y-107873446D01*
X89957581Y-107800219D01*
X89667488Y-107606384D01*
X89411675Y-107555500D01*
X89411670Y-107555500D01*
X89325300Y-107538320D01*
X89238930Y-107555500D01*
X60862070Y-107555500D01*
X60775700Y-107538320D01*
X60689330Y-107555500D01*
X60689325Y-107555500D01*
X60433512Y-107606384D01*
X60433510Y-107606385D01*
X60433511Y-107606385D01*
X60216643Y-107751291D01*
X60216640Y-107751294D01*
X60143419Y-107800219D01*
X60094494Y-107873440D01*
X58184646Y-109783290D01*
X58111419Y-109832219D01*
X57917584Y-110122313D01*
X57866700Y-110378126D01*
X57866700Y-110378130D01*
X57849520Y-110464500D01*
X57851996Y-110476949D01*
X57440010Y-110064963D01*
X56846944Y-109819307D01*
X56205014Y-109819307D01*
X55611948Y-110064963D01*
X55255979Y-110420932D01*
X54900010Y-110064963D01*
X54306944Y-109819307D01*
X53665014Y-109819307D01*
X53071948Y-110064963D01*
X52715979Y-110420932D01*
X52360010Y-110064963D01*
X51766944Y-109819307D01*
X51125014Y-109819307D01*
X50531948Y-110064963D01*
X50175979Y-110420932D01*
X49820010Y-110064963D01*
X49226944Y-109819307D01*
X48585014Y-109819307D01*
X47991948Y-110064963D01*
X47635979Y-110420932D01*
X47280010Y-110064963D01*
X46686944Y-109819307D01*
X46045014Y-109819307D01*
X45451948Y-110064963D01*
X45095979Y-110420932D01*
X44740010Y-110064963D01*
X44146944Y-109819307D01*
X43505014Y-109819307D01*
X42911948Y-110064963D01*
X42555979Y-110420932D01*
X42200010Y-110064963D01*
X41606944Y-109819307D01*
X40965014Y-109819307D01*
X40371948Y-110064963D01*
X40015979Y-110420932D01*
X39660010Y-110064963D01*
X39066944Y-109819307D01*
X38425014Y-109819307D01*
X37831948Y-110064963D01*
X37475979Y-110420932D01*
X37120010Y-110064963D01*
X36526944Y-109819307D01*
X35885014Y-109819307D01*
X35291948Y-110064963D01*
X34935979Y-110420932D01*
X34580010Y-110064963D01*
X33986944Y-109819307D01*
X33345014Y-109819307D01*
X32751948Y-110064963D01*
X32298035Y-110518876D01*
X32052379Y-111111942D01*
X30739600Y-111111942D01*
X30739600Y-107527500D01*
X101395600Y-107527500D01*
X101395600Y-107727500D01*
X101496696Y-108227745D01*
X101781532Y-108651224D01*
X102206745Y-108933465D01*
X102495034Y-109014765D01*
X102699600Y-108841993D01*
X102699600Y-107527500D01*
X102707600Y-107527500D01*
X102707600Y-108841993D01*
X102912166Y-109014765D01*
X103200455Y-108933465D01*
X103625668Y-108651224D01*
X103910504Y-108227745D01*
X104011600Y-107727500D01*
X104011600Y-107527500D01*
X106235600Y-107527500D01*
X106235600Y-107727500D01*
X106336696Y-108227745D01*
X106621532Y-108651224D01*
X107046745Y-108933465D01*
X107335034Y-109014765D01*
X107539600Y-108841993D01*
X107539600Y-107527500D01*
X107547600Y-107527500D01*
X107547600Y-108841993D01*
X107752166Y-109014765D01*
X108040455Y-108933465D01*
X108465668Y-108651224D01*
X108750504Y-108227745D01*
X108851600Y-107727500D01*
X108851600Y-107527500D01*
X107547600Y-107527500D01*
X107539600Y-107527500D01*
X106235600Y-107527500D01*
X104011600Y-107527500D01*
X102707600Y-107527500D01*
X102699600Y-107527500D01*
X101395600Y-107527500D01*
X30739600Y-107527500D01*
X30739600Y-104527500D01*
X100960600Y-104527500D01*
X100960600Y-104702500D01*
X101071211Y-105250581D01*
X101383144Y-105714613D01*
X101848910Y-106023951D01*
X102165480Y-106113226D01*
X102389598Y-105941996D01*
X102389598Y-106061969D01*
X102206745Y-106113535D01*
X101781532Y-106395776D01*
X101496696Y-106819255D01*
X101395600Y-107319500D01*
X101395600Y-107519500D01*
X102699600Y-107519500D01*
X102699600Y-107499500D01*
X102707600Y-107499500D01*
X102707600Y-107519500D01*
X104011600Y-107519500D01*
X104011600Y-107319500D01*
X106235600Y-107319500D01*
X106235600Y-107519500D01*
X107539600Y-107519500D01*
X107539600Y-107499500D01*
X107547600Y-107499500D01*
X107547600Y-107519500D01*
X108851600Y-107519500D01*
X108851600Y-107319500D01*
X108750504Y-106819255D01*
X108465668Y-106395776D01*
X108040455Y-106113535D01*
X107857602Y-106061969D01*
X107857602Y-105941996D01*
X108081720Y-106113226D01*
X108398290Y-106023951D01*
X108864056Y-105714613D01*
X109175989Y-105250581D01*
X109286600Y-104702500D01*
X109286600Y-104527500D01*
X107857600Y-104527500D01*
X107857600Y-104547500D01*
X107849600Y-104547500D01*
X107849600Y-104527500D01*
X106420600Y-104527500D01*
X106420600Y-104702500D01*
X106531211Y-105250581D01*
X106843144Y-105714613D01*
X107308910Y-106023951D01*
X107539598Y-106089007D01*
X107539598Y-106205005D01*
X107335034Y-106032235D01*
X107046745Y-106113535D01*
X106621532Y-106395776D01*
X106336696Y-106819255D01*
X106235600Y-107319500D01*
X104011600Y-107319500D01*
X103910504Y-106819255D01*
X103625668Y-106395776D01*
X103200455Y-106113535D01*
X102912166Y-106032235D01*
X102707602Y-106205005D01*
X102707602Y-106089007D01*
X102938290Y-106023951D01*
X103404056Y-105714613D01*
X103715989Y-105250581D01*
X103826600Y-104702500D01*
X103826600Y-104527500D01*
X102397600Y-104527500D01*
X102397600Y-104547500D01*
X102389600Y-104547500D01*
X102389600Y-104527500D01*
X100960600Y-104527500D01*
X30739600Y-104527500D01*
X30739600Y-103669500D01*
X101156529Y-103669500D01*
X101071211Y-103796419D01*
X101071211Y-103796419D01*
G37*
X101071211Y-103796419D02*
X100960600Y-104344500D01*
X100960600Y-104519500D01*
X102389600Y-104519500D01*
X102389600Y-104499500D01*
X102397600Y-104499500D01*
X102397600Y-104519500D01*
X103826600Y-104519500D01*
X103826600Y-104344500D01*
X103715989Y-103796419D01*
X103630671Y-103669500D01*
X106616529Y-103669500D01*
X106531211Y-103796419D01*
X106420600Y-104344500D01*
X106420600Y-104519500D01*
X107849600Y-104519500D01*
X107849600Y-104499500D01*
X107857600Y-104499500D01*
X107857600Y-104519500D01*
X109286600Y-104519500D01*
X109286600Y-104344500D01*
X109175989Y-103796419D01*
X109090671Y-103669500D01*
X153549601Y-103669500D01*
X153549600Y-168059500D01*
X30739600Y-168059500D01*
X30739600Y-159371942D01*
X41196379Y-159371942D01*
X41196379Y-160013872D01*
X41442035Y-160606938D01*
X41895948Y-161060851D01*
X42489014Y-161306507D01*
X43130944Y-161306507D01*
X43724010Y-161060851D01*
X44079979Y-160704882D01*
X44435948Y-161060851D01*
X45029014Y-161306507D01*
X45670944Y-161306507D01*
X46264010Y-161060851D01*
X46619979Y-160704882D01*
X46975948Y-161060851D01*
X47569014Y-161306507D01*
X48210944Y-161306507D01*
X48804010Y-161060851D01*
X49159979Y-160704882D01*
X49515948Y-161060851D01*
X50109014Y-161306507D01*
X50750944Y-161306507D01*
X51344010Y-161060851D01*
X51699979Y-160704882D01*
X52055948Y-161060851D01*
X52649014Y-161306507D01*
X53290944Y-161306507D01*
X53884010Y-161060851D01*
X54214017Y-160730844D01*
X54477699Y-160730844D01*
X54541392Y-161032858D01*
X55127898Y-161301523D01*
X55772573Y-161325290D01*
X56377270Y-161100542D01*
X56478566Y-161032858D01*
X56542259Y-160730844D01*
X57017699Y-160730844D01*
X57081392Y-161032858D01*
X57667898Y-161301523D01*
X58312573Y-161325290D01*
X58917270Y-161100542D01*
X59018566Y-161032858D01*
X59082259Y-160730844D01*
X58049979Y-159698564D01*
X57017699Y-160730844D01*
X56542259Y-160730844D01*
X55509979Y-159698564D01*
X54477699Y-160730844D01*
X54214017Y-160730844D01*
X54263627Y-160681234D01*
X54472042Y-160725187D01*
X55504322Y-159692907D01*
X55515636Y-159692907D01*
X56547916Y-160725187D01*
X56779979Y-160676246D01*
X57012042Y-160725187D01*
X58044322Y-159692907D01*
X57012042Y-158660627D01*
X56779979Y-158709568D01*
X56547916Y-158660627D01*
X55515636Y-159692907D01*
X55504322Y-159692907D01*
X54472042Y-158660627D01*
X54263627Y-158704580D01*
X54028392Y-158469345D01*
X54227647Y-158270090D01*
X54501181Y-158543624D01*
X54477699Y-158654970D01*
X55509979Y-159687250D01*
X56542259Y-158654970D01*
X56514481Y-158523256D01*
X56767647Y-158270090D01*
X57041181Y-158543624D01*
X57017699Y-158654970D01*
X58049979Y-159687250D01*
X59082259Y-158654970D01*
X59054481Y-158523256D01*
X59307647Y-158270090D01*
X59519234Y-158481677D01*
X59296331Y-158704580D01*
X59087916Y-158660627D01*
X58055636Y-159692907D01*
X59087916Y-160725187D01*
X59296331Y-160681234D01*
X59675948Y-161060851D01*
X60269014Y-161306507D01*
X60910944Y-161306507D01*
X61504010Y-161060851D01*
X61957923Y-160606938D01*
X62203579Y-160013872D01*
X62203579Y-159371942D01*
X61957923Y-158778876D01*
X61648392Y-158469345D01*
X61945591Y-158172146D01*
X62191247Y-157579080D01*
X62191247Y-156937150D01*
X64044047Y-156937150D01*
X64044047Y-157579080D01*
X64289703Y-158172146D01*
X64645672Y-158528115D01*
X64289703Y-158884084D01*
X64044047Y-159477150D01*
X64044047Y-160119080D01*
X64289703Y-160712146D01*
X64743616Y-161166059D01*
X65336682Y-161411715D01*
X65978612Y-161411715D01*
X66571678Y-161166059D01*
X66927647Y-160810090D01*
X67283616Y-161166059D01*
X67876682Y-161411715D01*
X68518612Y-161411715D01*
X69111678Y-161166059D01*
X69467647Y-160810090D01*
X69823616Y-161166059D01*
X70416682Y-161411715D01*
X71058612Y-161411715D01*
X71651678Y-161166059D01*
X72007647Y-160810090D01*
X72363616Y-161166059D01*
X72956682Y-161411715D01*
X73598612Y-161411715D01*
X74191678Y-161166059D01*
X74547647Y-160810090D01*
X74903616Y-161166059D01*
X75496682Y-161411715D01*
X76138612Y-161411715D01*
X76731678Y-161166059D01*
X77087647Y-160810090D01*
X77443616Y-161166059D01*
X78036682Y-161411715D01*
X78678612Y-161411715D01*
X79271678Y-161166059D01*
X79725591Y-160712146D01*
X79971247Y-160119080D01*
X79971247Y-159477150D01*
X79725591Y-158884084D01*
X79369622Y-158528115D01*
X79725591Y-158172146D01*
X79924266Y-157692500D01*
X101592888Y-157692500D01*
X101718122Y-158322095D01*
X102074759Y-158855841D01*
X102234386Y-158962500D01*
X102074759Y-159069159D01*
X101718122Y-159602905D01*
X101592888Y-160232500D01*
X101718122Y-160862095D01*
X102074759Y-161395841D01*
X102608505Y-161752478D01*
X103079175Y-161846100D01*
X103397025Y-161846100D01*
X103867695Y-161752478D01*
X104271000Y-161482998D01*
X104373780Y-161636820D01*
X104621865Y-161802584D01*
X104914500Y-161860793D01*
X106641700Y-161860793D01*
X106934335Y-161802584D01*
X107182420Y-161636820D01*
X107348184Y-161388735D01*
X107406393Y-161096100D01*
X107406393Y-159368900D01*
X107348184Y-159076265D01*
X107182420Y-158828180D01*
X107028598Y-158725400D01*
X107298078Y-158322095D01*
X107423312Y-157692500D01*
X107298078Y-157062905D01*
X106941441Y-156529159D01*
X106781814Y-156422500D01*
X106941441Y-156315841D01*
X107298078Y-155782095D01*
X107423312Y-155152500D01*
X107400825Y-155039448D01*
X107474273Y-154966000D01*
X111408210Y-154966000D01*
X111397095Y-155021876D01*
X111566006Y-155275500D01*
X112994100Y-155275500D01*
X112994100Y-155255500D01*
X113002100Y-155255500D01*
X113002100Y-155275500D01*
X113022100Y-155275500D01*
X113022100Y-155283500D01*
X113002100Y-155283500D01*
X113002100Y-155303500D01*
X112994100Y-155303500D01*
X112994100Y-155283500D01*
X111566006Y-155283500D01*
X111397095Y-155537124D01*
X111420376Y-155654164D01*
X111683851Y-156229413D01*
X112014175Y-156536277D01*
X111834759Y-156656159D01*
X111478122Y-157189905D01*
X111352888Y-157819500D01*
X111478122Y-158449095D01*
X111834759Y-158982841D01*
X111994386Y-159089500D01*
X111834759Y-159196159D01*
X111478122Y-159729905D01*
X111352888Y-160359500D01*
X111478122Y-160989095D01*
X111834759Y-161522841D01*
X112368505Y-161879478D01*
X112839175Y-161973100D01*
X113157025Y-161973100D01*
X113627695Y-161879478D01*
X114031000Y-161609998D01*
X114133780Y-161763820D01*
X114381865Y-161929584D01*
X114674500Y-161987793D01*
X116401700Y-161987793D01*
X116694335Y-161929584D01*
X116942420Y-161763820D01*
X117108184Y-161515735D01*
X117166393Y-161223100D01*
X117166393Y-159495900D01*
X117108184Y-159203265D01*
X116942420Y-158955180D01*
X116788598Y-158852400D01*
X117058078Y-158449095D01*
X117183312Y-157819500D01*
X117058078Y-157189905D01*
X116701441Y-156656159D01*
X116541814Y-156549500D01*
X116701441Y-156442841D01*
X117058078Y-155909095D01*
X117175276Y-155319899D01*
X121224414Y-155319899D01*
X121364006Y-155529500D01*
X122792100Y-155529500D01*
X122792100Y-155509500D01*
X122800100Y-155509500D01*
X122800100Y-155529500D01*
X122820100Y-155529500D01*
X122820100Y-155537500D01*
X122800100Y-155537500D01*
X122800100Y-155557500D01*
X122792100Y-155557500D01*
X122792100Y-155537500D01*
X121364006Y-155537500D01*
X121195095Y-155791124D01*
X121218376Y-155908164D01*
X121481851Y-156483413D01*
X121812175Y-156790277D01*
X121632759Y-156910159D01*
X121276122Y-157443905D01*
X121150888Y-158073500D01*
X121276122Y-158703095D01*
X121632759Y-159236841D01*
X121792386Y-159343500D01*
X121632759Y-159450159D01*
X121276122Y-159983905D01*
X121150888Y-160613500D01*
X121276122Y-161243095D01*
X121632759Y-161776841D01*
X122166505Y-162133478D01*
X122637175Y-162227100D01*
X122955025Y-162227100D01*
X123425695Y-162133478D01*
X123829000Y-161863998D01*
X123931780Y-162017820D01*
X124179865Y-162183584D01*
X124472500Y-162241793D01*
X126199700Y-162241793D01*
X126492335Y-162183584D01*
X126740420Y-162017820D01*
X126898717Y-161780910D01*
X133200457Y-161780910D01*
X133200457Y-163508110D01*
X133258666Y-163800745D01*
X133424430Y-164048830D01*
X133672515Y-164214594D01*
X133965150Y-164272803D01*
X135692350Y-164272803D01*
X135984985Y-164214594D01*
X136233070Y-164048830D01*
X136335850Y-163895008D01*
X136739155Y-164164488D01*
X137209825Y-164258110D01*
X137527675Y-164258110D01*
X137998345Y-164164488D01*
X138532091Y-163807851D01*
X138638750Y-163648224D01*
X138745409Y-163807851D01*
X139279155Y-164164488D01*
X139749825Y-164258110D01*
X140067675Y-164258110D01*
X140538345Y-164164488D01*
X141072091Y-163807851D01*
X141428728Y-163274105D01*
X141553962Y-162644510D01*
X141428728Y-162014915D01*
X141072091Y-161481169D01*
X140904631Y-161369276D01*
X141289297Y-160955202D01*
X141509755Y-160362134D01*
X141340845Y-160108510D01*
X139912750Y-160108510D01*
X139912750Y-160128510D01*
X139904750Y-160128510D01*
X139904750Y-160108510D01*
X137372750Y-160108510D01*
X137372750Y-160128510D01*
X137364750Y-160128510D01*
X137364750Y-160108510D01*
X134832750Y-160108510D01*
X134832750Y-160128510D01*
X134824750Y-160128510D01*
X134824750Y-160108510D01*
X133396655Y-160108510D01*
X133227745Y-160362134D01*
X133448203Y-160955202D01*
X133602450Y-161121242D01*
X133424430Y-161240190D01*
X133258666Y-161488275D01*
X133200457Y-161780910D01*
X126898717Y-161780910D01*
X126906184Y-161769735D01*
X126964393Y-161477100D01*
X126964393Y-159846886D01*
X133227745Y-159846886D01*
X133396655Y-160100510D01*
X134824750Y-160100510D01*
X134824750Y-158672416D01*
X134832750Y-158672416D01*
X134832750Y-160100510D01*
X137364750Y-160100510D01*
X137364750Y-158672416D01*
X137372750Y-158672416D01*
X137372750Y-160100510D01*
X139904750Y-160100510D01*
X139904750Y-158672416D01*
X139912750Y-158672416D01*
X139912750Y-160100510D01*
X141340845Y-160100510D01*
X141509755Y-159846886D01*
X141289297Y-159253818D01*
X140858663Y-158790261D01*
X140283414Y-158526786D01*
X140166374Y-158503505D01*
X139912750Y-158672416D01*
X139904750Y-158672416D01*
X139651126Y-158503505D01*
X139534086Y-158526786D01*
X138958837Y-158790261D01*
X138638750Y-159134819D01*
X138318663Y-158790261D01*
X137743414Y-158526786D01*
X137626374Y-158503505D01*
X137372750Y-158672416D01*
X137364750Y-158672416D01*
X137111126Y-158503505D01*
X136994086Y-158526786D01*
X136418837Y-158790261D01*
X136098750Y-159134819D01*
X135778663Y-158790261D01*
X135203414Y-158526786D01*
X135086374Y-158503505D01*
X134832750Y-158672416D01*
X134824750Y-158672416D01*
X134571126Y-158503505D01*
X134454086Y-158526786D01*
X133878837Y-158790261D01*
X133448203Y-159253818D01*
X133227745Y-159846886D01*
X126964393Y-159846886D01*
X126964393Y-159749900D01*
X126906184Y-159457265D01*
X126740420Y-159209180D01*
X126586598Y-159106400D01*
X126856078Y-158703095D01*
X126981312Y-158073500D01*
X126856078Y-157443905D01*
X126499441Y-156910159D01*
X126339814Y-156803500D01*
X126499441Y-156696841D01*
X126856078Y-156163095D01*
X126981312Y-155533500D01*
X126935812Y-155304751D01*
X128480700Y-155304751D01*
X128480700Y-155762249D01*
X128655777Y-156184923D01*
X128979277Y-156508423D01*
X129401951Y-156683500D01*
X129859449Y-156683500D01*
X130058622Y-156601000D01*
X135620151Y-156601000D01*
X135857951Y-156699500D01*
X136315449Y-156699500D01*
X136514622Y-156617000D01*
X140738778Y-156617000D01*
X140937951Y-156699500D01*
X141395449Y-156699500D01*
X141818123Y-156524423D01*
X142141623Y-156200923D01*
X142316700Y-155778249D01*
X142316700Y-155320751D01*
X142141623Y-154898077D01*
X141818123Y-154574577D01*
X141395449Y-154399500D01*
X140937951Y-154399500D01*
X140738778Y-154482000D01*
X136514622Y-154482000D01*
X136315449Y-154399500D01*
X135857951Y-154399500D01*
X135697406Y-154466000D01*
X130058622Y-154466000D01*
X129859449Y-154383500D01*
X129401951Y-154383500D01*
X128979277Y-154558577D01*
X128655777Y-154882077D01*
X128480700Y-155304751D01*
X126935812Y-155304751D01*
X126856078Y-154903905D01*
X126499441Y-154370159D01*
X125965695Y-154013522D01*
X125495025Y-153919900D01*
X125232172Y-153919900D01*
X124884179Y-153571907D01*
X124824623Y-153482775D01*
X124471517Y-153246837D01*
X124160135Y-153184899D01*
X124160131Y-153184899D01*
X124054999Y-153163987D01*
X123949867Y-153184899D01*
X116670332Y-153184899D01*
X116565200Y-153163987D01*
X116460068Y-153184899D01*
X116460065Y-153184899D01*
X116148683Y-153246837D01*
X115795577Y-153482775D01*
X115736022Y-153571905D01*
X115642027Y-153665900D01*
X115434172Y-153665900D01*
X114986280Y-153218008D01*
X114926724Y-153128876D01*
X114573618Y-152892938D01*
X114262236Y-152831000D01*
X114262232Y-152831000D01*
X114157100Y-152810088D01*
X114051968Y-152831000D01*
X107137232Y-152831000D01*
X107032100Y-152810088D01*
X106926968Y-152831000D01*
X106926964Y-152831000D01*
X106615582Y-152892938D01*
X106262476Y-153128876D01*
X106202921Y-153218006D01*
X105882027Y-153538900D01*
X105619175Y-153538900D01*
X105148505Y-153632522D01*
X104614759Y-153989159D01*
X104502866Y-154156619D01*
X104088792Y-153771953D01*
X103495724Y-153551495D01*
X103242100Y-153720405D01*
X103242100Y-155148500D01*
X103262100Y-155148500D01*
X103262100Y-155156500D01*
X103242100Y-155156500D01*
X103242100Y-155176500D01*
X103234100Y-155176500D01*
X103234100Y-155156500D01*
X101806006Y-155156500D01*
X101637095Y-155410124D01*
X101660376Y-155527164D01*
X101923851Y-156102413D01*
X102254175Y-156409277D01*
X102074759Y-156529159D01*
X101718122Y-157062905D01*
X101592888Y-157692500D01*
X79924266Y-157692500D01*
X79971247Y-157579080D01*
X79971247Y-156937150D01*
X79725591Y-156344084D01*
X79271678Y-155890171D01*
X78678612Y-155644515D01*
X78036682Y-155644515D01*
X77443616Y-155890171D01*
X77087647Y-156246140D01*
X76731678Y-155890171D01*
X76138612Y-155644515D01*
X75496682Y-155644515D01*
X74903616Y-155890171D01*
X74547647Y-156246140D01*
X74191678Y-155890171D01*
X73598612Y-155644515D01*
X72956682Y-155644515D01*
X72363616Y-155890171D01*
X72007647Y-156246140D01*
X71651678Y-155890171D01*
X71058612Y-155644515D01*
X70416682Y-155644515D01*
X69823616Y-155890171D01*
X69467647Y-156246140D01*
X69111678Y-155890171D01*
X68518612Y-155644515D01*
X67876682Y-155644515D01*
X67283616Y-155890171D01*
X66927647Y-156246140D01*
X66571678Y-155890171D01*
X65978612Y-155644515D01*
X65336682Y-155644515D01*
X64743616Y-155890171D01*
X64289703Y-156344084D01*
X64044047Y-156937150D01*
X62191247Y-156937150D01*
X61945591Y-156344084D01*
X61491678Y-155890171D01*
X60898612Y-155644515D01*
X60256682Y-155644515D01*
X59663616Y-155890171D01*
X59307647Y-156246140D01*
X58951678Y-155890171D01*
X58358612Y-155644515D01*
X57716682Y-155644515D01*
X57123616Y-155890171D01*
X56767647Y-156246140D01*
X56411678Y-155890171D01*
X55818612Y-155644515D01*
X55176682Y-155644515D01*
X54583616Y-155890171D01*
X54227647Y-156246140D01*
X53871678Y-155890171D01*
X53278612Y-155644515D01*
X52636682Y-155644515D01*
X52043616Y-155890171D01*
X51589703Y-156344084D01*
X51344047Y-156937150D01*
X51344047Y-157579080D01*
X51589703Y-158172146D01*
X51899234Y-158481677D01*
X51699979Y-158680932D01*
X51344010Y-158324963D01*
X50750944Y-158079307D01*
X50109014Y-158079307D01*
X49515948Y-158324963D01*
X49159979Y-158680932D01*
X48804010Y-158324963D01*
X48210944Y-158079307D01*
X47569014Y-158079307D01*
X46975948Y-158324963D01*
X46619979Y-158680932D01*
X46264010Y-158324963D01*
X45670944Y-158079307D01*
X45029014Y-158079307D01*
X44435948Y-158324963D01*
X44079979Y-158680932D01*
X43724010Y-158324963D01*
X43130944Y-158079307D01*
X42489014Y-158079307D01*
X41895948Y-158324963D01*
X41442035Y-158778876D01*
X41196379Y-159371942D01*
X30739600Y-159371942D01*
X30739600Y-152794500D01*
X81639907Y-152794500D01*
X81639907Y-154494500D01*
X81698116Y-154787135D01*
X81863880Y-155035220D01*
X82111965Y-155200984D01*
X82404600Y-155259193D01*
X84104600Y-155259193D01*
X84397235Y-155200984D01*
X84645320Y-155035220D01*
X84811084Y-154787135D01*
X84869293Y-154494500D01*
X84869293Y-152794500D01*
X84811084Y-152501865D01*
X84645320Y-152253780D01*
X84464612Y-152133036D01*
X84557847Y-152046419D01*
X84819100Y-151475989D01*
X84842172Y-151359997D01*
X84673094Y-151108500D01*
X83258600Y-151108500D01*
X83258600Y-151128500D01*
X83250600Y-151128500D01*
X83250600Y-151108500D01*
X81836106Y-151108500D01*
X81667028Y-151359997D01*
X81690100Y-151475989D01*
X81951353Y-152046419D01*
X82044588Y-152133036D01*
X81863880Y-152253780D01*
X81698116Y-152501865D01*
X81639907Y-152794500D01*
X30739600Y-152794500D01*
X30739600Y-150849003D01*
X81667028Y-150849003D01*
X81836106Y-151100500D01*
X83250600Y-151100500D01*
X83250600Y-149686005D01*
X83258600Y-149686005D01*
X83258600Y-151100500D01*
X84673094Y-151100500D01*
X84842172Y-150849003D01*
X84819100Y-150733011D01*
X84557847Y-150162581D01*
X84098186Y-149735549D01*
X83510097Y-149516928D01*
X83258600Y-149686005D01*
X83250600Y-149686005D01*
X82999103Y-149516928D01*
X82411014Y-149735549D01*
X81951353Y-150162581D01*
X81690100Y-150733011D01*
X81667028Y-150849003D01*
X30739600Y-150849003D01*
X30739600Y-147302287D01*
X49958706Y-147302287D01*
X49981987Y-147419327D01*
X50245462Y-147994576D01*
X50709019Y-148425210D01*
X51302087Y-148645668D01*
X51555711Y-148476758D01*
X51555711Y-147048663D01*
X50127617Y-147048663D01*
X49958706Y-147302287D01*
X30739600Y-147302287D01*
X30739600Y-124184663D01*
X49914499Y-124184663D01*
X50039733Y-124814258D01*
X50396370Y-125348004D01*
X50555997Y-125454663D01*
X50396370Y-125561322D01*
X50039733Y-126095068D01*
X49914499Y-126724663D01*
X50039733Y-127354258D01*
X50396370Y-127888004D01*
X50555997Y-127994663D01*
X50396370Y-128101322D01*
X50039733Y-128635068D01*
X49914499Y-129264663D01*
X50039733Y-129894258D01*
X50396370Y-130428004D01*
X50555997Y-130534663D01*
X50396370Y-130641322D01*
X50039733Y-131175068D01*
X49914499Y-131804663D01*
X50039733Y-132434258D01*
X50396370Y-132968004D01*
X50555997Y-133074663D01*
X50396370Y-133181322D01*
X50039733Y-133715068D01*
X49914499Y-134344663D01*
X50039733Y-134974258D01*
X50396370Y-135508004D01*
X50555997Y-135614663D01*
X50396370Y-135721322D01*
X50039733Y-136255068D01*
X49914499Y-136884663D01*
X50039733Y-137514258D01*
X50396370Y-138048004D01*
X50555997Y-138154663D01*
X50396370Y-138261322D01*
X50039733Y-138795068D01*
X49914499Y-139424663D01*
X50039733Y-140054258D01*
X50396370Y-140588004D01*
X50555997Y-140694663D01*
X50396370Y-140801322D01*
X50039733Y-141335068D01*
X49914499Y-141964663D01*
X50039733Y-142594258D01*
X50396370Y-143128004D01*
X50555997Y-143234663D01*
X50396370Y-143341322D01*
X50039733Y-143875068D01*
X49914499Y-144504663D01*
X50039733Y-145134258D01*
X50396370Y-145668004D01*
X50575786Y-145787886D01*
X50245462Y-146094750D01*
X49981987Y-146669999D01*
X49958706Y-146787039D01*
X50127617Y-147040663D01*
X51555711Y-147040663D01*
X51555711Y-147020663D01*
X51563711Y-147020663D01*
X51563711Y-147040663D01*
X51583711Y-147040663D01*
X51583711Y-147048663D01*
X51563711Y-147048663D01*
X51563711Y-148476758D01*
X51817335Y-148645668D01*
X52410403Y-148425210D01*
X52576443Y-148270963D01*
X52695391Y-148448983D01*
X52943476Y-148614747D01*
X53236111Y-148672956D01*
X54963311Y-148672956D01*
X55255946Y-148614747D01*
X55504031Y-148448983D01*
X55669795Y-148200898D01*
X55728004Y-147908263D01*
X55728004Y-147302287D01*
X62658706Y-147302287D01*
X62681987Y-147419327D01*
X62945462Y-147994576D01*
X63409019Y-148425210D01*
X64002087Y-148645668D01*
X64255711Y-148476758D01*
X64255711Y-147048663D01*
X62827617Y-147048663D01*
X62658706Y-147302287D01*
X55728004Y-147302287D01*
X55728004Y-146181063D01*
X55669795Y-145888428D01*
X55504031Y-145640343D01*
X55350209Y-145537563D01*
X55619689Y-145134258D01*
X55744923Y-144504663D01*
X55619689Y-143875068D01*
X55263052Y-143341322D01*
X55103425Y-143234663D01*
X55263052Y-143128004D01*
X55619689Y-142594258D01*
X55744923Y-141964663D01*
X55619689Y-141335068D01*
X55263052Y-140801322D01*
X55103425Y-140694663D01*
X55263052Y-140588004D01*
X55619689Y-140054258D01*
X55744923Y-139424663D01*
X55619689Y-138795068D01*
X55263052Y-138261322D01*
X55103425Y-138154663D01*
X55263052Y-138048004D01*
X55619689Y-137514258D01*
X55744923Y-136884663D01*
X55619689Y-136255068D01*
X55263052Y-135721322D01*
X55103425Y-135614663D01*
X55263052Y-135508004D01*
X55619689Y-134974258D01*
X55744923Y-134344663D01*
X55619689Y-133715068D01*
X55263052Y-133181322D01*
X55103425Y-133074663D01*
X55263052Y-132968004D01*
X55619689Y-132434258D01*
X55744923Y-131804663D01*
X55619689Y-131175068D01*
X55263052Y-130641322D01*
X55103425Y-130534663D01*
X55263052Y-130428004D01*
X55619689Y-129894258D01*
X55744923Y-129264663D01*
X55619689Y-128635068D01*
X55263052Y-128101322D01*
X55083636Y-127981440D01*
X55413960Y-127674576D01*
X55677435Y-127099327D01*
X55700716Y-126982287D01*
X55531805Y-126728663D01*
X54103711Y-126728663D01*
X54103711Y-126748663D01*
X54095711Y-126748663D01*
X54095711Y-126728663D01*
X54075711Y-126728663D01*
X54075711Y-126720663D01*
X54095711Y-126720663D01*
X54095711Y-126700663D01*
X54103711Y-126700663D01*
X54103711Y-126720663D01*
X55531805Y-126720663D01*
X55700716Y-126467039D01*
X55677435Y-126349999D01*
X55413960Y-125774750D01*
X55083636Y-125467886D01*
X55263052Y-125348004D01*
X55619689Y-124814258D01*
X55744923Y-124184663D01*
X62614499Y-124184663D01*
X62739733Y-124814258D01*
X63096370Y-125348004D01*
X63255997Y-125454663D01*
X63096370Y-125561322D01*
X62739733Y-126095068D01*
X62614499Y-126724663D01*
X62739733Y-127354258D01*
X63096370Y-127888004D01*
X63255997Y-127994663D01*
X63096370Y-128101322D01*
X62739733Y-128635068D01*
X62614499Y-129264663D01*
X62739733Y-129894258D01*
X63096370Y-130428004D01*
X63255997Y-130534663D01*
X63096370Y-130641322D01*
X62739733Y-131175068D01*
X62614499Y-131804663D01*
X62739733Y-132434258D01*
X63096370Y-132968004D01*
X63255997Y-133074663D01*
X63096370Y-133181322D01*
X62739733Y-133715068D01*
X62614499Y-134344663D01*
X62739733Y-134974258D01*
X63096370Y-135508004D01*
X63255997Y-135614663D01*
X63096370Y-135721322D01*
X62739733Y-136255068D01*
X62614499Y-136884663D01*
X62739733Y-137514258D01*
X63096370Y-138048004D01*
X63255997Y-138154663D01*
X63096370Y-138261322D01*
X62739733Y-138795068D01*
X62614499Y-139424663D01*
X62739733Y-140054258D01*
X63096370Y-140588004D01*
X63255997Y-140694663D01*
X63096370Y-140801322D01*
X62739733Y-141335068D01*
X62614499Y-141964663D01*
X62739733Y-142594258D01*
X63096370Y-143128004D01*
X63255997Y-143234663D01*
X63096370Y-143341322D01*
X62739733Y-143875068D01*
X62614499Y-144504663D01*
X62739733Y-145134258D01*
X63096370Y-145668004D01*
X63275786Y-145787886D01*
X62945462Y-146094750D01*
X62681987Y-146669999D01*
X62658706Y-146787039D01*
X62827617Y-147040663D01*
X64255711Y-147040663D01*
X64255711Y-147020663D01*
X64263711Y-147020663D01*
X64263711Y-147040663D01*
X64283711Y-147040663D01*
X64283711Y-147048663D01*
X64263711Y-147048663D01*
X64263711Y-148476758D01*
X64517335Y-148645668D01*
X65110403Y-148425210D01*
X65276443Y-148270963D01*
X65395391Y-148448983D01*
X65643476Y-148614747D01*
X65936111Y-148672956D01*
X67663311Y-148672956D01*
X67955946Y-148614747D01*
X68204031Y-148448983D01*
X68369795Y-148200898D01*
X68387446Y-148112163D01*
X85292591Y-148112163D01*
X86834600Y-149654173D01*
X86834600Y-149942869D01*
X87062961Y-150494182D01*
X87213279Y-150644500D01*
X87062961Y-150794818D01*
X86834600Y-151346131D01*
X86834600Y-151942869D01*
X87062961Y-152494182D01*
X87213279Y-152644500D01*
X87062961Y-152794818D01*
X86834600Y-153346131D01*
X86834600Y-153942869D01*
X87062961Y-154494182D01*
X87484918Y-154916139D01*
X88036231Y-155144500D01*
X88632969Y-155144500D01*
X89184282Y-154916139D01*
X89606239Y-154494182D01*
X89834600Y-153942869D01*
X89834600Y-153346131D01*
X89606239Y-152794818D01*
X89455921Y-152644500D01*
X89606239Y-152494182D01*
X89834600Y-151942869D01*
X89834600Y-151346131D01*
X89606239Y-150794818D01*
X89455921Y-150644500D01*
X89606239Y-150494182D01*
X89834600Y-149942869D01*
X89834600Y-149346131D01*
X89606239Y-148794818D01*
X89455921Y-148644500D01*
X89606239Y-148494182D01*
X89834600Y-147942869D01*
X89834600Y-147346131D01*
X90134600Y-147346131D01*
X90134600Y-147942869D01*
X90362961Y-148494182D01*
X90513279Y-148644500D01*
X90362961Y-148794818D01*
X90134600Y-149346131D01*
X90134600Y-149942869D01*
X90362961Y-150494182D01*
X90513279Y-150644500D01*
X90362961Y-150794818D01*
X90134600Y-151346131D01*
X90134600Y-151942869D01*
X90362961Y-152494182D01*
X90513279Y-152644500D01*
X90362961Y-152794818D01*
X90134600Y-153346131D01*
X90134600Y-153942869D01*
X90362961Y-154494182D01*
X90784918Y-154916139D01*
X91336231Y-155144500D01*
X91932969Y-155144500D01*
X92484282Y-154916139D01*
X92505545Y-154894876D01*
X101637095Y-154894876D01*
X101806006Y-155148500D01*
X103234100Y-155148500D01*
X103234100Y-153720405D01*
X102980476Y-153551495D01*
X102387408Y-153771953D01*
X101923851Y-154202587D01*
X101660376Y-154777836D01*
X101637095Y-154894876D01*
X92505545Y-154894876D01*
X92906239Y-154494182D01*
X93134600Y-153942869D01*
X93134600Y-153346131D01*
X92906239Y-152794818D01*
X92755921Y-152644500D01*
X92906239Y-152494182D01*
X93134600Y-151942869D01*
X93134600Y-151346131D01*
X92906239Y-150794818D01*
X92755921Y-150644500D01*
X92906239Y-150494182D01*
X93134600Y-149942869D01*
X93134600Y-149346131D01*
X92906239Y-148794818D01*
X92755921Y-148644500D01*
X92906239Y-148494182D01*
X93134600Y-147942869D01*
X93134600Y-147346131D01*
X92906239Y-146794818D01*
X92484282Y-146372861D01*
X91932969Y-146144500D01*
X91336231Y-146144500D01*
X90784918Y-146372861D01*
X90362961Y-146794818D01*
X90134600Y-147346131D01*
X89834600Y-147346131D01*
X89606239Y-146794818D01*
X89184282Y-146372861D01*
X88632969Y-146144500D01*
X88036231Y-146144500D01*
X87484918Y-146372861D01*
X87062961Y-146794818D01*
X87042936Y-146843163D01*
X86563943Y-146364171D01*
X86504387Y-146275039D01*
X86151281Y-146039101D01*
X85839899Y-145977163D01*
X85839895Y-145977163D01*
X85734763Y-145956251D01*
X85629631Y-145977163D01*
X68387446Y-145977163D01*
X68369795Y-145888428D01*
X68204031Y-145640343D01*
X68050209Y-145537563D01*
X68319689Y-145134258D01*
X68444923Y-144504663D01*
X68319689Y-143875068D01*
X67963052Y-143341322D01*
X67803425Y-143234663D01*
X67963052Y-143128004D01*
X68217128Y-142747751D01*
X111568600Y-142747751D01*
X111568600Y-143205249D01*
X111743677Y-143627923D01*
X112067177Y-143951423D01*
X112489851Y-144126500D01*
X112947349Y-144126500D01*
X113370023Y-143951423D01*
X113467946Y-143853500D01*
X122360430Y-143853500D01*
X122446800Y-143870680D01*
X122533170Y-143853500D01*
X122533175Y-143853500D01*
X122788988Y-143802616D01*
X123079081Y-143608781D01*
X123128010Y-143535554D01*
X124236839Y-142426725D01*
X124203288Y-142595400D01*
X124224201Y-142700537D01*
X124224200Y-145342578D01*
X124141700Y-145541751D01*
X124141700Y-145999249D01*
X124316777Y-146421923D01*
X124640277Y-146745423D01*
X125062951Y-146920500D01*
X125520449Y-146920500D01*
X125943123Y-146745423D01*
X126266623Y-146421923D01*
X126441700Y-145999249D01*
X126441700Y-145541751D01*
X126359200Y-145342578D01*
X126359200Y-143536000D01*
X148642928Y-143536000D01*
X149170677Y-144063749D01*
X149253177Y-144262923D01*
X149576677Y-144586423D01*
X149999351Y-144761500D01*
X150456849Y-144761500D01*
X150879523Y-144586423D01*
X151203023Y-144262923D01*
X151378100Y-143840249D01*
X151378100Y-143382751D01*
X151203023Y-142960077D01*
X150879523Y-142636577D01*
X150680349Y-142554077D01*
X149914280Y-141788008D01*
X149854724Y-141698876D01*
X149501618Y-141462938D01*
X149190236Y-141401000D01*
X149190232Y-141401000D01*
X149085100Y-141380088D01*
X148979968Y-141401000D01*
X125846522Y-141401000D01*
X125647349Y-141318500D01*
X125345064Y-141318500D01*
X139693658Y-126969907D01*
X139766881Y-126920981D01*
X139960716Y-126630888D01*
X140011600Y-126375075D01*
X140011600Y-126375071D01*
X140028780Y-126288701D01*
X140011600Y-126202331D01*
X140011600Y-121881846D01*
X140109523Y-121783923D01*
X140284600Y-121361249D01*
X140284600Y-120903751D01*
X140109523Y-120481077D01*
X139786023Y-120157577D01*
X139363349Y-119982500D01*
X138905851Y-119982500D01*
X138483177Y-120157577D01*
X138159677Y-120481077D01*
X137984600Y-120903751D01*
X137984600Y-121361249D01*
X138159677Y-121783923D01*
X138257600Y-121881846D01*
X138257601Y-123471821D01*
X138257600Y-123471826D01*
X138257601Y-124452381D01*
X138257600Y-125925435D01*
X134156900Y-130026135D01*
X134156900Y-121716746D01*
X134254823Y-121618823D01*
X134429900Y-121196149D01*
X134429900Y-120738651D01*
X134254823Y-120315977D01*
X133931323Y-119992477D01*
X133508649Y-119817400D01*
X133051151Y-119817400D01*
X132628477Y-119992477D01*
X132304977Y-120315977D01*
X132129900Y-120738651D01*
X132129900Y-121196149D01*
X132304977Y-121618823D01*
X132402900Y-121716746D01*
X132402901Y-130749691D01*
X126387093Y-136765500D01*
X124135946Y-136765500D01*
X124038023Y-136667577D01*
X123615349Y-136492500D01*
X123157851Y-136492500D01*
X122735177Y-136667577D01*
X122411677Y-136991077D01*
X122236600Y-137413751D01*
X122236600Y-137871249D01*
X122411677Y-138293923D01*
X122735177Y-138617423D01*
X123157851Y-138792500D01*
X123615349Y-138792500D01*
X124038023Y-138617423D01*
X124135946Y-138519500D01*
X125663536Y-138519500D01*
X122083536Y-142099500D01*
X113467946Y-142099500D01*
X113370023Y-142001577D01*
X112947349Y-141826500D01*
X112489851Y-141826500D01*
X112067177Y-142001577D01*
X111743677Y-142325077D01*
X111568600Y-142747751D01*
X68217128Y-142747751D01*
X68319689Y-142594258D01*
X68444923Y-141964663D01*
X68319689Y-141335068D01*
X67963052Y-140801322D01*
X67803425Y-140694663D01*
X67963052Y-140588004D01*
X68319689Y-140054258D01*
X68444923Y-139424663D01*
X68319689Y-138795068D01*
X67963052Y-138261322D01*
X67803425Y-138154663D01*
X67963052Y-138048004D01*
X68319689Y-137514258D01*
X68444923Y-136884663D01*
X68319689Y-136255068D01*
X67963052Y-135721322D01*
X67906783Y-135683724D01*
X92855095Y-135683724D01*
X92878376Y-135800764D01*
X93141851Y-136376013D01*
X93605408Y-136806647D01*
X94198476Y-137027105D01*
X94452100Y-136858195D01*
X94452100Y-135430100D01*
X93024006Y-135430100D01*
X92855095Y-135683724D01*
X67906783Y-135683724D01*
X67803425Y-135614663D01*
X67963052Y-135508004D01*
X68319689Y-134974258D01*
X68444923Y-134344663D01*
X68319689Y-133715068D01*
X67963052Y-133181322D01*
X67906783Y-133143724D01*
X92855095Y-133143724D01*
X92878376Y-133260764D01*
X93141851Y-133836013D01*
X93486409Y-134156100D01*
X93141851Y-134476187D01*
X92878376Y-135051436D01*
X92855095Y-135168476D01*
X93024006Y-135422100D01*
X94452100Y-135422100D01*
X94452100Y-132890100D01*
X93024006Y-132890100D01*
X92855095Y-133143724D01*
X67906783Y-133143724D01*
X67803425Y-133074663D01*
X67963052Y-132968004D01*
X68319689Y-132434258D01*
X68444923Y-131804663D01*
X68319689Y-131175068D01*
X67963052Y-130641322D01*
X67810814Y-130539600D01*
X92834500Y-130539600D01*
X92834500Y-131360475D01*
X92949898Y-131639072D01*
X93163127Y-131852301D01*
X93210865Y-131872075D01*
X93141851Y-131936187D01*
X92878376Y-132511436D01*
X92855095Y-132628476D01*
X93024006Y-132882100D01*
X94452100Y-132882100D01*
X94452100Y-130350100D01*
X93024000Y-130350100D01*
X92834500Y-130539600D01*
X67810814Y-130539600D01*
X67803425Y-130534663D01*
X67963052Y-130428004D01*
X68319689Y-129894258D01*
X68431583Y-129331725D01*
X92834500Y-129331725D01*
X92834500Y-130152600D01*
X93024000Y-130342100D01*
X94452100Y-130342100D01*
X94452100Y-128914000D01*
X94460100Y-128914000D01*
X94460100Y-130342100D01*
X94480100Y-130342100D01*
X94480100Y-130350100D01*
X94460100Y-130350100D01*
X94460100Y-132882100D01*
X94480100Y-132882100D01*
X94480100Y-132890100D01*
X94460100Y-132890100D01*
X94460100Y-135422100D01*
X94480100Y-135422100D01*
X94480100Y-135430100D01*
X94460100Y-135430100D01*
X94460100Y-136858195D01*
X94713724Y-137027105D01*
X95306792Y-136806647D01*
X95720866Y-136421981D01*
X95832759Y-136589441D01*
X96366505Y-136946078D01*
X96837175Y-137039700D01*
X97155025Y-137039700D01*
X97625695Y-136946078D01*
X98159441Y-136589441D01*
X98516078Y-136055695D01*
X98633810Y-135463815D01*
X108612485Y-135463815D01*
X108612485Y-135908591D01*
X108727884Y-136187188D01*
X108941113Y-136400417D01*
X109219710Y-136515815D01*
X109876985Y-136515815D01*
X110066483Y-136326317D01*
X110066483Y-136446799D01*
X110019613Y-136466213D01*
X109806384Y-136679442D01*
X109690985Y-136958039D01*
X109690985Y-137210315D01*
X109880485Y-137399815D01*
X110223075Y-137399815D01*
X110211102Y-137407815D01*
X109880485Y-137407815D01*
X109690985Y-137597315D01*
X109690985Y-137849591D01*
X109737088Y-137960893D01*
X109684292Y-138226315D01*
X109684292Y-138521315D01*
X109753729Y-138870396D01*
X109771584Y-138897119D01*
X109631685Y-139234866D01*
X109631685Y-139692364D01*
X109806762Y-140115038D01*
X110130262Y-140438538D01*
X110552936Y-140613615D01*
X111010434Y-140613615D01*
X111433108Y-140438538D01*
X111756608Y-140115038D01*
X111931685Y-139692364D01*
X111931685Y-139234866D01*
X111782065Y-138873652D01*
X111784241Y-138870396D01*
X111853678Y-138521315D01*
X111853678Y-138226315D01*
X111844474Y-138180040D01*
X113104485Y-138180040D01*
X113104485Y-138457315D01*
X113293985Y-138646815D01*
X114067792Y-138646815D01*
X114067792Y-138654815D01*
X113293985Y-138654815D01*
X113104485Y-138844315D01*
X113104485Y-139121590D01*
X113219883Y-139400187D01*
X113433112Y-139613416D01*
X113711709Y-139728815D01*
X113963985Y-139728815D01*
X114153485Y-139539315D01*
X114153485Y-139196725D01*
X114161485Y-139208698D01*
X114161485Y-139539315D01*
X114254485Y-139632315D01*
X114254485Y-139895564D01*
X114429562Y-140318238D01*
X114753062Y-140641738D01*
X115175736Y-140816815D01*
X115633234Y-140816815D01*
X116055908Y-140641738D01*
X116379408Y-140318238D01*
X116554485Y-139895564D01*
X116554485Y-139438066D01*
X116379408Y-139015392D01*
X116297531Y-138933515D01*
X116298665Y-138927814D01*
X116281485Y-138841444D01*
X116281485Y-138841440D01*
X116230601Y-138585627D01*
X116187178Y-138520640D01*
X116187178Y-138478315D01*
X116117741Y-138129234D01*
X115920003Y-137833297D01*
X115624066Y-137635559D01*
X115274985Y-137566122D01*
X114979985Y-137566122D01*
X114714563Y-137618918D01*
X114603261Y-137572815D01*
X114350985Y-137572815D01*
X114161485Y-137762315D01*
X114161485Y-138092932D01*
X114153485Y-138104905D01*
X114153485Y-137762315D01*
X113963985Y-137572815D01*
X113711709Y-137572815D01*
X113433112Y-137688214D01*
X113219883Y-137901443D01*
X113104485Y-138180040D01*
X111844474Y-138180040D01*
X111800882Y-137960893D01*
X111846985Y-137849591D01*
X111846985Y-137597315D01*
X111657485Y-137407815D01*
X111326868Y-137407815D01*
X111314895Y-137399815D01*
X111657485Y-137399815D01*
X111846985Y-137210315D01*
X111846985Y-136958039D01*
X111731586Y-136679442D01*
X111606584Y-136554440D01*
X116175485Y-136554440D01*
X116175485Y-136831715D01*
X116364985Y-137021215D01*
X117138792Y-137021215D01*
X117138792Y-137029215D01*
X116364985Y-137029215D01*
X116175485Y-137218715D01*
X116175485Y-137495990D01*
X116290883Y-137774587D01*
X116504112Y-137987816D01*
X116782709Y-138103215D01*
X117034985Y-138103215D01*
X117224485Y-137913715D01*
X117224485Y-137571125D01*
X117232485Y-137583098D01*
X117232485Y-137913715D01*
X117421985Y-138103215D01*
X117674261Y-138103215D01*
X117785563Y-138057112D01*
X118050985Y-138109908D01*
X118345985Y-138109908D01*
X118695066Y-138040471D01*
X118705280Y-138033646D01*
X118985736Y-138149815D01*
X119443234Y-138149815D01*
X119865908Y-137974738D01*
X120189408Y-137651238D01*
X120364485Y-137228564D01*
X120364485Y-136771066D01*
X120189408Y-136348392D01*
X119865908Y-136024892D01*
X119443234Y-135849815D01*
X118985736Y-135849815D01*
X118630243Y-135997065D01*
X118345985Y-135940522D01*
X118050985Y-135940522D01*
X117785563Y-135993318D01*
X117674261Y-135947215D01*
X117421985Y-135947215D01*
X117232485Y-136136715D01*
X117232485Y-136467332D01*
X117224485Y-136479305D01*
X117224485Y-136136715D01*
X117034985Y-135947215D01*
X116782709Y-135947215D01*
X116504112Y-136062614D01*
X116290883Y-136275843D01*
X116175485Y-136554440D01*
X111606584Y-136554440D01*
X111518357Y-136466213D01*
X111246618Y-136353656D01*
X111413086Y-136187188D01*
X111528485Y-135908591D01*
X111528485Y-135463815D01*
X111338985Y-135274315D01*
X110074485Y-135274315D01*
X110074485Y-135294315D01*
X110066485Y-135294315D01*
X110066485Y-135274315D01*
X108801985Y-135274315D01*
X108612485Y-135463815D01*
X98633810Y-135463815D01*
X98641312Y-135426100D01*
X98516078Y-134796505D01*
X98159441Y-134262759D01*
X97999814Y-134156100D01*
X98159441Y-134049441D01*
X98516078Y-133515695D01*
X98641312Y-132886100D01*
X98516078Y-132256505D01*
X98159441Y-131722759D01*
X97999814Y-131616100D01*
X98159441Y-131509441D01*
X98516078Y-130975695D01*
X98641312Y-130346100D01*
X98516078Y-129716505D01*
X98159441Y-129182759D01*
X97625695Y-128826122D01*
X97155025Y-128732500D01*
X96837175Y-128732500D01*
X96366505Y-128826122D01*
X95976276Y-129086864D01*
X95962302Y-129053128D01*
X95749073Y-128839899D01*
X95470476Y-128724500D01*
X94649600Y-128724500D01*
X94460100Y-128914000D01*
X94452100Y-128914000D01*
X94262600Y-128724500D01*
X93441724Y-128724500D01*
X93163127Y-128839899D01*
X92949898Y-129053128D01*
X92834500Y-129331725D01*
X68431583Y-129331725D01*
X68444923Y-129264663D01*
X68319689Y-128635068D01*
X67963052Y-128101322D01*
X67783636Y-127981440D01*
X68113960Y-127674576D01*
X68377435Y-127099327D01*
X68400716Y-126982287D01*
X68231805Y-126728663D01*
X66803711Y-126728663D01*
X66803711Y-126748663D01*
X66795711Y-126748663D01*
X66795711Y-126728663D01*
X66775711Y-126728663D01*
X66775711Y-126720663D01*
X66795711Y-126720663D01*
X66795711Y-126700663D01*
X66803711Y-126700663D01*
X66803711Y-126720663D01*
X68231805Y-126720663D01*
X68400716Y-126467039D01*
X68377435Y-126349999D01*
X68113960Y-125774750D01*
X67783636Y-125467886D01*
X67963052Y-125348004D01*
X68319689Y-124814258D01*
X68444923Y-124184663D01*
X68319689Y-123555068D01*
X67963052Y-123021322D01*
X67429306Y-122664685D01*
X66958636Y-122571063D01*
X66640786Y-122571063D01*
X66170116Y-122664685D01*
X65636370Y-123021322D01*
X65529711Y-123180949D01*
X65423052Y-123021322D01*
X64889306Y-122664685D01*
X64418636Y-122571063D01*
X64100786Y-122571063D01*
X63630116Y-122664685D01*
X63096370Y-123021322D01*
X62739733Y-123555068D01*
X62614499Y-124184663D01*
X55744923Y-124184663D01*
X55619689Y-123555068D01*
X55263052Y-123021322D01*
X54729306Y-122664685D01*
X54258636Y-122571063D01*
X53940786Y-122571063D01*
X53470116Y-122664685D01*
X52936370Y-123021322D01*
X52829711Y-123180949D01*
X52723052Y-123021322D01*
X52189306Y-122664685D01*
X51718636Y-122571063D01*
X51400786Y-122571063D01*
X50930116Y-122664685D01*
X50396370Y-123021322D01*
X50039733Y-123555068D01*
X49914499Y-124184663D01*
X30739600Y-124184663D01*
X30739600Y-116818124D01*
X87114695Y-116818124D01*
X87335153Y-117411192D01*
X87765787Y-117874749D01*
X88341036Y-118138224D01*
X88458076Y-118161505D01*
X88711700Y-117992594D01*
X88711700Y-116564500D01*
X87283605Y-116564500D01*
X87114695Y-116818124D01*
X30739600Y-116818124D01*
X30739600Y-111111942D01*
X32052379Y-111111942D01*
X32052379Y-111753872D01*
X32298035Y-112346938D01*
X32751948Y-112800851D01*
X33345014Y-113046507D01*
X33986944Y-113046507D01*
X34580010Y-112800851D01*
X34935979Y-112444882D01*
X35291948Y-112800851D01*
X35885014Y-113046507D01*
X36526944Y-113046507D01*
X37120010Y-112800851D01*
X37475979Y-112444882D01*
X37734004Y-112702907D01*
X37378035Y-113058876D01*
X37132379Y-113651942D01*
X37132379Y-114293872D01*
X37378035Y-114886938D01*
X37831948Y-115340851D01*
X38425014Y-115586507D01*
X39066944Y-115586507D01*
X39660010Y-115340851D01*
X40015979Y-114984882D01*
X40371948Y-115340851D01*
X40965014Y-115586507D01*
X41606944Y-115586507D01*
X42200010Y-115340851D01*
X42555979Y-114984882D01*
X42911948Y-115340851D01*
X43505014Y-115586507D01*
X44146944Y-115586507D01*
X44740010Y-115340851D01*
X45095979Y-114984882D01*
X45451948Y-115340851D01*
X46045014Y-115586507D01*
X46686944Y-115586507D01*
X47280010Y-115340851D01*
X47635979Y-114984882D01*
X47991948Y-115340851D01*
X48585014Y-115586507D01*
X49226944Y-115586507D01*
X49820010Y-115340851D01*
X50175979Y-114984882D01*
X50531948Y-115340851D01*
X51125014Y-115586507D01*
X51766944Y-115586507D01*
X52360010Y-115340851D01*
X52715979Y-114984882D01*
X53071948Y-115340851D01*
X53665014Y-115586507D01*
X54306944Y-115586507D01*
X54900010Y-115340851D01*
X55255979Y-114984882D01*
X55611948Y-115340851D01*
X56205014Y-115586507D01*
X56846944Y-115586507D01*
X57440010Y-115340851D01*
X57893923Y-114886938D01*
X58139579Y-114293872D01*
X58139579Y-113651942D01*
X57893923Y-113058876D01*
X57537954Y-112702907D01*
X57892901Y-112347960D01*
X57917585Y-112472056D01*
X58032369Y-112643841D01*
X58111420Y-112762149D01*
X58184644Y-112811076D01*
X58979386Y-113605819D01*
X58964047Y-113642850D01*
X58964047Y-114284780D01*
X59209703Y-114877846D01*
X59663616Y-115331759D01*
X60256682Y-115577415D01*
X60898612Y-115577415D01*
X61491678Y-115331759D01*
X61847647Y-114975790D01*
X62203616Y-115331759D01*
X62796682Y-115577415D01*
X63438612Y-115577415D01*
X64031678Y-115331759D01*
X64387647Y-114975790D01*
X64743616Y-115331759D01*
X65336682Y-115577415D01*
X65978612Y-115577415D01*
X66571678Y-115331759D01*
X66927647Y-114975790D01*
X67283616Y-115331759D01*
X67876682Y-115577415D01*
X68518612Y-115577415D01*
X69111678Y-115331759D01*
X69467647Y-114975790D01*
X69823616Y-115331759D01*
X70416682Y-115577415D01*
X71058612Y-115577415D01*
X71651678Y-115331759D01*
X72007647Y-114975790D01*
X72363616Y-115331759D01*
X72956682Y-115577415D01*
X73598612Y-115577415D01*
X74191678Y-115331759D01*
X74547647Y-114975790D01*
X74903616Y-115331759D01*
X75496682Y-115577415D01*
X76138612Y-115577415D01*
X76731678Y-115331759D01*
X77087647Y-114975790D01*
X77443616Y-115331759D01*
X78036682Y-115577415D01*
X78678612Y-115577415D01*
X79271678Y-115331759D01*
X79725591Y-114877846D01*
X79971247Y-114284780D01*
X79971247Y-113642850D01*
X79725591Y-113049784D01*
X79369622Y-112693815D01*
X79725591Y-112337846D01*
X79971247Y-111744780D01*
X79971247Y-111102850D01*
X79725591Y-110509784D01*
X79541307Y-110325500D01*
X86320436Y-110325500D01*
X88427542Y-112432606D01*
X88086105Y-112500522D01*
X87552359Y-112857159D01*
X87195722Y-113390905D01*
X87070488Y-114020500D01*
X87195722Y-114650095D01*
X87552359Y-115183841D01*
X87719819Y-115295734D01*
X87335153Y-115709808D01*
X87114695Y-116302876D01*
X87283605Y-116556500D01*
X88711700Y-116556500D01*
X88711700Y-116536500D01*
X88719700Y-116536500D01*
X88719700Y-116556500D01*
X88739700Y-116556500D01*
X88739700Y-116564500D01*
X88719700Y-116564500D01*
X88719700Y-117992594D01*
X88973324Y-118161505D01*
X89090364Y-118138224D01*
X89108701Y-118129825D01*
X89108701Y-119674525D01*
X89091520Y-119760900D01*
X89159585Y-120103088D01*
X89301834Y-120315977D01*
X89353420Y-120393181D01*
X89426644Y-120442108D01*
X93216094Y-124231560D01*
X93265019Y-124304781D01*
X93338240Y-124353706D01*
X93338243Y-124353709D01*
X93485917Y-124452381D01*
X93555112Y-124498616D01*
X93810925Y-124549500D01*
X93810930Y-124549500D01*
X93897300Y-124566680D01*
X93983670Y-124549500D01*
X97618354Y-124549500D01*
X97716277Y-124647423D01*
X98138951Y-124822500D01*
X98596449Y-124822500D01*
X98887601Y-124701901D01*
X98887601Y-126380125D01*
X98870420Y-126466500D01*
X98938485Y-126808688D01*
X99054481Y-126982287D01*
X99132320Y-127098781D01*
X99205544Y-127147708D01*
X100138600Y-128080765D01*
X100138600Y-128376848D01*
X100313677Y-128799522D01*
X100637177Y-129123022D01*
X101059851Y-129298099D01*
X101517349Y-129298099D01*
X101940023Y-129123022D01*
X102170600Y-128892445D01*
X102170600Y-129003848D01*
X102345677Y-129426522D01*
X102669177Y-129750022D01*
X103091851Y-129925099D01*
X103549349Y-129925099D01*
X103972023Y-129750022D01*
X104295523Y-129426522D01*
X104470600Y-129003848D01*
X104470600Y-128546350D01*
X104295523Y-128123676D01*
X104205381Y-128033534D01*
X104214780Y-127986280D01*
X104197600Y-127899910D01*
X104197600Y-127899906D01*
X104146716Y-127644093D01*
X104146087Y-127643152D01*
X105921961Y-129419026D01*
X105970888Y-129492250D01*
X106237518Y-129670408D01*
X106126485Y-129938466D01*
X106126485Y-130395964D01*
X106301562Y-130818638D01*
X106625062Y-131142138D01*
X107047736Y-131317215D01*
X107316085Y-131317215D01*
X107316085Y-131453591D01*
X107431484Y-131732188D01*
X107644713Y-131945417D01*
X107923310Y-132060815D01*
X108200585Y-132060815D01*
X108390085Y-131871315D01*
X108390085Y-131097508D01*
X108398085Y-131097508D01*
X108398085Y-131871315D01*
X108587585Y-132060815D01*
X108864860Y-132060815D01*
X109143457Y-131945417D01*
X109193485Y-131895389D01*
X109193485Y-132082390D01*
X109193486Y-132082394D01*
X109193486Y-132243161D01*
X108901158Y-132438488D01*
X108847819Y-132518315D01*
X108437010Y-132518315D01*
X108181197Y-132569199D01*
X107891104Y-132763034D01*
X107697269Y-133053127D01*
X107629204Y-133395315D01*
X107697269Y-133737503D01*
X107891104Y-134027596D01*
X108181197Y-134221431D01*
X108437010Y-134272315D01*
X108809011Y-134272315D01*
X108727884Y-134353442D01*
X108612485Y-134632039D01*
X108612485Y-135076815D01*
X108801985Y-135266315D01*
X110066485Y-135266315D01*
X110066485Y-135246315D01*
X110074485Y-135246315D01*
X110074485Y-135266315D01*
X111338985Y-135266315D01*
X111528485Y-135076815D01*
X111528485Y-134632039D01*
X111492563Y-134545315D01*
X111734334Y-134545315D01*
X112157008Y-134370238D01*
X112175951Y-134351295D01*
X113779085Y-134351295D01*
X113779085Y-134796071D01*
X113894484Y-135074668D01*
X114107713Y-135287897D01*
X114386310Y-135403295D01*
X115043585Y-135403295D01*
X115233085Y-135213795D01*
X115233085Y-134161795D01*
X115241085Y-134161795D01*
X115241085Y-135213795D01*
X115430585Y-135403295D01*
X116087860Y-135403295D01*
X116366457Y-135287897D01*
X116579686Y-135074668D01*
X116695085Y-134796071D01*
X116695085Y-134351295D01*
X116505585Y-134161795D01*
X115241085Y-134161795D01*
X115233085Y-134161795D01*
X113968585Y-134161795D01*
X113779085Y-134351295D01*
X112175951Y-134351295D01*
X112480508Y-134046738D01*
X112655585Y-133624064D01*
X112655585Y-133166566D01*
X112480508Y-132743892D01*
X112157008Y-132420392D01*
X111734334Y-132245315D01*
X111276836Y-132245315D01*
X111075512Y-132328706D01*
X110947485Y-132243162D01*
X110947485Y-131744659D01*
X111172464Y-131519680D01*
X111279585Y-131540988D01*
X111979585Y-131540988D01*
X112272220Y-131482779D01*
X112329585Y-131444449D01*
X112386950Y-131482779D01*
X112679585Y-131540988D01*
X113283671Y-131540988D01*
X113325972Y-131604295D01*
X113390305Y-131700576D01*
X113463529Y-131749503D01*
X113772392Y-132058366D01*
X113772392Y-132526545D01*
X113849155Y-132912459D01*
X113998875Y-133136531D01*
X113894484Y-133240922D01*
X113779085Y-133519519D01*
X113779085Y-133964295D01*
X113968585Y-134153795D01*
X115233085Y-134153795D01*
X115233085Y-134133795D01*
X115241085Y-134133795D01*
X115241085Y-134153795D01*
X116505585Y-134153795D01*
X116695085Y-133964295D01*
X116695085Y-133519519D01*
X116628304Y-133358295D01*
X117386085Y-133358295D01*
X117475085Y-133447295D01*
X117805702Y-133447295D01*
X117817675Y-133455295D01*
X117475085Y-133455295D01*
X117285585Y-133644795D01*
X117285585Y-133897071D01*
X117400984Y-134175668D01*
X117614213Y-134388897D01*
X117892810Y-134504295D01*
X118170085Y-134504295D01*
X118359585Y-134314795D01*
X118359585Y-133540988D01*
X118367585Y-133540988D01*
X118367585Y-134314795D01*
X118557085Y-134504295D01*
X118834360Y-134504295D01*
X119112957Y-134388897D01*
X119326186Y-134175668D01*
X119441585Y-133897071D01*
X119441585Y-133644795D01*
X119252085Y-133455295D01*
X118909495Y-133455295D01*
X118921468Y-133447295D01*
X119252085Y-133447295D01*
X119441585Y-133257795D01*
X119441585Y-133005519D01*
X119395482Y-132894217D01*
X119407500Y-132833800D01*
X119800008Y-132671218D01*
X120123508Y-132347718D01*
X120298585Y-131925044D01*
X120298585Y-131771716D01*
X120413602Y-131599582D01*
X120464486Y-131343769D01*
X120464486Y-131343764D01*
X120481666Y-131257394D01*
X120464486Y-131171024D01*
X120464486Y-129948039D01*
X120481313Y-129874340D01*
X120464486Y-129775259D01*
X120464486Y-129762821D01*
X120450038Y-129690185D01*
X120422897Y-129530373D01*
X120416096Y-129519548D01*
X120413602Y-129507008D01*
X120323532Y-129372210D01*
X120303104Y-129339693D01*
X120303104Y-129160918D01*
X120128027Y-128738244D01*
X119804527Y-128414744D01*
X119402622Y-128248270D01*
X119395482Y-128212373D01*
X119441585Y-128101071D01*
X119441585Y-127848795D01*
X119252085Y-127659295D01*
X118921468Y-127659295D01*
X118909495Y-127651295D01*
X119252085Y-127651295D01*
X119441585Y-127461795D01*
X119441585Y-127209519D01*
X119326186Y-126930922D01*
X119112957Y-126717693D01*
X118834360Y-126602295D01*
X118557085Y-126602295D01*
X118367585Y-126791795D01*
X118367585Y-127565602D01*
X118359585Y-127565602D01*
X118359585Y-126791795D01*
X118170085Y-126602295D01*
X117892810Y-126602295D01*
X117614213Y-126717693D01*
X117400984Y-126930922D01*
X117285585Y-127209519D01*
X117285585Y-127218776D01*
X117227022Y-127077392D01*
X116903522Y-126753892D01*
X116480848Y-126578815D01*
X116023350Y-126578815D01*
X115600676Y-126753892D01*
X115277176Y-127077392D01*
X115102099Y-127500066D01*
X115102099Y-127666815D01*
X114981709Y-127666815D01*
X114703112Y-127782214D01*
X114489883Y-127995443D01*
X114436395Y-128124575D01*
X114170085Y-128071602D01*
X113875085Y-128071602D01*
X113537585Y-128138735D01*
X113200085Y-128071602D01*
X112905085Y-128071602D01*
X112556004Y-128141039D01*
X112260067Y-128338777D01*
X112062329Y-128634714D01*
X111992892Y-128983795D01*
X111992892Y-129314249D01*
X111979585Y-129311602D01*
X111279585Y-129311602D01*
X110986950Y-129369811D01*
X110738865Y-129535575D01*
X110697584Y-129597357D01*
X110683397Y-129600179D01*
X110683396Y-129600180D01*
X110683395Y-129600180D01*
X110519400Y-129709759D01*
X110393304Y-129794014D01*
X110344377Y-129867238D01*
X109511431Y-130700185D01*
X109472085Y-130726475D01*
X109472085Y-130562039D01*
X109425982Y-130450737D01*
X109478778Y-130185315D01*
X109478778Y-129890315D01*
X109409341Y-129541234D01*
X109211603Y-129245297D01*
X109115349Y-129180983D01*
X109411940Y-128884392D01*
X109568432Y-128506586D01*
X109687123Y-128457423D01*
X110010623Y-128133923D01*
X110185700Y-127711249D01*
X110185700Y-127253751D01*
X110010623Y-126831077D01*
X109687123Y-126507577D01*
X109264449Y-126332500D01*
X108806951Y-126332500D01*
X108384277Y-126507577D01*
X108286354Y-126605500D01*
X107925766Y-126605500D01*
X102514900Y-121194636D01*
X102514900Y-121056151D01*
X102339823Y-120633477D01*
X102016323Y-120309977D01*
X101593649Y-120134900D01*
X101479752Y-120134900D01*
X102907154Y-118707500D01*
X114509254Y-118707500D01*
X114607177Y-118805423D01*
X115029851Y-118980500D01*
X115487349Y-118980500D01*
X115910023Y-118805423D01*
X116233523Y-118481923D01*
X116408600Y-118059249D01*
X116408600Y-117601751D01*
X116292931Y-117322500D01*
X116408600Y-117043249D01*
X116408600Y-116654772D01*
X118010821Y-118256994D01*
X118070376Y-118346124D01*
X118423482Y-118582062D01*
X118734864Y-118644000D01*
X118734868Y-118644000D01*
X118840000Y-118664912D01*
X118945132Y-118644000D01*
X123843100Y-118644000D01*
X123843101Y-121198326D01*
X120648352Y-124393076D01*
X120449177Y-124475577D01*
X120125677Y-124799077D01*
X119950600Y-125221751D01*
X119950600Y-125679249D01*
X120125677Y-126101923D01*
X120449177Y-126425423D01*
X120871851Y-126600500D01*
X121329349Y-126600500D01*
X121752023Y-126425423D01*
X122075523Y-126101923D01*
X122158024Y-125902748D01*
X125591095Y-122469678D01*
X125680224Y-122410124D01*
X125916162Y-122057018D01*
X125978100Y-121745636D01*
X125978100Y-121745632D01*
X125999012Y-121640500D01*
X125978100Y-121535368D01*
X125978100Y-118644000D01*
X127975178Y-118644000D01*
X128174351Y-118726500D01*
X128631849Y-118726500D01*
X128831022Y-118644000D01*
X132102678Y-118644000D01*
X132301851Y-118726500D01*
X132759349Y-118726500D01*
X132958522Y-118644000D01*
X136166678Y-118644000D01*
X136365851Y-118726500D01*
X136823349Y-118726500D01*
X137246023Y-118551423D01*
X137569523Y-118227923D01*
X137744600Y-117805249D01*
X137744600Y-117347751D01*
X137569523Y-116925077D01*
X137246023Y-116601577D01*
X136823349Y-116426500D01*
X136365851Y-116426500D01*
X136166678Y-116509000D01*
X132958522Y-116509000D01*
X132759349Y-116426500D01*
X132301851Y-116426500D01*
X132102678Y-116509000D01*
X128831022Y-116509000D01*
X128631849Y-116426500D01*
X128174351Y-116426500D01*
X127975178Y-116509000D01*
X125338522Y-116509000D01*
X125139349Y-116426500D01*
X124681851Y-116426500D01*
X124482678Y-116509000D01*
X119282173Y-116509000D01*
X118191355Y-115418183D01*
X118289700Y-115270998D01*
X118693005Y-115540478D01*
X119163675Y-115634100D01*
X119481525Y-115634100D01*
X119952195Y-115540478D01*
X120485941Y-115183841D01*
X120592600Y-115024214D01*
X120699259Y-115183841D01*
X121233005Y-115540478D01*
X121703675Y-115634100D01*
X122021525Y-115634100D01*
X122492195Y-115540478D01*
X123025941Y-115183841D01*
X123132600Y-115024214D01*
X123239259Y-115183841D01*
X123773005Y-115540478D01*
X124243675Y-115634100D01*
X124561525Y-115634100D01*
X125032195Y-115540478D01*
X125565941Y-115183841D01*
X125672600Y-115024214D01*
X125779259Y-115183841D01*
X126313005Y-115540478D01*
X126783675Y-115634100D01*
X127101525Y-115634100D01*
X127572195Y-115540478D01*
X128105941Y-115183841D01*
X128212600Y-115024214D01*
X128319259Y-115183841D01*
X128853005Y-115540478D01*
X129323675Y-115634100D01*
X129641525Y-115634100D01*
X130112195Y-115540478D01*
X130645941Y-115183841D01*
X130752600Y-115024214D01*
X130859259Y-115183841D01*
X131393005Y-115540478D01*
X131863675Y-115634100D01*
X132181525Y-115634100D01*
X132652195Y-115540478D01*
X133185941Y-115183841D01*
X133292600Y-115024214D01*
X133399259Y-115183841D01*
X133933005Y-115540478D01*
X134403675Y-115634100D01*
X134721525Y-115634100D01*
X135192195Y-115540478D01*
X135725941Y-115183841D01*
X135832600Y-115024214D01*
X135939259Y-115183841D01*
X136473005Y-115540478D01*
X136943675Y-115634100D01*
X137261525Y-115634100D01*
X137732195Y-115540478D01*
X138265941Y-115183841D01*
X138372600Y-115024214D01*
X138479259Y-115183841D01*
X139013005Y-115540478D01*
X139483675Y-115634100D01*
X139801525Y-115634100D01*
X140272195Y-115540478D01*
X140805941Y-115183841D01*
X141162578Y-114650095D01*
X141287812Y-114020500D01*
X141162578Y-113390905D01*
X140805941Y-112857159D01*
X140638481Y-112745266D01*
X141023147Y-112331192D01*
X141243605Y-111738124D01*
X141074695Y-111484500D01*
X139646600Y-111484500D01*
X139646600Y-111504500D01*
X139638600Y-111504500D01*
X139638600Y-111484500D01*
X139618600Y-111484500D01*
X139618600Y-111476500D01*
X139638600Y-111476500D01*
X139638600Y-110048406D01*
X139646600Y-110048406D01*
X139646600Y-111476500D01*
X141074695Y-111476500D01*
X141243605Y-111222876D01*
X141023147Y-110629808D01*
X140592513Y-110166251D01*
X140017264Y-109902776D01*
X139900224Y-109879495D01*
X139646600Y-110048406D01*
X139638600Y-110048406D01*
X139384976Y-109879495D01*
X139267936Y-109902776D01*
X138692687Y-110166251D01*
X138385823Y-110496575D01*
X138265941Y-110317159D01*
X137732195Y-109960522D01*
X137261525Y-109866900D01*
X136943675Y-109866900D01*
X136473005Y-109960522D01*
X135939259Y-110317159D01*
X135819377Y-110496575D01*
X135512513Y-110166251D01*
X134937264Y-109902776D01*
X134820224Y-109879495D01*
X134566600Y-110048406D01*
X134566600Y-111476500D01*
X134586600Y-111476500D01*
X134586600Y-111484500D01*
X134566600Y-111484500D01*
X134566600Y-111504500D01*
X134558600Y-111504500D01*
X134558600Y-111484500D01*
X132026600Y-111484500D01*
X132026600Y-111504500D01*
X132018600Y-111504500D01*
X132018600Y-111484500D01*
X129486600Y-111484500D01*
X129486600Y-111504500D01*
X129478600Y-111504500D01*
X129478600Y-111484500D01*
X126946600Y-111484500D01*
X126946600Y-111504500D01*
X126938600Y-111504500D01*
X126938600Y-111484500D01*
X124406600Y-111484500D01*
X124406600Y-111504500D01*
X124398600Y-111504500D01*
X124398600Y-111484500D01*
X121866600Y-111484500D01*
X121866600Y-111504500D01*
X121858600Y-111504500D01*
X121858600Y-111484500D01*
X119326600Y-111484500D01*
X119326600Y-111504500D01*
X119318600Y-111504500D01*
X119318600Y-111484500D01*
X119298600Y-111484500D01*
X119298600Y-111476500D01*
X119318600Y-111476500D01*
X119318600Y-110048406D01*
X119326600Y-110048406D01*
X119326600Y-111476500D01*
X121858600Y-111476500D01*
X121858600Y-110048406D01*
X121866600Y-110048406D01*
X121866600Y-111476500D01*
X124398600Y-111476500D01*
X124398600Y-110048406D01*
X124406600Y-110048406D01*
X124406600Y-111476500D01*
X126938600Y-111476500D01*
X126938600Y-110048406D01*
X126946600Y-110048406D01*
X126946600Y-111476500D01*
X129478600Y-111476500D01*
X129478600Y-110048406D01*
X129486600Y-110048406D01*
X129486600Y-111476500D01*
X132018600Y-111476500D01*
X132018600Y-110048406D01*
X132026600Y-110048406D01*
X132026600Y-111476500D01*
X134558600Y-111476500D01*
X134558600Y-110048406D01*
X134304976Y-109879495D01*
X134187936Y-109902776D01*
X133612687Y-110166251D01*
X133292600Y-110510809D01*
X132972513Y-110166251D01*
X132397264Y-109902776D01*
X132280224Y-109879495D01*
X132026600Y-110048406D01*
X132018600Y-110048406D01*
X131764976Y-109879495D01*
X131647936Y-109902776D01*
X131072687Y-110166251D01*
X130752600Y-110510809D01*
X130432513Y-110166251D01*
X129857264Y-109902776D01*
X129740224Y-109879495D01*
X129486600Y-110048406D01*
X129478600Y-110048406D01*
X129224976Y-109879495D01*
X129107936Y-109902776D01*
X128532687Y-110166251D01*
X128212600Y-110510809D01*
X127892513Y-110166251D01*
X127317264Y-109902776D01*
X127200224Y-109879495D01*
X126946600Y-110048406D01*
X126938600Y-110048406D01*
X126684976Y-109879495D01*
X126567936Y-109902776D01*
X125992687Y-110166251D01*
X125672600Y-110510809D01*
X125352513Y-110166251D01*
X124777264Y-109902776D01*
X124660224Y-109879495D01*
X124406600Y-110048406D01*
X124398600Y-110048406D01*
X124144976Y-109879495D01*
X124027936Y-109902776D01*
X123452687Y-110166251D01*
X123132600Y-110510809D01*
X122812513Y-110166251D01*
X122237264Y-109902776D01*
X122120224Y-109879495D01*
X121866600Y-110048406D01*
X121858600Y-110048406D01*
X121604976Y-109879495D01*
X121487936Y-109902776D01*
X120912687Y-110166251D01*
X120592600Y-110510809D01*
X120272513Y-110166251D01*
X119697264Y-109902776D01*
X119580224Y-109879495D01*
X119326600Y-110048406D01*
X119318600Y-110048406D01*
X119064976Y-109879495D01*
X118947936Y-109902776D01*
X118372687Y-110166251D01*
X118065823Y-110496575D01*
X117945941Y-110317159D01*
X117412195Y-109960522D01*
X116941525Y-109866900D01*
X116623675Y-109866900D01*
X116153005Y-109960522D01*
X115619259Y-110317159D01*
X115262622Y-110850905D01*
X115137388Y-111480500D01*
X115262622Y-112110095D01*
X115532102Y-112513400D01*
X115378280Y-112616180D01*
X115212516Y-112864265D01*
X115156972Y-113143500D01*
X103626280Y-113143500D01*
X101223452Y-110740672D01*
X101295700Y-110566249D01*
X101295700Y-110108751D01*
X101120623Y-109686077D01*
X100797123Y-109362577D01*
X100374449Y-109187500D01*
X99916951Y-109187500D01*
X99494277Y-109362577D01*
X99170777Y-109686077D01*
X98995700Y-110108751D01*
X98995700Y-110566249D01*
X99170777Y-110988923D01*
X99292856Y-111111002D01*
X99319584Y-111245373D01*
X99513420Y-111535466D01*
X99586644Y-111584393D01*
X102581806Y-114579556D01*
X102630734Y-114652781D01*
X102920827Y-114846616D01*
X103176640Y-114897500D01*
X103176644Y-114897500D01*
X103263014Y-114914680D01*
X103349384Y-114897500D01*
X114533254Y-114897500D01*
X114509254Y-114921500D01*
X103660970Y-114921500D01*
X103574600Y-114904320D01*
X103488230Y-114921500D01*
X103488225Y-114921500D01*
X103232412Y-114972384D01*
X103179229Y-115007920D01*
X103015543Y-115117291D01*
X103015540Y-115117294D01*
X102942319Y-115166219D01*
X102893394Y-115239440D01*
X99205546Y-118927290D01*
X99132319Y-118976219D01*
X98938484Y-119266313D01*
X98887600Y-119522126D01*
X98887600Y-119522130D01*
X98870420Y-119608500D01*
X98887600Y-119694870D01*
X98887600Y-121546541D01*
X98545649Y-121404900D01*
X98088151Y-121404900D01*
X97665477Y-121579977D01*
X97567554Y-121677900D01*
X95682966Y-121677900D01*
X93402700Y-119397636D01*
X93402700Y-118129826D01*
X93421036Y-118138224D01*
X93538076Y-118161505D01*
X93791700Y-117992594D01*
X93791700Y-116564500D01*
X93799700Y-116564500D01*
X93799700Y-117992594D01*
X94053324Y-118161505D01*
X94170364Y-118138224D01*
X94745613Y-117874749D01*
X95176247Y-117411192D01*
X95396705Y-116818124D01*
X95227795Y-116564500D01*
X93799700Y-116564500D01*
X93791700Y-116564500D01*
X93771700Y-116564500D01*
X93771700Y-116556500D01*
X93791700Y-116556500D01*
X93791700Y-116536500D01*
X93799700Y-116536500D01*
X93799700Y-116556500D01*
X95227795Y-116556500D01*
X95396705Y-116302876D01*
X95176247Y-115709808D01*
X95022000Y-115543768D01*
X95200020Y-115424820D01*
X95365784Y-115176735D01*
X95423993Y-114884100D01*
X95423993Y-113156900D01*
X95365784Y-112864265D01*
X95200020Y-112616180D01*
X94951935Y-112450416D01*
X94659300Y-112392207D01*
X94509224Y-112392207D01*
X94427981Y-112270619D01*
X94354757Y-112221692D01*
X90006510Y-107873446D01*
X89957581Y-107800219D01*
X89667488Y-107606384D01*
X89411675Y-107555500D01*
X89411670Y-107555500D01*
X89325300Y-107538320D01*
X89238930Y-107555500D01*
X60862070Y-107555500D01*
X60775700Y-107538320D01*
X60689330Y-107555500D01*
X60689325Y-107555500D01*
X60433512Y-107606384D01*
X60433510Y-107606385D01*
X60433511Y-107606385D01*
X60216643Y-107751291D01*
X60216640Y-107751294D01*
X60143419Y-107800219D01*
X60094494Y-107873440D01*
X58184646Y-109783290D01*
X58111419Y-109832219D01*
X57917584Y-110122313D01*
X57866700Y-110378126D01*
X57866700Y-110378130D01*
X57849520Y-110464500D01*
X57851996Y-110476949D01*
X57440010Y-110064963D01*
X56846944Y-109819307D01*
X56205014Y-109819307D01*
X55611948Y-110064963D01*
X55255979Y-110420932D01*
X54900010Y-110064963D01*
X54306944Y-109819307D01*
X53665014Y-109819307D01*
X53071948Y-110064963D01*
X52715979Y-110420932D01*
X52360010Y-110064963D01*
X51766944Y-109819307D01*
X51125014Y-109819307D01*
X50531948Y-110064963D01*
X50175979Y-110420932D01*
X49820010Y-110064963D01*
X49226944Y-109819307D01*
X48585014Y-109819307D01*
X47991948Y-110064963D01*
X47635979Y-110420932D01*
X47280010Y-110064963D01*
X46686944Y-109819307D01*
X46045014Y-109819307D01*
X45451948Y-110064963D01*
X45095979Y-110420932D01*
X44740010Y-110064963D01*
X44146944Y-109819307D01*
X43505014Y-109819307D01*
X42911948Y-110064963D01*
X42555979Y-110420932D01*
X42200010Y-110064963D01*
X41606944Y-109819307D01*
X40965014Y-109819307D01*
X40371948Y-110064963D01*
X40015979Y-110420932D01*
X39660010Y-110064963D01*
X39066944Y-109819307D01*
X38425014Y-109819307D01*
X37831948Y-110064963D01*
X37475979Y-110420932D01*
X37120010Y-110064963D01*
X36526944Y-109819307D01*
X35885014Y-109819307D01*
X35291948Y-110064963D01*
X34935979Y-110420932D01*
X34580010Y-110064963D01*
X33986944Y-109819307D01*
X33345014Y-109819307D01*
X32751948Y-110064963D01*
X32298035Y-110518876D01*
X32052379Y-111111942D01*
X30739600Y-111111942D01*
X30739600Y-107527500D01*
X101395600Y-107527500D01*
X101395600Y-107727500D01*
X101496696Y-108227745D01*
X101781532Y-108651224D01*
X102206745Y-108933465D01*
X102495034Y-109014765D01*
X102699600Y-108841993D01*
X102699600Y-107527500D01*
X102707600Y-107527500D01*
X102707600Y-108841993D01*
X102912166Y-109014765D01*
X103200455Y-108933465D01*
X103625668Y-108651224D01*
X103910504Y-108227745D01*
X104011600Y-107727500D01*
X104011600Y-107527500D01*
X106235600Y-107527500D01*
X106235600Y-107727500D01*
X106336696Y-108227745D01*
X106621532Y-108651224D01*
X107046745Y-108933465D01*
X107335034Y-109014765D01*
X107539600Y-108841993D01*
X107539600Y-107527500D01*
X107547600Y-107527500D01*
X107547600Y-108841993D01*
X107752166Y-109014765D01*
X108040455Y-108933465D01*
X108465668Y-108651224D01*
X108750504Y-108227745D01*
X108851600Y-107727500D01*
X108851600Y-107527500D01*
X107547600Y-107527500D01*
X107539600Y-107527500D01*
X106235600Y-107527500D01*
X104011600Y-107527500D01*
X102707600Y-107527500D01*
X102699600Y-107527500D01*
X101395600Y-107527500D01*
X30739600Y-107527500D01*
X30739600Y-104527500D01*
X100960600Y-104527500D01*
X100960600Y-104702500D01*
X101071211Y-105250581D01*
X101383144Y-105714613D01*
X101848910Y-106023951D01*
X102165480Y-106113226D01*
X102389598Y-105941996D01*
X102389598Y-106061969D01*
X102206745Y-106113535D01*
X101781532Y-106395776D01*
X101496696Y-106819255D01*
X101395600Y-107319500D01*
X101395600Y-107519500D01*
X102699600Y-107519500D01*
X102699600Y-107499500D01*
X102707600Y-107499500D01*
X102707600Y-107519500D01*
X104011600Y-107519500D01*
X104011600Y-107319500D01*
X106235600Y-107319500D01*
X106235600Y-107519500D01*
X107539600Y-107519500D01*
X107539600Y-107499500D01*
X107547600Y-107499500D01*
X107547600Y-107519500D01*
X108851600Y-107519500D01*
X108851600Y-107319500D01*
X108750504Y-106819255D01*
X108465668Y-106395776D01*
X108040455Y-106113535D01*
X107857602Y-106061969D01*
X107857602Y-105941996D01*
X108081720Y-106113226D01*
X108398290Y-106023951D01*
X108864056Y-105714613D01*
X109175989Y-105250581D01*
X109286600Y-104702500D01*
X109286600Y-104527500D01*
X107857600Y-104527500D01*
X107857600Y-104547500D01*
X107849600Y-104547500D01*
X107849600Y-104527500D01*
X106420600Y-104527500D01*
X106420600Y-104702500D01*
X106531211Y-105250581D01*
X106843144Y-105714613D01*
X107308910Y-106023951D01*
X107539598Y-106089007D01*
X107539598Y-106205005D01*
X107335034Y-106032235D01*
X107046745Y-106113535D01*
X106621532Y-106395776D01*
X106336696Y-106819255D01*
X106235600Y-107319500D01*
X104011600Y-107319500D01*
X103910504Y-106819255D01*
X103625668Y-106395776D01*
X103200455Y-106113535D01*
X102912166Y-106032235D01*
X102707602Y-106205005D01*
X102707602Y-106089007D01*
X102938290Y-106023951D01*
X103404056Y-105714613D01*
X103715989Y-105250581D01*
X103826600Y-104702500D01*
X103826600Y-104527500D01*
X102397600Y-104527500D01*
X102397600Y-104547500D01*
X102389600Y-104547500D01*
X102389600Y-104527500D01*
X100960600Y-104527500D01*
X30739600Y-104527500D01*
X30739600Y-103669500D01*
X101156529Y-103669500D01*
X101071211Y-103796419D01*
G36*
X115431485Y-129302698D02*
X115431485Y-129633315D01*
X115555585Y-129757415D01*
X115555585Y-129978795D01*
X115745085Y-130168295D01*
X116518892Y-130168295D01*
X116518892Y-130176295D01*
X115745085Y-130176295D01*
X115555585Y-130365795D01*
X115555585Y-130643070D01*
X115670983Y-130921667D01*
X115801417Y-131052101D01*
X115693335Y-131030602D01*
X115225156Y-131030602D01*
X114899585Y-130705031D01*
X114899585Y-129847376D01*
X114930241Y-129801496D01*
X114981709Y-129822815D01*
X115233985Y-129822815D01*
X115423485Y-129633315D01*
X115423485Y-129290725D01*
X115431485Y-129302698D01*
X115431485Y-129302698D01*
G37*
X115431485Y-129302698D02*
X115431485Y-129633315D01*
X115555585Y-129757415D01*
X115555585Y-129978795D01*
X115745085Y-130168295D01*
X116518892Y-130168295D01*
X116518892Y-130176295D01*
X115745085Y-130176295D01*
X115555585Y-130365795D01*
X115555585Y-130643070D01*
X115670983Y-130921667D01*
X115801417Y-131052101D01*
X115693335Y-131030602D01*
X115225156Y-131030602D01*
X114899585Y-130705031D01*
X114899585Y-129847376D01*
X114930241Y-129801496D01*
X114981709Y-129822815D01*
X115233985Y-129822815D01*
X115423485Y-129633315D01*
X115423485Y-129290725D01*
X115431485Y-129302698D01*
G36*
X91259700Y-116556500D02*
X91279700Y-116556500D01*
X91279700Y-116564500D01*
X91259700Y-116564500D01*
X91259700Y-117992594D01*
X91513324Y-118161505D01*
X91630364Y-118138224D01*
X91648700Y-118129826D01*
X91648700Y-119674530D01*
X91631520Y-119760900D01*
X91648700Y-119847270D01*
X91648700Y-119847274D01*
X91699584Y-120103087D01*
X91893419Y-120393181D01*
X91966646Y-120442110D01*
X94320034Y-122795500D01*
X94260566Y-122795500D01*
X90862700Y-119397636D01*
X90862700Y-118129826D01*
X90881036Y-118138224D01*
X90998076Y-118161505D01*
X91251700Y-117992594D01*
X91251700Y-116564500D01*
X91231700Y-116564500D01*
X91231700Y-116556500D01*
X91251700Y-116556500D01*
X91251700Y-116536500D01*
X91259700Y-116536500D01*
X91259700Y-116556500D01*
X91259700Y-116556500D01*
G37*
X91259700Y-116556500D02*
X91279700Y-116556500D01*
X91279700Y-116564500D01*
X91259700Y-116564500D01*
X91259700Y-117992594D01*
X91513324Y-118161505D01*
X91630364Y-118138224D01*
X91648700Y-118129826D01*
X91648700Y-119674530D01*
X91631520Y-119760900D01*
X91648700Y-119847270D01*
X91648700Y-119847274D01*
X91699584Y-120103087D01*
X91893419Y-120393181D01*
X91966646Y-120442110D01*
X94320034Y-122795500D01*
X94260566Y-122795500D01*
X90862700Y-119397636D01*
X90862700Y-118129826D01*
X90881036Y-118138224D01*
X90998076Y-118161505D01*
X91251700Y-117992594D01*
X91251700Y-116564500D01*
X91231700Y-116564500D01*
X91231700Y-116556500D01*
X91251700Y-116556500D01*
X91251700Y-116536500D01*
X91259700Y-116536500D01*
X91259700Y-116556500D01*
G04 #@! TD*
M02*
