G04 #@! TF.GenerationSoftware,KiCad,Pcbnew,6.0.0-rc1-unknown-r13540.595666d46.fc27*
G04 #@! TF.CreationDate,2018-10-03T12:08:21+02:00*
G04 #@! TF.ProjectId,Bricoleur-pcb,427269636F6C6575722D7063622E6B69,rev?*
G04 #@! TF.SameCoordinates,Original*
G04 #@! TF.FileFunction,Legend,Top*
G04 #@! TF.FilePolarity,Positive*
%FSLAX46Y46*%
G04 Gerber Fmt 4.6, Leading zero omitted, Abs format (unit mm)*
G04 Created by KiCad (PCBNEW 6.0.0-rc1-unknown-r13540.595666d46.fc27) date Wed Oct  3 12:08:21 2018*
%MOMM*%
%LPD*%
G01*
G04 APERTURE LIST*
%ADD10C,0.150000*%
%ADD11C,0.120000*%
%ADD12C,0.152400*%
%ADD13C,0.100000*%
G04 APERTURE END LIST*
D10*
X46666319Y-144207595D02*
X47142509Y-143874261D01*
X46666319Y-143636166D02*
X47666319Y-143636166D01*
X47666319Y-144017119D01*
X47618700Y-144112357D01*
X47571080Y-144159976D01*
X47475842Y-144207595D01*
X47332985Y-144207595D01*
X47237747Y-144159976D01*
X47190128Y-144112357D01*
X47142509Y-144017119D01*
X47142509Y-143636166D01*
X46666319Y-144636166D02*
X47332985Y-144636166D01*
X47666319Y-144636166D02*
X47618700Y-144588547D01*
X47571080Y-144636166D01*
X47618700Y-144683785D01*
X47666319Y-144636166D01*
X47571080Y-144636166D01*
X46713938Y-145540928D02*
X46666319Y-145445690D01*
X46666319Y-145255214D01*
X46713938Y-145159976D01*
X46761557Y-145112357D01*
X46856795Y-145064738D01*
X47142509Y-145064738D01*
X47237747Y-145112357D01*
X47285366Y-145159976D01*
X47332985Y-145255214D01*
X47332985Y-145445690D01*
X47285366Y-145540928D01*
X46666319Y-145969500D02*
X47666319Y-145969500D01*
X46666319Y-146398071D02*
X47190128Y-146398071D01*
X47285366Y-146350452D01*
X47332985Y-146255214D01*
X47332985Y-146112357D01*
X47285366Y-146017119D01*
X47237747Y-145969500D01*
X46666319Y-147302833D02*
X47190128Y-147302833D01*
X47285366Y-147255214D01*
X47332985Y-147159976D01*
X47332985Y-146969500D01*
X47285366Y-146874261D01*
X46713938Y-147302833D02*
X46666319Y-147207595D01*
X46666319Y-146969500D01*
X46713938Y-146874261D01*
X46809176Y-146826642D01*
X46904414Y-146826642D01*
X46999652Y-146874261D01*
X47047271Y-146969500D01*
X47047271Y-147207595D01*
X47094890Y-147302833D01*
X46666319Y-147779023D02*
X47332985Y-147779023D01*
X47142509Y-147779023D02*
X47237747Y-147826642D01*
X47285366Y-147874261D01*
X47332985Y-147969500D01*
X47332985Y-148064738D01*
X46666319Y-148826642D02*
X47666319Y-148826642D01*
X46713938Y-148826642D02*
X46666319Y-148731404D01*
X46666319Y-148540928D01*
X46713938Y-148445690D01*
X46761557Y-148398071D01*
X46856795Y-148350452D01*
X47142509Y-148350452D01*
X47237747Y-148398071D01*
X47285366Y-148445690D01*
X47332985Y-148540928D01*
X47332985Y-148731404D01*
X47285366Y-148826642D01*
X47190128Y-150398071D02*
X47142509Y-150540928D01*
X47094890Y-150588547D01*
X46999652Y-150636166D01*
X46856795Y-150636166D01*
X46761557Y-150588547D01*
X46713938Y-150540928D01*
X46666319Y-150445690D01*
X46666319Y-150064738D01*
X47666319Y-150064738D01*
X47666319Y-150398071D01*
X47618700Y-150493309D01*
X47571080Y-150540928D01*
X47475842Y-150588547D01*
X47380604Y-150588547D01*
X47285366Y-150540928D01*
X47237747Y-150493309D01*
X47190128Y-150398071D01*
X47190128Y-150064738D01*
X46666319Y-151493309D02*
X47190128Y-151493309D01*
X47285366Y-151445690D01*
X47332985Y-151350452D01*
X47332985Y-151159976D01*
X47285366Y-151064738D01*
X46713938Y-151493309D02*
X46666319Y-151398071D01*
X46666319Y-151159976D01*
X46713938Y-151064738D01*
X46809176Y-151017119D01*
X46904414Y-151017119D01*
X46999652Y-151064738D01*
X47047271Y-151159976D01*
X47047271Y-151398071D01*
X47094890Y-151493309D01*
X46713938Y-152398071D02*
X46666319Y-152302833D01*
X46666319Y-152112357D01*
X46713938Y-152017119D01*
X46761557Y-151969500D01*
X46856795Y-151921880D01*
X47142509Y-151921880D01*
X47237747Y-151969500D01*
X47285366Y-152017119D01*
X47332985Y-152112357D01*
X47332985Y-152302833D01*
X47285366Y-152398071D01*
X46666319Y-152826642D02*
X47666319Y-152826642D01*
X46666319Y-153255214D02*
X47190128Y-153255214D01*
X47285366Y-153207595D01*
X47332985Y-153112357D01*
X47332985Y-152969500D01*
X47285366Y-152874261D01*
X47237747Y-152826642D01*
X46666319Y-153731404D02*
X47332985Y-153731404D01*
X47237747Y-153731404D02*
X47285366Y-153779023D01*
X47332985Y-153874261D01*
X47332985Y-154017119D01*
X47285366Y-154112357D01*
X47190128Y-154159976D01*
X46666319Y-154159976D01*
X47190128Y-154159976D02*
X47285366Y-154207595D01*
X47332985Y-154302833D01*
X47332985Y-154445690D01*
X47285366Y-154540928D01*
X47190128Y-154588547D01*
X46666319Y-154588547D01*
X46666319Y-155493309D02*
X47190128Y-155493309D01*
X47285366Y-155445690D01*
X47332985Y-155350452D01*
X47332985Y-155159976D01*
X47285366Y-155064738D01*
X46713938Y-155493309D02*
X46666319Y-155398071D01*
X46666319Y-155159976D01*
X46713938Y-155064738D01*
X46809176Y-155017119D01*
X46904414Y-155017119D01*
X46999652Y-155064738D01*
X47047271Y-155159976D01*
X47047271Y-155398071D01*
X47094890Y-155493309D01*
X47332985Y-155969500D02*
X46666319Y-155969500D01*
X47237747Y-155969500D02*
X47285366Y-156017119D01*
X47332985Y-156112357D01*
X47332985Y-156255214D01*
X47285366Y-156350452D01*
X47190128Y-156398071D01*
X46666319Y-156398071D01*
X47332985Y-156874261D02*
X46666319Y-156874261D01*
X47237747Y-156874261D02*
X47285366Y-156921880D01*
X47332985Y-157017119D01*
X47332985Y-157159976D01*
X47285366Y-157255214D01*
X47190128Y-157302833D01*
X46666319Y-157302833D01*
X45540128Y-143755214D02*
X45540128Y-143421880D01*
X45016319Y-143421880D02*
X46016319Y-143421880D01*
X46016319Y-143898071D01*
X45016319Y-144279023D02*
X45682985Y-144279023D01*
X45492509Y-144279023D02*
X45587747Y-144326642D01*
X45635366Y-144374261D01*
X45682985Y-144469500D01*
X45682985Y-144564738D01*
X45016319Y-144898071D02*
X45682985Y-144898071D01*
X46016319Y-144898071D02*
X45968700Y-144850452D01*
X45921080Y-144898071D01*
X45968700Y-144945690D01*
X46016319Y-144898071D01*
X45921080Y-144898071D01*
X45682985Y-145231404D02*
X45682985Y-145612357D01*
X46016319Y-145374261D02*
X45159176Y-145374261D01*
X45063938Y-145421880D01*
X45016319Y-145517119D01*
X45016319Y-145612357D01*
X45682985Y-145850452D02*
X45682985Y-146374261D01*
X45016319Y-145850452D01*
X45016319Y-146374261D01*
X45397271Y-146755214D02*
X45397271Y-147517119D01*
X46016319Y-148183785D02*
X46016319Y-148374261D01*
X45968700Y-148469500D01*
X45873461Y-148564738D01*
X45682985Y-148612357D01*
X45349652Y-148612357D01*
X45159176Y-148564738D01*
X45063938Y-148469500D01*
X45016319Y-148374261D01*
X45016319Y-148183785D01*
X45063938Y-148088547D01*
X45159176Y-147993309D01*
X45349652Y-147945690D01*
X45682985Y-147945690D01*
X45873461Y-147993309D01*
X45968700Y-148088547D01*
X46016319Y-148183785D01*
X45016319Y-149183785D02*
X45063938Y-149088547D01*
X45159176Y-149040928D01*
X46016319Y-149040928D01*
X45016319Y-149993309D02*
X45540128Y-149993309D01*
X45635366Y-149945690D01*
X45682985Y-149850452D01*
X45682985Y-149659976D01*
X45635366Y-149564738D01*
X45063938Y-149993309D02*
X45016319Y-149898071D01*
X45016319Y-149659976D01*
X45063938Y-149564738D01*
X45159176Y-149517119D01*
X45254414Y-149517119D01*
X45349652Y-149564738D01*
X45397271Y-149659976D01*
X45397271Y-149898071D01*
X45444890Y-149993309D01*
X45682985Y-150374261D02*
X45016319Y-150612357D01*
X45682985Y-150850452D01*
X45016319Y-151993309D02*
X46016319Y-151993309D01*
X45302033Y-152326642D01*
X46016319Y-152659976D01*
X45016319Y-152659976D01*
X45682985Y-153040928D02*
X45016319Y-153279023D01*
X45682985Y-153517119D02*
X45016319Y-153279023D01*
X44778223Y-153183785D01*
X44730604Y-153136166D01*
X44682985Y-153040928D01*
X45016319Y-153898071D02*
X45682985Y-153898071D01*
X45492509Y-153898071D02*
X45587747Y-153945690D01*
X45635366Y-153993309D01*
X45682985Y-154088547D01*
X45682985Y-154183785D01*
X45682985Y-154421880D02*
X45016319Y-154659976D01*
X45682985Y-154898071D01*
X45016319Y-155707595D02*
X45540128Y-155707595D01*
X45635366Y-155659976D01*
X45682985Y-155564738D01*
X45682985Y-155374261D01*
X45635366Y-155279023D01*
X45063938Y-155707595D02*
X45016319Y-155612357D01*
X45016319Y-155374261D01*
X45063938Y-155279023D01*
X45159176Y-155231404D01*
X45254414Y-155231404D01*
X45349652Y-155279023D01*
X45397271Y-155374261D01*
X45397271Y-155612357D01*
X45444890Y-155707595D01*
X45682985Y-156183785D02*
X45016319Y-156183785D01*
X45587747Y-156183785D02*
X45635366Y-156231404D01*
X45682985Y-156326642D01*
X45682985Y-156469500D01*
X45635366Y-156564738D01*
X45540128Y-156612357D01*
X45016319Y-156612357D01*
X45682985Y-157517119D02*
X44873461Y-157517119D01*
X44778223Y-157469500D01*
X44730604Y-157421880D01*
X44682985Y-157326642D01*
X44682985Y-157183785D01*
X44730604Y-157088547D01*
X45063938Y-157517119D02*
X45016319Y-157421880D01*
X45016319Y-157231404D01*
X45063938Y-157136166D01*
X45111557Y-157088547D01*
X45206795Y-157040928D01*
X45492509Y-157040928D01*
X45587747Y-157088547D01*
X45635366Y-157136166D01*
X45682985Y-157231404D01*
X45682985Y-157421880D01*
X45635366Y-157517119D01*
X44366319Y-144588547D02*
X43366319Y-144921880D01*
X44366319Y-145255214D01*
X43366319Y-146017119D02*
X43890128Y-146017119D01*
X43985366Y-145969500D01*
X44032985Y-145874261D01*
X44032985Y-145683785D01*
X43985366Y-145588547D01*
X43413938Y-146017119D02*
X43366319Y-145921880D01*
X43366319Y-145683785D01*
X43413938Y-145588547D01*
X43509176Y-145540928D01*
X43604414Y-145540928D01*
X43699652Y-145588547D01*
X43747271Y-145683785D01*
X43747271Y-145921880D01*
X43794890Y-146017119D01*
X43366319Y-146636166D02*
X43413938Y-146540928D01*
X43509176Y-146493309D01*
X44366319Y-146493309D01*
X43413938Y-147398071D02*
X43366319Y-147302833D01*
X43366319Y-147112357D01*
X43413938Y-147017119D01*
X43509176Y-146969500D01*
X43890128Y-146969500D01*
X43985366Y-147017119D01*
X44032985Y-147112357D01*
X44032985Y-147302833D01*
X43985366Y-147398071D01*
X43890128Y-147445690D01*
X43794890Y-147445690D01*
X43699652Y-146969500D01*
X44032985Y-147874261D02*
X43366319Y-147874261D01*
X43937747Y-147874261D02*
X43985366Y-147921880D01*
X44032985Y-148017119D01*
X44032985Y-148159976D01*
X43985366Y-148255214D01*
X43890128Y-148302833D01*
X43366319Y-148302833D01*
X44032985Y-148636166D02*
X44032985Y-149017119D01*
X44366319Y-148779023D02*
X43509176Y-148779023D01*
X43413938Y-148826642D01*
X43366319Y-148921880D01*
X43366319Y-149017119D01*
X43366319Y-149350452D02*
X44032985Y-149350452D01*
X44366319Y-149350452D02*
X44318700Y-149302833D01*
X44271080Y-149350452D01*
X44318700Y-149398071D01*
X44366319Y-149350452D01*
X44271080Y-149350452D01*
X44032985Y-149826642D02*
X43366319Y-149826642D01*
X43937747Y-149826642D02*
X43985366Y-149874261D01*
X44032985Y-149969500D01*
X44032985Y-150112357D01*
X43985366Y-150207595D01*
X43890128Y-150255214D01*
X43366319Y-150255214D01*
X43366319Y-151493309D02*
X44366319Y-151493309D01*
X44366319Y-151874261D01*
X44318700Y-151969500D01*
X44271080Y-152017119D01*
X44175842Y-152064738D01*
X44032985Y-152064738D01*
X43937747Y-152017119D01*
X43890128Y-151969500D01*
X43842509Y-151874261D01*
X43842509Y-151493309D01*
X43366319Y-152636166D02*
X43413938Y-152540928D01*
X43509176Y-152493309D01*
X44366319Y-152493309D01*
X43366319Y-153159976D02*
X43413938Y-153064738D01*
X43461557Y-153017119D01*
X43556795Y-152969500D01*
X43842509Y-152969500D01*
X43937747Y-153017119D01*
X43985366Y-153064738D01*
X44032985Y-153159976D01*
X44032985Y-153302833D01*
X43985366Y-153398071D01*
X43937747Y-153445690D01*
X43842509Y-153493309D01*
X43556795Y-153493309D01*
X43461557Y-153445690D01*
X43413938Y-153398071D01*
X43366319Y-153302833D01*
X43366319Y-153159976D01*
X44032985Y-153779023D02*
X44032985Y-154159976D01*
X44366319Y-153921880D02*
X43509176Y-153921880D01*
X43413938Y-153969500D01*
X43366319Y-154064738D01*
X43366319Y-154159976D01*
X43366319Y-154493309D02*
X44366319Y-154493309D01*
X43747271Y-154588547D02*
X43366319Y-154874261D01*
X44032985Y-154874261D02*
X43652033Y-154493309D01*
X43366319Y-155302833D02*
X44032985Y-155302833D01*
X44366319Y-155302833D02*
X44318700Y-155255214D01*
X44271080Y-155302833D01*
X44318700Y-155350452D01*
X44366319Y-155302833D01*
X44271080Y-155302833D01*
X44032985Y-155779023D02*
X43366319Y-155779023D01*
X43937747Y-155779023D02*
X43985366Y-155826642D01*
X44032985Y-155921880D01*
X44032985Y-156064738D01*
X43985366Y-156159976D01*
X43890128Y-156207595D01*
X43366319Y-156207595D01*
X42240128Y-145017119D02*
X42240128Y-145350452D01*
X41716319Y-145493309D02*
X41716319Y-145017119D01*
X42716319Y-145017119D01*
X42716319Y-145493309D01*
X41716319Y-145921880D02*
X42382985Y-145921880D01*
X42716319Y-145921880D02*
X42668700Y-145874261D01*
X42621080Y-145921880D01*
X42668700Y-145969500D01*
X42716319Y-145921880D01*
X42621080Y-145921880D01*
X41716319Y-146398071D02*
X42382985Y-146398071D01*
X42192509Y-146398071D02*
X42287747Y-146445690D01*
X42335366Y-146493309D01*
X42382985Y-146588547D01*
X42382985Y-146683785D01*
X41716319Y-147017119D02*
X42382985Y-147017119D01*
X42716319Y-147017119D02*
X42668700Y-146969500D01*
X42621080Y-147017119D01*
X42668700Y-147064738D01*
X42716319Y-147017119D01*
X42621080Y-147017119D01*
X41716319Y-147493309D02*
X42716319Y-147493309D01*
X42097271Y-147588547D02*
X41716319Y-147874261D01*
X42382985Y-147874261D02*
X42002033Y-147493309D01*
X42716319Y-148921880D02*
X41716319Y-149255214D01*
X42716319Y-149588547D01*
X41716319Y-150350452D02*
X42240128Y-150350452D01*
X42335366Y-150302833D01*
X42382985Y-150207595D01*
X42382985Y-150017119D01*
X42335366Y-149921880D01*
X41763938Y-150350452D02*
X41716319Y-150255214D01*
X41716319Y-150017119D01*
X41763938Y-149921880D01*
X41859176Y-149874261D01*
X41954414Y-149874261D01*
X42049652Y-149921880D01*
X42097271Y-150017119D01*
X42097271Y-150255214D01*
X42144890Y-150350452D01*
X41716319Y-150969500D02*
X41763938Y-150874261D01*
X41859176Y-150826642D01*
X42716319Y-150826642D01*
X41763938Y-151731404D02*
X41716319Y-151636166D01*
X41716319Y-151445690D01*
X41763938Y-151350452D01*
X41859176Y-151302833D01*
X42240128Y-151302833D01*
X42335366Y-151350452D01*
X42382985Y-151445690D01*
X42382985Y-151636166D01*
X42335366Y-151731404D01*
X42240128Y-151779023D01*
X42144890Y-151779023D01*
X42049652Y-151302833D01*
X42002033Y-152921880D02*
X42002033Y-153398071D01*
X41716319Y-152826642D02*
X42716319Y-153159976D01*
X41716319Y-153493309D01*
X41716319Y-154255214D02*
X42240128Y-154255214D01*
X42335366Y-154207595D01*
X42382985Y-154112357D01*
X42382985Y-153921880D01*
X42335366Y-153826642D01*
X41763938Y-154255214D02*
X41716319Y-154159976D01*
X41716319Y-153921880D01*
X41763938Y-153826642D01*
X41859176Y-153779023D01*
X41954414Y-153779023D01*
X42049652Y-153826642D01*
X42097271Y-153921880D01*
X42097271Y-154159976D01*
X42144890Y-154255214D01*
X41763938Y-154683785D02*
X41716319Y-154779023D01*
X41716319Y-154969500D01*
X41763938Y-155064738D01*
X41859176Y-155112357D01*
X41906795Y-155112357D01*
X42002033Y-155064738D01*
X42049652Y-154969500D01*
X42049652Y-154826642D01*
X42097271Y-154731404D01*
X42192509Y-154683785D01*
X42240128Y-154683785D01*
X42335366Y-154731404D01*
X42382985Y-154826642D01*
X42382985Y-154969500D01*
X42335366Y-155064738D01*
X41763938Y-155921880D02*
X41716319Y-155826642D01*
X41716319Y-155636166D01*
X41763938Y-155540928D01*
X41859176Y-155493309D01*
X42240128Y-155493309D01*
X42335366Y-155540928D01*
X42382985Y-155636166D01*
X42382985Y-155826642D01*
X42335366Y-155921880D01*
X42240128Y-155969500D01*
X42144890Y-155969500D01*
X42049652Y-155493309D01*
X41066319Y-146636166D02*
X40352033Y-146636166D01*
X40209176Y-146588547D01*
X40113938Y-146493309D01*
X40066319Y-146350452D01*
X40066319Y-146255214D01*
X40066319Y-147255214D02*
X40113938Y-147159976D01*
X40161557Y-147112357D01*
X40256795Y-147064738D01*
X40542509Y-147064738D01*
X40637747Y-147112357D01*
X40685366Y-147159976D01*
X40732985Y-147255214D01*
X40732985Y-147398071D01*
X40685366Y-147493309D01*
X40637747Y-147540928D01*
X40542509Y-147588547D01*
X40256795Y-147588547D01*
X40161557Y-147540928D01*
X40113938Y-147493309D01*
X40066319Y-147398071D01*
X40066319Y-147255214D01*
X40066319Y-148445690D02*
X40590128Y-148445690D01*
X40685366Y-148398071D01*
X40732985Y-148302833D01*
X40732985Y-148112357D01*
X40685366Y-148017119D01*
X40113938Y-148445690D02*
X40066319Y-148350452D01*
X40066319Y-148112357D01*
X40113938Y-148017119D01*
X40209176Y-147969500D01*
X40304414Y-147969500D01*
X40399652Y-148017119D01*
X40447271Y-148112357D01*
X40447271Y-148350452D01*
X40494890Y-148445690D01*
X40066319Y-148921880D02*
X41066319Y-148921880D01*
X40447271Y-149017119D02*
X40066319Y-149302833D01*
X40732985Y-149302833D02*
X40352033Y-148921880D01*
X40066319Y-149731404D02*
X40732985Y-149731404D01*
X41066319Y-149731404D02*
X41018700Y-149683785D01*
X40971080Y-149731404D01*
X41018700Y-149779023D01*
X41066319Y-149731404D01*
X40971080Y-149731404D01*
X40066319Y-150207595D02*
X40732985Y-150207595D01*
X40637747Y-150207595D02*
X40685366Y-150255214D01*
X40732985Y-150350452D01*
X40732985Y-150493309D01*
X40685366Y-150588547D01*
X40590128Y-150636166D01*
X40066319Y-150636166D01*
X40590128Y-150636166D02*
X40685366Y-150683785D01*
X40732985Y-150779023D01*
X40732985Y-150921880D01*
X40685366Y-151017119D01*
X40590128Y-151064738D01*
X40066319Y-151064738D01*
X40066319Y-152779023D02*
X40066319Y-152302833D01*
X41066319Y-152302833D01*
X40066319Y-153112357D02*
X40732985Y-153112357D01*
X41066319Y-153112357D02*
X41018700Y-153064738D01*
X40971080Y-153112357D01*
X41018700Y-153159976D01*
X41066319Y-153112357D01*
X40971080Y-153112357D01*
X40113938Y-153969500D02*
X40066319Y-153874261D01*
X40066319Y-153683785D01*
X40113938Y-153588547D01*
X40209176Y-153540928D01*
X40590128Y-153540928D01*
X40685366Y-153588547D01*
X40732985Y-153683785D01*
X40732985Y-153874261D01*
X40685366Y-153969500D01*
X40590128Y-154017119D01*
X40494890Y-154017119D01*
X40399652Y-153540928D01*
X40066319Y-154445690D02*
X40732985Y-154445690D01*
X40542509Y-154445690D02*
X40637747Y-154493309D01*
X40685366Y-154540928D01*
X40732985Y-154636166D01*
X40732985Y-154731404D01*
X38416319Y-144469500D02*
X39416319Y-144469500D01*
X38702033Y-144802833D01*
X39416319Y-145136166D01*
X38416319Y-145136166D01*
X38416319Y-146040928D02*
X38940128Y-146040928D01*
X39035366Y-145993309D01*
X39082985Y-145898071D01*
X39082985Y-145707595D01*
X39035366Y-145612357D01*
X38463938Y-146040928D02*
X38416319Y-145945690D01*
X38416319Y-145707595D01*
X38463938Y-145612357D01*
X38559176Y-145564738D01*
X38654414Y-145564738D01*
X38749652Y-145612357D01*
X38797271Y-145707595D01*
X38797271Y-145945690D01*
X38844890Y-146040928D01*
X38416319Y-146517119D02*
X39082985Y-146517119D01*
X38892509Y-146517119D02*
X38987747Y-146564738D01*
X39035366Y-146612357D01*
X39082985Y-146707595D01*
X39082985Y-146802833D01*
X38416319Y-147136166D02*
X39082985Y-147136166D01*
X39416319Y-147136166D02*
X39368700Y-147088547D01*
X39321080Y-147136166D01*
X39368700Y-147183785D01*
X39416319Y-147136166D01*
X39321080Y-147136166D01*
X39082985Y-148040928D02*
X38416319Y-148040928D01*
X39082985Y-147612357D02*
X38559176Y-147612357D01*
X38463938Y-147659976D01*
X38416319Y-147755214D01*
X38416319Y-147898071D01*
X38463938Y-147993309D01*
X38511557Y-148040928D01*
X38463938Y-148469500D02*
X38416319Y-148564738D01*
X38416319Y-148755214D01*
X38463938Y-148850452D01*
X38559176Y-148898071D01*
X38606795Y-148898071D01*
X38702033Y-148850452D01*
X38749652Y-148755214D01*
X38749652Y-148612357D01*
X38797271Y-148517119D01*
X38892509Y-148469500D01*
X38940128Y-148469500D01*
X39035366Y-148517119D01*
X39082985Y-148612357D01*
X39082985Y-148755214D01*
X39035366Y-148850452D01*
X38416319Y-150088547D02*
X39416319Y-150088547D01*
X38416319Y-150659976D02*
X38987747Y-150231404D01*
X39416319Y-150659976D02*
X38844890Y-150088547D01*
X38416319Y-151231404D02*
X38463938Y-151136166D01*
X38511557Y-151088547D01*
X38606795Y-151040928D01*
X38892509Y-151040928D01*
X38987747Y-151088547D01*
X39035366Y-151136166D01*
X39082985Y-151231404D01*
X39082985Y-151374261D01*
X39035366Y-151469500D01*
X38987747Y-151517119D01*
X38892509Y-151564738D01*
X38606795Y-151564738D01*
X38511557Y-151517119D01*
X38463938Y-151469500D01*
X38416319Y-151374261D01*
X38416319Y-151231404D01*
X38416319Y-151993309D02*
X39416319Y-151993309D01*
X38416319Y-152421880D02*
X38940128Y-152421880D01*
X39035366Y-152374261D01*
X39082985Y-152279023D01*
X39082985Y-152136166D01*
X39035366Y-152040928D01*
X38987747Y-151993309D01*
X38416319Y-152898071D02*
X39082985Y-152898071D01*
X38987747Y-152898071D02*
X39035366Y-152945690D01*
X39082985Y-153040928D01*
X39082985Y-153183785D01*
X39035366Y-153279023D01*
X38940128Y-153326642D01*
X38416319Y-153326642D01*
X38940128Y-153326642D02*
X39035366Y-153374261D01*
X39082985Y-153469500D01*
X39082985Y-153612357D01*
X39035366Y-153707595D01*
X38940128Y-153755214D01*
X38416319Y-153755214D01*
X38416319Y-154659976D02*
X38940128Y-154659976D01*
X39035366Y-154612357D01*
X39082985Y-154517119D01*
X39082985Y-154326642D01*
X39035366Y-154231404D01*
X38463938Y-154659976D02*
X38416319Y-154564738D01*
X38416319Y-154326642D01*
X38463938Y-154231404D01*
X38559176Y-154183785D01*
X38654414Y-154183785D01*
X38749652Y-154231404D01*
X38797271Y-154326642D01*
X38797271Y-154564738D01*
X38844890Y-154659976D01*
X39082985Y-155136166D02*
X38416319Y-155136166D01*
X38987747Y-155136166D02*
X39035366Y-155183785D01*
X39082985Y-155279023D01*
X39082985Y-155421880D01*
X39035366Y-155517119D01*
X38940128Y-155564738D01*
X38416319Y-155564738D01*
X39082985Y-156040928D02*
X38416319Y-156040928D01*
X38987747Y-156040928D02*
X39035366Y-156088547D01*
X39082985Y-156183785D01*
X39082985Y-156326642D01*
X39035366Y-156421880D01*
X38940128Y-156469500D01*
X38416319Y-156469500D01*
X37766319Y-147874261D02*
X37766319Y-148064738D01*
X37718700Y-148159976D01*
X37623461Y-148255214D01*
X37432985Y-148302833D01*
X37099652Y-148302833D01*
X36909176Y-148255214D01*
X36813938Y-148159976D01*
X36766319Y-148064738D01*
X36766319Y-147874261D01*
X36813938Y-147779023D01*
X36909176Y-147683785D01*
X37099652Y-147636166D01*
X37432985Y-147636166D01*
X37623461Y-147683785D01*
X37718700Y-147779023D01*
X37766319Y-147874261D01*
X36766319Y-148874261D02*
X36813938Y-148779023D01*
X36909176Y-148731404D01*
X37766319Y-148731404D01*
X36766319Y-149683785D02*
X37290128Y-149683785D01*
X37385366Y-149636166D01*
X37432985Y-149540928D01*
X37432985Y-149350452D01*
X37385366Y-149255214D01*
X36813938Y-149683785D02*
X36766319Y-149588547D01*
X36766319Y-149350452D01*
X36813938Y-149255214D01*
X36909176Y-149207595D01*
X37004414Y-149207595D01*
X37099652Y-149255214D01*
X37147271Y-149350452D01*
X37147271Y-149588547D01*
X37194890Y-149683785D01*
X37766319Y-150779023D02*
X37766319Y-151350452D01*
X36766319Y-151064738D02*
X37766319Y-151064738D01*
X36766319Y-151826642D02*
X36813938Y-151731404D01*
X36861557Y-151683785D01*
X36956795Y-151636166D01*
X37242509Y-151636166D01*
X37337747Y-151683785D01*
X37385366Y-151731404D01*
X37432985Y-151826642D01*
X37432985Y-151969500D01*
X37385366Y-152064738D01*
X37337747Y-152112357D01*
X37242509Y-152159976D01*
X36956795Y-152159976D01*
X36861557Y-152112357D01*
X36813938Y-152064738D01*
X36766319Y-151969500D01*
X36766319Y-151826642D01*
X37432985Y-152445690D02*
X37432985Y-152826642D01*
X36766319Y-152588547D02*
X37623461Y-152588547D01*
X37718700Y-152636166D01*
X37766319Y-152731404D01*
X37766319Y-152826642D01*
X37432985Y-153017119D02*
X37432985Y-153398071D01*
X37766319Y-153159976D02*
X36909176Y-153159976D01*
X36813938Y-153207595D01*
X36766319Y-153302833D01*
X36766319Y-153398071D01*
X35640128Y-145279023D02*
X35640128Y-145612357D01*
X35116319Y-145755214D02*
X35116319Y-145279023D01*
X36116319Y-145279023D01*
X36116319Y-145755214D01*
X35116319Y-146183785D02*
X35782985Y-146183785D01*
X36116319Y-146183785D02*
X36068700Y-146136166D01*
X36021080Y-146183785D01*
X36068700Y-146231404D01*
X36116319Y-146183785D01*
X36021080Y-146183785D01*
X35116319Y-146659976D02*
X35782985Y-146659976D01*
X35592509Y-146659976D02*
X35687747Y-146707595D01*
X35735366Y-146755214D01*
X35782985Y-146850452D01*
X35782985Y-146945690D01*
X35116319Y-147279023D02*
X35782985Y-147279023D01*
X36116319Y-147279023D02*
X36068700Y-147231404D01*
X36021080Y-147279023D01*
X36068700Y-147326642D01*
X36116319Y-147279023D01*
X36021080Y-147279023D01*
X35116319Y-147755214D02*
X36116319Y-147755214D01*
X35497271Y-147850452D02*
X35116319Y-148136166D01*
X35782985Y-148136166D02*
X35402033Y-147755214D01*
X35163938Y-149279023D02*
X35116319Y-149421880D01*
X35116319Y-149659976D01*
X35163938Y-149755214D01*
X35211557Y-149802833D01*
X35306795Y-149850452D01*
X35402033Y-149850452D01*
X35497271Y-149802833D01*
X35544890Y-149755214D01*
X35592509Y-149659976D01*
X35640128Y-149469500D01*
X35687747Y-149374261D01*
X35735366Y-149326642D01*
X35830604Y-149279023D01*
X35925842Y-149279023D01*
X36021080Y-149326642D01*
X36068700Y-149374261D01*
X36116319Y-149469500D01*
X36116319Y-149707595D01*
X36068700Y-149850452D01*
X35116319Y-150279023D02*
X35782985Y-150279023D01*
X35687747Y-150279023D02*
X35735366Y-150326642D01*
X35782985Y-150421880D01*
X35782985Y-150564738D01*
X35735366Y-150659976D01*
X35640128Y-150707595D01*
X35116319Y-150707595D01*
X35640128Y-150707595D02*
X35735366Y-150755214D01*
X35782985Y-150850452D01*
X35782985Y-150993309D01*
X35735366Y-151088547D01*
X35640128Y-151136166D01*
X35116319Y-151136166D01*
X35116319Y-151612357D02*
X35782985Y-151612357D01*
X36116319Y-151612357D02*
X36068700Y-151564738D01*
X36021080Y-151612357D01*
X36068700Y-151659976D01*
X36116319Y-151612357D01*
X36021080Y-151612357D01*
X35782985Y-151945690D02*
X35782985Y-152326642D01*
X36116319Y-152088547D02*
X35259176Y-152088547D01*
X35163938Y-152136166D01*
X35116319Y-152231404D01*
X35116319Y-152326642D01*
X35116319Y-152659976D02*
X36116319Y-152659976D01*
X35116319Y-153088547D02*
X35640128Y-153088547D01*
X35735366Y-153040928D01*
X35782985Y-152945690D01*
X35782985Y-152802833D01*
X35735366Y-152707595D01*
X35687747Y-152659976D01*
X35163938Y-153517119D02*
X35116319Y-153612357D01*
X35116319Y-153802833D01*
X35163938Y-153898071D01*
X35259176Y-153945690D01*
X35306795Y-153945690D01*
X35402033Y-153898071D01*
X35449652Y-153802833D01*
X35449652Y-153659976D01*
X35497271Y-153564738D01*
X35592509Y-153517119D01*
X35640128Y-153517119D01*
X35735366Y-153564738D01*
X35782985Y-153659976D01*
X35782985Y-153802833D01*
X35735366Y-153898071D01*
X35163938Y-154755214D02*
X35116319Y-154659976D01*
X35116319Y-154469500D01*
X35163938Y-154374261D01*
X35259176Y-154326642D01*
X35640128Y-154326642D01*
X35735366Y-154374261D01*
X35782985Y-154469500D01*
X35782985Y-154659976D01*
X35735366Y-154755214D01*
X35640128Y-154802833D01*
X35544890Y-154802833D01*
X35449652Y-154326642D01*
X35782985Y-155231404D02*
X35116319Y-155231404D01*
X35687747Y-155231404D02*
X35735366Y-155279023D01*
X35782985Y-155374261D01*
X35782985Y-155517119D01*
X35735366Y-155612357D01*
X35640128Y-155659976D01*
X35116319Y-155659976D01*
X33990128Y-147064738D02*
X33990128Y-147398071D01*
X33466319Y-147540928D02*
X33466319Y-147064738D01*
X34466319Y-147064738D01*
X34466319Y-147540928D01*
X33466319Y-147969500D02*
X34132985Y-147969500D01*
X34466319Y-147969500D02*
X34418700Y-147921880D01*
X34371080Y-147969500D01*
X34418700Y-148017119D01*
X34466319Y-147969500D01*
X34371080Y-147969500D01*
X34132985Y-148445690D02*
X33466319Y-148445690D01*
X34037747Y-148445690D02*
X34085366Y-148493309D01*
X34132985Y-148588547D01*
X34132985Y-148731404D01*
X34085366Y-148826642D01*
X33990128Y-148874261D01*
X33466319Y-148874261D01*
X33466319Y-149779023D02*
X33990128Y-149779023D01*
X34085366Y-149731404D01*
X34132985Y-149636166D01*
X34132985Y-149445690D01*
X34085366Y-149350452D01*
X33513938Y-149779023D02*
X33466319Y-149683785D01*
X33466319Y-149445690D01*
X33513938Y-149350452D01*
X33609176Y-149302833D01*
X33704414Y-149302833D01*
X33799652Y-149350452D01*
X33847271Y-149445690D01*
X33847271Y-149683785D01*
X33894890Y-149779023D01*
X33466319Y-150255214D02*
X34132985Y-150255214D01*
X33942509Y-150255214D02*
X34037747Y-150302833D01*
X34085366Y-150350452D01*
X34132985Y-150445690D01*
X34132985Y-150540928D01*
X33466319Y-151636166D02*
X34466319Y-151636166D01*
X33990128Y-151636166D02*
X33990128Y-152207595D01*
X33466319Y-152207595D02*
X34466319Y-152207595D01*
X33466319Y-152826642D02*
X33513938Y-152731404D01*
X33561557Y-152683785D01*
X33656795Y-152636166D01*
X33942509Y-152636166D01*
X34037747Y-152683785D01*
X34085366Y-152731404D01*
X34132985Y-152826642D01*
X34132985Y-152969500D01*
X34085366Y-153064738D01*
X34037747Y-153112357D01*
X33942509Y-153159976D01*
X33656795Y-153159976D01*
X33561557Y-153112357D01*
X33513938Y-153064738D01*
X33466319Y-152969500D01*
X33466319Y-152826642D01*
X34132985Y-153493309D02*
X33466319Y-153731404D01*
X34132985Y-153969500D01*
X31816319Y-140707595D02*
X32816319Y-140707595D01*
X32102033Y-141040928D01*
X32816319Y-141374261D01*
X31816319Y-141374261D01*
X31816319Y-142279023D02*
X32340128Y-142279023D01*
X32435366Y-142231404D01*
X32482985Y-142136166D01*
X32482985Y-141945690D01*
X32435366Y-141850452D01*
X31863938Y-142279023D02*
X31816319Y-142183785D01*
X31816319Y-141945690D01*
X31863938Y-141850452D01*
X31959176Y-141802833D01*
X32054414Y-141802833D01*
X32149652Y-141850452D01*
X32197271Y-141945690D01*
X32197271Y-142183785D01*
X32244890Y-142279023D01*
X32482985Y-142612357D02*
X32482985Y-142993309D01*
X32816319Y-142755214D02*
X31959176Y-142755214D01*
X31863938Y-142802833D01*
X31816319Y-142898071D01*
X31816319Y-142993309D01*
X31816319Y-143326642D02*
X32816319Y-143326642D01*
X31816319Y-143755214D02*
X32340128Y-143755214D01*
X32435366Y-143707595D01*
X32482985Y-143612357D01*
X32482985Y-143469500D01*
X32435366Y-143374261D01*
X32387747Y-143326642D01*
X31816319Y-144231404D02*
X32482985Y-144231404D01*
X32816319Y-144231404D02*
X32768700Y-144183785D01*
X32721080Y-144231404D01*
X32768700Y-144279023D01*
X32816319Y-144231404D01*
X32721080Y-144231404D01*
X31816319Y-145136166D02*
X32340128Y-145136166D01*
X32435366Y-145088547D01*
X32482985Y-144993309D01*
X32482985Y-144802833D01*
X32435366Y-144707595D01*
X31863938Y-145136166D02*
X31816319Y-145040928D01*
X31816319Y-144802833D01*
X31863938Y-144707595D01*
X31959176Y-144659976D01*
X32054414Y-144659976D01*
X32149652Y-144707595D01*
X32197271Y-144802833D01*
X32197271Y-145040928D01*
X32244890Y-145136166D01*
X31863938Y-145564738D02*
X31816319Y-145659976D01*
X31816319Y-145850452D01*
X31863938Y-145945690D01*
X31959176Y-145993309D01*
X32006795Y-145993309D01*
X32102033Y-145945690D01*
X32149652Y-145850452D01*
X32149652Y-145707595D01*
X32197271Y-145612357D01*
X32292509Y-145564738D01*
X32340128Y-145564738D01*
X32435366Y-145612357D01*
X32482985Y-145707595D01*
X32482985Y-145850452D01*
X32435366Y-145945690D01*
X31816319Y-147659976D02*
X31816319Y-147183785D01*
X32816319Y-147183785D01*
X32482985Y-148421880D02*
X31816319Y-148421880D01*
X32482985Y-147993309D02*
X31959176Y-147993309D01*
X31863938Y-148040928D01*
X31816319Y-148136166D01*
X31816319Y-148279023D01*
X31863938Y-148374261D01*
X31911557Y-148421880D01*
X32482985Y-148898071D02*
X31816319Y-148898071D01*
X32387747Y-148898071D02*
X32435366Y-148945690D01*
X32482985Y-149040928D01*
X32482985Y-149183785D01*
X32435366Y-149279023D01*
X32340128Y-149326642D01*
X31816319Y-149326642D01*
X31816319Y-150231404D02*
X32816319Y-150231404D01*
X31863938Y-150231404D02*
X31816319Y-150136166D01*
X31816319Y-149945690D01*
X31863938Y-149850452D01*
X31911557Y-149802833D01*
X32006795Y-149755214D01*
X32292509Y-149755214D01*
X32387747Y-149802833D01*
X32435366Y-149850452D01*
X32482985Y-149945690D01*
X32482985Y-150136166D01*
X32435366Y-150231404D01*
X32482985Y-150564738D02*
X32482985Y-150945690D01*
X32816319Y-150707595D02*
X31959176Y-150707595D01*
X31863938Y-150755214D01*
X31816319Y-150850452D01*
X31816319Y-150945690D01*
X31863938Y-151659976D02*
X31816319Y-151564738D01*
X31816319Y-151374261D01*
X31863938Y-151279023D01*
X31959176Y-151231404D01*
X32340128Y-151231404D01*
X32435366Y-151279023D01*
X32482985Y-151374261D01*
X32482985Y-151564738D01*
X32435366Y-151659976D01*
X32340128Y-151707595D01*
X32244890Y-151707595D01*
X32149652Y-151231404D01*
X31816319Y-152136166D02*
X32482985Y-152136166D01*
X32816319Y-152136166D02*
X32768700Y-152088547D01*
X32721080Y-152136166D01*
X32768700Y-152183785D01*
X32816319Y-152136166D01*
X32721080Y-152136166D01*
X32482985Y-153040928D02*
X31673461Y-153040928D01*
X31578223Y-152993309D01*
X31530604Y-152945690D01*
X31482985Y-152850452D01*
X31482985Y-152707595D01*
X31530604Y-152612357D01*
X31863938Y-153040928D02*
X31816319Y-152945690D01*
X31816319Y-152755214D01*
X31863938Y-152659976D01*
X31911557Y-152612357D01*
X32006795Y-152564738D01*
X32292509Y-152564738D01*
X32387747Y-152612357D01*
X32435366Y-152659976D01*
X32482985Y-152755214D01*
X32482985Y-152945690D01*
X32435366Y-153040928D01*
X31863938Y-153898071D02*
X31816319Y-153802833D01*
X31816319Y-153612357D01*
X31863938Y-153517119D01*
X31959176Y-153469500D01*
X32340128Y-153469500D01*
X32435366Y-153517119D01*
X32482985Y-153612357D01*
X32482985Y-153802833D01*
X32435366Y-153898071D01*
X32340128Y-153945690D01*
X32244890Y-153945690D01*
X32149652Y-153469500D01*
X32482985Y-154374261D02*
X31816319Y-154374261D01*
X32387747Y-154374261D02*
X32435366Y-154421880D01*
X32482985Y-154517119D01*
X32482985Y-154659976D01*
X32435366Y-154755214D01*
X32340128Y-154802833D01*
X31816319Y-154802833D01*
X31816319Y-156040928D02*
X32816319Y-156040928D01*
X32102033Y-156374261D01*
X32816319Y-156707595D01*
X31816319Y-156707595D01*
X31816319Y-157326642D02*
X31863938Y-157231404D01*
X31911557Y-157183785D01*
X32006795Y-157136166D01*
X32292509Y-157136166D01*
X32387747Y-157183785D01*
X32435366Y-157231404D01*
X32482985Y-157326642D01*
X32482985Y-157469500D01*
X32435366Y-157564738D01*
X32387747Y-157612357D01*
X32292509Y-157659976D01*
X32006795Y-157659976D01*
X31911557Y-157612357D01*
X31863938Y-157564738D01*
X31816319Y-157469500D01*
X31816319Y-157326642D01*
X31816319Y-158088547D02*
X32816319Y-158088547D01*
X31816319Y-158517119D02*
X32340128Y-158517119D01*
X32435366Y-158469500D01*
X32482985Y-158374261D01*
X32482985Y-158231404D01*
X32435366Y-158136166D01*
X32387747Y-158088547D01*
X32482985Y-159421880D02*
X31816319Y-159421880D01*
X32482985Y-158993309D02*
X31959176Y-158993309D01*
X31863938Y-159040928D01*
X31816319Y-159136166D01*
X31816319Y-159279023D01*
X31863938Y-159374261D01*
X31911557Y-159421880D01*
X31863938Y-159850452D02*
X31816319Y-159945690D01*
X31816319Y-160136166D01*
X31863938Y-160231404D01*
X31959176Y-160279023D01*
X32006795Y-160279023D01*
X32102033Y-160231404D01*
X32149652Y-160136166D01*
X32149652Y-159993309D01*
X32197271Y-159898071D01*
X32292509Y-159850452D01*
X32340128Y-159850452D01*
X32435366Y-159898071D01*
X32482985Y-159993309D01*
X32482985Y-160136166D01*
X32435366Y-160231404D01*
X33994557Y-115005642D02*
X33899319Y-115291357D01*
X33804080Y-115386595D01*
X33613604Y-115481833D01*
X33327890Y-115481833D01*
X33137414Y-115386595D01*
X33042176Y-115291357D01*
X32946938Y-115100880D01*
X32946938Y-114338976D01*
X34946938Y-114338976D01*
X34946938Y-115005642D01*
X34851700Y-115196119D01*
X34756461Y-115291357D01*
X34565985Y-115386595D01*
X34375509Y-115386595D01*
X34185033Y-115291357D01*
X34089795Y-115196119D01*
X33994557Y-115005642D01*
X33994557Y-114338976D01*
X32946938Y-117481833D02*
X33899319Y-116815166D01*
X32946938Y-116338976D02*
X34946938Y-116338976D01*
X34946938Y-117100880D01*
X34851700Y-117291357D01*
X34756461Y-117386595D01*
X34565985Y-117481833D01*
X34280271Y-117481833D01*
X34089795Y-117386595D01*
X33994557Y-117291357D01*
X33899319Y-117100880D01*
X33899319Y-116338976D01*
X32946938Y-118338976D02*
X34946938Y-118338976D01*
X33137414Y-120434214D02*
X33042176Y-120338976D01*
X32946938Y-120053261D01*
X32946938Y-119862785D01*
X33042176Y-119577071D01*
X33232652Y-119386595D01*
X33423128Y-119291357D01*
X33804080Y-119196119D01*
X34089795Y-119196119D01*
X34470747Y-119291357D01*
X34661223Y-119386595D01*
X34851700Y-119577071D01*
X34946938Y-119862785D01*
X34946938Y-120053261D01*
X34851700Y-120338976D01*
X34756461Y-120434214D01*
X34946938Y-121672309D02*
X34946938Y-122053261D01*
X34851700Y-122243738D01*
X34661223Y-122434214D01*
X34280271Y-122529452D01*
X33613604Y-122529452D01*
X33232652Y-122434214D01*
X33042176Y-122243738D01*
X32946938Y-122053261D01*
X32946938Y-121672309D01*
X33042176Y-121481833D01*
X33232652Y-121291357D01*
X33613604Y-121196119D01*
X34280271Y-121196119D01*
X34661223Y-121291357D01*
X34851700Y-121481833D01*
X34946938Y-121672309D01*
X32946938Y-124338976D02*
X32946938Y-123386595D01*
X34946938Y-123386595D01*
X33994557Y-125005642D02*
X33994557Y-125672309D01*
X32946938Y-125958023D02*
X32946938Y-125005642D01*
X34946938Y-125005642D01*
X34946938Y-125958023D01*
X34946938Y-126815166D02*
X33327890Y-126815166D01*
X33137414Y-126910404D01*
X33042176Y-127005642D01*
X32946938Y-127196119D01*
X32946938Y-127577071D01*
X33042176Y-127767547D01*
X33137414Y-127862785D01*
X33327890Y-127958023D01*
X34946938Y-127958023D01*
X32946938Y-130053261D02*
X33899319Y-129386595D01*
X32946938Y-128910404D02*
X34946938Y-128910404D01*
X34946938Y-129672309D01*
X34851700Y-129862785D01*
X34756461Y-129958023D01*
X34565985Y-130053261D01*
X34280271Y-130053261D01*
X34089795Y-129958023D01*
X33994557Y-129862785D01*
X33899319Y-129672309D01*
X33899319Y-128910404D01*
X33343700Y-132689500D02*
X38423700Y-137769500D01*
X45408700Y-128244500D02*
X42868700Y-125704500D01*
X43503701Y-132689501D02*
G75*
G02X44773699Y-132689501I634999J-634999D01*
G01*
X37788701Y-140944499D02*
G75*
G02X37788701Y-138404501I1269999J1269999D01*
G01*
X42233700Y-135229500D02*
X42868700Y-135864500D01*
X43503700Y-136499500D02*
X42868700Y-135864500D01*
X37788700Y-130784500D02*
X42868700Y-125704500D01*
X42868700Y-135864500D02*
X37788700Y-140944500D01*
X44773700Y-137769500D02*
X44138700Y-137134500D01*
X40328700Y-143484500D02*
X39693700Y-142849500D01*
X45408699Y-128244501D02*
G75*
G02X45408699Y-130784499I-1269999J-1269999D01*
G01*
X34613700Y-131419500D02*
X39693700Y-136499500D01*
X37280700Y-129260500D02*
X41852700Y-133832500D01*
X40328700Y-135864500D02*
X35248700Y-130784500D01*
X39058700Y-126974500D02*
X44138700Y-132054500D01*
X44138700Y-137134500D02*
X39058700Y-142214500D01*
X32708700Y-133324500D02*
X35248700Y-130784500D01*
X37788700Y-130784500D02*
X40328700Y-133324500D01*
X40328700Y-135864500D02*
X37788700Y-138404500D01*
X42868700Y-135864500D02*
X45408700Y-138404500D01*
X37788700Y-128244500D02*
X42868700Y-133324500D01*
X35248700Y-138404500D02*
X32708700Y-135864500D01*
X44773700Y-127609500D02*
X39693700Y-132689500D01*
X44773699Y-136499499D02*
G75*
G02X43503701Y-136499499I-634999J634999D01*
G01*
X41852700Y-125196500D02*
X37280700Y-129768500D01*
X39058700Y-137134500D02*
X33978700Y-132054500D01*
X37788701Y-130784499D02*
G75*
G02X37788701Y-128244501I1269999J1269999D01*
G01*
X45916700Y-129260500D02*
X41344700Y-133832500D01*
X45408700Y-140944500D02*
X42868700Y-143484500D01*
X42868700Y-133324500D02*
X45408700Y-130784500D01*
X42868699Y-133324499D02*
G75*
G02X40328701Y-133324499I-1269999J1269999D01*
G01*
X44773700Y-131419500D02*
X39693700Y-126339500D01*
X39693700Y-142849500D02*
X44773700Y-137769500D01*
X46043700Y-135229500D02*
X44773700Y-136499500D01*
X37788700Y-140944500D02*
X40328700Y-143484500D01*
X39058700Y-142214500D02*
X38423700Y-141579500D01*
X46043699Y-133959501D02*
G75*
G02X46043699Y-135229499I-634999J-634999D01*
G01*
X41852700Y-135356500D02*
X37280700Y-139674500D01*
X41344700Y-125196500D02*
X45916700Y-129768500D01*
X38423700Y-141579500D02*
X43503700Y-136499500D01*
X45408700Y-138404500D02*
X40328700Y-143484500D01*
X40328700Y-133324500D02*
X45408700Y-128244500D01*
X44773700Y-132689500D02*
X46043700Y-133959500D01*
X43503700Y-132689500D02*
X38423700Y-127609500D01*
X36772700Y-138912500D02*
X32200700Y-134340500D01*
X36518700Y-130276500D02*
X40836700Y-134594500D01*
X39058700Y-132054500D02*
X44138700Y-126974500D01*
X43503700Y-126339500D02*
X38423700Y-131419500D01*
X32708701Y-135864499D02*
G75*
G02X32708701Y-133324501I1269999J1269999D01*
G01*
X40328700Y-125704500D02*
X45408700Y-130784500D01*
X40328701Y-125704501D02*
G75*
G02X42868699Y-125704501I1269999J-1269999D01*
G01*
X42868699Y-143484499D02*
G75*
G02X40328701Y-143484499I-1269999J1269999D01*
G01*
X45408699Y-138404501D02*
G75*
G02X45408699Y-140944499I-1269999J-1269999D01*
G01*
X35248701Y-130784501D02*
G75*
G02X37788699Y-130784501I1269999J-1269999D01*
G01*
X40328701Y-135864501D02*
G75*
G02X42868699Y-135864501I1269999J-1269999D01*
G01*
X37788699Y-138404499D02*
G75*
G02X35248701Y-138404499I-1269999J1269999D01*
G01*
X42233701Y-135229499D02*
G75*
G02X42233701Y-133959501I634999J634999D01*
G01*
X37788700Y-138404500D02*
X32708700Y-133324500D01*
X40328699Y-133324501D02*
G75*
G02X40328699Y-135864499I-1269999J-1269999D01*
G01*
X42233700Y-133959500D02*
X42868700Y-133324500D01*
X40328700Y-125704500D02*
X37788700Y-128244500D01*
X45916700Y-139420500D02*
X41344700Y-143992500D01*
X75253700Y-135229500D02*
X74618700Y-135864500D01*
X75253700Y-133959500D02*
X74618700Y-133324500D01*
X71443700Y-133959500D02*
X72713700Y-132689500D01*
X72713700Y-136499500D02*
X71443700Y-135229500D01*
X71443701Y-135229499D02*
G75*
G02X71443701Y-133959501I634999J634999D01*
G01*
X75253699Y-133959501D02*
G75*
G02X75253699Y-135229499I-634999J-634999D01*
G01*
X73983699Y-136499499D02*
G75*
G02X72713701Y-136499499I-634999J634999D01*
G01*
X72713701Y-132689501D02*
G75*
G02X73983699Y-132689501I634999J-634999D01*
G01*
X80206700Y-139928500D02*
X75634700Y-135356500D01*
X76142700Y-143992500D02*
X71570700Y-139420500D01*
X71570700Y-139928500D02*
X76142700Y-135356500D01*
X75634700Y-143992500D02*
X80206700Y-139420500D01*
X79698700Y-140944500D02*
X74618700Y-135864500D01*
X73983700Y-136499500D02*
X79063700Y-141579500D01*
X78428700Y-142214500D02*
X73348700Y-137134500D01*
X72713700Y-137769500D02*
X77793700Y-142849500D01*
X77158700Y-143484500D02*
X72078700Y-138404500D01*
X79698700Y-138404500D02*
X74618700Y-143484500D01*
X73983700Y-142849500D02*
X79063700Y-137769500D01*
X78428700Y-137134500D02*
X73348700Y-142214500D01*
X72713700Y-141579500D02*
X77793700Y-136499500D01*
X77158700Y-135864500D02*
X72078700Y-140944500D01*
X80968700Y-138912500D02*
X76650700Y-134594500D01*
X80714700Y-130276500D02*
X85286700Y-134848500D01*
X71570700Y-129768500D02*
X76142700Y-125196500D01*
X75634700Y-133832500D02*
X80206700Y-129514500D01*
X79698700Y-130784500D02*
X84778700Y-135864500D01*
X84143700Y-136499500D02*
X79063700Y-131419500D01*
X78428700Y-132054500D02*
X83508700Y-137134500D01*
X82873700Y-137769500D02*
X77793700Y-132689500D01*
X77158700Y-133324500D02*
X82238700Y-138404500D01*
X74618700Y-133324500D02*
X79698700Y-128244500D01*
X73983700Y-132689500D02*
X74618700Y-133324500D01*
X79063700Y-127609500D02*
X73983700Y-132689500D01*
X78428700Y-126974500D02*
X79063700Y-127609500D01*
X73348700Y-132054500D02*
X78428700Y-126974500D01*
X72713700Y-131419500D02*
X73348700Y-132054500D01*
X77793700Y-126339500D02*
X72713700Y-131419500D01*
X77158700Y-125704500D02*
X77793700Y-126339500D01*
X72078700Y-130784500D02*
X77158700Y-125704500D01*
X74618700Y-133324500D02*
X72078700Y-130784500D01*
X77158700Y-133324500D02*
X79698700Y-130784500D01*
X79698699Y-138404501D02*
G75*
G02X79698699Y-140944499I-1269999J-1269999D01*
G01*
X77158700Y-143484500D02*
X79698700Y-140944500D01*
X72078700Y-140944500D02*
X74618700Y-143484500D01*
X74618700Y-135864500D02*
X72078700Y-138404500D01*
X79698700Y-138404500D02*
X77158700Y-135864500D01*
X84778700Y-135864500D02*
X82238700Y-138404500D01*
X82238700Y-130784500D02*
X84778700Y-133324500D01*
X79698700Y-128244500D02*
X77158700Y-125704500D01*
X72078700Y-128244500D02*
X74618700Y-125704500D01*
X74618701Y-135864501D02*
G75*
G02X77158699Y-135864501I1269999J-1269999D01*
G01*
X72078701Y-140944499D02*
G75*
G02X72078701Y-138404501I1269999J1269999D01*
G01*
X77158699Y-143484499D02*
G75*
G02X74618701Y-143484499I-1269999J1269999D01*
G01*
X77158701Y-135864499D02*
G75*
G02X77158701Y-133324501I1269999J1269999D01*
G01*
X82238699Y-138404499D02*
G75*
G02X79698701Y-138404499I-1269999J1269999D01*
G01*
X84778699Y-133324501D02*
G75*
G02X84778699Y-135864499I-1269999J-1269999D01*
G01*
X79698701Y-130784501D02*
G75*
G02X82238699Y-130784501I1269999J-1269999D01*
G01*
X77158699Y-133324499D02*
G75*
G02X74618701Y-133324499I-1269999J1269999D01*
G01*
X79698699Y-128244501D02*
G75*
G02X79698699Y-130784499I-1269999J-1269999D01*
G01*
X72078701Y-130784499D02*
G75*
G02X72078701Y-128244501I1269999J1269999D01*
G01*
X74618701Y-125704501D02*
G75*
G02X77158699Y-125704501I1269999J-1269999D01*
G01*
X92970219Y-147000880D02*
X93160695Y-147000880D01*
X93255933Y-147048500D01*
X93351171Y-147143738D01*
X93398790Y-147334214D01*
X93398790Y-147667547D01*
X93351171Y-147858023D01*
X93255933Y-147953261D01*
X93160695Y-148000880D01*
X92970219Y-148000880D01*
X92874980Y-147953261D01*
X92779742Y-147858023D01*
X92732123Y-147667547D01*
X92732123Y-147334214D01*
X92779742Y-147143738D01*
X92874980Y-147048500D01*
X92970219Y-147000880D01*
X94160695Y-147477071D02*
X93827361Y-147477071D01*
X93827361Y-148000880D02*
X93827361Y-147000880D01*
X94303552Y-147000880D01*
X95017838Y-147477071D02*
X94684504Y-147477071D01*
X94684504Y-148000880D02*
X94684504Y-147000880D01*
X95160695Y-147000880D01*
X92692504Y-150032880D02*
X92692504Y-149032880D01*
X93073457Y-149032880D01*
X93168695Y-149080500D01*
X93216314Y-149128119D01*
X93263933Y-149223357D01*
X93263933Y-149366214D01*
X93216314Y-149461452D01*
X93168695Y-149509071D01*
X93073457Y-149556690D01*
X92692504Y-149556690D01*
X93882980Y-149556690D02*
X93882980Y-150032880D01*
X93549647Y-149032880D02*
X93882980Y-149556690D01*
X94216314Y-149032880D01*
X94549647Y-150032880D02*
X94549647Y-149032880D01*
X95121076Y-150032880D01*
X95121076Y-149032880D01*
X96263933Y-150128119D02*
X96168695Y-150080500D01*
X96073457Y-149985261D01*
X95930600Y-149842404D01*
X95835361Y-149794785D01*
X95740123Y-149794785D01*
X95787742Y-150032880D02*
X95692504Y-149985261D01*
X95597266Y-149890023D01*
X95549647Y-149699547D01*
X95549647Y-149366214D01*
X95597266Y-149175738D01*
X95692504Y-149080500D01*
X95787742Y-149032880D01*
X95978219Y-149032880D01*
X96073457Y-149080500D01*
X96168695Y-149175738D01*
X96216314Y-149366214D01*
X96216314Y-149699547D01*
X96168695Y-149890023D01*
X96073457Y-149985261D01*
X95978219Y-150032880D01*
X95787742Y-150032880D01*
X92660695Y-151064880D02*
X92660695Y-151874404D01*
X92708314Y-151969642D01*
X92755933Y-152017261D01*
X92851171Y-152064880D01*
X93041647Y-152064880D01*
X93136885Y-152017261D01*
X93184504Y-151969642D01*
X93232123Y-151874404D01*
X93232123Y-151064880D01*
X93660695Y-152017261D02*
X93803552Y-152064880D01*
X94041647Y-152064880D01*
X94136885Y-152017261D01*
X94184504Y-151969642D01*
X94232123Y-151874404D01*
X94232123Y-151779166D01*
X94184504Y-151683928D01*
X94136885Y-151636309D01*
X94041647Y-151588690D01*
X93851171Y-151541071D01*
X93755933Y-151493452D01*
X93708314Y-151445833D01*
X93660695Y-151350595D01*
X93660695Y-151255357D01*
X93708314Y-151160119D01*
X93755933Y-151112500D01*
X93851171Y-151064880D01*
X94089266Y-151064880D01*
X94232123Y-151112500D01*
X94994028Y-151541071D02*
X95136885Y-151588690D01*
X95184504Y-151636309D01*
X95232123Y-151731547D01*
X95232123Y-151874404D01*
X95184504Y-151969642D01*
X95136885Y-152017261D01*
X95041647Y-152064880D01*
X94660695Y-152064880D01*
X94660695Y-151064880D01*
X94994028Y-151064880D01*
X95089266Y-151112500D01*
X95136885Y-151160119D01*
X95184504Y-151255357D01*
X95184504Y-151350595D01*
X95136885Y-151445833D01*
X95089266Y-151493452D01*
X94994028Y-151541071D01*
X94660695Y-151541071D01*
G04 #@! TO.C,U11*
X90834600Y-151644500D02*
X89334600Y-151644500D01*
X90834600Y-150144500D02*
X90834600Y-151644500D01*
X89334600Y-150144500D02*
X90834600Y-150144500D01*
X89334600Y-151644500D02*
X89334600Y-150144500D01*
X91634600Y-144144500D02*
X91634600Y-157144500D01*
X88334600Y-144144500D02*
X91634600Y-144144500D01*
X88334600Y-157144500D02*
X88334600Y-144144500D01*
X88334600Y-157144500D02*
X91634600Y-157144500D01*
D11*
G04 #@! TO.C,D15*
X86304800Y-106352185D02*
X86304800Y-107282185D01*
X86304800Y-109512185D02*
X86304800Y-108582185D01*
X86304800Y-109512185D02*
X88464800Y-109512185D01*
X86304800Y-106352185D02*
X87764800Y-106352185D01*
G04 #@! TO.C,D16*
X96464800Y-106352185D02*
X96464800Y-107282185D01*
X96464800Y-109512185D02*
X96464800Y-108582185D01*
X96464800Y-109512185D02*
X98624800Y-109512185D01*
X96464800Y-106352185D02*
X97924800Y-106352185D01*
G04 #@! TO.C,D17*
X91414915Y-106352185D02*
X91414915Y-107282185D01*
X91414915Y-109512185D02*
X91414915Y-108582185D01*
X91414915Y-109512185D02*
X93574915Y-109512185D01*
X91414915Y-106352185D02*
X92874915Y-106352185D01*
G04 #@! TO.C,J3*
X99145700Y-119965500D02*
X83365700Y-119965500D01*
X83365700Y-119965500D02*
X83365700Y-110615500D01*
X83365700Y-110615500D02*
X99145700Y-110615500D01*
X99145700Y-110615500D02*
X99145700Y-119965500D01*
X99395700Y-110365500D02*
X96855700Y-110365500D01*
X99395700Y-110365500D02*
X99395700Y-112905500D01*
G04 #@! TO.C,U5*
X57754711Y-152644663D02*
X55214711Y-152644663D01*
X57754711Y-152644663D02*
X57754711Y-150104663D01*
X57504711Y-152394663D02*
X48154711Y-152394663D01*
X57504711Y-118834663D02*
X57504711Y-152394663D01*
X48154711Y-118834663D02*
X57504711Y-118834663D01*
X48154711Y-152394663D02*
X48154711Y-118834663D01*
G04 #@! TO.C,U6*
X70454711Y-152644663D02*
X67914711Y-152644663D01*
X70454711Y-152644663D02*
X70454711Y-150104663D01*
X70204711Y-152394663D02*
X60854711Y-152394663D01*
X70204711Y-118834663D02*
X70204711Y-152394663D01*
X60854711Y-118834663D02*
X70204711Y-118834663D01*
X60854711Y-152394663D02*
X60854711Y-118834663D01*
G04 #@! TO.C,D6*
X126639900Y-119444300D02*
X128099900Y-119444300D01*
X126639900Y-122604300D02*
X128799900Y-122604300D01*
X126639900Y-122604300D02*
X126639900Y-121674300D01*
X126639900Y-119444300D02*
X126639900Y-120374300D01*
G04 #@! TO.C,D4*
X134751900Y-119444300D02*
X136211900Y-119444300D01*
X134751900Y-122604300D02*
X136911900Y-122604300D01*
X134751900Y-122604300D02*
X134751900Y-121674300D01*
X134751900Y-119444300D02*
X134751900Y-120374300D01*
G04 #@! TO.C,U3*
X119193100Y-165959500D02*
X116653100Y-165959500D01*
X119193100Y-165959500D02*
X119193100Y-163419500D01*
X118943100Y-165709500D02*
X109593100Y-165709500D01*
X118943100Y-149929500D02*
X118943100Y-165709500D01*
X109593100Y-149929500D02*
X118943100Y-149929500D01*
X109593100Y-165709500D02*
X109593100Y-149929500D01*
D10*
G04 #@! TO.C,SW2*
X128195200Y-140789000D02*
X128195200Y-134589000D01*
X134395200Y-140789000D02*
X128195200Y-140789000D01*
X134395200Y-134589000D02*
X134395200Y-140789000D01*
X134395200Y-134589000D02*
X128195200Y-134589000D01*
D12*
G04 #@! TO.C,U7*
X104641500Y-139330601D02*
X104641500Y-139711601D01*
X104387500Y-139330601D02*
X104641500Y-139330601D01*
X104387500Y-139711601D02*
X104387500Y-139330601D01*
X104641500Y-139711601D02*
X104387500Y-139711601D01*
X104641500Y-134330601D02*
X104641500Y-134711601D01*
X104387500Y-134330601D02*
X104641500Y-134330601D01*
X104387500Y-134711601D02*
X104387500Y-134330601D01*
X104641500Y-134711601D02*
X104387500Y-134711601D01*
X104641500Y-129330600D02*
X104641500Y-129711600D01*
X104387500Y-129330600D02*
X104641500Y-129330600D01*
X104387500Y-129711600D02*
X104387500Y-129330600D01*
X104641500Y-129711600D02*
X104387500Y-129711600D01*
X109561599Y-124910500D02*
X109561599Y-124656500D01*
X109942599Y-124910500D02*
X109561599Y-124910500D01*
X109942599Y-124656500D02*
X109942599Y-124910500D01*
X109561599Y-124656500D02*
X109942599Y-124656500D01*
X114561600Y-124910500D02*
X114561600Y-124656500D01*
X114942600Y-124910500D02*
X114561600Y-124910500D01*
X114942600Y-124656500D02*
X114942600Y-124910500D01*
X114561600Y-124656500D02*
X114942600Y-124656500D01*
X121862700Y-127330599D02*
X121862700Y-127711599D01*
X122116700Y-127330599D02*
X121862700Y-127330599D01*
X122116700Y-127711599D02*
X122116700Y-127330599D01*
X121862700Y-127711599D02*
X122116700Y-127711599D01*
X121862700Y-132330599D02*
X121862700Y-132711599D01*
X122116700Y-132330599D02*
X121862700Y-132330599D01*
X122116700Y-132711599D02*
X122116700Y-132330599D01*
X121862700Y-132711599D02*
X122116700Y-132711599D01*
X121862700Y-137330600D02*
X121862700Y-137711600D01*
X122116700Y-137330600D02*
X121862700Y-137330600D01*
X122116700Y-137711600D02*
X122116700Y-137330600D01*
X121862700Y-137711600D02*
X122116700Y-137711600D01*
X116561601Y-142131700D02*
X116561601Y-142385700D01*
X116942601Y-142131700D02*
X116561601Y-142131700D01*
X116942601Y-142385700D02*
X116942601Y-142131700D01*
X116561601Y-142385700D02*
X116942601Y-142385700D01*
X111561600Y-142131700D02*
X111561600Y-142385700D01*
X111942600Y-142131700D02*
X111561600Y-142131700D01*
X111942600Y-142385700D02*
X111942600Y-142131700D01*
X111561600Y-142385700D02*
X111942600Y-142385700D01*
X106127400Y-139993541D02*
X106127400Y-140645800D01*
X106779659Y-126396400D02*
X106127400Y-126396400D01*
X120376800Y-127048659D02*
X120376800Y-126396400D01*
X119724541Y-140645800D02*
X120376800Y-140645800D01*
X106127400Y-140645800D02*
X106779659Y-140645800D01*
X106127400Y-126396400D02*
X106127400Y-127048659D01*
X120376800Y-126396400D02*
X119724541Y-126396400D01*
X120376800Y-140645800D02*
X120376800Y-139993541D01*
D11*
G04 #@! TO.C,C2*
X109468600Y-121889922D02*
X109468600Y-122407078D01*
X110888600Y-121889922D02*
X110888600Y-122407078D01*
G04 #@! TO.C,TP1*
X83254600Y-154974500D02*
X81924600Y-154974500D01*
X81924600Y-154974500D02*
X81924600Y-153644500D01*
X81924600Y-152374500D02*
X81924600Y-149774500D01*
X84584600Y-149774500D02*
X81924600Y-149774500D01*
X84584600Y-152374500D02*
X84584600Y-149774500D01*
X84584600Y-152374500D02*
X81924600Y-152374500D01*
G04 #@! TO.C,J1*
X109273600Y-105703500D02*
X109273600Y-107253500D01*
X109273600Y-105703500D02*
X108973600Y-105703500D01*
X108973600Y-102903500D02*
X108973600Y-105703500D01*
X100973600Y-105703500D02*
X100973600Y-107253500D01*
X101273600Y-105703500D02*
X100973600Y-105703500D01*
X101273600Y-102903500D02*
X101273600Y-105703500D01*
X106023600Y-108953500D02*
X106423600Y-108503500D01*
X106823600Y-108953500D02*
X106023600Y-108953500D01*
X106423600Y-108503500D02*
X106823600Y-108953500D01*
G04 #@! TO.C,U8*
X90801100Y-124746100D02*
X93341100Y-124746100D01*
X90801100Y-124746100D02*
X90801100Y-127286100D01*
X91051100Y-124996100D02*
X100401100Y-124996100D01*
X91051100Y-140776100D02*
X91051100Y-124996100D01*
X100401100Y-140776100D02*
X91051100Y-140776100D01*
X100401100Y-124996100D02*
X100401100Y-140776100D01*
G04 #@! TO.C,U4*
X128991100Y-166213500D02*
X126451100Y-166213500D01*
X128991100Y-166213500D02*
X128991100Y-163673500D01*
X128741100Y-165963500D02*
X119391100Y-165963500D01*
X128741100Y-150183500D02*
X128741100Y-165963500D01*
X119391100Y-150183500D02*
X128741100Y-150183500D01*
X119391100Y-165963500D02*
X119391100Y-150183500D01*
G04 #@! TO.C,D18*
X143088265Y-156175315D02*
X141628265Y-156175315D01*
X143088265Y-153015315D02*
X140928265Y-153015315D01*
X143088265Y-153015315D02*
X143088265Y-153945315D01*
X143088265Y-156175315D02*
X143088265Y-155245315D01*
G04 #@! TO.C,D19*
X134452265Y-156176825D02*
X132992265Y-156176825D01*
X134452265Y-153016825D02*
X132292265Y-153016825D01*
X134452265Y-153016825D02*
X134452265Y-153946825D01*
X134452265Y-156176825D02*
X134452265Y-155246825D01*
G04 #@! TO.C,D20*
X138766535Y-156192825D02*
X137306535Y-156192825D01*
X138766535Y-153032825D02*
X136606535Y-153032825D01*
X138766535Y-153032825D02*
X138766535Y-153962825D01*
X138766535Y-156192825D02*
X138766535Y-155262825D01*
G04 #@! TO.C,J4*
X129228750Y-166299510D02*
X129228750Y-163759510D01*
X129228750Y-166299510D02*
X131768750Y-166299510D01*
X129478750Y-166049510D02*
X129478750Y-156699510D01*
X145258750Y-166049510D02*
X129478750Y-166049510D01*
X145258750Y-156699510D02*
X145258750Y-166049510D01*
X129478750Y-156699510D02*
X145258750Y-156699510D01*
G04 #@! TO.C,U1*
X109433100Y-165832500D02*
X106893100Y-165832500D01*
X109433100Y-165832500D02*
X109433100Y-163292500D01*
X109183100Y-165582500D02*
X99833100Y-165582500D01*
X109183100Y-149802500D02*
X109183100Y-165582500D01*
X99833100Y-149802500D02*
X109183100Y-149802500D01*
X99833100Y-165582500D02*
X99833100Y-149802500D01*
G04 #@! TO.C,J2*
X111182600Y-117675500D02*
X111182600Y-115135500D01*
X111182600Y-117675500D02*
X113722600Y-117675500D01*
X111432600Y-117425500D02*
X111432600Y-108075500D01*
X144992600Y-117425500D02*
X111432600Y-117425500D01*
X144992600Y-108075500D02*
X144992600Y-117425500D01*
X111432600Y-108075500D02*
X144992600Y-108075500D01*
G04 #@! TO.C,D11*
X103182100Y-147784500D02*
X103182100Y-146324500D01*
X106342100Y-147784500D02*
X106342100Y-145624500D01*
X106342100Y-147784500D02*
X105412100Y-147784500D01*
X103182100Y-147784500D02*
X104112100Y-147784500D01*
G04 #@! TO.C,D12*
X112879885Y-147911500D02*
X112879885Y-146451500D01*
X116039885Y-147911500D02*
X116039885Y-145751500D01*
X116039885Y-147911500D02*
X115109885Y-147911500D01*
X112879885Y-147911500D02*
X113809885Y-147911500D01*
G04 #@! TO.C,D13*
X122613100Y-148165500D02*
X122613100Y-146705500D01*
X125773100Y-148165500D02*
X125773100Y-146005500D01*
X125773100Y-148165500D02*
X124843100Y-148165500D01*
X122613100Y-148165500D02*
X123543100Y-148165500D01*
G04 #@! TO.C,D14*
X103105585Y-142674295D02*
X101645585Y-142674295D01*
X103105585Y-139514295D02*
X100945585Y-139514295D01*
X103105585Y-139514295D02*
X103105585Y-140444295D01*
X103105585Y-142674295D02*
X103105585Y-141744295D01*
G04 #@! TO.C,D7*
X130719900Y-119378300D02*
X132179900Y-119378300D01*
X130719900Y-122538300D02*
X132879900Y-122538300D01*
X130719900Y-122538300D02*
X130719900Y-121608300D01*
X130719900Y-119378300D02*
X130719900Y-120308300D01*
G04 #@! TO.C,D9*
X89940100Y-131110100D02*
X89940100Y-132570100D01*
X86780100Y-131110100D02*
X86780100Y-133270100D01*
X86780100Y-131110100D02*
X87710100Y-131110100D01*
X89940100Y-131110100D02*
X89010100Y-131110100D01*
G04 #@! TO.C,D8*
X89940100Y-135174100D02*
X89940100Y-136634100D01*
X86780100Y-135174100D02*
X86780100Y-137334100D01*
X86780100Y-135174100D02*
X87710100Y-135174100D01*
X89940100Y-135174100D02*
X89010100Y-135174100D01*
G04 #@! TO.C,D10*
X89940100Y-127046100D02*
X89940100Y-128506100D01*
X86780100Y-127046100D02*
X86780100Y-129206100D01*
X86780100Y-127046100D02*
X87710100Y-127046100D01*
X89940100Y-127046100D02*
X89010100Y-127046100D01*
G04 #@! TO.C,D5*
X123099900Y-119444300D02*
X124559900Y-119444300D01*
X123099900Y-122604300D02*
X125259900Y-122604300D01*
X123099900Y-122604300D02*
X123099900Y-121674300D01*
X123099900Y-119444300D02*
X123099900Y-120374300D01*
G04 #@! TO.C,C4*
X116202264Y-123535815D02*
X115876706Y-123535815D01*
X116202264Y-124555815D02*
X115876706Y-124555815D01*
D13*
G04 #@! TO.C,D1*
X113803485Y-120264815D02*
G75*
G03X113803485Y-120264815I-50000J0D01*
G01*
G04 #@! TO.C,D2*
X112787485Y-120264815D02*
G75*
G03X112787485Y-120264815I-50000J0D01*
G01*
G04 #@! TO.C,D3*
X111771485Y-120264815D02*
G75*
G03X111771485Y-120264815I-50000J0D01*
G01*
D10*
G04 #@! TO.C,SW3*
X153673100Y-156652100D02*
X147473100Y-156652100D01*
X153673100Y-150452100D02*
X153673100Y-156652100D01*
X147473100Y-150452100D02*
X153673100Y-150452100D01*
X147473100Y-150452100D02*
X147473100Y-156652100D01*
G04 #@! TO.C,SW4*
X153546100Y-140269100D02*
X147346100Y-140269100D01*
X153546100Y-134069100D02*
X153546100Y-140269100D01*
X147346100Y-134069100D02*
X153546100Y-134069100D01*
X147346100Y-134069100D02*
X147346100Y-140269100D01*
G04 #@! TO.C,SW5*
X153546100Y-123759100D02*
X147346100Y-123759100D01*
X153546100Y-117559100D02*
X153546100Y-123759100D01*
X147346100Y-117559100D02*
X153546100Y-117559100D01*
X147346100Y-117559100D02*
X147346100Y-123759100D01*
G04 #@! TO.C,U11*
X86262980Y-151834595D02*
X87072504Y-151834595D01*
X87167742Y-151786976D01*
X87215361Y-151739357D01*
X87262980Y-151644119D01*
X87262980Y-151453642D01*
X87215361Y-151358404D01*
X87167742Y-151310785D01*
X87072504Y-151263166D01*
X86262980Y-151263166D01*
X87262980Y-150263166D02*
X87262980Y-150834595D01*
X87262980Y-150548880D02*
X86262980Y-150548880D01*
X86405838Y-150644119D01*
X86501076Y-150739357D01*
X86548695Y-150834595D01*
X87262980Y-149310785D02*
X87262980Y-149882214D01*
X87262980Y-149596500D02*
X86262980Y-149596500D01*
X86405838Y-149691738D01*
X86501076Y-149786976D01*
X86548695Y-149882214D01*
G04 #@! TO.C,D15*
X85850514Y-110884565D02*
X85850514Y-109884565D01*
X86088609Y-109884565D01*
X86231466Y-109932185D01*
X86326704Y-110027423D01*
X86374323Y-110122661D01*
X86421942Y-110313137D01*
X86421942Y-110455994D01*
X86374323Y-110646470D01*
X86326704Y-110741708D01*
X86231466Y-110836946D01*
X86088609Y-110884565D01*
X85850514Y-110884565D01*
X87374323Y-110884565D02*
X86802895Y-110884565D01*
X87088609Y-110884565D02*
X87088609Y-109884565D01*
X86993371Y-110027423D01*
X86898133Y-110122661D01*
X86802895Y-110170280D01*
X88279085Y-109884565D02*
X87802895Y-109884565D01*
X87755276Y-110360756D01*
X87802895Y-110313137D01*
X87898133Y-110265518D01*
X88136228Y-110265518D01*
X88231466Y-110313137D01*
X88279085Y-110360756D01*
X88326704Y-110455994D01*
X88326704Y-110694089D01*
X88279085Y-110789327D01*
X88231466Y-110836946D01*
X88136228Y-110884565D01*
X87898133Y-110884565D01*
X87802895Y-110836946D01*
X87755276Y-110789327D01*
G04 #@! TO.C,D16*
X96010514Y-110884565D02*
X96010514Y-109884565D01*
X96248609Y-109884565D01*
X96391466Y-109932185D01*
X96486704Y-110027423D01*
X96534323Y-110122661D01*
X96581942Y-110313137D01*
X96581942Y-110455994D01*
X96534323Y-110646470D01*
X96486704Y-110741708D01*
X96391466Y-110836946D01*
X96248609Y-110884565D01*
X96010514Y-110884565D01*
X97534323Y-110884565D02*
X96962895Y-110884565D01*
X97248609Y-110884565D02*
X97248609Y-109884565D01*
X97153371Y-110027423D01*
X97058133Y-110122661D01*
X96962895Y-110170280D01*
X98391466Y-109884565D02*
X98200990Y-109884565D01*
X98105752Y-109932185D01*
X98058133Y-109979804D01*
X97962895Y-110122661D01*
X97915276Y-110313137D01*
X97915276Y-110694089D01*
X97962895Y-110789327D01*
X98010514Y-110836946D01*
X98105752Y-110884565D01*
X98296228Y-110884565D01*
X98391466Y-110836946D01*
X98439085Y-110789327D01*
X98486704Y-110694089D01*
X98486704Y-110455994D01*
X98439085Y-110360756D01*
X98391466Y-110313137D01*
X98296228Y-110265518D01*
X98105752Y-110265518D01*
X98010514Y-110313137D01*
X97962895Y-110360756D01*
X97915276Y-110455994D01*
G04 #@! TO.C,D17*
X90960629Y-110884565D02*
X90960629Y-109884565D01*
X91198724Y-109884565D01*
X91341581Y-109932185D01*
X91436819Y-110027423D01*
X91484438Y-110122661D01*
X91532057Y-110313137D01*
X91532057Y-110455994D01*
X91484438Y-110646470D01*
X91436819Y-110741708D01*
X91341581Y-110836946D01*
X91198724Y-110884565D01*
X90960629Y-110884565D01*
X92484438Y-110884565D02*
X91913010Y-110884565D01*
X92198724Y-110884565D02*
X92198724Y-109884565D01*
X92103486Y-110027423D01*
X92008248Y-110122661D01*
X91913010Y-110170280D01*
X92817772Y-109884565D02*
X93484438Y-109884565D01*
X93055867Y-110884565D01*
G04 #@! TO.C,J3*
X99852080Y-115623833D02*
X100566366Y-115623833D01*
X100709223Y-115671452D01*
X100804461Y-115766690D01*
X100852080Y-115909547D01*
X100852080Y-116004785D01*
X99852080Y-115242880D02*
X99852080Y-114623833D01*
X100233033Y-114957166D01*
X100233033Y-114814309D01*
X100280652Y-114719071D01*
X100328271Y-114671452D01*
X100423509Y-114623833D01*
X100661604Y-114623833D01*
X100756842Y-114671452D01*
X100804461Y-114719071D01*
X100852080Y-114814309D01*
X100852080Y-115100023D01*
X100804461Y-115195261D01*
X100756842Y-115242880D01*
G04 #@! TO.C,U2*
X49108027Y-136049019D02*
X49917551Y-136049019D01*
X50012789Y-136001400D01*
X50060408Y-135953781D01*
X50108027Y-135858543D01*
X50108027Y-135668067D01*
X50060408Y-135572829D01*
X50012789Y-135525210D01*
X49917551Y-135477591D01*
X49108027Y-135477591D01*
X49203266Y-135049019D02*
X49155647Y-135001400D01*
X49108027Y-134906162D01*
X49108027Y-134668067D01*
X49155647Y-134572829D01*
X49203266Y-134525210D01*
X49298504Y-134477591D01*
X49393742Y-134477591D01*
X49536599Y-134525210D01*
X50108027Y-135096638D01*
X50108027Y-134477591D01*
G04 #@! TO.C,U5*
X52067806Y-153101043D02*
X52067806Y-153910567D01*
X52115425Y-154005805D01*
X52163044Y-154053424D01*
X52258282Y-154101043D01*
X52448758Y-154101043D01*
X52543996Y-154053424D01*
X52591615Y-154005805D01*
X52639234Y-153910567D01*
X52639234Y-153101043D01*
X53591615Y-153101043D02*
X53115425Y-153101043D01*
X53067806Y-153577234D01*
X53115425Y-153529615D01*
X53210663Y-153481996D01*
X53448758Y-153481996D01*
X53543996Y-153529615D01*
X53591615Y-153577234D01*
X53639234Y-153672472D01*
X53639234Y-153910567D01*
X53591615Y-154005805D01*
X53543996Y-154053424D01*
X53448758Y-154101043D01*
X53210663Y-154101043D01*
X53115425Y-154053424D01*
X53067806Y-154005805D01*
G04 #@! TO.C,U6*
X64767806Y-153101043D02*
X64767806Y-153910567D01*
X64815425Y-154005805D01*
X64863044Y-154053424D01*
X64958282Y-154101043D01*
X65148758Y-154101043D01*
X65243996Y-154053424D01*
X65291615Y-154005805D01*
X65339234Y-153910567D01*
X65339234Y-153101043D01*
X66243996Y-153101043D02*
X66053520Y-153101043D01*
X65958282Y-153148663D01*
X65910663Y-153196282D01*
X65815425Y-153339139D01*
X65767806Y-153529615D01*
X65767806Y-153910567D01*
X65815425Y-154005805D01*
X65863044Y-154053424D01*
X65958282Y-154101043D01*
X66148758Y-154101043D01*
X66243996Y-154053424D01*
X66291615Y-154005805D01*
X66339234Y-153910567D01*
X66339234Y-153672472D01*
X66291615Y-153577234D01*
X66243996Y-153529615D01*
X66148758Y-153481996D01*
X65958282Y-153481996D01*
X65863044Y-153529615D01*
X65815425Y-153577234D01*
X65767806Y-153672472D01*
G04 #@! TO.C,D6*
X126661804Y-118936680D02*
X126661804Y-117936680D01*
X126899900Y-117936680D01*
X127042757Y-117984300D01*
X127137995Y-118079538D01*
X127185614Y-118174776D01*
X127233233Y-118365252D01*
X127233233Y-118508109D01*
X127185614Y-118698585D01*
X127137995Y-118793823D01*
X127042757Y-118889061D01*
X126899900Y-118936680D01*
X126661804Y-118936680D01*
X128090376Y-117936680D02*
X127899900Y-117936680D01*
X127804661Y-117984300D01*
X127757042Y-118031919D01*
X127661804Y-118174776D01*
X127614185Y-118365252D01*
X127614185Y-118746204D01*
X127661804Y-118841442D01*
X127709423Y-118889061D01*
X127804661Y-118936680D01*
X127995138Y-118936680D01*
X128090376Y-118889061D01*
X128137995Y-118841442D01*
X128185614Y-118746204D01*
X128185614Y-118508109D01*
X128137995Y-118412871D01*
X128090376Y-118365252D01*
X127995138Y-118317633D01*
X127804661Y-118317633D01*
X127709423Y-118365252D01*
X127661804Y-118412871D01*
X127614185Y-118508109D01*
G04 #@! TO.C,D4*
X134773804Y-118936680D02*
X134773804Y-117936680D01*
X135011900Y-117936680D01*
X135154757Y-117984300D01*
X135249995Y-118079538D01*
X135297614Y-118174776D01*
X135345233Y-118365252D01*
X135345233Y-118508109D01*
X135297614Y-118698585D01*
X135249995Y-118793823D01*
X135154757Y-118889061D01*
X135011900Y-118936680D01*
X134773804Y-118936680D01*
X136202376Y-118270014D02*
X136202376Y-118936680D01*
X135964280Y-117889061D02*
X135726185Y-118603347D01*
X136345233Y-118603347D01*
G04 #@! TO.C,R14*
X136967742Y-106213880D02*
X136634409Y-105737690D01*
X136396314Y-106213880D02*
X136396314Y-105213880D01*
X136777266Y-105213880D01*
X136872504Y-105261500D01*
X136920123Y-105309119D01*
X136967742Y-105404357D01*
X136967742Y-105547214D01*
X136920123Y-105642452D01*
X136872504Y-105690071D01*
X136777266Y-105737690D01*
X136396314Y-105737690D01*
X137920123Y-106213880D02*
X137348695Y-106213880D01*
X137634409Y-106213880D02*
X137634409Y-105213880D01*
X137539171Y-105356738D01*
X137443933Y-105451976D01*
X137348695Y-105499595D01*
X138777266Y-105547214D02*
X138777266Y-106213880D01*
X138539171Y-105166261D02*
X138301076Y-105880547D01*
X138920123Y-105880547D01*
G04 #@! TO.C,R15*
X140015742Y-108553880D02*
X139682409Y-108077690D01*
X139444314Y-108553880D02*
X139444314Y-107553880D01*
X139825266Y-107553880D01*
X139920504Y-107601500D01*
X139968123Y-107649119D01*
X140015742Y-107744357D01*
X140015742Y-107887214D01*
X139968123Y-107982452D01*
X139920504Y-108030071D01*
X139825266Y-108077690D01*
X139444314Y-108077690D01*
X140968123Y-108553880D02*
X140396695Y-108553880D01*
X140682409Y-108553880D02*
X140682409Y-107553880D01*
X140587171Y-107696738D01*
X140491933Y-107791976D01*
X140396695Y-107839595D01*
X141872885Y-107553880D02*
X141396695Y-107553880D01*
X141349076Y-108030071D01*
X141396695Y-107982452D01*
X141491933Y-107934833D01*
X141730028Y-107934833D01*
X141825266Y-107982452D01*
X141872885Y-108030071D01*
X141920504Y-108125309D01*
X141920504Y-108363404D01*
X141872885Y-108458642D01*
X141825266Y-108506261D01*
X141730028Y-108553880D01*
X141491933Y-108553880D01*
X141396695Y-108506261D01*
X141349076Y-108458642D01*
G04 #@! TO.C,U3*
X113506195Y-166415880D02*
X113506195Y-167225404D01*
X113553814Y-167320642D01*
X113601433Y-167368261D01*
X113696671Y-167415880D01*
X113887147Y-167415880D01*
X113982385Y-167368261D01*
X114030004Y-167320642D01*
X114077623Y-167225404D01*
X114077623Y-166415880D01*
X114458576Y-166415880D02*
X115077623Y-166415880D01*
X114744290Y-166796833D01*
X114887147Y-166796833D01*
X114982385Y-166844452D01*
X115030004Y-166892071D01*
X115077623Y-166987309D01*
X115077623Y-167225404D01*
X115030004Y-167320642D01*
X114982385Y-167368261D01*
X114887147Y-167415880D01*
X114601433Y-167415880D01*
X114506195Y-167368261D01*
X114458576Y-167320642D01*
G04 #@! TO.C,SW2*
X125211866Y-134573761D02*
X125354723Y-134621380D01*
X125592819Y-134621380D01*
X125688057Y-134573761D01*
X125735676Y-134526142D01*
X125783295Y-134430904D01*
X125783295Y-134335666D01*
X125735676Y-134240428D01*
X125688057Y-134192809D01*
X125592819Y-134145190D01*
X125402342Y-134097571D01*
X125307104Y-134049952D01*
X125259485Y-134002333D01*
X125211866Y-133907095D01*
X125211866Y-133811857D01*
X125259485Y-133716619D01*
X125307104Y-133669000D01*
X125402342Y-133621380D01*
X125640438Y-133621380D01*
X125783295Y-133669000D01*
X126116628Y-133621380D02*
X126354723Y-134621380D01*
X126545200Y-133907095D01*
X126735676Y-134621380D01*
X126973771Y-133621380D01*
X127307104Y-133716619D02*
X127354723Y-133669000D01*
X127449961Y-133621380D01*
X127688057Y-133621380D01*
X127783295Y-133669000D01*
X127830914Y-133716619D01*
X127878533Y-133811857D01*
X127878533Y-133907095D01*
X127830914Y-134049952D01*
X127259485Y-134621380D01*
X127878533Y-134621380D01*
G04 #@! TO.C,R1*
X135368980Y-132960166D02*
X134892790Y-133293500D01*
X135368980Y-133531595D02*
X134368980Y-133531595D01*
X134368980Y-133150642D01*
X134416600Y-133055404D01*
X134464219Y-133007785D01*
X134559457Y-132960166D01*
X134702314Y-132960166D01*
X134797552Y-133007785D01*
X134845171Y-133055404D01*
X134892790Y-133150642D01*
X134892790Y-133531595D01*
X135368980Y-132007785D02*
X135368980Y-132579214D01*
X135368980Y-132293500D02*
X134368980Y-132293500D01*
X134511838Y-132388738D01*
X134607076Y-132483976D01*
X134654695Y-132579214D01*
G04 #@! TO.C,U7*
X112704480Y-134283004D02*
X113514004Y-134283004D01*
X113609242Y-134235385D01*
X113656861Y-134187766D01*
X113704480Y-134092528D01*
X113704480Y-133902052D01*
X113656861Y-133806814D01*
X113609242Y-133759195D01*
X113514004Y-133711576D01*
X112704480Y-133711576D01*
X112704480Y-133330623D02*
X112704480Y-132663957D01*
X113704480Y-133092528D01*
X111415371Y-138116338D02*
X111415371Y-137783004D01*
X111939180Y-137640147D02*
X111939180Y-138116338D01*
X110939180Y-138116338D01*
X110939180Y-137640147D01*
X111415371Y-136878242D02*
X111415371Y-137211576D01*
X111939180Y-137211576D02*
X110939180Y-137211576D01*
X110939180Y-136735385D01*
X111939180Y-136354433D02*
X110939180Y-136354433D01*
X111653466Y-136021100D01*
X110939180Y-135687766D01*
X111939180Y-135687766D01*
X110939180Y-135306814D02*
X110939180Y-134687766D01*
X111320133Y-135021100D01*
X111320133Y-134878242D01*
X111367752Y-134783004D01*
X111415371Y-134735385D01*
X111510609Y-134687766D01*
X111748704Y-134687766D01*
X111843942Y-134735385D01*
X111891561Y-134783004D01*
X111939180Y-134878242D01*
X111939180Y-135163957D01*
X111891561Y-135259195D01*
X111843942Y-135306814D01*
X111034419Y-134306814D02*
X110986800Y-134259195D01*
X110939180Y-134163957D01*
X110939180Y-133925861D01*
X110986800Y-133830623D01*
X111034419Y-133783004D01*
X111129657Y-133735385D01*
X111224895Y-133735385D01*
X111367752Y-133783004D01*
X111939180Y-134354433D01*
X111939180Y-133735385D01*
X110986800Y-132783004D02*
X110939180Y-132878242D01*
X110939180Y-133021100D01*
X110986800Y-133163957D01*
X111082038Y-133259195D01*
X111177276Y-133306814D01*
X111367752Y-133354433D01*
X111510609Y-133354433D01*
X111701085Y-133306814D01*
X111796323Y-133259195D01*
X111891561Y-133163957D01*
X111939180Y-133021100D01*
X111939180Y-132925861D01*
X111891561Y-132783004D01*
X111843942Y-132735385D01*
X111510609Y-132735385D01*
X111510609Y-132925861D01*
X110986800Y-131783004D02*
X110939180Y-131878242D01*
X110939180Y-132021100D01*
X110986800Y-132163957D01*
X111082038Y-132259195D01*
X111177276Y-132306814D01*
X111367752Y-132354433D01*
X111510609Y-132354433D01*
X111701085Y-132306814D01*
X111796323Y-132259195D01*
X111891561Y-132163957D01*
X111939180Y-132021100D01*
X111939180Y-131925861D01*
X111891561Y-131783004D01*
X111843942Y-131735385D01*
X111510609Y-131735385D01*
X111510609Y-131925861D01*
X111939180Y-131259195D02*
X111939180Y-131068719D01*
X111891561Y-130973480D01*
X111843942Y-130925861D01*
X111701085Y-130830623D01*
X111510609Y-130783004D01*
X111129657Y-130783004D01*
X111034419Y-130830623D01*
X110986800Y-130878242D01*
X110939180Y-130973480D01*
X110939180Y-131163957D01*
X110986800Y-131259195D01*
X111034419Y-131306814D01*
X111129657Y-131354433D01*
X111367752Y-131354433D01*
X111462990Y-131306814D01*
X111510609Y-131259195D01*
X111558228Y-131163957D01*
X111558228Y-130973480D01*
X111510609Y-130878242D01*
X111462990Y-130830623D01*
X111367752Y-130783004D01*
X111367752Y-130211576D02*
X111320133Y-130306814D01*
X111272514Y-130354433D01*
X111177276Y-130402052D01*
X111129657Y-130402052D01*
X111034419Y-130354433D01*
X110986800Y-130306814D01*
X110939180Y-130211576D01*
X110939180Y-130021100D01*
X110986800Y-129925861D01*
X111034419Y-129878242D01*
X111129657Y-129830623D01*
X111177276Y-129830623D01*
X111272514Y-129878242D01*
X111320133Y-129925861D01*
X111367752Y-130021100D01*
X111367752Y-130211576D01*
X111415371Y-130306814D01*
X111462990Y-130354433D01*
X111558228Y-130402052D01*
X111748704Y-130402052D01*
X111843942Y-130354433D01*
X111891561Y-130306814D01*
X111939180Y-130211576D01*
X111939180Y-130021100D01*
X111891561Y-129925861D01*
X111843942Y-129878242D01*
X111748704Y-129830623D01*
X111558228Y-129830623D01*
X111462990Y-129878242D01*
X111415371Y-129925861D01*
X111367752Y-130021100D01*
X110939180Y-129211576D02*
X110939180Y-129116338D01*
X110986800Y-129021100D01*
X111034419Y-128973480D01*
X111129657Y-128925861D01*
X111320133Y-128878242D01*
X111558228Y-128878242D01*
X111748704Y-128925861D01*
X111843942Y-128973480D01*
X111891561Y-129021100D01*
X111939180Y-129116338D01*
X111939180Y-129211576D01*
X111891561Y-129306814D01*
X111843942Y-129354433D01*
X111748704Y-129402052D01*
X111558228Y-129449671D01*
X111320133Y-129449671D01*
X111129657Y-129402052D01*
X111034419Y-129354433D01*
X110986800Y-129306814D01*
X110939180Y-129211576D01*
X106073480Y-142512700D02*
X106311576Y-142512700D01*
X106216338Y-142750795D02*
X106311576Y-142512700D01*
X106216338Y-142274604D01*
X106502052Y-142655557D02*
X106311576Y-142512700D01*
X106502052Y-142369842D01*
G04 #@! TO.C,C2*
X110535742Y-119267166D02*
X110583361Y-119314785D01*
X110630980Y-119457642D01*
X110630980Y-119552880D01*
X110583361Y-119695738D01*
X110488123Y-119790976D01*
X110392885Y-119838595D01*
X110202409Y-119886214D01*
X110059552Y-119886214D01*
X109869076Y-119838595D01*
X109773838Y-119790976D01*
X109678600Y-119695738D01*
X109630980Y-119552880D01*
X109630980Y-119457642D01*
X109678600Y-119314785D01*
X109726219Y-119267166D01*
X109726219Y-118886214D02*
X109678600Y-118838595D01*
X109630980Y-118743357D01*
X109630980Y-118505261D01*
X109678600Y-118410023D01*
X109726219Y-118362404D01*
X109821457Y-118314785D01*
X109916695Y-118314785D01*
X110059552Y-118362404D01*
X110630980Y-118933833D01*
X110630980Y-118314785D01*
G04 #@! TO.C,TP1*
X81992695Y-155866880D02*
X82564123Y-155866880D01*
X82278409Y-156866880D02*
X82278409Y-155866880D01*
X82897457Y-156866880D02*
X82897457Y-155866880D01*
X83278409Y-155866880D01*
X83373647Y-155914500D01*
X83421266Y-155962119D01*
X83468885Y-156057357D01*
X83468885Y-156200214D01*
X83421266Y-156295452D01*
X83373647Y-156343071D01*
X83278409Y-156390690D01*
X82897457Y-156390690D01*
X84421266Y-156866880D02*
X83849838Y-156866880D01*
X84135552Y-156866880D02*
X84135552Y-155866880D01*
X84040314Y-156009738D01*
X83945076Y-156104976D01*
X83849838Y-156152595D01*
G04 #@! TO.C,J1*
X99685266Y-105344880D02*
X99685266Y-106059166D01*
X99637647Y-106202023D01*
X99542409Y-106297261D01*
X99399552Y-106344880D01*
X99304314Y-106344880D01*
X100685266Y-106344880D02*
X100113838Y-106344880D01*
X100399552Y-106344880D02*
X100399552Y-105344880D01*
X100304314Y-105487738D01*
X100209076Y-105582976D01*
X100113838Y-105630595D01*
G04 #@! TO.C,U8*
X94964195Y-123194480D02*
X94964195Y-124004004D01*
X95011814Y-124099242D01*
X95059433Y-124146861D01*
X95154671Y-124194480D01*
X95345147Y-124194480D01*
X95440385Y-124146861D01*
X95488004Y-124099242D01*
X95535623Y-124004004D01*
X95535623Y-123194480D01*
X96154671Y-123623052D02*
X96059433Y-123575433D01*
X96011814Y-123527814D01*
X95964195Y-123432576D01*
X95964195Y-123384957D01*
X96011814Y-123289719D01*
X96059433Y-123242100D01*
X96154671Y-123194480D01*
X96345147Y-123194480D01*
X96440385Y-123242100D01*
X96488004Y-123289719D01*
X96535623Y-123384957D01*
X96535623Y-123432576D01*
X96488004Y-123527814D01*
X96440385Y-123575433D01*
X96345147Y-123623052D01*
X96154671Y-123623052D01*
X96059433Y-123670671D01*
X96011814Y-123718290D01*
X95964195Y-123813528D01*
X95964195Y-124004004D01*
X96011814Y-124099242D01*
X96059433Y-124146861D01*
X96154671Y-124194480D01*
X96345147Y-124194480D01*
X96440385Y-124146861D01*
X96488004Y-124099242D01*
X96535623Y-124004004D01*
X96535623Y-123813528D01*
X96488004Y-123718290D01*
X96440385Y-123670671D01*
X96345147Y-123623052D01*
G04 #@! TO.C,U4*
X123304195Y-166669880D02*
X123304195Y-167479404D01*
X123351814Y-167574642D01*
X123399433Y-167622261D01*
X123494671Y-167669880D01*
X123685147Y-167669880D01*
X123780385Y-167622261D01*
X123828004Y-167574642D01*
X123875623Y-167479404D01*
X123875623Y-166669880D01*
X124780385Y-167003214D02*
X124780385Y-167669880D01*
X124542290Y-166622261D02*
X124304195Y-167336547D01*
X124923242Y-167336547D01*
G04 #@! TO.C,D18*
X140986979Y-152547695D02*
X140986979Y-151547695D01*
X141225074Y-151547695D01*
X141367931Y-151595315D01*
X141463169Y-151690553D01*
X141510788Y-151785791D01*
X141558407Y-151976267D01*
X141558407Y-152119124D01*
X141510788Y-152309600D01*
X141463169Y-152404838D01*
X141367931Y-152500076D01*
X141225074Y-152547695D01*
X140986979Y-152547695D01*
X142510788Y-152547695D02*
X141939360Y-152547695D01*
X142225074Y-152547695D02*
X142225074Y-151547695D01*
X142129836Y-151690553D01*
X142034598Y-151785791D01*
X141939360Y-151833410D01*
X143082217Y-151976267D02*
X142986979Y-151928648D01*
X142939360Y-151881029D01*
X142891741Y-151785791D01*
X142891741Y-151738172D01*
X142939360Y-151642934D01*
X142986979Y-151595315D01*
X143082217Y-151547695D01*
X143272693Y-151547695D01*
X143367931Y-151595315D01*
X143415550Y-151642934D01*
X143463169Y-151738172D01*
X143463169Y-151785791D01*
X143415550Y-151881029D01*
X143367931Y-151928648D01*
X143272693Y-151976267D01*
X143082217Y-151976267D01*
X142986979Y-152023886D01*
X142939360Y-152071505D01*
X142891741Y-152166743D01*
X142891741Y-152357219D01*
X142939360Y-152452457D01*
X142986979Y-152500076D01*
X143082217Y-152547695D01*
X143272693Y-152547695D01*
X143367931Y-152500076D01*
X143415550Y-152452457D01*
X143463169Y-152357219D01*
X143463169Y-152166743D01*
X143415550Y-152071505D01*
X143367931Y-152023886D01*
X143272693Y-151976267D01*
G04 #@! TO.C,D19*
X132350979Y-152549205D02*
X132350979Y-151549205D01*
X132589074Y-151549205D01*
X132731931Y-151596825D01*
X132827169Y-151692063D01*
X132874788Y-151787301D01*
X132922407Y-151977777D01*
X132922407Y-152120634D01*
X132874788Y-152311110D01*
X132827169Y-152406348D01*
X132731931Y-152501586D01*
X132589074Y-152549205D01*
X132350979Y-152549205D01*
X133874788Y-152549205D02*
X133303360Y-152549205D01*
X133589074Y-152549205D02*
X133589074Y-151549205D01*
X133493836Y-151692063D01*
X133398598Y-151787301D01*
X133303360Y-151834920D01*
X134350979Y-152549205D02*
X134541455Y-152549205D01*
X134636693Y-152501586D01*
X134684312Y-152453967D01*
X134779550Y-152311110D01*
X134827169Y-152120634D01*
X134827169Y-151739682D01*
X134779550Y-151644444D01*
X134731931Y-151596825D01*
X134636693Y-151549205D01*
X134446217Y-151549205D01*
X134350979Y-151596825D01*
X134303360Y-151644444D01*
X134255741Y-151739682D01*
X134255741Y-151977777D01*
X134303360Y-152073015D01*
X134350979Y-152120634D01*
X134446217Y-152168253D01*
X134636693Y-152168253D01*
X134731931Y-152120634D01*
X134779550Y-152073015D01*
X134827169Y-151977777D01*
G04 #@! TO.C,D20*
X136665249Y-152565205D02*
X136665249Y-151565205D01*
X136903344Y-151565205D01*
X137046201Y-151612825D01*
X137141439Y-151708063D01*
X137189058Y-151803301D01*
X137236677Y-151993777D01*
X137236677Y-152136634D01*
X137189058Y-152327110D01*
X137141439Y-152422348D01*
X137046201Y-152517586D01*
X136903344Y-152565205D01*
X136665249Y-152565205D01*
X137617630Y-151660444D02*
X137665249Y-151612825D01*
X137760487Y-151565205D01*
X137998582Y-151565205D01*
X138093820Y-151612825D01*
X138141439Y-151660444D01*
X138189058Y-151755682D01*
X138189058Y-151850920D01*
X138141439Y-151993777D01*
X137570011Y-152565205D01*
X138189058Y-152565205D01*
X138808106Y-151565205D02*
X138903344Y-151565205D01*
X138998582Y-151612825D01*
X139046201Y-151660444D01*
X139093820Y-151755682D01*
X139141439Y-151946158D01*
X139141439Y-152184253D01*
X139093820Y-152374729D01*
X139046201Y-152469967D01*
X138998582Y-152517586D01*
X138903344Y-152565205D01*
X138808106Y-152565205D01*
X138712868Y-152517586D01*
X138665249Y-152469967D01*
X138617630Y-152374729D01*
X138570011Y-152184253D01*
X138570011Y-151946158D01*
X138617630Y-151755682D01*
X138665249Y-151660444D01*
X138712868Y-151612825D01*
X138808106Y-151565205D01*
G04 #@! TO.C,J4*
X127677130Y-161707843D02*
X128391416Y-161707843D01*
X128534273Y-161755462D01*
X128629511Y-161850700D01*
X128677130Y-161993557D01*
X128677130Y-162088795D01*
X128010464Y-160803081D02*
X128677130Y-160803081D01*
X127629511Y-161041176D02*
X128343797Y-161279271D01*
X128343797Y-160660224D01*
G04 #@! TO.C,C18*
X129441572Y-126745161D02*
X129489191Y-126792780D01*
X129536810Y-126935637D01*
X129536810Y-127030875D01*
X129489191Y-127173732D01*
X129393953Y-127268970D01*
X129298715Y-127316589D01*
X129108239Y-127364208D01*
X128965382Y-127364208D01*
X128774906Y-127316589D01*
X128679668Y-127268970D01*
X128584430Y-127173732D01*
X128536810Y-127030875D01*
X128536810Y-126935637D01*
X128584430Y-126792780D01*
X128632049Y-126745161D01*
X129536810Y-125792780D02*
X129536810Y-126364208D01*
X129536810Y-126078494D02*
X128536810Y-126078494D01*
X128679668Y-126173732D01*
X128774906Y-126268970D01*
X128822525Y-126364208D01*
X128965382Y-125221351D02*
X128917763Y-125316589D01*
X128870144Y-125364208D01*
X128774906Y-125411827D01*
X128727287Y-125411827D01*
X128632049Y-125364208D01*
X128584430Y-125316589D01*
X128536810Y-125221351D01*
X128536810Y-125030875D01*
X128584430Y-124935637D01*
X128632049Y-124888018D01*
X128727287Y-124840399D01*
X128774906Y-124840399D01*
X128870144Y-124888018D01*
X128917763Y-124935637D01*
X128965382Y-125030875D01*
X128965382Y-125221351D01*
X129013001Y-125316589D01*
X129060620Y-125364208D01*
X129155858Y-125411827D01*
X129346334Y-125411827D01*
X129441572Y-125364208D01*
X129489191Y-125316589D01*
X129536810Y-125221351D01*
X129536810Y-125030875D01*
X129489191Y-124935637D01*
X129441572Y-124888018D01*
X129346334Y-124840399D01*
X129155858Y-124840399D01*
X129060620Y-124888018D01*
X129013001Y-124935637D01*
X128965382Y-125030875D01*
G04 #@! TO.C,C19*
X122837572Y-126745161D02*
X122885191Y-126792780D01*
X122932810Y-126935637D01*
X122932810Y-127030875D01*
X122885191Y-127173732D01*
X122789953Y-127268970D01*
X122694715Y-127316589D01*
X122504239Y-127364208D01*
X122361382Y-127364208D01*
X122170906Y-127316589D01*
X122075668Y-127268970D01*
X121980430Y-127173732D01*
X121932810Y-127030875D01*
X121932810Y-126935637D01*
X121980430Y-126792780D01*
X122028049Y-126745161D01*
X122932810Y-125792780D02*
X122932810Y-126364208D01*
X122932810Y-126078494D02*
X121932810Y-126078494D01*
X122075668Y-126173732D01*
X122170906Y-126268970D01*
X122218525Y-126364208D01*
X122932810Y-125316589D02*
X122932810Y-125126113D01*
X122885191Y-125030875D01*
X122837572Y-124983256D01*
X122694715Y-124888018D01*
X122504239Y-124840399D01*
X122123287Y-124840399D01*
X122028049Y-124888018D01*
X121980430Y-124935637D01*
X121932810Y-125030875D01*
X121932810Y-125221351D01*
X121980430Y-125316589D01*
X122028049Y-125364208D01*
X122123287Y-125411827D01*
X122361382Y-125411827D01*
X122456620Y-125364208D01*
X122504239Y-125316589D01*
X122551858Y-125221351D01*
X122551858Y-125030875D01*
X122504239Y-124935637D01*
X122456620Y-124888018D01*
X122361382Y-124840399D01*
G04 #@! TO.C,Y1*
X126432239Y-126780494D02*
X126432239Y-127256684D01*
X126098906Y-126256684D02*
X126432239Y-126780494D01*
X126765572Y-126256684D01*
X127622715Y-127256684D02*
X127051287Y-127256684D01*
X127337001Y-127256684D02*
X127337001Y-126256684D01*
X127241763Y-126399542D01*
X127146525Y-126494780D01*
X127051287Y-126542399D01*
G04 #@! TO.C,U1*
X103746195Y-166288880D02*
X103746195Y-167098404D01*
X103793814Y-167193642D01*
X103841433Y-167241261D01*
X103936671Y-167288880D01*
X104127147Y-167288880D01*
X104222385Y-167241261D01*
X104270004Y-167193642D01*
X104317623Y-167098404D01*
X104317623Y-166288880D01*
X105317623Y-167288880D02*
X104746195Y-167288880D01*
X105031909Y-167288880D02*
X105031909Y-166288880D01*
X104936671Y-166431738D01*
X104841433Y-166526976D01*
X104746195Y-166574595D01*
G04 #@! TO.C,J2*
X133721266Y-106106880D02*
X133721266Y-106821166D01*
X133673647Y-106964023D01*
X133578409Y-107059261D01*
X133435552Y-107106880D01*
X133340314Y-107106880D01*
X134149838Y-106202119D02*
X134197457Y-106154500D01*
X134292695Y-106106880D01*
X134530790Y-106106880D01*
X134626028Y-106154500D01*
X134673647Y-106202119D01*
X134721266Y-106297357D01*
X134721266Y-106392595D01*
X134673647Y-106535452D01*
X134102219Y-107106880D01*
X134721266Y-107106880D01*
G04 #@! TO.C,D11*
X107714480Y-148238785D02*
X106714480Y-148238785D01*
X106714480Y-148000690D01*
X106762100Y-147857833D01*
X106857338Y-147762595D01*
X106952576Y-147714976D01*
X107143052Y-147667357D01*
X107285909Y-147667357D01*
X107476385Y-147714976D01*
X107571623Y-147762595D01*
X107666861Y-147857833D01*
X107714480Y-148000690D01*
X107714480Y-148238785D01*
X107714480Y-146714976D02*
X107714480Y-147286404D01*
X107714480Y-147000690D02*
X106714480Y-147000690D01*
X106857338Y-147095928D01*
X106952576Y-147191166D01*
X107000195Y-147286404D01*
X107714480Y-145762595D02*
X107714480Y-146334023D01*
X107714480Y-146048309D02*
X106714480Y-146048309D01*
X106857338Y-146143547D01*
X106952576Y-146238785D01*
X107000195Y-146334023D01*
G04 #@! TO.C,D12*
X117412265Y-148365785D02*
X116412265Y-148365785D01*
X116412265Y-148127690D01*
X116459885Y-147984833D01*
X116555123Y-147889595D01*
X116650361Y-147841976D01*
X116840837Y-147794357D01*
X116983694Y-147794357D01*
X117174170Y-147841976D01*
X117269408Y-147889595D01*
X117364646Y-147984833D01*
X117412265Y-148127690D01*
X117412265Y-148365785D01*
X117412265Y-146841976D02*
X117412265Y-147413404D01*
X117412265Y-147127690D02*
X116412265Y-147127690D01*
X116555123Y-147222928D01*
X116650361Y-147318166D01*
X116697980Y-147413404D01*
X116507504Y-146461023D02*
X116459885Y-146413404D01*
X116412265Y-146318166D01*
X116412265Y-146080071D01*
X116459885Y-145984833D01*
X116507504Y-145937214D01*
X116602742Y-145889595D01*
X116697980Y-145889595D01*
X116840837Y-145937214D01*
X117412265Y-146508642D01*
X117412265Y-145889595D01*
G04 #@! TO.C,D13*
X127145480Y-148619785D02*
X126145480Y-148619785D01*
X126145480Y-148381690D01*
X126193100Y-148238833D01*
X126288338Y-148143595D01*
X126383576Y-148095976D01*
X126574052Y-148048357D01*
X126716909Y-148048357D01*
X126907385Y-148095976D01*
X127002623Y-148143595D01*
X127097861Y-148238833D01*
X127145480Y-148381690D01*
X127145480Y-148619785D01*
X127145480Y-147095976D02*
X127145480Y-147667404D01*
X127145480Y-147381690D02*
X126145480Y-147381690D01*
X126288338Y-147476928D01*
X126383576Y-147572166D01*
X126431195Y-147667404D01*
X126145480Y-146762642D02*
X126145480Y-146143595D01*
X126526433Y-146476928D01*
X126526433Y-146334071D01*
X126574052Y-146238833D01*
X126621671Y-146191214D01*
X126716909Y-146143595D01*
X126955004Y-146143595D01*
X127050242Y-146191214D01*
X127097861Y-146238833D01*
X127145480Y-146334071D01*
X127145480Y-146619785D01*
X127097861Y-146715023D01*
X127050242Y-146762642D01*
G04 #@! TO.C,D14*
X101131299Y-139046675D02*
X101131299Y-138046675D01*
X101369394Y-138046675D01*
X101512251Y-138094295D01*
X101607489Y-138189533D01*
X101655108Y-138284771D01*
X101702727Y-138475247D01*
X101702727Y-138618104D01*
X101655108Y-138808580D01*
X101607489Y-138903818D01*
X101512251Y-138999056D01*
X101369394Y-139046675D01*
X101131299Y-139046675D01*
X102655108Y-139046675D02*
X102083680Y-139046675D01*
X102369394Y-139046675D02*
X102369394Y-138046675D01*
X102274156Y-138189533D01*
X102178918Y-138284771D01*
X102083680Y-138332390D01*
X103512251Y-138380009D02*
X103512251Y-139046675D01*
X103274156Y-137999056D02*
X103036061Y-138713342D01*
X103655108Y-138713342D01*
G04 #@! TO.C,D7*
X130741804Y-118870680D02*
X130741804Y-117870680D01*
X130979900Y-117870680D01*
X131122757Y-117918300D01*
X131217995Y-118013538D01*
X131265614Y-118108776D01*
X131313233Y-118299252D01*
X131313233Y-118442109D01*
X131265614Y-118632585D01*
X131217995Y-118727823D01*
X131122757Y-118823061D01*
X130979900Y-118870680D01*
X130741804Y-118870680D01*
X131646566Y-117870680D02*
X132313233Y-117870680D01*
X131884661Y-118870680D01*
G04 #@! TO.C,D9*
X86312480Y-132608195D02*
X85312480Y-132608195D01*
X85312480Y-132370100D01*
X85360100Y-132227242D01*
X85455338Y-132132004D01*
X85550576Y-132084385D01*
X85741052Y-132036766D01*
X85883909Y-132036766D01*
X86074385Y-132084385D01*
X86169623Y-132132004D01*
X86264861Y-132227242D01*
X86312480Y-132370100D01*
X86312480Y-132608195D01*
X86312480Y-131560576D02*
X86312480Y-131370100D01*
X86264861Y-131274861D01*
X86217242Y-131227242D01*
X86074385Y-131132004D01*
X85883909Y-131084385D01*
X85502957Y-131084385D01*
X85407719Y-131132004D01*
X85360100Y-131179623D01*
X85312480Y-131274861D01*
X85312480Y-131465338D01*
X85360100Y-131560576D01*
X85407719Y-131608195D01*
X85502957Y-131655814D01*
X85741052Y-131655814D01*
X85836290Y-131608195D01*
X85883909Y-131560576D01*
X85931528Y-131465338D01*
X85931528Y-131274861D01*
X85883909Y-131179623D01*
X85836290Y-131132004D01*
X85741052Y-131084385D01*
G04 #@! TO.C,D8*
X86312480Y-136672195D02*
X85312480Y-136672195D01*
X85312480Y-136434100D01*
X85360100Y-136291242D01*
X85455338Y-136196004D01*
X85550576Y-136148385D01*
X85741052Y-136100766D01*
X85883909Y-136100766D01*
X86074385Y-136148385D01*
X86169623Y-136196004D01*
X86264861Y-136291242D01*
X86312480Y-136434100D01*
X86312480Y-136672195D01*
X85741052Y-135529338D02*
X85693433Y-135624576D01*
X85645814Y-135672195D01*
X85550576Y-135719814D01*
X85502957Y-135719814D01*
X85407719Y-135672195D01*
X85360100Y-135624576D01*
X85312480Y-135529338D01*
X85312480Y-135338861D01*
X85360100Y-135243623D01*
X85407719Y-135196004D01*
X85502957Y-135148385D01*
X85550576Y-135148385D01*
X85645814Y-135196004D01*
X85693433Y-135243623D01*
X85741052Y-135338861D01*
X85741052Y-135529338D01*
X85788671Y-135624576D01*
X85836290Y-135672195D01*
X85931528Y-135719814D01*
X86122004Y-135719814D01*
X86217242Y-135672195D01*
X86264861Y-135624576D01*
X86312480Y-135529338D01*
X86312480Y-135338861D01*
X86264861Y-135243623D01*
X86217242Y-135196004D01*
X86122004Y-135148385D01*
X85931528Y-135148385D01*
X85836290Y-135196004D01*
X85788671Y-135243623D01*
X85741052Y-135338861D01*
G04 #@! TO.C,D10*
X86312480Y-129020385D02*
X85312480Y-129020385D01*
X85312480Y-128782290D01*
X85360100Y-128639433D01*
X85455338Y-128544195D01*
X85550576Y-128496576D01*
X85741052Y-128448957D01*
X85883909Y-128448957D01*
X86074385Y-128496576D01*
X86169623Y-128544195D01*
X86264861Y-128639433D01*
X86312480Y-128782290D01*
X86312480Y-129020385D01*
X86312480Y-127496576D02*
X86312480Y-128068004D01*
X86312480Y-127782290D02*
X85312480Y-127782290D01*
X85455338Y-127877528D01*
X85550576Y-127972766D01*
X85598195Y-128068004D01*
X85312480Y-126877528D02*
X85312480Y-126782290D01*
X85360100Y-126687052D01*
X85407719Y-126639433D01*
X85502957Y-126591814D01*
X85693433Y-126544195D01*
X85931528Y-126544195D01*
X86122004Y-126591814D01*
X86217242Y-126639433D01*
X86264861Y-126687052D01*
X86312480Y-126782290D01*
X86312480Y-126877528D01*
X86264861Y-126972766D01*
X86217242Y-127020385D01*
X86122004Y-127068004D01*
X85931528Y-127115623D01*
X85693433Y-127115623D01*
X85502957Y-127068004D01*
X85407719Y-127020385D01*
X85360100Y-126972766D01*
X85312480Y-126877528D01*
G04 #@! TO.C,D5*
X123121804Y-118936680D02*
X123121804Y-117936680D01*
X123359900Y-117936680D01*
X123502757Y-117984300D01*
X123597995Y-118079538D01*
X123645614Y-118174776D01*
X123693233Y-118365252D01*
X123693233Y-118508109D01*
X123645614Y-118698585D01*
X123597995Y-118793823D01*
X123502757Y-118889061D01*
X123359900Y-118936680D01*
X123121804Y-118936680D01*
X124597995Y-117936680D02*
X124121804Y-117936680D01*
X124074185Y-118412871D01*
X124121804Y-118365252D01*
X124217042Y-118317633D01*
X124455138Y-118317633D01*
X124550376Y-118365252D01*
X124597995Y-118412871D01*
X124645614Y-118508109D01*
X124645614Y-118746204D01*
X124597995Y-118841442D01*
X124550376Y-118889061D01*
X124455138Y-118936680D01*
X124217042Y-118936680D01*
X124121804Y-118889061D01*
X124074185Y-118841442D01*
G04 #@! TO.C,U9*
X102061780Y-112394804D02*
X102871304Y-112394804D01*
X102966542Y-112347185D01*
X103014161Y-112299566D01*
X103061780Y-112204328D01*
X103061780Y-112013852D01*
X103014161Y-111918614D01*
X102966542Y-111870995D01*
X102871304Y-111823376D01*
X102061780Y-111823376D01*
X103061780Y-111299566D02*
X103061780Y-111109090D01*
X103014161Y-111013852D01*
X102966542Y-110966233D01*
X102823685Y-110870995D01*
X102633209Y-110823376D01*
X102252257Y-110823376D01*
X102157019Y-110870995D01*
X102109400Y-110918614D01*
X102061780Y-111013852D01*
X102061780Y-111204328D01*
X102109400Y-111299566D01*
X102157019Y-111347185D01*
X102252257Y-111394804D01*
X102490352Y-111394804D01*
X102585590Y-111347185D01*
X102633209Y-111299566D01*
X102680828Y-111204328D01*
X102680828Y-111013852D01*
X102633209Y-110918614D01*
X102585590Y-110870995D01*
X102490352Y-110823376D01*
G04 #@! TO.C,R10*
X112110365Y-125989957D02*
X111634175Y-126323290D01*
X112110365Y-126561385D02*
X111110365Y-126561385D01*
X111110365Y-126180433D01*
X111157985Y-126085195D01*
X111205604Y-126037576D01*
X111300842Y-125989957D01*
X111443699Y-125989957D01*
X111538937Y-126037576D01*
X111586556Y-126085195D01*
X111634175Y-126180433D01*
X111634175Y-126561385D01*
X112110365Y-125037576D02*
X112110365Y-125609004D01*
X112110365Y-125323290D02*
X111110365Y-125323290D01*
X111253223Y-125418528D01*
X111348461Y-125513766D01*
X111396080Y-125609004D01*
X111110365Y-124418528D02*
X111110365Y-124323290D01*
X111157985Y-124228052D01*
X111205604Y-124180433D01*
X111300842Y-124132814D01*
X111491318Y-124085195D01*
X111729413Y-124085195D01*
X111919889Y-124132814D01*
X112015127Y-124180433D01*
X112062746Y-124228052D01*
X112110365Y-124323290D01*
X112110365Y-124418528D01*
X112062746Y-124513766D01*
X112015127Y-124561385D01*
X111919889Y-124609004D01*
X111729413Y-124656623D01*
X111491318Y-124656623D01*
X111300842Y-124609004D01*
X111205604Y-124561385D01*
X111157985Y-124513766D01*
X111110365Y-124418528D01*
G04 #@! TO.C,C1*
X109011742Y-121299166D02*
X109059361Y-121346785D01*
X109106980Y-121489642D01*
X109106980Y-121584880D01*
X109059361Y-121727738D01*
X108964123Y-121822976D01*
X108868885Y-121870595D01*
X108678409Y-121918214D01*
X108535552Y-121918214D01*
X108345076Y-121870595D01*
X108249838Y-121822976D01*
X108154600Y-121727738D01*
X108106980Y-121584880D01*
X108106980Y-121489642D01*
X108154600Y-121346785D01*
X108202219Y-121299166D01*
X109106980Y-120346785D02*
X109106980Y-120918214D01*
X109106980Y-120632500D02*
X108106980Y-120632500D01*
X108249838Y-120727738D01*
X108345076Y-120822976D01*
X108392695Y-120918214D01*
G04 #@! TO.C,C3*
X122573742Y-140580166D02*
X122621361Y-140627785D01*
X122668980Y-140770642D01*
X122668980Y-140865880D01*
X122621361Y-141008738D01*
X122526123Y-141103976D01*
X122430885Y-141151595D01*
X122240409Y-141199214D01*
X122097552Y-141199214D01*
X121907076Y-141151595D01*
X121811838Y-141103976D01*
X121716600Y-141008738D01*
X121668980Y-140865880D01*
X121668980Y-140770642D01*
X121716600Y-140627785D01*
X121764219Y-140580166D01*
X121668980Y-140246833D02*
X121668980Y-139627785D01*
X122049933Y-139961119D01*
X122049933Y-139818261D01*
X122097552Y-139723023D01*
X122145171Y-139675404D01*
X122240409Y-139627785D01*
X122478504Y-139627785D01*
X122573742Y-139675404D01*
X122621361Y-139723023D01*
X122668980Y-139818261D01*
X122668980Y-140103976D01*
X122621361Y-140199214D01*
X122573742Y-140246833D01*
G04 #@! TO.C,C4*
X115872818Y-125832957D02*
X115825199Y-125880576D01*
X115682342Y-125928195D01*
X115587104Y-125928195D01*
X115444246Y-125880576D01*
X115349008Y-125785338D01*
X115301389Y-125690100D01*
X115253770Y-125499624D01*
X115253770Y-125356767D01*
X115301389Y-125166291D01*
X115349008Y-125071053D01*
X115444246Y-124975815D01*
X115587104Y-124928195D01*
X115682342Y-124928195D01*
X115825199Y-124975815D01*
X115872818Y-125023434D01*
X116729961Y-125261529D02*
X116729961Y-125928195D01*
X116491865Y-124880576D02*
X116253770Y-125594862D01*
X116872818Y-125594862D01*
G04 #@! TO.C,C14*
X145544242Y-147002242D02*
X145496623Y-147049861D01*
X145353766Y-147097480D01*
X145258528Y-147097480D01*
X145115671Y-147049861D01*
X145020433Y-146954623D01*
X144972814Y-146859385D01*
X144925195Y-146668909D01*
X144925195Y-146526052D01*
X144972814Y-146335576D01*
X145020433Y-146240338D01*
X145115671Y-146145100D01*
X145258528Y-146097480D01*
X145353766Y-146097480D01*
X145496623Y-146145100D01*
X145544242Y-146192719D01*
X146496623Y-147097480D02*
X145925195Y-147097480D01*
X146210909Y-147097480D02*
X146210909Y-146097480D01*
X146115671Y-146240338D01*
X146020433Y-146335576D01*
X145925195Y-146383195D01*
X147353766Y-146430814D02*
X147353766Y-147097480D01*
X147115671Y-146049861D02*
X146877576Y-146764147D01*
X147496623Y-146764147D01*
G04 #@! TO.C,C15*
X145521242Y-130746242D02*
X145473623Y-130793861D01*
X145330766Y-130841480D01*
X145235528Y-130841480D01*
X145092671Y-130793861D01*
X144997433Y-130698623D01*
X144949814Y-130603385D01*
X144902195Y-130412909D01*
X144902195Y-130270052D01*
X144949814Y-130079576D01*
X144997433Y-129984338D01*
X145092671Y-129889100D01*
X145235528Y-129841480D01*
X145330766Y-129841480D01*
X145473623Y-129889100D01*
X145521242Y-129936719D01*
X146473623Y-130841480D02*
X145902195Y-130841480D01*
X146187909Y-130841480D02*
X146187909Y-129841480D01*
X146092671Y-129984338D01*
X145997433Y-130079576D01*
X145902195Y-130127195D01*
X147378385Y-129841480D02*
X146902195Y-129841480D01*
X146854576Y-130317671D01*
X146902195Y-130270052D01*
X146997433Y-130222433D01*
X147235528Y-130222433D01*
X147330766Y-130270052D01*
X147378385Y-130317671D01*
X147426004Y-130412909D01*
X147426004Y-130651004D01*
X147378385Y-130746242D01*
X147330766Y-130793861D01*
X147235528Y-130841480D01*
X146997433Y-130841480D01*
X146902195Y-130793861D01*
X146854576Y-130746242D01*
G04 #@! TO.C,C16*
X149667742Y-109143642D02*
X149620123Y-109191261D01*
X149477266Y-109238880D01*
X149382028Y-109238880D01*
X149239171Y-109191261D01*
X149143933Y-109096023D01*
X149096314Y-109000785D01*
X149048695Y-108810309D01*
X149048695Y-108667452D01*
X149096314Y-108476976D01*
X149143933Y-108381738D01*
X149239171Y-108286500D01*
X149382028Y-108238880D01*
X149477266Y-108238880D01*
X149620123Y-108286500D01*
X149667742Y-108334119D01*
X150620123Y-109238880D02*
X150048695Y-109238880D01*
X150334409Y-109238880D02*
X150334409Y-108238880D01*
X150239171Y-108381738D01*
X150143933Y-108476976D01*
X150048695Y-108524595D01*
X151477266Y-108238880D02*
X151286790Y-108238880D01*
X151191552Y-108286500D01*
X151143933Y-108334119D01*
X151048695Y-108476976D01*
X151001076Y-108667452D01*
X151001076Y-109048404D01*
X151048695Y-109143642D01*
X151096314Y-109191261D01*
X151191552Y-109238880D01*
X151382028Y-109238880D01*
X151477266Y-109191261D01*
X151524885Y-109143642D01*
X151572504Y-109048404D01*
X151572504Y-108810309D01*
X151524885Y-108715071D01*
X151477266Y-108667452D01*
X151382028Y-108619833D01*
X151191552Y-108619833D01*
X151096314Y-108667452D01*
X151048695Y-108715071D01*
X151001076Y-108810309D01*
G04 #@! TO.C,D1*
X114459865Y-119957910D02*
X113459865Y-119957910D01*
X113459865Y-119719815D01*
X113507485Y-119576957D01*
X113602723Y-119481719D01*
X113697961Y-119434100D01*
X113888437Y-119386481D01*
X114031294Y-119386481D01*
X114221770Y-119434100D01*
X114317008Y-119481719D01*
X114412246Y-119576957D01*
X114459865Y-119719815D01*
X114459865Y-119957910D01*
X114459865Y-118434100D02*
X114459865Y-119005529D01*
X114459865Y-118719815D02*
X113459865Y-118719815D01*
X113602723Y-118815053D01*
X113697961Y-118910291D01*
X113745580Y-119005529D01*
G04 #@! TO.C,D2*
X113189865Y-120018910D02*
X112189865Y-120018910D01*
X112189865Y-119780815D01*
X112237485Y-119637957D01*
X112332723Y-119542719D01*
X112427961Y-119495100D01*
X112618437Y-119447481D01*
X112761294Y-119447481D01*
X112951770Y-119495100D01*
X113047008Y-119542719D01*
X113142246Y-119637957D01*
X113189865Y-119780815D01*
X113189865Y-120018910D01*
X112285104Y-119066529D02*
X112237485Y-119018910D01*
X112189865Y-118923672D01*
X112189865Y-118685576D01*
X112237485Y-118590338D01*
X112285104Y-118542719D01*
X112380342Y-118495100D01*
X112475580Y-118495100D01*
X112618437Y-118542719D01*
X113189865Y-119114148D01*
X113189865Y-118495100D01*
G04 #@! TO.C,D3*
X112173865Y-119918910D02*
X111173865Y-119918910D01*
X111173865Y-119680815D01*
X111221485Y-119537957D01*
X111316723Y-119442719D01*
X111411961Y-119395100D01*
X111602437Y-119347481D01*
X111745294Y-119347481D01*
X111935770Y-119395100D01*
X112031008Y-119442719D01*
X112126246Y-119537957D01*
X112173865Y-119680815D01*
X112173865Y-119918910D01*
X111173865Y-119014148D02*
X111173865Y-118395100D01*
X111554818Y-118728434D01*
X111554818Y-118585576D01*
X111602437Y-118490338D01*
X111650056Y-118442719D01*
X111745294Y-118395100D01*
X111983389Y-118395100D01*
X112078627Y-118442719D01*
X112126246Y-118490338D01*
X112173865Y-118585576D01*
X112173865Y-118871291D01*
X112126246Y-118966529D01*
X112078627Y-119014148D01*
G04 #@! TO.C,R2*
X107582980Y-121045166D02*
X107106790Y-121378500D01*
X107582980Y-121616595D02*
X106582980Y-121616595D01*
X106582980Y-121235642D01*
X106630600Y-121140404D01*
X106678219Y-121092785D01*
X106773457Y-121045166D01*
X106916314Y-121045166D01*
X107011552Y-121092785D01*
X107059171Y-121140404D01*
X107106790Y-121235642D01*
X107106790Y-121616595D01*
X106678219Y-120664214D02*
X106630600Y-120616595D01*
X106582980Y-120521357D01*
X106582980Y-120283261D01*
X106630600Y-120188023D01*
X106678219Y-120140404D01*
X106773457Y-120092785D01*
X106868695Y-120092785D01*
X107011552Y-120140404D01*
X107582980Y-120711833D01*
X107582980Y-120092785D01*
G04 #@! TO.C,R3*
X105550980Y-123839166D02*
X105074790Y-124172500D01*
X105550980Y-124410595D02*
X104550980Y-124410595D01*
X104550980Y-124029642D01*
X104598600Y-123934404D01*
X104646219Y-123886785D01*
X104741457Y-123839166D01*
X104884314Y-123839166D01*
X104979552Y-123886785D01*
X105027171Y-123934404D01*
X105074790Y-124029642D01*
X105074790Y-124410595D01*
X104550980Y-123505833D02*
X104550980Y-122886785D01*
X104931933Y-123220119D01*
X104931933Y-123077261D01*
X104979552Y-122982023D01*
X105027171Y-122934404D01*
X105122409Y-122886785D01*
X105360504Y-122886785D01*
X105455742Y-122934404D01*
X105503361Y-122982023D01*
X105550980Y-123077261D01*
X105550980Y-123362976D01*
X105503361Y-123458214D01*
X105455742Y-123505833D01*
G04 #@! TO.C,R5*
X149576433Y-144503480D02*
X149243100Y-144027290D01*
X149005004Y-144503480D02*
X149005004Y-143503480D01*
X149385957Y-143503480D01*
X149481195Y-143551100D01*
X149528814Y-143598719D01*
X149576433Y-143693957D01*
X149576433Y-143836814D01*
X149528814Y-143932052D01*
X149481195Y-143979671D01*
X149385957Y-144027290D01*
X149005004Y-144027290D01*
X150481195Y-143503480D02*
X150005004Y-143503480D01*
X149957385Y-143979671D01*
X150005004Y-143932052D01*
X150100242Y-143884433D01*
X150338338Y-143884433D01*
X150433576Y-143932052D01*
X150481195Y-143979671D01*
X150528814Y-144074909D01*
X150528814Y-144313004D01*
X150481195Y-144408242D01*
X150433576Y-144455861D01*
X150338338Y-144503480D01*
X150100242Y-144503480D01*
X150005004Y-144455861D01*
X149957385Y-144408242D01*
G04 #@! TO.C,R6*
X149576433Y-128247480D02*
X149243100Y-127771290D01*
X149005004Y-128247480D02*
X149005004Y-127247480D01*
X149385957Y-127247480D01*
X149481195Y-127295100D01*
X149528814Y-127342719D01*
X149576433Y-127437957D01*
X149576433Y-127580814D01*
X149528814Y-127676052D01*
X149481195Y-127723671D01*
X149385957Y-127771290D01*
X149005004Y-127771290D01*
X150433576Y-127247480D02*
X150243100Y-127247480D01*
X150147861Y-127295100D01*
X150100242Y-127342719D01*
X150005004Y-127485576D01*
X149957385Y-127676052D01*
X149957385Y-128057004D01*
X150005004Y-128152242D01*
X150052623Y-128199861D01*
X150147861Y-128247480D01*
X150338338Y-128247480D01*
X150433576Y-128199861D01*
X150481195Y-128152242D01*
X150528814Y-128057004D01*
X150528814Y-127818909D01*
X150481195Y-127723671D01*
X150433576Y-127676052D01*
X150338338Y-127628433D01*
X150147861Y-127628433D01*
X150052623Y-127676052D01*
X150005004Y-127723671D01*
X149957385Y-127818909D01*
G04 #@! TO.C,R7*
X149576433Y-111737480D02*
X149243100Y-111261290D01*
X149005004Y-111737480D02*
X149005004Y-110737480D01*
X149385957Y-110737480D01*
X149481195Y-110785100D01*
X149528814Y-110832719D01*
X149576433Y-110927957D01*
X149576433Y-111070814D01*
X149528814Y-111166052D01*
X149481195Y-111213671D01*
X149385957Y-111261290D01*
X149005004Y-111261290D01*
X149909766Y-110737480D02*
X150576433Y-110737480D01*
X150147861Y-111737480D01*
G04 #@! TO.C,R8*
X114332865Y-125101481D02*
X113856675Y-125434815D01*
X114332865Y-125672910D02*
X113332865Y-125672910D01*
X113332865Y-125291957D01*
X113380485Y-125196719D01*
X113428104Y-125149100D01*
X113523342Y-125101481D01*
X113666199Y-125101481D01*
X113761437Y-125149100D01*
X113809056Y-125196719D01*
X113856675Y-125291957D01*
X113856675Y-125672910D01*
X113761437Y-124530053D02*
X113713818Y-124625291D01*
X113666199Y-124672910D01*
X113570961Y-124720529D01*
X113523342Y-124720529D01*
X113428104Y-124672910D01*
X113380485Y-124625291D01*
X113332865Y-124530053D01*
X113332865Y-124339576D01*
X113380485Y-124244338D01*
X113428104Y-124196719D01*
X113523342Y-124149100D01*
X113570961Y-124149100D01*
X113666199Y-124196719D01*
X113713818Y-124244338D01*
X113761437Y-124339576D01*
X113761437Y-124530053D01*
X113809056Y-124625291D01*
X113856675Y-124672910D01*
X113951913Y-124720529D01*
X114142389Y-124720529D01*
X114237627Y-124672910D01*
X114285246Y-124625291D01*
X114332865Y-124530053D01*
X114332865Y-124339576D01*
X114285246Y-124244338D01*
X114237627Y-124196719D01*
X114142389Y-124149100D01*
X113951913Y-124149100D01*
X113856675Y-124196719D01*
X113809056Y-124244338D01*
X113761437Y-124339576D01*
G04 #@! TO.C,R9*
X113196480Y-125132766D02*
X112720290Y-125466100D01*
X113196480Y-125704195D02*
X112196480Y-125704195D01*
X112196480Y-125323242D01*
X112244100Y-125228004D01*
X112291719Y-125180385D01*
X112386957Y-125132766D01*
X112529814Y-125132766D01*
X112625052Y-125180385D01*
X112672671Y-125228004D01*
X112720290Y-125323242D01*
X112720290Y-125704195D01*
X113196480Y-124656576D02*
X113196480Y-124466100D01*
X113148861Y-124370861D01*
X113101242Y-124323242D01*
X112958385Y-124228004D01*
X112767909Y-124180385D01*
X112386957Y-124180385D01*
X112291719Y-124228004D01*
X112244100Y-124275623D01*
X112196480Y-124370861D01*
X112196480Y-124561338D01*
X112244100Y-124656576D01*
X112291719Y-124704195D01*
X112386957Y-124751814D01*
X112625052Y-124751814D01*
X112720290Y-124704195D01*
X112767909Y-124656576D01*
X112815528Y-124561338D01*
X112815528Y-124370861D01*
X112767909Y-124275623D01*
X112720290Y-124228004D01*
X112625052Y-124180385D01*
G04 #@! TO.C,R11*
X151340242Y-144503480D02*
X151006909Y-144027290D01*
X150768814Y-144503480D02*
X150768814Y-143503480D01*
X151149766Y-143503480D01*
X151245004Y-143551100D01*
X151292623Y-143598719D01*
X151340242Y-143693957D01*
X151340242Y-143836814D01*
X151292623Y-143932052D01*
X151245004Y-143979671D01*
X151149766Y-144027290D01*
X150768814Y-144027290D01*
X152292623Y-144503480D02*
X151721195Y-144503480D01*
X152006909Y-144503480D02*
X152006909Y-143503480D01*
X151911671Y-143646338D01*
X151816433Y-143741576D01*
X151721195Y-143789195D01*
X153245004Y-144503480D02*
X152673576Y-144503480D01*
X152959290Y-144503480D02*
X152959290Y-143503480D01*
X152864052Y-143646338D01*
X152768814Y-143741576D01*
X152673576Y-143789195D01*
G04 #@! TO.C,R12*
X151340242Y-128247480D02*
X151006909Y-127771290D01*
X150768814Y-128247480D02*
X150768814Y-127247480D01*
X151149766Y-127247480D01*
X151245004Y-127295100D01*
X151292623Y-127342719D01*
X151340242Y-127437957D01*
X151340242Y-127580814D01*
X151292623Y-127676052D01*
X151245004Y-127723671D01*
X151149766Y-127771290D01*
X150768814Y-127771290D01*
X152292623Y-128247480D02*
X151721195Y-128247480D01*
X152006909Y-128247480D02*
X152006909Y-127247480D01*
X151911671Y-127390338D01*
X151816433Y-127485576D01*
X151721195Y-127533195D01*
X152673576Y-127342719D02*
X152721195Y-127295100D01*
X152816433Y-127247480D01*
X153054528Y-127247480D01*
X153149766Y-127295100D01*
X153197385Y-127342719D01*
X153245004Y-127437957D01*
X153245004Y-127533195D01*
X153197385Y-127676052D01*
X152625957Y-128247480D01*
X153245004Y-128247480D01*
G04 #@! TO.C,R13*
X151340242Y-111737480D02*
X151006909Y-111261290D01*
X150768814Y-111737480D02*
X150768814Y-110737480D01*
X151149766Y-110737480D01*
X151245004Y-110785100D01*
X151292623Y-110832719D01*
X151340242Y-110927957D01*
X151340242Y-111070814D01*
X151292623Y-111166052D01*
X151245004Y-111213671D01*
X151149766Y-111261290D01*
X150768814Y-111261290D01*
X152292623Y-111737480D02*
X151721195Y-111737480D01*
X152006909Y-111737480D02*
X152006909Y-110737480D01*
X151911671Y-110880338D01*
X151816433Y-110975576D01*
X151721195Y-111023195D01*
X152625957Y-110737480D02*
X153245004Y-110737480D01*
X152911671Y-111118433D01*
X153054528Y-111118433D01*
X153149766Y-111166052D01*
X153197385Y-111213671D01*
X153245004Y-111308909D01*
X153245004Y-111547004D01*
X153197385Y-111642242D01*
X153149766Y-111689861D01*
X153054528Y-111737480D01*
X152768814Y-111737480D01*
X152673576Y-111689861D01*
X152625957Y-111642242D01*
G04 #@! TO.C,R16*
X137983742Y-119398880D02*
X137650409Y-118922690D01*
X137412314Y-119398880D02*
X137412314Y-118398880D01*
X137793266Y-118398880D01*
X137888504Y-118446500D01*
X137936123Y-118494119D01*
X137983742Y-118589357D01*
X137983742Y-118732214D01*
X137936123Y-118827452D01*
X137888504Y-118875071D01*
X137793266Y-118922690D01*
X137412314Y-118922690D01*
X138936123Y-119398880D02*
X138364695Y-119398880D01*
X138650409Y-119398880D02*
X138650409Y-118398880D01*
X138555171Y-118541738D01*
X138459933Y-118636976D01*
X138364695Y-118684595D01*
X139793266Y-118398880D02*
X139602790Y-118398880D01*
X139507552Y-118446500D01*
X139459933Y-118494119D01*
X139364695Y-118636976D01*
X139317076Y-118827452D01*
X139317076Y-119208404D01*
X139364695Y-119303642D01*
X139412314Y-119351261D01*
X139507552Y-119398880D01*
X139698028Y-119398880D01*
X139793266Y-119351261D01*
X139840885Y-119303642D01*
X139888504Y-119208404D01*
X139888504Y-118970309D01*
X139840885Y-118875071D01*
X139793266Y-118827452D01*
X139698028Y-118779833D01*
X139507552Y-118779833D01*
X139412314Y-118827452D01*
X139364695Y-118875071D01*
X139317076Y-118970309D01*
G04 #@! TO.C,R17*
X127592742Y-106090880D02*
X127259409Y-105614690D01*
X127021314Y-106090880D02*
X127021314Y-105090880D01*
X127402266Y-105090880D01*
X127497504Y-105138500D01*
X127545123Y-105186119D01*
X127592742Y-105281357D01*
X127592742Y-105424214D01*
X127545123Y-105519452D01*
X127497504Y-105567071D01*
X127402266Y-105614690D01*
X127021314Y-105614690D01*
X128545123Y-106090880D02*
X127973695Y-106090880D01*
X128259409Y-106090880D02*
X128259409Y-105090880D01*
X128164171Y-105233738D01*
X128068933Y-105328976D01*
X127973695Y-105376595D01*
X128878457Y-105090880D02*
X129545123Y-105090880D01*
X129116552Y-106090880D01*
G04 #@! TO.C,L1*
X112154980Y-110631166D02*
X112154980Y-111107357D01*
X111154980Y-111107357D01*
X112154980Y-109774023D02*
X112154980Y-110345452D01*
X112154980Y-110059738D02*
X111154980Y-110059738D01*
X111297838Y-110154976D01*
X111393076Y-110250214D01*
X111440695Y-110345452D01*
G04 #@! TO.C,SW3*
X147457861Y-159635433D02*
X147505480Y-159492576D01*
X147505480Y-159254480D01*
X147457861Y-159159242D01*
X147410242Y-159111623D01*
X147315004Y-159064004D01*
X147219766Y-159064004D01*
X147124528Y-159111623D01*
X147076909Y-159159242D01*
X147029290Y-159254480D01*
X146981671Y-159444957D01*
X146934052Y-159540195D01*
X146886433Y-159587814D01*
X146791195Y-159635433D01*
X146695957Y-159635433D01*
X146600719Y-159587814D01*
X146553100Y-159540195D01*
X146505480Y-159444957D01*
X146505480Y-159206861D01*
X146553100Y-159064004D01*
X146505480Y-158730671D02*
X147505480Y-158492576D01*
X146791195Y-158302100D01*
X147505480Y-158111623D01*
X146505480Y-157873528D01*
X146505480Y-157587814D02*
X146505480Y-156968766D01*
X146886433Y-157302100D01*
X146886433Y-157159242D01*
X146934052Y-157064004D01*
X146981671Y-157016385D01*
X147076909Y-156968766D01*
X147315004Y-156968766D01*
X147410242Y-157016385D01*
X147457861Y-157064004D01*
X147505480Y-157159242D01*
X147505480Y-157444957D01*
X147457861Y-157540195D01*
X147410242Y-157587814D01*
G04 #@! TO.C,SW4*
X147330861Y-143252433D02*
X147378480Y-143109576D01*
X147378480Y-142871480D01*
X147330861Y-142776242D01*
X147283242Y-142728623D01*
X147188004Y-142681004D01*
X147092766Y-142681004D01*
X146997528Y-142728623D01*
X146949909Y-142776242D01*
X146902290Y-142871480D01*
X146854671Y-143061957D01*
X146807052Y-143157195D01*
X146759433Y-143204814D01*
X146664195Y-143252433D01*
X146568957Y-143252433D01*
X146473719Y-143204814D01*
X146426100Y-143157195D01*
X146378480Y-143061957D01*
X146378480Y-142823861D01*
X146426100Y-142681004D01*
X146378480Y-142347671D02*
X147378480Y-142109576D01*
X146664195Y-141919100D01*
X147378480Y-141728623D01*
X146378480Y-141490528D01*
X146711814Y-140681004D02*
X147378480Y-140681004D01*
X146330861Y-140919100D02*
X147045147Y-141157195D01*
X147045147Y-140538147D01*
G04 #@! TO.C,SW5*
X147330861Y-126742433D02*
X147378480Y-126599576D01*
X147378480Y-126361480D01*
X147330861Y-126266242D01*
X147283242Y-126218623D01*
X147188004Y-126171004D01*
X147092766Y-126171004D01*
X146997528Y-126218623D01*
X146949909Y-126266242D01*
X146902290Y-126361480D01*
X146854671Y-126551957D01*
X146807052Y-126647195D01*
X146759433Y-126694814D01*
X146664195Y-126742433D01*
X146568957Y-126742433D01*
X146473719Y-126694814D01*
X146426100Y-126647195D01*
X146378480Y-126551957D01*
X146378480Y-126313861D01*
X146426100Y-126171004D01*
X146378480Y-125837671D02*
X147378480Y-125599576D01*
X146664195Y-125409100D01*
X147378480Y-125218623D01*
X146378480Y-124980528D01*
X146378480Y-124123385D02*
X146378480Y-124599576D01*
X146854671Y-124647195D01*
X146807052Y-124599576D01*
X146759433Y-124504338D01*
X146759433Y-124266242D01*
X146807052Y-124171004D01*
X146854671Y-124123385D01*
X146949909Y-124075766D01*
X147188004Y-124075766D01*
X147283242Y-124123385D01*
X147330861Y-124171004D01*
X147378480Y-124266242D01*
X147378480Y-124504338D01*
X147330861Y-124599576D01*
X147283242Y-124647195D01*
G04 #@! TD*
M02*
