G04 #@! TF.GenerationSoftware,KiCad,Pcbnew,6.0.0-rc1-unknown-r13540.595666d46.fc27*
G04 #@! TF.CreationDate,2018-10-03T13:58:40+02:00*
G04 #@! TF.ProjectId,Bricoleur-pcb,427269636F6C6575722D7063622E6B69,rev?*
G04 #@! TF.SameCoordinates,Original*
G04 #@! TF.FileFunction,Paste,Top*
G04 #@! TF.FilePolarity,Positive*
%FSLAX46Y46*%
G04 Gerber Fmt 4.6, Leading zero omitted, Abs format (unit mm)*
G04 Created by KiCad (PCBNEW 6.0.0-rc1-unknown-r13540.595666d46.fc27) date Wed Oct  3 13:58:40 2018*
%MOMM*%
%LPD*%
G01*
G04 APERTURE LIST*
%ADD10R,0.800000X0.900000*%
%ADD11R,0.900000X0.800000*%
%ADD12C,0.100000*%
%ADD13C,0.590000*%
%ADD14R,3.100000X1.300000*%
%ADD15R,1.473200X0.279400*%
%ADD16R,0.279400X1.473200*%
%ADD17C,0.975000*%
%ADD18R,1.350000X2.000000*%
%ADD19R,1.825000X0.700000*%
%ADD20R,2.000000X1.500000*%
%ADD21R,0.400000X1.650000*%
%ADD22R,1.430000X2.500000*%
%ADD23R,2.500000X3.000000*%
%ADD24R,1.000000X0.400000*%
%ADD25C,0.318000*%
%ADD26C,0.875000*%
%ADD27R,1.000000X1.000000*%
%ADD28R,1.300000X3.100000*%
G04 APERTURE END LIST*
D10*
G04 #@! TO.C,D9*
X88360100Y-132870100D03*
X87410100Y-130870100D03*
X89310100Y-130870100D03*
G04 #@! TD*
G04 #@! TO.C,D18*
X142328265Y-155660500D03*
X141378265Y-153660500D03*
X143278265Y-153660500D03*
G04 #@! TD*
D11*
G04 #@! TO.C,D15*
X88064800Y-108882185D03*
X88064800Y-106982185D03*
X86064800Y-107932185D03*
G04 #@! TD*
G04 #@! TO.C,D16*
X98224800Y-108882185D03*
X98224800Y-106982185D03*
X96224800Y-107932185D03*
G04 #@! TD*
G04 #@! TO.C,D17*
X93174915Y-108882185D03*
X93174915Y-106982185D03*
X91174915Y-107932185D03*
G04 #@! TD*
G04 #@! TO.C,D6*
X126399900Y-121024300D03*
X128399900Y-120074300D03*
X128399900Y-121974300D03*
G04 #@! TD*
G04 #@! TO.C,D4*
X134511900Y-121024300D03*
X136511900Y-120074300D03*
X136511900Y-121974300D03*
G04 #@! TD*
D12*
G04 #@! TO.C,R14*
G36*
X138257558Y-106612210D02*
X138271876Y-106614334D01*
X138285917Y-106617851D01*
X138299546Y-106622728D01*
X138312631Y-106628917D01*
X138325047Y-106636358D01*
X138336673Y-106644981D01*
X138347398Y-106654702D01*
X138357119Y-106665427D01*
X138365742Y-106677053D01*
X138373183Y-106689469D01*
X138379372Y-106702554D01*
X138384249Y-106716183D01*
X138387766Y-106730224D01*
X138389890Y-106744542D01*
X138390600Y-106759000D01*
X138390600Y-107104000D01*
X138389890Y-107118458D01*
X138387766Y-107132776D01*
X138384249Y-107146817D01*
X138379372Y-107160446D01*
X138373183Y-107173531D01*
X138365742Y-107185947D01*
X138357119Y-107197573D01*
X138347398Y-107208298D01*
X138336673Y-107218019D01*
X138325047Y-107226642D01*
X138312631Y-107234083D01*
X138299546Y-107240272D01*
X138285917Y-107245149D01*
X138271876Y-107248666D01*
X138257558Y-107250790D01*
X138243100Y-107251500D01*
X137948100Y-107251500D01*
X137933642Y-107250790D01*
X137919324Y-107248666D01*
X137905283Y-107245149D01*
X137891654Y-107240272D01*
X137878569Y-107234083D01*
X137866153Y-107226642D01*
X137854527Y-107218019D01*
X137843802Y-107208298D01*
X137834081Y-107197573D01*
X137825458Y-107185947D01*
X137818017Y-107173531D01*
X137811828Y-107160446D01*
X137806951Y-107146817D01*
X137803434Y-107132776D01*
X137801310Y-107118458D01*
X137800600Y-107104000D01*
X137800600Y-106759000D01*
X137801310Y-106744542D01*
X137803434Y-106730224D01*
X137806951Y-106716183D01*
X137811828Y-106702554D01*
X137818017Y-106689469D01*
X137825458Y-106677053D01*
X137834081Y-106665427D01*
X137843802Y-106654702D01*
X137854527Y-106644981D01*
X137866153Y-106636358D01*
X137878569Y-106628917D01*
X137891654Y-106622728D01*
X137905283Y-106617851D01*
X137919324Y-106614334D01*
X137933642Y-106612210D01*
X137948100Y-106611500D01*
X138243100Y-106611500D01*
X138257558Y-106612210D01*
X138257558Y-106612210D01*
G37*
D13*
X138095600Y-106931500D03*
D12*
G36*
X137287558Y-106612210D02*
X137301876Y-106614334D01*
X137315917Y-106617851D01*
X137329546Y-106622728D01*
X137342631Y-106628917D01*
X137355047Y-106636358D01*
X137366673Y-106644981D01*
X137377398Y-106654702D01*
X137387119Y-106665427D01*
X137395742Y-106677053D01*
X137403183Y-106689469D01*
X137409372Y-106702554D01*
X137414249Y-106716183D01*
X137417766Y-106730224D01*
X137419890Y-106744542D01*
X137420600Y-106759000D01*
X137420600Y-107104000D01*
X137419890Y-107118458D01*
X137417766Y-107132776D01*
X137414249Y-107146817D01*
X137409372Y-107160446D01*
X137403183Y-107173531D01*
X137395742Y-107185947D01*
X137387119Y-107197573D01*
X137377398Y-107208298D01*
X137366673Y-107218019D01*
X137355047Y-107226642D01*
X137342631Y-107234083D01*
X137329546Y-107240272D01*
X137315917Y-107245149D01*
X137301876Y-107248666D01*
X137287558Y-107250790D01*
X137273100Y-107251500D01*
X136978100Y-107251500D01*
X136963642Y-107250790D01*
X136949324Y-107248666D01*
X136935283Y-107245149D01*
X136921654Y-107240272D01*
X136908569Y-107234083D01*
X136896153Y-107226642D01*
X136884527Y-107218019D01*
X136873802Y-107208298D01*
X136864081Y-107197573D01*
X136855458Y-107185947D01*
X136848017Y-107173531D01*
X136841828Y-107160446D01*
X136836951Y-107146817D01*
X136833434Y-107132776D01*
X136831310Y-107118458D01*
X136830600Y-107104000D01*
X136830600Y-106759000D01*
X136831310Y-106744542D01*
X136833434Y-106730224D01*
X136836951Y-106716183D01*
X136841828Y-106702554D01*
X136848017Y-106689469D01*
X136855458Y-106677053D01*
X136864081Y-106665427D01*
X136873802Y-106654702D01*
X136884527Y-106644981D01*
X136896153Y-106636358D01*
X136908569Y-106628917D01*
X136921654Y-106622728D01*
X136935283Y-106617851D01*
X136949324Y-106614334D01*
X136963642Y-106612210D01*
X136978100Y-106611500D01*
X137273100Y-106611500D01*
X137287558Y-106612210D01*
X137287558Y-106612210D01*
G37*
D13*
X137125600Y-106931500D03*
G04 #@! TD*
D12*
G04 #@! TO.C,R15*
G36*
X140335558Y-106612210D02*
X140349876Y-106614334D01*
X140363917Y-106617851D01*
X140377546Y-106622728D01*
X140390631Y-106628917D01*
X140403047Y-106636358D01*
X140414673Y-106644981D01*
X140425398Y-106654702D01*
X140435119Y-106665427D01*
X140443742Y-106677053D01*
X140451183Y-106689469D01*
X140457372Y-106702554D01*
X140462249Y-106716183D01*
X140465766Y-106730224D01*
X140467890Y-106744542D01*
X140468600Y-106759000D01*
X140468600Y-107104000D01*
X140467890Y-107118458D01*
X140465766Y-107132776D01*
X140462249Y-107146817D01*
X140457372Y-107160446D01*
X140451183Y-107173531D01*
X140443742Y-107185947D01*
X140435119Y-107197573D01*
X140425398Y-107208298D01*
X140414673Y-107218019D01*
X140403047Y-107226642D01*
X140390631Y-107234083D01*
X140377546Y-107240272D01*
X140363917Y-107245149D01*
X140349876Y-107248666D01*
X140335558Y-107250790D01*
X140321100Y-107251500D01*
X140026100Y-107251500D01*
X140011642Y-107250790D01*
X139997324Y-107248666D01*
X139983283Y-107245149D01*
X139969654Y-107240272D01*
X139956569Y-107234083D01*
X139944153Y-107226642D01*
X139932527Y-107218019D01*
X139921802Y-107208298D01*
X139912081Y-107197573D01*
X139903458Y-107185947D01*
X139896017Y-107173531D01*
X139889828Y-107160446D01*
X139884951Y-107146817D01*
X139881434Y-107132776D01*
X139879310Y-107118458D01*
X139878600Y-107104000D01*
X139878600Y-106759000D01*
X139879310Y-106744542D01*
X139881434Y-106730224D01*
X139884951Y-106716183D01*
X139889828Y-106702554D01*
X139896017Y-106689469D01*
X139903458Y-106677053D01*
X139912081Y-106665427D01*
X139921802Y-106654702D01*
X139932527Y-106644981D01*
X139944153Y-106636358D01*
X139956569Y-106628917D01*
X139969654Y-106622728D01*
X139983283Y-106617851D01*
X139997324Y-106614334D01*
X140011642Y-106612210D01*
X140026100Y-106611500D01*
X140321100Y-106611500D01*
X140335558Y-106612210D01*
X140335558Y-106612210D01*
G37*
D13*
X140173600Y-106931500D03*
D12*
G36*
X141305558Y-106612210D02*
X141319876Y-106614334D01*
X141333917Y-106617851D01*
X141347546Y-106622728D01*
X141360631Y-106628917D01*
X141373047Y-106636358D01*
X141384673Y-106644981D01*
X141395398Y-106654702D01*
X141405119Y-106665427D01*
X141413742Y-106677053D01*
X141421183Y-106689469D01*
X141427372Y-106702554D01*
X141432249Y-106716183D01*
X141435766Y-106730224D01*
X141437890Y-106744542D01*
X141438600Y-106759000D01*
X141438600Y-107104000D01*
X141437890Y-107118458D01*
X141435766Y-107132776D01*
X141432249Y-107146817D01*
X141427372Y-107160446D01*
X141421183Y-107173531D01*
X141413742Y-107185947D01*
X141405119Y-107197573D01*
X141395398Y-107208298D01*
X141384673Y-107218019D01*
X141373047Y-107226642D01*
X141360631Y-107234083D01*
X141347546Y-107240272D01*
X141333917Y-107245149D01*
X141319876Y-107248666D01*
X141305558Y-107250790D01*
X141291100Y-107251500D01*
X140996100Y-107251500D01*
X140981642Y-107250790D01*
X140967324Y-107248666D01*
X140953283Y-107245149D01*
X140939654Y-107240272D01*
X140926569Y-107234083D01*
X140914153Y-107226642D01*
X140902527Y-107218019D01*
X140891802Y-107208298D01*
X140882081Y-107197573D01*
X140873458Y-107185947D01*
X140866017Y-107173531D01*
X140859828Y-107160446D01*
X140854951Y-107146817D01*
X140851434Y-107132776D01*
X140849310Y-107118458D01*
X140848600Y-107104000D01*
X140848600Y-106759000D01*
X140849310Y-106744542D01*
X140851434Y-106730224D01*
X140854951Y-106716183D01*
X140859828Y-106702554D01*
X140866017Y-106689469D01*
X140873458Y-106677053D01*
X140882081Y-106665427D01*
X140891802Y-106654702D01*
X140902527Y-106644981D01*
X140914153Y-106636358D01*
X140926569Y-106628917D01*
X140939654Y-106622728D01*
X140953283Y-106617851D01*
X140967324Y-106614334D01*
X140981642Y-106612210D01*
X140996100Y-106611500D01*
X141291100Y-106611500D01*
X141305558Y-106612210D01*
X141305558Y-106612210D01*
G37*
D13*
X141143600Y-106931500D03*
G04 #@! TD*
D14*
G04 #@! TO.C,SW2*
X126545200Y-135439000D03*
X136045200Y-135439000D03*
X136045200Y-139939000D03*
X126545200Y-139939000D03*
G04 #@! TD*
D12*
G04 #@! TO.C,R1*
G36*
X136273558Y-132014210D02*
X136287876Y-132016334D01*
X136301917Y-132019851D01*
X136315546Y-132024728D01*
X136328631Y-132030917D01*
X136341047Y-132038358D01*
X136352673Y-132046981D01*
X136363398Y-132056702D01*
X136373119Y-132067427D01*
X136381742Y-132079053D01*
X136389183Y-132091469D01*
X136395372Y-132104554D01*
X136400249Y-132118183D01*
X136403766Y-132132224D01*
X136405890Y-132146542D01*
X136406600Y-132161000D01*
X136406600Y-132456000D01*
X136405890Y-132470458D01*
X136403766Y-132484776D01*
X136400249Y-132498817D01*
X136395372Y-132512446D01*
X136389183Y-132525531D01*
X136381742Y-132537947D01*
X136373119Y-132549573D01*
X136363398Y-132560298D01*
X136352673Y-132570019D01*
X136341047Y-132578642D01*
X136328631Y-132586083D01*
X136315546Y-132592272D01*
X136301917Y-132597149D01*
X136287876Y-132600666D01*
X136273558Y-132602790D01*
X136259100Y-132603500D01*
X135914100Y-132603500D01*
X135899642Y-132602790D01*
X135885324Y-132600666D01*
X135871283Y-132597149D01*
X135857654Y-132592272D01*
X135844569Y-132586083D01*
X135832153Y-132578642D01*
X135820527Y-132570019D01*
X135809802Y-132560298D01*
X135800081Y-132549573D01*
X135791458Y-132537947D01*
X135784017Y-132525531D01*
X135777828Y-132512446D01*
X135772951Y-132498817D01*
X135769434Y-132484776D01*
X135767310Y-132470458D01*
X135766600Y-132456000D01*
X135766600Y-132161000D01*
X135767310Y-132146542D01*
X135769434Y-132132224D01*
X135772951Y-132118183D01*
X135777828Y-132104554D01*
X135784017Y-132091469D01*
X135791458Y-132079053D01*
X135800081Y-132067427D01*
X135809802Y-132056702D01*
X135820527Y-132046981D01*
X135832153Y-132038358D01*
X135844569Y-132030917D01*
X135857654Y-132024728D01*
X135871283Y-132019851D01*
X135885324Y-132016334D01*
X135899642Y-132014210D01*
X135914100Y-132013500D01*
X136259100Y-132013500D01*
X136273558Y-132014210D01*
X136273558Y-132014210D01*
G37*
D13*
X136086600Y-132308500D03*
D12*
G36*
X136273558Y-132984210D02*
X136287876Y-132986334D01*
X136301917Y-132989851D01*
X136315546Y-132994728D01*
X136328631Y-133000917D01*
X136341047Y-133008358D01*
X136352673Y-133016981D01*
X136363398Y-133026702D01*
X136373119Y-133037427D01*
X136381742Y-133049053D01*
X136389183Y-133061469D01*
X136395372Y-133074554D01*
X136400249Y-133088183D01*
X136403766Y-133102224D01*
X136405890Y-133116542D01*
X136406600Y-133131000D01*
X136406600Y-133426000D01*
X136405890Y-133440458D01*
X136403766Y-133454776D01*
X136400249Y-133468817D01*
X136395372Y-133482446D01*
X136389183Y-133495531D01*
X136381742Y-133507947D01*
X136373119Y-133519573D01*
X136363398Y-133530298D01*
X136352673Y-133540019D01*
X136341047Y-133548642D01*
X136328631Y-133556083D01*
X136315546Y-133562272D01*
X136301917Y-133567149D01*
X136287876Y-133570666D01*
X136273558Y-133572790D01*
X136259100Y-133573500D01*
X135914100Y-133573500D01*
X135899642Y-133572790D01*
X135885324Y-133570666D01*
X135871283Y-133567149D01*
X135857654Y-133562272D01*
X135844569Y-133556083D01*
X135832153Y-133548642D01*
X135820527Y-133540019D01*
X135809802Y-133530298D01*
X135800081Y-133519573D01*
X135791458Y-133507947D01*
X135784017Y-133495531D01*
X135777828Y-133482446D01*
X135772951Y-133468817D01*
X135769434Y-133454776D01*
X135767310Y-133440458D01*
X135766600Y-133426000D01*
X135766600Y-133131000D01*
X135767310Y-133116542D01*
X135769434Y-133102224D01*
X135772951Y-133088183D01*
X135777828Y-133074554D01*
X135784017Y-133061469D01*
X135791458Y-133049053D01*
X135800081Y-133037427D01*
X135809802Y-133026702D01*
X135820527Y-133016981D01*
X135832153Y-133008358D01*
X135844569Y-133000917D01*
X135857654Y-132994728D01*
X135871283Y-132989851D01*
X135885324Y-132986334D01*
X135899642Y-132984210D01*
X135914100Y-132983500D01*
X136259100Y-132983500D01*
X136273558Y-132984210D01*
X136273558Y-132984210D01*
G37*
D13*
X136086600Y-133278500D03*
G04 #@! TD*
D15*
G04 #@! TO.C,U7*
X105632100Y-139521101D03*
X105632100Y-139021099D03*
X105632100Y-138521100D03*
X105632100Y-138021101D03*
X105632100Y-137521100D03*
X105632100Y-137021101D03*
X105632100Y-136521099D03*
X105632100Y-136021100D03*
X105632100Y-135521101D03*
X105632100Y-135021100D03*
X105632100Y-134521101D03*
X105632100Y-134021099D03*
X105632100Y-133521100D03*
X105632100Y-133021101D03*
X105632100Y-132521099D03*
X105632100Y-132021100D03*
X105632100Y-131521099D03*
X105632100Y-131021100D03*
X105632100Y-130521101D03*
X105632100Y-130021099D03*
X105632100Y-129521100D03*
X105632100Y-129021099D03*
X105632100Y-128521100D03*
X105632100Y-128021101D03*
X105632100Y-127521099D03*
D16*
X107252099Y-125901100D03*
X107752101Y-125901100D03*
X108252100Y-125901100D03*
X108752099Y-125901100D03*
X109252100Y-125901100D03*
X109752099Y-125901100D03*
X110252101Y-125901100D03*
X110752100Y-125901100D03*
X111252099Y-125901100D03*
X111752100Y-125901100D03*
X112252099Y-125901100D03*
X112752101Y-125901100D03*
X113252100Y-125901100D03*
X113752099Y-125901100D03*
X114252101Y-125901100D03*
X114752100Y-125901100D03*
X115252101Y-125901100D03*
X115752100Y-125901100D03*
X116252099Y-125901100D03*
X116752101Y-125901100D03*
X117252100Y-125901100D03*
X117752101Y-125901100D03*
X118252100Y-125901100D03*
X118752099Y-125901100D03*
X119252101Y-125901100D03*
D15*
X120872100Y-127521099D03*
X120872100Y-128021101D03*
X120872100Y-128521100D03*
X120872100Y-129021099D03*
X120872100Y-129521100D03*
X120872100Y-130021099D03*
X120872100Y-130521101D03*
X120872100Y-131021100D03*
X120872100Y-131521099D03*
X120872100Y-132021100D03*
X120872100Y-132521099D03*
X120872100Y-133021101D03*
X120872100Y-133521100D03*
X120872100Y-134021099D03*
X120872100Y-134521101D03*
X120872100Y-135021100D03*
X120872100Y-135521101D03*
X120872100Y-136021100D03*
X120872100Y-136521099D03*
X120872100Y-137021101D03*
X120872100Y-137521100D03*
X120872100Y-138021101D03*
X120872100Y-138521100D03*
X120872100Y-139021099D03*
X120872100Y-139521101D03*
D16*
X119252101Y-141141100D03*
X118752099Y-141141100D03*
X118252100Y-141141100D03*
X117752099Y-141141100D03*
X117252100Y-141141100D03*
X116752101Y-141141100D03*
X116252099Y-141141100D03*
X115752100Y-141141100D03*
X115252099Y-141141100D03*
X114752100Y-141141100D03*
X114252101Y-141141100D03*
X113752099Y-141141100D03*
X113252100Y-141141100D03*
X112752098Y-141141100D03*
X112252099Y-141141100D03*
X111752100Y-141141100D03*
X111252099Y-141141100D03*
X110752100Y-141141100D03*
X110252101Y-141141100D03*
X109752099Y-141141100D03*
X109252100Y-141141100D03*
X108752099Y-141141100D03*
X108252100Y-141141100D03*
X107752101Y-141141100D03*
X107252099Y-141141100D03*
G04 #@! TD*
D12*
G04 #@! TO.C,C2*
G36*
X110658742Y-122599674D02*
X110682403Y-122603184D01*
X110705607Y-122608996D01*
X110728129Y-122617054D01*
X110749753Y-122627282D01*
X110770270Y-122639579D01*
X110789483Y-122653829D01*
X110807207Y-122669893D01*
X110823271Y-122687617D01*
X110837521Y-122706830D01*
X110849818Y-122727347D01*
X110860046Y-122748971D01*
X110868104Y-122771493D01*
X110873916Y-122794697D01*
X110877426Y-122818358D01*
X110878600Y-122842250D01*
X110878600Y-123329750D01*
X110877426Y-123353642D01*
X110873916Y-123377303D01*
X110868104Y-123400507D01*
X110860046Y-123423029D01*
X110849818Y-123444653D01*
X110837521Y-123465170D01*
X110823271Y-123484383D01*
X110807207Y-123502107D01*
X110789483Y-123518171D01*
X110770270Y-123532421D01*
X110749753Y-123544718D01*
X110728129Y-123554946D01*
X110705607Y-123563004D01*
X110682403Y-123568816D01*
X110658742Y-123572326D01*
X110634850Y-123573500D01*
X109722350Y-123573500D01*
X109698458Y-123572326D01*
X109674797Y-123568816D01*
X109651593Y-123563004D01*
X109629071Y-123554946D01*
X109607447Y-123544718D01*
X109586930Y-123532421D01*
X109567717Y-123518171D01*
X109549993Y-123502107D01*
X109533929Y-123484383D01*
X109519679Y-123465170D01*
X109507382Y-123444653D01*
X109497154Y-123423029D01*
X109489096Y-123400507D01*
X109483284Y-123377303D01*
X109479774Y-123353642D01*
X109478600Y-123329750D01*
X109478600Y-122842250D01*
X109479774Y-122818358D01*
X109483284Y-122794697D01*
X109489096Y-122771493D01*
X109497154Y-122748971D01*
X109507382Y-122727347D01*
X109519679Y-122706830D01*
X109533929Y-122687617D01*
X109549993Y-122669893D01*
X109567717Y-122653829D01*
X109586930Y-122639579D01*
X109607447Y-122627282D01*
X109629071Y-122617054D01*
X109651593Y-122608996D01*
X109674797Y-122603184D01*
X109698458Y-122599674D01*
X109722350Y-122598500D01*
X110634850Y-122598500D01*
X110658742Y-122599674D01*
X110658742Y-122599674D01*
G37*
D17*
X110178600Y-123086000D03*
D12*
G36*
X110658742Y-120724674D02*
X110682403Y-120728184D01*
X110705607Y-120733996D01*
X110728129Y-120742054D01*
X110749753Y-120752282D01*
X110770270Y-120764579D01*
X110789483Y-120778829D01*
X110807207Y-120794893D01*
X110823271Y-120812617D01*
X110837521Y-120831830D01*
X110849818Y-120852347D01*
X110860046Y-120873971D01*
X110868104Y-120896493D01*
X110873916Y-120919697D01*
X110877426Y-120943358D01*
X110878600Y-120967250D01*
X110878600Y-121454750D01*
X110877426Y-121478642D01*
X110873916Y-121502303D01*
X110868104Y-121525507D01*
X110860046Y-121548029D01*
X110849818Y-121569653D01*
X110837521Y-121590170D01*
X110823271Y-121609383D01*
X110807207Y-121627107D01*
X110789483Y-121643171D01*
X110770270Y-121657421D01*
X110749753Y-121669718D01*
X110728129Y-121679946D01*
X110705607Y-121688004D01*
X110682403Y-121693816D01*
X110658742Y-121697326D01*
X110634850Y-121698500D01*
X109722350Y-121698500D01*
X109698458Y-121697326D01*
X109674797Y-121693816D01*
X109651593Y-121688004D01*
X109629071Y-121679946D01*
X109607447Y-121669718D01*
X109586930Y-121657421D01*
X109567717Y-121643171D01*
X109549993Y-121627107D01*
X109533929Y-121609383D01*
X109519679Y-121590170D01*
X109507382Y-121569653D01*
X109497154Y-121548029D01*
X109489096Y-121525507D01*
X109483284Y-121502303D01*
X109479774Y-121478642D01*
X109478600Y-121454750D01*
X109478600Y-120967250D01*
X109479774Y-120943358D01*
X109483284Y-120919697D01*
X109489096Y-120896493D01*
X109497154Y-120873971D01*
X109507382Y-120852347D01*
X109519679Y-120831830D01*
X109533929Y-120812617D01*
X109549993Y-120794893D01*
X109567717Y-120778829D01*
X109586930Y-120764579D01*
X109607447Y-120752282D01*
X109629071Y-120742054D01*
X109651593Y-120733996D01*
X109674797Y-120728184D01*
X109698458Y-120724674D01*
X109722350Y-120723500D01*
X110634850Y-120723500D01*
X110658742Y-120724674D01*
X110658742Y-120724674D01*
G37*
D17*
X110178600Y-121211000D03*
G04 #@! TD*
D18*
G04 #@! TO.C,J1*
X102373600Y-105453500D03*
X107853600Y-105453500D03*
D19*
X108073600Y-106203500D03*
X102123600Y-106203500D03*
D20*
X107973600Y-107503500D03*
X102223600Y-107523500D03*
D21*
X106423600Y-107403500D03*
X105773600Y-107403500D03*
X105123600Y-107403500D03*
X104473600Y-107403500D03*
X103823600Y-107403500D03*
D22*
X106083600Y-104253500D03*
X104163600Y-104253500D03*
G04 #@! TD*
D10*
G04 #@! TO.C,D19*
X132403700Y-155660500D03*
X131453700Y-153660500D03*
X133353700Y-153660500D03*
G04 #@! TD*
G04 #@! TO.C,D20*
X137467700Y-155612825D03*
X136517700Y-153612825D03*
X138417700Y-153612825D03*
G04 #@! TD*
D12*
G04 #@! TO.C,C18*
G36*
X130441388Y-125323014D02*
X130455706Y-125325138D01*
X130469747Y-125328655D01*
X130483376Y-125333532D01*
X130496461Y-125339721D01*
X130508877Y-125347162D01*
X130520503Y-125355785D01*
X130531228Y-125365506D01*
X130540949Y-125376231D01*
X130549572Y-125387857D01*
X130557013Y-125400273D01*
X130563202Y-125413358D01*
X130568079Y-125426987D01*
X130571596Y-125441028D01*
X130573720Y-125455346D01*
X130574430Y-125469804D01*
X130574430Y-125764804D01*
X130573720Y-125779262D01*
X130571596Y-125793580D01*
X130568079Y-125807621D01*
X130563202Y-125821250D01*
X130557013Y-125834335D01*
X130549572Y-125846751D01*
X130540949Y-125858377D01*
X130531228Y-125869102D01*
X130520503Y-125878823D01*
X130508877Y-125887446D01*
X130496461Y-125894887D01*
X130483376Y-125901076D01*
X130469747Y-125905953D01*
X130455706Y-125909470D01*
X130441388Y-125911594D01*
X130426930Y-125912304D01*
X130081930Y-125912304D01*
X130067472Y-125911594D01*
X130053154Y-125909470D01*
X130039113Y-125905953D01*
X130025484Y-125901076D01*
X130012399Y-125894887D01*
X129999983Y-125887446D01*
X129988357Y-125878823D01*
X129977632Y-125869102D01*
X129967911Y-125858377D01*
X129959288Y-125846751D01*
X129951847Y-125834335D01*
X129945658Y-125821250D01*
X129940781Y-125807621D01*
X129937264Y-125793580D01*
X129935140Y-125779262D01*
X129934430Y-125764804D01*
X129934430Y-125469804D01*
X129935140Y-125455346D01*
X129937264Y-125441028D01*
X129940781Y-125426987D01*
X129945658Y-125413358D01*
X129951847Y-125400273D01*
X129959288Y-125387857D01*
X129967911Y-125376231D01*
X129977632Y-125365506D01*
X129988357Y-125355785D01*
X129999983Y-125347162D01*
X130012399Y-125339721D01*
X130025484Y-125333532D01*
X130039113Y-125328655D01*
X130053154Y-125325138D01*
X130067472Y-125323014D01*
X130081930Y-125322304D01*
X130426930Y-125322304D01*
X130441388Y-125323014D01*
X130441388Y-125323014D01*
G37*
D13*
X130254430Y-125617304D03*
D12*
G36*
X130441388Y-126293014D02*
X130455706Y-126295138D01*
X130469747Y-126298655D01*
X130483376Y-126303532D01*
X130496461Y-126309721D01*
X130508877Y-126317162D01*
X130520503Y-126325785D01*
X130531228Y-126335506D01*
X130540949Y-126346231D01*
X130549572Y-126357857D01*
X130557013Y-126370273D01*
X130563202Y-126383358D01*
X130568079Y-126396987D01*
X130571596Y-126411028D01*
X130573720Y-126425346D01*
X130574430Y-126439804D01*
X130574430Y-126734804D01*
X130573720Y-126749262D01*
X130571596Y-126763580D01*
X130568079Y-126777621D01*
X130563202Y-126791250D01*
X130557013Y-126804335D01*
X130549572Y-126816751D01*
X130540949Y-126828377D01*
X130531228Y-126839102D01*
X130520503Y-126848823D01*
X130508877Y-126857446D01*
X130496461Y-126864887D01*
X130483376Y-126871076D01*
X130469747Y-126875953D01*
X130455706Y-126879470D01*
X130441388Y-126881594D01*
X130426930Y-126882304D01*
X130081930Y-126882304D01*
X130067472Y-126881594D01*
X130053154Y-126879470D01*
X130039113Y-126875953D01*
X130025484Y-126871076D01*
X130012399Y-126864887D01*
X129999983Y-126857446D01*
X129988357Y-126848823D01*
X129977632Y-126839102D01*
X129967911Y-126828377D01*
X129959288Y-126816751D01*
X129951847Y-126804335D01*
X129945658Y-126791250D01*
X129940781Y-126777621D01*
X129937264Y-126763580D01*
X129935140Y-126749262D01*
X129934430Y-126734804D01*
X129934430Y-126439804D01*
X129935140Y-126425346D01*
X129937264Y-126411028D01*
X129940781Y-126396987D01*
X129945658Y-126383358D01*
X129951847Y-126370273D01*
X129959288Y-126357857D01*
X129967911Y-126346231D01*
X129977632Y-126335506D01*
X129988357Y-126325785D01*
X129999983Y-126317162D01*
X130012399Y-126309721D01*
X130025484Y-126303532D01*
X130039113Y-126298655D01*
X130053154Y-126295138D01*
X130067472Y-126293014D01*
X130081930Y-126292304D01*
X130426930Y-126292304D01*
X130441388Y-126293014D01*
X130441388Y-126293014D01*
G37*
D13*
X130254430Y-126587304D03*
G04 #@! TD*
D12*
G04 #@! TO.C,C19*
G36*
X123837388Y-126293014D02*
X123851706Y-126295138D01*
X123865747Y-126298655D01*
X123879376Y-126303532D01*
X123892461Y-126309721D01*
X123904877Y-126317162D01*
X123916503Y-126325785D01*
X123927228Y-126335506D01*
X123936949Y-126346231D01*
X123945572Y-126357857D01*
X123953013Y-126370273D01*
X123959202Y-126383358D01*
X123964079Y-126396987D01*
X123967596Y-126411028D01*
X123969720Y-126425346D01*
X123970430Y-126439804D01*
X123970430Y-126734804D01*
X123969720Y-126749262D01*
X123967596Y-126763580D01*
X123964079Y-126777621D01*
X123959202Y-126791250D01*
X123953013Y-126804335D01*
X123945572Y-126816751D01*
X123936949Y-126828377D01*
X123927228Y-126839102D01*
X123916503Y-126848823D01*
X123904877Y-126857446D01*
X123892461Y-126864887D01*
X123879376Y-126871076D01*
X123865747Y-126875953D01*
X123851706Y-126879470D01*
X123837388Y-126881594D01*
X123822930Y-126882304D01*
X123477930Y-126882304D01*
X123463472Y-126881594D01*
X123449154Y-126879470D01*
X123435113Y-126875953D01*
X123421484Y-126871076D01*
X123408399Y-126864887D01*
X123395983Y-126857446D01*
X123384357Y-126848823D01*
X123373632Y-126839102D01*
X123363911Y-126828377D01*
X123355288Y-126816751D01*
X123347847Y-126804335D01*
X123341658Y-126791250D01*
X123336781Y-126777621D01*
X123333264Y-126763580D01*
X123331140Y-126749262D01*
X123330430Y-126734804D01*
X123330430Y-126439804D01*
X123331140Y-126425346D01*
X123333264Y-126411028D01*
X123336781Y-126396987D01*
X123341658Y-126383358D01*
X123347847Y-126370273D01*
X123355288Y-126357857D01*
X123363911Y-126346231D01*
X123373632Y-126335506D01*
X123384357Y-126325785D01*
X123395983Y-126317162D01*
X123408399Y-126309721D01*
X123421484Y-126303532D01*
X123435113Y-126298655D01*
X123449154Y-126295138D01*
X123463472Y-126293014D01*
X123477930Y-126292304D01*
X123822930Y-126292304D01*
X123837388Y-126293014D01*
X123837388Y-126293014D01*
G37*
D13*
X123650430Y-126587304D03*
D12*
G36*
X123837388Y-125323014D02*
X123851706Y-125325138D01*
X123865747Y-125328655D01*
X123879376Y-125333532D01*
X123892461Y-125339721D01*
X123904877Y-125347162D01*
X123916503Y-125355785D01*
X123927228Y-125365506D01*
X123936949Y-125376231D01*
X123945572Y-125387857D01*
X123953013Y-125400273D01*
X123959202Y-125413358D01*
X123964079Y-125426987D01*
X123967596Y-125441028D01*
X123969720Y-125455346D01*
X123970430Y-125469804D01*
X123970430Y-125764804D01*
X123969720Y-125779262D01*
X123967596Y-125793580D01*
X123964079Y-125807621D01*
X123959202Y-125821250D01*
X123953013Y-125834335D01*
X123945572Y-125846751D01*
X123936949Y-125858377D01*
X123927228Y-125869102D01*
X123916503Y-125878823D01*
X123904877Y-125887446D01*
X123892461Y-125894887D01*
X123879376Y-125901076D01*
X123865747Y-125905953D01*
X123851706Y-125909470D01*
X123837388Y-125911594D01*
X123822930Y-125912304D01*
X123477930Y-125912304D01*
X123463472Y-125911594D01*
X123449154Y-125909470D01*
X123435113Y-125905953D01*
X123421484Y-125901076D01*
X123408399Y-125894887D01*
X123395983Y-125887446D01*
X123384357Y-125878823D01*
X123373632Y-125869102D01*
X123363911Y-125858377D01*
X123355288Y-125846751D01*
X123347847Y-125834335D01*
X123341658Y-125821250D01*
X123336781Y-125807621D01*
X123333264Y-125793580D01*
X123331140Y-125779262D01*
X123330430Y-125764804D01*
X123330430Y-125469804D01*
X123331140Y-125455346D01*
X123333264Y-125441028D01*
X123336781Y-125426987D01*
X123341658Y-125413358D01*
X123347847Y-125400273D01*
X123355288Y-125387857D01*
X123363911Y-125376231D01*
X123373632Y-125365506D01*
X123384357Y-125355785D01*
X123395983Y-125347162D01*
X123408399Y-125339721D01*
X123421484Y-125333532D01*
X123435113Y-125328655D01*
X123449154Y-125325138D01*
X123463472Y-125323014D01*
X123477930Y-125322304D01*
X123822930Y-125322304D01*
X123837388Y-125323014D01*
X123837388Y-125323014D01*
G37*
D13*
X123650430Y-125617304D03*
G04 #@! TD*
D23*
G04 #@! TO.C,Y1*
X130158430Y-130054304D03*
X123658430Y-130054304D03*
G04 #@! TD*
D10*
G04 #@! TO.C,D11*
X104762100Y-146024500D03*
X105712100Y-148024500D03*
X103812100Y-148024500D03*
G04 #@! TD*
G04 #@! TO.C,D12*
X114459885Y-146151500D03*
X115409885Y-148151500D03*
X113509885Y-148151500D03*
G04 #@! TD*
G04 #@! TO.C,D13*
X124193100Y-146405500D03*
X125143100Y-148405500D03*
X123243100Y-148405500D03*
G04 #@! TD*
D11*
G04 #@! TO.C,D14*
X101345585Y-141094295D03*
X103345585Y-140144295D03*
X103345585Y-142044295D03*
G04 #@! TD*
G04 #@! TO.C,D7*
X130479900Y-120958300D03*
X132479900Y-120008300D03*
X132479900Y-121908300D03*
G04 #@! TD*
D10*
G04 #@! TO.C,D8*
X88360100Y-136934100D03*
X87410100Y-134934100D03*
X89310100Y-134934100D03*
G04 #@! TD*
G04 #@! TO.C,D10*
X88360100Y-128806100D03*
X87410100Y-126806100D03*
X89310100Y-126806100D03*
G04 #@! TD*
D11*
G04 #@! TO.C,D5*
X122859900Y-121024300D03*
X124859900Y-120074300D03*
X124859900Y-121974300D03*
G04 #@! TD*
D24*
G04 #@! TO.C,U9*
X104076600Y-112364500D03*
X104076600Y-111414500D03*
X104076600Y-110464500D03*
X106876600Y-112364500D03*
X106876600Y-111414500D03*
X106876600Y-110464500D03*
G04 #@! TD*
D12*
G04 #@! TO.C,R10*
G36*
X111908443Y-122177810D02*
X111922761Y-122179934D01*
X111936802Y-122183451D01*
X111950431Y-122188328D01*
X111963516Y-122194517D01*
X111975932Y-122201958D01*
X111987558Y-122210581D01*
X111998283Y-122220302D01*
X112008004Y-122231027D01*
X112016627Y-122242653D01*
X112024068Y-122255069D01*
X112030257Y-122268154D01*
X112035134Y-122281783D01*
X112038651Y-122295824D01*
X112040775Y-122310142D01*
X112041485Y-122324600D01*
X112041485Y-122619600D01*
X112040775Y-122634058D01*
X112038651Y-122648376D01*
X112035134Y-122662417D01*
X112030257Y-122676046D01*
X112024068Y-122689131D01*
X112016627Y-122701547D01*
X112008004Y-122713173D01*
X111998283Y-122723898D01*
X111987558Y-122733619D01*
X111975932Y-122742242D01*
X111963516Y-122749683D01*
X111950431Y-122755872D01*
X111936802Y-122760749D01*
X111922761Y-122764266D01*
X111908443Y-122766390D01*
X111893985Y-122767100D01*
X111548985Y-122767100D01*
X111534527Y-122766390D01*
X111520209Y-122764266D01*
X111506168Y-122760749D01*
X111492539Y-122755872D01*
X111479454Y-122749683D01*
X111467038Y-122742242D01*
X111455412Y-122733619D01*
X111444687Y-122723898D01*
X111434966Y-122713173D01*
X111426343Y-122701547D01*
X111418902Y-122689131D01*
X111412713Y-122676046D01*
X111407836Y-122662417D01*
X111404319Y-122648376D01*
X111402195Y-122634058D01*
X111401485Y-122619600D01*
X111401485Y-122324600D01*
X111402195Y-122310142D01*
X111404319Y-122295824D01*
X111407836Y-122281783D01*
X111412713Y-122268154D01*
X111418902Y-122255069D01*
X111426343Y-122242653D01*
X111434966Y-122231027D01*
X111444687Y-122220302D01*
X111455412Y-122210581D01*
X111467038Y-122201958D01*
X111479454Y-122194517D01*
X111492539Y-122188328D01*
X111506168Y-122183451D01*
X111520209Y-122179934D01*
X111534527Y-122177810D01*
X111548985Y-122177100D01*
X111893985Y-122177100D01*
X111908443Y-122177810D01*
X111908443Y-122177810D01*
G37*
D13*
X111721485Y-122472100D03*
D12*
G36*
X111908443Y-123147810D02*
X111922761Y-123149934D01*
X111936802Y-123153451D01*
X111950431Y-123158328D01*
X111963516Y-123164517D01*
X111975932Y-123171958D01*
X111987558Y-123180581D01*
X111998283Y-123190302D01*
X112008004Y-123201027D01*
X112016627Y-123212653D01*
X112024068Y-123225069D01*
X112030257Y-123238154D01*
X112035134Y-123251783D01*
X112038651Y-123265824D01*
X112040775Y-123280142D01*
X112041485Y-123294600D01*
X112041485Y-123589600D01*
X112040775Y-123604058D01*
X112038651Y-123618376D01*
X112035134Y-123632417D01*
X112030257Y-123646046D01*
X112024068Y-123659131D01*
X112016627Y-123671547D01*
X112008004Y-123683173D01*
X111998283Y-123693898D01*
X111987558Y-123703619D01*
X111975932Y-123712242D01*
X111963516Y-123719683D01*
X111950431Y-123725872D01*
X111936802Y-123730749D01*
X111922761Y-123734266D01*
X111908443Y-123736390D01*
X111893985Y-123737100D01*
X111548985Y-123737100D01*
X111534527Y-123736390D01*
X111520209Y-123734266D01*
X111506168Y-123730749D01*
X111492539Y-123725872D01*
X111479454Y-123719683D01*
X111467038Y-123712242D01*
X111455412Y-123703619D01*
X111444687Y-123693898D01*
X111434966Y-123683173D01*
X111426343Y-123671547D01*
X111418902Y-123659131D01*
X111412713Y-123646046D01*
X111407836Y-123632417D01*
X111404319Y-123618376D01*
X111402195Y-123604058D01*
X111401485Y-123589600D01*
X111401485Y-123294600D01*
X111402195Y-123280142D01*
X111404319Y-123265824D01*
X111407836Y-123251783D01*
X111412713Y-123238154D01*
X111418902Y-123225069D01*
X111426343Y-123212653D01*
X111434966Y-123201027D01*
X111444687Y-123190302D01*
X111455412Y-123180581D01*
X111467038Y-123171958D01*
X111479454Y-123164517D01*
X111492539Y-123158328D01*
X111506168Y-123153451D01*
X111520209Y-123149934D01*
X111534527Y-123147810D01*
X111548985Y-123147100D01*
X111893985Y-123147100D01*
X111908443Y-123147810D01*
X111908443Y-123147810D01*
G37*
D13*
X111721485Y-123442100D03*
G04 #@! TD*
D12*
G04 #@! TO.C,C1*
G36*
X108762892Y-123030883D02*
X108770610Y-123032028D01*
X108778178Y-123033923D01*
X108785523Y-123036552D01*
X108792576Y-123039887D01*
X108799268Y-123043898D01*
X108805534Y-123048546D01*
X108811315Y-123053785D01*
X108816554Y-123059566D01*
X108821202Y-123065832D01*
X108825213Y-123072524D01*
X108828548Y-123079577D01*
X108831177Y-123086922D01*
X108833072Y-123094490D01*
X108834217Y-123102208D01*
X108834600Y-123110000D01*
X108834600Y-123269000D01*
X108834217Y-123276792D01*
X108833072Y-123284510D01*
X108831177Y-123292078D01*
X108828548Y-123299423D01*
X108825213Y-123306476D01*
X108821202Y-123313168D01*
X108816554Y-123319434D01*
X108811315Y-123325215D01*
X108805534Y-123330454D01*
X108799268Y-123335102D01*
X108792576Y-123339113D01*
X108785523Y-123342448D01*
X108778178Y-123345077D01*
X108770610Y-123346972D01*
X108762892Y-123348117D01*
X108755100Y-123348500D01*
X108554100Y-123348500D01*
X108546308Y-123348117D01*
X108538590Y-123346972D01*
X108531022Y-123345077D01*
X108523677Y-123342448D01*
X108516624Y-123339113D01*
X108509932Y-123335102D01*
X108503666Y-123330454D01*
X108497885Y-123325215D01*
X108492646Y-123319434D01*
X108487998Y-123313168D01*
X108483987Y-123306476D01*
X108480652Y-123299423D01*
X108478023Y-123292078D01*
X108476128Y-123284510D01*
X108474983Y-123276792D01*
X108474600Y-123269000D01*
X108474600Y-123110000D01*
X108474983Y-123102208D01*
X108476128Y-123094490D01*
X108478023Y-123086922D01*
X108480652Y-123079577D01*
X108483987Y-123072524D01*
X108487998Y-123065832D01*
X108492646Y-123059566D01*
X108497885Y-123053785D01*
X108503666Y-123048546D01*
X108509932Y-123043898D01*
X108516624Y-123039887D01*
X108523677Y-123036552D01*
X108531022Y-123033923D01*
X108538590Y-123032028D01*
X108546308Y-123030883D01*
X108554100Y-123030500D01*
X108755100Y-123030500D01*
X108762892Y-123030883D01*
X108762892Y-123030883D01*
G37*
D25*
X108654600Y-123189500D03*
D12*
G36*
X108762892Y-122340883D02*
X108770610Y-122342028D01*
X108778178Y-122343923D01*
X108785523Y-122346552D01*
X108792576Y-122349887D01*
X108799268Y-122353898D01*
X108805534Y-122358546D01*
X108811315Y-122363785D01*
X108816554Y-122369566D01*
X108821202Y-122375832D01*
X108825213Y-122382524D01*
X108828548Y-122389577D01*
X108831177Y-122396922D01*
X108833072Y-122404490D01*
X108834217Y-122412208D01*
X108834600Y-122420000D01*
X108834600Y-122579000D01*
X108834217Y-122586792D01*
X108833072Y-122594510D01*
X108831177Y-122602078D01*
X108828548Y-122609423D01*
X108825213Y-122616476D01*
X108821202Y-122623168D01*
X108816554Y-122629434D01*
X108811315Y-122635215D01*
X108805534Y-122640454D01*
X108799268Y-122645102D01*
X108792576Y-122649113D01*
X108785523Y-122652448D01*
X108778178Y-122655077D01*
X108770610Y-122656972D01*
X108762892Y-122658117D01*
X108755100Y-122658500D01*
X108554100Y-122658500D01*
X108546308Y-122658117D01*
X108538590Y-122656972D01*
X108531022Y-122655077D01*
X108523677Y-122652448D01*
X108516624Y-122649113D01*
X108509932Y-122645102D01*
X108503666Y-122640454D01*
X108497885Y-122635215D01*
X108492646Y-122629434D01*
X108487998Y-122623168D01*
X108483987Y-122616476D01*
X108480652Y-122609423D01*
X108478023Y-122602078D01*
X108476128Y-122594510D01*
X108474983Y-122586792D01*
X108474600Y-122579000D01*
X108474600Y-122420000D01*
X108474983Y-122412208D01*
X108476128Y-122404490D01*
X108478023Y-122396922D01*
X108480652Y-122389577D01*
X108483987Y-122382524D01*
X108487998Y-122375832D01*
X108492646Y-122369566D01*
X108497885Y-122363785D01*
X108503666Y-122358546D01*
X108509932Y-122353898D01*
X108516624Y-122349887D01*
X108523677Y-122346552D01*
X108531022Y-122343923D01*
X108538590Y-122342028D01*
X108546308Y-122340883D01*
X108554100Y-122340500D01*
X108755100Y-122340500D01*
X108762892Y-122340883D01*
X108762892Y-122340883D01*
G37*
D25*
X108654600Y-122499500D03*
G04 #@! TD*
D12*
G04 #@! TO.C,C3*
G36*
X123573558Y-139634210D02*
X123587876Y-139636334D01*
X123601917Y-139639851D01*
X123615546Y-139644728D01*
X123628631Y-139650917D01*
X123641047Y-139658358D01*
X123652673Y-139666981D01*
X123663398Y-139676702D01*
X123673119Y-139687427D01*
X123681742Y-139699053D01*
X123689183Y-139711469D01*
X123695372Y-139724554D01*
X123700249Y-139738183D01*
X123703766Y-139752224D01*
X123705890Y-139766542D01*
X123706600Y-139781000D01*
X123706600Y-140076000D01*
X123705890Y-140090458D01*
X123703766Y-140104776D01*
X123700249Y-140118817D01*
X123695372Y-140132446D01*
X123689183Y-140145531D01*
X123681742Y-140157947D01*
X123673119Y-140169573D01*
X123663398Y-140180298D01*
X123652673Y-140190019D01*
X123641047Y-140198642D01*
X123628631Y-140206083D01*
X123615546Y-140212272D01*
X123601917Y-140217149D01*
X123587876Y-140220666D01*
X123573558Y-140222790D01*
X123559100Y-140223500D01*
X123214100Y-140223500D01*
X123199642Y-140222790D01*
X123185324Y-140220666D01*
X123171283Y-140217149D01*
X123157654Y-140212272D01*
X123144569Y-140206083D01*
X123132153Y-140198642D01*
X123120527Y-140190019D01*
X123109802Y-140180298D01*
X123100081Y-140169573D01*
X123091458Y-140157947D01*
X123084017Y-140145531D01*
X123077828Y-140132446D01*
X123072951Y-140118817D01*
X123069434Y-140104776D01*
X123067310Y-140090458D01*
X123066600Y-140076000D01*
X123066600Y-139781000D01*
X123067310Y-139766542D01*
X123069434Y-139752224D01*
X123072951Y-139738183D01*
X123077828Y-139724554D01*
X123084017Y-139711469D01*
X123091458Y-139699053D01*
X123100081Y-139687427D01*
X123109802Y-139676702D01*
X123120527Y-139666981D01*
X123132153Y-139658358D01*
X123144569Y-139650917D01*
X123157654Y-139644728D01*
X123171283Y-139639851D01*
X123185324Y-139636334D01*
X123199642Y-139634210D01*
X123214100Y-139633500D01*
X123559100Y-139633500D01*
X123573558Y-139634210D01*
X123573558Y-139634210D01*
G37*
D13*
X123386600Y-139928500D03*
D12*
G36*
X123573558Y-140604210D02*
X123587876Y-140606334D01*
X123601917Y-140609851D01*
X123615546Y-140614728D01*
X123628631Y-140620917D01*
X123641047Y-140628358D01*
X123652673Y-140636981D01*
X123663398Y-140646702D01*
X123673119Y-140657427D01*
X123681742Y-140669053D01*
X123689183Y-140681469D01*
X123695372Y-140694554D01*
X123700249Y-140708183D01*
X123703766Y-140722224D01*
X123705890Y-140736542D01*
X123706600Y-140751000D01*
X123706600Y-141046000D01*
X123705890Y-141060458D01*
X123703766Y-141074776D01*
X123700249Y-141088817D01*
X123695372Y-141102446D01*
X123689183Y-141115531D01*
X123681742Y-141127947D01*
X123673119Y-141139573D01*
X123663398Y-141150298D01*
X123652673Y-141160019D01*
X123641047Y-141168642D01*
X123628631Y-141176083D01*
X123615546Y-141182272D01*
X123601917Y-141187149D01*
X123587876Y-141190666D01*
X123573558Y-141192790D01*
X123559100Y-141193500D01*
X123214100Y-141193500D01*
X123199642Y-141192790D01*
X123185324Y-141190666D01*
X123171283Y-141187149D01*
X123157654Y-141182272D01*
X123144569Y-141176083D01*
X123132153Y-141168642D01*
X123120527Y-141160019D01*
X123109802Y-141150298D01*
X123100081Y-141139573D01*
X123091458Y-141127947D01*
X123084017Y-141115531D01*
X123077828Y-141102446D01*
X123072951Y-141088817D01*
X123069434Y-141074776D01*
X123067310Y-141060458D01*
X123066600Y-141046000D01*
X123066600Y-140751000D01*
X123067310Y-140736542D01*
X123069434Y-140722224D01*
X123072951Y-140708183D01*
X123077828Y-140694554D01*
X123084017Y-140681469D01*
X123091458Y-140669053D01*
X123100081Y-140657427D01*
X123109802Y-140646702D01*
X123120527Y-140636981D01*
X123132153Y-140628358D01*
X123144569Y-140620917D01*
X123157654Y-140614728D01*
X123171283Y-140609851D01*
X123185324Y-140606334D01*
X123199642Y-140604210D01*
X123214100Y-140603500D01*
X123559100Y-140603500D01*
X123573558Y-140604210D01*
X123573558Y-140604210D01*
G37*
D13*
X123386600Y-140898500D03*
G04 #@! TD*
D12*
G04 #@! TO.C,C4*
G36*
X115492176Y-123571868D02*
X115513411Y-123575018D01*
X115534235Y-123580234D01*
X115554447Y-123587466D01*
X115573853Y-123596645D01*
X115592266Y-123607681D01*
X115609509Y-123620469D01*
X115625415Y-123634885D01*
X115639831Y-123650791D01*
X115652619Y-123668034D01*
X115663655Y-123686447D01*
X115672834Y-123705853D01*
X115680066Y-123726065D01*
X115685282Y-123746889D01*
X115688432Y-123768124D01*
X115689485Y-123789565D01*
X115689485Y-124302065D01*
X115688432Y-124323506D01*
X115685282Y-124344741D01*
X115680066Y-124365565D01*
X115672834Y-124385777D01*
X115663655Y-124405183D01*
X115652619Y-124423596D01*
X115639831Y-124440839D01*
X115625415Y-124456745D01*
X115609509Y-124471161D01*
X115592266Y-124483949D01*
X115573853Y-124494985D01*
X115554447Y-124504164D01*
X115534235Y-124511396D01*
X115513411Y-124516612D01*
X115492176Y-124519762D01*
X115470735Y-124520815D01*
X115033235Y-124520815D01*
X115011794Y-124519762D01*
X114990559Y-124516612D01*
X114969735Y-124511396D01*
X114949523Y-124504164D01*
X114930117Y-124494985D01*
X114911704Y-124483949D01*
X114894461Y-124471161D01*
X114878555Y-124456745D01*
X114864139Y-124440839D01*
X114851351Y-124423596D01*
X114840315Y-124405183D01*
X114831136Y-124385777D01*
X114823904Y-124365565D01*
X114818688Y-124344741D01*
X114815538Y-124323506D01*
X114814485Y-124302065D01*
X114814485Y-123789565D01*
X114815538Y-123768124D01*
X114818688Y-123746889D01*
X114823904Y-123726065D01*
X114831136Y-123705853D01*
X114840315Y-123686447D01*
X114851351Y-123668034D01*
X114864139Y-123650791D01*
X114878555Y-123634885D01*
X114894461Y-123620469D01*
X114911704Y-123607681D01*
X114930117Y-123596645D01*
X114949523Y-123587466D01*
X114969735Y-123580234D01*
X114990559Y-123575018D01*
X115011794Y-123571868D01*
X115033235Y-123570815D01*
X115470735Y-123570815D01*
X115492176Y-123571868D01*
X115492176Y-123571868D01*
G37*
D26*
X115251985Y-124045815D03*
D12*
G36*
X117067176Y-123571868D02*
X117088411Y-123575018D01*
X117109235Y-123580234D01*
X117129447Y-123587466D01*
X117148853Y-123596645D01*
X117167266Y-123607681D01*
X117184509Y-123620469D01*
X117200415Y-123634885D01*
X117214831Y-123650791D01*
X117227619Y-123668034D01*
X117238655Y-123686447D01*
X117247834Y-123705853D01*
X117255066Y-123726065D01*
X117260282Y-123746889D01*
X117263432Y-123768124D01*
X117264485Y-123789565D01*
X117264485Y-124302065D01*
X117263432Y-124323506D01*
X117260282Y-124344741D01*
X117255066Y-124365565D01*
X117247834Y-124385777D01*
X117238655Y-124405183D01*
X117227619Y-124423596D01*
X117214831Y-124440839D01*
X117200415Y-124456745D01*
X117184509Y-124471161D01*
X117167266Y-124483949D01*
X117148853Y-124494985D01*
X117129447Y-124504164D01*
X117109235Y-124511396D01*
X117088411Y-124516612D01*
X117067176Y-124519762D01*
X117045735Y-124520815D01*
X116608235Y-124520815D01*
X116586794Y-124519762D01*
X116565559Y-124516612D01*
X116544735Y-124511396D01*
X116524523Y-124504164D01*
X116505117Y-124494985D01*
X116486704Y-124483949D01*
X116469461Y-124471161D01*
X116453555Y-124456745D01*
X116439139Y-124440839D01*
X116426351Y-124423596D01*
X116415315Y-124405183D01*
X116406136Y-124385777D01*
X116398904Y-124365565D01*
X116393688Y-124344741D01*
X116390538Y-124323506D01*
X116389485Y-124302065D01*
X116389485Y-123789565D01*
X116390538Y-123768124D01*
X116393688Y-123746889D01*
X116398904Y-123726065D01*
X116406136Y-123705853D01*
X116415315Y-123686447D01*
X116426351Y-123668034D01*
X116439139Y-123650791D01*
X116453555Y-123634885D01*
X116469461Y-123620469D01*
X116486704Y-123607681D01*
X116505117Y-123596645D01*
X116524523Y-123587466D01*
X116544735Y-123580234D01*
X116565559Y-123575018D01*
X116586794Y-123571868D01*
X116608235Y-123570815D01*
X117045735Y-123570815D01*
X117067176Y-123571868D01*
X117067176Y-123571868D01*
G37*
D26*
X116826985Y-124045815D03*
G04 #@! TD*
D12*
G04 #@! TO.C,C14*
G36*
X145864058Y-145155810D02*
X145878376Y-145157934D01*
X145892417Y-145161451D01*
X145906046Y-145166328D01*
X145919131Y-145172517D01*
X145931547Y-145179958D01*
X145943173Y-145188581D01*
X145953898Y-145198302D01*
X145963619Y-145209027D01*
X145972242Y-145220653D01*
X145979683Y-145233069D01*
X145985872Y-145246154D01*
X145990749Y-145259783D01*
X145994266Y-145273824D01*
X145996390Y-145288142D01*
X145997100Y-145302600D01*
X145997100Y-145647600D01*
X145996390Y-145662058D01*
X145994266Y-145676376D01*
X145990749Y-145690417D01*
X145985872Y-145704046D01*
X145979683Y-145717131D01*
X145972242Y-145729547D01*
X145963619Y-145741173D01*
X145953898Y-145751898D01*
X145943173Y-145761619D01*
X145931547Y-145770242D01*
X145919131Y-145777683D01*
X145906046Y-145783872D01*
X145892417Y-145788749D01*
X145878376Y-145792266D01*
X145864058Y-145794390D01*
X145849600Y-145795100D01*
X145554600Y-145795100D01*
X145540142Y-145794390D01*
X145525824Y-145792266D01*
X145511783Y-145788749D01*
X145498154Y-145783872D01*
X145485069Y-145777683D01*
X145472653Y-145770242D01*
X145461027Y-145761619D01*
X145450302Y-145751898D01*
X145440581Y-145741173D01*
X145431958Y-145729547D01*
X145424517Y-145717131D01*
X145418328Y-145704046D01*
X145413451Y-145690417D01*
X145409934Y-145676376D01*
X145407810Y-145662058D01*
X145407100Y-145647600D01*
X145407100Y-145302600D01*
X145407810Y-145288142D01*
X145409934Y-145273824D01*
X145413451Y-145259783D01*
X145418328Y-145246154D01*
X145424517Y-145233069D01*
X145431958Y-145220653D01*
X145440581Y-145209027D01*
X145450302Y-145198302D01*
X145461027Y-145188581D01*
X145472653Y-145179958D01*
X145485069Y-145172517D01*
X145498154Y-145166328D01*
X145511783Y-145161451D01*
X145525824Y-145157934D01*
X145540142Y-145155810D01*
X145554600Y-145155100D01*
X145849600Y-145155100D01*
X145864058Y-145155810D01*
X145864058Y-145155810D01*
G37*
D13*
X145702100Y-145475100D03*
D12*
G36*
X146834058Y-145155810D02*
X146848376Y-145157934D01*
X146862417Y-145161451D01*
X146876046Y-145166328D01*
X146889131Y-145172517D01*
X146901547Y-145179958D01*
X146913173Y-145188581D01*
X146923898Y-145198302D01*
X146933619Y-145209027D01*
X146942242Y-145220653D01*
X146949683Y-145233069D01*
X146955872Y-145246154D01*
X146960749Y-145259783D01*
X146964266Y-145273824D01*
X146966390Y-145288142D01*
X146967100Y-145302600D01*
X146967100Y-145647600D01*
X146966390Y-145662058D01*
X146964266Y-145676376D01*
X146960749Y-145690417D01*
X146955872Y-145704046D01*
X146949683Y-145717131D01*
X146942242Y-145729547D01*
X146933619Y-145741173D01*
X146923898Y-145751898D01*
X146913173Y-145761619D01*
X146901547Y-145770242D01*
X146889131Y-145777683D01*
X146876046Y-145783872D01*
X146862417Y-145788749D01*
X146848376Y-145792266D01*
X146834058Y-145794390D01*
X146819600Y-145795100D01*
X146524600Y-145795100D01*
X146510142Y-145794390D01*
X146495824Y-145792266D01*
X146481783Y-145788749D01*
X146468154Y-145783872D01*
X146455069Y-145777683D01*
X146442653Y-145770242D01*
X146431027Y-145761619D01*
X146420302Y-145751898D01*
X146410581Y-145741173D01*
X146401958Y-145729547D01*
X146394517Y-145717131D01*
X146388328Y-145704046D01*
X146383451Y-145690417D01*
X146379934Y-145676376D01*
X146377810Y-145662058D01*
X146377100Y-145647600D01*
X146377100Y-145302600D01*
X146377810Y-145288142D01*
X146379934Y-145273824D01*
X146383451Y-145259783D01*
X146388328Y-145246154D01*
X146394517Y-145233069D01*
X146401958Y-145220653D01*
X146410581Y-145209027D01*
X146420302Y-145198302D01*
X146431027Y-145188581D01*
X146442653Y-145179958D01*
X146455069Y-145172517D01*
X146468154Y-145166328D01*
X146481783Y-145161451D01*
X146495824Y-145157934D01*
X146510142Y-145155810D01*
X146524600Y-145155100D01*
X146819600Y-145155100D01*
X146834058Y-145155810D01*
X146834058Y-145155810D01*
G37*
D13*
X146672100Y-145475100D03*
G04 #@! TD*
D12*
G04 #@! TO.C,C15*
G36*
X145841058Y-128899810D02*
X145855376Y-128901934D01*
X145869417Y-128905451D01*
X145883046Y-128910328D01*
X145896131Y-128916517D01*
X145908547Y-128923958D01*
X145920173Y-128932581D01*
X145930898Y-128942302D01*
X145940619Y-128953027D01*
X145949242Y-128964653D01*
X145956683Y-128977069D01*
X145962872Y-128990154D01*
X145967749Y-129003783D01*
X145971266Y-129017824D01*
X145973390Y-129032142D01*
X145974100Y-129046600D01*
X145974100Y-129391600D01*
X145973390Y-129406058D01*
X145971266Y-129420376D01*
X145967749Y-129434417D01*
X145962872Y-129448046D01*
X145956683Y-129461131D01*
X145949242Y-129473547D01*
X145940619Y-129485173D01*
X145930898Y-129495898D01*
X145920173Y-129505619D01*
X145908547Y-129514242D01*
X145896131Y-129521683D01*
X145883046Y-129527872D01*
X145869417Y-129532749D01*
X145855376Y-129536266D01*
X145841058Y-129538390D01*
X145826600Y-129539100D01*
X145531600Y-129539100D01*
X145517142Y-129538390D01*
X145502824Y-129536266D01*
X145488783Y-129532749D01*
X145475154Y-129527872D01*
X145462069Y-129521683D01*
X145449653Y-129514242D01*
X145438027Y-129505619D01*
X145427302Y-129495898D01*
X145417581Y-129485173D01*
X145408958Y-129473547D01*
X145401517Y-129461131D01*
X145395328Y-129448046D01*
X145390451Y-129434417D01*
X145386934Y-129420376D01*
X145384810Y-129406058D01*
X145384100Y-129391600D01*
X145384100Y-129046600D01*
X145384810Y-129032142D01*
X145386934Y-129017824D01*
X145390451Y-129003783D01*
X145395328Y-128990154D01*
X145401517Y-128977069D01*
X145408958Y-128964653D01*
X145417581Y-128953027D01*
X145427302Y-128942302D01*
X145438027Y-128932581D01*
X145449653Y-128923958D01*
X145462069Y-128916517D01*
X145475154Y-128910328D01*
X145488783Y-128905451D01*
X145502824Y-128901934D01*
X145517142Y-128899810D01*
X145531600Y-128899100D01*
X145826600Y-128899100D01*
X145841058Y-128899810D01*
X145841058Y-128899810D01*
G37*
D13*
X145679100Y-129219100D03*
D12*
G36*
X146811058Y-128899810D02*
X146825376Y-128901934D01*
X146839417Y-128905451D01*
X146853046Y-128910328D01*
X146866131Y-128916517D01*
X146878547Y-128923958D01*
X146890173Y-128932581D01*
X146900898Y-128942302D01*
X146910619Y-128953027D01*
X146919242Y-128964653D01*
X146926683Y-128977069D01*
X146932872Y-128990154D01*
X146937749Y-129003783D01*
X146941266Y-129017824D01*
X146943390Y-129032142D01*
X146944100Y-129046600D01*
X146944100Y-129391600D01*
X146943390Y-129406058D01*
X146941266Y-129420376D01*
X146937749Y-129434417D01*
X146932872Y-129448046D01*
X146926683Y-129461131D01*
X146919242Y-129473547D01*
X146910619Y-129485173D01*
X146900898Y-129495898D01*
X146890173Y-129505619D01*
X146878547Y-129514242D01*
X146866131Y-129521683D01*
X146853046Y-129527872D01*
X146839417Y-129532749D01*
X146825376Y-129536266D01*
X146811058Y-129538390D01*
X146796600Y-129539100D01*
X146501600Y-129539100D01*
X146487142Y-129538390D01*
X146472824Y-129536266D01*
X146458783Y-129532749D01*
X146445154Y-129527872D01*
X146432069Y-129521683D01*
X146419653Y-129514242D01*
X146408027Y-129505619D01*
X146397302Y-129495898D01*
X146387581Y-129485173D01*
X146378958Y-129473547D01*
X146371517Y-129461131D01*
X146365328Y-129448046D01*
X146360451Y-129434417D01*
X146356934Y-129420376D01*
X146354810Y-129406058D01*
X146354100Y-129391600D01*
X146354100Y-129046600D01*
X146354810Y-129032142D01*
X146356934Y-129017824D01*
X146360451Y-129003783D01*
X146365328Y-128990154D01*
X146371517Y-128977069D01*
X146378958Y-128964653D01*
X146387581Y-128953027D01*
X146397302Y-128942302D01*
X146408027Y-128932581D01*
X146419653Y-128923958D01*
X146432069Y-128916517D01*
X146445154Y-128910328D01*
X146458783Y-128905451D01*
X146472824Y-128901934D01*
X146487142Y-128899810D01*
X146501600Y-128899100D01*
X146796600Y-128899100D01*
X146811058Y-128899810D01*
X146811058Y-128899810D01*
G37*
D13*
X146649100Y-129219100D03*
G04 #@! TD*
D12*
G04 #@! TO.C,C16*
G36*
X150957558Y-109637210D02*
X150971876Y-109639334D01*
X150985917Y-109642851D01*
X150999546Y-109647728D01*
X151012631Y-109653917D01*
X151025047Y-109661358D01*
X151036673Y-109669981D01*
X151047398Y-109679702D01*
X151057119Y-109690427D01*
X151065742Y-109702053D01*
X151073183Y-109714469D01*
X151079372Y-109727554D01*
X151084249Y-109741183D01*
X151087766Y-109755224D01*
X151089890Y-109769542D01*
X151090600Y-109784000D01*
X151090600Y-110129000D01*
X151089890Y-110143458D01*
X151087766Y-110157776D01*
X151084249Y-110171817D01*
X151079372Y-110185446D01*
X151073183Y-110198531D01*
X151065742Y-110210947D01*
X151057119Y-110222573D01*
X151047398Y-110233298D01*
X151036673Y-110243019D01*
X151025047Y-110251642D01*
X151012631Y-110259083D01*
X150999546Y-110265272D01*
X150985917Y-110270149D01*
X150971876Y-110273666D01*
X150957558Y-110275790D01*
X150943100Y-110276500D01*
X150648100Y-110276500D01*
X150633642Y-110275790D01*
X150619324Y-110273666D01*
X150605283Y-110270149D01*
X150591654Y-110265272D01*
X150578569Y-110259083D01*
X150566153Y-110251642D01*
X150554527Y-110243019D01*
X150543802Y-110233298D01*
X150534081Y-110222573D01*
X150525458Y-110210947D01*
X150518017Y-110198531D01*
X150511828Y-110185446D01*
X150506951Y-110171817D01*
X150503434Y-110157776D01*
X150501310Y-110143458D01*
X150500600Y-110129000D01*
X150500600Y-109784000D01*
X150501310Y-109769542D01*
X150503434Y-109755224D01*
X150506951Y-109741183D01*
X150511828Y-109727554D01*
X150518017Y-109714469D01*
X150525458Y-109702053D01*
X150534081Y-109690427D01*
X150543802Y-109679702D01*
X150554527Y-109669981D01*
X150566153Y-109661358D01*
X150578569Y-109653917D01*
X150591654Y-109647728D01*
X150605283Y-109642851D01*
X150619324Y-109639334D01*
X150633642Y-109637210D01*
X150648100Y-109636500D01*
X150943100Y-109636500D01*
X150957558Y-109637210D01*
X150957558Y-109637210D01*
G37*
D13*
X150795600Y-109956500D03*
D12*
G36*
X149987558Y-109637210D02*
X150001876Y-109639334D01*
X150015917Y-109642851D01*
X150029546Y-109647728D01*
X150042631Y-109653917D01*
X150055047Y-109661358D01*
X150066673Y-109669981D01*
X150077398Y-109679702D01*
X150087119Y-109690427D01*
X150095742Y-109702053D01*
X150103183Y-109714469D01*
X150109372Y-109727554D01*
X150114249Y-109741183D01*
X150117766Y-109755224D01*
X150119890Y-109769542D01*
X150120600Y-109784000D01*
X150120600Y-110129000D01*
X150119890Y-110143458D01*
X150117766Y-110157776D01*
X150114249Y-110171817D01*
X150109372Y-110185446D01*
X150103183Y-110198531D01*
X150095742Y-110210947D01*
X150087119Y-110222573D01*
X150077398Y-110233298D01*
X150066673Y-110243019D01*
X150055047Y-110251642D01*
X150042631Y-110259083D01*
X150029546Y-110265272D01*
X150015917Y-110270149D01*
X150001876Y-110273666D01*
X149987558Y-110275790D01*
X149973100Y-110276500D01*
X149678100Y-110276500D01*
X149663642Y-110275790D01*
X149649324Y-110273666D01*
X149635283Y-110270149D01*
X149621654Y-110265272D01*
X149608569Y-110259083D01*
X149596153Y-110251642D01*
X149584527Y-110243019D01*
X149573802Y-110233298D01*
X149564081Y-110222573D01*
X149555458Y-110210947D01*
X149548017Y-110198531D01*
X149541828Y-110185446D01*
X149536951Y-110171817D01*
X149533434Y-110157776D01*
X149531310Y-110143458D01*
X149530600Y-110129000D01*
X149530600Y-109784000D01*
X149531310Y-109769542D01*
X149533434Y-109755224D01*
X149536951Y-109741183D01*
X149541828Y-109727554D01*
X149548017Y-109714469D01*
X149555458Y-109702053D01*
X149564081Y-109690427D01*
X149573802Y-109679702D01*
X149584527Y-109669981D01*
X149596153Y-109661358D01*
X149608569Y-109653917D01*
X149621654Y-109647728D01*
X149635283Y-109642851D01*
X149649324Y-109639334D01*
X149663642Y-109637210D01*
X149678100Y-109636500D01*
X149973100Y-109636500D01*
X149987558Y-109637210D01*
X149987558Y-109637210D01*
G37*
D13*
X149825600Y-109956500D03*
G04 #@! TD*
D12*
G04 #@! TO.C,D1*
G36*
X113861777Y-121311198D02*
X113869495Y-121312343D01*
X113877063Y-121314238D01*
X113884408Y-121316867D01*
X113891461Y-121320202D01*
X113898153Y-121324213D01*
X113904419Y-121328861D01*
X113910200Y-121334100D01*
X113915439Y-121339881D01*
X113920087Y-121346147D01*
X113924098Y-121352839D01*
X113927433Y-121359892D01*
X113930062Y-121367237D01*
X113931957Y-121374805D01*
X113933102Y-121382523D01*
X113933485Y-121390315D01*
X113933485Y-121549315D01*
X113933102Y-121557107D01*
X113931957Y-121564825D01*
X113930062Y-121572393D01*
X113927433Y-121579738D01*
X113924098Y-121586791D01*
X113920087Y-121593483D01*
X113915439Y-121599749D01*
X113910200Y-121605530D01*
X113904419Y-121610769D01*
X113898153Y-121615417D01*
X113891461Y-121619428D01*
X113884408Y-121622763D01*
X113877063Y-121625392D01*
X113869495Y-121627287D01*
X113861777Y-121628432D01*
X113853985Y-121628815D01*
X113652985Y-121628815D01*
X113645193Y-121628432D01*
X113637475Y-121627287D01*
X113629907Y-121625392D01*
X113622562Y-121622763D01*
X113615509Y-121619428D01*
X113608817Y-121615417D01*
X113602551Y-121610769D01*
X113596770Y-121605530D01*
X113591531Y-121599749D01*
X113586883Y-121593483D01*
X113582872Y-121586791D01*
X113579537Y-121579738D01*
X113576908Y-121572393D01*
X113575013Y-121564825D01*
X113573868Y-121557107D01*
X113573485Y-121549315D01*
X113573485Y-121390315D01*
X113573868Y-121382523D01*
X113575013Y-121374805D01*
X113576908Y-121367237D01*
X113579537Y-121359892D01*
X113582872Y-121352839D01*
X113586883Y-121346147D01*
X113591531Y-121339881D01*
X113596770Y-121334100D01*
X113602551Y-121328861D01*
X113608817Y-121324213D01*
X113615509Y-121320202D01*
X113622562Y-121316867D01*
X113629907Y-121314238D01*
X113637475Y-121312343D01*
X113645193Y-121311198D01*
X113652985Y-121310815D01*
X113853985Y-121310815D01*
X113861777Y-121311198D01*
X113861777Y-121311198D01*
G37*
D25*
X113753485Y-121469815D03*
D12*
G36*
X113861777Y-120621198D02*
X113869495Y-120622343D01*
X113877063Y-120624238D01*
X113884408Y-120626867D01*
X113891461Y-120630202D01*
X113898153Y-120634213D01*
X113904419Y-120638861D01*
X113910200Y-120644100D01*
X113915439Y-120649881D01*
X113920087Y-120656147D01*
X113924098Y-120662839D01*
X113927433Y-120669892D01*
X113930062Y-120677237D01*
X113931957Y-120684805D01*
X113933102Y-120692523D01*
X113933485Y-120700315D01*
X113933485Y-120859315D01*
X113933102Y-120867107D01*
X113931957Y-120874825D01*
X113930062Y-120882393D01*
X113927433Y-120889738D01*
X113924098Y-120896791D01*
X113920087Y-120903483D01*
X113915439Y-120909749D01*
X113910200Y-120915530D01*
X113904419Y-120920769D01*
X113898153Y-120925417D01*
X113891461Y-120929428D01*
X113884408Y-120932763D01*
X113877063Y-120935392D01*
X113869495Y-120937287D01*
X113861777Y-120938432D01*
X113853985Y-120938815D01*
X113652985Y-120938815D01*
X113645193Y-120938432D01*
X113637475Y-120937287D01*
X113629907Y-120935392D01*
X113622562Y-120932763D01*
X113615509Y-120929428D01*
X113608817Y-120925417D01*
X113602551Y-120920769D01*
X113596770Y-120915530D01*
X113591531Y-120909749D01*
X113586883Y-120903483D01*
X113582872Y-120896791D01*
X113579537Y-120889738D01*
X113576908Y-120882393D01*
X113575013Y-120874825D01*
X113573868Y-120867107D01*
X113573485Y-120859315D01*
X113573485Y-120700315D01*
X113573868Y-120692523D01*
X113575013Y-120684805D01*
X113576908Y-120677237D01*
X113579537Y-120669892D01*
X113582872Y-120662839D01*
X113586883Y-120656147D01*
X113591531Y-120649881D01*
X113596770Y-120644100D01*
X113602551Y-120638861D01*
X113608817Y-120634213D01*
X113615509Y-120630202D01*
X113622562Y-120626867D01*
X113629907Y-120624238D01*
X113637475Y-120622343D01*
X113645193Y-120621198D01*
X113652985Y-120620815D01*
X113853985Y-120620815D01*
X113861777Y-120621198D01*
X113861777Y-120621198D01*
G37*
D25*
X113753485Y-120779815D03*
G04 #@! TD*
D12*
G04 #@! TO.C,D2*
G36*
X112845777Y-121311198D02*
X112853495Y-121312343D01*
X112861063Y-121314238D01*
X112868408Y-121316867D01*
X112875461Y-121320202D01*
X112882153Y-121324213D01*
X112888419Y-121328861D01*
X112894200Y-121334100D01*
X112899439Y-121339881D01*
X112904087Y-121346147D01*
X112908098Y-121352839D01*
X112911433Y-121359892D01*
X112914062Y-121367237D01*
X112915957Y-121374805D01*
X112917102Y-121382523D01*
X112917485Y-121390315D01*
X112917485Y-121549315D01*
X112917102Y-121557107D01*
X112915957Y-121564825D01*
X112914062Y-121572393D01*
X112911433Y-121579738D01*
X112908098Y-121586791D01*
X112904087Y-121593483D01*
X112899439Y-121599749D01*
X112894200Y-121605530D01*
X112888419Y-121610769D01*
X112882153Y-121615417D01*
X112875461Y-121619428D01*
X112868408Y-121622763D01*
X112861063Y-121625392D01*
X112853495Y-121627287D01*
X112845777Y-121628432D01*
X112837985Y-121628815D01*
X112636985Y-121628815D01*
X112629193Y-121628432D01*
X112621475Y-121627287D01*
X112613907Y-121625392D01*
X112606562Y-121622763D01*
X112599509Y-121619428D01*
X112592817Y-121615417D01*
X112586551Y-121610769D01*
X112580770Y-121605530D01*
X112575531Y-121599749D01*
X112570883Y-121593483D01*
X112566872Y-121586791D01*
X112563537Y-121579738D01*
X112560908Y-121572393D01*
X112559013Y-121564825D01*
X112557868Y-121557107D01*
X112557485Y-121549315D01*
X112557485Y-121390315D01*
X112557868Y-121382523D01*
X112559013Y-121374805D01*
X112560908Y-121367237D01*
X112563537Y-121359892D01*
X112566872Y-121352839D01*
X112570883Y-121346147D01*
X112575531Y-121339881D01*
X112580770Y-121334100D01*
X112586551Y-121328861D01*
X112592817Y-121324213D01*
X112599509Y-121320202D01*
X112606562Y-121316867D01*
X112613907Y-121314238D01*
X112621475Y-121312343D01*
X112629193Y-121311198D01*
X112636985Y-121310815D01*
X112837985Y-121310815D01*
X112845777Y-121311198D01*
X112845777Y-121311198D01*
G37*
D25*
X112737485Y-121469815D03*
D12*
G36*
X112845777Y-120621198D02*
X112853495Y-120622343D01*
X112861063Y-120624238D01*
X112868408Y-120626867D01*
X112875461Y-120630202D01*
X112882153Y-120634213D01*
X112888419Y-120638861D01*
X112894200Y-120644100D01*
X112899439Y-120649881D01*
X112904087Y-120656147D01*
X112908098Y-120662839D01*
X112911433Y-120669892D01*
X112914062Y-120677237D01*
X112915957Y-120684805D01*
X112917102Y-120692523D01*
X112917485Y-120700315D01*
X112917485Y-120859315D01*
X112917102Y-120867107D01*
X112915957Y-120874825D01*
X112914062Y-120882393D01*
X112911433Y-120889738D01*
X112908098Y-120896791D01*
X112904087Y-120903483D01*
X112899439Y-120909749D01*
X112894200Y-120915530D01*
X112888419Y-120920769D01*
X112882153Y-120925417D01*
X112875461Y-120929428D01*
X112868408Y-120932763D01*
X112861063Y-120935392D01*
X112853495Y-120937287D01*
X112845777Y-120938432D01*
X112837985Y-120938815D01*
X112636985Y-120938815D01*
X112629193Y-120938432D01*
X112621475Y-120937287D01*
X112613907Y-120935392D01*
X112606562Y-120932763D01*
X112599509Y-120929428D01*
X112592817Y-120925417D01*
X112586551Y-120920769D01*
X112580770Y-120915530D01*
X112575531Y-120909749D01*
X112570883Y-120903483D01*
X112566872Y-120896791D01*
X112563537Y-120889738D01*
X112560908Y-120882393D01*
X112559013Y-120874825D01*
X112557868Y-120867107D01*
X112557485Y-120859315D01*
X112557485Y-120700315D01*
X112557868Y-120692523D01*
X112559013Y-120684805D01*
X112560908Y-120677237D01*
X112563537Y-120669892D01*
X112566872Y-120662839D01*
X112570883Y-120656147D01*
X112575531Y-120649881D01*
X112580770Y-120644100D01*
X112586551Y-120638861D01*
X112592817Y-120634213D01*
X112599509Y-120630202D01*
X112606562Y-120626867D01*
X112613907Y-120624238D01*
X112621475Y-120622343D01*
X112629193Y-120621198D01*
X112636985Y-120620815D01*
X112837985Y-120620815D01*
X112845777Y-120621198D01*
X112845777Y-120621198D01*
G37*
D25*
X112737485Y-120779815D03*
G04 #@! TD*
D12*
G04 #@! TO.C,D3*
G36*
X111829777Y-121311198D02*
X111837495Y-121312343D01*
X111845063Y-121314238D01*
X111852408Y-121316867D01*
X111859461Y-121320202D01*
X111866153Y-121324213D01*
X111872419Y-121328861D01*
X111878200Y-121334100D01*
X111883439Y-121339881D01*
X111888087Y-121346147D01*
X111892098Y-121352839D01*
X111895433Y-121359892D01*
X111898062Y-121367237D01*
X111899957Y-121374805D01*
X111901102Y-121382523D01*
X111901485Y-121390315D01*
X111901485Y-121549315D01*
X111901102Y-121557107D01*
X111899957Y-121564825D01*
X111898062Y-121572393D01*
X111895433Y-121579738D01*
X111892098Y-121586791D01*
X111888087Y-121593483D01*
X111883439Y-121599749D01*
X111878200Y-121605530D01*
X111872419Y-121610769D01*
X111866153Y-121615417D01*
X111859461Y-121619428D01*
X111852408Y-121622763D01*
X111845063Y-121625392D01*
X111837495Y-121627287D01*
X111829777Y-121628432D01*
X111821985Y-121628815D01*
X111620985Y-121628815D01*
X111613193Y-121628432D01*
X111605475Y-121627287D01*
X111597907Y-121625392D01*
X111590562Y-121622763D01*
X111583509Y-121619428D01*
X111576817Y-121615417D01*
X111570551Y-121610769D01*
X111564770Y-121605530D01*
X111559531Y-121599749D01*
X111554883Y-121593483D01*
X111550872Y-121586791D01*
X111547537Y-121579738D01*
X111544908Y-121572393D01*
X111543013Y-121564825D01*
X111541868Y-121557107D01*
X111541485Y-121549315D01*
X111541485Y-121390315D01*
X111541868Y-121382523D01*
X111543013Y-121374805D01*
X111544908Y-121367237D01*
X111547537Y-121359892D01*
X111550872Y-121352839D01*
X111554883Y-121346147D01*
X111559531Y-121339881D01*
X111564770Y-121334100D01*
X111570551Y-121328861D01*
X111576817Y-121324213D01*
X111583509Y-121320202D01*
X111590562Y-121316867D01*
X111597907Y-121314238D01*
X111605475Y-121312343D01*
X111613193Y-121311198D01*
X111620985Y-121310815D01*
X111821985Y-121310815D01*
X111829777Y-121311198D01*
X111829777Y-121311198D01*
G37*
D25*
X111721485Y-121469815D03*
D12*
G36*
X111829777Y-120621198D02*
X111837495Y-120622343D01*
X111845063Y-120624238D01*
X111852408Y-120626867D01*
X111859461Y-120630202D01*
X111866153Y-120634213D01*
X111872419Y-120638861D01*
X111878200Y-120644100D01*
X111883439Y-120649881D01*
X111888087Y-120656147D01*
X111892098Y-120662839D01*
X111895433Y-120669892D01*
X111898062Y-120677237D01*
X111899957Y-120684805D01*
X111901102Y-120692523D01*
X111901485Y-120700315D01*
X111901485Y-120859315D01*
X111901102Y-120867107D01*
X111899957Y-120874825D01*
X111898062Y-120882393D01*
X111895433Y-120889738D01*
X111892098Y-120896791D01*
X111888087Y-120903483D01*
X111883439Y-120909749D01*
X111878200Y-120915530D01*
X111872419Y-120920769D01*
X111866153Y-120925417D01*
X111859461Y-120929428D01*
X111852408Y-120932763D01*
X111845063Y-120935392D01*
X111837495Y-120937287D01*
X111829777Y-120938432D01*
X111821985Y-120938815D01*
X111620985Y-120938815D01*
X111613193Y-120938432D01*
X111605475Y-120937287D01*
X111597907Y-120935392D01*
X111590562Y-120932763D01*
X111583509Y-120929428D01*
X111576817Y-120925417D01*
X111570551Y-120920769D01*
X111564770Y-120915530D01*
X111559531Y-120909749D01*
X111554883Y-120903483D01*
X111550872Y-120896791D01*
X111547537Y-120889738D01*
X111544908Y-120882393D01*
X111543013Y-120874825D01*
X111541868Y-120867107D01*
X111541485Y-120859315D01*
X111541485Y-120700315D01*
X111541868Y-120692523D01*
X111543013Y-120684805D01*
X111544908Y-120677237D01*
X111547537Y-120669892D01*
X111550872Y-120662839D01*
X111554883Y-120656147D01*
X111559531Y-120649881D01*
X111564770Y-120644100D01*
X111570551Y-120638861D01*
X111576817Y-120634213D01*
X111583509Y-120630202D01*
X111590562Y-120626867D01*
X111597907Y-120624238D01*
X111605475Y-120622343D01*
X111613193Y-120621198D01*
X111620985Y-120620815D01*
X111821985Y-120620815D01*
X111829777Y-120621198D01*
X111829777Y-120621198D01*
G37*
D25*
X111721485Y-120779815D03*
G04 #@! TD*
D12*
G04 #@! TO.C,R2*
G36*
X107825558Y-122639210D02*
X107839876Y-122641334D01*
X107853917Y-122644851D01*
X107867546Y-122649728D01*
X107880631Y-122655917D01*
X107893047Y-122663358D01*
X107904673Y-122671981D01*
X107915398Y-122681702D01*
X107925119Y-122692427D01*
X107933742Y-122704053D01*
X107941183Y-122716469D01*
X107947372Y-122729554D01*
X107952249Y-122743183D01*
X107955766Y-122757224D01*
X107957890Y-122771542D01*
X107958600Y-122786000D01*
X107958600Y-123081000D01*
X107957890Y-123095458D01*
X107955766Y-123109776D01*
X107952249Y-123123817D01*
X107947372Y-123137446D01*
X107941183Y-123150531D01*
X107933742Y-123162947D01*
X107925119Y-123174573D01*
X107915398Y-123185298D01*
X107904673Y-123195019D01*
X107893047Y-123203642D01*
X107880631Y-123211083D01*
X107867546Y-123217272D01*
X107853917Y-123222149D01*
X107839876Y-123225666D01*
X107825558Y-123227790D01*
X107811100Y-123228500D01*
X107466100Y-123228500D01*
X107451642Y-123227790D01*
X107437324Y-123225666D01*
X107423283Y-123222149D01*
X107409654Y-123217272D01*
X107396569Y-123211083D01*
X107384153Y-123203642D01*
X107372527Y-123195019D01*
X107361802Y-123185298D01*
X107352081Y-123174573D01*
X107343458Y-123162947D01*
X107336017Y-123150531D01*
X107329828Y-123137446D01*
X107324951Y-123123817D01*
X107321434Y-123109776D01*
X107319310Y-123095458D01*
X107318600Y-123081000D01*
X107318600Y-122786000D01*
X107319310Y-122771542D01*
X107321434Y-122757224D01*
X107324951Y-122743183D01*
X107329828Y-122729554D01*
X107336017Y-122716469D01*
X107343458Y-122704053D01*
X107352081Y-122692427D01*
X107361802Y-122681702D01*
X107372527Y-122671981D01*
X107384153Y-122663358D01*
X107396569Y-122655917D01*
X107409654Y-122649728D01*
X107423283Y-122644851D01*
X107437324Y-122641334D01*
X107451642Y-122639210D01*
X107466100Y-122638500D01*
X107811100Y-122638500D01*
X107825558Y-122639210D01*
X107825558Y-122639210D01*
G37*
D13*
X107638600Y-122933500D03*
D12*
G36*
X107825558Y-123609210D02*
X107839876Y-123611334D01*
X107853917Y-123614851D01*
X107867546Y-123619728D01*
X107880631Y-123625917D01*
X107893047Y-123633358D01*
X107904673Y-123641981D01*
X107915398Y-123651702D01*
X107925119Y-123662427D01*
X107933742Y-123674053D01*
X107941183Y-123686469D01*
X107947372Y-123699554D01*
X107952249Y-123713183D01*
X107955766Y-123727224D01*
X107957890Y-123741542D01*
X107958600Y-123756000D01*
X107958600Y-124051000D01*
X107957890Y-124065458D01*
X107955766Y-124079776D01*
X107952249Y-124093817D01*
X107947372Y-124107446D01*
X107941183Y-124120531D01*
X107933742Y-124132947D01*
X107925119Y-124144573D01*
X107915398Y-124155298D01*
X107904673Y-124165019D01*
X107893047Y-124173642D01*
X107880631Y-124181083D01*
X107867546Y-124187272D01*
X107853917Y-124192149D01*
X107839876Y-124195666D01*
X107825558Y-124197790D01*
X107811100Y-124198500D01*
X107466100Y-124198500D01*
X107451642Y-124197790D01*
X107437324Y-124195666D01*
X107423283Y-124192149D01*
X107409654Y-124187272D01*
X107396569Y-124181083D01*
X107384153Y-124173642D01*
X107372527Y-124165019D01*
X107361802Y-124155298D01*
X107352081Y-124144573D01*
X107343458Y-124132947D01*
X107336017Y-124120531D01*
X107329828Y-124107446D01*
X107324951Y-124093817D01*
X107321434Y-124079776D01*
X107319310Y-124065458D01*
X107318600Y-124051000D01*
X107318600Y-123756000D01*
X107319310Y-123741542D01*
X107321434Y-123727224D01*
X107324951Y-123713183D01*
X107329828Y-123699554D01*
X107336017Y-123686469D01*
X107343458Y-123674053D01*
X107352081Y-123662427D01*
X107361802Y-123651702D01*
X107372527Y-123641981D01*
X107384153Y-123633358D01*
X107396569Y-123625917D01*
X107409654Y-123619728D01*
X107423283Y-123614851D01*
X107437324Y-123611334D01*
X107451642Y-123609210D01*
X107466100Y-123608500D01*
X107811100Y-123608500D01*
X107825558Y-123609210D01*
X107825558Y-123609210D01*
G37*
D13*
X107638600Y-123903500D03*
G04 #@! TD*
D12*
G04 #@! TO.C,R3*
G36*
X106809558Y-123609210D02*
X106823876Y-123611334D01*
X106837917Y-123614851D01*
X106851546Y-123619728D01*
X106864631Y-123625917D01*
X106877047Y-123633358D01*
X106888673Y-123641981D01*
X106899398Y-123651702D01*
X106909119Y-123662427D01*
X106917742Y-123674053D01*
X106925183Y-123686469D01*
X106931372Y-123699554D01*
X106936249Y-123713183D01*
X106939766Y-123727224D01*
X106941890Y-123741542D01*
X106942600Y-123756000D01*
X106942600Y-124051000D01*
X106941890Y-124065458D01*
X106939766Y-124079776D01*
X106936249Y-124093817D01*
X106931372Y-124107446D01*
X106925183Y-124120531D01*
X106917742Y-124132947D01*
X106909119Y-124144573D01*
X106899398Y-124155298D01*
X106888673Y-124165019D01*
X106877047Y-124173642D01*
X106864631Y-124181083D01*
X106851546Y-124187272D01*
X106837917Y-124192149D01*
X106823876Y-124195666D01*
X106809558Y-124197790D01*
X106795100Y-124198500D01*
X106450100Y-124198500D01*
X106435642Y-124197790D01*
X106421324Y-124195666D01*
X106407283Y-124192149D01*
X106393654Y-124187272D01*
X106380569Y-124181083D01*
X106368153Y-124173642D01*
X106356527Y-124165019D01*
X106345802Y-124155298D01*
X106336081Y-124144573D01*
X106327458Y-124132947D01*
X106320017Y-124120531D01*
X106313828Y-124107446D01*
X106308951Y-124093817D01*
X106305434Y-124079776D01*
X106303310Y-124065458D01*
X106302600Y-124051000D01*
X106302600Y-123756000D01*
X106303310Y-123741542D01*
X106305434Y-123727224D01*
X106308951Y-123713183D01*
X106313828Y-123699554D01*
X106320017Y-123686469D01*
X106327458Y-123674053D01*
X106336081Y-123662427D01*
X106345802Y-123651702D01*
X106356527Y-123641981D01*
X106368153Y-123633358D01*
X106380569Y-123625917D01*
X106393654Y-123619728D01*
X106407283Y-123614851D01*
X106421324Y-123611334D01*
X106435642Y-123609210D01*
X106450100Y-123608500D01*
X106795100Y-123608500D01*
X106809558Y-123609210D01*
X106809558Y-123609210D01*
G37*
D13*
X106622600Y-123903500D03*
D12*
G36*
X106809558Y-122639210D02*
X106823876Y-122641334D01*
X106837917Y-122644851D01*
X106851546Y-122649728D01*
X106864631Y-122655917D01*
X106877047Y-122663358D01*
X106888673Y-122671981D01*
X106899398Y-122681702D01*
X106909119Y-122692427D01*
X106917742Y-122704053D01*
X106925183Y-122716469D01*
X106931372Y-122729554D01*
X106936249Y-122743183D01*
X106939766Y-122757224D01*
X106941890Y-122771542D01*
X106942600Y-122786000D01*
X106942600Y-123081000D01*
X106941890Y-123095458D01*
X106939766Y-123109776D01*
X106936249Y-123123817D01*
X106931372Y-123137446D01*
X106925183Y-123150531D01*
X106917742Y-123162947D01*
X106909119Y-123174573D01*
X106899398Y-123185298D01*
X106888673Y-123195019D01*
X106877047Y-123203642D01*
X106864631Y-123211083D01*
X106851546Y-123217272D01*
X106837917Y-123222149D01*
X106823876Y-123225666D01*
X106809558Y-123227790D01*
X106795100Y-123228500D01*
X106450100Y-123228500D01*
X106435642Y-123227790D01*
X106421324Y-123225666D01*
X106407283Y-123222149D01*
X106393654Y-123217272D01*
X106380569Y-123211083D01*
X106368153Y-123203642D01*
X106356527Y-123195019D01*
X106345802Y-123185298D01*
X106336081Y-123174573D01*
X106327458Y-123162947D01*
X106320017Y-123150531D01*
X106313828Y-123137446D01*
X106308951Y-123123817D01*
X106305434Y-123109776D01*
X106303310Y-123095458D01*
X106302600Y-123081000D01*
X106302600Y-122786000D01*
X106303310Y-122771542D01*
X106305434Y-122757224D01*
X106308951Y-122743183D01*
X106313828Y-122729554D01*
X106320017Y-122716469D01*
X106327458Y-122704053D01*
X106336081Y-122692427D01*
X106345802Y-122681702D01*
X106356527Y-122671981D01*
X106368153Y-122663358D01*
X106380569Y-122655917D01*
X106393654Y-122649728D01*
X106407283Y-122644851D01*
X106421324Y-122641334D01*
X106435642Y-122639210D01*
X106450100Y-122638500D01*
X106795100Y-122638500D01*
X106809558Y-122639210D01*
X106809558Y-122639210D01*
G37*
D13*
X106622600Y-122933500D03*
G04 #@! TD*
D12*
G04 #@! TO.C,R5*
G36*
X150390058Y-144901810D02*
X150404376Y-144903934D01*
X150418417Y-144907451D01*
X150432046Y-144912328D01*
X150445131Y-144918517D01*
X150457547Y-144925958D01*
X150469173Y-144934581D01*
X150479898Y-144944302D01*
X150489619Y-144955027D01*
X150498242Y-144966653D01*
X150505683Y-144979069D01*
X150511872Y-144992154D01*
X150516749Y-145005783D01*
X150520266Y-145019824D01*
X150522390Y-145034142D01*
X150523100Y-145048600D01*
X150523100Y-145393600D01*
X150522390Y-145408058D01*
X150520266Y-145422376D01*
X150516749Y-145436417D01*
X150511872Y-145450046D01*
X150505683Y-145463131D01*
X150498242Y-145475547D01*
X150489619Y-145487173D01*
X150479898Y-145497898D01*
X150469173Y-145507619D01*
X150457547Y-145516242D01*
X150445131Y-145523683D01*
X150432046Y-145529872D01*
X150418417Y-145534749D01*
X150404376Y-145538266D01*
X150390058Y-145540390D01*
X150375600Y-145541100D01*
X150080600Y-145541100D01*
X150066142Y-145540390D01*
X150051824Y-145538266D01*
X150037783Y-145534749D01*
X150024154Y-145529872D01*
X150011069Y-145523683D01*
X149998653Y-145516242D01*
X149987027Y-145507619D01*
X149976302Y-145497898D01*
X149966581Y-145487173D01*
X149957958Y-145475547D01*
X149950517Y-145463131D01*
X149944328Y-145450046D01*
X149939451Y-145436417D01*
X149935934Y-145422376D01*
X149933810Y-145408058D01*
X149933100Y-145393600D01*
X149933100Y-145048600D01*
X149933810Y-145034142D01*
X149935934Y-145019824D01*
X149939451Y-145005783D01*
X149944328Y-144992154D01*
X149950517Y-144979069D01*
X149957958Y-144966653D01*
X149966581Y-144955027D01*
X149976302Y-144944302D01*
X149987027Y-144934581D01*
X149998653Y-144925958D01*
X150011069Y-144918517D01*
X150024154Y-144912328D01*
X150037783Y-144907451D01*
X150051824Y-144903934D01*
X150066142Y-144901810D01*
X150080600Y-144901100D01*
X150375600Y-144901100D01*
X150390058Y-144901810D01*
X150390058Y-144901810D01*
G37*
D13*
X150228100Y-145221100D03*
D12*
G36*
X149420058Y-144901810D02*
X149434376Y-144903934D01*
X149448417Y-144907451D01*
X149462046Y-144912328D01*
X149475131Y-144918517D01*
X149487547Y-144925958D01*
X149499173Y-144934581D01*
X149509898Y-144944302D01*
X149519619Y-144955027D01*
X149528242Y-144966653D01*
X149535683Y-144979069D01*
X149541872Y-144992154D01*
X149546749Y-145005783D01*
X149550266Y-145019824D01*
X149552390Y-145034142D01*
X149553100Y-145048600D01*
X149553100Y-145393600D01*
X149552390Y-145408058D01*
X149550266Y-145422376D01*
X149546749Y-145436417D01*
X149541872Y-145450046D01*
X149535683Y-145463131D01*
X149528242Y-145475547D01*
X149519619Y-145487173D01*
X149509898Y-145497898D01*
X149499173Y-145507619D01*
X149487547Y-145516242D01*
X149475131Y-145523683D01*
X149462046Y-145529872D01*
X149448417Y-145534749D01*
X149434376Y-145538266D01*
X149420058Y-145540390D01*
X149405600Y-145541100D01*
X149110600Y-145541100D01*
X149096142Y-145540390D01*
X149081824Y-145538266D01*
X149067783Y-145534749D01*
X149054154Y-145529872D01*
X149041069Y-145523683D01*
X149028653Y-145516242D01*
X149017027Y-145507619D01*
X149006302Y-145497898D01*
X148996581Y-145487173D01*
X148987958Y-145475547D01*
X148980517Y-145463131D01*
X148974328Y-145450046D01*
X148969451Y-145436417D01*
X148965934Y-145422376D01*
X148963810Y-145408058D01*
X148963100Y-145393600D01*
X148963100Y-145048600D01*
X148963810Y-145034142D01*
X148965934Y-145019824D01*
X148969451Y-145005783D01*
X148974328Y-144992154D01*
X148980517Y-144979069D01*
X148987958Y-144966653D01*
X148996581Y-144955027D01*
X149006302Y-144944302D01*
X149017027Y-144934581D01*
X149028653Y-144925958D01*
X149041069Y-144918517D01*
X149054154Y-144912328D01*
X149067783Y-144907451D01*
X149081824Y-144903934D01*
X149096142Y-144901810D01*
X149110600Y-144901100D01*
X149405600Y-144901100D01*
X149420058Y-144901810D01*
X149420058Y-144901810D01*
G37*
D13*
X149258100Y-145221100D03*
G04 #@! TD*
D12*
G04 #@! TO.C,R6*
G36*
X150390058Y-128645810D02*
X150404376Y-128647934D01*
X150418417Y-128651451D01*
X150432046Y-128656328D01*
X150445131Y-128662517D01*
X150457547Y-128669958D01*
X150469173Y-128678581D01*
X150479898Y-128688302D01*
X150489619Y-128699027D01*
X150498242Y-128710653D01*
X150505683Y-128723069D01*
X150511872Y-128736154D01*
X150516749Y-128749783D01*
X150520266Y-128763824D01*
X150522390Y-128778142D01*
X150523100Y-128792600D01*
X150523100Y-129137600D01*
X150522390Y-129152058D01*
X150520266Y-129166376D01*
X150516749Y-129180417D01*
X150511872Y-129194046D01*
X150505683Y-129207131D01*
X150498242Y-129219547D01*
X150489619Y-129231173D01*
X150479898Y-129241898D01*
X150469173Y-129251619D01*
X150457547Y-129260242D01*
X150445131Y-129267683D01*
X150432046Y-129273872D01*
X150418417Y-129278749D01*
X150404376Y-129282266D01*
X150390058Y-129284390D01*
X150375600Y-129285100D01*
X150080600Y-129285100D01*
X150066142Y-129284390D01*
X150051824Y-129282266D01*
X150037783Y-129278749D01*
X150024154Y-129273872D01*
X150011069Y-129267683D01*
X149998653Y-129260242D01*
X149987027Y-129251619D01*
X149976302Y-129241898D01*
X149966581Y-129231173D01*
X149957958Y-129219547D01*
X149950517Y-129207131D01*
X149944328Y-129194046D01*
X149939451Y-129180417D01*
X149935934Y-129166376D01*
X149933810Y-129152058D01*
X149933100Y-129137600D01*
X149933100Y-128792600D01*
X149933810Y-128778142D01*
X149935934Y-128763824D01*
X149939451Y-128749783D01*
X149944328Y-128736154D01*
X149950517Y-128723069D01*
X149957958Y-128710653D01*
X149966581Y-128699027D01*
X149976302Y-128688302D01*
X149987027Y-128678581D01*
X149998653Y-128669958D01*
X150011069Y-128662517D01*
X150024154Y-128656328D01*
X150037783Y-128651451D01*
X150051824Y-128647934D01*
X150066142Y-128645810D01*
X150080600Y-128645100D01*
X150375600Y-128645100D01*
X150390058Y-128645810D01*
X150390058Y-128645810D01*
G37*
D13*
X150228100Y-128965100D03*
D12*
G36*
X149420058Y-128645810D02*
X149434376Y-128647934D01*
X149448417Y-128651451D01*
X149462046Y-128656328D01*
X149475131Y-128662517D01*
X149487547Y-128669958D01*
X149499173Y-128678581D01*
X149509898Y-128688302D01*
X149519619Y-128699027D01*
X149528242Y-128710653D01*
X149535683Y-128723069D01*
X149541872Y-128736154D01*
X149546749Y-128749783D01*
X149550266Y-128763824D01*
X149552390Y-128778142D01*
X149553100Y-128792600D01*
X149553100Y-129137600D01*
X149552390Y-129152058D01*
X149550266Y-129166376D01*
X149546749Y-129180417D01*
X149541872Y-129194046D01*
X149535683Y-129207131D01*
X149528242Y-129219547D01*
X149519619Y-129231173D01*
X149509898Y-129241898D01*
X149499173Y-129251619D01*
X149487547Y-129260242D01*
X149475131Y-129267683D01*
X149462046Y-129273872D01*
X149448417Y-129278749D01*
X149434376Y-129282266D01*
X149420058Y-129284390D01*
X149405600Y-129285100D01*
X149110600Y-129285100D01*
X149096142Y-129284390D01*
X149081824Y-129282266D01*
X149067783Y-129278749D01*
X149054154Y-129273872D01*
X149041069Y-129267683D01*
X149028653Y-129260242D01*
X149017027Y-129251619D01*
X149006302Y-129241898D01*
X148996581Y-129231173D01*
X148987958Y-129219547D01*
X148980517Y-129207131D01*
X148974328Y-129194046D01*
X148969451Y-129180417D01*
X148965934Y-129166376D01*
X148963810Y-129152058D01*
X148963100Y-129137600D01*
X148963100Y-128792600D01*
X148963810Y-128778142D01*
X148965934Y-128763824D01*
X148969451Y-128749783D01*
X148974328Y-128736154D01*
X148980517Y-128723069D01*
X148987958Y-128710653D01*
X148996581Y-128699027D01*
X149006302Y-128688302D01*
X149017027Y-128678581D01*
X149028653Y-128669958D01*
X149041069Y-128662517D01*
X149054154Y-128656328D01*
X149067783Y-128651451D01*
X149081824Y-128647934D01*
X149096142Y-128645810D01*
X149110600Y-128645100D01*
X149405600Y-128645100D01*
X149420058Y-128645810D01*
X149420058Y-128645810D01*
G37*
D13*
X149258100Y-128965100D03*
G04 #@! TD*
D12*
G04 #@! TO.C,R7*
G36*
X150390058Y-112135810D02*
X150404376Y-112137934D01*
X150418417Y-112141451D01*
X150432046Y-112146328D01*
X150445131Y-112152517D01*
X150457547Y-112159958D01*
X150469173Y-112168581D01*
X150479898Y-112178302D01*
X150489619Y-112189027D01*
X150498242Y-112200653D01*
X150505683Y-112213069D01*
X150511872Y-112226154D01*
X150516749Y-112239783D01*
X150520266Y-112253824D01*
X150522390Y-112268142D01*
X150523100Y-112282600D01*
X150523100Y-112627600D01*
X150522390Y-112642058D01*
X150520266Y-112656376D01*
X150516749Y-112670417D01*
X150511872Y-112684046D01*
X150505683Y-112697131D01*
X150498242Y-112709547D01*
X150489619Y-112721173D01*
X150479898Y-112731898D01*
X150469173Y-112741619D01*
X150457547Y-112750242D01*
X150445131Y-112757683D01*
X150432046Y-112763872D01*
X150418417Y-112768749D01*
X150404376Y-112772266D01*
X150390058Y-112774390D01*
X150375600Y-112775100D01*
X150080600Y-112775100D01*
X150066142Y-112774390D01*
X150051824Y-112772266D01*
X150037783Y-112768749D01*
X150024154Y-112763872D01*
X150011069Y-112757683D01*
X149998653Y-112750242D01*
X149987027Y-112741619D01*
X149976302Y-112731898D01*
X149966581Y-112721173D01*
X149957958Y-112709547D01*
X149950517Y-112697131D01*
X149944328Y-112684046D01*
X149939451Y-112670417D01*
X149935934Y-112656376D01*
X149933810Y-112642058D01*
X149933100Y-112627600D01*
X149933100Y-112282600D01*
X149933810Y-112268142D01*
X149935934Y-112253824D01*
X149939451Y-112239783D01*
X149944328Y-112226154D01*
X149950517Y-112213069D01*
X149957958Y-112200653D01*
X149966581Y-112189027D01*
X149976302Y-112178302D01*
X149987027Y-112168581D01*
X149998653Y-112159958D01*
X150011069Y-112152517D01*
X150024154Y-112146328D01*
X150037783Y-112141451D01*
X150051824Y-112137934D01*
X150066142Y-112135810D01*
X150080600Y-112135100D01*
X150375600Y-112135100D01*
X150390058Y-112135810D01*
X150390058Y-112135810D01*
G37*
D13*
X150228100Y-112455100D03*
D12*
G36*
X149420058Y-112135810D02*
X149434376Y-112137934D01*
X149448417Y-112141451D01*
X149462046Y-112146328D01*
X149475131Y-112152517D01*
X149487547Y-112159958D01*
X149499173Y-112168581D01*
X149509898Y-112178302D01*
X149519619Y-112189027D01*
X149528242Y-112200653D01*
X149535683Y-112213069D01*
X149541872Y-112226154D01*
X149546749Y-112239783D01*
X149550266Y-112253824D01*
X149552390Y-112268142D01*
X149553100Y-112282600D01*
X149553100Y-112627600D01*
X149552390Y-112642058D01*
X149550266Y-112656376D01*
X149546749Y-112670417D01*
X149541872Y-112684046D01*
X149535683Y-112697131D01*
X149528242Y-112709547D01*
X149519619Y-112721173D01*
X149509898Y-112731898D01*
X149499173Y-112741619D01*
X149487547Y-112750242D01*
X149475131Y-112757683D01*
X149462046Y-112763872D01*
X149448417Y-112768749D01*
X149434376Y-112772266D01*
X149420058Y-112774390D01*
X149405600Y-112775100D01*
X149110600Y-112775100D01*
X149096142Y-112774390D01*
X149081824Y-112772266D01*
X149067783Y-112768749D01*
X149054154Y-112763872D01*
X149041069Y-112757683D01*
X149028653Y-112750242D01*
X149017027Y-112741619D01*
X149006302Y-112731898D01*
X148996581Y-112721173D01*
X148987958Y-112709547D01*
X148980517Y-112697131D01*
X148974328Y-112684046D01*
X148969451Y-112670417D01*
X148965934Y-112656376D01*
X148963810Y-112642058D01*
X148963100Y-112627600D01*
X148963100Y-112282600D01*
X148963810Y-112268142D01*
X148965934Y-112253824D01*
X148969451Y-112239783D01*
X148974328Y-112226154D01*
X148980517Y-112213069D01*
X148987958Y-112200653D01*
X148996581Y-112189027D01*
X149006302Y-112178302D01*
X149017027Y-112168581D01*
X149028653Y-112159958D01*
X149041069Y-112152517D01*
X149054154Y-112146328D01*
X149067783Y-112141451D01*
X149081824Y-112137934D01*
X149096142Y-112135810D01*
X149110600Y-112135100D01*
X149405600Y-112135100D01*
X149420058Y-112135810D01*
X149420058Y-112135810D01*
G37*
D13*
X149258100Y-112455100D03*
G04 #@! TD*
D12*
G04 #@! TO.C,R8*
G36*
X113940443Y-122123525D02*
X113954761Y-122125649D01*
X113968802Y-122129166D01*
X113982431Y-122134043D01*
X113995516Y-122140232D01*
X114007932Y-122147673D01*
X114019558Y-122156296D01*
X114030283Y-122166017D01*
X114040004Y-122176742D01*
X114048627Y-122188368D01*
X114056068Y-122200784D01*
X114062257Y-122213869D01*
X114067134Y-122227498D01*
X114070651Y-122241539D01*
X114072775Y-122255857D01*
X114073485Y-122270315D01*
X114073485Y-122565315D01*
X114072775Y-122579773D01*
X114070651Y-122594091D01*
X114067134Y-122608132D01*
X114062257Y-122621761D01*
X114056068Y-122634846D01*
X114048627Y-122647262D01*
X114040004Y-122658888D01*
X114030283Y-122669613D01*
X114019558Y-122679334D01*
X114007932Y-122687957D01*
X113995516Y-122695398D01*
X113982431Y-122701587D01*
X113968802Y-122706464D01*
X113954761Y-122709981D01*
X113940443Y-122712105D01*
X113925985Y-122712815D01*
X113580985Y-122712815D01*
X113566527Y-122712105D01*
X113552209Y-122709981D01*
X113538168Y-122706464D01*
X113524539Y-122701587D01*
X113511454Y-122695398D01*
X113499038Y-122687957D01*
X113487412Y-122679334D01*
X113476687Y-122669613D01*
X113466966Y-122658888D01*
X113458343Y-122647262D01*
X113450902Y-122634846D01*
X113444713Y-122621761D01*
X113439836Y-122608132D01*
X113436319Y-122594091D01*
X113434195Y-122579773D01*
X113433485Y-122565315D01*
X113433485Y-122270315D01*
X113434195Y-122255857D01*
X113436319Y-122241539D01*
X113439836Y-122227498D01*
X113444713Y-122213869D01*
X113450902Y-122200784D01*
X113458343Y-122188368D01*
X113466966Y-122176742D01*
X113476687Y-122166017D01*
X113487412Y-122156296D01*
X113499038Y-122147673D01*
X113511454Y-122140232D01*
X113524539Y-122134043D01*
X113538168Y-122129166D01*
X113552209Y-122125649D01*
X113566527Y-122123525D01*
X113580985Y-122122815D01*
X113925985Y-122122815D01*
X113940443Y-122123525D01*
X113940443Y-122123525D01*
G37*
D13*
X113753485Y-122417815D03*
D12*
G36*
X113940443Y-123093525D02*
X113954761Y-123095649D01*
X113968802Y-123099166D01*
X113982431Y-123104043D01*
X113995516Y-123110232D01*
X114007932Y-123117673D01*
X114019558Y-123126296D01*
X114030283Y-123136017D01*
X114040004Y-123146742D01*
X114048627Y-123158368D01*
X114056068Y-123170784D01*
X114062257Y-123183869D01*
X114067134Y-123197498D01*
X114070651Y-123211539D01*
X114072775Y-123225857D01*
X114073485Y-123240315D01*
X114073485Y-123535315D01*
X114072775Y-123549773D01*
X114070651Y-123564091D01*
X114067134Y-123578132D01*
X114062257Y-123591761D01*
X114056068Y-123604846D01*
X114048627Y-123617262D01*
X114040004Y-123628888D01*
X114030283Y-123639613D01*
X114019558Y-123649334D01*
X114007932Y-123657957D01*
X113995516Y-123665398D01*
X113982431Y-123671587D01*
X113968802Y-123676464D01*
X113954761Y-123679981D01*
X113940443Y-123682105D01*
X113925985Y-123682815D01*
X113580985Y-123682815D01*
X113566527Y-123682105D01*
X113552209Y-123679981D01*
X113538168Y-123676464D01*
X113524539Y-123671587D01*
X113511454Y-123665398D01*
X113499038Y-123657957D01*
X113487412Y-123649334D01*
X113476687Y-123639613D01*
X113466966Y-123628888D01*
X113458343Y-123617262D01*
X113450902Y-123604846D01*
X113444713Y-123591761D01*
X113439836Y-123578132D01*
X113436319Y-123564091D01*
X113434195Y-123549773D01*
X113433485Y-123535315D01*
X113433485Y-123240315D01*
X113434195Y-123225857D01*
X113436319Y-123211539D01*
X113439836Y-123197498D01*
X113444713Y-123183869D01*
X113450902Y-123170784D01*
X113458343Y-123158368D01*
X113466966Y-123146742D01*
X113476687Y-123136017D01*
X113487412Y-123126296D01*
X113499038Y-123117673D01*
X113511454Y-123110232D01*
X113524539Y-123104043D01*
X113538168Y-123099166D01*
X113552209Y-123095649D01*
X113566527Y-123093525D01*
X113580985Y-123092815D01*
X113925985Y-123092815D01*
X113940443Y-123093525D01*
X113940443Y-123093525D01*
G37*
D13*
X113753485Y-123387815D03*
G04 #@! TD*
D12*
G04 #@! TO.C,R9*
G36*
X112931058Y-122177810D02*
X112945376Y-122179934D01*
X112959417Y-122183451D01*
X112973046Y-122188328D01*
X112986131Y-122194517D01*
X112998547Y-122201958D01*
X113010173Y-122210581D01*
X113020898Y-122220302D01*
X113030619Y-122231027D01*
X113039242Y-122242653D01*
X113046683Y-122255069D01*
X113052872Y-122268154D01*
X113057749Y-122281783D01*
X113061266Y-122295824D01*
X113063390Y-122310142D01*
X113064100Y-122324600D01*
X113064100Y-122619600D01*
X113063390Y-122634058D01*
X113061266Y-122648376D01*
X113057749Y-122662417D01*
X113052872Y-122676046D01*
X113046683Y-122689131D01*
X113039242Y-122701547D01*
X113030619Y-122713173D01*
X113020898Y-122723898D01*
X113010173Y-122733619D01*
X112998547Y-122742242D01*
X112986131Y-122749683D01*
X112973046Y-122755872D01*
X112959417Y-122760749D01*
X112945376Y-122764266D01*
X112931058Y-122766390D01*
X112916600Y-122767100D01*
X112571600Y-122767100D01*
X112557142Y-122766390D01*
X112542824Y-122764266D01*
X112528783Y-122760749D01*
X112515154Y-122755872D01*
X112502069Y-122749683D01*
X112489653Y-122742242D01*
X112478027Y-122733619D01*
X112467302Y-122723898D01*
X112457581Y-122713173D01*
X112448958Y-122701547D01*
X112441517Y-122689131D01*
X112435328Y-122676046D01*
X112430451Y-122662417D01*
X112426934Y-122648376D01*
X112424810Y-122634058D01*
X112424100Y-122619600D01*
X112424100Y-122324600D01*
X112424810Y-122310142D01*
X112426934Y-122295824D01*
X112430451Y-122281783D01*
X112435328Y-122268154D01*
X112441517Y-122255069D01*
X112448958Y-122242653D01*
X112457581Y-122231027D01*
X112467302Y-122220302D01*
X112478027Y-122210581D01*
X112489653Y-122201958D01*
X112502069Y-122194517D01*
X112515154Y-122188328D01*
X112528783Y-122183451D01*
X112542824Y-122179934D01*
X112557142Y-122177810D01*
X112571600Y-122177100D01*
X112916600Y-122177100D01*
X112931058Y-122177810D01*
X112931058Y-122177810D01*
G37*
D13*
X112744100Y-122472100D03*
D12*
G36*
X112931058Y-123147810D02*
X112945376Y-123149934D01*
X112959417Y-123153451D01*
X112973046Y-123158328D01*
X112986131Y-123164517D01*
X112998547Y-123171958D01*
X113010173Y-123180581D01*
X113020898Y-123190302D01*
X113030619Y-123201027D01*
X113039242Y-123212653D01*
X113046683Y-123225069D01*
X113052872Y-123238154D01*
X113057749Y-123251783D01*
X113061266Y-123265824D01*
X113063390Y-123280142D01*
X113064100Y-123294600D01*
X113064100Y-123589600D01*
X113063390Y-123604058D01*
X113061266Y-123618376D01*
X113057749Y-123632417D01*
X113052872Y-123646046D01*
X113046683Y-123659131D01*
X113039242Y-123671547D01*
X113030619Y-123683173D01*
X113020898Y-123693898D01*
X113010173Y-123703619D01*
X112998547Y-123712242D01*
X112986131Y-123719683D01*
X112973046Y-123725872D01*
X112959417Y-123730749D01*
X112945376Y-123734266D01*
X112931058Y-123736390D01*
X112916600Y-123737100D01*
X112571600Y-123737100D01*
X112557142Y-123736390D01*
X112542824Y-123734266D01*
X112528783Y-123730749D01*
X112515154Y-123725872D01*
X112502069Y-123719683D01*
X112489653Y-123712242D01*
X112478027Y-123703619D01*
X112467302Y-123693898D01*
X112457581Y-123683173D01*
X112448958Y-123671547D01*
X112441517Y-123659131D01*
X112435328Y-123646046D01*
X112430451Y-123632417D01*
X112426934Y-123618376D01*
X112424810Y-123604058D01*
X112424100Y-123589600D01*
X112424100Y-123294600D01*
X112424810Y-123280142D01*
X112426934Y-123265824D01*
X112430451Y-123251783D01*
X112435328Y-123238154D01*
X112441517Y-123225069D01*
X112448958Y-123212653D01*
X112457581Y-123201027D01*
X112467302Y-123190302D01*
X112478027Y-123180581D01*
X112489653Y-123171958D01*
X112502069Y-123164517D01*
X112515154Y-123158328D01*
X112528783Y-123153451D01*
X112542824Y-123149934D01*
X112557142Y-123147810D01*
X112571600Y-123147100D01*
X112916600Y-123147100D01*
X112931058Y-123147810D01*
X112931058Y-123147810D01*
G37*
D13*
X112744100Y-123442100D03*
G04 #@! TD*
D12*
G04 #@! TO.C,R11*
G36*
X152630058Y-144901810D02*
X152644376Y-144903934D01*
X152658417Y-144907451D01*
X152672046Y-144912328D01*
X152685131Y-144918517D01*
X152697547Y-144925958D01*
X152709173Y-144934581D01*
X152719898Y-144944302D01*
X152729619Y-144955027D01*
X152738242Y-144966653D01*
X152745683Y-144979069D01*
X152751872Y-144992154D01*
X152756749Y-145005783D01*
X152760266Y-145019824D01*
X152762390Y-145034142D01*
X152763100Y-145048600D01*
X152763100Y-145393600D01*
X152762390Y-145408058D01*
X152760266Y-145422376D01*
X152756749Y-145436417D01*
X152751872Y-145450046D01*
X152745683Y-145463131D01*
X152738242Y-145475547D01*
X152729619Y-145487173D01*
X152719898Y-145497898D01*
X152709173Y-145507619D01*
X152697547Y-145516242D01*
X152685131Y-145523683D01*
X152672046Y-145529872D01*
X152658417Y-145534749D01*
X152644376Y-145538266D01*
X152630058Y-145540390D01*
X152615600Y-145541100D01*
X152320600Y-145541100D01*
X152306142Y-145540390D01*
X152291824Y-145538266D01*
X152277783Y-145534749D01*
X152264154Y-145529872D01*
X152251069Y-145523683D01*
X152238653Y-145516242D01*
X152227027Y-145507619D01*
X152216302Y-145497898D01*
X152206581Y-145487173D01*
X152197958Y-145475547D01*
X152190517Y-145463131D01*
X152184328Y-145450046D01*
X152179451Y-145436417D01*
X152175934Y-145422376D01*
X152173810Y-145408058D01*
X152173100Y-145393600D01*
X152173100Y-145048600D01*
X152173810Y-145034142D01*
X152175934Y-145019824D01*
X152179451Y-145005783D01*
X152184328Y-144992154D01*
X152190517Y-144979069D01*
X152197958Y-144966653D01*
X152206581Y-144955027D01*
X152216302Y-144944302D01*
X152227027Y-144934581D01*
X152238653Y-144925958D01*
X152251069Y-144918517D01*
X152264154Y-144912328D01*
X152277783Y-144907451D01*
X152291824Y-144903934D01*
X152306142Y-144901810D01*
X152320600Y-144901100D01*
X152615600Y-144901100D01*
X152630058Y-144901810D01*
X152630058Y-144901810D01*
G37*
D13*
X152468100Y-145221100D03*
D12*
G36*
X151660058Y-144901810D02*
X151674376Y-144903934D01*
X151688417Y-144907451D01*
X151702046Y-144912328D01*
X151715131Y-144918517D01*
X151727547Y-144925958D01*
X151739173Y-144934581D01*
X151749898Y-144944302D01*
X151759619Y-144955027D01*
X151768242Y-144966653D01*
X151775683Y-144979069D01*
X151781872Y-144992154D01*
X151786749Y-145005783D01*
X151790266Y-145019824D01*
X151792390Y-145034142D01*
X151793100Y-145048600D01*
X151793100Y-145393600D01*
X151792390Y-145408058D01*
X151790266Y-145422376D01*
X151786749Y-145436417D01*
X151781872Y-145450046D01*
X151775683Y-145463131D01*
X151768242Y-145475547D01*
X151759619Y-145487173D01*
X151749898Y-145497898D01*
X151739173Y-145507619D01*
X151727547Y-145516242D01*
X151715131Y-145523683D01*
X151702046Y-145529872D01*
X151688417Y-145534749D01*
X151674376Y-145538266D01*
X151660058Y-145540390D01*
X151645600Y-145541100D01*
X151350600Y-145541100D01*
X151336142Y-145540390D01*
X151321824Y-145538266D01*
X151307783Y-145534749D01*
X151294154Y-145529872D01*
X151281069Y-145523683D01*
X151268653Y-145516242D01*
X151257027Y-145507619D01*
X151246302Y-145497898D01*
X151236581Y-145487173D01*
X151227958Y-145475547D01*
X151220517Y-145463131D01*
X151214328Y-145450046D01*
X151209451Y-145436417D01*
X151205934Y-145422376D01*
X151203810Y-145408058D01*
X151203100Y-145393600D01*
X151203100Y-145048600D01*
X151203810Y-145034142D01*
X151205934Y-145019824D01*
X151209451Y-145005783D01*
X151214328Y-144992154D01*
X151220517Y-144979069D01*
X151227958Y-144966653D01*
X151236581Y-144955027D01*
X151246302Y-144944302D01*
X151257027Y-144934581D01*
X151268653Y-144925958D01*
X151281069Y-144918517D01*
X151294154Y-144912328D01*
X151307783Y-144907451D01*
X151321824Y-144903934D01*
X151336142Y-144901810D01*
X151350600Y-144901100D01*
X151645600Y-144901100D01*
X151660058Y-144901810D01*
X151660058Y-144901810D01*
G37*
D13*
X151498100Y-145221100D03*
G04 #@! TD*
D12*
G04 #@! TO.C,R12*
G36*
X152630058Y-128645810D02*
X152644376Y-128647934D01*
X152658417Y-128651451D01*
X152672046Y-128656328D01*
X152685131Y-128662517D01*
X152697547Y-128669958D01*
X152709173Y-128678581D01*
X152719898Y-128688302D01*
X152729619Y-128699027D01*
X152738242Y-128710653D01*
X152745683Y-128723069D01*
X152751872Y-128736154D01*
X152756749Y-128749783D01*
X152760266Y-128763824D01*
X152762390Y-128778142D01*
X152763100Y-128792600D01*
X152763100Y-129137600D01*
X152762390Y-129152058D01*
X152760266Y-129166376D01*
X152756749Y-129180417D01*
X152751872Y-129194046D01*
X152745683Y-129207131D01*
X152738242Y-129219547D01*
X152729619Y-129231173D01*
X152719898Y-129241898D01*
X152709173Y-129251619D01*
X152697547Y-129260242D01*
X152685131Y-129267683D01*
X152672046Y-129273872D01*
X152658417Y-129278749D01*
X152644376Y-129282266D01*
X152630058Y-129284390D01*
X152615600Y-129285100D01*
X152320600Y-129285100D01*
X152306142Y-129284390D01*
X152291824Y-129282266D01*
X152277783Y-129278749D01*
X152264154Y-129273872D01*
X152251069Y-129267683D01*
X152238653Y-129260242D01*
X152227027Y-129251619D01*
X152216302Y-129241898D01*
X152206581Y-129231173D01*
X152197958Y-129219547D01*
X152190517Y-129207131D01*
X152184328Y-129194046D01*
X152179451Y-129180417D01*
X152175934Y-129166376D01*
X152173810Y-129152058D01*
X152173100Y-129137600D01*
X152173100Y-128792600D01*
X152173810Y-128778142D01*
X152175934Y-128763824D01*
X152179451Y-128749783D01*
X152184328Y-128736154D01*
X152190517Y-128723069D01*
X152197958Y-128710653D01*
X152206581Y-128699027D01*
X152216302Y-128688302D01*
X152227027Y-128678581D01*
X152238653Y-128669958D01*
X152251069Y-128662517D01*
X152264154Y-128656328D01*
X152277783Y-128651451D01*
X152291824Y-128647934D01*
X152306142Y-128645810D01*
X152320600Y-128645100D01*
X152615600Y-128645100D01*
X152630058Y-128645810D01*
X152630058Y-128645810D01*
G37*
D13*
X152468100Y-128965100D03*
D12*
G36*
X151660058Y-128645810D02*
X151674376Y-128647934D01*
X151688417Y-128651451D01*
X151702046Y-128656328D01*
X151715131Y-128662517D01*
X151727547Y-128669958D01*
X151739173Y-128678581D01*
X151749898Y-128688302D01*
X151759619Y-128699027D01*
X151768242Y-128710653D01*
X151775683Y-128723069D01*
X151781872Y-128736154D01*
X151786749Y-128749783D01*
X151790266Y-128763824D01*
X151792390Y-128778142D01*
X151793100Y-128792600D01*
X151793100Y-129137600D01*
X151792390Y-129152058D01*
X151790266Y-129166376D01*
X151786749Y-129180417D01*
X151781872Y-129194046D01*
X151775683Y-129207131D01*
X151768242Y-129219547D01*
X151759619Y-129231173D01*
X151749898Y-129241898D01*
X151739173Y-129251619D01*
X151727547Y-129260242D01*
X151715131Y-129267683D01*
X151702046Y-129273872D01*
X151688417Y-129278749D01*
X151674376Y-129282266D01*
X151660058Y-129284390D01*
X151645600Y-129285100D01*
X151350600Y-129285100D01*
X151336142Y-129284390D01*
X151321824Y-129282266D01*
X151307783Y-129278749D01*
X151294154Y-129273872D01*
X151281069Y-129267683D01*
X151268653Y-129260242D01*
X151257027Y-129251619D01*
X151246302Y-129241898D01*
X151236581Y-129231173D01*
X151227958Y-129219547D01*
X151220517Y-129207131D01*
X151214328Y-129194046D01*
X151209451Y-129180417D01*
X151205934Y-129166376D01*
X151203810Y-129152058D01*
X151203100Y-129137600D01*
X151203100Y-128792600D01*
X151203810Y-128778142D01*
X151205934Y-128763824D01*
X151209451Y-128749783D01*
X151214328Y-128736154D01*
X151220517Y-128723069D01*
X151227958Y-128710653D01*
X151236581Y-128699027D01*
X151246302Y-128688302D01*
X151257027Y-128678581D01*
X151268653Y-128669958D01*
X151281069Y-128662517D01*
X151294154Y-128656328D01*
X151307783Y-128651451D01*
X151321824Y-128647934D01*
X151336142Y-128645810D01*
X151350600Y-128645100D01*
X151645600Y-128645100D01*
X151660058Y-128645810D01*
X151660058Y-128645810D01*
G37*
D13*
X151498100Y-128965100D03*
G04 #@! TD*
D12*
G04 #@! TO.C,R13*
G36*
X152630058Y-112135810D02*
X152644376Y-112137934D01*
X152658417Y-112141451D01*
X152672046Y-112146328D01*
X152685131Y-112152517D01*
X152697547Y-112159958D01*
X152709173Y-112168581D01*
X152719898Y-112178302D01*
X152729619Y-112189027D01*
X152738242Y-112200653D01*
X152745683Y-112213069D01*
X152751872Y-112226154D01*
X152756749Y-112239783D01*
X152760266Y-112253824D01*
X152762390Y-112268142D01*
X152763100Y-112282600D01*
X152763100Y-112627600D01*
X152762390Y-112642058D01*
X152760266Y-112656376D01*
X152756749Y-112670417D01*
X152751872Y-112684046D01*
X152745683Y-112697131D01*
X152738242Y-112709547D01*
X152729619Y-112721173D01*
X152719898Y-112731898D01*
X152709173Y-112741619D01*
X152697547Y-112750242D01*
X152685131Y-112757683D01*
X152672046Y-112763872D01*
X152658417Y-112768749D01*
X152644376Y-112772266D01*
X152630058Y-112774390D01*
X152615600Y-112775100D01*
X152320600Y-112775100D01*
X152306142Y-112774390D01*
X152291824Y-112772266D01*
X152277783Y-112768749D01*
X152264154Y-112763872D01*
X152251069Y-112757683D01*
X152238653Y-112750242D01*
X152227027Y-112741619D01*
X152216302Y-112731898D01*
X152206581Y-112721173D01*
X152197958Y-112709547D01*
X152190517Y-112697131D01*
X152184328Y-112684046D01*
X152179451Y-112670417D01*
X152175934Y-112656376D01*
X152173810Y-112642058D01*
X152173100Y-112627600D01*
X152173100Y-112282600D01*
X152173810Y-112268142D01*
X152175934Y-112253824D01*
X152179451Y-112239783D01*
X152184328Y-112226154D01*
X152190517Y-112213069D01*
X152197958Y-112200653D01*
X152206581Y-112189027D01*
X152216302Y-112178302D01*
X152227027Y-112168581D01*
X152238653Y-112159958D01*
X152251069Y-112152517D01*
X152264154Y-112146328D01*
X152277783Y-112141451D01*
X152291824Y-112137934D01*
X152306142Y-112135810D01*
X152320600Y-112135100D01*
X152615600Y-112135100D01*
X152630058Y-112135810D01*
X152630058Y-112135810D01*
G37*
D13*
X152468100Y-112455100D03*
D12*
G36*
X151660058Y-112135810D02*
X151674376Y-112137934D01*
X151688417Y-112141451D01*
X151702046Y-112146328D01*
X151715131Y-112152517D01*
X151727547Y-112159958D01*
X151739173Y-112168581D01*
X151749898Y-112178302D01*
X151759619Y-112189027D01*
X151768242Y-112200653D01*
X151775683Y-112213069D01*
X151781872Y-112226154D01*
X151786749Y-112239783D01*
X151790266Y-112253824D01*
X151792390Y-112268142D01*
X151793100Y-112282600D01*
X151793100Y-112627600D01*
X151792390Y-112642058D01*
X151790266Y-112656376D01*
X151786749Y-112670417D01*
X151781872Y-112684046D01*
X151775683Y-112697131D01*
X151768242Y-112709547D01*
X151759619Y-112721173D01*
X151749898Y-112731898D01*
X151739173Y-112741619D01*
X151727547Y-112750242D01*
X151715131Y-112757683D01*
X151702046Y-112763872D01*
X151688417Y-112768749D01*
X151674376Y-112772266D01*
X151660058Y-112774390D01*
X151645600Y-112775100D01*
X151350600Y-112775100D01*
X151336142Y-112774390D01*
X151321824Y-112772266D01*
X151307783Y-112768749D01*
X151294154Y-112763872D01*
X151281069Y-112757683D01*
X151268653Y-112750242D01*
X151257027Y-112741619D01*
X151246302Y-112731898D01*
X151236581Y-112721173D01*
X151227958Y-112709547D01*
X151220517Y-112697131D01*
X151214328Y-112684046D01*
X151209451Y-112670417D01*
X151205934Y-112656376D01*
X151203810Y-112642058D01*
X151203100Y-112627600D01*
X151203100Y-112282600D01*
X151203810Y-112268142D01*
X151205934Y-112253824D01*
X151209451Y-112239783D01*
X151214328Y-112226154D01*
X151220517Y-112213069D01*
X151227958Y-112200653D01*
X151236581Y-112189027D01*
X151246302Y-112178302D01*
X151257027Y-112168581D01*
X151268653Y-112159958D01*
X151281069Y-112152517D01*
X151294154Y-112146328D01*
X151307783Y-112141451D01*
X151321824Y-112137934D01*
X151336142Y-112135810D01*
X151350600Y-112135100D01*
X151645600Y-112135100D01*
X151660058Y-112135810D01*
X151660058Y-112135810D01*
G37*
D13*
X151498100Y-112455100D03*
G04 #@! TD*
D12*
G04 #@! TO.C,R16*
G36*
X139273558Y-119797210D02*
X139287876Y-119799334D01*
X139301917Y-119802851D01*
X139315546Y-119807728D01*
X139328631Y-119813917D01*
X139341047Y-119821358D01*
X139352673Y-119829981D01*
X139363398Y-119839702D01*
X139373119Y-119850427D01*
X139381742Y-119862053D01*
X139389183Y-119874469D01*
X139395372Y-119887554D01*
X139400249Y-119901183D01*
X139403766Y-119915224D01*
X139405890Y-119929542D01*
X139406600Y-119944000D01*
X139406600Y-120289000D01*
X139405890Y-120303458D01*
X139403766Y-120317776D01*
X139400249Y-120331817D01*
X139395372Y-120345446D01*
X139389183Y-120358531D01*
X139381742Y-120370947D01*
X139373119Y-120382573D01*
X139363398Y-120393298D01*
X139352673Y-120403019D01*
X139341047Y-120411642D01*
X139328631Y-120419083D01*
X139315546Y-120425272D01*
X139301917Y-120430149D01*
X139287876Y-120433666D01*
X139273558Y-120435790D01*
X139259100Y-120436500D01*
X138964100Y-120436500D01*
X138949642Y-120435790D01*
X138935324Y-120433666D01*
X138921283Y-120430149D01*
X138907654Y-120425272D01*
X138894569Y-120419083D01*
X138882153Y-120411642D01*
X138870527Y-120403019D01*
X138859802Y-120393298D01*
X138850081Y-120382573D01*
X138841458Y-120370947D01*
X138834017Y-120358531D01*
X138827828Y-120345446D01*
X138822951Y-120331817D01*
X138819434Y-120317776D01*
X138817310Y-120303458D01*
X138816600Y-120289000D01*
X138816600Y-119944000D01*
X138817310Y-119929542D01*
X138819434Y-119915224D01*
X138822951Y-119901183D01*
X138827828Y-119887554D01*
X138834017Y-119874469D01*
X138841458Y-119862053D01*
X138850081Y-119850427D01*
X138859802Y-119839702D01*
X138870527Y-119829981D01*
X138882153Y-119821358D01*
X138894569Y-119813917D01*
X138907654Y-119807728D01*
X138921283Y-119802851D01*
X138935324Y-119799334D01*
X138949642Y-119797210D01*
X138964100Y-119796500D01*
X139259100Y-119796500D01*
X139273558Y-119797210D01*
X139273558Y-119797210D01*
G37*
D13*
X139111600Y-120116500D03*
D12*
G36*
X138303558Y-119797210D02*
X138317876Y-119799334D01*
X138331917Y-119802851D01*
X138345546Y-119807728D01*
X138358631Y-119813917D01*
X138371047Y-119821358D01*
X138382673Y-119829981D01*
X138393398Y-119839702D01*
X138403119Y-119850427D01*
X138411742Y-119862053D01*
X138419183Y-119874469D01*
X138425372Y-119887554D01*
X138430249Y-119901183D01*
X138433766Y-119915224D01*
X138435890Y-119929542D01*
X138436600Y-119944000D01*
X138436600Y-120289000D01*
X138435890Y-120303458D01*
X138433766Y-120317776D01*
X138430249Y-120331817D01*
X138425372Y-120345446D01*
X138419183Y-120358531D01*
X138411742Y-120370947D01*
X138403119Y-120382573D01*
X138393398Y-120393298D01*
X138382673Y-120403019D01*
X138371047Y-120411642D01*
X138358631Y-120419083D01*
X138345546Y-120425272D01*
X138331917Y-120430149D01*
X138317876Y-120433666D01*
X138303558Y-120435790D01*
X138289100Y-120436500D01*
X137994100Y-120436500D01*
X137979642Y-120435790D01*
X137965324Y-120433666D01*
X137951283Y-120430149D01*
X137937654Y-120425272D01*
X137924569Y-120419083D01*
X137912153Y-120411642D01*
X137900527Y-120403019D01*
X137889802Y-120393298D01*
X137880081Y-120382573D01*
X137871458Y-120370947D01*
X137864017Y-120358531D01*
X137857828Y-120345446D01*
X137852951Y-120331817D01*
X137849434Y-120317776D01*
X137847310Y-120303458D01*
X137846600Y-120289000D01*
X137846600Y-119944000D01*
X137847310Y-119929542D01*
X137849434Y-119915224D01*
X137852951Y-119901183D01*
X137857828Y-119887554D01*
X137864017Y-119874469D01*
X137871458Y-119862053D01*
X137880081Y-119850427D01*
X137889802Y-119839702D01*
X137900527Y-119829981D01*
X137912153Y-119821358D01*
X137924569Y-119813917D01*
X137937654Y-119807728D01*
X137951283Y-119802851D01*
X137965324Y-119799334D01*
X137979642Y-119797210D01*
X137994100Y-119796500D01*
X138289100Y-119796500D01*
X138303558Y-119797210D01*
X138303558Y-119797210D01*
G37*
D13*
X138141600Y-120116500D03*
G04 #@! TD*
D12*
G04 #@! TO.C,R17*
G36*
X127912558Y-106589210D02*
X127926876Y-106591334D01*
X127940917Y-106594851D01*
X127954546Y-106599728D01*
X127967631Y-106605917D01*
X127980047Y-106613358D01*
X127991673Y-106621981D01*
X128002398Y-106631702D01*
X128012119Y-106642427D01*
X128020742Y-106654053D01*
X128028183Y-106666469D01*
X128034372Y-106679554D01*
X128039249Y-106693183D01*
X128042766Y-106707224D01*
X128044890Y-106721542D01*
X128045600Y-106736000D01*
X128045600Y-107081000D01*
X128044890Y-107095458D01*
X128042766Y-107109776D01*
X128039249Y-107123817D01*
X128034372Y-107137446D01*
X128028183Y-107150531D01*
X128020742Y-107162947D01*
X128012119Y-107174573D01*
X128002398Y-107185298D01*
X127991673Y-107195019D01*
X127980047Y-107203642D01*
X127967631Y-107211083D01*
X127954546Y-107217272D01*
X127940917Y-107222149D01*
X127926876Y-107225666D01*
X127912558Y-107227790D01*
X127898100Y-107228500D01*
X127603100Y-107228500D01*
X127588642Y-107227790D01*
X127574324Y-107225666D01*
X127560283Y-107222149D01*
X127546654Y-107217272D01*
X127533569Y-107211083D01*
X127521153Y-107203642D01*
X127509527Y-107195019D01*
X127498802Y-107185298D01*
X127489081Y-107174573D01*
X127480458Y-107162947D01*
X127473017Y-107150531D01*
X127466828Y-107137446D01*
X127461951Y-107123817D01*
X127458434Y-107109776D01*
X127456310Y-107095458D01*
X127455600Y-107081000D01*
X127455600Y-106736000D01*
X127456310Y-106721542D01*
X127458434Y-106707224D01*
X127461951Y-106693183D01*
X127466828Y-106679554D01*
X127473017Y-106666469D01*
X127480458Y-106654053D01*
X127489081Y-106642427D01*
X127498802Y-106631702D01*
X127509527Y-106621981D01*
X127521153Y-106613358D01*
X127533569Y-106605917D01*
X127546654Y-106599728D01*
X127560283Y-106594851D01*
X127574324Y-106591334D01*
X127588642Y-106589210D01*
X127603100Y-106588500D01*
X127898100Y-106588500D01*
X127912558Y-106589210D01*
X127912558Y-106589210D01*
G37*
D13*
X127750600Y-106908500D03*
D12*
G36*
X128882558Y-106589210D02*
X128896876Y-106591334D01*
X128910917Y-106594851D01*
X128924546Y-106599728D01*
X128937631Y-106605917D01*
X128950047Y-106613358D01*
X128961673Y-106621981D01*
X128972398Y-106631702D01*
X128982119Y-106642427D01*
X128990742Y-106654053D01*
X128998183Y-106666469D01*
X129004372Y-106679554D01*
X129009249Y-106693183D01*
X129012766Y-106707224D01*
X129014890Y-106721542D01*
X129015600Y-106736000D01*
X129015600Y-107081000D01*
X129014890Y-107095458D01*
X129012766Y-107109776D01*
X129009249Y-107123817D01*
X129004372Y-107137446D01*
X128998183Y-107150531D01*
X128990742Y-107162947D01*
X128982119Y-107174573D01*
X128972398Y-107185298D01*
X128961673Y-107195019D01*
X128950047Y-107203642D01*
X128937631Y-107211083D01*
X128924546Y-107217272D01*
X128910917Y-107222149D01*
X128896876Y-107225666D01*
X128882558Y-107227790D01*
X128868100Y-107228500D01*
X128573100Y-107228500D01*
X128558642Y-107227790D01*
X128544324Y-107225666D01*
X128530283Y-107222149D01*
X128516654Y-107217272D01*
X128503569Y-107211083D01*
X128491153Y-107203642D01*
X128479527Y-107195019D01*
X128468802Y-107185298D01*
X128459081Y-107174573D01*
X128450458Y-107162947D01*
X128443017Y-107150531D01*
X128436828Y-107137446D01*
X128431951Y-107123817D01*
X128428434Y-107109776D01*
X128426310Y-107095458D01*
X128425600Y-107081000D01*
X128425600Y-106736000D01*
X128426310Y-106721542D01*
X128428434Y-106707224D01*
X128431951Y-106693183D01*
X128436828Y-106679554D01*
X128443017Y-106666469D01*
X128450458Y-106654053D01*
X128459081Y-106642427D01*
X128468802Y-106631702D01*
X128479527Y-106621981D01*
X128491153Y-106613358D01*
X128503569Y-106605917D01*
X128516654Y-106599728D01*
X128530283Y-106594851D01*
X128544324Y-106591334D01*
X128558642Y-106589210D01*
X128573100Y-106588500D01*
X128868100Y-106588500D01*
X128882558Y-106589210D01*
X128882558Y-106589210D01*
G37*
D13*
X128720600Y-106908500D03*
G04 #@! TD*
D27*
G04 #@! TO.C,L1*
X110178600Y-111648500D03*
X110178600Y-109448500D03*
G04 #@! TD*
D28*
G04 #@! TO.C,SW3*
X148323100Y-158302100D03*
X148323100Y-148802100D03*
X152823100Y-148802100D03*
X152823100Y-158302100D03*
G04 #@! TD*
G04 #@! TO.C,SW4*
X148196100Y-141919100D03*
X148196100Y-132419100D03*
X152696100Y-132419100D03*
X152696100Y-141919100D03*
G04 #@! TD*
G04 #@! TO.C,SW5*
X148196100Y-125409100D03*
X148196100Y-115909100D03*
X152696100Y-115909100D03*
X152696100Y-125409100D03*
G04 #@! TD*
M02*
